<svg xmlns="http://www.w3.org/2000/svg" width="100%" height="100%" viewBox="0 0 1195.776 389.281">
  <g id="Group_724" data-name="Group 724" transform="translate(-362.112 -4420.617)">
    <text id="_0-19" data-name="0-19" transform="translate(371.908 4710.801)" fill="#606060" font-size="29.081" font-family="IBMPlexSans, IBM Plex Sans"><tspan x="0" y="0">0-19</tspan></text>
    <text id="_20-29" data-name="20-29" transform="translate(516.784 4710.802)" fill="#606060" font-size="29.081" font-family="IBMPlexSans, IBM Plex Sans"><tspan x="0" y="0">20-29</tspan></text>
    <text id="_30-39" data-name="30-39" transform="translate(670.383 4710.802)" fill="#606060" font-size="29.081" font-family="IBMPlexSans, IBM Plex Sans"><tspan x="0" y="0">30-39</tspan></text>
    <text id="_40-49" data-name="40-49" transform="translate(823.983 4710.801)" fill="#606060" font-size="29.081" font-family="IBMPlexSans, IBM Plex Sans"><tspan x="0" y="0">40-49</tspan></text>
    <text id="_50-59" data-name="50-59" transform="translate(977.583 4710.801)" fill="#606060" font-size="29.081" font-family="IBMPlexSans, IBM Plex Sans"><tspan x="0" y="0">50-59</tspan></text>
    <text id="_60-69" data-name="60-69" transform="translate(1131.183 4710.801)" fill="#606060" font-size="29.081" font-family="IBMPlexSans, IBM Plex Sans"><tspan x="0" y="0">60-69</tspan></text>
    <text id="_70-79" data-name="70-79" transform="translate(1284.783 4710.801)" fill="#606060" font-size="29.081" font-family="IBMPlexSans, IBM Plex Sans"><tspan x="0" y="0">70-79</tspan></text>
    <text id="_11_" data-name="14%" transform="translate(422.283 4791.398)" fill="#606060" font-size="66.047" font-family="IBMPlexSans-SemiBold, IBM Plex Sans" font-weight="600"><tspan x="-59.403" y="0">14</tspan><tspan y="0" font-size="41.197">%</tspan></text>
    <text id="_20_" data-name="22%" transform="translate(575.835 4791.398)" fill="#606060" font-size="66.047" font-family="IBMPlexSans-SemiBold, IBM Plex Sans" font-weight="600"><tspan x="-59.403" y="0">22</tspan><tspan y="0" font-size="41.197">%</tspan></text>
    <text id="_19_" data-name="20%" transform="translate(729.414 4791.898)" fill="#606060" font-size="66.047" font-family="IBMPlexSans-SemiBold, IBM Plex Sans" font-weight="600"><tspan x="-59.403" y="0">20</tspan><tspan y="0" font-size="41.197">%</tspan></text>
    <text id="_16_" data-name="16%" transform="translate(885.381 4791.398)" fill="#606060" font-size="66.047" font-family="IBMPlexSans-SemiBold, IBM Plex Sans" font-weight="600"><tspan x="-59.403" y="0">16</tspan><tspan y="0" font-size="41.197">%</tspan></text>
    <text id="_15_" data-name="14%" transform="translate(1036.6 4791.398)" fill="#606060" font-size="66.047" font-family="IBMPlexSans-SemiBold, IBM Plex Sans" font-weight="600"><tspan x="-59.403" y="0">14</tspan><tspan y="0" font-size="41.197">%</tspan></text>
    <text id="_9_" data-name="8%" transform="translate(1189.346 4791.398)" fill="#606060" font-size="66.047" font-family="IBMPlexSans-SemiBold, IBM Plex Sans" font-weight="600"><tspan x="-39.589" y="0">8</tspan><tspan y="0" font-size="41.197">%</tspan></text>
    <text id="_5_" data-name="4%" transform="translate(1340.588 4791.398)" fill="#606060" font-size="66.047" font-family="IBMPlexSans-SemiBold, IBM Plex Sans" font-weight="600"><tspan x="-39.589" y="0">4</tspan><tspan y="0" font-size="41.197">%</tspan></text>
    <g id="Group_494" data-name="Group 494">
      <g id="Group_492" data-name="Group 492">
        <path id="Path_304" data-name="Path 304" d="M1307.917,4492.331a20.981,20.981,0,1,0-14.861-25.682A20.973,20.973,0,0,0,1307.917,4492.331Z" fill="#a7a9ac"/>
        <path id="Path_305" data-name="Path 305" d="M1318.566,4606.3a28.8,28.8,0,0,0-2.293-6.557q-2.317-5.531-4.636-11.061-2.244-5.358-4.49-10.715l-1.505-3.59c-.1-.229-.626-1.074-.557-1.328l3.663-13.468-4.624-.891a11.249,11.249,0,0,1-9.129-10.228l-.007-.1c-1.609-22.176-2.187-30.139-2.4-33.027-.052-.726-.081-1.137-.1-1.366a2.382,2.382,0,0,1-.02-.376l.039-.4a2.582,2.582,0,0,1,2.806-2.129,8.677,8.677,0,0,0-.241,2.592s2.511,34.613,2.511,34.622a8.629,8.629,0,0,0,7.026,7.861l34.075,6.566a8.679,8.679,0,1,0,3.269-17.048l-27.54-5.28-2.031-27.985a8.607,8.607,0,0,0-.614-2.521,2.559,2.559,0,0,1,3.211,2.334l.928,12.778.472,6.512s3.915-14.4,3.91-14.4a16.648,16.648,0,0,0-32.054-8.915l-.076-.022-12.841,48.18a16.7,16.7,0,0,0,5.482,17.162l1.436,3.425,13.883,33.124v35.914a11.282,11.282,0,1,0,22.564,0v-38.094A10.193,10.193,0,0,0,1318.566,4606.3Z" fill="#a7a9ac"/>
        <path id="Path_306" data-name="Path 306" d="M1384.277,4654.718l-2.343-7.1-1.006.186-14.021-87.113a7.888,7.888,0,0,0-9.117-6.526l-6.22,1.059c-.034.365-.083.732-.153,1.1a11.122,11.122,0,0,1-.88,2.6l7.836-1.333a4.423,4.423,0,0,1,5.107,3.658l2.681,16.654-25.9,23.082a17.985,17.985,0,0,0-6.007,12.218l-2.465,34.7-1.1-.109-1.743,7.271a1.519,1.519,0,0,0,.88,1.752l5.448.543a1.522,1.522,0,0,0,1.209-1.545l-.275-7.471-.969-.1,1.417-19.944h37.611l3.241,20.135-1.033.19.347,7.469a1.522,1.522,0,0,0,1.333,1.438l5.385-.994A1.522,1.522,0,0,0,1384.277,4654.718Zm-47.368-29.889.808-11.384a14.551,14.551,0,0,1,4.855-9.875l24.243-21.608,6.9,42.867Z" fill="#a7a9ac"/>
      </g>
      <g id="Group_486" data-name="Group 486">
        <path id="Path_307" data-name="Path 307" d="M445.267,4564.545a7.085,7.085,0,0,0-9-4.4l-6.807,2.334v14.981l11.4-3.91A7.084,7.084,0,0,0,445.267,4564.545Z" fill="#a7a9ac"/>
        <path id="Path_308" data-name="Path 308" d="M409.392,4527.4a20.805,20.805,0,1,0-20.806-20.805A20.8,20.8,0,0,0,409.392,4527.4Z" fill="#a7a9ac"/>
        <path id="Path_309" data-name="Path 309" d="M426.766,4594.307a18.709,18.709,0,0,0,.51-4.324v-40.009a18.883,18.883,0,0,0-18.828-18.829h0a18.808,18.808,0,0,0-14.505,6.86,18.584,18.584,0,0,1,2.059,1.576c5.019,4.448,7.615,11.484,7.712,20.913.09,8.585-2.447,15.207-7.537,19.684a21.361,21.361,0,0,1-6.386,3.843c-.056.022-.114.041-.171.062v5.9a18.683,18.683,0,0,0,1.149,6.46l-1.505,23.028-15.842,9.049a9.447,9.447,0,1,0,9.372,16.4l20.253-11.567a9.453,9.453,0,0,0,4.74-7.588l1.108-16.97a18.693,18.693,0,0,0,2.674-.255l13.607,41.246a9.447,9.447,0,0,0,17.942-5.919Z" fill="#a7a9ac"/>
        <path id="Path_310" data-name="Path 310" d="M396.394,4560.569c-.075-7.273-1.841-12.491-5.246-15.507-.225-.2-.469-.378-.71-.56a18.693,18.693,0,0,0-.818,5.472v25.985a13.345,13.345,0,0,0,1.723-1.278C394.759,4571.674,396.46,4566.927,396.394,4560.569Z" fill="#a7a9ac"/>
        <path id="Path_311" data-name="Path 311" d="M372.5,4584.22s6.118.166,7.206.166a26.363,26.363,0,0,0,9.568-1.685,19.952,19.952,0,0,0,5.966-3.588c4.765-4.191,7.14-10.451,7.056-18.6-.094-9.013-2.526-15.7-7.236-19.868-3.6-3.193-8.453-4.8-14.449-4.8-1.181,0-6.834.2-6.834.2l-1.658,0a10.055,10.055,0,0,0-10.009,10.043l.049,28.128a10.056,10.056,0,0,0,10.043,10.01ZM392.087,4544c3.718,3.295,5.645,8.865,5.724,16.556.07,6.787-1.792,11.9-5.533,15.187a15.977,15.977,0,0,1-6.114,3.278l0-1.477-.061-35.108,0-1.479A14.037,14.037,0,0,1,392.087,4544Z" fill="#a7a9ac"/>
      </g>
      <g id="Group_487" data-name="Group 487">
        <path id="Path_312" data-name="Path 312" d="M561.435,4454.752l-.425.133-.424-.133-15.163-4.759v12.885a22.218,22.218,0,1,0,31.175,0v-12.885Z" fill="#a7a9ac"/>
        <path id="Path_313" data-name="Path 313" d="M595.881,4442.455l-34.87-10.944-34.87,10.944,34.87,10.945Z" fill="#a7a9ac"/>
        <path id="Path_314" data-name="Path 314" d="M577.315,4567.9v-45.15a18.05,18.05,0,0,0-18-18h0a18.014,18.014,0,0,0-14.9,7.939l-27.678,20.731a7.086,7.086,0,0,0-2.745,6.816l4.251,25.957a7.085,7.085,0,1,0,13.984-2.291l-3.557-21.716,12.649-9.475v35.156l-2.76,40.984-23.745,7.915a9.447,9.447,0,1,0,5.975,17.924l29.755-9.919a9.445,9.445,0,0,0,6.44-8.326l1.969-29.2c.12,0,.241.009.365.009h0a17.838,17.838,0,0,0,3.842-.421l18.3,62.648a9.447,9.447,0,0,0,18.137-5.3Z" fill="#a7a9ac"/>
        <path id="Path_315" data-name="Path 315" d="M606.225,4538.66a7.085,7.085,0,0,0-9-4.405l-18.108,6.21v14.979l22.7-7.785A7.081,7.081,0,0,0,606.225,4538.66Z" fill="#a7a9ac"/>
      </g>
      <g id="Group_488" data-name="Group 488">
        <path id="Path_316" data-name="Path 316" d="M741.951,4561.208a18.605,18.605,0,0,0,.1-1.882v-49.008a19.02,19.02,0,0,0-18.964-18.964h0a19,19,0,0,0-16.278,9.272l-28.361,21.243a7.088,7.088,0,0,0-2.769,4.686l-3.462,24.663a6.661,6.661,0,0,1,3.691-1.129,6.834,6.834,0,0,1,1.054.083l7.459,1.178a6.743,6.743,0,0,1,1.995.648l2.885-20.554,14.822-11.1v38.984a18.974,18.974,0,0,0,.217,2.859l-.468,6.959a8.587,8.587,0,0,1,.151,3.443l-.668,4.234-1.779,26.4-24.652,17.2a9.446,9.446,0,1,0,10.808,15.5l28.369-19.789a9.446,9.446,0,0,0,4.021-7.112l2.072-30.749c.3.014.594.024.893.024h0a18.871,18.871,0,0,0,2.981-.238l14.187,70.64a9.447,9.447,0,0,0,18.524-3.719ZM725.76,4544.1l-6.558-6.557,5.671-29.582-3.527-6.11h8.827l-3.528,6.11,5.671,29.582Z" fill="#a7a9ac"/>
        <path id="Path_317" data-name="Path 317" d="M772.151,4527.208a7.087,7.087,0,0,0-9-4.4l-19.274,6.609v14.981l23.87-8.185A7.084,7.084,0,0,0,772.151,4527.208Z" fill="#a7a9ac"/>
        <path id="Path_318" data-name="Path 318" d="M683.537,4556.912l-7.46-1.178a1.029,1.029,0,0,0-.174-.014,1.109,1.109,0,0,0-1.085.93l-.389,2.468,9.217,1.456a7.3,7.3,0,0,0,.512-.538l.3-1.865A1.1,1.1,0,0,0,683.537,4556.912Z" fill="#a7a9ac"/>
        <path id="Path_319" data-name="Path 319" d="M724.867,4483.339a23.411,23.411,0,1,0-23.412-23.411A23.41,23.41,0,0,0,724.867,4483.339Z" fill="#a7a9ac"/>
        <path id="Path_320" data-name="Path 320" d="M691.986,4600.332a7.3,7.3,0,0,0,7.186-6.139l3.446-21.827a7.294,7.294,0,0,0-6.05-8.318L688,4562.7l.613-3.868a5.324,5.324,0,0,0-4.422-6.078l-7.461-1.179a5.463,5.463,0,0,0-.831-.065,5.324,5.324,0,0,0-5.246,4.486l-.613,3.869-8.564-1.354a7.422,7.422,0,0,0-1.131-.088,7.3,7.3,0,0,0-7.186,6.137l-3.447,21.827a7.294,7.294,0,0,0,6.05,8.319l35.088,5.54A7.307,7.307,0,0,0,691.986,4600.332Zm-6.134-41.941-.61,3.869-12.434-1.963.611-3.869a2.512,2.512,0,0,1,2.88-2.093l7.459,1.178A2.52,2.52,0,0,1,685.852,4558.391Z" fill="#a7a9ac"/>
      </g>
      <g id="Group_489" data-name="Group 489">
        <path id="Path_321" data-name="Path 321" d="M865.9,4477.813A23.411,23.411,0,1,0,842.49,4454.4,23.411,23.411,0,0,0,865.9,4477.813Z" fill="#a7a9ac"/>
        <path id="Path_322" data-name="Path 322" d="M891.566,4567.659a19.007,19.007,0,0,1,.726-6.565,15.761,15.761,0,0,0,.6-4.3l-5.1-48.091a22.955,22.955,0,0,0-14.173-21.141l-4.285,6.379,5.672,36.662-6.556,6.556L861.9,4530.6l5.669-36.662-8.164-8.109a22.648,22.648,0,0,0-10.531,2.663c-4.235,2.712-35.733,26.909-35.733,26.909a8.265,8.265,0,0,0-3.088,5.549l-3.172,27.818a8.373,8.373,0,0,0,7.113,9.3,8.1,8.1,0,0,0,1.091.072,8.268,8.268,0,0,0,8.2-7.33l2.8-24.573,9.525-7.528-4.038,38.079a17.323,17.323,0,0,0,2.786,9.173,19.785,19.785,0,0,1,3.094,10.529l-.117,26.7L818.7,4630.963a10.864,10.864,0,1,0,18.041,12.109l20.466-30.486a10.865,10.865,0,0,0,1.843-6.009l.114-25.92a1,1,0,0,1,1-1l4.756.008a25.409,25.409,0,0,0,4.188-.361,1.4,1.4,0,0,1,1.637,1.271l4.954,65.656a10.862,10.862,0,0,0,10.821,10.047c.273,0,.55-.01.828-.031a10.862,10.862,0,0,0,10.016-11.65Z" fill="#a7a9ac"/>
        <path id="Path_323" data-name="Path 323" d="M922.427,4532.683a8.266,8.266,0,0,0-9.488-6.831l-20.413,3.323,1.628,16.484,21.441-3.488A8.268,8.268,0,0,0,922.427,4532.683Z" fill="#a7a9ac"/>
      </g>
      <g id="Group_490" data-name="Group 490">
        <g id="Group_28" data-name="Group 28">
          <path id="Path_324" data-name="Path 324" d="M1032.776,4562.7a20.769,20.769,0,0,0,2.1-6.257l7.552-45.4a21.092,21.092,0,0,0-17.294-24.2l-3.841-.638a20.967,20.967,0,0,0-15.679,3.667l-31.36,19.231a7.085,7.085,0,0,0-3.381,6.006l-.166,34.8a7.084,7.084,0,0,0,7.052,7.118h.035a7.086,7.086,0,0,0,7.083-7.051l.148-30.859,10.552-6.471-6.031,36.245a20.846,20.846,0,0,0,.289,8.29v41.089l-18.443,42.182a9.447,9.447,0,1,0,17.313,7.568l19.233-43.99a9.446,9.446,0,0,0,.792-3.784V4573.41l1.95.324a20.885,20.885,0,0,0,5.209.208l16.332,74.9a9.447,9.447,0,1,0,18.461-4.026Z" fill="#a7a9ac"/>
          <path id="Path_325" data-name="Path 325" d="M1010.206,4451.694a23.41,23.41,0,1,0,40.385-11.268Z" fill="#a7a9ac"/>
          <path id="Path_326" data-name="Path 326" d="M1002.617,4451.837a1.647,1.647,0,0,0,1.254.154l51.867-14.471a1.654,1.654,0,0,0-.888-3.186l-7.963,2.222-2.983-10.692a7.674,7.674,0,0,0-.483-1.281,6.966,6.966,0,0,0-4.937-3.812,7.348,7.348,0,0,0-6.354,1.672l-6.88,6.012-8.37-1.623a7.379,7.379,0,0,0-6.7,2.1,6.915,6.915,0,0,0-1.874,6.388c.032.148.07.3.111.444l2.983,10.691-8.416,2.348a1.651,1.651,0,0,0-.367,3.031Z" fill="#a7a9ac"/>
          <path id="Path_327" data-name="Path 327" d="M1063.45,4550.717l-22.116-18.688-2.706,16.265,15.676,13.245a7.085,7.085,0,1,0,9.146-10.822Z" fill="#a7a9ac"/>
        </g>
      </g>
      <g id="Group_491" data-name="Group 491">
        <g id="Group_29" data-name="Group 29">
          <path id="Path_328" data-name="Path 328" d="M1167.981,4560.643l25.215-37.68a20.863,20.863,0,0,0-5.72-28.856h0c-3.707-2.481-7.5-3.376-12.232-3.538a37.406,37.406,0,0,0-8.773.665l-46.629,11.358a7.777,7.777,0,0,0-5.915,7.009l-2.33,33.362a7.774,7.774,0,0,0,7.211,8.3c.184.012.368.018.551.018a7.771,7.771,0,0,0,7.743-7.231l1.937-27.7,22.13-5.391-22.448,33.543c-1.128,1.688-4.948,7.288-4.967,12.145l.733,46.533-17.247,30.236a10.363,10.363,0,1,0,18,10.268l18.65-32.7a10.35,10.35,0,0,0,1.361-5.3l-.455-28.875a20.98,20.98,0,0,0,5.531-.428l15.393,67.047a10.363,10.363,0,0,0,20.2-4.637Z" fill="#a7a9ac"/>
          <path id="Path_329" data-name="Path 329" d="M1212.2,4501.351a25.679,25.679,0,1,0-25.679-25.679A25.68,25.68,0,0,0,1212.2,4501.351Z" fill="#a7a9ac"/>
          <path id="Path_330" data-name="Path 330" d="M1222.025,4538.394a3.116,3.116,0,0,0-3.3,2.881v4.519a7.767,7.767,0,0,0,6.6-3.843v-.676A3.117,3.117,0,0,0,1222.025,4538.394Z" fill="#a7a9ac"/>
          <path id="Path_331" data-name="Path 331" d="M1214.547,4530.16l-22.6-.519-10.255,15.325,26.156.591v-4.282A12.905,12.905,0,0,1,1214.547,4530.16Z" fill="#a7a9ac"/>
          <path id="Path_332" data-name="Path 332" d="M1222.025,4529.741c-6.964,0-12.629,5.174-12.629,11.534v111.457a3.9,3.9,0,0,0,7.772,0V4541.275a4.876,4.876,0,0,1,9.711,0v6.954a3.9,3.9,0,0,0,7.772,0v-6.954C1234.651,4534.915,1228.986,4529.741,1222.025,4529.741Z" fill="#a7a9ac"/>
        </g>
      </g>
      <g id="Group_493" data-name="Group 493">
        <path id="Path_333" data-name="Path 333" d="M1463.125,4563.294a48.893,48.893,0,1,0,48.889,48.893A48.952,48.952,0,0,0,1463.125,4563.294Zm0,92.51a43.618,43.618,0,1,1,0-87.236h0a43.618,43.618,0,0,1,0,87.236Z" fill="#a7a9ac"/>
        <path id="Path_334" data-name="Path 334" d="M1463.126,4600.121a12.067,12.067,0,1,0,12.067,12.068A12.082,12.082,0,0,0,1463.126,4600.121Z" fill="#a7a9ac"/>
        <path id="Path_335" data-name="Path 335" d="M1466.569,4513.414a16.036,16.036,0,0,0-15.981,17.07l.007,29.5a54.091,54.091,0,0,1,28.059.824c-2.331-4.736-9.357-19.04-10.3-21.286-1.258-2.988.026-4.808.081-4.885l.706-.972,13.2,27.719a7.963,7.963,0,0,0,1.617,1.338c.6.24,1.3.559,2,.886a7.768,7.768,0,0,0,2.028.275h33.49a7.661,7.661,0,0,0,0-15.321h-28.216l-12.177-25.951A16.117,16.117,0,0,0,1466.569,4513.414Z" fill="#a7a9ac"/>
        <path id="Path_336" data-name="Path 336" d="M1464.328,4508.268a19.533,19.533,0,1,0-19.52-19.531A19.555,19.555,0,0,0,1464.328,4508.268Z" fill="#a7a9ac"/>
        <path id="Path_337" data-name="Path 337" d="M1514.638,4576.637a10.163,10.163,0,0,0-1.669.138l-9.525.009a53.477,53.477,0,0,1,13.351,35.4c0,1.346-.061,2.758-.187,4.315l3.578,8.118a10.183,10.183,0,0,0,9.316,6.074h0a10.179,10.179,0,0,0,9.3-14.279l-14.86-33.721A10.173,10.173,0,0,0,1514.638,4576.637Z" fill="#a7a9ac"/>
        <path id="Path_338" data-name="Path 338" d="M1425.379,4546.382h13.311V4564.4c1.542-.787,3.159-1.513,4.827-2.169v-18.259a2.417,2.417,0,0,0-2.413-2.415l-15.725,0a2.414,2.414,0,1,0,0,4.828Z" fill="#a7a9ac"/>
        <path id="Path_339" data-name="Path 339" d="M1557.683,4625.378a2.454,2.454,0,0,0-3.181-1.236l-23.166,10.21a18.367,18.367,0,0,1,3.666,3.659l21.447-9.451A2.417,2.417,0,0,0,1557.683,4625.378Z" fill="#a7a9ac"/>
        <path id="Path_340" data-name="Path 340" d="M1520.306,4636.72a12.351,12.351,0,1,0,12.351,12.351A12.365,12.365,0,0,0,1520.306,4636.72Zm0,19.546a7.2,7.2,0,1,1,7.195-7.2A7.2,7.2,0,0,1,1520.306,4656.266Z" fill="#a7a9ac"/>
      </g>
    </g>
    <text id="_80_" data-name="80+" transform="translate(1459.889 4710.801)" fill="#606060" font-size="29.081" font-family="IBMPlexSans, IBM Plex Sans"><tspan x="0" y="0">80+</tspan></text>
    <text id="_5_2" data-name="3%" transform="translate(1498.061 4791.398)" fill="#606060" font-size="66.047" font-family="IBMPlexSans-SemiBold, IBM Plex Sans" font-weight="600"><tspan x="-39.589" y="0">3</tspan><tspan y="0" font-size="41.197">%</tspan></text>
  </g>
</svg>
