<svg xmlns="http://www.w3.org/2000/svg" width="46.061" height="46.061" viewBox="0 0 46.061 46.061">
  <g id="Group_2" data-name="Group 2" transform="translate(-169.549 -18.281)">
    <circle id="Ellipse_1" data-name="Ellipse 1" cx="23.03" cy="23.03" r="23.03" transform="translate(169.549 18.281)" fill="#222b3e"/>
    <g id="Group_1" data-name="Group 1">
      <path id="Path_1" data-name="Path 1" d="M206.238,36.862a1.492,1.492,0,0,1-1.107,2.493h-1.6V54.04a1.494,1.494,0,0,1-1.493,1.493h-5.029a1.494,1.494,0,0,1-1.493-1.493V46.817h-5.88V54.04a1.494,1.494,0,0,1-1.492,1.493h-5.029a1.49,1.49,0,0,1-1.03-.412l-.05-.051a1.487,1.487,0,0,1-.413-1.03V39.355h-1.6a1.48,1.48,0,0,1-.978-.36,1.5,1.5,0,0,1-.425-.623,1.477,1.477,0,0,1,.447-1.655l2.707-2.26.93-.775,8.914-7.439a1.491,1.491,0,0,1,1.913,0l8.914,7.439.93.775,2.707,2.26.049.043Q206.19,36.809,206.238,36.862Z" fill="#fff"/>
    </g>
  </g>
</svg>
