<svg xmlns="http://www.w3.org/2000/svg" width="1453.474" height="729.537" viewBox="0 0 1453.474 729.537"><defs><style>.a,.e,.g{fill:#222b3e;}.b,.f,.h{fill:#d02f34;}.c{fill:none;stroke:#606060;stroke-miterlimit:10;stroke-width:1.417px;}.d{fill:#e8e8e8;}.e,.f,.j{font-size:76.243px;font-family:IBMPlexSans-SemiBold, IBM Plex Sans;font-weight:600;}.g,.h,.i{font-size:27.774px;font-family:IBMPlexSans, IBM Plex Sans;}.i,.j,.k{fill:#606060;}.k{font-size:43.84px;font-family:IBMPlexSans-Bold, IBM Plex Sans;font-weight:700;}</style></defs><g transform="translate(-228.085 -5916.972)"><path class="a" d="M819.061,6297.766a19.548,19.548,0,1,1-19.548,19.548A19.547,19.547,0,0,1,819.061,6297.766Z"/><path class="a" d="M818.692,6346.029a15.847,15.847,0,0,1,19.413-11.2L872.268,6344a15.849,15.849,0,0,1,7.309,26.295l-.8,6.306h14.878a9.46,9.46,0,0,1,0,18.921H868.041a9.463,9.463,0,0,1-9.385-10.651l1.438-11.325-22.135-5.941v19.131a9.461,9.461,0,0,1-18.922,0v-31.377A15.766,15.766,0,0,1,818.692,6346.029Z"/><path class="a" d="M666.491,6304.335a7.094,7.094,0,0,1,9.012-4.411l6.816,2.337v15l-11.418-3.916A7.093,7.093,0,0,1,666.491,6304.335Z"/><path class="a" d="M702.416,6267.135a20.835,20.835,0,1,1,20.836-20.834A20.834,20.834,0,0,1,702.416,6267.135Z"/><path class="a" d="M685.018,6334.139a18.7,18.7,0,0,1-.511-4.33v-40.066a18.909,18.909,0,0,1,18.855-18.855h0a18.83,18.83,0,0,1,14.525,6.87,18.609,18.609,0,0,0-2.061,1.577c-5.027,4.455-7.627,11.5-7.724,20.943-.09,8.6,2.45,15.229,7.548,19.713a21.411,21.411,0,0,0,6.4,3.848c.055.022.113.041.17.062v5.908a18.7,18.7,0,0,1-1.15,6.469l1.507,23.061,15.864,9.062a9.46,9.46,0,1,1-9.385,16.429l-20.282-11.585a9.467,9.467,0,0,1-4.747-7.6l-1.109-17a18.622,18.622,0,0,1-2.678-.254l-13.626,41.3a9.46,9.46,0,1,1-17.967-5.927Z"/><path class="a" d="M715.432,6300.353c.076-7.283,1.844-12.508,5.254-15.529.225-.2.47-.378.711-.56a18.7,18.7,0,0,1,.819,5.479v26.022a13.226,13.226,0,0,1-1.725-1.28C717.07,6311.474,715.367,6306.72,715.432,6300.353Z"/><path class="a" d="M739.657,6324.04a10.071,10.071,0,0,0,10.058-10.024l.048-28.168a10.068,10.068,0,0,0-10.022-10.057l-1.662,0s-5.66-.2-6.843-.2c-6,0-10.86,1.61-14.47,4.807-4.716,4.176-7.152,10.87-7.246,19.9-.084,8.164,2.295,14.433,7.066,18.63a19.99,19.99,0,0,0,5.975,3.593,26.394,26.394,0,0,0,9.582,1.687c1.089,0,7.216-.166,7.216-.166Zm-13.912-43.326,0,1.481-.061,35.158,0,1.479a16.006,16.006,0,0,1-6.122-3.283c-3.747-3.294-5.611-8.412-5.541-15.209.079-7.7,2.008-13.28,5.731-16.579A14.062,14.062,0,0,1,725.745,6280.714Z"/><path class="a" d="M582.543,6341l35.138-5.548a7.3,7.3,0,0,0,6.059-8.331l-3.452-21.858a7.308,7.308,0,0,0-7.2-6.146,7.389,7.389,0,0,0-1.133.089l-8.576,1.355-.613-3.875a5.332,5.332,0,0,0-5.255-4.492,5.6,5.6,0,0,0-.831.065l-7.472,1.181a5.331,5.331,0,0,0-4.428,6.087l.614,3.873-8.577,1.354a7.306,7.306,0,0,0-6.059,8.33l3.452,21.858a7.277,7.277,0,0,0,8.329,6.058Zm7.107-44.793,7.47-1.179a2.42,2.42,0,0,1,.4-.032,2.527,2.527,0,0,1,2.489,2.128l.611,3.873-12.451,1.966-.612-3.873A2.525,2.525,0,0,1,589.65,6296.21Z"/><path class="a" d="M541.267,6217.48a23.445,23.445,0,1,1,23.446-23.445A23.443,23.443,0,0,1,541.267,6217.48Z"/><path class="a" d="M515.567,6307.454a19.041,19.041,0,0,0-.728-6.575,15.8,15.8,0,0,1-.6-4.306l5.1-48.159a22.987,22.987,0,0,1,14.193-21.171l4.291,6.388-5.679,36.713,6.564,6.566,6.566-6.566-5.677-36.713,8.175-8.121a22.706,22.706,0,0,1,10.546,2.667c4.241,2.716,35.784,26.948,35.784,26.948a8.28,8.28,0,0,1,3.093,5.557l3.176,27.857a8.385,8.385,0,0,1-7.123,9.316,8.145,8.145,0,0,1-1.093.073,8.279,8.279,0,0,1-8.214-7.341l-2.8-24.608-9.538-7.539,4.043,38.133a17.348,17.348,0,0,1-2.789,9.186,19.823,19.823,0,0,0-3.1,10.544l.118,26.742,18.663,27.8a10.879,10.879,0,1,1-18.066,12.127l-20.495-30.53a10.875,10.875,0,0,1-1.846-6.017l-.114-25.957a1,1,0,0,0-1.005-1l-4.762.009a25.474,25.474,0,0,1-4.194-.362,1.4,1.4,0,0,0-1.64,1.273l-4.96,65.749a10.88,10.88,0,0,1-10.837,10.062c-.274,0-.551-.011-.829-.032a10.877,10.877,0,0,1-10.03-11.666Z"/><path class="a" d="M484.662,6272.428a8.277,8.277,0,0,1,9.5-6.841l20.442,3.328-1.629,16.508-21.472-3.494A8.279,8.279,0,0,1,484.662,6272.428Z"/><path class="a" d="M402.416,6302.484a20.828,20.828,0,0,1-2.1-6.266l-7.563-45.461a21.122,21.122,0,0,1,17.318-24.23l3.847-.639a21,21,0,0,1,15.7,3.672l31.4,19.258a7.094,7.094,0,0,1,3.385,6.014l.166,34.854a7.094,7.094,0,0,1-7.061,7.129h-.036a7.1,7.1,0,0,1-7.093-7.061l-.148-30.9-10.566-6.48,6.038,36.3a20.87,20.87,0,0,1-.289,8.3v41.147l18.469,42.242a9.461,9.461,0,1,1-17.337,7.579l-19.261-44.053a9.464,9.464,0,0,1-.792-3.789v-26.883l-1.953.325a20.9,20.9,0,0,1-5.216.209l-16.355,75.008a9.461,9.461,0,1,1-18.488-4.031Z"/><path class="a" d="M425.018,6191.324a23.444,23.444,0,1,1-40.442-11.284Z"/><path class="a" d="M432.618,6191.467a1.651,1.651,0,0,1-1.256.155l-51.94-14.493a1.656,1.656,0,1,1,.89-3.19l7.973,2.225,2.987-10.707a7.687,7.687,0,0,1,.484-1.282,6.977,6.977,0,0,1,4.945-3.818,7.352,7.352,0,0,1,6.362,1.675l6.891,6.02,8.381-1.626a7.394,7.394,0,0,1,6.709,2.107,6.921,6.921,0,0,1,1.877,6.4c-.032.149-.07.3-.111.445l-2.988,10.707,8.429,2.351a1.652,1.652,0,0,1,.367,3.035Z"/><path class="a" d="M371.7,6290.487l22.147-18.714,2.71,16.289-15.7,13.263a7.1,7.1,0,1,1-9.159-10.838Z"/><path class="a" d="M290.9,6310.26l-22.659-33.86a18.746,18.746,0,0,1,5.14-25.93h0a19.762,19.762,0,0,1,10.992-3.18,33.606,33.606,0,0,1,7.884.6l41.9,10.206a6.987,6.987,0,0,1,5.315,6.3l2.094,29.98a6.986,6.986,0,0,1-6.48,7.454c-.166.011-.33.017-.495.017a6.984,6.984,0,0,1-6.958-6.5l-1.741-24.888-19.886-4.845,20.172,30.143c1.014,1.516,4.447,6.549,4.463,10.913l-.658,41.815,15.5,27.171a9.312,9.312,0,1,1-16.177,9.227L312.548,6355.5a9.275,9.275,0,0,1-1.223-4.76l.409-25.947a18.887,18.887,0,0,1-4.971-.384l-13.833,60.249a9.312,9.312,0,0,1-18.151-4.167Z"/><path class="a" d="M251.163,6256.98a23.076,23.076,0,1,1,23.075-23.076A23.077,23.077,0,0,1,251.163,6256.98Z"/><path class="a" d="M242.337,6290.267a2.8,2.8,0,0,1,2.967,2.589v4.061a6.979,6.979,0,0,1-5.933-3.454v-.607A2.8,2.8,0,0,1,242.337,6290.267Z"/><path class="a" d="M249.057,6282.868l20.313-.467,9.215,13.772-23.5.53v-3.847A11.6,11.6,0,0,0,249.057,6282.868Z"/><path class="a" d="M242.337,6282.491c6.258,0,11.348,4.65,11.348,10.365v100.156a3.506,3.506,0,0,1-6.984,0V6292.856a4.381,4.381,0,0,0-8.726,0v6.248a3.506,3.506,0,0,1-6.984,0v-6.248C230.991,6287.141,236.082,6282.491,242.337,6282.491Z"/><path class="b" d="M1100.394,6297.766a19.548,19.548,0,1,0,19.547,19.548A19.546,19.546,0,0,0,1100.394,6297.766Z"/><path class="b" d="M1100.763,6346.03a15.847,15.847,0,0,0-19.414-11.195l-34.162,9.171a15.849,15.849,0,0,0-7.309,26.295l.8,6.306H1025.8a9.461,9.461,0,0,0,0,18.922h25.615a9.466,9.466,0,0,0,9.384-10.653l-1.437-11.326,22.135-5.939v19.13a9.461,9.461,0,0,0,18.922,0v-31.376A15.768,15.768,0,0,0,1100.763,6346.03Z"/><path class="b" d="M1222.867,6339.041h-36.816l-2.25,15.5-18.937,9.911a9.46,9.46,0,1,0,8.771,16.765l23.221-12.151a9.46,9.46,0,0,0,4.977-7.024l2.67-18.417,12.591,45.631a9.461,9.461,0,0,0,18.24-5.034Z"/><path class="b" d="M1203.366,6269.683a6.577,6.577,0,0,0-3.557,1.04,19.308,19.308,0,0,1,4.01,5.873c2.67,6.164,2.047,13.648-1.859,22.246-3.554,7.828-8.662,12.762-15.177,14.67a21.329,21.329,0,0,1-7.423.782c-.163-.009-.325-.021-.487-.037l-10.215,22.419h69.416l-28.781-63.183A6.447,6.447,0,0,0,1203.366,6269.683Z"/><path class="b" d="M1195.284,6295.811c3.013-6.633,3.621-12.115,1.807-16.295a11.376,11.376,0,0,0-1.347-2.3l-13.542,29.728a13.448,13.448,0,0,0,2.522-.469C1189.1,6305.2,1192.651,6301.606,1195.284,6295.811Z"/><circle class="b" cx="23.554" cy="23.554" r="23.554" transform="translate(1180.195 6215.467) rotate(-0.597)"/><path class="b" d="M1214.813,6213.465v-15.63l-11.52,7.52-11.518-7.52v15.63l11.518-7.52Z"/><path class="b" d="M1163.138,6307.647l1.785.829,1.616.749a10.088,10.088,0,0,0,2.946.856,26.679,26.679,0,0,0,9.968,2.8c.472.03.944.045,1.41.045a19.583,19.583,0,0,0,5.522-.775c6.1-1.785,10.907-6.461,14.284-13.9,3.733-8.217,4.354-15.312,1.846-21.093-2.184-5.036-6.7-8.887-13.437-11.47a9.908,9.908,0,0,0-1.809-1.086l-1.054-.493-2.347-1.087a10.168,10.168,0,0,0-13.467,4.924l-12.186,26.228A10.171,10.171,0,0,0,1163.138,6307.647Zm14.8-.422a10.034,10.034,0,0,0,2.074-2.922l12.185-26.228a10.07,10.07,0,0,0,.93-4.1,10.191,10.191,0,0,0-.059-1.213,14.7,14.7,0,0,1,5.33,6.191c1.979,4.562,1.367,10.434-1.817,17.445-2.812,6.19-6.665,10.039-11.455,11.439a15.125,15.125,0,0,1-4.265.6,18.343,18.343,0,0,1-3.821-.417A9.768,9.768,0,0,0,1177.934,6307.225Z"/><path class="b" d="M1668.221,6302.838a2.754,2.754,0,0,0-2.751,2.752v8.143a7.019,7.019,0,0,0,3.513-10.786A2.774,2.774,0,0,0,1668.221,6302.838Z"/><path class="b" d="M1639.642,6293.967a101.583,101.583,0,0,0,.2,14.523l16.164,4v-6.9a12.134,12.134,0,0,1,2.23-7.02Z"/><path class="b" d="M1642.252,6346.225l-19.307.457,11.767,42.642a9.371,9.371,0,0,0,9.023,6.878,9.507,9.507,0,0,0,2.5-.339,9.368,9.368,0,0,0,6.537-11.523Z"/><path class="b" d="M1599.177,6354.579l-15.283,25.434a9.367,9.367,0,1,0,16.059,9.648l16.456-27.387a9.372,9.372,0,0,0,1.318-4.231l.716-11.254-18.8.443Z"/><path class="b" d="M1589.28,6305.694a6.939,6.939,0,0,0,.938.061,7.026,7.026,0,0,0,6.956-6.095l2.544-19.04,9.083-2.292,2.718-.687c-13.319,19.471-20.67,42.564-21.446,67.811a.118.118,0,0,0,.036.092.146.146,0,0,0,.095.038l56.647-1.341a.107.107,0,0,0,.1-.055.125.125,0,0,0,.009-.123h0c-10.279-24.081-12.135-49.124-5.367-72.425a9.785,9.785,0,0,0-.547-7.278,23.1,23.1,0,0,0-5.7-5.688,6.974,6.974,0,0,0-4.56-.389l-7.294,1.842-31.823,8.041a7.025,7.025,0,0,0-5.242,5.88l-3.176,23.754A7.027,7.027,0,0,0,1589.28,6305.694Z"/><path class="b" d="M1668.221,6294.783a10.819,10.819,0,0,0-10.809,10.807V6392.3a3.327,3.327,0,1,0,6.654,0V6305.59a4.155,4.155,0,0,1,8.311,0v6.519a3.327,3.327,0,0,0,6.654,0v-6.519A10.819,10.819,0,0,0,1668.221,6294.783Z"/><path class="b" d="M1636.257,6227.137A24.533,24.533,0,1,0,1653.134,6216a12.723,12.723,0,0,0-2.974-4.652c-4.581-4.581-11.632-4.96-15.746-.846s-3.737,11.165.844,15.746A12.907,12.907,0,0,0,1636.257,6227.137Z"/><path class="b" d="M1535.766,6283.912a7.093,7.093,0,0,0-8.1-5.925l-18.034,2.787v14.359l20.2-3.125A7.093,7.093,0,0,0,1535.766,6283.912Z"/><path class="b" d="M1505.545,6389.256a9.46,9.46,0,0,0,18.239-5.034l-10.2-36.978h-19.628Z"/><path class="b" d="M1467.76,6350.893l-23.055,20.344a9.459,9.459,0,1,0,12.517,14.186l25.99-22.931a9.449,9.449,0,0,0,3.181-6.491l.557-8.757h-18.958Z"/><path class="b" d="M1467.313,6275.785v34.876c0,.169,0,.346-9.583,34.691h61.456l-11.442-34.539v-46.832c0-8.407-9.519-19.074-20.217-19.074-5.178,0-10.078,2.5-13.757,6.034-1.129,1.086-7.04,6.859-7.04,6.859l-22.059,18.383a7.092,7.092,0,0,0-2.322,7.252l7.229,27.537a7.1,7.1,0,0,0,13.725-3.6l-6.082-23.171,8.2-6.832Z"/><path class="b" d="M1477.247,6206.073a24.79,24.79,0,1,0,43.961,22.491,9.441,9.441,0,1,0,0-18.53,24.8,24.8,0,0,0-23-15.526,25.056,25.056,0,0,0-3.917.311,12.893,12.893,0,0,0-3.005-4.7c-4.629-4.628-11.748-5.012-15.905-.855s-3.774,11.276.853,15.9A12.751,12.751,0,0,0,1477.247,6206.073Zm53.3,13.227a7.547,7.547,0,1,1-7.547-7.55A7.557,7.557,0,0,1,1530.542,6219.3Zm-35.787,0a8.494,8.494,0,1,1,8.495,8.492A8.493,8.493,0,0,1,1494.755,6219.3Z"/><path class="b" d="M1398.315,6278.769a7.1,7.1,0,0,0-8.629-5.119l-21.557,5.5v14.643l25.065-6.4A7.093,7.093,0,0,0,1398.315,6278.769Z"/><path class="b" d="M1376.221,6347.244h-19.627l11.592,42.012a9.46,9.46,0,0,0,18.239-5.034Z"/><path class="b" d="M1330.4,6350.893l-23.056,20.344a9.46,9.46,0,1,0,12.52,14.186l25.988-22.931a9.46,9.46,0,0,0,3.183-6.491l.557-8.757h-18.959Z"/><path class="b" d="M1305.291,6294.3l-7.471-1.18a.828.828,0,0,0-.173-.014,1.109,1.109,0,0,0-1.087.929l-.39,2.472,9.647,1.523.39-2.469a1.1,1.1,0,0,0-.2-.822A1.081,1.081,0,0,0,1305.291,6294.3Z"/><path class="b" d="M1298.7,6287.55l7.471,1.177a6.694,6.694,0,0,1,3.963,2.162l7.464-17.531,15.007-10.33,1.892-1.3v39.306c0,.211,0,.393-14.995,44.322h63.218l-16.483-44.152v-48.225a15.857,15.857,0,0,0-24.623-13.229,6.872,6.872,0,0,0-1.122.623l-5.557,3.825-27.082,18.644a7.1,7.1,0,0,0-2.5,3.065l-9.263,21.756a6.514,6.514,0,0,1,1.559-.2A6.6,6.6,0,0,1,1298.7,6287.55Z"/><path class="b" d="M1313.751,6337.778a7.311,7.311,0,0,0,7.2-6.145l3.45-21.858a7.3,7.3,0,0,0-6.058-8.33l-8.576-1.354.612-3.874a5.325,5.325,0,0,0-4.427-6.086l-7.471-1.181a5.181,5.181,0,0,0-.834-.066,5.332,5.332,0,0,0-5.253,4.493l-.612,3.873-8.577-1.353a7.021,7.021,0,0,0-1.132-.091,7.309,7.309,0,0,0-7.2,6.146l-3.452,21.86a7.3,7.3,0,0,0,6.057,8.328l35.14,5.55A7.264,7.264,0,0,0,1313.751,6337.778Zm-6.142-42-.612,3.875-12.45-1.965.611-3.875a2.508,2.508,0,0,1,2.883-2.1l7.47,1.178A2.522,2.522,0,0,1,1307.609,6295.778Z"/><path class="b" d="M1330.428,6193.773a24.79,24.79,0,1,0,44.893,19.711,9.433,9.433,0,0,0,8.344-12.169l-.2-.669h-8.1a24.8,24.8,0,0,0-27.885-18.127,12.866,12.866,0,0,0-3-4.7c-4.629-4.626-11.748-5.01-15.905-.853s-3.774,11.276.854,15.9A12.543,12.543,0,0,0,1330.428,6193.773Zm36.822,8.767h14.778a7.548,7.548,0,1,1-14.778,0Zm-20.478-.948h16.243a8.493,8.493,0,1,1-16.243,0Z"/><path class="c" d="M501.738,6170.769v-158h904.338v158"/><circle class="d" cx="63.32" cy="63.32" r="63.32" transform="translate(438.418 5966.87)"/><circle class="d" cx="63.32" cy="63.32" r="63.32" transform="translate(897.082 5966.87)"/><circle class="d" cx="63.32" cy="63.32" r="63.32" transform="translate(1342.756 5966.87)"/><text class="e" transform="translate(499.46 6042.665)"><tspan x="-45.746" y="0">42</tspan></text><text class="f" transform="translate(1406.072 6042.665)"><tspan x="-45.746" y="0">43</tspan></text><text class="g" transform="translate(499.46 6077.508)"><tspan x="-23.775" y="0">Age</tspan></text><text class="h" transform="translate(1406.077 6077.508)"><tspan x="-23.775" y="0">Age</tspan></text><text class="i" transform="translate(960 6077.51)"><tspan x="-72.782" y="0">Median Age</tspan></text><text class="j" transform="translate(960 6042.665)"><tspan x="-45.746" y="0">42</tspan></text><text class="k" transform="translate(960 5961.972)"><tspan x="-61.157" y="0">Cases</tspan></text><path class="c" d="M1610.168,6416.915v158H301.034v-158"/><circle class="d" cx="63.32" cy="63.32" r="63.32" transform="translate(237.714 6519.868)"/><circle class="d" cx="63.32" cy="63.32" r="63.32" transform="translate(1544.224 6519.868)"/><circle class="d" cx="63.32" cy="63.32" r="63.32" transform="translate(896.68 6519.868)"/><text class="e" transform="translate(301.034 6594.356)"><tspan x="-45.746" y="0">77</tspan></text><text class="f" transform="translate(1610.167 6594.356)"><tspan x="-45.746" y="0">80</tspan></text><text class="g" transform="translate(301.034 6629.203)"><tspan x="-23.775" y="0">Age</tspan></text><text class="h" transform="translate(1610.168 6629.203)"><tspan x="-23.775" y="0">Age</tspan></text><text class="k" transform="translate(960 6513.852)"><tspan x="-72.446" y="0">Deaths</tspan></text><text class="i" transform="translate(960 6629.198)"><tspan x="-72.782" y="0">Median Age</tspan></text><text class="j" transform="translate(960 6594.356)"><tspan x="-45.746" y="0">78</tspan></text></g></svg>