<?xml version="1.0" encoding="utf-8"?>
<!-- Generator: Adobe Illustrator 25.2.1, SVG Export Plug-In . SVG Version: 6.00 Build 0)  -->
<svg version="1.1" id="Layer_1" xmlns="http://www.w3.org/2000/svg" xmlns:xlink="http://www.w3.org/1999/xlink" x="0px" y="0px"
	 viewBox="0 0 1453.5 729.5" style="enable-background:new 0 0 1453.5 729.5;" xml:space="preserve">
<style type="text/css">
	.st0{fill:#222B3E;}
	.st1{fill:#D02F34;}
	.st2{fill:none;stroke:#606060;stroke-width:1.417;stroke-miterlimit:10;}
	.st3{fill:#E8E8E8;}
	.st4{enable-background:new    ;}
	.st5{fill:#606060;}
</style>
<g transform="translate(-228.085 -5916.972)">
	<path class="st0" d="M819.1,6297.8c10.8,0,19.5,8.8,19.5,19.5c0,10.8-8.8,19.5-19.5,19.5s-19.5-8.8-19.5-19.5l0,0
		C799.5,6306.5,808.3,6297.8,819.1,6297.8C819.1,6297.8,819.1,6297.8,819.1,6297.8z"/>
	<path class="st0" d="M818.7,6346c2.3-8.5,11-13.5,19.4-11.2c0,0,0,0,0,0l34.2,9.2c8.5,2.3,13.5,11,11.2,19.4
		c-0.7,2.6-2,4.9-3.9,6.9l-0.8,6.3h14.9c5.2,0,9.4,4.3,9.4,9.5c0,5.2-4.2,9.4-9.4,9.4H868c-5.2,0-9.5-4.2-9.5-9.5
		c0-0.4,0-0.8,0.1-1.2l1.4-11.3l-22.1-5.9v19.1c0,5.2-4.2,9.5-9.5,9.5c-5.2,0-9.5-4.2-9.5-9.5v-31.4
		C818,6352.4,817.9,6349.1,818.7,6346z"/>
	<path class="st0" d="M666.5,6304.3c1.3-3.7,5.3-5.7,9-4.4c0,0,0,0,0,0l6.8,2.3v15l-11.4-3.9C667.2,6312.1,665.2,6308,666.5,6304.3
		C666.5,6304.3,666.5,6304.3,666.5,6304.3z"/>
	<path class="st0" d="M702.4,6267.1c-11.5,0-20.8-9.3-20.8-20.8s9.3-20.8,20.8-20.8s20.8,9.3,20.8,20.8c0,0,0,0,0,0
		C723.3,6257.8,713.9,6267.1,702.4,6267.1z"/>
	<path class="st0" d="M685,6334.1c-0.3-1.4-0.5-2.9-0.5-4.3v-40.1c0-10.4,8.5-18.8,18.9-18.9l0,0c5.6,0,11,2.5,14.5,6.9
		c-0.7,0.5-1.4,1-2.1,1.6c-5,4.5-7.6,11.5-7.7,20.9c-0.1,8.6,2.5,15.2,7.5,19.7c1.9,1.6,4.1,3,6.4,3.8c0.1,0,0.1,0,0.2,0.1v5.9
		c0,2.2-0.4,4.4-1.2,6.5l1.5,23.1l15.9,9.1c4.5,2.6,6.1,8.4,3.5,12.9c-2.6,4.5-8.4,6.1-12.9,3.5l-20.3-11.6
		c-2.8-1.6-4.5-4.4-4.7-7.6l-1.1-17c-0.9,0-1.8-0.1-2.7-0.3l-13.6,41.3c-1.6,5-6.9,7.7-11.9,6.1c-5-1.6-7.7-6.9-6.1-11.9
		c0-0.1,0-0.1,0.1-0.2L685,6334.1z"/>
	<path class="st0" d="M715.4,6300.4c0.1-7.3,1.8-12.5,5.3-15.5c0.2-0.2,0.5-0.4,0.7-0.6c0.5,1.8,0.8,3.6,0.8,5.5v26
		c-0.6-0.4-1.2-0.8-1.7-1.3C717.1,6311.5,715.4,6306.7,715.4,6300.4z"/>
	<path class="st0" d="M739.7,6324c5.5,0,10-4.5,10.1-10l0-28.2c0-5.5-4.5-10-10-10.1h-1.7c0,0-5.7-0.2-6.8-0.2
		c-6,0-10.9,1.6-14.5,4.8c-4.7,4.2-7.2,10.9-7.2,19.9c-0.1,8.2,2.3,14.4,7.1,18.6c1.8,1.5,3.8,2.8,6,3.6c3.1,1.2,6.3,1.7,9.6,1.7
		c1.1,0,7.2-0.2,7.2-0.2L739.7,6324z M725.7,6280.7v1.5l-0.1,35.2v1.5c-2.3-0.6-4.3-1.8-6.1-3.3c-3.7-3.3-5.6-8.4-5.5-15.2
		c0.1-7.7,2-13.3,5.7-16.6C721.5,6282.3,723.5,6281.2,725.7,6280.7z"/>
	<path class="st0" d="M582.5,6341l35.1-5.5c4-0.6,6.7-4.4,6.1-8.3l-3.5-21.9c-0.6-4-4.4-6.7-8.3-6.1l-8.6,1.4l-0.6-3.9
		c-0.4-2.6-2.6-4.5-5.3-4.5c-0.3,0-0.6,0-0.8,0.1l-7.5,1.2c-2.9,0.5-4.9,3.2-4.4,6.1l0.6,3.9l-8.6,1.4c-4,0.6-6.7,4.4-6.1,8.3
		l3.5,21.9C574.8,6338.9,578.6,6341.6,582.5,6341C582.5,6341,582.5,6341,582.5,6341L582.5,6341z M589.7,6296.2l7.5-1.2
		c1.4-0.2,2.7,0.7,2.9,2.1c0,0,0,0,0,0l0.6,3.9l-12.5,2l-0.6-3.9C587.3,6297.7,588.3,6296.4,589.7,6296.2L589.7,6296.2z"/>
	<path class="st0" d="M541.3,6217.5c-12.9,0-23.4-10.5-23.4-23.4c0-12.9,10.5-23.4,23.4-23.4c12.9,0,23.4,10.5,23.4,23.4
		S554.2,6217.5,541.3,6217.5C541.3,6217.5,541.3,6217.5,541.3,6217.5z"/>
	<path class="st0" d="M515.6,6307.5c0.1-2.2-0.1-4.4-0.7-6.6c-0.4-1.4-0.6-2.8-0.6-4.3l5.1-48.2c0-9.3,5.6-17.6,14.2-21.2l4.3,6.4
		l-5.7,36.7l6.6,6.6l6.6-6.6l-5.7-36.7l8.2-8.1c3.7,0,7.3,0.9,10.5,2.7c4.2,2.7,35.8,26.9,35.8,26.9c1.7,1.4,2.8,3.4,3.1,5.6
		l3.2,27.9c0.6,4.5-2.6,8.7-7.1,9.3c-0.4,0-0.7,0.1-1.1,0.1c-4.2,0-7.7-3.2-8.2-7.3l-2.8-24.6l-9.5-7.5l4,38.1c0,3.3-1,6.4-2.8,9.2
		c-2,3.2-3.1,6.8-3.1,10.5l0.1,26.7l18.7,27.8c3.3,5,2,11.7-3,15.1c-5,3.3-11.7,2-15.1-3l-20.5-30.5c-1.2-1.8-1.8-3.9-1.8-6l-0.1-26
		c0-0.6-0.4-1-1-1c0,0,0,0,0,0l-4.8,0c-1.4,0-2.8-0.1-4.2-0.4c-0.8-0.1-1.5,0.4-1.6,1.1c0,0,0,0.1,0,0.1l-5,65.7
		c-0.4,5.7-5.1,10.1-10.8,10.1c-0.3,0-0.6,0-0.8,0c-6-0.5-10.5-5.7-10-11.7c0,0,0,0,0,0L515.6,6307.5z"/>
	<path class="st0" d="M484.7,6272.4c0.7-4.5,5-7.6,9.5-6.8l20.4,3.3l-1.6,16.5l-21.5-3.5C487,6281.2,483.9,6276.9,484.7,6272.4z"/>
	<path class="st0" d="M402.4,6302.5c-1-2-1.7-4.1-2.1-6.3l-7.6-45.5c-1.9-11.5,5.9-22.3,17.3-24.2l3.8-0.6
		c5.5-0.9,11.2,0.4,15.7,3.7l31.4,19.3c2.1,1.3,3.4,3.6,3.4,6l0.2,34.9c0,3.9-3.1,7.1-7.1,7.1c0,0,0,0,0,0h0c-3.9,0-7.1-3.2-7.1-7.1
		l-0.1-30.9l-10.6-6.5l6,36.3c0.5,2.8,0.4,5.6-0.3,8.3v41.1l18.5,42.2c2.1,4.8,0,10.4-4.8,12.5c-4.8,2.1-10.4,0-12.5-4.8
		c0-0.1,0-0.1-0.1-0.2l-19.3-44.1c-0.5-1.2-0.8-2.5-0.8-3.8v-26.9l-2,0.3c-1.7,0.3-3.5,0.4-5.2,0.2l-16.4,75
		c-1.1,5.1-6.2,8.3-11.3,7.2c-5.1-1.1-8.3-6.2-7.2-11.3L402.4,6302.5z"/>
	<path class="st0" d="M425,6191.3c2.4,12.7-5.9,25-18.6,27.4c-12.7,2.4-25-5.9-27.4-18.6c-1.4-7.2,0.7-14.6,5.6-20.1L425,6191.3z"/>
	<path class="st0" d="M432.6,6191.5c-0.4,0.2-0.8,0.3-1.3,0.2l-51.9-14.5c-0.9-0.2-1.4-1.1-1.2-2c0.2-0.9,1.1-1.4,2-1.2c0,0,0,0,0,0
		l8,2.2l3-10.7c0.1-0.4,0.3-0.9,0.5-1.3c1-2,2.8-3.4,4.9-3.8c2.3-0.5,4.6,0.1,6.4,1.7l6.9,6l8.4-1.6c0.5-0.1,0.9-0.1,1.4-0.1
		c2,0,3.9,0.8,5.3,2.2c1.7,1.7,2.4,4.1,1.9,6.4c0,0.1-0.1,0.3-0.1,0.4l-3,10.7l8.4,2.4c0.9,0.2,1.4,1.2,1.2,2
		C433.3,6190.9,433,6191.3,432.6,6191.5L432.6,6191.5z"/>
	<path class="st0" d="M371.7,6290.5l22.1-18.7l2.7,16.3l-15.7,13.3c-2.9,2.6-7.4,2.4-10-0.5s-2.4-7.4,0.5-10
		C371.4,6290.7,371.6,6290.6,371.7,6290.5L371.7,6290.5z"/>
	<path class="st0" d="M290.9,6310.3l-22.7-33.9c-5.7-8.6-3.4-20.2,5.1-25.9l0,0c3.3-2.1,7.1-3.2,11-3.2c2.6-0.1,5.3,0.1,7.9,0.6
		l41.9,10.2c3,0.7,5.1,3.3,5.3,6.3l2.1,30c0.3,3.8-2.6,7.2-6.5,7.5c-0.2,0-0.3,0-0.5,0c-3.7,0-6.7-2.8-7-6.5l-1.7-24.9l-19.9-4.8
		l20.2,30.1c1,1.5,4.4,6.5,4.5,10.9l-0.7,41.8l15.5,27.2c2.6,4.5,1,10.2-3.4,12.7c-4.5,2.6-10.2,1-12.7-3.4c0,0,0,0,0,0l-16.8-29.4
		c-0.8-1.4-1.2-3.1-1.2-4.8l0.4-25.9c-1.7,0.1-3.3,0-5-0.4l-13.8,60.2c-1.2,5-6.1,8.1-11.2,7c-5-1.2-8.1-6.1-7-11.2l0,0
		L290.9,6310.3z"/>
	<path class="st0" d="M251.2,6257c-12.7,0-23.1-10.3-23.1-23.1c0-12.7,10.3-23.1,23.1-23.1c12.7,0,23.1,10.3,23.1,23.1c0,0,0,0,0,0
		C274.2,6246.6,263.9,6257,251.2,6257z"/>
	<path class="st0" d="M242.3,6290.3c1.5-0.1,2.9,1.1,3,2.6v4.1c-2.4,0-4.7-1.3-5.9-3.5v-0.6C239.5,6291.3,240.8,6290.2,242.3,6290.3
		z"/>
	<path class="st0" d="M249.1,6282.9l20.3-0.5l9.2,13.8l-23.5,0.5v-3.8C255,6288.7,252.7,6284.9,249.1,6282.9z"/>
	<path class="st0" d="M242.3,6282.5c6.3,0,11.3,4.6,11.3,10.4V6393c-0.2,1.9-1.9,3.4-3.8,3.2c-1.7-0.2-3-1.5-3.2-3.2v-100.2
		c-0.2-2.4-2.4-4.2-4.8-4c-2.1,0.2-3.8,1.9-4,4v6.2c-0.2,1.9-1.9,3.4-3.8,3.2c-1.7-0.2-3-1.5-3.2-3.2v-6.2
		C231,6287.1,236.1,6282.5,242.3,6282.5z"/>
	<path class="st1" d="M1100.4,6297.8c-10.8,0-19.5,8.8-19.5,19.5c0,10.8,8.8,19.5,19.5,19.5c10.8,0,19.5-8.8,19.5-19.5c0,0,0,0,0,0
		C1119.9,6306.5,1111.2,6297.8,1100.4,6297.8C1100.4,6297.8,1100.4,6297.8,1100.4,6297.8z"/>
	<path class="st1" d="M1100.8,6346c-2.3-8.5-11-13.5-19.4-11.2l-34.2,9.2c-8.5,2.3-13.5,11-11.2,19.4c0.7,2.6,2,4.9,3.9,6.9l0.8,6.3
		h-14.9c-5.2,0-9.4,4.3-9.4,9.5c0,5.2,4.2,9.4,9.4,9.4h25.6c5.2,0,9.5-4.2,9.5-9.5c0-0.4,0-0.8-0.1-1.2l-1.4-11.3l22.1-5.9v19.1
		c0,5.2,4.2,9.5,9.5,9.5c5.2,0,9.5-4.2,9.5-9.5v-31.4C1101.5,6352.4,1101.6,6349.1,1100.8,6346z"/>
	<path class="st1" d="M1222.9,6339h-36.8l-2.2,15.5l-18.9,9.9c-4.6,2.4-6.4,8.1-4,12.8s8.1,6.4,12.8,4l23.2-12.2c2.7-1.4,4.5-4,5-7
		l2.7-18.4l12.6,45.6c1.4,5,6.6,8,11.7,6.6c5-1.4,8-6.6,6.6-11.6L1222.9,6339z"/>
	<path class="st1" d="M1203.4,6269.7c-1.3,0-2.5,0.4-3.6,1c1.7,1.7,3,3.7,4,5.9c2.7,6.2,2,13.6-1.9,22.2
		c-3.6,7.8-8.7,12.8-15.2,14.7c-2.4,0.7-4.9,1-7.4,0.8c-0.2,0-0.3,0-0.5,0l-10.2,22.4h69.4l-28.8-63.2
		C1208.2,6271.2,1205.9,6269.7,1203.4,6269.7z"/>
	<path class="st1" d="M1195.3,6295.8c3-6.6,3.6-12.1,1.8-16.3c-0.4-0.8-0.8-1.6-1.3-2.3l-13.5,29.7c0.9-0.1,1.7-0.2,2.5-0.5
		C1189.1,6305.2,1192.7,6301.6,1195.3,6295.8z"/>
	<circle class="st1" cx="1204" cy="6238.8" r="23.6"/>
	<path class="st1" d="M1214.8,6213.5v-15.6l-11.5,7.5l-11.5-7.5v15.6l11.5-7.5L1214.8,6213.5z"/>
	<path class="st1" d="M1163.1,6307.6l1.8,0.8l1.6,0.7c0.9,0.4,1.9,0.7,2.9,0.9c3.1,1.6,6.5,2.5,10,2.8c0.5,0,0.9,0,1.4,0
		c1.9,0,3.7-0.3,5.5-0.8c6.1-1.8,10.9-6.5,14.3-13.9c3.7-8.2,4.4-15.3,1.8-21.1c-2.2-5-6.7-8.9-13.4-11.5c-0.6-0.4-1.2-0.8-1.8-1.1
		l-1.1-0.5l-2.3-1.1c-5.1-2.3-11.1-0.1-13.5,4.9l-12.2,26.2C1155.9,6299.3,1158.1,6305.3,1163.1,6307.6z M1177.9,6307.2
		c0.9-0.8,1.6-1.8,2.1-2.9l12.2-26.2c0.8-1.7,1.1-3.5,0.9-5.3c2.3,1.5,4.2,3.7,5.3,6.2c2,4.6,1.4,10.4-1.8,17.4
		c-2.8,6.2-6.7,10-11.5,11.4c-1.4,0.4-2.8,0.6-4.3,0.6c-1.3,0-2.6-0.1-3.8-0.4C1177.4,6307.8,1177.7,6307.5,1177.9,6307.2
		L1177.9,6307.2z"/>
	<path class="st1" d="M1668.2,6302.8c-1.5,0-2.7,1.2-2.8,2.8v8.1c3.7-1.2,5.7-5.2,4.5-8.8c-0.2-0.7-0.6-1.3-1-1.9
		C1668.7,6302.9,1668.5,6302.8,1668.2,6302.8z"/>
	<path class="st1" d="M1639.6,6294c-0.3,4.8-0.2,9.7,0.2,14.5l16.2,4v-6.9c0-2.5,0.8-5,2.2-7L1639.6,6294z"/>
	<path class="st1" d="M1642.3,6346.2l-19.3,0.5l11.8,42.6c1.1,4.1,4.8,6.9,9,6.9c0.8,0,1.7-0.1,2.5-0.3c5-1.4,7.9-6.5,6.5-11.5
		L1642.3,6346.2z"/>
	<path class="st1" d="M1599.2,6354.6l-15.3,25.4c-2.7,4.4-1.2,10.2,3.2,12.9c4.4,2.7,10.2,1.2,12.9-3.2l16.5-27.4
		c0.8-1.3,1.2-2.7,1.3-4.2l0.7-11.3l-18.8,0.4L1599.2,6354.6z"/>
	<path class="st1" d="M1589.3,6305.7c0.3,0,0.6,0.1,0.9,0.1c3.5,0,6.5-2.6,7-6.1l2.5-19l9.1-2.3l2.7-0.7
		c-13.3,19.5-20.7,42.6-21.4,67.8c0,0,0,0.1,0,0.1c0,0,0.1,0,0.1,0l56.6-1.3c0,0,0.1,0,0.1-0.1c0,0,0-0.1,0-0.1l0,0
		c-10.3-24.1-12.1-49.1-5.4-72.4c0.8-2.4,0.6-5-0.5-7.3c-1.6-2.2-3.5-4.1-5.7-5.7c-1.4-0.6-3-0.8-4.6-0.4l-7.3,1.8l-31.8,8
		c-2.8,0.7-4.9,3-5.2,5.9l-3.2,23.8C1582.7,6301.6,1585.4,6305.2,1589.3,6305.7z"/>
	<path class="st1" d="M1668.2,6294.8c-6,0-10.8,4.8-10.8,10.8v86.7c0,1.8,1.5,3.3,3.3,3.3s3.3-1.5,3.3-3.3v-86.7
		c0-2.3,1.9-4.2,4.2-4.2s4.2,1.9,4.2,4.2l0,0v6.5c0,1.8,1.5,3.3,3.3,3.3s3.3-1.5,3.3-3.3v-6.5
		C1679,6299.6,1674.2,6294.8,1668.2,6294.8z"/>
	<path class="st1" d="M1636.3,6227.1c-7.2,11.5-3.8,26.6,7.7,33.8s26.6,3.8,33.8-7.7c7.2-11.5,3.8-26.6-7.7-33.8
		c-5-3.2-11.1-4.4-17-3.5c-0.6-1.7-1.7-3.3-3-4.7c-4.6-4.6-11.6-5-15.7-0.8s-3.7,11.2,0.8,15.7
		C1635.6,6226.6,1635.9,6226.9,1636.3,6227.1z"/>
	<path class="st1" d="M1535.8,6283.9c-0.6-3.9-4.2-6.5-8.1-5.9c0,0,0,0,0,0l-18,2.8v14.4l20.2-3.1
		C1533.7,6291.4,1536.4,6287.8,1535.8,6283.9C1535.8,6283.9,1535.8,6283.9,1535.8,6283.9z"/>
	<path class="st1" d="M1505.5,6389.3c1.4,5,6.6,8,11.6,6.6s8-6.6,6.6-11.6l-10.2-37H1494L1505.5,6389.3z"/>
	<path class="st1" d="M1467.8,6350.9l-23.1,20.3c-3.9,3.5-4.3,9.4-0.8,13.4c3.5,3.9,9.4,4.3,13.4,0.8l0,0l26-22.9
		c1.9-1.7,3-4,3.2-6.5l0.6-8.8h-19L1467.8,6350.9z"/>
	<path class="st1" d="M1467.3,6275.8v34.9c0,0.2,0,0.3-9.6,34.7h61.5l-11.4-34.5V6264c0-8.4-9.5-19.1-20.2-19.1
		c-5.2,0-10.1,2.5-13.8,6c-1.1,1.1-7,6.9-7,6.9l-22.1,18.4c-2.1,1.8-3,4.6-2.3,7.3l7.2,27.5c1.1,3.8,5.1,5.9,8.9,4.7
		c3.5-1.1,5.7-4.7,4.9-8.3l-6.1-23.2l8.2-6.8L1467.3,6275.8z"/>
	<path class="st1" d="M1477.2,6206.1c-7.3,11.6-3.8,26.9,7.7,34.2s26.9,3.8,34.2-7.7c0.8-1.3,1.5-2.6,2-4c5.1,1,10.1-2.3,11.1-7.4
		c1-5.1-2.3-10.1-7.4-11.1c-1.2-0.2-2.4-0.2-3.6,0c-3.8-9.4-12.9-15.5-23-15.5c-1.3,0-2.6,0.1-3.9,0.3c-0.6-1.8-1.7-3.4-3-4.7
		c-4.6-4.6-11.7-5-15.9-0.9s-3.8,11.3,0.9,15.9C1476.6,6205.5,1476.9,6205.8,1477.2,6206.1z M1530.5,6219.3c0,4.2-3.4,7.5-7.6,7.5
		c-4.2,0-7.5-3.4-7.5-7.6c0-4.2,3.4-7.5,7.5-7.5C1527.2,6211.8,1530.5,6215.1,1530.5,6219.3L1530.5,6219.3z M1494.8,6219.3
		c0-4.7,3.8-8.5,8.5-8.5s8.5,3.8,8.5,8.5c0,4.7-3.8,8.5-8.5,8.5c0,0,0,0,0,0C1498.6,6227.8,1494.8,6224,1494.8,6219.3
		C1494.8,6219.3,1494.8,6219.3,1494.8,6219.3L1494.8,6219.3z"/>
	<path class="st1" d="M1398.3,6278.8c-1-3.8-4.8-6.1-8.6-5.1c0,0,0,0,0,0l-21.6,5.5v14.6l25.1-6.4
		C1397,6286.4,1399.3,6282.6,1398.3,6278.8z"/>
	<path class="st1" d="M1376.2,6347.2h-19.6l11.6,42c1.4,5,6.6,8,11.6,6.6s8-6.6,6.6-11.6l0,0L1376.2,6347.2z"/>
	<path class="st1" d="M1330.4,6350.9l-23.1,20.3c-3.9,3.5-4.3,9.4-0.8,13.4s9.4,4.3,13.4,0.8l0,0l26-22.9c1.9-1.7,3-4,3.2-6.5
		l0.6-8.8h-19L1330.4,6350.9z"/>
	<path class="st1" d="M1305.3,6294.3l-7.5-1.2c-0.1,0-0.1,0-0.2,0c-0.5,0-1,0.4-1.1,0.9l-0.4,2.5l9.6,1.5l0.4-2.5
		c0-0.3,0-0.6-0.2-0.8C1305.8,6294.5,1305.6,6294.3,1305.3,6294.3z"/>
	<path class="st1" d="M1298.7,6287.5l7.5,1.2c1.5,0.2,2.9,1,4,2.2l7.5-17.5l15-10.3l1.9-1.3v39.3c0,0.2,0,0.4-15,44.3h63.2
		l-16.5-44.2V6253c0-8.8-7.1-15.9-15.8-15.9c-3.1,0-6.2,0.9-8.8,2.6c-0.4,0.2-0.8,0.4-1.1,0.6l-5.6,3.8l-27.1,18.6
		c-1.1,0.8-2,1.8-2.5,3.1l-9.3,21.8c0.5-0.1,1-0.2,1.6-0.2C1298,6287.5,1298.4,6287.5,1298.7,6287.5z"/>
	<path class="st1" d="M1313.8,6337.8c3.6,0,6.6-2.6,7.2-6.1l3.5-21.9c0.6-4-2.1-7.7-6.1-8.3l-8.6-1.4l0.6-3.9
		c0.5-2.9-1.5-5.6-4.4-6.1l-7.5-1.2c-0.3,0-0.6-0.1-0.8-0.1c-2.6,0-4.8,1.9-5.3,4.5l-0.6,3.9l-8.6-1.4c-0.4-0.1-0.8-0.1-1.1-0.1
		c-3.6,0-6.6,2.6-7.2,6.1l-3.5,21.9c-0.6,4,2.1,7.7,6.1,8.3l35.1,5.5C1313,6337.7,1313.4,6337.8,1313.8,6337.8z M1307.6,6295.8
		l-0.6,3.9l-12.4-2l0.6-3.9c0.2-1.4,1.5-2.3,2.9-2.1c0,0,0,0,0,0l7.5,1.2C1306.9,6293.1,1307.8,6294.4,1307.6,6295.8
		C1307.6,6295.8,1307.6,6295.8,1307.6,6295.8z"/>
	<path class="st1" d="M1330.4,6193.8c-7.3,11.6-3.8,26.9,7.7,34.2c11.6,7.3,26.9,3.8,34.2-7.7c1.3-2.1,2.3-4.4,3-6.7
		c5.2-0.4,9.1-4.9,8.7-10.1c-0.1-0.7-0.2-1.4-0.4-2.1l-0.2-0.7h-8.1c-2.9-10.9-12.7-18.4-24-18.4c-1.3,0-2.6,0.1-3.9,0.3
		c-0.6-1.8-1.7-3.4-3-4.7c-4.6-4.6-11.7-5-15.9-0.9s-3.8,11.3,0.9,15.9C1329.7,6193.2,1330.1,6193.5,1330.4,6193.8z M1367.2,6202.5
		h14.8c0.8,4.1-1.8,8.1-5.9,8.9c-4.1,0.8-8.1-1.8-8.9-5.9C1367,6204.6,1367,6203.6,1367.2,6202.5z M1346.8,6201.6h16.2
		c1.4,4.5-1.2,9.2-5.6,10.6c-4.5,1.4-9.2-1.2-10.6-5.6C1346.3,6204.9,1346.3,6203.2,1346.8,6201.6z"/>
	<path class="st2" d="M501.7,6170.8v-158h904.3v158"/>
	<circle class="st3" cx="501.7" cy="6030.2" r="63.3"/>
	<circle class="st3" cx="960.4" cy="6030.2" r="63.3"/>
	<circle class="st3" cx="1406.1" cy="6030.2" r="63.3"/>
	<g class="st4">
		<path class="st0" d="M480.2,6042.7v-10.3h-24.1v-8.5l21.2-34.4h12.4v35.2h6.9v7.8h-6.9v10.3H480.2z M464.4,6024.6h15.9v-25.4h-0.6
			L464.4,6024.6z"/>
		<path class="st0" d="M538.7,5998.1h-23.9l-1.2,17.8h0.5c2.3-4.6,4.9-7.7,11.3-7.7c9.1,0,16.2,6.3,16.2,16.9
			c0,10.7-7.1,18.5-19.7,18.5c-9.8,0-15.1-4.7-18.3-9.9l7.3-5.6c2.4,4.1,5.3,7.3,11.1,7.3c5.9,0,9.1-3.6,9.1-9.4v-0.6
			c0-5.5-3.4-8.8-8.9-8.8c-4.3,0-7,2.1-8.6,4l-8.2-1.1l2-29.9h31.3V5998.1z"/>
	</g>
	<g class="st4">
		<path class="st1" d="M1386.9,6042.7v-10.3h-24.1v-8.5l21.2-34.4h12.4v35.2h6.9v7.8h-6.9v10.3H1386.9z M1371,6024.6h15.9v-25.4
			h-0.6L1371,6024.6z"/>
		<path class="st1" d="M1409.8,6022.7c0-15.2,10.1-27.2,19.1-33.2h13.6c-12.5,9-19.8,16.2-22.2,27l0.6,0.2c2-4.1,5.3-7.9,12-7.9
			c8.8,0,15.6,6.4,15.6,16.5c0,10.8-7.5,18.4-19.3,18.4C1417,6043.6,1409.8,6035.4,1409.8,6022.7z M1438.2,6026.7v-1.1
			c0-5.8-3.4-9-9-9c-5.6,0-9,3.2-9,9v1.1c0,5.8,3.4,9,9,9C1434.7,6035.7,1438.2,6032.4,1438.2,6026.7z"/>
	</g>
	<g class="st4">
		<path class="st0" d="M490.4,6077.5l-1.9-5.7h-7.8l-1.9,5.7h-2.4l6.8-19.4h3l6.8,19.4H490.4z M484.6,6060.3h-0.1l-3.3,9.4h6.7
			L484.6,6060.3z"/>
		<path class="st0" d="M501,6083.4c-4.5,0-6.3-1.3-6.3-3.5c0-1.6,0.9-2.4,2.3-2.8v-0.3c-0.8-0.4-1.3-1-1.3-2c0-1.4,1-2.1,2.5-2.5
			v-0.1c-1.7-0.8-2.7-2.4-2.7-4.4c0-2.9,2.1-4.9,5.4-4.9c1,0,1.9,0.2,2.7,0.6v-0.2c0-1.1,0.5-1.9,1.7-1.9h2.1v1.9h-2.7v0.9
			c1,0.9,1.6,2.2,1.6,3.7c0,2.9-2.1,4.9-5.4,4.9c-0.5,0-1-0.1-1.4-0.1c-0.9,0.2-1.9,0.7-1.9,1.6c0,0.9,0.9,1.1,2.2,1.1h3.1
			c3.6,0,5.1,1.4,5.1,3.8C507.9,6082,505.6,6083.4,501,6083.4z M502.9,6077.4h-4.8c-0.9,0.4-1.3,1.1-1.3,1.9c0,1.2,0.9,2.3,3.1,2.3
			h2.1c2.5,0,3.9-0.8,3.9-2.3C505.8,6078.1,505.1,6077.4,502.9,6077.4z M504,6068.2v-0.8c0-1.9-1.2-2.8-3.1-2.8
			c-1.9,0-3.1,0.9-3.1,2.8v0.8c0,1.9,1.2,2.8,3.1,2.8C502.8,6071,504,6070.1,504,6068.2z"/>
		<path class="st0" d="M509.3,6070.3c0-4.6,2.6-7.5,6.4-7.5c3.8,0,6.2,2.9,6.2,7v1.1h-10.3v0.7c0,2.5,1.6,4.3,4.2,4.3
			c1.8,0,3.2-0.9,3.9-2.5l1.6,1.1c-0.9,1.9-3,3.3-5.7,3.3C511.8,6077.8,509.3,6074.9,509.3,6070.3z M511.6,6069v0.2h7.9v-0.3
			c0-2.5-1.5-4.2-3.8-4.2C513.3,6064.7,511.6,6066.5,511.6,6069z"/>
	</g>
	<g class="st4">
		<path class="st1" d="M1397,6077.5l-1.9-5.7h-7.8l-1.9,5.7h-2.4l6.8-19.4h3l6.8,19.4H1397z M1391.2,6060.3h-0.1l-3.3,9.4h6.7
			L1391.2,6060.3z"/>
		<path class="st1" d="M1407.6,6083.4c-4.5,0-6.3-1.3-6.3-3.5c0-1.6,0.9-2.4,2.3-2.8v-0.3c-0.8-0.4-1.3-1-1.3-2c0-1.4,1-2.1,2.5-2.5
			v-0.1c-1.7-0.8-2.7-2.4-2.7-4.4c0-2.9,2.1-4.9,5.4-4.9c1,0,1.9,0.2,2.7,0.6v-0.2c0-1.1,0.5-1.9,1.7-1.9h2.1v1.9h-2.7v0.9
			c1,0.9,1.6,2.2,1.6,3.7c0,2.9-2.1,4.9-5.4,4.9c-0.5,0-1-0.1-1.4-0.1c-0.9,0.2-1.9,0.7-1.9,1.6c0,0.9,0.9,1.1,2.2,1.1h3.1
			c3.6,0,5.1,1.4,5.1,3.8C1414.5,6082,1412.2,6083.4,1407.6,6083.4z M1409.5,6077.4h-4.8c-0.9,0.4-1.3,1.1-1.3,1.9
			c0,1.2,0.9,2.3,3.1,2.3h2.1c2.5,0,3.9-0.8,3.9-2.3C1412.5,6078.1,1411.7,6077.4,1409.5,6077.4z M1410.6,6068.2v-0.8
			c0-1.9-1.2-2.8-3.1-2.8c-1.9,0-3.1,0.9-3.1,2.8v0.8c0,1.9,1.2,2.8,3.1,2.8C1409.4,6071,1410.6,6070.1,1410.6,6068.2z"/>
		<path class="st1" d="M1415.9,6070.3c0-4.6,2.6-7.5,6.4-7.5c3.8,0,6.2,2.9,6.2,7v1.1h-10.3v0.7c0,2.5,1.6,4.3,4.2,4.3
			c1.8,0,3.2-0.9,3.9-2.5l1.6,1.1c-0.9,1.9-3,3.3-5.7,3.3C1418.5,6077.8,1415.9,6074.9,1415.9,6070.3z M1418.2,6069v0.2h7.9v-0.3
			c0-2.5-1.5-4.2-3.8-4.2C1419.9,6064.7,1418.2,6066.5,1418.2,6069z"/>
	</g>
	<g class="st4">
		<path class="st5" d="M889.8,6058.1h3.1l5.6,10.4h0.1l5.6-10.4h3v19.4h-2.3v-16.3h-0.1l-1.6,3.2l-4.6,8.4l-4.6-8.4l-1.6-3.2h-0.1
			v16.3h-2.3V6058.1z"/>
		<path class="st5" d="M911.1,6070.3c0-4.6,2.6-7.5,6.4-7.5c3.8,0,6.2,2.9,6.2,7v1.1h-10.3v0.7c0,2.5,1.6,4.3,4.2,4.3
			c1.8,0,3.2-0.9,3.9-2.5l1.6,1.1c-0.9,1.9-3,3.3-5.7,3.3C913.6,6077.8,911.1,6074.9,911.1,6070.3z M913.4,6069v0.2h7.9v-0.3
			c0-2.5-1.5-4.2-3.8-4.2C915.1,6064.7,913.4,6066.5,913.4,6069z"/>
		<path class="st5" d="M936.5,6075.2h-0.1c-0.9,1.8-2.2,2.7-4.2,2.7c-3.6,0-5.8-2.9-5.8-7.5s2.2-7.5,5.8-7.5c2,0,3.4,0.9,4.2,2.7
			h0.1v-8.6h2.2v20.6h-2.2V6075.2z M936.5,6072.9v-5.3c0-1.6-1.7-2.8-3.7-2.8c-2.5,0-4.1,1.7-4.1,4.3v2.4c0,2.6,1.6,4.3,4.1,4.3
			C934.9,6075.8,936.5,6074.8,936.5,6072.9z"/>
		<path class="st5" d="M943.2,6058.6v-0.4c0-0.8,0.4-1.2,1.4-1.2c0.9,0,1.4,0.5,1.4,1.2v0.4c0,0.7-0.4,1.2-1.4,1.2
			C943.7,6059.8,943.2,6059.3,943.2,6058.6z M943.5,6063.2h2.2v14.3h-2.2V6063.2z"/>
		<path class="st5" d="M960.8,6077.5c-1.6,0-2.3-1-2.5-2.3h-0.1c-0.6,1.8-2.1,2.7-4.1,2.7c-3,0-4.8-1.7-4.8-4.3
			c0-2.7,1.9-4.2,6.1-4.2h2.8v-1.4c0-2-1.1-3.1-3.4-3.1c-1.7,0-2.9,0.8-3.6,2.1l-1.3-1.2c0.8-1.5,2.5-2.8,5.1-2.8
			c3.4,0,5.5,1.8,5.5,4.8v7.9h1.6v1.9H960.8z M958.2,6073.3v-2.4h-2.9c-2.5,0-3.7,0.8-3.7,2.2v0.6c0,1.4,1.1,2.2,2.8,2.2
			C956.7,6076,958.2,6074.8,958.2,6073.3z"/>
		<path class="st5" d="M965.3,6077.5v-14.3h2.2v2.3h0.1c0.7-1.6,1.9-2.7,4.1-2.7c2.9,0,4.8,2,4.8,5.5v9.2h-2.2v-8.8
			c0-2.6-1.1-3.9-3.2-3.9c-1.8,0-3.5,0.9-3.5,2.7v9.9H965.3z"/>
		<path class="st5" d="M1000,6077.5l-1.9-5.7h-7.8l-1.9,5.7h-2.4l6.8-19.4h3l6.8,19.4H1000z M994.1,6060.3H994l-3.3,9.4h6.7
			L994.1,6060.3z"/>
		<path class="st5" d="M1010.5,6083.4c-4.5,0-6.3-1.3-6.3-3.5c0-1.6,0.9-2.4,2.3-2.8v-0.3c-0.8-0.4-1.3-1-1.3-2c0-1.4,1-2.1,2.5-2.5
			v-0.1c-1.7-0.8-2.7-2.4-2.7-4.4c0-2.9,2.1-4.9,5.4-4.9c1,0,1.9,0.2,2.7,0.6v-0.2c0-1.1,0.5-1.9,1.7-1.9h2.1v1.9h-2.7v0.9
			c1,0.9,1.6,2.2,1.6,3.7c0,2.9-2.1,4.9-5.4,4.9c-0.5,0-1-0.1-1.4-0.1c-0.9,0.2-1.9,0.7-1.9,1.6c0,0.9,0.9,1.1,2.2,1.1h3.1
			c3.6,0,5.1,1.4,5.1,3.8C1017.5,6082,1015.1,6083.4,1010.5,6083.4z M1012.4,6077.4h-4.8c-0.9,0.4-1.3,1.1-1.3,1.9
			c0,1.2,0.9,2.3,3.1,2.3h2.1c2.5,0,3.9-0.8,3.9-2.3C1015.4,6078.1,1014.6,6077.4,1012.4,6077.4z M1013.5,6068.2v-0.8
			c0-1.9-1.2-2.8-3.1-2.8c-1.9,0-3.1,0.9-3.1,2.8v0.8c0,1.9,1.2,2.8,3.1,2.8C1012.3,6071,1013.5,6070.1,1013.5,6068.2z"/>
		<path class="st5" d="M1018.8,6070.3c0-4.6,2.6-7.5,6.4-7.5c3.8,0,6.2,2.9,6.2,7v1.1h-10.3v0.7c0,2.5,1.6,4.3,4.2,4.3
			c1.8,0,3.2-0.9,3.9-2.5l1.6,1.1c-0.9,1.9-3,3.3-5.7,3.3C1021.4,6077.8,1018.8,6074.9,1018.8,6070.3z M1021.2,6069v0.2h7.9v-0.3
			c0-2.5-1.5-4.2-3.8-4.2C1022.9,6064.7,1021.2,6066.5,1021.2,6069z"/>
	</g>
	<g class="st4">
		<path class="st5" d="M940.8,6042.7v-10.3h-24.1v-8.5l21.2-34.4h12.4v35.2h6.9v7.8h-6.9v10.3H940.8z M924.9,6024.6h15.9v-25.4h-0.6
			L924.9,6024.6z"/>
		<path class="st5" d="M999.3,5998.1h-23.9l-1.2,17.8h0.5c2.3-4.6,4.9-7.7,11.3-7.7c9.1,0,16.2,6.3,16.2,16.9
			c0,10.7-7.1,18.5-19.7,18.5c-9.8,0-15.1-4.7-18.3-9.9l7.3-5.6c2.4,4.1,5.3,7.3,11.1,7.3c5.9,0,9.2-3.6,9.2-9.4v-0.6
			c0-5.5-3.4-8.8-8.9-8.8c-4.3,0-7,2.1-8.6,4l-8.2-1.1l2-29.9h31.3V5998.1z"/>
	</g>
	<g class="st4">
		<path class="st5" d="M901,5946.9c0-10.3,5.3-16,13.5-16c5.6,0,9.2,2.3,11.4,7.2l-5.7,3c-0.8-2.5-2.4-4.3-5.7-4.3
			c-3.9,0-6.5,2.6-6.5,7.5v4.9c0,4.8,2.6,7.5,6.5,7.5c3.3,0,5.2-2.1,6.1-4.6l5.4,3.2c-2.3,4.6-5.9,7.3-11.5,7.3
			C906.3,5962.5,901,5957.2,901,5946.9z"/>
		<path class="st5" d="M947.4,5962c-2.3,0-4-1.6-4.4-4h-0.3c-0.7,3-3.2,4.6-6.8,4.6c-4.6,0-7.1-2.7-7.1-6.7c0-4.9,3.8-7.2,9.9-7.2
			h3.6v-1.4c0-2.2-1.1-3.6-3.8-3.6c-2.6,0-3.9,1.3-5,2.7l-3.9-3.4c1.8-2.7,4.5-4.4,9.3-4.4c6.5,0,9.8,3,9.8,8.4v10.1h2.1v5H947.4z
			 M942.4,5955v-2.7h-3.2c-2.5,0-3.8,0.9-3.8,2.6v0.7c0,1.7,1.1,2.5,3,2.5C940.6,5958,942.4,5957.1,942.4,5955z"/>
		<path class="st5" d="M953.5,5958.4l3.8-3.9c1.6,1.8,3.6,2.9,6.1,2.9c2.5,0,3.4-0.8,3.4-2.2c0-1.1-0.7-1.7-2.3-1.9l-2.5-0.3
			c-5.2-0.7-7.8-2.9-7.8-7.1c0-4.4,3.5-7.5,8.9-7.5c4.8,0,7.1,1.3,9.4,3.6l-3.7,3.8c-1.4-1.4-3.4-2.4-5.3-2.4
			c-2.2,0-3.1,0.8-3.1,1.9c0,1.2,0.5,1.9,2.4,2.1l2.6,0.4c5,0.7,7.6,2.9,7.6,6.9c0,4.4-3.9,7.7-9.9,7.7
			C958.7,5962.5,955.8,5961,953.5,5958.4z"/>
		<path class="st5" d="M976,5950.4c0-7.3,3.9-12,10.8-12c7.6,0,10.7,5.5,10.7,11.7v1.9h-14.8v0.4c0,3,1.6,5,5.1,5
			c2.7,0,4.2-1.3,5.7-2.8l3.2,4c-2.1,2.4-5.4,3.8-9.6,3.8C980,5962.5,976,5957.8,976,5950.4z M982.7,5947.9v0.4h8.1v-0.4
			c0-2.8-1.3-4.7-3.9-4.7C984.3,5943.2,982.7,5945.1,982.7,5947.9z"/>
		<path class="st5" d="M1000.2,5958.4l3.8-3.9c1.6,1.8,3.6,2.9,6.1,2.9c2.5,0,3.4-0.8,3.4-2.2c0-1.1-0.7-1.7-2.3-1.9l-2.5-0.3
			c-5.2-0.7-7.8-2.9-7.8-7.1c0-4.4,3.5-7.5,8.9-7.5c4.8,0,7.1,1.3,9.4,3.6l-3.7,3.8c-1.4-1.4-3.4-2.4-5.3-2.4
			c-2.2,0-3.1,0.8-3.1,1.9c0,1.2,0.5,1.9,2.4,2.1l2.6,0.4c5,0.7,7.6,2.9,7.6,6.9c0,4.4-3.9,7.7-9.9,7.7
			C1005.5,5962.5,1002.6,5961,1000.2,5958.4z"/>
	</g>
	<path class="st2" d="M1610.2,6416.9v158H301v-158"/>
	<circle class="st3" cx="301" cy="6583.2" r="63.3"/>
	<circle class="st3" cx="1607.5" cy="6583.2" r="63.3"/>
	<circle class="st3" cx="960" cy="6583.2" r="63.3"/>
	<g class="st4">
		<path class="st0" d="M268.2,6594.4l18.5-45.1h-18.4v9.8h-8.5v-17.9h36.9v8.6l-18,44.6H268.2z"/>
		<path class="st0" d="M304.8,6574.4c0-15.2,10.1-27.2,19.1-33.2h13.6c-12.5,9-19.8,16.2-22.2,27l0.6,0.2c2-4.1,5.3-7.9,12-7.9
			c8.8,0,15.6,6.4,15.6,16.5c0,10.8-7.5,18.4-19.3,18.4C311.9,6595.3,304.8,6587.1,304.8,6574.4z M333.1,6578.3v-1.1
			c0-5.8-3.4-9-9-9c-5.6,0-9,3.2-9,9v1.1c0,5.8,3.4,9,9,9C329.7,6587.3,333.1,6584.1,333.1,6578.3z"/>
	</g>
	<g class="st4">
		<path class="st1" d="M1567.9,6579.8c0-6.9,4.2-11.2,10.5-13v-0.6c-5.3-1.9-8.9-6-8.9-12.2c0-8.1,6.4-13.8,17.8-13.8
			c11.4,0,17.8,5.7,17.8,13.8c0,6.2-3.7,10.3-8.9,12.2v0.6c6.3,1.8,10.5,6.1,10.5,13c0,8.9-7,15.5-19.4,15.5
			C1574.9,6595.3,1567.9,6588.7,1567.9,6579.8z M1596.3,6579.9v-1.6c0-4.7-3.3-7.5-9-7.5s-9,2.8-9,7.5v1.6c0,4.7,3.3,7.5,9,7.5
			S1596.3,6584.6,1596.3,6579.9z M1595.6,6556.2v-1.2c0-4.3-3-6.9-8.3-6.9c-5.3,0-8.3,2.6-8.3,6.9v1.2c0,4.4,3,7,8.3,7
			C1592.6,6563.2,1595.6,6560.7,1595.6,6556.2z"/>
		<path class="st1" d="M1617.1,6594.4v-8.2h14.6v-37.8h-0.7l-11.6,13.7l-6.3-5.3l13.2-15.7h15.2v45.1h12.2v8.2H1617.1z"/>
	</g>
	<g class="st4">
		<path class="st0" d="M292,6629.2l-1.9-5.7h-7.8l-1.9,5.7h-2.4l6.8-19.4h3l6.8,19.4H292z M286.2,6612H286l-3.3,9.4h6.7L286.2,6612z
			"/>
		<path class="st0" d="M302.6,6635.1c-4.5,0-6.3-1.3-6.3-3.5c0-1.6,0.9-2.4,2.3-2.8v-0.3c-0.8-0.4-1.3-1-1.3-2c0-1.4,1-2.1,2.5-2.5
			v-0.1c-1.7-0.8-2.7-2.4-2.7-4.4c0-2.9,2.1-4.9,5.4-4.9c1,0,1.9,0.2,2.7,0.6v-0.2c0-1.1,0.5-1.9,1.7-1.9h2.1v1.9h-2.7v0.9
			c1,0.9,1.6,2.2,1.6,3.7c0,2.9-2.1,4.9-5.4,4.9c-0.5,0-1-0.1-1.4-0.1c-0.9,0.2-1.9,0.7-1.9,1.6c0,0.9,0.9,1.1,2.2,1.1h3.1
			c3.6,0,5.1,1.4,5.1,3.8C309.5,6633.7,307.2,6635.1,302.6,6635.1z M304.4,6629.1h-4.8c-0.9,0.4-1.3,1.1-1.3,1.9
			c0,1.2,0.9,2.3,3.1,2.3h2.1c2.5,0,3.9-0.8,3.9-2.3C307.4,6629.8,306.7,6629.1,304.4,6629.1z M305.5,6619.9v-0.8
			c0-1.9-1.2-2.8-3.1-2.8c-1.9,0-3.1,0.9-3.1,2.8v0.8c0,1.9,1.2,2.8,3.1,2.8C304.3,6622.6,305.5,6621.8,305.5,6619.9z"/>
		<path class="st0" d="M310.9,6622c0-4.6,2.6-7.5,6.4-7.5c3.8,0,6.2,2.9,6.2,7v1.1h-10.3v0.7c0,2.5,1.6,4.3,4.2,4.3
			c1.8,0,3.2-0.9,3.9-2.5l1.6,1.1c-0.9,1.9-3,3.3-5.7,3.3C313.4,6629.5,310.9,6626.6,310.9,6622z M313.2,6620.7v0.2h7.9v-0.3
			c0-2.5-1.5-4.2-3.8-4.2C314.9,6616.4,313.2,6618.2,313.2,6620.7z"/>
	</g>
	<g class="st4">
		<path class="st1" d="M1601.1,6629.2l-1.9-5.7h-7.8l-1.9,5.7h-2.4l6.8-19.4h3l6.8,19.4H1601.1z M1595.3,6612h-0.1l-3.3,9.4h6.7
			L1595.3,6612z"/>
		<path class="st1" d="M1611.7,6635.1c-4.5,0-6.3-1.3-6.3-3.5c0-1.6,0.9-2.4,2.3-2.8v-0.3c-0.8-0.4-1.3-1-1.3-2c0-1.4,1-2.1,2.5-2.5
			v-0.1c-1.7-0.8-2.7-2.4-2.7-4.4c0-2.9,2.1-4.9,5.4-4.9c1,0,1.9,0.2,2.7,0.6v-0.2c0-1.1,0.5-1.9,1.7-1.9h2.1v1.9h-2.7v0.9
			c1,0.9,1.6,2.2,1.6,3.7c0,2.9-2.1,4.9-5.4,4.9c-0.5,0-1-0.1-1.4-0.1c-0.9,0.2-1.9,0.7-1.9,1.6c0,0.9,0.9,1.1,2.2,1.1h3.1
			c3.6,0,5.1,1.4,5.1,3.8C1618.6,6633.7,1616.3,6635.1,1611.7,6635.1z M1613.6,6629.1h-4.8c-0.9,0.4-1.3,1.1-1.3,1.9
			c0,1.2,0.9,2.3,3.1,2.3h2.1c2.5,0,3.9-0.8,3.9-2.3C1616.6,6629.8,1615.8,6629.1,1613.6,6629.1z M1614.7,6619.9v-0.8
			c0-1.9-1.2-2.8-3.1-2.8c-1.9,0-3.1,0.9-3.1,2.8v0.8c0,1.9,1.2,2.8,3.1,2.8C1613.5,6622.6,1614.7,6621.8,1614.7,6619.9z"/>
		<path class="st1" d="M1620,6622c0-4.6,2.6-7.5,6.4-7.5c3.8,0,6.2,2.9,6.2,7v1.1h-10.3v0.7c0,2.5,1.6,4.3,4.2,4.3
			c1.8,0,3.2-0.9,3.9-2.5l1.6,1.1c-0.9,1.9-3,3.3-5.7,3.3C1622.6,6629.5,1620,6626.6,1620,6622z M1622.3,6620.7v0.2h7.9v-0.3
			c0-2.5-1.5-4.2-3.8-4.2C1624,6616.4,1622.3,6618.2,1622.3,6620.7z"/>
	</g>
	<g class="st4">
		<path class="st5" d="M890.9,6483.3h11.5c8.1,0,13.5,5.1,13.5,15.3c0,10.2-5.3,15.3-13.5,15.3h-11.5V6483.3z M902.5,6507.9
			c3.9,0,6.4-2.1,6.4-7v-4.7c0-4.9-2.5-7-6.4-7h-4.9v18.8H902.5z"/>
		<path class="st5" d="M919.7,6502.3c0-7.3,3.9-12,10.8-12c7.6,0,10.7,5.5,10.7,11.7v1.9h-14.8v0.4c0,3,1.6,5,5.1,5
			c2.7,0,4.2-1.3,5.7-2.8l3.2,4c-2.1,2.4-5.4,3.8-9.6,3.8C923.7,6514.4,919.7,6509.7,919.7,6502.3z M926.4,6499.8v0.4h8.1v-0.4
			c0-2.8-1.3-4.7-3.9-4.7C928,6495.1,926.4,6497,926.4,6499.8z"/>
		<path class="st5" d="M962.8,6513.9c-2.3,0-4-1.6-4.4-4h-0.3c-0.7,3-3.2,4.6-6.8,4.6c-4.6,0-7.1-2.7-7.1-6.7c0-4.9,3.8-7.2,9.9-7.2
			h3.6v-1.4c0-2.2-1.1-3.6-3.8-3.6c-2.6,0-3.9,1.3-5,2.7l-3.9-3.4c1.8-2.7,4.5-4.4,9.3-4.4c6.5,0,9.8,3,9.8,8.4v10.1h2.1v5H962.8z
			 M957.7,6506.9v-2.7h-3.2c-2.5,0-3.8,0.9-3.8,2.6v0.7c0,1.7,1.1,2.5,3,2.5C955.9,6509.9,957.7,6509,957.7,6506.9z"/>
		<path class="st5" d="M978.5,6513.9c-4.5,0-6.8-2.3-6.8-6.7v-11.3h-3.2v-5h1.6c1.8,0,2.3-0.9,2.3-2.5v-3.8h5.8v6.2h4.6v5h-4.6v12.9
			h4.2v5H978.5z"/>
		<path class="st5" d="M987.2,6481.4h6.5v13.3h0.3c0.8-2.4,2.8-4.4,6.4-4.4c4.7,0,7.2,3.3,7.2,9.1v14.4h-6.5V6500
			c0-2.9-0.8-4.4-3.2-4.4c-2.1,0-4.2,1.1-4.2,3.4v14.9h-6.5V6481.4z"/>
		<path class="st5" d="M1011.5,6510.3l3.8-3.9c1.6,1.8,3.6,2.9,6.1,2.9c2.5,0,3.4-0.8,3.4-2.2c0-1.1-0.7-1.7-2.3-1.9l-2.5-0.3
			c-5.2-0.7-7.8-2.9-7.8-7.1c0-4.4,3.5-7.5,8.9-7.5c4.8,0,7.1,1.3,9.4,3.6l-3.7,3.8c-1.4-1.4-3.4-2.4-5.3-2.4
			c-2.2,0-3.1,0.8-3.1,1.9c0,1.2,0.5,1.9,2.4,2.1l2.6,0.4c5,0.7,7.6,2.9,7.6,6.9c0,4.4-3.9,7.7-9.9,7.7
			C1016.7,6514.4,1013.9,6512.9,1011.5,6510.3z"/>
	</g>
	<g class="st4">
		<path class="st5" d="M889.8,6609.8h3.1l5.6,10.4h0.1l5.6-10.4h3v19.4h-2.3v-16.3h-0.1l-1.6,3.2l-4.6,8.4l-4.6-8.4l-1.6-3.2h-0.1
			v16.3h-2.3V6609.8z"/>
		<path class="st5" d="M911.1,6622c0-4.6,2.6-7.5,6.4-7.5c3.8,0,6.2,2.9,6.2,7v1.1h-10.3v0.7c0,2.5,1.6,4.3,4.2,4.3
			c1.8,0,3.2-0.9,3.9-2.5l1.6,1.1c-0.9,1.9-3,3.3-5.7,3.3C913.6,6629.5,911.1,6626.6,911.1,6622z M913.4,6620.7v0.2h7.9v-0.3
			c0-2.5-1.5-4.2-3.8-4.2C915.1,6616.4,913.4,6618.2,913.4,6620.7z"/>
		<path class="st5" d="M936.5,6626.9h-0.1c-0.9,1.8-2.2,2.7-4.2,2.7c-3.6,0-5.8-2.9-5.8-7.5s2.2-7.5,5.8-7.5c2,0,3.4,0.9,4.2,2.7
			h0.1v-8.6h2.2v20.6h-2.2V6626.9z M936.5,6624.6v-5.3c0-1.6-1.7-2.8-3.7-2.8c-2.5,0-4.1,1.7-4.1,4.3v2.4c0,2.6,1.6,4.3,4.1,4.3
			C934.9,6627.5,936.5,6626.5,936.5,6624.6z"/>
		<path class="st5" d="M943.2,6610.3v-0.4c0-0.8,0.4-1.2,1.4-1.2c0.9,0,1.4,0.5,1.4,1.2v0.4c0,0.7-0.4,1.2-1.4,1.2
			C943.7,6611.5,943.2,6611,943.2,6610.3z M943.5,6614.9h2.2v14.3h-2.2V6614.9z"/>
		<path class="st5" d="M960.8,6629.2c-1.6,0-2.3-1-2.5-2.3h-0.1c-0.6,1.8-2.1,2.7-4.1,2.7c-3,0-4.8-1.7-4.8-4.3
			c0-2.7,1.9-4.2,6.1-4.2h2.8v-1.4c0-2-1.1-3.1-3.4-3.1c-1.7,0-2.9,0.8-3.6,2.1l-1.3-1.2c0.8-1.5,2.5-2.8,5.1-2.8
			c3.4,0,5.5,1.8,5.5,4.8v7.9h1.6v1.9H960.8z M958.2,6625v-2.4h-2.9c-2.5,0-3.7,0.8-3.7,2.2v0.6c0,1.4,1.1,2.2,2.8,2.2
			C956.7,6627.6,958.2,6626.5,958.2,6625z"/>
		<path class="st5" d="M965.3,6629.2v-14.3h2.2v2.3h0.1c0.7-1.6,1.9-2.7,4.1-2.7c2.9,0,4.8,2,4.8,5.5v9.2h-2.2v-8.8
			c0-2.6-1.1-3.9-3.2-3.9c-1.8,0-3.5,0.9-3.5,2.7v9.9H965.3z"/>
		<path class="st5" d="M1000,6629.2l-1.9-5.7h-7.8l-1.9,5.7h-2.4l6.8-19.4h3l6.8,19.4H1000z M994.1,6612H994l-3.3,9.4h6.7
			L994.1,6612z"/>
		<path class="st5" d="M1010.5,6635.1c-4.5,0-6.3-1.3-6.3-3.5c0-1.6,0.9-2.4,2.3-2.8v-0.3c-0.8-0.4-1.3-1-1.3-2c0-1.4,1-2.1,2.5-2.5
			v-0.1c-1.7-0.8-2.7-2.4-2.7-4.4c0-2.9,2.1-4.9,5.4-4.9c1,0,1.9,0.2,2.7,0.6v-0.2c0-1.1,0.5-1.9,1.7-1.9h2.1v1.9h-2.7v0.9
			c1,0.9,1.6,2.2,1.6,3.7c0,2.9-2.1,4.9-5.4,4.9c-0.5,0-1-0.1-1.4-0.1c-0.9,0.2-1.9,0.7-1.9,1.6c0,0.9,0.9,1.1,2.2,1.1h3.1
			c3.6,0,5.1,1.4,5.1,3.8C1017.5,6633.7,1015.1,6635.1,1010.5,6635.1z M1012.4,6629.1h-4.8c-0.9,0.4-1.3,1.1-1.3,1.9
			c0,1.2,0.9,2.3,3.1,2.3h2.1c2.5,0,3.9-0.8,3.9-2.3C1015.4,6629.8,1014.6,6629.1,1012.4,6629.1z M1013.5,6619.9v-0.8
			c0-1.9-1.2-2.8-3.1-2.8c-1.9,0-3.1,0.9-3.1,2.8v0.8c0,1.9,1.2,2.8,3.1,2.8C1012.3,6622.6,1013.5,6621.8,1013.5,6619.9z"/>
		<path class="st5" d="M1018.8,6622c0-4.6,2.6-7.5,6.4-7.5c3.8,0,6.2,2.9,6.2,7v1.1h-10.3v0.7c0,2.5,1.6,4.3,4.2,4.3
			c1.8,0,3.2-0.9,3.9-2.5l1.6,1.1c-0.9,1.9-3,3.3-5.7,3.3C1021.4,6629.5,1018.8,6626.6,1018.8,6622z M1021.2,6620.7v0.2h7.9v-0.3
			c0-2.5-1.5-4.2-3.8-4.2C1022.9,6616.4,1021.2,6618.2,1021.2,6620.7z"/>
	</g>
	<g class="st4">
		<path class="st5" d="M927.1,6594.4l18.5-45.1h-18.4v9.8h-8.5v-17.9h36.9v8.6l-18,44.6H927.1z"/>
		<path class="st5" d="M983,6594.4h-13.6c12.5-9,19.8-16.2,22.2-27l-0.6-0.2c-2,4.1-5.3,7.9-12,7.9c-8.8,0-15.6-6.4-15.6-16.5
			c0-10.8,7.5-18.4,19.3-18.4c12.2,0,19.4,8.2,19.4,20.9C1002,6576.4,991.9,6588.3,983,6594.4z M991.6,6558.3v-1.1c0-5.8-3.4-9-9-9
			c-5.6,0-9,3.2-9,9v1.1c0,5.8,3.4,9,9,9C988.3,6567.3,991.6,6564.1,991.6,6558.3z"/>
	</g>
</g>
</svg>
