<svg xmlns="http://www.w3.org/2000/svg" width="282.393" height="123.141" viewBox="0 0 282.393 123.141">
  <g id="Group_503" data-name="Group 503" transform="translate(-1222.768 -7529.413)">
    <g id="Group_133" data-name="Group 133">
      <g id="Group_119" data-name="Group 119">
        <path id="Path_505" data-name="Path 505" d="M1485.72,7539.508a10.1,10.1,0,1,0-10.1,10.1A10.1,10.1,0,0,0,1485.72,7539.508Z" fill="#d02f34"/>
        <path id="Path_506" data-name="Path 506" d="M1504.943,7590.525l-10.2-31.464c-.886-2.756-4.8-6.49-9.677-6.49h-18.886c-4.876,0-8.787,3.734-9.677,6.49l-10.2,31.464a4.437,4.437,0,1,0,8.441,2.739l7.969-24.573,2.234-1.311-11.157,41.168h10.937v39.48a4.523,4.523,0,1,0,9.047,0v-39.48h3.707v39.48a4.525,4.525,0,1,0,9.05,0v-39.48h10.931L1486.3,7567.38l2.234,1.311,7.965,24.573a4.437,4.437,0,1,0,8.441-2.739Z" fill="#d02f34"/>
      </g>
      <g id="Group_120" data-name="Group 120">
        <path id="Path_507" data-name="Path 507" d="M1356.335,7539.508a10.1,10.1,0,1,0-10.1,10.1A10.1,10.1,0,0,0,1356.335,7539.508Z" fill="#d02f34"/>
        <path id="Path_508" data-name="Path 508" d="M1375.558,7590.525l-10.2-31.464c-.886-2.756-4.8-6.49-9.677-6.49h-18.886c-4.876,0-8.787,3.734-9.677,6.49l-10.2,31.464a4.437,4.437,0,1,0,8.441,2.739l7.969-24.573,2.234-1.311-11.157,41.168h10.938v39.48a4.523,4.523,0,1,0,9.046,0v-39.48h3.707v39.48a4.525,4.525,0,1,0,9.05,0v-39.48h10.931l-11.153-41.168,2.234,1.311,7.965,24.573a4.437,4.437,0,1,0,8.441-2.739Z" fill="#d02f34"/>
      </g>
      <g id="Group_122" data-name="Group 122">
        <g id="Group_121" data-name="Group 121">
          <path id="Path_509" data-name="Path 509" d="M1321.216,7539.486a10.073,10.073,0,1,0-10.073,10.076A10.074,10.074,0,0,0,1321.216,7539.486Z" fill="#222b3e"/>
          <path id="Path_510" data-name="Path 510" d="M1322.217,7552.883h-22.152c-8.046,0-13.921,6.837-13.921,11.347v33a4.424,4.424,0,0,0,8.849,0v-29.489h3.24v79.279a5.539,5.539,0,1,0,11.078,0v-45.367h3.657v45.367a5.54,5.54,0,0,0,11.081,0v-79.279h3.237v29.489a4.427,4.427,0,0,0,8.853,0v-33C1336.139,7559.72,1330.263,7552.883,1322.217,7552.883Z" fill="#222b3e"/>
        </g>
      </g>
      <g id="Group_124" data-name="Group 124">
        <g id="Group_123" data-name="Group 123">
          <path id="Path_511" data-name="Path 511" d="M1257.84,7539.486a10.073,10.073,0,1,0-10.073,10.076A10.074,10.074,0,0,0,1257.84,7539.486Z" fill="#222b3e"/>
          <path id="Path_512" data-name="Path 512" d="M1258.841,7552.883h-22.152c-8.046,0-13.921,6.837-13.921,11.347v33a4.425,4.425,0,0,0,8.85,0v-29.489h3.24v79.279a5.539,5.539,0,1,0,11.077,0v-45.367h3.657v45.367a5.54,5.54,0,0,0,11.081,0v-79.279h3.237v29.489a4.426,4.426,0,0,0,8.853,0v-33C1272.763,7559.72,1266.887,7552.883,1258.841,7552.883Z" fill="#222b3e"/>
        </g>
      </g>
      <g id="Group_126" data-name="Group 126">
        <g id="Group_125" data-name="Group 125">
          <path id="Path_513" data-name="Path 513" d="M1291.695,7539.486a10.073,10.073,0,1,0-10.073,10.076A10.074,10.074,0,0,0,1291.695,7539.486Z" fill="#222b3e"/>
          <path id="Path_514" data-name="Path 514" d="M1292.7,7552.883h-22.152c-8.046,0-13.921,6.837-13.921,11.347v33a4.424,4.424,0,0,0,8.849,0v-29.489h3.24v79.279a5.539,5.539,0,1,0,11.078,0v-45.367h3.657v45.367a5.54,5.54,0,0,0,11.081,0v-79.279h3.237v29.489a4.427,4.427,0,0,0,8.853,0v-33C1306.618,7559.72,1300.742,7552.883,1292.7,7552.883Z" fill="#222b3e"/>
        </g>
      </g>
      <g id="Group_128" data-name="Group 128">
        <g id="Group_127" data-name="Group 127">
          <path id="Path_515" data-name="Path 515" d="M1453.85,7539.486a10.073,10.073,0,1,0-10.072,10.076A10.073,10.073,0,0,0,1453.85,7539.486Z" fill="#222b3e"/>
          <path id="Path_516" data-name="Path 516" d="M1454.852,7552.883H1432.7c-8.046,0-13.921,6.837-13.921,11.347v33a4.424,4.424,0,0,0,8.849,0v-29.489h3.24v79.279a5.539,5.539,0,1,0,11.078,0v-45.367h3.657v45.367a5.54,5.54,0,0,0,11.081,0v-79.279h3.237v29.489a4.427,4.427,0,0,0,8.853,0v-33C1468.774,7559.72,1462.9,7552.883,1454.852,7552.883Z" fill="#222b3e"/>
        </g>
      </g>
      <g id="Group_130" data-name="Group 130">
        <g id="Group_129" data-name="Group 129">
          <path id="Path_517" data-name="Path 517" d="M1391.407,7539.486a10.073,10.073,0,1,0-10.073,10.076A10.074,10.074,0,0,0,1391.407,7539.486Z" fill="#222b3e"/>
          <path id="Path_518" data-name="Path 518" d="M1392.408,7552.883h-22.152c-8.046,0-13.921,6.837-13.921,11.347v33a4.425,4.425,0,0,0,8.85,0v-29.489h3.24v79.279a5.538,5.538,0,1,0,11.077,0v-45.367h3.657v45.367a5.54,5.54,0,0,0,11.081,0v-79.279h3.237v29.489a4.426,4.426,0,0,0,8.853,0v-33C1406.33,7559.72,1400.454,7552.883,1392.408,7552.883Z" fill="#222b3e"/>
        </g>
      </g>
      <g id="Group_131" data-name="Group 131">
        <path id="Path_519" data-name="Path 519" d="M1274.392,7539.508a10.1,10.1,0,1,0-10.1,10.1A10.1,10.1,0,0,0,1274.392,7539.508Z" fill="#d02f34"/>
        <path id="Path_520" data-name="Path 520" d="M1293.615,7590.525l-10.2-31.464c-.886-2.756-4.8-6.49-9.677-6.49h-18.886c-4.876,0-8.787,3.734-9.677,6.49l-10.2,31.464a4.437,4.437,0,1,0,8.441,2.739l7.969-24.573,2.234-1.311-11.157,41.168h10.937v39.48a4.523,4.523,0,1,0,9.047,0v-39.48h3.707v39.48a4.525,4.525,0,1,0,9.05,0v-39.48h10.931l-11.153-41.168,2.234,1.311,7.965,24.573a4.437,4.437,0,1,0,8.441-2.739Z" fill="#d02f34"/>
      </g>
      <g id="Group_132" data-name="Group 132">
        <path id="Path_521" data-name="Path 521" d="M1424.335,7539.508a10.1,10.1,0,1,0-10.1,10.1A10.1,10.1,0,0,0,1424.335,7539.508Z" fill="#d02f34"/>
        <path id="Path_522" data-name="Path 522" d="M1443.558,7590.525l-10.2-31.464c-.886-2.756-4.8-6.49-9.677-6.49h-18.886c-4.876,0-8.787,3.734-9.677,6.49l-10.2,31.464a4.437,4.437,0,1,0,8.441,2.739l7.969-24.573,2.234-1.311-11.157,41.168h10.938v39.48a4.523,4.523,0,1,0,9.046,0v-39.48h3.707v39.48a4.525,4.525,0,1,0,9.05,0v-39.48h10.931l-11.153-41.168,2.234,1.311,7.965,24.573a4.437,4.437,0,1,0,8.441-2.739Z" fill="#d02f34"/>
      </g>
    </g>
  </g>
</svg>
