<svg xmlns="http://www.w3.org/2000/svg" width="282.392" height="123.14" viewBox="0 0 282.392 123.14">
  <g id="Group_498" data-name="Group 498" transform="translate(-414.839 -6987.066)">
    <g id="Group_57" data-name="Group 57">
      <path id="Path_403" data-name="Path 403" d="M677.791,6997.16a10.1,10.1,0,1,0-10.1,10.1A10.1,10.1,0,0,0,677.791,6997.16Z" fill="#a7a9ac"/>
      <path id="Path_404" data-name="Path 404" d="M697.013,7048.177l-10.2-31.464c-.886-2.756-4.8-6.489-9.678-6.489H658.248c-4.876,0-8.788,3.733-9.677,6.489l-10.2,31.464a4.437,4.437,0,1,0,8.441,2.74l7.968-24.574,2.234-1.31L645.855,7066.2h10.937v39.48a4.523,4.523,0,1,0,9.047,0V7066.2h3.706v39.48a4.526,4.526,0,0,0,9.051,0V7066.2h10.931l-11.153-41.168,2.234,1.31,7.965,24.574a4.437,4.437,0,1,0,8.44-2.74Z" fill="#a7a9ac"/>
    </g>
    <g id="Group_58" data-name="Group 58">
      <path id="Path_405" data-name="Path 405" d="M548.406,6997.16a10.1,10.1,0,1,0-10.1,10.1A10.1,10.1,0,0,0,548.406,6997.16Z" fill="#a7a9ac"/>
      <path id="Path_406" data-name="Path 406" d="M567.629,7048.177l-10.2-31.464c-.886-2.756-4.8-6.489-9.677-6.489H528.863c-4.876,0-8.787,3.733-9.677,6.489l-10.2,31.464a4.437,4.437,0,1,0,8.441,2.74l7.969-24.574,2.233-1.31L516.47,7066.2h10.937v39.48a4.523,4.523,0,1,0,9.047,0V7066.2h3.707v39.48a4.525,4.525,0,0,0,9.05,0V7066.2h10.931l-11.153-41.168,2.234,1.31,7.965,24.574a4.437,4.437,0,1,0,8.441-2.74Z" fill="#a7a9ac"/>
    </g>
    <g id="Group_61" data-name="Group 61">
      <g id="Group_60" data-name="Group 60">
        <g id="Group_59" data-name="Group 59">
          <path id="Path_407" data-name="Path 407" d="M513.286,6997.139a10.073,10.073,0,1,0-10.072,10.076A10.073,10.073,0,0,0,513.286,6997.139Z" fill="#606060"/>
          <path id="Path_408" data-name="Path 408" d="M514.288,7010.536H492.136c-8.047,0-13.921,6.836-13.921,11.347v33a4.424,4.424,0,0,0,8.849,0v-29.49h3.24v79.279a5.539,5.539,0,1,0,11.078,0V7059.3h3.657v45.366a5.54,5.54,0,0,0,11.081,0v-79.279h3.237v29.49a4.426,4.426,0,0,0,8.852,0v-33C528.209,7017.372,522.334,7010.536,514.288,7010.536Z" fill="#606060"/>
        </g>
      </g>
    </g>
    <g id="Group_64" data-name="Group 64">
      <g id="Group_63" data-name="Group 63">
        <g id="Group_62" data-name="Group 62">
          <path id="Path_409" data-name="Path 409" d="M449.91,6997.139a10.072,10.072,0,1,0-10.072,10.076A10.073,10.073,0,0,0,449.91,6997.139Z" fill="#606060"/>
          <path id="Path_410" data-name="Path 410" d="M450.912,7010.536H428.76c-8.046,0-13.921,6.836-13.921,11.347v33a4.424,4.424,0,0,0,8.849,0v-29.49h3.24v79.279a5.539,5.539,0,1,0,11.078,0V7059.3h3.657v45.366a5.54,5.54,0,0,0,11.081,0v-79.279h3.237v29.49a4.427,4.427,0,0,0,8.853,0v-33C464.834,7017.372,458.958,7010.536,450.912,7010.536Z" fill="#606060"/>
        </g>
      </g>
    </g>
    <g id="Group_67" data-name="Group 67">
      <g id="Group_66" data-name="Group 66">
        <g id="Group_65" data-name="Group 65">
          <path id="Path_411" data-name="Path 411" d="M483.765,6997.139a10.073,10.073,0,1,0-10.072,10.076A10.073,10.073,0,0,0,483.765,6997.139Z" fill="#606060"/>
          <path id="Path_412" data-name="Path 412" d="M484.767,7010.536H462.615c-8.047,0-13.921,6.836-13.921,11.347v33a4.424,4.424,0,0,0,8.849,0v-29.49h3.24v79.279a5.539,5.539,0,1,0,11.078,0V7059.3h3.657v45.366a5.54,5.54,0,0,0,11.081,0v-79.279h3.237v29.49a4.426,4.426,0,0,0,8.852,0v-33C498.688,7017.372,492.813,7010.536,484.767,7010.536Z" fill="#606060"/>
        </g>
      </g>
    </g>
    <g id="Group_70" data-name="Group 70">
      <g id="Group_69" data-name="Group 69">
        <g id="Group_68" data-name="Group 68">
          <path id="Path_413" data-name="Path 413" d="M645.921,6997.139a10.073,10.073,0,1,0-10.073,10.076A10.073,10.073,0,0,0,645.921,6997.139Z" fill="#606060"/>
          <path id="Path_414" data-name="Path 414" d="M646.923,7010.536H624.771c-8.047,0-13.921,6.836-13.921,11.347v33a4.424,4.424,0,0,0,8.849,0v-29.49h3.24v79.279a5.539,5.539,0,1,0,11.078,0V7059.3h3.657v45.366a5.54,5.54,0,0,0,11.081,0v-79.279h3.237v29.49a4.426,4.426,0,0,0,8.852,0v-33C660.844,7017.372,654.969,7010.536,646.923,7010.536Z" fill="#606060"/>
        </g>
      </g>
    </g>
    <g id="Group_73" data-name="Group 73">
      <g id="Group_72" data-name="Group 72">
        <g id="Group_71" data-name="Group 71">
          <path id="Path_415" data-name="Path 415" d="M583.477,6997.139a10.073,10.073,0,1,0-10.072,10.076A10.073,10.073,0,0,0,583.477,6997.139Z" fill="#606060"/>
          <path id="Path_416" data-name="Path 416" d="M584.479,7010.536H562.327c-8.046,0-13.921,6.836-13.921,11.347v33a4.424,4.424,0,0,0,8.849,0v-29.49h3.24v79.279a5.539,5.539,0,1,0,11.078,0V7059.3h3.657v45.366a5.54,5.54,0,0,0,11.081,0v-79.279h3.237v29.49a4.427,4.427,0,0,0,8.853,0v-33C598.4,7017.372,592.525,7010.536,584.479,7010.536Z" fill="#606060"/>
        </g>
      </g>
    </g>
    <g id="Group_74" data-name="Group 74">
      <path id="Path_417" data-name="Path 417" d="M466.463,6997.16a10.1,10.1,0,1,0-10.1,10.1A10.1,10.1,0,0,0,466.463,6997.16Z" fill="#a7a9ac"/>
      <path id="Path_418" data-name="Path 418" d="M485.686,7048.177l-10.2-31.464c-.886-2.756-4.8-6.489-9.678-6.489H446.92c-4.876,0-8.788,3.733-9.677,6.489l-10.2,31.464a4.437,4.437,0,1,0,8.441,2.74l7.968-24.574,2.234-1.31L434.527,7066.2h10.937v39.48a4.523,4.523,0,1,0,9.047,0V7066.2h3.706v39.48a4.525,4.525,0,0,0,9.051,0V7066.2H478.2l-11.153-41.168,2.234,1.31,7.965,24.574a4.437,4.437,0,1,0,8.441-2.74Z" fill="#a7a9ac"/>
    </g>
    <g id="Group_75" data-name="Group 75">
      <path id="Path_419" data-name="Path 419" d="M616.406,6997.16a10.1,10.1,0,1,0-10.1,10.1A10.1,10.1,0,0,0,616.406,6997.16Z" fill="#a7a9ac"/>
      <path id="Path_420" data-name="Path 420" d="M635.629,7048.177l-10.2-31.464c-.886-2.756-4.8-6.489-9.677-6.489H596.863c-4.876,0-8.787,3.733-9.677,6.489l-10.2,31.464a4.437,4.437,0,1,0,8.441,2.74l7.969-24.574,2.233-1.31L584.47,7066.2h10.937v39.48a4.523,4.523,0,1,0,9.047,0V7066.2h3.707v39.48a4.525,4.525,0,0,0,9.05,0V7066.2h10.931l-11.153-41.168,2.234,1.31,7.965,24.574a4.437,4.437,0,1,0,8.441-2.74Z" fill="#a7a9ac"/>
    </g>
  </g>
</svg>
