<svg xmlns="http://www.w3.org/2000/svg" width="115.708" height="225.29" viewBox="0 0 115.708 225.29">
  <g id="Group_489" data-name="Group 489" transform="translate(-806.827 -4430.991)">
    <path id="Path_321" data-name="Path 321" d="M865.9,4477.813A23.411,23.411,0,1,0,842.49,4454.4,23.411,23.411,0,0,0,865.9,4477.813Z" fill="#a7a9ac"/>
    <path id="Path_322" data-name="Path 322" d="M891.566,4567.659a19.007,19.007,0,0,1,.726-6.565,15.761,15.761,0,0,0,.6-4.3l-5.1-48.091a22.955,22.955,0,0,0-14.173-21.141l-4.285,6.379,5.672,36.662-6.556,6.556L861.9,4530.6l5.669-36.662-8.164-8.109a22.648,22.648,0,0,0-10.531,2.663c-4.235,2.712-35.733,26.909-35.733,26.909a8.265,8.265,0,0,0-3.088,5.549l-3.172,27.818a8.373,8.373,0,0,0,7.113,9.3,8.1,8.1,0,0,0,1.091.072,8.268,8.268,0,0,0,8.2-7.33l2.8-24.573,9.525-7.528-4.038,38.079a17.323,17.323,0,0,0,2.786,9.173,19.785,19.785,0,0,1,3.094,10.529l-.117,26.7L818.7,4630.963a10.864,10.864,0,1,0,18.041,12.109l20.466-30.486a10.865,10.865,0,0,0,1.843-6.009l.114-25.92a1,1,0,0,1,1-1l4.756.008a25.409,25.409,0,0,0,4.188-.361,1.4,1.4,0,0,1,1.637,1.271l4.954,65.656a10.862,10.862,0,0,0,10.821,10.047c.273,0,.55-.01.828-.031a10.862,10.862,0,0,0,10.016-11.65Z" fill="#a7a9ac"/>
    <path id="Path_323" data-name="Path 323" d="M922.427,4532.683a8.266,8.266,0,0,0-9.488-6.831l-20.413,3.323,1.628,16.484,21.441-3.488A8.268,8.268,0,0,0,922.427,4532.683Z" fill="#a7a9ac"/>
  </g>
</svg>
