<svg xmlns="http://www.w3.org/2000/svg" width="109.596" height="206.458" viewBox="0 0 109.596 206.458">
  <g id="Group_492" data-name="Group 492" transform="translate(-1274.757 -4451.074)">
    <path id="Path_304" data-name="Path 304" d="M1307.917,4492.331a20.981,20.981,0,1,0-14.861-25.682A20.973,20.973,0,0,0,1307.917,4492.331Z" fill="#a7a9ac"/>
    <path id="Path_305" data-name="Path 305" d="M1318.566,4606.3a28.8,28.8,0,0,0-2.293-6.557q-2.317-5.531-4.636-11.061-2.244-5.358-4.49-10.715l-1.505-3.59c-.1-.229-.626-1.074-.557-1.328l3.663-13.468-4.624-.891a11.249,11.249,0,0,1-9.129-10.228l-.007-.1c-1.609-22.176-2.187-30.139-2.4-33.027-.052-.726-.081-1.137-.1-1.366a2.382,2.382,0,0,1-.02-.376l.039-.4a2.582,2.582,0,0,1,2.806-2.129,8.677,8.677,0,0,0-.241,2.592s2.511,34.613,2.511,34.622a8.629,8.629,0,0,0,7.026,7.861l34.075,6.566a8.679,8.679,0,1,0,3.269-17.048l-27.54-5.28-2.031-27.985a8.607,8.607,0,0,0-.614-2.521,2.559,2.559,0,0,1,3.211,2.334l.928,12.778.472,6.512s3.915-14.4,3.91-14.4a16.648,16.648,0,0,0-32.054-8.915l-.076-.022-12.841,48.18a16.7,16.7,0,0,0,5.482,17.162l1.436,3.425,13.883,33.124v35.914a11.282,11.282,0,1,0,22.564,0v-38.094A10.193,10.193,0,0,0,1318.566,4606.3Z" fill="#a7a9ac"/>
    <path id="Path_306" data-name="Path 306" d="M1384.277,4654.718l-2.343-7.1-1.006.186-14.021-87.113a7.888,7.888,0,0,0-9.117-6.526l-6.22,1.059c-.034.365-.083.732-.153,1.1a11.122,11.122,0,0,1-.88,2.6l7.836-1.333a4.423,4.423,0,0,1,5.107,3.658l2.681,16.654-25.9,23.082a17.985,17.985,0,0,0-6.007,12.218l-2.465,34.7-1.1-.109-1.743,7.271a1.519,1.519,0,0,0,.88,1.752l5.448.543a1.522,1.522,0,0,0,1.209-1.545l-.275-7.471-.969-.1,1.417-19.944h37.611l3.241,20.135-1.033.19.347,7.469a1.522,1.522,0,0,0,1.333,1.438l5.385-.994A1.522,1.522,0,0,0,1384.277,4654.718Zm-47.368-29.889.808-11.384a14.551,14.551,0,0,1,4.855-9.875l24.243-21.608,6.9,42.867Z" fill="#a7a9ac"/>
  </g>
</svg>
