<svg xmlns="http://www.w3.org/2000/svg" width="100%" height="100%" viewBox="0 0 442.246 362.094">
  <g id="Group_482" data-name="Group 482" transform="translate(-738.877 -472.964)">
    <path id="icn-polygon" d="M955.991,796.7l152.332,21.612,72.8-140.783-32.344-123.807-250.635-80.76L738.877,627.5l86.842,194.7Z" fill="#222b3e"/>
    <g id="Analytics">
      <path id="Path_89" data-name="Path 89" d="M842.674,677.725,839.6,691h6.172Zm-8.128,35.29h-7.132l12.465-54.073h5.5l12.622,54.073h-7.193l-3.434-15.131h-9.4Z" fill="#d8383c"/>
      <path id="Path_90" data-name="Path 90" d="M866.364,712.945h-6.885V658.873h5.795l13.205,32.717V658.873h6.966v54.072H879.58l-13.214-32.722Z" fill="#d8383c"/>
      <path id="Path_91" data-name="Path 91" d="M905.915,677.725,902.838,691H909Zm-8.143,35.29H890.65l12.485-54.073h5.486l12.616,54.073h-7.183L910.6,697.884h-9.384Z" fill="#d8383c"/>
      <path id="Path_92" data-name="Path 92" d="M926.48,712.945V658.873h6.889v47.17h16.658v6.9Z" fill="#d8383c"/>
      <path id="Path_93" data-name="Path 93" d="M988.17,658.936,972.7,686.828v26.188h-6.9V686.828l-15.406-27.892h7.922l10.934,19.816,10.995-19.816Z" fill="#d8383c"/>
      <path id="Path_94" data-name="Path 94" d="M1020.3,665.839h-11.82v47.106h-6.966V665.839h-11.8v-6.966H1020.3Z" fill="#d8383c"/>
      <rect id="Rectangle_1" data-name="Rectangle 1" width="6.907" height="54.08" transform="translate(1025.722 658.934)" fill="#d8383c"/>
      <path id="Path_95" data-name="Path 95" d="M1051.178,713.015a14.027,14.027,0,0,1-3.523-.4,13.836,13.836,0,0,1-2.752-1.021,10,10,0,0,1-2.053-1.4,14.043,14.043,0,0,1-1.43-1.516,17.721,17.721,0,0,1-3.08-11.149V674.353a17.7,17.7,0,0,1,3.08-11.149,12.98,12.98,0,0,1,3.483-2.87,12.227,12.227,0,0,1,6.276-1.4,11.948,11.948,0,0,1,6.235,1.4,12.907,12.907,0,0,1,3.45,2.87,17.651,17.651,0,0,1,3.152,11.149V677.8h-6.967v-3.445a15.162,15.162,0,0,0-.632-4.928,5.547,5.547,0,0,0-1.539-2.524,3.9,3.9,0,0,0-1.931-.924,13.589,13.589,0,0,0-1.768-.146,13.243,13.243,0,0,0-1.8.146,4.124,4.124,0,0,0-1.936.924,5.434,5.434,0,0,0-1.582,2.524,15.527,15.527,0,0,0-.633,4.928v23.173a11.121,11.121,0,0,0,1.695,6.9,4.291,4.291,0,0,0,1.327,1.11,5.655,5.655,0,0,0,2.93.576,5.581,5.581,0,0,0,2.91-.576,6.522,6.522,0,0,0,1.352-1.11,11.781,11.781,0,0,0,1.607-6.9v-3.443h6.966v3.443a17.636,17.636,0,0,1-3.151,11.149,13.669,13.669,0,0,1-3.45,2.911,11.753,11.753,0,0,1-6.235,1.427" fill="#d8383c"/>
      <path id="Path_96" data-name="Path 96" d="M1079.712,712.945a11.717,11.717,0,0,1-9.753-4.175c-2.115-2.594-3.152-6.324-3.152-11.169v-3.437h6.9V697.6a10.784,10.784,0,0,0,1.687,6.83,3.889,3.889,0,0,0,1.327,1.057,6.238,6.238,0,0,0,3.01.555,5.258,5.258,0,0,0,3.152-.837,5.928,5.928,0,0,0,1.8-2.056,8.127,8.127,0,0,0,.813-2.633,23.928,23.928,0,0,0,.174-2.538,7.823,7.823,0,0,0-.586-3.22,6.6,6.6,0,0,0-1.547-2.241,9.007,9.007,0,0,0-2.118-1.532c-.778-.421-1.569-.8-2.347-1.161l-1.319-.566c-.786-.353-1.775-.829-2.972-1.445a15.069,15.069,0,0,1-3.556-2.594,14.453,14.453,0,0,1-4.409-10.859,20.6,20.6,0,0,1,.916-6.319,13.748,13.748,0,0,1,2.637-4.868,12.144,12.144,0,0,1,4.117-3.164,12,12,0,0,1,5.243-1.136,12.17,12.17,0,0,1,6.273,1.389,13.1,13.1,0,0,1,3.483,2.862,17.778,17.778,0,0,1,3.151,11.235V677.8h-6.966V674.36a15.3,15.3,0,0,0-.627-4.928,5.427,5.427,0,0,0-1.581-2.525,4.147,4.147,0,0,0-1.977-.924,13.421,13.421,0,0,0-1.756-.146,4.923,4.923,0,0,0-3.31,1.032,7.048,7.048,0,0,0-1.792,2.452,10.087,10.087,0,0,0-.768,2.869c-.1.949-.146,1.677-.146,2.168a8.259,8.259,0,0,0,.58,3.256,8.171,8.171,0,0,0,1.554,2.347,9.891,9.891,0,0,0,2.166,1.7,17.321,17.321,0,0,0,2.525,1.2l1.169.519c.694.3,1.629.725,2.82,1.289a13.268,13.268,0,0,1,3.563,2.528,14.009,14.009,0,0,1,4.544,10.781,16.756,16.756,0,0,1-3.081,10.345,11.746,11.746,0,0,1-9.834,4.623" fill="#d8383c"/>
    </g>
    <g id="We_Speak" data-name="We Speak">
      <g id="Group_1" data-name="Group 1">
        <path id="Path_82" data-name="Path 82" d="M880.92,586.242,868,644.642h-6.016l-8.164-37.32-8.243,37.32H839.56l-12.919-58.4h7.7l8.219,37.24,8.258-37.24h6.02l8.159,37.24,8.241-37.24Z" fill="#fff"/>
        <path id="Path_83" data-name="Path 83" d="M891.148,593.689v17.987h16.716v7.447H891.148v18.063h16.716v7.464h-24.17V586.242h24.168v7.447Z" fill="#fff"/>
      </g>
      <g id="Group_2" data-name="Group 2">
        <path id="Path_84" data-name="Path 84" d="M947.6,644.569a12.619,12.619,0,0,1-10.539-4.509c-2.265-2.806-3.412-6.813-3.412-12.045v-3.732h7.447v3.732a11.757,11.757,0,0,0,1.824,7.37,4.584,4.584,0,0,0,1.435,1.142,6.808,6.808,0,0,0,3.251.589,5.672,5.672,0,0,0,3.407-.909,5.925,5.925,0,0,0,1.932-2.2,8.372,8.372,0,0,0,.871-2.871,20.007,20.007,0,0,0,.2-2.734,8.656,8.656,0,0,0-.627-3.483,7.286,7.286,0,0,0-1.659-2.413,10,10,0,0,0-2.294-1.659c-.854-.451-1.693-.851-2.536-1.232l-1.428-.632c-.847-.368-1.914-.879-3.2-1.546a16.022,16.022,0,0,1-8.6-14.55,21.8,21.8,0,0,1,.995-6.8,15.236,15.236,0,0,1,2.84-5.265,13.083,13.083,0,0,1,4.448-3.4,12.614,12.614,0,0,1,5.669-1.237,13.083,13.083,0,0,1,6.771,1.492,14.487,14.487,0,0,1,3.773,3.1,19.313,19.313,0,0,1,3.4,12.117v3.739h-7.542v-3.739a16.626,16.626,0,0,0-.663-5.308,5.754,5.754,0,0,0-1.707-2.722,4.181,4.181,0,0,0-2.131-.995,13.869,13.869,0,0,0-1.9-.166,5.24,5.24,0,0,0-3.571,1.117,7.175,7.175,0,0,0-1.941,2.653,10.079,10.079,0,0,0-.837,3.084c-.1,1.035-.155,1.824-.155,2.334a8.291,8.291,0,0,0,2.3,6.084,10.994,10.994,0,0,0,2.344,1.811,18.516,18.516,0,0,0,2.733,1.3l1.261.557c.736.332,1.755.788,3.045,1.391a14.6,14.6,0,0,1,3.845,2.727,15.131,15.131,0,0,1,4.926,11.657,18.053,18.053,0,0,1-3.336,11.18,12.708,12.708,0,0,1-10.615,4.985" fill="#fff"/>
        <path id="Path_85" data-name="Path 85" d="M972.546,611.6h4.677a8.56,8.56,0,0,0,4.207-.7,6.956,6.956,0,0,0,1.425-1.108c1.151-1.231,1.743-3.629,1.743-7.222a18.6,18.6,0,0,0-.468-4.6,6.452,6.452,0,0,0-1.39-2.7,4.585,4.585,0,0,0-2.3-1.267,14.768,14.768,0,0,0-3.214-.318h-4.678Zm0,32.968h-7.437v-58.4h12.108q7.464,0,11.335,4.354,3.555,4.2,3.566,12.045,0,8.013-3.566,12.12-3.805,4.449-11.335,4.447h-4.678Z" fill="#fff"/>
        <path id="Path_86" data-name="Path 86" d="M1002.972,593.688v17.995H1019.7v7.453h-16.723V637.2H1019.7v7.454H995.538V586.235H1019.7V593.7Z" fill="#fff"/>
        <path id="Path_87" data-name="Path 87" d="M1041.488,606.524l-3.317,14.362h6.646Zm-8.791,38.124H1025l13.485-58.418h5.943l13.617,58.418h-7.759l-3.715-16.328h-10.155Z" fill="#fff"/>
        <path id="Path_88" data-name="Path 88" d="M1083.578,644.569l-13.319-23.931-3.092,4.833v19.1H1059.7V623.421h-.075l.075-.176V586.166h7.464v25.513l16.565-25.513h8.945L1074.93,613.5l17.195,31.069Z" fill="#fff"/>
      </g>
    </g>
    <g id="Since1986">
      <path id="Path_42" data-name="Path 42" d="M928.22,749.8a2.623,2.623,0,0,1-.987,2.156,4.3,4.3,0,0,1-2.75.79,6.47,6.47,0,0,1-2.871-.611v-1.99a11.9,11.9,0,0,0,1.737.643,5.134,5.134,0,0,0,1.3.188,1.848,1.848,0,0,0,1.084-.271.923.923,0,0,0,.378-.8.88.88,0,0,0-.165-.531,1.893,1.893,0,0,0-.488-.448,13.015,13.015,0,0,0-1.315-.685,6.272,6.272,0,0,1-1.394-.839,3.18,3.18,0,0,1-.743-.935,2.69,2.69,0,0,1-.277-1.249,2.62,2.62,0,0,1,.913-2.115,3.791,3.791,0,0,1,2.521-.77,5.94,5.94,0,0,1,1.507.188,10.228,10.228,0,0,1,1.5.527l-.693,1.67a10.106,10.106,0,0,0-1.34-.464,4.335,4.335,0,0,0-1.045-.131,1.378,1.378,0,0,0-.936.284.937.937,0,0,0-.332.743.917.917,0,0,0,.133.5,1.458,1.458,0,0,0,.42.408,13.146,13.146,0,0,0,1.363.712,5.421,5.421,0,0,1,1.949,1.361A2.652,2.652,0,0,1,928.22,749.8Z" fill="#afafb7"/>
      <path id="Path_43" data-name="Path 43" d="M930.058,752.612v-10.14h2.156v10.136Z" fill="#afafb7"/>
      <path id="Path_44" data-name="Path 44" d="M943.753,752.612h-2.731l-4.411-7.668h-.063q.134,2.031.133,2.9v4.771H934.76v-10.14h2.712l4.4,7.592h.048q-.1-1.976-.1-2.793v-4.8h1.934Z" fill="#afafb7"/>
      <path id="Path_45" data-name="Path 45" d="M950.61,744.119a2.193,2.193,0,0,0-1.879.912,4.248,4.248,0,0,0-.663,2.541q0,3.391,2.544,3.391a8.047,8.047,0,0,0,2.586-.534v1.8a7.168,7.168,0,0,1-2.787.52,4.251,4.251,0,0,1-3.383-1.341,5.678,5.678,0,0,1-1.171-3.852,6.3,6.3,0,0,1,.575-2.77,4.148,4.148,0,0,1,1.659-1.824,4.882,4.882,0,0,1,2.528-.635,6.809,6.809,0,0,1,2.967.714l-.693,1.747a11.854,11.854,0,0,0-1.145-.471A3.421,3.421,0,0,0,950.61,744.119Z" fill="#afafb7"/>
      <path id="Path_46" data-name="Path 46" d="M961.189,752.612h-5.838v-10.14h5.838v1.762H957.5v2.226h3.432v1.761H957.5v2.614h3.687Z" fill="#afafb7"/>
      <path id="Path_47" data-name="Path 47" d="M971.582,752.612h-2.143v-5.865l.022-.964.035-1.053q-.534.534-.743.7l-1.161.935-1.034-1.289,3.266-2.6h1.762Z" fill="#afafb7"/>
      <path id="Path_48" data-name="Path 48" d="M981.436,746.8a6.752,6.752,0,0,1-1.262,4.478,4.752,4.752,0,0,1-3.815,1.477,7.172,7.172,0,0,1-1.365-.1v-1.719a5.026,5.026,0,0,0,1.221.145,4.265,4.265,0,0,0,1.768-.316,2.221,2.221,0,0,0,1.062-.995,4.379,4.379,0,0,0,.423-1.862h-.083a2.369,2.369,0,0,1-.929.915,2.931,2.931,0,0,1-1.317.264,2.662,2.662,0,0,1-2.088-.849,3.417,3.417,0,0,1-.762-2.362,3.526,3.526,0,0,1,.926-2.576,3.364,3.364,0,0,1,2.521-.947,3.638,3.638,0,0,1,1.966.525,3.389,3.389,0,0,1,1.293,1.53A5.774,5.774,0,0,1,981.436,746.8Zm-3.667-2.725a1.269,1.269,0,0,0-1.04.458,2.033,2.033,0,0,0-.375,1.316,1.832,1.832,0,0,0,.332,1.162,1.237,1.237,0,0,0,1.033.429,1.6,1.6,0,0,0,1.116-.426,1.3,1.3,0,0,0,.465-.98,2.235,2.235,0,0,0-.433-1.394,1.329,1.329,0,0,0-1.1-.567Z" fill="#afafb7"/>
      <path id="Path_49" data-name="Path 49" d="M985.989,742.344a3.852,3.852,0,0,1,2.349.664,2.11,2.11,0,0,1,.891,1.785,2.339,2.339,0,0,1-.43,1.383,3.669,3.669,0,0,1-1.386,1.085,4.915,4.915,0,0,1,1.632,1.272,2.374,2.374,0,0,1,.5,1.453,2.415,2.415,0,0,1-.977,2.007,4.078,4.078,0,0,1-2.572.759,4.291,4.291,0,0,1-2.614-.706,2.353,2.353,0,0,1-.949-2,2.655,2.655,0,0,1,.461-1.539,1.2,1.2,0,1,0,.564-2.324,1.166,1.166,0,0,0-.333-.033,2.56,2.56,0,0,1-.382-1.365,2.1,2.1,0,0,1,.9-1.762A3.845,3.845,0,0,1,985.989,742.344Zm-1.58,7.572a1.123,1.123,0,0,0,.416.929,2.178,2.178,0,0,0,2.322-.01,1.141,1.141,0,0,0,.4-.9,1.239,1.239,0,0,0-.392-.871,5,5,0,0,0-1.272-.862q-1.47.676-1.468,1.718Zm1.567-6a1.324,1.324,0,0,0-.884.28.928.928,0,0,0-.332.753,1.163,1.163,0,0,0,.267.745,2.946,2.946,0,0,0,.967.675,2.7,2.7,0,0,0,.951-.652,1.184,1.184,0,0,0,.27-.769.92.92,0,0,0-.346-.757A1.378,1.378,0,0,0,985.976,743.912Z" fill="#afafb7"/>
      <path id="Path_50" data-name="Path 50" d="M990.532,748.306a6.706,6.706,0,0,1,1.273-4.479,4.769,4.769,0,0,1,3.815-1.469,6.869,6.869,0,0,1,1.358.1v1.713a5.578,5.578,0,0,0-1.221-.139,4.212,4.212,0,0,0-1.8.331,2.25,2.25,0,0,0-1.043.986,4.515,4.515,0,0,0-.41,1.851h.09a2.355,2.355,0,0,1,2.2-1.18,2.721,2.721,0,0,1,2.129.853,3.386,3.386,0,0,1,.77,2.357,3.534,3.534,0,0,1-.916,2.569,3.359,3.359,0,0,1-2.537.947,3.628,3.628,0,0,1-1.959-.521,3.387,3.387,0,0,1-1.291-1.517A5.8,5.8,0,0,1,990.532,748.306Zm3.661,2.731a1.263,1.263,0,0,0,1.053-.461,2.054,2.054,0,0,0,.369-1.313,1.807,1.807,0,0,0-.344-1.161,1.251,1.251,0,0,0-1.036-.427,1.591,1.591,0,0,0-1.113.423,1.3,1.3,0,0,0-.462.986,2.24,2.24,0,0,0,.432,1.393A1.325,1.325,0,0,0,994.193,751.037Z" fill="#afafb7"/>
    </g>
    <g id="Red_line" data-name="Red line">
      <path id="Path_1348" data-name="Path 1348" d="M818.87,835.058l-77.485-173.38a3.317,3.317,0,1,1,6.057-2.707l75.34,168.578L956.076,801.9a3.317,3.317,0,1,1,1.254,6.515Z" fill="#d8383c"/>
    </g>
    <g id="Dotted_line" data-name="Dotted line">
      <path id="Path_1349" data-name="Path 1349" d="M1141.087,546.185l-9.465-3.076,1.025-3.155,9.465,3.076ZM1119,539.007l-9.465-3.076,1.025-3.156,9.465,3.076Zm-22.084-7.178-9.464-3.077,1.025-3.155,9.464,3.076Zm-22.084-7.179-9.464-3.076,1.025-3.155,9.464,3.076Zm-22.083-7.178-9.465-3.076,1.025-3.155,9.465,3.076Zm-22.084-7.178-9.465-3.076,1.025-3.156,9.465,3.077Zm-22.084-7.178-9.465-3.077,1.025-3.155,9.465,3.076ZM986.5,495.937l-9.464-3.076,1.025-3.155,9.464,3.076Zm-22.084-7.178-9.464-3.076,1.025-3.155,9.464,3.076Zm-22.083-7.178-9.465-3.076,1.025-3.155,9.465,3.076Z" fill="#222b3e"/>
    </g>
  </g>
</svg>
