<svg xmlns="http://www.w3.org/2000/svg" width="100%" height="100%" viewBox="0 0 1095.931 493.444"><defs><style>.a{fill:#fff;stroke-width:1.865px;}.a,.b{stroke:#a6a8ab;stroke-miterlimit:10;}.b{fill:none;stroke-width:1.417px;}.c{fill:#7899c3;}.d{fill:#404040;font-size:12.895px;font-family:Roboto-Regular, Roboto;}.e{fill:#606060;font-size:14.314px;font-family:IBMPlexSans, IBM Plex Sans;}</style></defs><g transform="translate(-412.034 -3822.279)"><rect class="a" width="1094.066" height="491.579" transform="translate(412.967 3823.211)"/><line class="b" x2="1014.384" transform="translate(453.434 4051.65)"/><line class="b" x2="1014.384" transform="translate(453.434 4091.767)"/><line class="b" x2="1014.384" transform="translate(453.434 4131.884)"/><line class="b" x2="1014.384" transform="translate(453.434 4172)"/><path class="c" d="M1449.908,4059.53h8.6v-47.28h-8.6Zm-28.655,25.79h8.6v-73.07h-8.6Zm-27.222,11.462h8.6V4012.25h-8.6Zm-28.655,2.865h8.6v-87.4h-8.6Zm-28.655,11.462h8.6V4012.25h-8.6Zm-27.222,2.866h8.6V4012.25h-8.6Zm-28.655,2.865h8.6V4012.25h-8.6Zm-28.655,5.731h8.6V4012.25h-8.6Zm-28.655,0h10.03V4012.25h-10.03Zm-27.222,4.3h8.6V4012.25h-8.6Zm-28.655,0h8.6V4012.25h-8.6ZM1139,4134.033h10.03V4012.25H1139Zm-27.222,1.433h8.6V4012.25h-8.6Zm-28.655,1.432h8.6V4012.25h-8.6Zm-28.655,0h10.03V4012.25h-10.03Zm-27.222,5.731h8.6V4012.25h-8.6Zm-28.655,4.3h8.6V4012.25h-8.6Zm-28.655,0h10.03V4012.25h-10.03Zm-27.222,1.432h8.6V4012.25h-8.6Zm-28.655,0h8.6V4012.25h-8.6Zm-28.654,2.866h10.029V4012.25H885.407Zm-27.223,1.433h8.6V4012.25h-8.6Zm-28.655,2.865h8.6V4012.25h-8.6Zm-28.654,2.866H810.9V4012.25H800.875Zm-27.223,2.865h8.6v-149h-8.6ZM745,4162.688h8.6V4012.25H745Zm-28.654,0h10.029V4012.25H716.343Zm-27.223,1.433h8.6V4012.25h-8.6Zm-28.655,2.865h8.6V4012.25h-8.6Zm-28.654,4.3H641.84V4012.25H631.811Zm-27.223,5.731h8.6V4012.25h-8.6Zm-28.655,1.433h8.6v-166.2h-8.6Zm-28.654,0h10.029v-166.2H547.279Zm-27.223,2.866h8.6V4012.25h-8.6ZM491.4,4215.7H500V4012.25h-8.6Zm-28.654,4.3h8.6V4012.25h-8.6Z"/><line class="b" x2="1014.384" transform="translate(453.434 4011.533)"/><text class="d" transform="translate(457.976 4238.624)"><tspan x="0" y="0">-</tspan></text><text class="e" transform="translate(460.841 4238.624)"><tspan x="0" y="0">52</tspan></text><text class="d" transform="translate(486.162 4235.758)"><tspan x="0" y="0">-</tspan></text><text class="e" transform="translate(489.027 4235.758)"><tspan x="0" y="0">51</tspan></text><text class="d" transform="translate(514.349 4199.94)"><tspan x="0" y="0">-</tspan></text><text class="e" transform="translate(517.214 4199.94)"><tspan x="0" y="0">42</tspan></text><text class="d" transform="translate(542.535 4198.507)"><tspan x="0" y="0">-</tspan></text><text class="e" transform="translate(545.4 4198.507)"><tspan x="0" y="0">42</tspan></text><text class="d" transform="translate(570.722 4197.074)"><tspan x="0" y="0">-</tspan></text><text class="e" transform="translate(573.587 4197.074)"><tspan x="0" y="0">42</tspan></text><text class="d" transform="translate(598.908 4197.074)"><tspan x="0" y="0">-</tspan></text><text class="e" transform="translate(601.773 4197.074)"><tspan x="0" y="0">42</tspan></text><text class="d" transform="translate(627.094 4191.343)"><tspan x="0" y="0">-</tspan></text><text class="e" transform="translate(629.96 4191.343)"><tspan x="0" y="0">40</tspan></text><text class="d" transform="translate(655.281 4185.612)"><tspan x="0" y="0">-</tspan></text><text class="e" transform="translate(658.146 4185.612)"><tspan x="0" y="0">39</tspan></text><text class="d" transform="translate(683.467 4184.18)"><tspan x="0" y="0">-</tspan></text><text class="e" transform="translate(686.333 4184.18)"><tspan x="0" y="0">38</tspan></text><text class="d" transform="translate(711.654 4181.314)"><tspan x="0" y="0">-</tspan></text><text class="e" transform="translate(714.519 4181.314)"><tspan x="0" y="0">38</tspan></text><text class="d" transform="translate(739.84 4181.314)"><tspan x="0" y="0">-</tspan></text><text class="e" transform="translate(742.706 4181.314)"><tspan x="0" y="0">38</tspan></text><text class="d" transform="translate(768.027 4179.881)"><tspan x="0" y="0">-</tspan></text><text class="e" transform="translate(770.892 4179.881)"><tspan x="0" y="0">37</tspan></text><text class="d" transform="translate(796.213 4178.449)"><tspan x="0" y="0">-</tspan></text><text class="e" transform="translate(799.079 4178.449)"><tspan x="0" y="0">37</tspan></text><text class="d" transform="translate(824.399 4175.583)"><tspan x="0" y="0">-</tspan></text><text class="e" transform="translate(827.265 4175.583)"><tspan x="0" y="0">36</tspan></text><text class="d" transform="translate(852.585 4172.718)"><tspan x="0" y="0">-</tspan></text><text class="e" transform="translate(855.451 4172.718)"><tspan x="0" y="0">35</tspan></text><text class="d" transform="translate(880.772 4169.852)"><tspan x="0" y="0">-</tspan></text><text class="e" transform="translate(883.638 4169.852)"><tspan x="0" y="0">35</tspan></text><text class="d" transform="translate(908.958 4168.419)"><tspan x="0" y="0">-</tspan></text><text class="e" transform="translate(911.824 4168.419)"><tspan x="0" y="0">34</tspan></text><text class="d" transform="translate(937.145 4166.987)"><tspan x="0" y="0">-</tspan></text><text class="e" transform="translate(940.011 4166.987)"><tspan x="0" y="0">34</tspan></text><text class="d" transform="translate(965.332 4165.554)"><tspan x="0" y="0">-</tspan></text><text class="e" transform="translate(968.197 4165.554)"><tspan x="0" y="0">34</tspan></text><text class="d" transform="translate(993.518 4165.554)"><tspan x="0" y="0">-</tspan></text><text class="e" transform="translate(996.383 4165.554)"><tspan x="0" y="0">34</tspan></text><text class="d" transform="translate(1021.705 4161.256)"><tspan x="0" y="0">-</tspan></text><text class="e" transform="translate(1024.57 4161.256)"><tspan x="0" y="0">33</tspan></text><text class="d" transform="translate(1049.891 4155.524)"><tspan x="0" y="0">-</tspan></text><text class="e" transform="translate(1052.756 4155.524)"><tspan x="0" y="0">31</tspan></text><text class="d" transform="translate(1078.078 4155.524)"><tspan x="0" y="0">-</tspan></text><text class="e" transform="translate(1080.943 4155.524)"><tspan x="0" y="0">31</tspan></text><text class="d" transform="translate(1106.264 4155.524)"><tspan x="0" y="0">-</tspan></text><text class="e" transform="translate(1109.129 4155.524)"><tspan x="0" y="0">31</tspan></text><text class="d" transform="translate(1134.451 4154.092)"><tspan x="0" y="0">-</tspan></text><text class="e" transform="translate(1137.316 4154.092)"><tspan x="0" y="0">31</tspan></text><text class="d" transform="translate(1162.637 4146.928)"><tspan x="0" y="0">-</tspan></text><text class="e" transform="translate(1165.502 4146.928)"><tspan x="0" y="0">29</tspan></text><text class="d" transform="translate(1190.823 4145.496)"><tspan x="0" y="0">-</tspan></text><text class="e" transform="translate(1193.689 4145.496)"><tspan x="0" y="0">29</tspan></text><text class="d" transform="translate(1219.01 4141.197)"><tspan x="0" y="0">-</tspan></text><text class="e" transform="translate(1221.875 4141.197)"><tspan x="0" y="0">28</tspan></text><text class="d" transform="translate(1247.196 4141.197)"><tspan x="0" y="0">-</tspan></text><text class="e" transform="translate(1250.062 4141.197)"><tspan x="0" y="0">28</tspan></text><text class="d" transform="translate(1275.382 4136.899)"><tspan x="0" y="0">-</tspan></text><text class="e" transform="translate(1278.248 4136.899)"><tspan x="0" y="0">26</tspan></text><text class="d" transform="translate(1303.569 4132.601)"><tspan x="0" y="0">-</tspan></text><text class="e" transform="translate(1306.435 4132.601)"><tspan x="0" y="0">26</tspan></text><text class="d" transform="translate(1331.755 4129.735)"><tspan x="0" y="0">-</tspan></text><text class="e" transform="translate(1334.621 4129.735)"><tspan x="0" y="0">25</tspan></text><text class="d" transform="translate(1359.942 4118.273)"><tspan x="0" y="0">-</tspan></text><text class="e" transform="translate(1362.807 4118.273)"><tspan x="0" y="0">22</tspan></text><text class="d" transform="translate(1388.128 4116.84)"><tspan x="0" y="0">-</tspan></text><text class="e" transform="translate(1390.994 4116.84)"><tspan x="0" y="0">21</tspan></text><text class="d" transform="translate(1416.315 4105.378)"><tspan x="0" y="0">-</tspan></text><text class="e" transform="translate(1419.18 4105.378)"><tspan x="0" y="0">19</tspan></text><text class="d" transform="translate(1444.501 4078.156)"><tspan x="0" y="0">-</tspan></text><text class="e" transform="translate(1447.367 4078.156)"><tspan x="0" y="0">12</tspan></text><text class="e" transform="translate(422.487 4254.384)"><tspan x="0" y="0">-60</tspan></text><text class="e" transform="translate(422.487 4214.267)"><tspan x="0" y="0">-50</tspan></text><text class="e" transform="translate(422.487 4174.15)"><tspan x="0" y="0">-40</tspan></text><text class="e" transform="translate(422.487 4135.466)"><tspan x="0" y="0">-30</tspan></text><text class="e" transform="translate(422.487 4095.349)"><tspan x="0" y="0">-20</tspan></text><text class="e" transform="translate(422.487 4055.232)"><tspan x="0" y="0">-10</tspan></text><text class="e" transform="translate(433.29 4015.115)"><tspan x="0" y="0">0</tspan></text><text class="e" transform="translate(472.024 4002.22) rotate(-90)"><tspan x="0" y="0">Ireland</tspan></text><text class="e" transform="translate(500.21 4002.22) rotate(-90)"><tspan x="0" y="0">United Kingdom</tspan></text><text class="e" transform="translate(528.397 4002.22) rotate(-90)"><tspan x="0" y="0">Greece</tspan></text><text class="e" transform="translate(556.583 4002.22) rotate(-90)"><tspan x="0" y="0">Portugal</tspan></text><text class="e" transform="translate(584.77 4002.22) rotate(-90)"><tspan x="0" y="0">Austria</tspan></text><text class="e" transform="translate(612.956 4002.22) rotate(-90)"><tspan x="0" y="0">Luxembourg</tspan></text><text class="e" transform="translate(641.143 4002.22) rotate(-90)"><tspan x="0" y="0">Belgium</tspan></text><text class="e" transform="translate(669.329 4002.22) rotate(-90)"><tspan x="0" y="0">France</tspan></text><text class="e" transform="translate(697.516 4002.22) rotate(-90)"><tspan x="0" y="0">Slovenia</tspan></text><text class="e" transform="translate(725.702 4002.22) rotate(-90)"><tspan x="0" y="0">Latvia</tspan></text><text class="e" transform="translate(753.888 4002.22) rotate(-90)"><tspan x="0" y="0">Italy</tspan></text><text class="e" transform="translate(782.075 4002.22) rotate(-90)"><tspan x="0" y="0">Slovakia</tspan></text><text class="e" transform="translate(810.261 4002.22) rotate(-90)"><tspan x="0" y="0">Netherlands</tspan></text><text class="e" transform="translate(838.448 4002.22) rotate(-90)"><tspan x="0" y="0">Lithuania</tspan></text><text class="e" transform="translate(866.634 4002.22) rotate(-90)"><tspan x="0" y="0">Denmark</tspan></text><text class="e" transform="translate(894.821 4002.22) rotate(-90)"><tspan x="0" y="0">Germany</tspan></text><text class="e" transform="translate(923.007 4002.22) rotate(-90)"><tspan x="0" y="0">Czechia</tspan></text><text class="e" transform="translate(951.194 4002.22) rotate(-90)"><tspan x="0" y="0">Sweden</tspan></text><text class="e" transform="translate(979.38 4002.22) rotate(-90)"><tspan x="0" y="0">Norway</tspan></text><text class="e" transform="translate(1007.566 4002.22) rotate(-90)"><tspan x="0" y="0">Switzerland</tspan></text><text class="e" transform="translate(1035.753 4002.22) rotate(-90)"><tspan x="0" y="0">Hungary</tspan></text><text class="e" transform="translate(1063.939 4002.22) rotate(-90)"><tspan x="0" y="0">Malta</tspan></text><text class="e" transform="translate(1092.126 4002.22) rotate(-90)"><tspan x="0" y="0">Bulgaria</tspan></text><text class="e" transform="translate(1120.313 4002.22) rotate(-90)"><tspan x="0" y="0">Spain</tspan></text><text class="e" transform="translate(1148.499 4002.22) rotate(-90)"><tspan x="0" y="0">Estonia</tspan></text><text class="e" transform="translate(1176.685 4002.22) rotate(-90)"><tspan x="0" y="0">Finland</tspan></text><text class="e" transform="translate(1204.872 4002.22) rotate(-90)"><tspan x="0" y="0">Poland</tspan></text><text class="e" transform="translate(1233.058 4002.22) rotate(-90)"><tspan x="0" y="0">Romania</tspan></text><text class="e" transform="translate(1261.245 4002.22) rotate(-90)"><tspan x="0" y="0">Croatia</tspan></text><text class="e" transform="translate(1289.431 4002.22) rotate(-90)"><tspan x="0" y="0">North Macedonia</tspan></text><text class="e" transform="translate(1317.618 4002.22) rotate(-90)"><tspan x="0" y="0">Ukraine</tspan></text><text class="e" transform="translate(1345.804 4002.22) rotate(-90)"><tspan x="0" y="0">Serbia</tspan></text><text class="e" transform="translate(1373.99 4002.22) rotate(-90)"><tspan x="0" y="0">Moldova</tspan></text><text class="e" transform="translate(1402.177 4002.22) rotate(-90)"><tspan x="0" y="0">Russia</tspan></text><text class="e" transform="translate(1430.363 4002.22) rotate(-90)"><tspan x="0" y="0">Belarus</tspan></text><text class="e" transform="translate(1458.55 4002.22) rotate(-90)"><tspan x="0" y="0">Bosnia and Herzegovina</tspan></text></g></svg>