<svg xmlns="http://www.w3.org/2000/svg" width="100%" height="100%" viewBox="0 0 928.578 578.917">
  <g id="Group_714" data-name="Group 714" transform="translate(-495.711 -2782.236)">
    <g id="Group_531" data-name="Group 531">
      <g id="Group_463" data-name="Group 463">
        <rect id="Rectangle_596" data-name="Rectangle 596" width="927.161" height="577.5" transform="translate(496.42 2782.945)" fill="#f6f6f6" stroke="#a7a9ac" stroke-miterlimit="10" stroke-width="1.417"/>
      </g>
      <g id="Group_530" data-name="Group 530">
        <text id="_0" data-name="0" transform="translate(528.564 2826.846)" fill="#606060" font-size="15.75" font-family="IBMPlexSans-Light, IBM Plex Sans" font-weight="300"><tspan x="-4.725" y="0">0</tspan></text>
        <text id="_-10" data-name="-10" transform="translate(520.798 2882.638)" fill="#606060" font-size="15.75" font-family="IBMPlexSans-Light, IBM Plex Sans" font-weight="300"><tspan x="-12.576" y="0">-10</tspan></text>
        <text id="_-20" data-name="-20" transform="translate(520.798 2939.366)" fill="#606060" font-size="15.75" font-family="IBMPlexSans-Light, IBM Plex Sans" font-weight="300"><tspan x="-12.576" y="0">-20</tspan></text>
        <text id="_-30" data-name="-30" transform="translate(520.798 2995.96)" fill="#606060" font-size="15.75" font-family="IBMPlexSans-Light, IBM Plex Sans" font-weight="300"><tspan x="-12.576" y="0">-30</tspan></text>
        <text id="_-40" data-name="-40" transform="translate(520.798 3052.688)" fill="#606060" font-size="15.75" font-family="IBMPlexSans-Light, IBM Plex Sans" font-weight="300"><tspan x="-12.576" y="0">-40</tspan></text>
        <text id="_-60" data-name="-60" transform="translate(520.798 3165.452)" fill="#606060" font-size="15.75" font-family="IBMPlexSans-Light, IBM Plex Sans" font-weight="300"><tspan x="-12.576" y="0">-60</tspan></text>
        <text id="_-50" data-name="-50" transform="translate(520.798 3109.984)" fill="#606060" font-size="15.75" font-family="IBMPlexSans-Light, IBM Plex Sans" font-weight="300"><tspan x="-12.576" y="0">-50</tspan></text>
        <text id="Italy" transform="translate(690.323 3185.642) rotate(-90)" fill="#606060" font-size="15.75" font-family="IBMPlexSans-Light, IBM Plex Sans" font-weight="300"><tspan x="-15.647" y="0">Italy</tspan></text>
        <text id="Spain" transform="translate(1074.94 3189.381) rotate(-90)" fill="#606060" font-size="15.75" font-family="IBMPlexSans-Light, IBM Plex Sans" font-weight="300"><tspan x="-19.49" y="0">Spain</tspan></text>
        <text id="Germany" transform="translate(1228.787 3201.487) rotate(-90)" fill="#606060" font-size="15.75" font-family="IBMPlexSans-Light, IBM Plex Sans" font-weight="300"><tspan x="-31.657" y="0">Germany</tspan></text>
        <text id="Austria" transform="translate(639.04 3194.459) rotate(-90)" fill="#606060" font-size="15.75" font-family="IBMPlexSans-Light, IBM Plex Sans" font-weight="300"><tspan x="-24.593" y="0">Austria</tspan></text>
        <text id="Romania" transform="translate(869.811 3200.652) rotate(-90)" fill="#606060" font-size="15.75" font-family="IBMPlexSans-Light, IBM Plex Sans" font-weight="300"><tspan x="-30.767" y="0">Romania</tspan></text>
        <text id="Belgium" transform="translate(664.681 3198.581) rotate(-90)" fill="#606060" font-size="15.75" font-family="IBMPlexSans-Light, IBM Plex Sans" font-weight="300"><tspan x="-28.79" y="0">Belgium</tspan></text>
        <text id="Lithuania" transform="translate(844.169 3201.689) rotate(-90)" fill="#606060" font-size="15.75" font-family="IBMPlexSans-Light, IBM Plex Sans" font-weight="300"><tspan x="-31.932" y="0">Lithuania</tspan></text>
        <text id="Portugal" transform="translate(972.375 3199.125) rotate(-90)" fill="#606060" font-size="15.75" font-family="IBMPlexSans-Light, IBM Plex Sans" font-weight="300"><tspan x="-29.294" y="0">Portugal</tspan></text>
        <text id="Sweden" transform="translate(1049.299 3197.7) rotate(-90)" fill="#606060" font-size="15.75" font-family="IBMPlexSans-Light, IBM Plex Sans" font-weight="300"><tspan x="-27.877" y="0">Sweden</tspan></text>
        <text id="Greece" transform="translate(562.117 3194.764) rotate(-90)" fill="#606060" font-size="15.75" font-family="IBMPlexSans-Light, IBM Plex Sans" font-weight="300"><tspan x="-24.845" y="0">Greece</tspan></text>
        <text id="Finland" transform="translate(1280.07 3195.683) rotate(-90)" fill="#606060" font-size="15.75" font-family="IBMPlexSans-Light, IBM Plex Sans" font-weight="300"><tspan x="-25.861" y="0">Finland</tspan></text>
        <text id="Slovenia" transform="translate(587.758 3199.189) rotate(-90)" fill="#606060" font-size="15.75" font-family="IBMPlexSans-Light, IBM Plex Sans" font-weight="300"><tspan x="-29.294" y="0">Slovenia</tspan></text>
        <text id="Netherlands" transform="translate(1126.223 3212.532) rotate(-90)" fill="#606060" font-size="15.75" font-family="IBMPlexSans-Light, IBM Plex Sans" font-weight="300"><tspan x="-42.894" y="0">Netherlands</tspan></text>
        <text id="Ireland" transform="translate(741.605 3195.169) rotate(-90)" fill="#606060" font-size="15.75" font-family="IBMPlexSans-Light, IBM Plex Sans" font-weight="300"><tspan x="-25.318" y="0">Ireland</tspan></text>
        <text id="United_Kingdom" data-name="United Kingdom" transform="translate(613.399 3225.463) rotate(-90)" fill="#606060" font-size="15.75" font-family="IBMPlexSans-Light, IBM Plex Sans" font-weight="300"><tspan x="-55.888" y="0">United Kingdom</tspan></text>
        <text id="Poland" transform="translate(792.887 3194.086) rotate(-90)" fill="#606060" font-size="15.75" font-family="IBMPlexSans-Light, IBM Plex Sans" font-weight="300"><tspan x="-24.152" y="0">Poland</tspan></text>
        <text id="Slovakia" transform="translate(946.734 3198.674) rotate(-90)" fill="#606060" font-size="15.75" font-family="IBMPlexSans-Light, IBM Plex Sans" font-weight="300"><tspan x="-28.759" y="0">Slovakia</tspan></text>
        <text id="Latvia" transform="translate(895.452 3190.348) rotate(-90)" fill="#606060" font-size="15.75" font-family="IBMPlexSans-Light, IBM Plex Sans" font-weight="300"><tspan x="-20.506" y="0">Latvia</tspan></text>
        <text id="Switzerland" transform="translate(1177.505 3210.39) rotate(-90)" fill="#606060" font-size="15.75" font-family="IBMPlexSans-Light, IBM Plex Sans" font-weight="300"><tspan x="-40.697" y="0">Switzerland</tspan></text>
        <text id="Czechia" transform="translate(767.246 3196.859) rotate(-90)" fill="#606060" font-size="15.75" font-family="IBMPlexSans-Light, IBM Plex Sans" font-weight="300"><tspan x="-26.987" y="0">Czechia</tspan></text>
        <text id="France" transform="translate(715.964 3193.751) rotate(-90)" fill="#606060" font-size="15.75" font-family="IBMPlexSans-Light, IBM Plex Sans" font-weight="300"><tspan x="-23.703" y="0">France</tspan></text>
        <text id="Bulgaria" transform="translate(998.017 3198.519) rotate(-90)" fill="#606060" font-size="15.75" font-family="IBMPlexSans-Light, IBM Plex Sans" font-weight="300"><tspan x="-28.712" y="0">Bulgaria</tspan></text>
        <text id="Hungary" transform="translate(921.093 3199.071) rotate(-90)" fill="#606060" font-size="15.75" font-family="IBMPlexSans-Light, IBM Plex Sans" font-weight="300"><tspan x="-29.381" y="0">Hungary</tspan></text>
        <text id="Estonia" transform="translate(1305.711 3195.565) rotate(-90)" fill="#606060" font-size="15.75" font-family="IBMPlexSans-Light, IBM Plex Sans" font-weight="300"><tspan x="-25.68" y="0">Estonia</tspan></text>
        <text id="Croatia" transform="translate(1100.581 3194.685) rotate(-90)" fill="#606060" font-size="15.75" font-family="IBMPlexSans-Light, IBM Plex Sans" font-weight="300"><tspan x="-24.845" y="0">Croatia</tspan></text>
        <text id="Luxembourg" transform="translate(818.528 3213.248) rotate(-90)" fill="#606060" font-size="15.75" font-family="IBMPlexSans-Light, IBM Plex Sans" font-weight="300"><tspan x="-43.248" y="0">Luxembourg</tspan></text>
        <text id="Ukraine" transform="translate(1254.428 3196.696) rotate(-90)" fill="#606060" font-size="15.75" font-family="IBMPlexSans-Light, IBM Plex Sans" font-weight="300"><tspan x="-26.869" y="0">Ukraine</tspan></text>
        <text id="Moldova" transform="translate(1382.634 3199.274) rotate(-90)" fill="#606060" font-size="15.75" font-family="IBMPlexSans-Light, IBM Plex Sans" font-weight="300"><tspan x="-29.365" y="0">Moldova</tspan></text>
        <text id="Bosnia_and_Herzegovina" data-name="Bosnia and Herzegovina" transform="translate(1331.352 3252.767) rotate(-90)" fill="#606060" font-size="15.75" font-family="IBMPlexSans-Light, IBM Plex Sans" font-weight="300"><tspan x="-83.449" y="0">Bosnia and Herzegovina</tspan></text>
        <text id="Belarus" transform="translate(1356.993 3196.345) rotate(-90)" fill="#606060" font-size="15.75" font-family="IBMPlexSans-Light, IBM Plex Sans" font-weight="300"><tspan x="-26.53" y="0">Belarus</tspan></text>
        <text id="Serbia" transform="translate(1203.146 3192.007) rotate(-90)" fill="#606060" font-size="15.75" font-family="IBMPlexSans-Light, IBM Plex Sans" font-weight="300"><tspan x="-22.144" y="0">Serbia</tspan></text>
        <text id="North_Macedonia" data-name="North Macedonia" transform="translate(1023.658 3229.062) rotate(-90)" fill="#606060" font-size="15.75" font-family="IBMPlexSans-Light, IBM Plex Sans" font-weight="300"><tspan x="-59.604" y="0">North Macedonia</tspan></text>
        <text id="Norway" transform="translate(1151.864 3196.321) rotate(-90)" fill="#606060" font-size="15.75" font-family="IBMPlexSans-Light, IBM Plex Sans" font-weight="300"><tspan x="-26.467" y="0">Norway</tspan></text>
        <g id="Group_465" data-name="Group 465">
          <g id="Group_464" data-name="Group 464">
            <path id="Path_848" data-name="Path 848" d="M559.036,3135.826l-.707-.707-3.668,3.668-3.668-3.668-.707.707,3.168,3.168h-4.48v1h4.481l-3.169,3.169.707.707,3.668-3.668,3.668,3.668.707-.707-3.169-3.169h4.481v-1h-4.48Z" fill="#789ac4"/>
          </g>
        </g>
        <g id="Group_467" data-name="Group 467">
          <g id="Group_466" data-name="Group 466">
            <path id="Path_849" data-name="Path 849" d="M585.036,3104.2l-.707-.707-3.668,3.668-3.668-3.668-.707.707,3.168,3.168h-4.48v1h4.481l-3.169,3.169.707.707,3.668-3.668,3.668,3.668.707-.707-3.169-3.169h4.481v-1h-4.48Z" fill="#789ac4"/>
          </g>
        </g>
        <g id="Group_469" data-name="Group 469">
          <g id="Group_468" data-name="Group 468">
            <path id="Path_850" data-name="Path 850" d="M610.305,3093.807l-.707-.707-3.668,3.668-3.668-3.668-.707.707,3.168,3.168h-4.48v1h4.481l-3.169,3.169.707.707,3.668-3.668,3.668,3.668.707-.707-3.169-3.169h4.481v-1h-4.48Z" fill="#789ac4"/>
          </g>
        </g>
        <g id="Group_471" data-name="Group 471">
          <g id="Group_470" data-name="Group 470">
            <path id="Path_851" data-name="Path 851" d="M636.305,3089.932l-.707-.707-3.668,3.668-3.668-3.668-.707.707,3.168,3.168h-4.48v1h4.481l-3.169,3.169.707.707,3.668-3.668,3.668,3.668.707-.707-3.169-3.169h4.481v-1h-4.48Z" fill="#789ac4"/>
          </g>
        </g>
        <g id="Group_473" data-name="Group 473">
          <g id="Group_472" data-name="Group 472">
            <path id="Path_852" data-name="Path 852" d="M661.767,3074.144l-.707-.707-3.668,3.668-3.668-3.668-.707.707,3.168,3.168H651.7v1h4.481l-3.169,3.169.707.707,3.668-3.668,3.668,3.668.707-.707-3.169-3.169h4.481v-1H658.6Z" fill="#789ac4"/>
          </g>
        </g>
        <g id="Group_475" data-name="Group 475">
          <g id="Group_474" data-name="Group 474">
            <path id="Path_853" data-name="Path 853" d="M687.571,3070.519l-.707-.707-3.668,3.668-3.668-3.668-.707.707,3.168,3.168h-4.48v1h4.481l-3.169,3.169.707.707,3.668-3.668,3.668,3.668.707-.707-3.169-3.169h4.481v-1H684.4Z" fill="#789ac4"/>
          </g>
        </g>
        <g id="Group_477" data-name="Group 477">
          <g id="Group_476" data-name="Group 476">
            <path id="Path_854" data-name="Path 854" d="M712.946,3070.519l-.707-.707-3.668,3.668-3.668-3.668-.707.707,3.168,3.168h-4.48v1h4.481l-3.169,3.169.707.707,3.668-3.668,3.668,3.668.707-.707-3.169-3.169h4.481v-1h-4.48Z" fill="#789ac4"/>
          </g>
        </g>
        <g id="Group_479" data-name="Group 479">
          <g id="Group_478" data-name="Group 478">
            <path id="Path_855" data-name="Path 855" d="M738.946,3070.519l-.707-.707-3.668,3.668-3.668-3.668-.707.707,3.168,3.168h-4.48v1h4.481l-3.169,3.169.707.707,3.668-3.668,3.668,3.668.707-.707-3.169-3.169h4.481v-1h-4.48Z" fill="#789ac4"/>
          </g>
        </g>
        <g id="Group_481" data-name="Group 481">
          <g id="Group_480" data-name="Group 480">
            <path id="Path_856" data-name="Path 856" d="M764.5,3034.977l-.707-.707-3.668,3.668-3.668-3.668-.707.707,3.168,3.168h-4.48v1h4.481l-3.169,3.169.707.707,3.668-3.668,3.668,3.668.707-.707-3.169-3.169h4.481v-1h-4.48Z" fill="#789ac4"/>
          </g>
        </g>
        <g id="Group_483" data-name="Group 483">
          <g id="Group_482" data-name="Group 482">
            <path id="Path_857" data-name="Path 857" d="M789.436,3017.6l-.707-.707-3.668,3.668-3.668-3.668-.707.707,3.168,3.168h-4.48v1h4.481l-3.169,3.169.707.707,3.668-3.668,3.668,3.668.707-.707-3.169-3.169h4.481v-1h-4.48Z" fill="#789ac4"/>
          </g>
        </g>
        <g id="Group_485" data-name="Group 485">
          <g id="Group_484" data-name="Group 484">
            <path id="Path_858" data-name="Path 858" d="M816.024,3011.477l-.707-.707-3.668,3.668-3.668-3.668-.707.707,3.168,3.168h-4.48v1h4.481l-3.169,3.169.707.707,3.668-3.668,3.668,3.668.707-.707-3.169-3.169h4.481v-1h-4.48Z" fill="#789ac4"/>
          </g>
        </g>
        <g id="Group_487" data-name="Group 487">
          <g id="Group_486" data-name="Group 486">
            <path id="Path_859" data-name="Path 859" d="M841.524,3011.477l-.707-.707-3.668,3.668-3.668-3.668-.707.707,3.168,3.168h-4.48v1h4.481l-3.169,3.169.707.707,3.668-3.668,3.668,3.668.707-.707-3.169-3.169h4.481v-1h-4.48Z" fill="#789ac4"/>
          </g>
        </g>
        <g id="Group_489" data-name="Group 489">
          <g id="Group_488" data-name="Group 488">
            <path id="Path_860" data-name="Path 860" d="M867.274,3008.851l-.707-.707-3.668,3.668-3.668-3.668-.707.707,3.168,3.168h-4.48v1h4.481l-3.169,3.169.707.707,3.668-3.668,3.668,3.668.707-.707-3.169-3.169h4.481v-1h-4.48Z" fill="#789ac4"/>
          </g>
        </g>
        <g id="Group_491" data-name="Group 491">
          <g id="Group_490" data-name="Group 490">
            <path id="Path_861" data-name="Path 861" d="M893.149,3007.1l-.707-.707-3.668,3.668-3.668-3.668-.707.707,3.168,3.168h-4.48v1h4.481l-3.169,3.169.707.707,3.668-3.668,3.668,3.668.707-.707-3.169-3.169h4.481v-1h-4.48Z" fill="#789ac4"/>
          </g>
        </g>
        <g id="Group_493" data-name="Group 493">
          <g id="Group_492" data-name="Group 492">
            <path id="Path_862" data-name="Path 862" d="M918.149,3005.042l-.707-.707L913.774,3008l-3.668-3.668-.707.707,3.168,3.168h-4.48v1h4.481l-3.169,3.169.707.707,3.668-3.668,3.668,3.668.707-.707-3.169-3.169h4.481v-1h-4.48Z" fill="#789ac4"/>
          </g>
        </g>
        <g id="Group_495" data-name="Group 495">
          <g id="Group_494" data-name="Group 494">
            <path id="Path_863" data-name="Path 863" d="M944.139,3002.726l-.707-.707-3.668,3.668-3.668-3.668-.707.707,3.168,3.168h-4.48v1h4.481l-3.169,3.169.707.707,3.668-3.668,3.668,3.668.707-.707-3.169-3.169h4.481v-1h-4.48Z" fill="#789ac4"/>
          </g>
        </g>
        <g id="Group_497" data-name="Group 497">
          <g id="Group_496" data-name="Group 496">
            <path id="Path_864" data-name="Path 864" d="M969.264,3000.1l-.707-.707-3.668,3.668-3.668-3.668-.707.707,3.168,3.168H959.2v1h4.481l-3.169,3.169.707.707,3.668-3.668,3.668,3.668.707-.707-3.169-3.169h4.481v-1H966.1Z" fill="#789ac4"/>
          </g>
        </g>
        <g id="Group_499" data-name="Group 499">
          <g id="Group_498" data-name="Group 498">
            <path id="Path_865" data-name="Path 865" d="M995.378,2993.975l-.707-.707L991,2996.936l-3.668-3.668-.707.707,3.168,3.168h-4.48v1H989.8l-3.169,3.169.707.707L991,2998.35l3.668,3.668.707-.707-3.169-3.169h4.481v-1h-4.48Z" fill="#789ac4"/>
          </g>
        </g>
        <g id="Group_501" data-name="Group 501">
          <g id="Group_500" data-name="Group 500">
            <path id="Path_866" data-name="Path 866" d="M1020.878,2993.352l-.707-.707-3.668,3.668-3.668-3.668-.707.707,3.168,3.168h-4.48v1h4.481l-3.169,3.169.707.707,3.668-3.668,3.668,3.668.707-.707-3.169-3.169h4.481v-1h-4.48Z" fill="#789ac4"/>
          </g>
        </g>
        <g id="Group_503" data-name="Group 503">
          <g id="Group_502" data-name="Group 502">
            <path id="Path_867" data-name="Path 867" d="M1046.878,2987.915l-.707-.707-3.668,3.668-3.668-3.668-.707.707,3.168,3.168h-4.48v1h4.481l-3.169,3.169.707.707,3.668-3.668,3.668,3.668.707-.707-3.169-3.169h4.481v-1h-4.48Z" fill="#789ac4"/>
          </g>
        </g>
        <g id="Group_505" data-name="Group 505">
          <g id="Group_504" data-name="Group 504">
            <path id="Path_868" data-name="Path 868" d="M1072.255,2983.54l-.707-.707-3.668,3.668-3.668-3.668-.707.707,3.168,3.168h-4.48v1h4.481l-3.169,3.169.707.707,3.668-3.668,3.668,3.668.707-.707-3.169-3.169h4.481v-1h-4.48Z" fill="#789ac4"/>
          </g>
        </g>
        <g id="Group_507" data-name="Group 507">
          <g id="Group_506" data-name="Group 506">
            <path id="Path_869" data-name="Path 869" d="M1098.5,2980.918l-.707-.707-3.668,3.668-3.668-3.668-.707.707,3.168,3.168h-4.48v1h4.481l-3.169,3.169.707.707,3.668-3.668,3.668,3.668.707-.707-3.169-3.169h4.481v-1h-4.48Z" fill="#789ac4"/>
          </g>
        </g>
        <g id="Group_509" data-name="Group 509">
          <g id="Group_508" data-name="Group 508">
            <path id="Path_870" data-name="Path 870" d="M1123.2,2979.164l-.707-.707-3.668,3.668-3.668-3.668-.707.707,3.168,3.168h-4.48v1h4.481l-3.169,3.169.707.707,3.668-3.668,3.668,3.668.707-.707-3.169-3.169h4.481v-1h-4.48Z" fill="#789ac4"/>
          </g>
        </g>
        <g id="Group_511" data-name="Group 511">
          <g id="Group_510" data-name="Group 510">
            <path id="Path_871" data-name="Path 871" d="M1148.571,2976.543l-.707-.707-3.668,3.668-3.668-3.668-.707.707,3.168,3.168h-4.48v1h4.481l-3.169,3.169.707.707,3.668-3.668,3.668,3.668.707-.707-3.169-3.169h4.481v-1h-4.48Z" fill="#789ac4"/>
          </g>
        </g>
        <g id="Group_513" data-name="Group 513">
          <g id="Group_512" data-name="Group 512">
            <path id="Path_872" data-name="Path 872" d="M1174.446,2973.735l-.707-.707-3.668,3.668-3.668-3.668-.707.707,3.168,3.168h-4.48v1h4.481l-3.169,3.169.707.707,3.668-3.668,3.668,3.668.707-.707-3.169-3.169h4.481v-1h-4.48Z" fill="#789ac4"/>
          </g>
        </g>
        <g id="Group_515" data-name="Group 515">
          <g id="Group_514" data-name="Group 514">
            <path id="Path_873" data-name="Path 873" d="M1200.708,2971.352l-.707-.707-3.668,3.668-3.668-3.668-.707.707,3.168,3.168h-4.48v1h4.481l-3.169,3.169.707.707,3.668-3.668L1200,2979.4l.707-.707-3.169-3.169h4.481v-1h-4.48Z" fill="#789ac4"/>
          </g>
        </g>
        <g id="Group_517" data-name="Group 517">
          <g id="Group_516" data-name="Group 516">
            <path id="Path_874" data-name="Path 874" d="M1226.31,2955.977l-.707-.707-3.668,3.668-3.668-3.668-.707.707,3.168,3.168h-4.48v1h4.481l-3.169,3.169.707.707,3.668-3.668,3.668,3.668.707-.707-3.169-3.169h4.481v-1h-4.48Z" fill="#789ac4"/>
          </g>
        </g>
        <g id="Group_519" data-name="Group 519">
          <g id="Group_518" data-name="Group 518">
            <path id="Path_875" data-name="Path 875" d="M1252.435,2952.477l-.707-.707-3.668,3.668-3.668-3.668-.707.707,3.168,3.168h-4.48v1h4.481l-3.169,3.169.707.707,3.668-3.668,3.668,3.668.707-.707-3.169-3.169h4.481v-1h-4.48Z" fill="#789ac4"/>
          </g>
        </g>
        <g id="Group_521" data-name="Group 521">
          <g id="Group_520" data-name="Group 520">
            <path id="Path_876" data-name="Path 876" d="M1277.56,2925.852l-.707-.707-3.668,3.668-3.668-3.668-.707.707,3.168,3.168h-4.48v1h4.481l-3.169,3.169.707.707,3.668-3.668,3.668,3.668.707-.707-3.169-3.169h4.481v-1h-4.48Z" fill="#789ac4"/>
          </g>
        </g>
        <g id="Group_523" data-name="Group 523">
          <g id="Group_522" data-name="Group 522">
            <path id="Path_877" data-name="Path 877" d="M1303.311,2921.977l-.707-.707-3.668,3.668-3.668-3.668-.707.707,3.168,3.168h-4.48v1h4.481l-3.169,3.169.707.707,3.668-3.668,3.668,3.668.707-.707-3.169-3.169h4.481v-1h-4.48Z" fill="#789ac4"/>
          </g>
        </g>
        <g id="Group_525" data-name="Group 525">
          <g id="Group_524" data-name="Group 524">
            <path id="Path_878" data-name="Path 878" d="M1328.936,2919.977l-.707-.707-3.668,3.668-3.668-3.668-.707.707,3.168,3.168h-4.48v1h4.481l-3.169,3.169.707.707,3.668-3.668,3.668,3.668.707-.707-3.169-3.169h4.481v-1h-4.48Z" fill="#789ac4"/>
          </g>
        </g>
        <g id="Group_527" data-name="Group 527">
          <g id="Group_526" data-name="Group 526">
            <path id="Path_879" data-name="Path 879" d="M1353.936,2918.6l-.707-.707-3.668,3.668-3.668-3.668-.707.707,3.168,3.168h-4.48v1h4.481l-3.169,3.169.707.707,3.668-3.668,3.668,3.668.707-.707-3.169-3.169h4.481v-1h-4.48Z" fill="#789ac4"/>
          </g>
        </g>
        <g id="Group_529" data-name="Group 529">
          <g id="Group_528" data-name="Group 528">
            <path id="Path_880" data-name="Path 880" d="M1379.686,2902.6l-.707-.707-3.668,3.668-3.668-3.668-.707.707,3.168,3.168h-4.48v1h4.481l-3.169,3.169.707.707,3.668-3.668,3.668,3.668.707-.707-3.169-3.169H1381v-1h-4.48Z" fill="#789ac4"/>
          </g>
        </g>
        <path id="Path_881" data-name="Path 881" d="M541.336,2819.27v341h870.306" fill="none" stroke="#a7a9ac" stroke-miterlimit="10" stroke-width="1.417"/>
      </g>
    </g>
  </g>
</svg>
