<svg xmlns="http://www.w3.org/2000/svg" width="100%" height="100%" viewBox="0 0 1077.417 409.518">
  <g id="Group_713" data-name="Group 713" transform="translate(-421.291 -2293.346)">
    <g id="Group_352" data-name="Group 352">
      <rect id="Rectangle_496" data-name="Rectangle 496" width="1076" height="367.333" transform="translate(422 2334.823)" fill="#f6f6f6" stroke="#a7a9ac" stroke-miterlimit="10" stroke-width="1.417"/>
      <g id="Group_351" data-name="Group 351">
        <g id="Group_350" data-name="Group 350">
          <path id="Path_784" data-name="Path 784" d="M503.541,2381.929h931.694m-931.694,42.715h931.694M503.541,2467.28h931.694m-931.694,42.774h931.694m-931.694,42.637h931.694m-931.694,42.774h931.694" fill="none" stroke="#a7a9ac" stroke-miterlimit="10" stroke-width="1.417"/>
          <path id="Path_785" data-name="Path 785" d="M1435.235,2381.929V2638.16m-103.478-256.231V2638.16m-103.616-256.231V2638.16m-103.478-256.231V2638.16m-103.5-256.231V2638.16m-103.5-256.231V2638.16M814.053,2381.929V2638.16m-103.5-256.231V2638.16m-103.5-256.231V2638.16" fill="none" stroke="#a7a9ac" stroke-miterlimit="10" stroke-width="1.417"/>
          <rect id="Rectangle_497" data-name="Rectangle 497" width="932.521" height="256.941" transform="translate(503.448 2381.87)" fill="none" stroke="#a7a9ac" stroke-miterlimit="10" stroke-width="1.417"/>
        </g>
        <text id="_0" data-name="0" transform="translate(486.194 2641.43)" fill="#606060" font-size="14.314" font-family="IBMPlexSans, IBM Plex Sans"><tspan x="0" y="0">0</tspan></text>
        <text id="_0_2" data-name="0,2" transform="translate(473.712 2598.676)" fill="#606060" font-size="14.314" font-family="IBMPlexSans, IBM Plex Sans"><tspan x="0" y="0">0,2</tspan></text>
        <text id="_0_4" data-name="0,4" transform="translate(473.712 2555.98)" fill="#606060" font-size="14.314" font-family="IBMPlexSans, IBM Plex Sans"><tspan x="0" y="0">0,4</tspan></text>
        <text id="_0_6" data-name="0,6" transform="translate(473.712 2513.285)" fill="#606060" font-size="14.314" font-family="IBMPlexSans, IBM Plex Sans"><tspan x="0" y="0">0,6</tspan></text>
        <text id="_0_8" data-name="0,8" transform="translate(473.712 2470.59)" fill="#606060" font-size="14.314" font-family="IBMPlexSans, IBM Plex Sans"><tspan x="0" y="0">0,8</tspan></text>
        <text id="_1" data-name="1" transform="translate(486.194 2427.835)" fill="#606060" font-size="14.314" font-family="IBMPlexSans, IBM Plex Sans"><tspan x="0" y="0">1</tspan></text>
        <text id="_1_2" data-name="1,2" transform="translate(473.712 2385.14)" fill="#606060" font-size="14.314" font-family="IBMPlexSans, IBM Plex Sans"><tspan x="0" y="0">1,2</tspan></text>
        <text id="Mar" transform="translate(543.265 2660.483)" fill="#606060" font-size="14.314" font-family="IBMPlexSans, IBM Plex Sans"><tspan x="0" y="0">Mar</tspan></text>
        <text id="Apr" transform="translate(648.375 2660.483)" fill="#606060" font-size="14.314" font-family="IBMPlexSans, IBM Plex Sans"><tspan x="0" y="0">Apr</tspan></text>
        <text id="May" transform="translate(749.527 2660.483)" fill="#606060" font-size="14.314" font-family="IBMPlexSans, IBM Plex Sans"><tspan x="0" y="0">May</tspan></text>
        <text id="Jun" transform="translate(856.157 2660.483)" fill="#606060" font-size="14.314" font-family="IBMPlexSans, IBM Plex Sans"><tspan x="0" y="0">Jun</tspan></text>
        <text id="Jul" transform="translate(961.704 2660.483)" fill="#606060" font-size="14.314" font-family="IBMPlexSans, IBM Plex Sans"><tspan x="0" y="0">Jul</tspan></text>
        <text id="Aug" transform="translate(1061.753 2660.483)" fill="#606060" font-size="14.314" font-family="IBMPlexSans, IBM Plex Sans"><tspan x="0" y="0">Aug</tspan></text>
        <text id="Sep" transform="translate(1166.018 2660.483)" fill="#606060" font-size="14.314" font-family="IBMPlexSans, IBM Plex Sans"><tspan x="0" y="0">Sep</tspan></text>
        <text id="Oct" transform="translate(1270.048 2660.483)" fill="#606060" font-size="14.314" font-family="IBMPlexSans, IBM Plex Sans"><tspan x="0" y="0">Oct</tspan></text>
        <text id="Nov" transform="translate(1372.009 2660.483)" fill="#606060" font-size="14.314" font-family="IBMPlexSans, IBM Plex Sans"><tspan x="0" y="0">Nov</tspan></text>
        <line id="Line_55" data-name="Line 55" y1="1.852" x2="931.412" transform="translate(508.138 2553.853)" fill="none" stroke="#a7a9ac" stroke-miterlimit="10" stroke-width="1.417" stroke-dasharray="14.173 14.173"/>
        <text id="_10_C" data-name="10 C" transform="translate(1386.352 2550.108)" fill="#606060" font-size="14.314" font-family="IBMPlexSans, IBM Plex Sans"><tspan x="0" y="0">10 C</tspan></text>
        <rect id="Rectangle_498" data-name="Rectangle 498" width="119.87" height="23.407" transform="translate(1326.417 2535.885)" fill="none"/>
        <rect id="Rectangle_499" data-name="Rectangle 499" width="119.87" height="23.407" transform="translate(1326.417 2535.885)" fill="none"/>
        <line id="Line_56" data-name="Line 56" y1="1.852" x2="931.42" transform="translate(507.972 2483.279)" fill="none" stroke="#a7a9ac" stroke-miterlimit="10" stroke-width="1.417" stroke-dasharray="14.173 14.173"/>
        <text id="_15_C" data-name="15 C" transform="translate(1386.352 2479.611)" fill="#606060" font-size="14.314" font-family="IBMPlexSans, IBM Plex Sans"><tspan x="0" y="0">15 C</tspan></text>
        <path id="Path_786" data-name="Path 786" d="M555.568,2622.635l12.944-7.625,12.933-7.664,25.889-15.388,12.925-7.625,12.944-7.566,12.925-7.447,12.945-7.31,12.944-7.132,12.925-7.014,12.945-6.9,12.944-6.817,25.87-13.5,25.889-13.476,12.945-6.935,12.944-7.152,12.945-7.212,12.925-7.132,12.924-6.935,6.463-3.33,6.482-3.251,6.462-3.133,6.443-2.975,6.463-2.817,6.462-2.66,12.945-5.024,12.924-4.768,6.463-2.266,6.482-2.167,6.462-2.069,6.443-1.95,6.463-1.813,6.462-1.694,6.462-1.537,6.463-1.4,6.462-1.222,6.443-1.044,6.463-.867,6.442-.689,6.463-.473,6.462-.3,6.462-.1,6.443.078,6.463.237,6.462.374,6.463.532,6.462.67,6.462.788,6.463.906,6.462,1.025,6.463,1.1,12.925,2.443,12.924,2.719,12.945,2.818,12.925,2.9,6.462,1.537,6.482,1.616,6.463,1.733,6.462,1.872,6.443,2.049,6.462,2.207,6.443,2.423,6.463,2.66,6.462,2.877,6.443,3.172,6.462,3.487,6.443,3.783,3.231,2.049,3.231,2.167,3.212,2.306,3.231,2.4,3.231,2.522,3.232,2.621,3.231,2.719,3.231,2.8,6.462,5.813,6.463,6.068,6.462,6.246,6.463,6.364,12.944,12.826,6.482,6.344,6.463,6.226,6.462,6.029,6.482,5.753,3.251,2.759,3.251,2.679,3.231,2.6,3.251,2.482,6.482,4.749,6.483,4.551,6.462,4.354,6.482,4.2,6.463,4.059,6.482,3.94,6.482,3.842,6.482,3.763,12.925,7.389,12.944,7.309,12.945,7.428,6.462,3.823,6.463,3.881-.512.867-6.463-3.9-6.462-3.8-12.925-7.428-12.945-7.309-12.944-7.389-6.482-3.763-6.483-3.862-6.482-3.94-6.5-4.059-6.482-4.216-6.482-4.354-6.5-4.552-6.5-4.768-3.251-2.5-3.251-2.6-3.271-2.7-3.251-2.778-6.5-5.773-6.462-6.029-6.5-6.226-6.482-6.364-12.945-12.826-6.462-6.364-6.443-6.226-6.443-6.068-6.462-5.793-3.211-2.8-3.212-2.7-3.231-2.62-3.212-2.5-3.192-2.384-3.211-2.285-3.212-2.167-3.191-2.03-6.423-3.763-6.423-3.468-6.423-3.152-6.423-2.877-6.423-2.64-6.423-2.4-6.443-2.207-6.423-2.029-6.443-1.872-6.443-1.734-6.462-1.616-6.443-1.536-12.925-2.9-12.925-2.8-12.924-2.719-12.906-2.443-6.442-1.1-6.463-1.024-6.443-.887-6.442-.808-6.443-.65-6.443-.532-6.442-.394-6.423-.236-6.424-.06-6.423.1-6.442.3-6.423.472-6.423.67-6.443.867-6.4,1.044-6.443,1.222-6.443,1.4-6.443,1.517-6.442,1.694-6.443,1.813-6.423,1.951-6.462,2.049-6.443,2.167-6.463,2.266-12.905,4.748-12.925,5.024-6.442,2.64-6.443,2.818L847.094,2463l-6.443,3.113-6.462,3.251-6.443,3.329-12.9,6.936-12.944,7.132-12.945,7.211-12.945,7.132-12.944,6.936-25.889,13.5-25.889,13.5-12.945,6.817-12.925,6.9-12.925,7.014-12.925,7.133-12.944,7.29-12.925,7.427-12.925,7.566-12.925,7.645-25.889,15.388-12.938,7.664-12.945,7.625Zm-1.013-1.714L567.5,2613.3l12.921-7.665,25.889-15.387,12.945-7.645,12.945-7.566,12.944-7.447,12.945-7.31,12.964-7.152L684,2546.11l12.944-6.915,12.945-6.818,25.909-13.476,25.849-13.5,12.945-6.916,12.905-7.132,12.945-7.211,12.964-7.152,12.944-6.955,6.5-3.35,6.482-3.251,6.482-3.152,6.5-2.995,6.5-2.837,6.5-2.66,12.964-5.044,12.965-4.787,6.5-2.266,6.483-2.168,6.5-2.088,6.482-1.951,6.5-1.832,6.5-1.694,6.5-1.557,6.5-1.4,6.5-1.241,6.5-1.044,6.522-.887,6.522-.689,6.5-.473,6.522-.3,6.521-.1,6.483.078,6.521.237,6.5.374,6.5.532,6.5.67,6.5.808,6.5.906,6.483,1.025,6.5,1.1,12.965,2.463,12.964,2.719,12.944,2.817,12.945,2.9,6.5,1.536,6.482,1.636,6.5,1.753,6.5,1.892,6.5,2.049,6.5,2.226,6.522,2.424,6.5,2.679,6.521,2.916,6.5,3.212,6.522,3.507,6.521,3.822,3.271,2.088,3.27,2.207,3.271,2.325,3.271,2.423,3.251,2.562,3.25,2.64,3.271,2.739,3.251,2.817,6.482,5.852,6.5,6.088,6.462,6.265,6.483,6.364,12.944,12.826,6.463,6.325,6.462,6.226,6.443,5.989,6.442,5.714,3.212,2.759,3.211,2.659,3.232,2.562,3.211,2.463,6.443,4.728,6.443,4.512,6.442,4.335,6.443,4.177,6.463,4.039,6.442,3.94,6.463,3.842,6.462,3.744,12.925,7.388,12.945,7.31,12.964,7.447,6.482,3.8,6.482,3.921-.512.847-6.482-3.9-6.482-3.823-12.945-7.427-12.945-7.31-12.924-7.389-6.463-3.763-6.482-3.822-6.462-3.96-6.463-4.039-6.462-4.2-6.463-4.334-6.462-4.532-6.463-4.729-3.231-2.482-3.231-2.581-3.212-2.66-3.231-2.758-6.462-5.754-6.463-6.009-6.462-6.206-6.462-6.344-12.945-12.827-6.482-6.364-6.463-6.265-6.482-6.068-6.482-5.832-3.231-2.818-3.251-2.719-3.231-2.64-3.251-2.522-3.251-2.423-3.251-2.3-3.231-2.207-3.251-2.049-6.5-3.822-6.482-3.488-6.463-3.192-6.5-2.9-6.483-2.66-6.482-2.443-6.482-2.207-6.482-2.049-6.482-1.871-6.482-1.754-6.463-1.635-6.482-1.537-12.944-2.9-12.945-2.8-12.944-2.719L1047.134,2429l-6.482-1.1-6.482-1.025-6.482-.906-6.483-.788-6.482-.67-6.482-.532-6.482-.394-6.482-.236-6.463-.079-6.5.118-6.482.3-6.483.472-6.482.67-6.482.887-6.482,1.044-6.482,1.222-6.482,1.418-6.482,1.537-6.483,1.7-6.482,1.832-6.462,1.95-6.482,2.069-6.482,2.167-6.483,2.266-12.944,4.788-12.964,5.024-6.482,2.66-6.483,2.817-6.462,2.995-6.482,3.133-6.463,3.251-6.482,3.349-12.944,6.955-12.945,7.133-12.944,7.211-12.925,7.132-12.945,6.935-25.869,13.5-25.889,13.476-12.945,6.817-12.945,6.9-12.944,7.034-12.945,7.132-12.944,7.31-12.925,7.447-12.964,7.566-12.925,7.645-25.889,15.368-12.927,7.684-12.945,7.625Z" fill="#789ac4"/>
        <path id="Path_787" data-name="Path 787" d="M555.719,2605.71l3.239-4.512,3.243-4.748,3.241-4.945,3.242-5.123,3.245-5.28,3.211-5.438,3.251-5.537,3.231-5.615L588.1,2553.1l6.463-11.467,6.462-11.329,3.251-5.556,3.231-5.438,3.212-5.34,3.231-5.181,3.231-4.985,3.232-4.788,3.231-4.571,3.231-4.334,3.231-4.059,3.212-3.744,3.231-3.448,1.6-1.576,1.615-1.5,1.6-1.419,1.6-1.32,1.616-1.2,1.576-1.123,1.616-1.005,1.6-.906,1.6-.788,1.577-.69,1.6-.571,1.576-.453,1.6-.335,1.576-.2,1.556-.079,1.6.059,1.557.2,1.6.315,1.576.473,1.6.572,1.576.709,1.6.827,1.6.946,1.6,1.044,1.6,1.163,1.615,1.261,1.6,1.359,1.6,1.478,1.616,1.556,1.6,1.636,3.231,3.546,3.231,3.842,3.211,4.138,3.232,4.354,3.231,4.591,3.231,4.787,3.231,4.906,3.232,5.064,3.231,5.123,3.231,5.2,6.462,10.423,3.251,5.181,3.232,5.123,3.231,5.024,3.231,4.906,3.251,4.729,3.231,4.551,3.231,4.315,3.251,4.078,3.251,3.8,3.231,3.468,1.636,1.635,1.615,1.517,1.636,1.438,1.635,1.32,3.29,2.5,3.251,2.364,3.251,2.246,3.231,2.167,3.251,2.03,3.231,1.95,3.251,1.833,3.251,1.753,6.482,3.251,6.483,2.916,6.5,2.64,6.482,2.364,6.463,2.168,6.482,1.97,6.482,1.832,6.482,1.714,12.945,3.212,12.944,3.172,6.483,1.517,6.482,1.3,6.482,1.123,6.482.966,6.482.788,6.482.69,6.482.551,6.463.473,12.964.69,12.945.512,12.925.453,12.944.552,12.945.571,12.944.414,12.945.295,12.944.158h12.965l12.944-.138,12.925-.276,12.964-.413,6.463-.217,6.462-.118,12.925-.178,12.945-.177,6.482-.158,6.482-.236,6.462-.315,6.482-.473,6.483-.591,6.5-.769,6.483-.945,6.462-1.182,6.5-1.419,6.482-1.675,6.482-1.793,6.463-1.734,6.482-1.753,6.462-1.793,6.482-1.891,6.482-2.05,6.5-2.246,6.463-2.482,6.5-2.758,3.232-1.5,3.251-1.6,3.251-1.694,3.25-1.793,3.251-1.911,3.232-2.01,3.251-2.128,3.25-2.266,3.232-2.4,3.251-2.5,3.25-2.679,3.232-2.817,3.251-2.976,3.251-3.132,3.25-3.31,3.232-3.527,3.251-3.684,3.25-3.882,3.232-4.039,3.231-4.2,3.231-4.335,3.251-4.512,3.231-4.591,3.251-4.728,3.231-4.867,3.232-4.925,3.251-5.025,3.231-5.1,6.482-10.422,6.462-10.64,6.463-10.757,6.482-10.8,6.462-10.777,6.482-10.659,6.463-10.482,6.462-10.246,3.232-4.984,3.25-4.906.828.551-3.231,4.906-3.231,4.965-6.463,10.246-6.462,10.462-6.463,10.679-6.482,10.757-6.462,10.8-6.482,10.777L1333,2509.68l-6.482,10.442-3.231,5.1-3.251,5.025-3.251,4.945-3.231,4.866-3.251,4.749-3.251,4.61-3.251,4.512-3.251,4.335-3.231,4.216-3.251,4.059-3.271,3.9-3.251,3.7-3.27,3.546-3.251,3.33-3.271,3.152-3.27,2.995-3.271,2.837-3.271,2.68-3.251,2.542-3.251,2.4-3.27,2.286-3.271,2.147-3.27,2.03-3.271,1.911-3.271,1.793-3.27,1.714-3.271,1.615-3.271,1.5-6.521,2.778-6.5,2.5-6.521,2.246-6.5,2.049-6.5,1.911-6.482,1.793-6.482,1.754-6.463,1.734-6.482,1.793-6.5,1.694-6.541,1.419-6.5,1.182-6.521.946-6.5.788-6.522.591-6.5.453-6.482.335-6.482.236-6.5.138-12.944.177-12.925.178-6.463.138-6.462.2-12.945.413-12.944.3-12.964.118h-12.965l-12.964-.138-12.964-.295-12.945-.434-12.944-.551-12.945-.552-12.925-.453-12.964-.532-12.964-.69-6.482-.453-6.5-.571-6.482-.67-6.5-.808-6.522-.965-6.5-1.143-6.521-1.3-6.5-1.518-12.945-3.152-12.944-3.231-6.5-1.714-6.5-1.833-6.5-1.99-6.5-2.167-6.522-2.384-6.522-2.66-6.521-2.935-6.522-3.251-3.27-1.754-3.271-1.852-3.251-1.97-3.251-2.049-3.27-2.167-3.271-2.266-3.251-2.384-3.31-2.5-1.675-1.339-1.655-1.478-1.635-1.537-1.655-1.635-3.271-3.507-3.27-3.822-3.271-4.118-3.251-4.335-3.251-4.571-3.251-4.748-3.25-4.906-3.232-5.044-3.231-5.123-3.251-5.181-6.462-10.443-3.231-5.181-3.212-5.123-3.231-5.044-3.231-4.906-3.232-4.768-3.211-4.571-3.212-4.334-3.211-4.118-3.192-3.823-3.211-3.507-1.577-1.615-1.6-1.537-1.576-1.458-1.556-1.32-1.576-1.241-1.577-1.143-1.556-1.025-1.537-.906-1.556-.808-1.518-.689-1.536-.552-1.5-.433-1.517-.316-1.478-.177-1.5-.059-1.5.059-1.5.2-1.5.315-1.517.453-1.537.532-1.537.67-1.537.749-1.556.906-1.576.985-1.557,1.084-1.576,1.182-1.557,1.3-1.576,1.379-1.6,1.477-1.576,1.557-3.192,3.428-3.191,3.724-3.212,4.019-3.211,4.315-3.212,4.551-3.231,4.768-3.212,4.985-3.231,5.162-3.211,5.32-3.232,5.438L601.9,2530.8l-6.462,11.329-6.463,11.467L582.489,2565l-3.251,5.635-3.231,5.536-3.231,5.438-3.245,5.28-3.249,5.162L563.031,2597l-3.255,4.768-3.245,4.512Zm-1.621-1.182,3.227-4.492,3.217-4.689,3.222-4.926,3.223-5.1,3.225-5.26,3.214-5.4,3.231-5.517,3.231-5.615,6.463-11.408,6.482-11.467,6.482-11.328,3.231-5.576,3.251-5.458,3.231-5.359,3.251-5.2,3.251-5.025,3.251-4.827,3.251-4.61,3.271-4.374,3.251-4.1,3.29-3.823,3.271-3.487,1.655-1.635,1.655-1.537,1.635-1.458,1.655-1.359,1.675-1.261,1.674-1.163,1.675-1.064,1.675-.965,1.694-.828,1.7-.729,1.714-.61,1.714-.513,1.734-.354,1.734-.217,1.733-.079,1.754.059,1.734.217,1.734.355,1.714.512,1.733.611,1.7.768,1.694.887,1.675.985,1.694,1.1,1.655,1.222,1.675,1.3,1.655,1.419,1.655,1.5,1.655,1.6,1.636,1.694,3.27,3.586,3.271,3.921,3.27,4.157,3.251,4.414,3.271,4.63,3.231,4.807,3.251,4.926,3.251,5.063,3.231,5.143,3.231,5.2,6.483,10.442,3.231,5.182,3.231,5.1,3.211,5.005,3.212,4.866,3.231,4.709,3.212,4.512,3.192,4.295,3.211,4.019,3.192,3.744,3.192,3.408,1.576,1.577,1.6,1.477,1.556,1.4,1.6,1.281,3.251,2.463,3.212,2.344,3.191,2.227,3.212,2.108,3.211,2.029,3.192,1.911,3.212,1.813,3.192,1.734,6.423,3.211,6.423,2.9,6.423,2.6,6.423,2.345,6.423,2.148,6.442,1.97,6.443,1.832,6.443,1.7,12.925,3.211,12.925,3.152,6.442,1.5,6.443,1.3,6.423,1.123,6.443.946,6.443.788,6.442.69,6.443.551,6.443.454,12.925.709,12.924.512,12.925.453,12.945.552,12.944.552,12.925.433,12.925.3,12.925.137h12.925l12.925-.118,12.925-.276,12.925-.413,6.482-.217,6.482-.138,12.944-.177,12.945-.178,6.443-.138,6.462-.236,6.423-.335,6.443-.453,6.443-.591,6.423-.749,6.423-.946,6.423-1.182,6.4-1.379,6.443-1.675,6.462-1.793,6.482-1.733,6.463-1.754,6.462-1.773,6.443-1.892,6.443-2.049,6.423-2.206,6.4-2.443,6.423-2.759,3.211-1.477,3.192-1.577,3.212-1.655,3.211-1.773,3.192-1.872,3.212-1.99,3.191-2.108,3.212-2.246,3.192-2.345,3.211-2.5,3.192-2.62,3.212-2.778,3.211-2.956,3.192-3.093,3.211-3.271,3.212-3.467,3.211-3.665,3.212-3.842,3.211-4,3.212-4.177,3.231-4.315,3.212-4.473,3.231-4.59,3.231-4.709,3.231-4.827,3.232-4.926,3.211-5.024,3.231-5.083,6.463-10.4,6.462-10.62,6.463-10.758,6.482-10.8,6.462-10.777,6.482-10.679,6.482-10.5,6.483-10.245,3.251-5.025,3.231-4.906.827.552-3.231,4.906-3.231,5.005-6.482,10.245-6.482,10.5-6.463,10.659-6.482,10.778-6.462,10.8-6.483,10.757-6.442,10.62-6.482,10.423-3.232,5.083-3.231,5.024-3.231,4.945-3.231,4.827-3.232,4.729-3.231,4.591-3.231,4.492-3.231,4.315-3.231,4.2-3.232,4.02-3.211,3.861-3.231,3.685-3.232,3.487-3.231,3.29-3.231,3.113-3.212,2.956-3.231,2.8-3.231,2.659-3.231,2.5-3.212,2.364-3.211,2.266-3.231,2.108-3.232,2.01-3.211,1.891-3.231,1.773-3.232,1.675-3.211,1.6-3.231,1.5-6.463,2.759-6.442,2.443-6.443,2.226-6.463,2.069-6.462,1.872-6.482,1.793-6.463,1.753-6.482,1.734-6.462,1.793-6.463,1.675-6.442,1.4-6.443,1.183-6.463.945-6.462.769-6.462.591-6.463.453-6.443.315-6.462.237-6.462.157-12.945.178-12.945.177-6.462.138-6.482.2-12.945.414-12.924.275-12.945.138h-12.925l-12.944-.138-12.945-.295-12.925-.434-12.945-.571-12.944-.532-12.925-.473-12.944-.512-12.925-.69-6.463-.453-6.462-.571-6.463-.67-6.462-.808-6.463-.946-6.462-1.123-6.443-1.3-6.462-1.5-12.945-3.173-12.925-3.211-6.462-1.694-6.462-1.833-6.463-1.99-6.443-2.147-6.462-2.365-6.462-2.62-6.443-2.9-6.463-3.232-3.231-1.733-3.211-1.833-3.212-1.931-3.231-2.029-3.231-2.128-3.231-2.246-3.232-2.364-3.27-2.463-1.6-1.32-1.6-1.419-1.616-1.5-1.615-1.6-3.192-3.448-3.231-3.763-3.232-4.039-3.211-4.315-3.231-4.532-3.232-4.708-3.231-4.887-3.211-5.024-3.231-5.1-3.232-5.2-6.482-10.423-3.231-5.2-3.231-5.143-3.231-5.044-3.251-4.925-3.232-4.808-3.251-4.59-3.231-4.394-3.251-4.137-3.251-3.9-3.25-3.546-1.616-1.675-1.635-1.576-1.616-1.478-1.635-1.4-1.636-1.28-1.635-1.2-1.635-1.064-1.636-.965-1.655-.848-1.635-.748-1.655-.591-1.655-.493-1.655-.335-1.655-.217-1.675-.059-1.655.079-1.635.217-1.675.354-1.635.473-1.655.591-1.635.71-1.655.807-1.636.946-1.635,1.025-1.635,1.142-1.636,1.242-1.635,1.339-1.616,1.419-1.635,1.517-1.635,1.616-3.251,3.467-3.251,3.783-3.231,4.079-3.251,4.354-3.251,4.591-3.231,4.807-3.251,5-3.231,5.2-3.232,5.339-3.231,5.458-3.231,5.556-6.482,11.329-6.482,11.467-6.463,11.408-3.231,5.615-3.231,5.517-3.231,5.418-3.228,5.28-3.231,5.123-3.231,4.925-3.229,4.709-3.233,4.512Z" fill="#d02f34"/>
      </g>
    </g>
    <g id="Group_353" data-name="Group 353">
      <text id="Temperature" transform="translate(852.766 2308.346)" fill="#606060" font-size="14.314" font-family="IBMPlexSans, IBM Plex Sans"><tspan x="0" y="0">Temperature</tspan></text>
      <text id="Deaths_per_Million" data-name="Deaths per Million" transform="translate(964.491 2308.346)" fill="#606060" font-size="14.314" font-family="IBMPlexSans, IBM Plex Sans"><tspan x="0" y="0">Deaths per Million</tspan></text>
      <rect id="Rectangle_500" data-name="Rectangle 500" width="9.763" height="9.763" transform="translate(839.398 2298.292)" fill="#789ac4"/>
      <rect id="Rectangle_501" data-name="Rectangle 501" width="9.763" height="9.763" transform="translate(950.939 2298.292)" fill="#d02f34"/>
    </g>
  </g>
</svg>
