<?xml version="1.0" encoding="utf-8"?>
<!-- Generator: Adobe Illustrator 22.0.1, SVG Export Plug-In . SVG Version: 6.00 Build 0)  -->
<svg width="100%" height="100%" version="1.1" id="Слой_1" xmlns="http://www.w3.org/2000/svg" xmlns:xlink="http://www.w3.org/1999/xlink" x="0px" y="0px"
	 viewBox="0 0 1076.2 374.9" style="enable-background:new 0 0 1076.2 374.9;" xml:space="preserve">
<style type="text/css">
	.st0{fill:#FFFFFF;stroke:#A6A8AB;stroke-width:1.417;stroke-miterlimit:10;}
	.st1{fill:none;stroke:#A6A8AB;stroke-width:1.417;stroke-miterlimit:10;}
	.st2{fill:none;}
	.st3{fill:#7899C3;}
	.st4{fill:#CF2F34;}
	.st5{fill:#606060;}
	.st6{font-family:'ArialMT';}
	.st7{font-size:14.314px;}
	.st8{fill:none;stroke:#A6A8AB;stroke-width:1.417;stroke-miterlimit:10;stroke-dasharray:14.173,14.173;}
	.st9{enable-background:new    ;}
	.st10{fill:#789AC4;}
	.st11{fill:#D02F34;}
	.st12{font-size:15.5192px;}
</style>
<g transform="translate(-421.765 -2325.182)">
	<rect x="422.5" y="2325.9" class="st0" width="1074.5" height="373.5"/>
	<line class="st1" x1="456.7" y1="2635.3" x2="456.7" y2="2380.1"/>
	<rect x="422.5" y="2325.9" class="st2" width="1073.3" height="372.3"/>
	<rect x="422.5" y="2325.9" class="st2" width="1073.3" height="372.3"/>
	<path class="st1" d="M1482.7,2635.3v3.7 M1419.2,2635.3v3.7 M1354.4,2635.3v3.7 M1290.9,2635.3v3.7 M1226.2,2635.3v3.7
		 M1162.7,2635.3v3.7 M1097.9,2635.3v3.7 M1034.4,2635.3v3.7 M969.7,2635.3v3.7 M906.2,2635.3v3.7 M841.5,2635.3v3.7 M778,2635.3
		v3.7 M713.2,2635.3v3.7 M649.7,2635.3v3.7 M585,2635.3v3.7 M520.2,2635.3v3.7 M456.7,2635.3v3.7"/>
	<rect x="422.5" y="2325.9" class="st2" width="1073.3" height="372.3"/>
	<path class="st3" d="M489.2,2596.1l63.6-13.7l64.8-48.6l63.5-43.6l64.7-43.5l63.3-23.6l64.5,7.4l63.3,28.5l64.7,73.4l63.6,51.1
		l64.9,36.2l63.8,16.3l64.9-39.9l63.5-13.7l64.8-48.6l64.7-43.6l0.7,1l-64.7,43.6l-65,48.8l-63.6,13.7l-65.1,40.1l-64.5-16.4
		l-65.1-36.3l-63.7-51.2l-64.6-73.3l-62.9-28.4l-64-7.4l-62.9,23.4l-64.6,43.4l-63.5,43.6l-65,48.8l-63.9,13.8L489.2,2596.1z
		 M488.7,2593.6l63.1-13.6l64.5-48.3l63.5-43.6l64.9-43.7l64.1-23.9l65.5,7.6l64.1,28.9l64.9,73.6l63.3,50.9l64.4,35.9l62.5,15.9
		l64.3-39.6l63.4-13.7l64.5-48.3l64.8-43.6l0.7,1l-64.8,43.6l-64.6,48.5l-63.5,13.7l-64.6,39.8l-63.2-16.1l-64.6-36l-63.4-51
		l-64.8-73.5l-63.7-28.7l-65-7.5l-63.7,23.7l-64.8,43.6l-63.5,43.6l-64.6,48.5l-63.4,13.7L488.7,2593.6z"/>
	<path class="st4" d="M489.4,2635.8l63.6-36.2l64.3-102.7l63.1,87.8l65,30l63.6,7.5h64.8l63.7-7.5l65-36.3l63.5-113.3l64.5-32.2
		l63.1-9.9l64.6,65.9l63.8,18.8l64.6-14.9l64.5,58.3l-0.8,0.9l-64-57.9L1322,2509l-64.4-19l-64.4-65.7l-62.3,9.8l-64,32l-63.5,113.3
		l-65.5,36.5l-64,7.5h-65l-63.9-7.5l-65.5-30.2l-62.2-86.5l-63.5,101.4l-63.9,36.3L489.4,2635.8z M488.2,2633.7l63.1-35.9l66-105.3
		l64.8,90.3l64,29.6l63.1,7.4h64.5l63-7.4l64-35.7l63.5-113.3l65.5-32.8l64.7-10.2l65.1,66.3l62.6,18.4l65.2-15.1l65.5,59.2
		l-0.8,0.9l-65-58.7l-64.9,15l-63.2-18.6l-64.9-66.1l-63.9,10l-65,32.5l-63.5,113.3l-64.5,36l-63.3,7.5h-64.7l-63.4-7.5l-64.5-29.8
		l-63.9-89l-65.2,104l-63.4,36L488.2,2633.7z"/>
	<rect x="422.5" y="2325.9" class="st2" width="1073.3" height="372.3"/>
	<rect x="422.5" y="2325.9" class="st2" width="1073.3" height="372.3"/>
	<rect x="422.5" y="2325.9" class="st2" width="1073.3" height="372.3"/>
	<rect x="422.5" y="2325.9" class="st2" width="1073.3" height="372.3"/>
	<rect x="422.5" y="2325.9" class="st2" width="1073.3" height="372.3"/>
	<rect x="422.5" y="2325.9" class="st2" width="1073.3" height="372.3"/>
	<text transform="matrix(1 0 0 1 441.048 2638.4121)" class="st5 st6 st7">0</text>
	<text transform="matrix(1 0 0 1 428.566 2596.0779)" class="st5 st6 st7">0,2</text>
	<text transform="matrix(1 0 0 1 428.566 2553.7451)" class="st5 st6 st7">0,4</text>
	<text transform="matrix(1 0 0 1 428.566 2511.4109)" class="st5 st6 st7">0,6</text>
	<text transform="matrix(1 0 0 1 428.566 2467.833)" class="st5 st6 st7">0,8</text>
	<text transform="matrix(1 0 0 1 441.048 2425.499)" class="st5 st6 st7">1</text>
	<text transform="matrix(1 0 0 1 428.566 2383.166)" class="st5 st6 st7">1,2</text>
	<rect x="422.5" y="2325.9" class="st2" width="1073.3" height="372.3"/>
	<text transform="matrix(1 0 0 1 471.52 2654.5979)" class="st5 st6 st7">1/2/20</text>
	<rect x="422.5" y="2325.9" class="st2" width="1073.3" height="372.3"/>
	<text transform="matrix(1 0 0 1 535.67 2654.5979)" class="st5 st6 st7">1/3/20</text>
	<rect x="422.5" y="2325.9" class="st2" width="1073.3" height="372.3"/>
	<text transform="matrix(1 0 0 1 599.82 2654.5979)" class="st5 st6 st7">1/4/20</text>
	<rect x="422.5" y="2325.9" class="st2" width="1073.3" height="372.3"/>
	<text transform="matrix(1 0 0 1 663.97 2654.5979)" class="st5 st6 st7">1/5/20</text>
	<rect x="422.5" y="2325.9" class="st2" width="1073.3" height="372.3"/>
	<text transform="matrix(1 0 0 1 728.12 2654.5979)" class="st5 st6 st7">1/6/20</text>
	<rect x="422.5" y="2325.9" class="st2" width="1073.3" height="372.3"/>
	<text transform="matrix(1 0 0 1 792.27 2654.5979)" class="st5 st6 st7">1/7/20</text>
	<rect x="422.5" y="2325.9" class="st2" width="1073.3" height="372.3"/>
	<text transform="matrix(1 0 0 1 856.419 2654.5979)" class="st5 st6 st7">1/8/20</text>
	<rect x="422.5" y="2325.9" class="st2" width="1073.3" height="372.3"/>
	<text transform="matrix(1 0 0 1 920.569 2654.5979)" class="st5 st6 st7">1/9/20</text>
	<rect x="422.5" y="2325.9" class="st2" width="1073.3" height="372.3"/>
	<text transform="matrix(1 0 0 1 981.572 2654.5979)" class="st5 st6 st7">1/10/20</text>
	<rect x="422.5" y="2325.9" class="st2" width="1073.3" height="372.3"/>
	<text transform="matrix(1 0 0 1 1045.722 2654.5979)" class="st5 st6 st7">1/11/20</text>
	<rect x="422.5" y="2325.9" class="st2" width="1073.3" height="372.3"/>
	<text transform="matrix(1 0 0 1 1109.8719 2654.5979)" class="st5 st6 st7">1/12/20</text>
	<rect x="422.5" y="2325.9" class="st2" width="1073.3" height="372.3"/>
	<text transform="matrix(1 0 0 1 1177.1689 2654.5979)" class="st5 st6 st7">1/1/21</text>
	<rect x="422.5" y="2325.9" class="st2" width="1073.3" height="372.3"/>
	<text transform="matrix(1 0 0 1 1241.318 2654.5979)" class="st5 st6 st7">1/2/21</text>
	<rect x="422.5" y="2325.9" class="st2" width="1073.3" height="372.3"/>
	<text transform="matrix(1 0 0 1 1305.469 2654.5979)" class="st5 st6 st7">1/3/21</text>
	<rect x="422.5" y="2325.9" class="st2" width="1073.3" height="372.3"/>
	<text transform="matrix(1 0 0 1 1369.618 2654.5979)" class="st5 st6 st7">1/4/21</text>
	<rect x="422.5" y="2325.9" class="st2" width="1073.3" height="372.3"/>
	<text transform="matrix(1 0 0 1 1433.769 2654.5979)" class="st5 st6 st7">1/5/21</text>
	<rect x="422.5" y="2325.9" class="st2" width="1073.3" height="372.3"/>
	<rect x="422.5" y="2325.9" class="st2" width="1073.3" height="372.3"/>
	<rect x="422.5" y="2325.9" class="st2" width="1073.3" height="372.3"/>
	<line class="st8" x1="456.7" y1="2475.9" x2="1497.9" y2="2479"/>
	<text transform="matrix(1 0 0 1 1416.858 2469.0779)" class="st5 st6 st7">15 C</text>
	<line class="st8" x1="460.4" y1="2549.4" x2="1497.5" y2="2548.1"/>
	<text transform="matrix(1 0 0 1 1416.858 2543.7839)" class="st5 st6 st7">10 C</text>
	<line class="st1" x1="456.7" y1="2635.3" x2="1482.7" y2="2635.3"/>
	<line class="st1" x1="455.8" y1="2380.1" x2="1482.7" y2="2380.1"/>
	<line class="st1" x1="455.8" y1="2423.1" x2="1482.7" y2="2423.1"/>
	<line class="st1" x1="455.8" y1="2465.9" x2="1482.7" y2="2465.9"/>
	<line class="st1" x1="455.8" y1="2507.7" x2="1482.7" y2="2507.7"/>
	<line class="st1" x1="455.8" y1="2550.6" x2="1482.7" y2="2550.6"/>
	<line class="st1" x1="455.8" y1="2593.6" x2="1482.7" y2="2593.6"/>
</g>
<g id="Group_353">
	<text transform="matrix(1 0 0 1 852.766 2308.3459)" class="st5 st6 st7">Temperature</text>
	<text transform="matrix(1 0 0 1 964.491 2308.3459)" class="st5 st6 st7">Deaths per Million</text>
	<rect id="Rectangle_500" x="839.4" y="2298.3" class="st10" width="9.8" height="9.8"/>
	<rect id="Rectangle_501" x="950.9" y="2298.3" class="st11" width="9.8" height="9.8"/>
</g>
<g id="Group_353_1_">
	<text transform="matrix(1 0 0 1 422.6636 28.2231)" class="st5 st6 st12">Temperature</text>
	<text transform="matrix(1 0 0 1 543.793 28.2231)" class="st5 st6 st12">Deaths per Million</text>
	<rect id="Rectangle_500_1_" x="408.2" y="17.3" class="st10" width="10.6" height="10.6"/>
	<rect id="Rectangle_501_1_" x="529.1" y="17.3" class="st11" width="10.6" height="10.6"/>
</g>
</svg>
