<svg xmlns="http://www.w3.org/2000/svg" width="100%" height="100%" viewBox="0 0 928.578 521.047">
  <g id="Group_715" data-name="Group 715" transform="translate(-495.711 -13311.776)">
    <g id="Group_244" data-name="Group 244">
      <g id="Group_241" data-name="Group 241">
        <rect id="Rectangle_390" data-name="Rectangle 390" width="927.161" height="519.629" transform="translate(496.42 13312.485)" fill="#fff" stroke="#a7a9ac" stroke-miterlimit="10" stroke-width="1.417"/>
      </g>
      <text id="Italy" transform="translate(719.692 13661.061) rotate(-90)" fill="#606060" font-size="15.75" font-family="IBMPlexSans-Light, IBM Plex Sans" font-weight="300"><tspan x="-15.647" y="0">Italy</tspan></text>
      <text id="Spain" transform="translate(736.417 13664.8) rotate(-90)" fill="#606060" font-size="15.75" font-family="IBMPlexSans-Light, IBM Plex Sans" font-weight="300"><tspan x="-19.49" y="0">Spain</tspan></text>
      <text id="Germany" transform="translate(1204.729 13676.904) rotate(-90)" fill="#606060" font-size="15.75" font-family="IBMPlexSans-Light, IBM Plex Sans" font-weight="300"><tspan x="-31.657" y="0">Germany</tspan></text>
      <text id="Austria" transform="translate(903.671 13669.879) rotate(-90)" fill="#606060" font-size="15.75" font-family="IBMPlexSans-Light, IBM Plex Sans" font-weight="300"><tspan x="-24.593" y="0">Austria</tspan></text>
      <text id="Romania" transform="translate(1037.475 13676.072) rotate(-90)" fill="#606060" font-size="15.75" font-family="IBMPlexSans-Light, IBM Plex Sans" font-weight="300"><tspan x="-30.767" y="0">Romania</tspan></text>
      <text id="Belgium" transform="translate(803.319 13673.999) rotate(-90)" fill="#606060" font-size="15.75" font-family="IBMPlexSans-Light, IBM Plex Sans" font-weight="300"><tspan x="-28.79" y="0">Belgium</tspan></text>
      <text id="Lithuania" transform="translate(920.397 13677.107) rotate(-90)" fill="#606060" font-size="15.75" font-family="IBMPlexSans-Light, IBM Plex Sans" font-weight="300"><tspan x="-31.932" y="0">Lithuania</tspan></text>
      <text id="Portugal" transform="translate(702.967 13674.545) rotate(-90)" fill="#606060" font-size="15.75" font-family="IBMPlexSans-Light, IBM Plex Sans" font-weight="300"><tspan x="-29.294" y="0">Portugal</tspan></text>
      <text id="Sweden" transform="translate(1238.179 13673.118) rotate(-90)" fill="#606060" font-size="15.75" font-family="IBMPlexSans-Light, IBM Plex Sans" font-weight="300"><tspan x="-27.877" y="0">Sweden</tspan></text>
      <text id="Greece" transform="translate(886.946 13670.182) rotate(-90)" fill="#606060" font-size="15.75" font-family="IBMPlexSans-Light, IBM Plex Sans" font-weight="300"><tspan x="-24.845" y="0">Greece</tspan></text>
      <text id="Finland" transform="translate(1154.552 13671.101) rotate(-90)" fill="#606060" font-size="15.75" font-family="IBMPlexSans-Light, IBM Plex Sans" font-weight="300"><tspan x="-25.861" y="0">Finland</tspan></text>
      <text id="Slovenia" transform="translate(870.221 13674.607) rotate(-90)" fill="#606060" font-size="15.75" font-family="IBMPlexSans-Light, IBM Plex Sans" font-weight="300"><tspan x="-29.294" y="0">Slovenia</tspan></text>
      <text id="Netherlands" transform="translate(1054.2 13687.951) rotate(-90)" fill="#606060" font-size="15.75" font-family="IBMPlexSans-Light, IBM Plex Sans" font-weight="300"><tspan x="-42.894" y="0">Netherlands</tspan></text>
      <text id="Ireland" transform="translate(686.241 13670.587) rotate(-90)" fill="#606060" font-size="15.75" font-family="IBMPlexSans-Light, IBM Plex Sans" font-weight="300"><tspan x="-25.318" y="0">Ireland</tspan></text>
      <text id="United_Kingdom" data-name="United Kingdom" transform="translate(786.594 13700.881) rotate(-90)" fill="#606060" font-size="15.75" font-family="IBMPlexSans-Light, IBM Plex Sans" font-weight="300"><tspan x="-55.888" y="0">United Kingdom</tspan></text>
      <text id="Denmark" transform="translate(1137.827 13677.029) rotate(-90)" fill="#606060" font-size="15.75" font-family="IBMPlexSans-Light, IBM Plex Sans" font-weight="300"><tspan x="-31.854" y="0">Denmark</tspan></text>
      <text id="Poland" transform="translate(1121.102 13669.504) rotate(-90)" fill="#606060" font-size="15.75" font-family="IBMPlexSans-Light, IBM Plex Sans" font-weight="300"><tspan x="-24.152" y="0">Poland</tspan></text>
      <text id="Norway" transform="translate(1104.376 13671.739) rotate(-90)" fill="#606060" font-size="15.75" font-family="IBMPlexSans-Light, IBM Plex Sans" font-weight="300"><tspan x="-26.467" y="0">Norway</tspan></text>
      <text id="Russia" transform="translate(1221.454 13668.289) rotate(-90)" fill="#606060" font-size="15.75" font-family="IBMPlexSans-Light, IBM Plex Sans" font-weight="300"><tspan x="-22.955" y="0">Russia</tspan></text>
      <text id="Slovakia" transform="translate(937.122 13674.094) rotate(-90)" fill="#606060" font-size="15.75" font-family="IBMPlexSans-Light, IBM Plex Sans" font-weight="300"><tspan x="-28.759" y="0">Slovakia</tspan></text>
      <text id="Latvia" transform="translate(1188.003 13665.766) rotate(-90)" fill="#606060" font-size="15.75" font-family="IBMPlexSans-Light, IBM Plex Sans" font-weight="300"><tspan x="-20.506" y="0">Latvia</tspan></text>
      <text id="Switzerland" transform="translate(1020.749 13685.809) rotate(-90)" fill="#606060" font-size="15.75" font-family="IBMPlexSans-Light, IBM Plex Sans" font-weight="300"><tspan x="-40.697" y="0">Switzerland</tspan></text>
      <text id="Czechia" transform="translate(1171.278 13672.278) rotate(-90)" fill="#606060" font-size="15.75" font-family="IBMPlexSans-Light, IBM Plex Sans" font-weight="300"><tspan x="-26.987" y="0">Czechia</tspan></text>
      <text id="France" transform="translate(769.868 13669.17) rotate(-90)" fill="#606060" font-size="15.75" font-family="IBMPlexSans-Light, IBM Plex Sans" font-weight="300"><tspan x="-23.703" y="0">France</tspan></text>
      <text id="Bulgaria" transform="translate(1004.024 13673.938) rotate(-90)" fill="#606060" font-size="15.75" font-family="IBMPlexSans-Light, IBM Plex Sans" font-weight="300"><tspan x="-28.712" y="0">Bulgaria</tspan></text>
      <text id="Hungary" transform="translate(987.298 13674.49) rotate(-90)" fill="#606060" font-size="15.75" font-family="IBMPlexSans-Light, IBM Plex Sans" font-weight="300"><tspan x="-29.381" y="0">Hungary</tspan></text>
      <text id="Estonia" transform="translate(1070.925 13670.985) rotate(-90)" fill="#606060" font-size="15.75" font-family="IBMPlexSans-Light, IBM Plex Sans" font-weight="300"><tspan x="-25.68" y="0">Estonia</tspan></text>
      <text id="Croatia" transform="translate(953.848 13670.105) rotate(-90)" fill="#606060" font-size="15.75" font-family="IBMPlexSans-Light, IBM Plex Sans" font-weight="300"><tspan x="-24.845" y="0">Croatia</tspan></text>
      <text id="Luxembourg" transform="translate(669.516 13688.668) rotate(-90)" fill="#606060" font-size="15.75" font-family="IBMPlexSans-Light, IBM Plex Sans" font-weight="300"><tspan x="-43.248" y="0">Luxembourg</tspan></text>
      <text id="_0" data-name="0" transform="translate(643.555 13360.524)" fill="#606060" font-size="15.75" font-family="IBMPlexSans-Light, IBM Plex Sans" font-weight="300"><tspan x="-4.725" y="0">0</tspan></text>
      <text id="_-10" data-name="-10" transform="translate(635.789 13391.686)" fill="#606060" font-size="15.75" font-family="IBMPlexSans-Light, IBM Plex Sans" font-weight="300"><tspan x="-12.576" y="0">-10</tspan></text>
      <text id="_-20" data-name="-20" transform="translate(635.789 13422.847)" fill="#606060" font-size="15.75" font-family="IBMPlexSans-Light, IBM Plex Sans" font-weight="300"><tspan x="-12.576" y="0">-20</tspan></text>
      <text id="_-30" data-name="-30" transform="translate(635.789 13454.008)" fill="#606060" font-size="15.75" font-family="IBMPlexSans-Light, IBM Plex Sans" font-weight="300"><tspan x="-12.576" y="0">-30</tspan></text>
      <text id="_-40" data-name="-40" transform="translate(635.789 13485.169)" fill="#606060" font-size="15.75" font-family="IBMPlexSans-Light, IBM Plex Sans" font-weight="300"><tspan x="-12.576" y="0">-40</tspan></text>
      <text id="_-50" data-name="-50" transform="translate(635.789 13516.33)" fill="#606060" font-size="15.75" font-family="IBMPlexSans-Light, IBM Plex Sans" font-weight="300"><tspan x="-12.576" y="0">-50</tspan></text>
      <text id="_-60" data-name="-60" transform="translate(635.789 13547.49)" fill="#606060" font-size="15.75" font-family="IBMPlexSans-Light, IBM Plex Sans" font-weight="300"><tspan x="-12.576" y="0">-60</tspan></text>
      <text id="_-70" data-name="-70" transform="translate(635.789 13578.651)" fill="#606060" font-size="15.75" font-family="IBMPlexSans-Light, IBM Plex Sans" font-weight="300"><tspan x="-12.576" y="0">-70</tspan></text>
      <text id="_-80" data-name="-80" transform="translate(635.789 13609.813)" fill="#606060" font-size="15.75" font-family="IBMPlexSans-Light, IBM Plex Sans" font-weight="300"><tspan x="-12.576" y="0">-80</tspan></text>
      <text id="_-90" data-name="-90" transform="translate(635.789 13640.974)" fill="#606060" font-size="15.75" font-family="IBMPlexSans-Light, IBM Plex Sans" font-weight="300"><tspan x="-12.576" y="0">-90</tspan></text>
      <text id="Ukraine" transform="translate(1087.651 13672.113) rotate(-90)" fill="#606060" font-size="15.75" font-family="IBMPlexSans-Light, IBM Plex Sans" font-weight="300"><tspan x="-26.869" y="0">Ukraine</tspan></text>
      <text id="Moldova" transform="translate(853.495 13674.692) rotate(-90)" fill="#606060" font-size="15.75" font-family="IBMPlexSans-Light, IBM Plex Sans" font-weight="300"><tspan x="-29.365" y="0">Moldova</tspan></text>
      <text id="Bosnia_and_Herzegovina" data-name="Bosnia and Herzegovina" transform="translate(970.573 13728.185) rotate(-90)" fill="#606060" font-size="15.75" font-family="IBMPlexSans-Light, IBM Plex Sans" font-weight="300"><tspan x="-83.449" y="0">Bosnia and Herzegovina</tspan></text>
      <text id="Belarus" transform="translate(1254.905 13671.764) rotate(-90)" fill="#606060" font-size="15.75" font-family="IBMPlexSans-Light, IBM Plex Sans" font-weight="300"><tspan x="-26.53" y="0">Belarus</tspan></text>
      <text id="Serbia" transform="translate(836.77 13667.425) rotate(-90)" fill="#606060" font-size="15.75" font-family="IBMPlexSans-Light, IBM Plex Sans" font-weight="300"><tspan x="-22.144" y="0">Serbia</tspan></text>
      <text id="North_Macedonia" data-name="North Macedonia" transform="translate(820.044 13704.48) rotate(-90)" fill="#606060" font-size="15.75" font-family="IBMPlexSans-Light, IBM Plex Sans" font-weight="300"><tspan x="-59.604" y="0">North Macedonia</tspan></text>
      <text id="Malta" transform="translate(753.143 13664.659) rotate(-90)" fill="#606060" font-size="15.75" font-family="IBMPlexSans-Light, IBM Plex Sans" font-weight="300"><tspan x="-19.309" y="0">Malta</tspan></text>
      <g id="Group_243" data-name="Group 243">
        <g id="Group_242" data-name="Group 242">
          <path id="Path_608" data-name="Path 608" d="M668.507,13591.931l-.707-.707-3.668,3.669-3.668-3.669-.707.707,3.168,3.168h-4.48v1h4.481l-3.169,3.169.707.707,3.668-3.668,3.668,3.668.707-.707-3.169-3.169h4.481v-1h-4.48Z" fill="#789ac4"/>
          <path id="Path_609" data-name="Path 609" d="M684.929,13579.493l-.707-.707-3.668,3.669-3.668-3.669-.707.707,3.168,3.168h-4.48v1h4.481l-3.169,3.169.707.707,3.668-3.668,3.668,3.668.707-.707-3.169-3.169h4.481v-1h-4.48Z" fill="#789ac4"/>
          <path id="Path_610" data-name="Path 610" d="M701.654,13573.277l-.707-.707-3.668,3.668-3.668-3.668-.707.707,3.168,3.168h-4.48v1h4.48l-3.168,3.168.707.707,3.668-3.668,3.668,3.668.707-.707-3.168-3.168h4.48v-1h-4.48Z" fill="#789ac4"/>
          <path id="Path_611" data-name="Path 611" d="M718.779,13571.806l-.707-.707-3.668,3.669-3.668-3.669-.707.707,3.168,3.168h-4.48v1H713.2l-3.169,3.169.707.707,3.668-3.668,3.668,3.668.707-.707-3.169-3.169h4.481v-1h-4.48Z" fill="#789ac4"/>
          <path id="Path_612" data-name="Path 612" d="M735.9,13571.482l-.707-.707-3.668,3.668-3.668-3.668-.707.707,3.168,3.168h-4.48v1h4.48l-3.168,3.168.707.707,3.668-3.668,3.668,3.668.707-.707-3.168-3.168h4.48v-1h-4.48Z" fill="#789ac4"/>
          <path id="Path_613" data-name="Path 613" d="M751.831,13559.9l-.707-.707-3.668,3.668-3.668-3.668-.707.707,3.168,3.168h-4.48v1h4.48l-3.168,3.168.707.707,3.668-3.668,3.668,3.668.707-.707-3.168-3.168h4.481v-1h-4.481Z" fill="#789ac4"/>
          <path id="Path_614" data-name="Path 614" d="M768.556,13559.618l-.707-.707-3.668,3.669-3.668-3.669-.707.707,3.168,3.168h-4.48v1h4.481l-3.169,3.169.707.707,3.668-3.668,3.668,3.668.707-.707-3.169-3.169h4.481v-1h-4.48Z" fill="#789ac4"/>
          <path id="Path_615" data-name="Path 615" d="M785.681,13549.806l-.707-.707-3.668,3.669-3.668-3.669-.707.707,3.168,3.168h-4.48v1H780.1l-3.169,3.169.707.707,3.668-3.668,3.668,3.668.707-.707-3.169-3.169h4.481v-1h-4.48Z" fill="#789ac4"/>
          <path id="Path_616" data-name="Path 616" d="M801.681,13539.618l-.707-.707-3.668,3.669-3.668-3.669-.707.707,3.168,3.168h-4.48v1H796.1l-3.169,3.169.707.707,3.668-3.668,3.668,3.668.707-.707-3.169-3.169h4.481v-1h-4.48Z" fill="#789ac4"/>
          <path id="Path_617" data-name="Path 617" d="M818.732,13534.993l-.707-.707-3.668,3.669-3.668-3.669-.707.707,3.168,3.168h-4.48v1h4.481l-3.169,3.169.707.707,3.668-3.668,3.668,3.668.707-.707-3.169-3.169h4.481v-1h-4.48Z" fill="#789ac4"/>
          <path id="Path_618" data-name="Path 618" d="M835.732,13533.431l-.707-.707-3.668,3.669-3.668-3.669-.707.707,3.168,3.168h-4.48v1h4.481l-3.169,3.169.707.707,3.668-3.668,3.668,3.668.707-.707-3.169-3.169h4.481v-1h-4.48Z" fill="#789ac4"/>
          <path id="Path_619" data-name="Path 619" d="M852.183,13524.618l-.707-.707-3.668,3.669-3.668-3.669-.707.707,3.168,3.168h-4.48v1H846.6l-3.169,3.169.707.707,3.668-3.668,3.668,3.668.707-.707-3.169-3.169H853.5v-1h-4.48Z" fill="#789ac4"/>
          <path id="Path_620" data-name="Path 620" d="M868.908,13521.118l-.707-.707-3.668,3.669-3.668-3.669-.707.707,3.168,3.168h-4.48v1h4.481l-3.169,3.169.707.707,3.668-3.668,3.668,3.668.707-.707-3.169-3.169h4.481v-1h-4.48Z" fill="#789ac4"/>
          <path id="Path_621" data-name="Path 621" d="M886.07,13517.993l-.707-.707-3.668,3.669-3.668-3.669-.707.707,3.168,3.168h-4.48v1h4.481l-3.169,3.169.707.707,3.668-3.668,3.668,3.668.707-.707-3.169-3.169h4.481v-1H882.9Z" fill="#789ac4"/>
          <path id="Path_622" data-name="Path 622" d="M902.359,13511.368l-.707-.707-3.668,3.669-3.668-3.669-.707.707,3.168,3.168H892.3v1h4.481l-3.169,3.169.707.707,3.668-3.668,3.668,3.668.707-.707-3.169-3.169h4.481v-1h-4.48Z" fill="#789ac4"/>
          <path id="Path_623" data-name="Path 623" d="M919.084,13510.556l-.707-.707-3.668,3.669-3.668-3.669-.707.707,3.168,3.168h-4.48v1H913.5l-3.169,3.169.707.707,3.668-3.668,3.668,3.668.707-.707-3.169-3.169H920.4v-1h-4.48Z" fill="#789ac4"/>
          <path id="Path_624" data-name="Path 624" d="M936.257,13510.118l-.707-.707-3.668,3.669-3.668-3.669-.707.707,3.168,3.168h-4.48v1h4.481l-3.169,3.169.707.707,3.668-3.668,3.668,3.668.707-.707-3.169-3.169h4.481v-1h-4.48Z" fill="#789ac4"/>
          <path id="Path_625" data-name="Path 625" d="M953.43,13505.056l-.707-.707-3.668,3.669-3.668-3.669-.707.707,3.168,3.168h-4.48v1h4.481l-3.169,3.169.707.707,3.668-3.668,3.668,3.668.707-.707-3.169-3.169h4.481v-1h-4.48Z" fill="#789ac4"/>
          <path id="Path_626" data-name="Path 626" d="M969.261,13501.681l-.707-.707-3.668,3.669-3.668-3.669-.708.707,3.168,3.168H959.2v1h4.481l-3.169,3.169.708.707,3.668-3.668,3.668,3.668.707-.707-3.169-3.169h4.481v-1h-4.48Z" fill="#789ac4"/>
          <path id="Path_627" data-name="Path 627" d="M986.448,13500.306l-.707-.707-3.668,3.669-3.668-3.669-.707.707,3.168,3.168h-4.48v1h4.481l-3.169,3.169.707.707,3.668-3.668,3.668,3.668.707-.707-3.169-3.169h4.481v-1h-4.48Z" fill="#789ac4"/>
          <path id="Path_628" data-name="Path 628" d="M1003.636,13499.618l-.707-.707-3.668,3.669-3.668-3.669-.707.707,3.168,3.168h-4.48v1h4.481l-3.169,3.169.707.707,3.668-3.668,3.668,3.668.707-.707-3.169-3.169h4.481v-1h-4.48Z" fill="#789ac4"/>
          <path id="Path_629" data-name="Path 629" d="M1019.437,13499.243l-.707-.707-3.668,3.669-3.668-3.669-.707.707,3.168,3.168h-4.48v1h4.481l-3.169,3.169.707.707,3.668-3.668,3.668,3.668.707-.707-3.169-3.169h4.481v-1h-4.48Z" fill="#789ac4"/>
          <path id="Path_630" data-name="Path 630" d="M1036.441,13496.864l-.707-.707-3.668,3.669-3.668-3.669-.707.707,3.168,3.168h-4.48v1h4.481l-3.169,3.169.707.707,3.668-3.668,3.668,3.668.707-.707-3.169-3.169h4.48v-1h-4.479Z" fill="#789ac4"/>
          <path id="Path_631" data-name="Path 631" d="M1053.445,13495.868l-.707-.707-3.668,3.669-3.668-3.669-.707.707,3.168,3.168h-4.48v1h4.481l-3.169,3.169.707.707,3.668-3.668,3.668,3.668.707-.707-3.169-3.169h4.48v-1h-4.479Z" fill="#789ac4"/>
          <path id="Path_632" data-name="Path 632" d="M1069.613,13494.993l-.707-.707-3.668,3.669-3.668-3.669-.707.707,3.168,3.168h-4.479v1h4.48l-3.169,3.169.707.707,3.668-3.668,3.668,3.668.707-.707-3.169-3.169h4.481v-1h-4.48Z" fill="#789ac4"/>
          <path id="Path_633" data-name="Path 633" d="M1086.82,13492.118l-.707-.707-3.668,3.669-3.668-3.669-.707.707,3.168,3.168h-4.48v1h4.481l-3.169,3.169.707.707,3.668-3.668,3.668,3.668.707-.707-3.169-3.169h4.48v-1h-4.479Z" fill="#789ac4"/>
          <path id="Path_634" data-name="Path 634" d="M1103.7,13491.306l-.707-.707-3.668,3.669-3.668-3.669-.707.707,3.168,3.168h-4.48v1h4.481l-3.169,3.169.707.707,3.668-3.668,3.668,3.668.707-.707-3.169-3.169h4.48v-1h-4.479Z" fill="#789ac4"/>
          <path id="Path_635" data-name="Path 635" d="M1120.289,13490.149l-.707-.707-3.668,3.669-3.668-3.669-.707.707,3.168,3.168h-4.48v1h4.481l-3.169,3.169.707.707,3.668-3.668,3.668,3.668.707-.707-3.169-3.169h4.48v-1h-4.479Z" fill="#789ac4"/>
          <path id="Path_636" data-name="Path 636" d="M1136.945,13487.181l-.707-.707-3.668,3.669-3.668-3.669-.707.707,3.168,3.168h-4.48v1h4.481l-3.169,3.169.707.707,3.668-3.668,3.668,3.668.707-.707-3.169-3.169h4.48v-1h-4.479Z" fill="#789ac4"/>
          <path id="Path_637" data-name="Path 637" d="M1154.07,13486.868l-.707-.707-3.668,3.669-3.668-3.669-.707.707,3.168,3.168h-4.48v1h4.481l-3.169,3.169.707.707,3.668-3.668,3.668,3.668.707-.707-3.169-3.169h4.48v-1H1150.9Z" fill="#789ac4"/>
          <path id="Path_638" data-name="Path 638" d="M1170.539,13475.774l-.707-.707-3.668,3.669-3.668-3.669-.707.707,3.168,3.168h-4.48v1h4.481l-3.169,3.169.707.707,3.668-3.668,3.668,3.668.707-.707-3.169-3.169h4.48v-1h-4.479Z" fill="#789ac4"/>
          <path id="Path_639" data-name="Path 639" d="M1187.008,13475.493l-.707-.707-3.668,3.669-3.668-3.669-.707.707,3.168,3.168h-4.48v1h4.481l-3.169,3.169.707.707,3.668-3.668,3.668,3.668.707-.707-3.169-3.169h4.48v-1h-4.479Z" fill="#789ac4"/>
          <path id="Path_640" data-name="Path 640" d="M1204.2,13468.015l-.707-.707-3.668,3.669-3.668-3.669-.707.707,3.168,3.168h-4.48v1h4.481l-3.169,3.169.707.707,3.668-3.668,3.668,3.668.707-.707-3.169-3.169h4.48v-1h-4.479Z" fill="#789ac4"/>
          <path id="Path_641" data-name="Path 641" d="M1221.258,13457.681l-.707-.707-3.668,3.669-3.668-3.669-.707.707,3.168,3.168h-4.48v1h4.481l-3.169,3.169.707.707,3.668-3.668,3.668,3.668.707-.707-3.169-3.169h4.48v-1h-4.479Z" fill="#789ac4"/>
          <path id="Path_642" data-name="Path 642" d="M1237.2,13442.181l-.707-.707-3.668,3.669-3.668-3.669-.707.707,3.168,3.168h-4.48v1h4.481l-3.169,3.169.707.707,3.668-3.668,3.668,3.668.707-.707-3.169-3.169h4.48v-1h-4.479Z" fill="#789ac4"/>
          <path id="Path_643" data-name="Path 643" d="M1255.507,13412.6h-4.479l3.168-3.168-.707-.707-3.668,3.669-3.668-3.669-.707.707,3.168,3.168h-4.48v1h4.481l-3.169,3.169.707.707,3.668-3.668,3.668,3.668.707-.707-3.169-3.169h4.48Z" fill="#789ac4"/>
        </g>
      </g>
      <path id="Path_644" data-name="Path 644" d="M655.5,13354.557v281.5h603" fill="none" stroke="#a7a9ac" stroke-miterlimit="10" stroke-width="1.417"/>
    </g>
  </g>
</svg>
