<svg xmlns="http://www.w3.org/2000/svg" width="100%" height="100%" viewBox="0 0 780.355 398.648">
  <g id="Group_735" data-name="Group 735" transform="translate(-1079 -4567)">
    <rect id="Rectangle_502" data-name="Rectangle 502" width="780.355" height="398.648" transform="translate(1079 4567)" fill="#fff"/>
    <g id="Group_513" data-name="Group 513" transform="translate(-6.521 -32.24)">
      <line id="Line_88" data-name="Line 88" x2="661.549" transform="translate(1181.047 4910.824)" fill="none" stroke="#a7a9ac" stroke-miterlimit="10" stroke-width="1.417"/>
      <path id="Path_1081" data-name="Path 1081" d="M1181.047,4660.408h661.548m-661.548,31.351h661.548m-661.548,31.34h661.548m-661.548,31.164h661.548M1181.047,4785.6h661.548m-661.548,31.34h661.548m-661.548,31.339h661.548m-661.548,31.164h661.548" fill="none" stroke="#a7a9ac" stroke-miterlimit="10" stroke-width="1.417"/>
      <rect id="Rectangle_503" data-name="Rectangle 503" width="38.727" height="6.051" transform="translate(1311.834 4904.779)" fill="#cd2f34"/>
      <rect id="Rectangle_504" data-name="Rectangle 504" width="38.727" height="35.754" transform="translate(1371.478 4875.075)" fill="#cd2f34"/>
      <rect id="Rectangle_505" data-name="Rectangle 505" width="38.727" height="57.621" transform="translate(1431.121 4853.208)" fill="#cd2f34"/>
      <rect id="Rectangle_506" data-name="Rectangle 506" width="38.727" height="78.576" transform="translate(1490.765 4832.253)" fill="#cd2f34"/>
      <rect id="Rectangle_507" data-name="Rectangle 507" width="38.727" height="104.636" transform="translate(1550.408 4806.193)" fill="#cd2f34"/>
      <rect id="Rectangle_508" data-name="Rectangle 508" width="38.727" height="132.506" transform="translate(1610.052 4778.323)" fill="#cd2f34"/>
      <rect id="Rectangle_509" data-name="Rectangle 509" width="38.727" height="158.028" transform="translate(1669.713 4752.801)" fill="#cd2f34"/>
      <rect id="Rectangle_510" data-name="Rectangle 510" width="38.727" height="186.273" transform="translate(1729.357 4724.557)" fill="#cd2f34"/>
      <rect id="Rectangle_511" data-name="Rectangle 511" width="38.727" height="228.72" transform="translate(1789.001 4682.109)" fill="#cd2f34"/>
      <text id="_0" data-name="0" transform="translate(1161.051 4914.655)" fill="#606060" font-size="14.314" font-family="IBMPlexSans, IBM Plex Sans"><tspan x="0" y="0">0</tspan></text>
      <text id="_200000" data-name="200000" transform="translate(1118.109 4883.368)" fill="#606060" font-size="14.314" font-family="IBMPlexSans, IBM Plex Sans"><tspan x="0" y="0">200000</tspan></text>
      <text id="_400000" data-name="400000" transform="translate(1118.109 4852.07)" fill="#606060" font-size="14.314" font-family="IBMPlexSans, IBM Plex Sans"><tspan x="0" y="0">400000</tspan></text>
      <text id="_600000" data-name="600000" transform="translate(1118.109 4820.772)" fill="#606060" font-size="14.314" font-family="IBMPlexSans, IBM Plex Sans"><tspan x="0" y="0">600000</tspan></text>
      <text id="_800000" data-name="800000" transform="translate(1118.109 4789.474)" fill="#606060" font-size="14.314" font-family="IBMPlexSans, IBM Plex Sans"><tspan x="0" y="0">800000</tspan></text>
      <text id="_1000000" data-name="1000000" transform="translate(1109.521 4758.155)" fill="#606060" font-size="14.314" font-family="IBMPlexSans, IBM Plex Sans"><tspan x="0" y="0">1000000</tspan></text>
      <text id="_1200000" data-name="1200000" transform="translate(1109.521 4726.847)" fill="#606060" font-size="14.314" font-family="IBMPlexSans, IBM Plex Sans"><tspan x="0" y="0">1200000</tspan></text>
      <text id="_1400000" data-name="1400000" transform="translate(1109.521 4695.549)" fill="#606060" font-size="14.314" font-family="IBMPlexSans, IBM Plex Sans"><tspan x="0" y="0">1400000</tspan></text>
      <text id="_1600000" data-name="1600000" transform="translate(1109.521 4664.24)" fill="#606060" font-size="14.314" font-family="IBMPlexSans, IBM Plex Sans"><tspan x="0" y="0">1600000</tspan></text>
      <rect id="Rectangle_512" data-name="Rectangle 512" width="38.727" height="0.187" transform="translate(1194.397 4909.792)" fill="#cd2f34"/>
      <rect id="Rectangle_513" data-name="Rectangle 513" width="38.727" height="0.409" transform="translate(1252.804 4909.57)" fill="#cd2f34"/>
      <text id="Jan" transform="translate(1202.225 4944.305)" fill="#606060" font-size="14.314" font-family="IBMPlexSans, IBM Plex Sans"><tspan x="0" y="0">Jan</tspan></text>
      <text id="Feb" transform="translate(1260.086 4944.305)" fill="#606060" font-size="14.314" font-family="IBMPlexSans, IBM Plex Sans"><tspan x="0" y="0">Feb</tspan></text>
      <text id="Mar" transform="translate(1318.938 4944.305)" fill="#606060" font-size="14.314" font-family="IBMPlexSans, IBM Plex Sans"><tspan x="0" y="0">Mar</tspan></text>
      <text id="Apr" transform="translate(1380.327 4944.305)" fill="#606060" font-size="14.314" font-family="IBMPlexSans, IBM Plex Sans"><tspan x="0" y="0">Apr</tspan></text>
      <text id="May" transform="translate(1438.131 4944.305)" fill="#606060" font-size="14.314" font-family="IBMPlexSans, IBM Plex Sans"><tspan x="0" y="0">May</tspan></text>
      <text id="Jun" transform="translate(1498.349 4944.305)" fill="#606060" font-size="14.314" font-family="IBMPlexSans, IBM Plex Sans"><tspan x="0" y="0">Jun</tspan></text>
      <text id="Jul" transform="translate(1560.961 4944.305)" fill="#606060" font-size="14.314" font-family="IBMPlexSans, IBM Plex Sans"><tspan x="0" y="0">Jul</tspan></text>
      <text id="Aug" transform="translate(1616.984 4944.305)" fill="#606060" font-size="14.314" font-family="IBMPlexSans, IBM Plex Sans"><tspan x="0" y="0">Aug</tspan></text>
      <text id="Sep" transform="translate(1677.689 4944.305)" fill="#606060" font-size="14.314" font-family="IBMPlexSans, IBM Plex Sans"><tspan x="0" y="0">Sep</tspan></text>
      <text id="Oct" transform="translate(1738.393 4944.305)" fill="#606060" font-size="14.314" font-family="IBMPlexSans, IBM Plex Sans"><tspan x="0" y="0">Oct</tspan></text>
      <text id="Nov" transform="translate(1796.625 4944.305)" fill="#606060" font-size="14.314" font-family="IBMPlexSans, IBM Plex Sans"><tspan x="0" y="0">Nov</tspan></text>
    </g>
  </g>
</svg>
