<?xml version="1.0" encoding="utf-8"?>
<!-- Generator: Adobe Illustrator 22.0.1, SVG Export Plug-In . SVG Version: 6.00 Build 0)  -->
<svg version="1.1" id="Слой_1" xmlns="http://www.w3.org/2000/svg" xmlns:xlink="http://www.w3.org/1999/xlink" x="0px" y="0px"
	 viewBox="0 0 923.9 449.9" style="enable-background:new 0 0 923.9 449.9;" xml:space="preserve">
<style type="text/css">
	.pts0{fill:#FFFFFF;}
	.pst1{fill:#606060;}
	.pst2{font-family:'ArialMT';}
	.pst3{font-size:14.314px;}
	.pst4{fill:#222B3E;}
	.pst5{fill:#D02F34;}
	.st6{font-size:15.564px;}
	.st7{font-family:'Arial-BoldMT';}
	.st8{font-size:39.659px;}
	.st9{font-size:17.66px;}
</style>
<g transform="translate(-498.074 -15261.336)">
	<rect x="498.8" y="15290.8" class="pts0" width="922.4" height="419.7"/>
	<text transform="matrix(1 0 0 1 1067.7145 15665.4482)" class="pst1 pst2 pst3">Up to </text>
	<text transform="matrix(1 0 0 1 1061.1875 15682.624)" class="pst1 pst2 pst3">May ‘20</text>
	<text transform="matrix(1 0 0 1 1146.4816 15665.4482)" class="pst1 pst2 pst3">Jun ‘20</text>
	<text transform="matrix(1 0 0 1 1137.6495 15682.624)" class="pst1 pst2 pst3">to Aug ‘20</text>
	<rect x="1062.5" y="15493.7" class="pst4" width="48.2" height="146.3"/>
	<rect x="1062.5" y="15380.8" class="pst5" width="48.2" height="112.9"/>
	<text transform="matrix(1 0 0 1 1070.8986 15572.9268)" class="pts0 pst2 st6">56%</text>
	<text transform="matrix(1 0 0 1 1070.9305 15443.3066)" class="pts0 pst2 st6">44%</text>
	<rect x="1146.3" y="15485.2" class="pst4" width="48.4" height="154.7"/>
	<rect x="1146.3" y="15380.7" class="pst5" width="48.4" height="104.5"/>
	<text transform="matrix(1 0 0 1 1154.7896 15568.5791)" class="pts0 pst2 st6">60%</text>
	<text transform="matrix(1 0 0 1 1154.8256 15438.9639)" class="pts0 pst2 st6">40%</text>
	<rect x="1230.5" y="15489.9" class="pst4" width="48.2" height="149.9"/>
	<rect x="1230.5" y="15380.7" class="pst5" width="48.2" height="109.3"/>
	<text transform="matrix(1 0 0 1 1238.9115 15570.9219)" class="pts0 pst2 st6">58%</text>
	<text transform="matrix(1 0 0 1 1238.9565 15441.3018)" class="pts0 pst2 st6">42%</text>
	<text transform="matrix(1 0 0 1 1230.1505 15665.4482)" class="pst1 pst2 pst3">Sep ‘20</text>
	<text transform="matrix(1 0 0 1 1221.6765 15682.624)" class="pst1 pst2 pst3">to Nov ‘20</text>
	<text transform="matrix(1 0 0 1 1106.8094 15347.4238)" class="pst1 st7 st8">Deaths</text>
	<text transform="matrix(1 0 0 1 715.7245 15347.4238)" class="pst1 st7 st8">Cases</text>
	<text transform="matrix(1 0 0 1 871.2875 15665.4482)" class="pst1 pst2 pst3">Dec ‘20</text>
	<text transform="matrix(1 0 0 1 861.8475 15682.624)" class="pst1 pst2 pst3"> to Feb ‘21</text>
	<rect x="871.7" y="15511.1" class="pst4" width="48.2" height="128.4"/>
	<rect x="871.7" y="15379.5" class="pst5" width="48.2" height="131.6"/>
	<text transform="matrix(1 0 0 1 880.2115 15580.4951)" class="pts0 pst2 st6">49%</text>
	<text transform="matrix(1 0 0 1 880.2425 15450.8828)" class="pts0 pst2 st6">51%</text>
	<text transform="matrix(1 0 0 1 624.1125 15665.4482)" class="pst1 pst2 pst3">Up to </text>
	<text transform="matrix(1 0 0 1 617.5856 15682.624)" class="pst1 pst2 pst3">May ‘20</text>
	<text transform="matrix(1 0 0 1 700.8505 15665.4482)" class="pst1 pst2 pst3">Jun ‘20</text>
	<text transform="matrix(1 0 0 1 690.3295 15682.624)" class="pst1 pst2 pst3"> to Aug ‘20</text>
	<rect x="618.9" y="15514.3" class="pst4" width="48.2" height="125.2"/>
	<rect x="618.9" y="15379.5" class="pst5" width="48.2" height="134.8"/>
	<text transform="matrix(1 0 0 1 627.2405 15583.2891)" class="pts0 pst2 st6">48%</text>
	<text transform="matrix(1 0 0 1 627.2785 15453.6689)" class="pts0 pst2 st6">52%</text>
	<rect x="700.8" y="15509.5" class="pst4" width="48.2" height="130"/>
	<rect x="700.8" y="15379.5" class="pst5" width="48.2" height="130"/>
	<text transform="matrix(1 0 0 1 709.2235 15579.3115)" class="pts0 pst2 st6">50%</text>
	<text transform="matrix(1 0 0 1 709.2545 15449.6992)" class="pts0 pst2 st6">50%</text>
	<rect x="787.2" y="15506.3" class="pst4" width="48.1" height="133.2"/>
	<rect x="787.2" y="15379.5" class="pst5" width="48.1" height="126.8"/>
	<text transform="matrix(1 0 0 1 795.4815 15579.1396)" class="pts0 pst2 st6">52%</text>
	<text transform="matrix(1 0 0 1 795.5135 15449.5244)" class="pts0 pst2 st6">48%</text>
	<text transform="matrix(1 0 0 1 785.1335 15665.4482)" class="pst1 pst2 pst3">Sep ‘20 </text>
	<text transform="matrix(1 0 0 1 778.3485 15682.624)" class="pst1 pst2 pst3">to Nov ‘20</text>
</g>
<g transform="translate(-897.822 -15230.272)">
	<rect x="1287.1" y="15241.7" class="pst4" width="9.8" height="9.8"/>
	<text transform="matrix(1 0 0 1 1301.006 15251.5381)" class="pst4 pst2 st9">Male</text>
	<rect x="1350.4" y="15241.7" class="pst5" width="9.8" height="9.8"/>
	<text transform="matrix(1 0 0 1 1364.3259 15251.5381)" class="pst5 pst2 st9">Female</text>
</g>
</svg>
