<svg xmlns="http://www.w3.org/2000/svg" width="100%" height="100%" style="background: white" viewBox="0 0 971.121 398.648">
  <g id="Group_732" data-name="Group 732" transform="translate(-61 -4567)">
    <rect id="Rectangle_414" data-name="Rectangle 414" width="971.121" height="398.648" transform="translate(61 4567)" fill="#fff"/>
    <g id="Group_512" data-name="Group 512" transform="translate(-2.317 -6.664)">
      <path id="Path_661" data-name="Path 661" d="M151.171,4866.273h865.542m-865.542-51.888h865.542M151.171,4762.5h865.542m-865.542-51.889h865.542m-865.542-51.667h865.542m-865.542-51.889h865.542" fill="none" stroke="#a7a9ac" stroke-miterlimit="10" stroke-width="1.417"/>
      <line id="Line_60" data-name="Line 60" x2="865.543" transform="translate(151.171 4918.162)" fill="none" stroke="#a7a9ac" stroke-miterlimit="10" stroke-width="1.417"/>
      <text id="_0" data-name="0" transform="translate(127.446 4922.756)" fill="#606060" font-size="14.314" font-family="IBMPlexSans, IBM Plex Sans"><tspan x="0" y="0">0</tspan></text>
      <text id="_50.000" data-name="50.000" transform="translate(89.711 4870.919)" fill="#606060" font-size="14.314" font-family="IBMPlexSans, IBM Plex Sans"><tspan x="0" y="0">50.000</tspan></text>
      <text id="_100.000" data-name="100.000" transform="translate(81.316 4819.069)" fill="#606060" font-size="14.314" font-family="IBMPlexSans, IBM Plex Sans"><tspan x="0" y="0">100.000</tspan></text>
      <text id="_150.000" data-name="150.000" transform="translate(81.316 4767.217)" fill="#606060" font-size="14.314" font-family="IBMPlexSans, IBM Plex Sans"><tspan x="0" y="0">150.000</tspan></text>
      <text id="_200.000" data-name="200.000" transform="translate(81.316 4715.367)" fill="#606060" font-size="14.314" font-family="IBMPlexSans, IBM Plex Sans"><tspan x="0" y="0">200.000</tspan></text>
      <text id="_250.000" data-name="250.000" transform="translate(81.316 4663.515)" fill="#606060" font-size="14.314" font-family="IBMPlexSans, IBM Plex Sans"><tspan x="0" y="0">250.000</tspan></text>
      <text id="_300.000" data-name="300.000" transform="translate(81.316 4611.665)" fill="#606060" font-size="14.314" font-family="IBMPlexSans, IBM Plex Sans"><tspan x="0" y="0">300.000</tspan></text>
      <text id="Jan" transform="translate(179.584 4944.305)" fill="#606060" font-size="14.314" font-family="IBMPlexSans, IBM Plex Sans"><tspan x="0" y="0">Jan</tspan></text>
      <text id="Feb" transform="translate(256.938 4944.305)" fill="#606060" font-size="14.314" font-family="IBMPlexSans, IBM Plex Sans"><tspan x="0" y="0">Feb</tspan></text>
      <text id="Mar" transform="translate(333.958 4944.305)" fill="#606060" font-size="14.314" font-family="IBMPlexSans, IBM Plex Sans"><tspan x="0" y="0">Mar</tspan></text>
      <text id="Apr" transform="translate(414.53 4944.305)" fill="#606060" font-size="14.314" font-family="IBMPlexSans, IBM Plex Sans"><tspan x="0" y="0">Apr</tspan></text>
      <text id="May" transform="translate(490.46 4944.305)" fill="#606060" font-size="14.314" font-family="IBMPlexSans, IBM Plex Sans"><tspan x="0" y="0">May</tspan></text>
      <text id="Jun" transform="translate(572.586 4944.305)" fill="#606060" font-size="14.314" font-family="IBMPlexSans, IBM Plex Sans"><tspan x="0" y="0">Jun</tspan></text>
      <text id="Jul" transform="translate(653.705 4944.305)" fill="#606060" font-size="14.314" font-family="IBMPlexSans, IBM Plex Sans"><tspan x="0" y="0">Jul</tspan></text>
      <text id="Aug" transform="translate(728.238 4944.305)" fill="#606060" font-size="14.314" font-family="IBMPlexSans, IBM Plex Sans"><tspan x="0" y="0">Aug</tspan></text>
      <text id="Sep" transform="translate(807.676 4944.305)" fill="#606060" font-size="14.314" font-family="IBMPlexSans, IBM Plex Sans"><tspan x="0" y="0">Sep</tspan></text>
      <text id="Oct" transform="translate(886.869 4944.305)" fill="#606060" font-size="14.314" font-family="IBMPlexSans, IBM Plex Sans"><tspan x="0" y="0">Oct</tspan></text>
      <text id="Nov" transform="translate(963.848 4944.305)" fill="#606060" font-size="14.314" font-family="IBMPlexSans, IBM Plex Sans"><tspan x="0" y="0">Nov</tspan></text>
      <line id="Line_61" data-name="Line 61" x1="2.617" y2="311.441" transform="translate(530.949 4606.39)" fill="none" stroke="#a7a9ac" stroke-linejoin="round" stroke-width="1.417" stroke-dasharray="8.048 10.729"/>
      <line id="Line_62" data-name="Line 62" x1="2.617" y2="311.441" transform="translate(868.312 4606.39)" fill="none" stroke="#a7a9ac" stroke-linejoin="round" stroke-width="1.417" stroke-dasharray="8.048 10.729"/>
      <path id="Path_662" data-name="Path 662" d="M190.584,4917.831l78.605-2.429,78.605-34.445,78.826-158.977,78.605,50.785,78.605,6.4,78.826-33.341,78.605-13.027,78.605,17.222,78.826-19.651,78.605-93.179" fill="none" stroke="#cd2f34" stroke-miterlimit="10" stroke-width="3.682"/>
      <path id="Path_663" data-name="Path 663" d="M569.479,4918.272l60.058-60.5,60.279-79.047,60.058,46.147,60.279,46.589,60.058-58.292,60.279-106.206" fill="none" stroke="#cd2f34" stroke-linecap="round" stroke-linejoin="round" stroke-width="2.682" stroke-dasharray="8.047 10.729"/>
      <text id="_-" data-name="-" transform="translate(552.332 4900.878)" fill="#606060" font-size="14.314" font-family="IBMPlexSans, IBM Plex Sans"><tspan x="0" y="0">-</tspan></text>
      <text id="_26_" data-name="26%" transform="translate(557.406 4900.878)" fill="#606060" font-size="14.314" font-family="IBMPlexSans, IBM Plex Sans"><tspan x="0" y="0">26%</tspan></text>
      <text id="_--2" data-name="-" transform="translate(616.688 4840.444)" fill="#606060" font-size="14.314" font-family="IBMPlexSans, IBM Plex Sans"><tspan x="0" y="0">-</tspan></text>
      <text id="_4_" data-name="4%" transform="translate(621.764 4840.444)" fill="#606060" font-size="14.314" font-family="IBMPlexSans, IBM Plex Sans"><tspan x="0" y="0">4%</tspan></text>
      <text id="_24_" data-name="24%" transform="translate(675.297 4761.324)" fill="#606060" font-size="14.314" font-family="IBMPlexSans, IBM Plex Sans"><tspan x="0" y="0">24%</tspan></text>
      <text id="_7_" data-name="7%" transform="translate(739.639 4807.425)" fill="#606060" font-size="14.314" font-family="IBMPlexSans, IBM Plex Sans"><tspan x="0" y="0">7%</tspan></text>
      <text id="_--3" data-name="-" transform="translate(797.154 4854.086)" fill="#777" font-size="13" font-family="IBMPlexSans-SemiBold, IBM Plex Sans" font-weight="600"><tspan x="0" y="0">-</tspan></text>
      <text id="_9_" data-name="9%" transform="translate(802.229 4854.086)" fill="#606060" font-size="14.314" font-family="IBMPlexSans, IBM Plex Sans"><tspan x="0" y="0">9%</tspan></text>
      <text id="_12_" data-name="12%" transform="translate(855.762 4795.781)" fill="#606060" font-size="14.314" font-family="IBMPlexSans, IBM Plex Sans"><tspan x="0" y="0">12%</tspan></text>
      <text id="_50_" data-name="50%" transform="translate(904.945 4689.65)" fill="#606060" font-size="14.314" font-family="IBMPlexSans, IBM Plex Sans"><tspan x="0" y="0">50%</tspan></text>
    </g>
  </g>
</svg>
