<svg xmlns="http://www.w3.org/2000/svg" width="100%" height="100%" viewBox="0 0 793.149 398.648">
  <g id="Group_734" data-name="Group 734" transform="translate(-1073 -5098)">
    <rect id="Rectangle_90" data-name="Rectangle 90" width="793.149" height="398.648" transform="translate(1073 5098)" fill="#fff"/>
    <g id="Group_515" data-name="Group 515" transform="translate(-3.427 -3.775)">
      <path id="Path_651" data-name="Path 651" d="M1821.431,5161.065v313.167m-68.7-313.167v313.167m-68.737-313.167v313.167m-68.737-313.167v313.167m-68.736-313.167v313.167m-68.737-313.167v313.167m-68.736-313.167v313.167m-68.737-313.167v313.167m-68.5-313.167v313.167m-68.737-313.167v313.167" fill="none" stroke="#a7a9ac" stroke-miterlimit="10" stroke-width="1.417"/>
      <rect id="Rectangle_92" data-name="Rectangle 92" width="34.358" height="11.386" transform="translate(1134.277 5169.607)" fill="#222b3e"/>
      <rect id="Rectangle_93" data-name="Rectangle 93" width="34.358" height="11.388" transform="translate(1134.277 5169.607)" fill="#222b3e"/>
      <rect id="Rectangle_94" data-name="Rectangle 94" width="178.661" height="11.386" transform="translate(1134.277 5198.077)" fill="#222b3e"/>
      <rect id="Rectangle_95" data-name="Rectangle 95" width="178.661" height="11.386" transform="translate(1134.277 5198.077)" fill="#222b3e"/>
      <rect id="Rectangle_96" data-name="Rectangle 96" width="570.338" height="11.388" transform="translate(1134.277 5226.546)" fill="#222b3e"/>
      <rect id="Rectangle_97" data-name="Rectangle 97" width="570.338" height="11.388" transform="translate(1134.277 5226.546)" fill="#222b3e"/>
      <rect id="Rectangle_98" data-name="Rectangle 98" width="570.338" height="11.386" transform="translate(1134.277 5255.017)" fill="#222b3e"/>
      <rect id="Rectangle_99" data-name="Rectangle 99" width="570.338" height="11.386" transform="translate(1134.277 5255.017)" fill="#222b3e"/>
      <rect id="Rectangle_100" data-name="Rectangle 100" width="329.834" height="11.388" transform="translate(1134.277 5283.485)" fill="#222b3e"/>
      <rect id="Rectangle_101" data-name="Rectangle 101" width="329.836" height="11.388" transform="translate(1134.277 5283.485)" fill="#222b3e"/>
      <rect id="Rectangle_102" data-name="Rectangle 102" width="137.431" height="11.388" transform="translate(1134.277 5311.956)" fill="#222b3e"/>
      <rect id="Rectangle_103" data-name="Rectangle 103" width="137.431" height="11.388" transform="translate(1134.277 5311.956)" fill="#222b3e"/>
      <rect id="Rectangle_104" data-name="Rectangle 104" width="426.035" height="11.388" transform="translate(1134.277 5340.424)" fill="#222b3e"/>
      <rect id="Rectangle_105" data-name="Rectangle 105" width="426.035" height="11.388" transform="translate(1134.277 5340.424)" fill="#222b3e"/>
      <rect id="Rectangle_106" data-name="Rectangle 106" width="281.733" height="11.388" transform="translate(1134.277 5368.895)" fill="#222b3e"/>
      <rect id="Rectangle_107" data-name="Rectangle 107" width="281.734" height="11.388" transform="translate(1134.277 5368.895)" fill="#222b3e"/>
      <rect id="Rectangle_108" data-name="Rectangle 108" width="371.064" height="11.388" transform="translate(1134.277 5397.364)" fill="#222b3e"/>
      <rect id="Rectangle_109" data-name="Rectangle 109" width="371.064" height="11.388" transform="translate(1134.277 5397.364)" fill="#222b3e"/>
      <rect id="Rectangle_110" data-name="Rectangle 110" width="432.907" height="11.388" transform="translate(1134.277 5425.834)" fill="#222b3e"/>
      <rect id="Rectangle_111" data-name="Rectangle 111" width="432.907" height="11.388" transform="translate(1134.277 5425.834)" fill="#222b3e"/>
      <rect id="Rectangle_112" data-name="Rectangle 112" width="604.695" height="11.388" transform="translate(1134.277 5454.303)" fill="#222b3e"/>
      <rect id="Rectangle_113" data-name="Rectangle 113" width="604.696" height="11.388" transform="translate(1134.277 5454.303)" fill="#222b3e"/>
      <line id="Line_54" data-name="Line 54" y2="313.167" transform="translate(1134.277 5161.065)" fill="none" stroke="#a7a9ac" stroke-miterlimit="10" stroke-width="1.417"/>
      <text id="_0_5_" data-name="0,5%" transform="translate(1177.902 5181.34)" fill="#222b3e" font-size="18.949" font-family="IBMPlexSans, IBM Plex Sans"><tspan x="0" y="0">0,5%</tspan></text>
      <text id="_2_6_" data-name="2,6%" transform="translate(1322.204 5209.812)" fill="#222b3e" font-size="18.949" font-family="IBMPlexSans, IBM Plex Sans"><tspan x="0" y="0">2,6%</tspan></text>
      <text id="_8_3_" data-name="8,3%" transform="translate(1713.881 5238.282)" fill="#222b3e" font-size="18.949" font-family="IBMPlexSans, IBM Plex Sans"><tspan x="0" y="0">8,3%</tspan></text>
      <text id="_8_3_2" data-name="8,3%" transform="translate(1713.88 5266.753)" fill="#222b3e" font-size="18.949" font-family="IBMPlexSans, IBM Plex Sans"><tspan x="0" y="0">8,3%</tspan></text>
      <text id="_4_8_" data-name="4,8%" transform="translate(1473.38 5295.222)" fill="#222b3e" font-size="18.949" font-family="IBMPlexSans, IBM Plex Sans"><tspan x="0" y="0">4,8%</tspan></text>
      <text id="_2_0_" data-name="2,0%" transform="translate(1280.975 5323.694)" fill="#222b3e" font-size="18.949" font-family="IBMPlexSans, IBM Plex Sans"><tspan x="0" y="0">2,0%</tspan></text>
      <text id="_6_2_" data-name="6,2%" transform="translate(1569.58 5352.166)" fill="#222b3e" font-size="18.949" font-family="IBMPlexSans, IBM Plex Sans"><tspan x="0" y="0">6,2%</tspan></text>
      <text id="_4_1_" data-name="4,1%" transform="translate(1425.278 5380.635)" fill="#222b3e" font-size="18.949" font-family="IBMPlexSans, IBM Plex Sans"><tspan x="0" y="0">4,1%</tspan></text>
      <text id="_5_4_" data-name="5,4%" transform="translate(1514.606 5409.106)" fill="#222b3e" font-size="18.949" font-family="IBMPlexSans, IBM Plex Sans"><tspan x="0" y="0">5,4%</tspan></text>
      <text id="_6_3_" data-name="6,3%" transform="translate(1576.449 5437.576)" fill="#222b3e" font-size="18.949" font-family="IBMPlexSans, IBM Plex Sans"><tspan x="0" y="0">6,3%</tspan></text>
      <text id="_8_8_" data-name="8,8%" transform="translate(1748.239 5466.047)" fill="#222b3e" font-size="18.949" font-family="IBMPlexSans, IBM Plex Sans"><tspan x="0" y="0">8,8%</tspan></text>
      <text id="_0_0_" data-name="0,0%" transform="translate(1123.317 5142.775)" fill="#606060" font-size="14.314" font-family="IBMPlexSans, IBM Plex Sans"><tspan x="0" y="0">0,0%</tspan></text>
      <text id="_1_0_" data-name="1,0%" transform="translate(1192.023 5142.775)" fill="#606060" font-size="14.314" font-family="IBMPlexSans, IBM Plex Sans"><tspan x="0" y="0">1,0%</tspan></text>
      <text id="_2_0_2" data-name="2,0%" transform="translate(1260.732 5142.775)" fill="#606060" font-size="14.314" font-family="IBMPlexSans, IBM Plex Sans"><tspan x="0" y="0">2,0%</tspan></text>
      <text id="_3_0_" data-name="3,0%" transform="translate(1329.438 5142.775)" fill="#606060" font-size="14.314" font-family="IBMPlexSans, IBM Plex Sans"><tspan x="0" y="0">3,0%</tspan></text>
      <text id="_4_0_" data-name="4,0%" transform="translate(1398.145 5142.775)" fill="#606060" font-size="14.314" font-family="IBMPlexSans, IBM Plex Sans"><tspan x="0" y="0">4,0%</tspan></text>
      <text id="_5_0_" data-name="5,0%" transform="translate(1466.852 5142.775)" fill="#606060" font-size="14.314" font-family="IBMPlexSans, IBM Plex Sans"><tspan x="0" y="0">5,0%</tspan></text>
      <text id="_6_0_" data-name="6,0%" transform="translate(1535.559 5142.775)" fill="#606060" font-size="14.314" font-family="IBMPlexSans, IBM Plex Sans"><tspan x="0" y="0">6,0%</tspan></text>
      <text id="_7_0_" data-name="7,0%" transform="translate(1604.264 5142.775)" fill="#606060" font-size="14.314" font-family="IBMPlexSans, IBM Plex Sans"><tspan x="0" y="0">7,0%</tspan></text>
      <text id="_8_0_" data-name="8,0%" transform="translate(1672.973 5142.775)" fill="#606060" font-size="14.314" font-family="IBMPlexSans, IBM Plex Sans"><tspan x="0" y="0">8,0%</tspan></text>
      <text id="_9_0_" data-name="9,0%" transform="translate(1741.679 5142.775)" fill="#606060" font-size="14.314" font-family="IBMPlexSans, IBM Plex Sans"><tspan x="0" y="0">9,0%</tspan></text>
      <text id="_10_0_" data-name="10,0%" transform="translate(1805.839 5142.775)" fill="#606060" font-size="14.314" font-family="IBMPlexSans, IBM Plex Sans"><tspan x="0" y="0">10,0%</tspan></text>
      <text id="Jan" transform="translate(1100.843 5180.371)" fill="#606060" font-size="14.314" font-family="IBMPlexSans, IBM Plex Sans"><tspan x="0" y="0">Jan</tspan></text>
      <text id="Feb" transform="translate(1099.402 5208.841)" fill="#606060" font-size="14.314" font-family="IBMPlexSans, IBM Plex Sans"><tspan x="0" y="0">Feb</tspan></text>
      <text id="Mar" transform="translate(1098.929 5237.313)" fill="#606060" font-size="14.314" font-family="IBMPlexSans, IBM Plex Sans"><tspan x="0" y="0">Mar</tspan></text>
      <text id="Apr" transform="translate(1101.298 5265.784)" fill="#606060" font-size="14.314" font-family="IBMPlexSans, IBM Plex Sans"><tspan x="0" y="0">Apr</tspan></text>
      <text id="May" transform="translate(1096.428 5294.253)" fill="#606060" font-size="14.314" font-family="IBMPlexSans, IBM Plex Sans"><tspan x="0" y="0">May</tspan></text>
      <text id="Jun" transform="translate(1100.198 5322.725)" fill="#606060" font-size="14.314" font-family="IBMPlexSans, IBM Plex Sans"><tspan x="0" y="0">Jun</tspan></text>
      <text id="Jul" transform="translate(1105.808 5351.196)" fill="#606060" font-size="14.314" font-family="IBMPlexSans, IBM Plex Sans"><tspan x="0" y="0">Jul</tspan></text>
      <text id="Aug" transform="translate(1098.475 5379.666)" fill="#606060" font-size="14.314" font-family="IBMPlexSans, IBM Plex Sans"><tspan x="0" y="0">Aug</tspan></text>
      <text id="Sep" transform="translate(1098.986 5408.137)" fill="#606060" font-size="14.314" font-family="IBMPlexSans, IBM Plex Sans"><tspan x="0" y="0">Sep</tspan></text>
      <text id="Oct" transform="translate(1101.79 5436.606)" fill="#606060" font-size="14.314" font-family="IBMPlexSans, IBM Plex Sans"><tspan x="0" y="0">Oct</tspan></text>
      <text id="Nov" transform="translate(1098.059 5465.078)" fill="#606060" font-size="14.314" font-family="IBMPlexSans, IBM Plex Sans"><tspan x="0" y="0">Nov</tspan></text>
    </g>
  </g>
</svg>
