<svg xmlns="http://www.w3.org/2000/svg" width="923.852" height="100%" viewBox="0 0 923.852 650.449"><defs><style>.a,.d,.l{fill:#fff;}.a,.b{stroke:#a7a9ac;stroke-miterlimit:10;}.a,.b,.t{stroke-width:1.417px;}.a,.c{fill-rule:evenodd;}.b{fill:#222b3e;}.c,.t{fill:none;}.d{font-size:28.584px;}.d,.k,.l,.m,.n,.o,.p,.q{font-family:IBMPlexSans, IBM Plex Sans;}.e,.k{fill:#606060;}.f{fill:#cf2e34;}.g,.m{fill:#212b3e;}.h{fill:#587392;}.i,.q{fill:#7899c3;}.j{fill:#a7a9ac;}.k{font-size:15.646px;}.l{font-size:14.548px;}.m,.n,.o,.p,.q{font-size:19px;}.n{fill:#acacac;}.o,.r{fill:#4c5874;}.p,.s{fill:#58595b;}.t{stroke:#c4c4c4;stroke-linejoin:round;}</style></defs><g transform="translate(-498.074 -14363.462)"><path class="a" d="M498.783,14541.492v147.194h922.435v-272.105H498.783Z"/><path class="a" d="M498.783,14866.008V15013.2h922.435V14741.1H498.783Z"/><rect class="b" width="922.435" height="52.409" transform="translate(498.783 14364.171)"/><path class="c" d="M498.783,14521.281v185.137h922.435v-342.247H498.783Z"/><rect class="b" width="922.435" height="52.409" transform="translate(498.783 14688.687)"/><text class="d" transform="translate(896.336 14724.731)"><tspan x="0" y="0">Deaths</tspan></text><text class="d" transform="translate(921.726 14400.128)"><tspan x="0" y="0">Cases</tspan></text><rect class="e" width="190.782" height="19.429" transform="translate(575.734 14627.694)"/><rect class="e" width="147.702" height="19.429" transform="translate(766.516 14627.694)"/><rect class="e" width="155.908" height="19.429" transform="translate(914.218 14627.694)"/><rect class="e" width="149.754" height="19.429" transform="translate(1070.126 14627.694)"/><rect class="e" width="147.702" height="19.429" transform="translate(1219.88 14627.694)"/><rect class="f" width="194.885" height="18.988" transform="translate(575.734 14558.801)"/><rect class="f" width="141.548" height="18.988" transform="translate(770.619 14558.801)"/><rect class="f" width="153.856" height="18.988" transform="translate(912.167 14558.801)"/><rect class="f" width="153.856" height="18.988" transform="translate(1066.023 14558.801)"/><rect class="f" width="147.702" height="18.988" transform="translate(1219.88 14558.801)"/><rect class="g" width="186.679" height="18.988" transform="translate(575.734 14489.908)"/><rect class="g" width="147.702" height="18.988" transform="translate(762.413 14489.908)"/><rect class="g" width="155.908" height="18.988" transform="translate(910.115 14489.908)"/><rect class="g" width="153.856" height="18.988" transform="translate(1066.023 14489.908)"/><rect class="g" width="147.702" height="18.988" transform="translate(1219.88 14489.908)"/><circle class="h" cx="13.702" cy="13.702" r="13.702" transform="matrix(0.925, -0.38, 0.38, 0.925, 744.536, 14491.925)"/><circle class="i" cx="13.702" cy="13.702" r="13.702" transform="translate(896.413 14485.7)"/><circle class="j" cx="13.702" cy="13.702" r="13.702" transform="translate(1050.303 14510.732) rotate(-80.783)"/><circle class="j" cx="13.702" cy="13.702" r="13.702" transform="matrix(0.16, -0.987, 0.987, 0.16, 1048.94, 14579.625)"/><circle class="j" cx="13.702" cy="13.702" r="13.702" transform="translate(1053.643 14647.375) rotate(-76.717)"/><text class="k" transform="translate(570.067 14641.914)"><tspan x="-49.709" y="0">Overall</tspan></text><text class="k" transform="translate(570.067 14504.127)"><tspan x="-33.906" y="0">Male</tspan></text><text class="k" transform="translate(570.067 14573.021)"><tspan x="-51.805" y="0">Female</tspan></text><text class="l" transform="translate(753.428 14504.505)"><tspan x="0" y="0">55</tspan></text><circle class="h" cx="13.702" cy="13.702" r="13.702" transform="translate(752.66 14575.572) rotate(-67.058)"/><text class="l" transform="translate(761.334 14573.406)"><tspan x="0" y="0">54</tspan></text><text class="l" transform="translate(1056.039 14572.95)"><tspan x="0" y="0">45</tspan></text><circle class="h" cx="13.702" cy="13.702" r="13.702" transform="translate(748.021 14628.396) rotate(-18.017)"/><text class="l" transform="translate(756.055 14642.521)"><tspan x="0" y="0">54</tspan></text><text class="l" transform="translate(1061.506 14642.064)"><tspan x="0" y="0">44</tspan></text><text class="l" transform="translate(901.261 14504.408)"><tspan x="0" y="0">40</tspan></text><text class="l" transform="translate(1057.119 14504.408)"><tspan x="0" y="0">44</tspan></text><text class="m" transform="translate(761.582 14454.476)"><tspan x="-22.809" y="0">Up to</tspan><tspan x="-33.715" y="19">May ‘20</tspan></text><text class="n" transform="translate(1066.023 14454.476)"><tspan x="-32.48" y="0">Sep ‘20</tspan><tspan x="-43.729" y="19">to Nov ‘20</tspan></text><text class="o" transform="translate(1220.278 14454.476)"><tspan x="-32.604" y="0">Dec ‘20</tspan><tspan x="-42.893" y="19">to Feb ‘21</tspan></text><text class="p" transform="translate(1356.637 14454.476)"><tspan x="-32.509" y="0">Mar ‘21</tspan><tspan x="-42.18" y="19">to May ‘21</tspan></text><text class="q" transform="translate(910.115 14454.476)"><tspan x="-34.115" y="0">Jun ‘20 </tspan><tspan x="-43.596" y="19">to Aug ‘20</tspan></text><text class="m" transform="translate(737.501 14777.957)"><tspan x="-22.809" y="0">Up to</tspan><tspan x="-33.715" y="19">May ‘20</tspan></text><text class="n" transform="translate(1041.942 14777.957)"><tspan x="-32.48" y="0">Sep ‘20</tspan><tspan x="-43.729" y="19">to Nov ‘20</tspan></text><text class="o" transform="translate(1209.622 14777.957)"><tspan x="-32.604" y="0">Dec ‘20</tspan><tspan x="-42.893" y="19">to Feb ‘21</tspan></text><text class="p" transform="translate(1355.087 14777.957)"><tspan x="-32.509" y="0">Mar ‘21</tspan><tspan x="-42.18" y="19">to May ‘21</tspan></text><text class="q" transform="translate(886.034 14777.957)"><tspan x="-34.115" y="0">Jun ‘20 </tspan><tspan x="-43.596" y="19">to Aug ‘20</tspan></text><circle class="i" cx="13.702" cy="13.702" r="13.702" transform="translate(899.131 14554.594)"/><text class="l" transform="translate(904.258 14572.95)"><tspan x="0" y="0">43</tspan></text><circle class="i" cx="13.702" cy="13.702" r="13.702" transform="translate(898.074 14647.375) rotate(-76.717)"/><text class="l" transform="translate(906.071 14641.78)"><tspan x="0" y="0">42</tspan></text><circle class="r" cx="13.702" cy="13.702" r="13.702" transform="translate(1204.16 14510.732) rotate(-80.783)"/><text class="l" transform="translate(1210.976 14504.408)"><tspan x="0" y="0">43</tspan></text><circle class="s" cx="13.702" cy="13.702" r="13.702" transform="matrix(0.16, -0.987, 0.987, 0.16, 1351.862, 14510.732)"/><text class="l" transform="translate(1358.678 14504.408)"><tspan x="0" y="0">42</tspan></text><circle class="r" cx="13.702" cy="13.702" r="13.702" transform="matrix(0.16, -0.987, 0.987, 0.16, 1204.16, 14579.886)"/><text class="l" transform="translate(1210.976 14573.563)"><tspan x="0" y="0">44</tspan></text><circle class="s" cx="13.702" cy="13.702" r="13.702" transform="matrix(0.16, -0.987, 0.987, 0.16, 1351.862, 14579.886)"/><text class="l" transform="translate(1358.678 14573.563)"><tspan x="0" y="0">43</tspan></text><circle class="r" cx="13.702" cy="13.702" r="13.702" transform="matrix(0.16, -0.987, 0.987, 0.16, 1204.16, 14649)"/><text class="l" transform="translate(1210.976 14642.677)"><tspan x="0" y="0">43</tspan></text><circle class="s" cx="13.702" cy="13.702" r="13.702" transform="matrix(0.16, -0.987, 0.987, 0.16, 1351.862, 14649)"/><text class="l" transform="translate(1358.678 14642.677)"><tspan x="0" y="0">42</tspan></text><text class="k" transform="translate(568.811 14967.677)"><tspan x="-49.709" y="0">Overall</tspan></text><text class="k" transform="translate(568.81 14829.891)"><tspan x="-33.906" y="0">Male</tspan></text><text class="k" transform="translate(568.81 14898.783)"><tspan x="-51.805" y="0">Female</tspan></text><rect class="t" width="922.435" height="52.409" transform="translate(498.783 14364.171)"/><rect class="t" width="922.435" height="52.409" transform="translate(498.783 14688.687)"/><rect class="t" width="922.435" height="272.106" transform="translate(498.783 14416.581)"/><rect class="t" width="922.435" height="272.106" transform="translate(498.783 14741.096)"/><rect class="f" width="157.959" height="18.989" transform="translate(575.734 14883.217)"/><rect class="f" width="151.805" height="18.989" transform="translate(731.642 14883.217)"/><rect class="f" width="157.959" height="18.989" transform="translate(883.447 14883.217)"/><rect class="f" width="162.062" height="18.989" transform="translate(1041.406 14883.217)"/><rect class="f" width="162.062" height="18.989" transform="translate(1203.468 14883.217)"/><rect class="g" width="162.062" height="18.989" transform="translate(575.734 14814.652)"/><rect class="g" width="155.908" height="18.989" transform="translate(737.796 14814.652)"/><rect class="g" width="157.959" height="18.989" transform="translate(893.704 14814.652)"/><rect class="g" width="164.113" height="18.989" transform="translate(1051.663 14814.652)"/><rect class="g" width="151.805" height="18.989" transform="translate(1215.777 14814.652)"/><circle class="h" cx="13.702" cy="13.702" r="13.702" transform="translate(723.195 14810.117)"/><text class="l" transform="translate(728.231 14828.697)"><tspan x="0" y="0">77</tspan></text><circle class="i" cx="13.702" cy="13.702" r="13.702" transform="translate(880.836 14810.117)"/><text class="l" transform="translate(885.81 14828.697)"><tspan x="0" y="0">73</tspan></text><circle class="j" cx="13.702" cy="13.702" r="13.702" transform="translate(1037.884 14810.117)"/><text class="l" transform="translate(1042.682 14828.858)"><tspan x="0" y="0">77</tspan></text><circle class="r" cx="13.702" cy="13.702" r="13.702" transform="translate(1202.075 14810.117)"/><text class="l" transform="translate(1206.873 14828.858)"><tspan x="0" y="0">79</tspan></text><circle class="s" cx="13.702" cy="13.702" r="13.702" transform="translate(1353.88 14810.117)"/><text class="l" transform="translate(1358.678 14828.858)"><tspan x="0" y="0">79</tspan></text><circle class="h" cx="13.702" cy="13.702" r="13.702" transform="translate(724.052 14879.01)"/><text class="l" transform="translate(728.95 14897.714)"><tspan x="0" y="0">82</tspan></text><circle class="i" cx="13.702" cy="13.702" r="13.702" transform="translate(871.797 14879.01)"/><text class="l" transform="translate(876.596 14897.882)"><tspan x="0" y="0">79</tspan></text><circle class="j" cx="13.702" cy="13.702" r="13.702" transform="translate(1030.23 14879.01)"/><text class="l" transform="translate(1035.029 14897.713)"><tspan x="0" y="0">80</tspan></text><circle class="r" cx="13.702" cy="13.702" r="13.702" transform="translate(1191.818 14879.01)"/><text class="l" transform="translate(1196.616 14897.713)"><tspan x="0" y="0">83</tspan></text><circle class="s" cx="13.702" cy="13.702" r="13.702" transform="translate(1353.88 14879.01)"/><text class="l" transform="translate(1358.678 14897.713)"><tspan x="0" y="0">77</tspan></text><rect class="e" width="162.062" height="18.989" transform="translate(575.734 14952.35)"/><rect class="e" width="153.856" height="18.989" transform="translate(737.796 14952.35)"/><rect class="e" width="160.011" height="18.989" transform="translate(891.653 14952.35)"/><rect class="e" width="157.959" height="18.989" transform="translate(1051.663 14952.35)"/><rect class="e" width="157.959" height="18.989" transform="translate(1209.622 14952.35)"/><circle class="h" cx="13.702" cy="13.702" r="13.702" transform="translate(724.994 14947.903)"/><text class="l" transform="translate(729.902 14966.549)"><tspan x="0" y="0">80</tspan></text><circle class="i" cx="13.702" cy="13.702" r="13.702" transform="translate(877.951 14947.903)"/><text class="l" transform="translate(882.53 14966.601)"><tspan x="0" y="0">76</tspan></text><circle class="j" cx="13.702" cy="13.702" r="13.702" transform="translate(1039.233 14947.903)"/><text class="l" transform="translate(1043.812 14966.601)"><tspan x="0" y="0">78</tspan></text><circle class="r" cx="13.702" cy="13.702" r="13.702" transform="translate(1197.274 14947.903)"/><text class="l" transform="translate(1201.854 14966.601)"><tspan x="0" y="0">78</tspan></text><circle class="s" cx="13.702" cy="13.702" r="13.702" transform="translate(1353.88 14947.903)"/><text class="l" transform="translate(1358.459 14966.601)"><tspan x="0" y="0">78</tspan></text></g></svg>