<svg xmlns="http://www.w3.org/2000/svg" width="910.675" height="232.757" viewBox="0 0 910.675 419.757"><defs><style>.a{fill:#fff;stroke-width:1.417px;}.a,.b{stroke:#a7a9ac;stroke-miterlimit:10;}.b{fill:none;stroke-width:1.417px;}.c-sev{fill:#222b3e;}.d-sev{fill:#606060;font-size:14.314px;font-family:IBMPlexSans, IBM Plex Sans;letter-spacing:-0.05em;}</style></defs><g transform="translate(-504.663 -5618.554)"><rect class="a" width="909.258" height="418.34" transform="translate(505.371 5619.262)"/><line class="b" y2="271.102" transform="translate(611.687 5704.837)"/><line class="b" y2="271.102" transform="translate(735.73 5704.837)"/><line class="b" y2="271.102" transform="translate(860.571 5704.837)"/><line class="b" y2="271.102" transform="translate(984.128 5704.837)"/><line class="b" y2="271.102" transform="translate(1109.453 5704.837)"/><line class="b" y2="271.102" transform="translate(1233.37 5704.837)"/><line class="b" y2="271.102" transform="translate(1358.399 5704.837)"/><rect class="c-sev" width="3.714" height="21.044" transform="translate(611.32 5716.597)"/><rect class="c-sev" width="48.278" height="21.044" transform="translate(611.32 5762.4)"/><rect class="c-sev" width="120.077" height="21.044" transform="translate(611.32 5806.964)"/><rect class="c-sev" width="278.53" height="21.044" transform="translate(611.32 5852.767)"/><rect class="c-sev" width="485.261" height="21.044" transform="translate(611.32 5897.332)"/><rect class="c-sev" width="683.326" height="21.044" transform="translate(611.32 5943.135)"/><text class="d-sev" transform="translate(655.018 5731.453)"><tspan x="-32.191" y="0">0,1%</tspan></text><text class="d-sev" transform="translate(699.095 5777.255)"><tspan x="-32.191" y="0">0,8%</tspan></text><text class="d-sev" transform="translate(771.136 5821.82)"><tspan x="-32.191" y="0">1,9%</tspan></text><text class="d-sev" transform="translate(930.099 5867.623)"><tspan x="-32.191" y="0">4,5%</tspan></text><text class="d-sev" transform="translate(1136.227 5912.188)"><tspan x="-32.191" y="0">7,8%</tspan></text><text class="d-sev" transform="translate(1342.217 5957.99)"><tspan x="-40.064" y="0">11,0%</tspan></text><text class="d-sev" transform="translate(611.687 5693.078)"><tspan x="-10.571" y="0">0%</tspan></text><text class="d-sev" transform="translate(736.129 5693.078)"><tspan x="-10.571" y="0">2%</tspan></text><text class="d-sev" transform="translate(860.571 5693.078)"><tspan x="-10.571" y="0">4%</tspan></text><text class="d-sev" transform="translate(985.011 5693.078)"><tspan x="-10.571" y="0">6%</tspan></text><text class="d-sev" transform="translate(1109.453 5693.078)"><tspan x="-10.571" y="0">8%</tspan></text><text class="d-sev" transform="translate(1231.073 5693.078)"><tspan x="-14.507" y="0">10%</tspan></text><text class="d-sev" transform="translate(1355.514 5693.078)"><tspan x="-14.507" y="0">12%</tspan></text><text class="d-sev" transform="translate(573.881 5730.215)"><tspan x="-21.513" y="0">Dec</tspan><tspan y="0">’</tspan><tspan y="0">20</tspan></text><text class="d-sev" transform="translate(574.676 5776.018)"><tspan x="-20.576" y="0">Jan</tspan><tspan y="0">’</tspan><tspan y="0">21</tspan></text><text class="d-sev" transform="translate(574.132 5820.583)"><tspan x="-20.834" y="0">Feb</tspan><tspan y="0">’</tspan><tspan y="0">21</tspan></text><text class="d-sev" transform="translate(573.954 5866.385)"><tspan x="-21.764" y="0">Mar</tspan><tspan y="0">’</tspan><tspan y="0">21</tspan></text><text class="d-sev" transform="translate(574.848 5912.188)"><tspan x="-20.869" y="0">Apr</tspan><tspan y="0">’</tspan><tspan y="0">21</tspan></text><text class="d-sev" transform="translate(573.009 5956.753)"><tspan x="-22.565" y="0">May</tspan><tspan y="0">’</tspan><tspan y="0">21</tspan></text></g></svg>