<?xml version="1.0" encoding="utf-8"?>
<!-- Generator: Adobe Illustrator 22.0.1, SVG Export Plug-In . SVG Version: 6.00 Build 0)  -->
<svg version="1.1" id="Слой_1" xmlns="http://www.w3.org/2000/svg" xmlns:xlink="http://www.w3.org/1999/xlink" x="0px" y="0px"
	 viewBox="0 0 923.8 402.3" style="enable-background:new 0 0 923.8 402.3;" xml:space="preserve">
<style type="text/css">
	.str0{fill:#222B3E;}
	.srt1{fill:#D02F34;}
	.st2{fill:#FFFFFF;stroke:#A7A9AC;stroke-width:1.42;stroke-miterlimit:10;}
	.st3{fill:none;stroke:#A7A9AC;stroke-width:0.75;stroke-miterlimit:10;}
	.st4{clip-path:url(#SVGID_2_);}
	.st5{clip-path:url(#SVGID_4_);}
	.st6{fill:#FFFFFF;}
	.st7{fill:#606060;}
	.st8{fill:none;stroke:#A7A9AC;stroke-width:1.42;stroke-miterlimit:10;}
</style>
<rect x="378.4" y="17.8" class="str0" width="9.8" height="9.8"/>
<g>
	<path class="str0" d="M393,25.8l1.1-0.9c0.7,1.1,2,1.8,3.3,1.8c1.8,0,2.7-0.9,2.7-2.3c0-1.2-0.6-1.8-2.3-2.1l-1-0.2
		c-2.2-0.5-3.5-1.5-3.5-3.4c0-2.2,1.7-3.4,4.1-3.4c1.6-0.1,3.2,0.7,4.1,2l-1.1,0.8c-0.7-1-1.8-1.6-3-1.5c-1.6,0-2.5,0.7-2.5,2
		c0,1.2,0.8,1.7,2.3,2l1,0.2c2.4,0.6,3.4,1.6,3.4,3.4c0,2.3-1.6,3.7-4.2,3.7C395.7,27.9,394,27.2,393,25.8z"/>
	<path class="str0" d="M403.4,23.2c0-2.9,1.6-4.8,4.1-4.8s3.9,1.9,3.9,4.4v0.7h-6.5v0.4c-0.1,1.4,1,2.7,2.4,2.8c0.1,0,0.2,0,0.3,0
		c1.1,0,2.1-0.6,2.5-1.6l1,0.7c-0.7,1.3-2.1,2.2-3.6,2.1C405,27.9,403.4,26,403.4,23.2z M404.9,22.3v0.1h5v-0.2
		c0.1-1.3-0.8-2.5-2.1-2.7c-0.1,0-0.2,0-0.3,0c-1.4,0-2.6,1.2-2.6,2.6C404.8,22.2,404.8,22.3,404.9,22.3z"/>
	<path class="str0" d="M413.7,27.7v-9.1h1.4v1.7h0.1c0.4-1.1,1.5-1.8,2.6-1.7h0.5V20h-0.8c-1.5,0-2.4,0.7-2.4,1.5v6.2H413.7z"/>
	<path class="str0" d="M420.1,15.7v-0.2c0-0.5,0.3-0.8,0.9-0.8s0.9,0.3,0.9,0.8v0.2c0,0.5-0.3,0.8-0.9,0.8S420.1,16.1,420.1,15.7z
		 M420.2,18.6h1.4v9.1h-1.4V18.6z"/>
	<path class="str0" d="M424,23.2c0-2.9,1.6-4.8,4.1-4.8s3.9,1.9,3.9,4.4v0.7h-6.5v0.4c-0.1,1.4,1,2.7,2.4,2.8c0.1,0,0.2,0,0.3,0
		c1.1,0,2.1-0.6,2.5-1.6l1,0.7c-0.7,1.3-2.1,2.2-3.6,2.1C425.6,27.9,424,26,424,23.2z M425.5,22.3v0.1h5v-0.2
		c0.1-1.3-0.8-2.5-2.2-2.7c-0.1,0-0.2,0-0.3,0c-1.4,0-2.6,1.1-2.6,2.6C425.4,22.2,425.4,22.3,425.5,22.3L425.5,22.3z"/>
	<path class="str0" d="M433.5,26.1l1-0.8c0.6,0.9,1.6,1.4,2.7,1.4c1.2,0,1.9-0.5,1.9-1.5c0-0.7-0.4-1.2-1.6-1.4l-0.7-0.1
		c-1.7-0.2-2.9-0.9-2.9-2.6s1.4-2.7,3.2-2.7c1.2-0.1,2.4,0.5,3.2,1.5l-0.9,0.8c-0.5-0.7-1.4-1.1-2.3-1.1c-1.2,0-1.8,0.6-1.8,1.4
		s0.6,1.2,1.8,1.4l0.7,0.1c2,0.3,2.8,1.2,2.8,2.6c0,1.8-1.3,2.8-3.4,2.8C435.6,28,434.3,27.3,433.5,26.1z"/>
	<path class="str0" d="M447.1,27.7v-1.3h3.4v-9.9h-0.1l-3.1,2.9l-0.9-0.9l3.3-3.1h2.3v11h3.2v1.3L447.1,27.7z"/>
</g>
<rect x="467.7" y="17.8" class="srt1" width="9.8" height="9.8"/>
<g>
	<path class="srt1" d="M482.3,25.8l1.1-0.9c0.7,1.1,2,1.8,3.3,1.8c1.8,0,2.7-0.9,2.7-2.3c0-1.2-0.6-1.8-2.3-2.1l-1-0.2
		c-2.2-0.5-3.5-1.5-3.5-3.4c0-2.2,1.7-3.4,4.1-3.4c1.6-0.1,3.2,0.7,4.1,2l-1.1,0.8c-0.7-1-1.8-1.6-3-1.5c-1.6,0-2.5,0.7-2.5,2
		c0,1.2,0.8,1.7,2.3,2l1,0.2c2.4,0.6,3.4,1.6,3.4,3.4c0,2.3-1.6,3.7-4.2,3.7C485,27.9,483.3,27.2,482.3,25.8z"/>
	<path class="srt1" d="M492.6,23.2c0-2.9,1.6-4.8,4.1-4.8s3.9,1.9,3.9,4.4v0.7h-6.5v0.4c-0.1,1.4,1,2.7,2.4,2.8c0.1,0,0.2,0,0.3,0
		c1.1,0,2.1-0.6,2.5-1.6l1,0.7c-0.7,1.3-2.1,2.2-3.6,2.1C494.3,27.9,492.6,26,492.6,23.2z M494.1,22.3v0.1h5v-0.2
		c0.1-1.3-0.8-2.5-2.1-2.7c-0.1,0-0.2,0-0.3,0c-1.4,0-2.6,1.2-2.6,2.6C494.1,22.2,494.1,22.3,494.1,22.3z"/>
	<path class="srt1" d="M503,27.7v-9.1h1.4v1.7h0.1c0.4-1.1,1.5-1.8,2.6-1.7h0.5V20h-0.8c-1.5,0-2.4,0.7-2.4,1.5v6.2H503z"/>
	<path class="srt1" d="M509.3,15.7v-0.2c0-0.5,0.3-0.8,0.9-0.8s0.9,0.3,0.9,0.8v0.2c0,0.5-0.3,0.8-0.9,0.8S509.3,16.1,509.3,15.7z
		 M509.5,18.6h1.4v9.1h-1.4V18.6z"/>
	<path class="srt1" d="M513.2,23.2c0-2.9,1.6-4.8,4.1-4.8s3.9,1.9,3.9,4.4v0.7h-6.5v0.4c-0.1,1.4,1,2.7,2.4,2.8c0.1,0,0.2,0,0.3,0
		c1.1,0,2.1-0.6,2.5-1.6l1,0.7c-0.7,1.3-2.1,2.2-3.6,2.1C514.9,27.9,513.2,26,513.2,23.2z M514.7,22.3v0.1h5v-0.2
		c0.1-1.3-0.8-2.5-2.2-2.7c-0.1,0-0.2,0-0.3,0c-1.4,0-2.6,1.2-2.6,2.6C514.7,22.2,514.7,22.3,514.7,22.3z"/>
	<path class="srt1" d="M522.7,26.1l1-0.8c0.6,0.9,1.6,1.4,2.7,1.4c1.2,0,1.9-0.5,1.9-1.5c0-0.7-0.4-1.2-1.6-1.4l-0.7-0.1
		c-1.7-0.2-2.9-0.9-2.9-2.6s1.4-2.7,3.2-2.7c1.2-0.1,2.4,0.5,3.2,1.5l-0.9,0.8c-0.6-0.7-1.4-1.1-2.3-1.1c-1.2,0-1.8,0.6-1.8,1.4
		s0.6,1.2,1.8,1.4l0.7,0.1c2,0.3,2.8,1.2,2.8,2.6c0,1.8-1.3,2.8-3.4,2.8C524.9,28,523.6,27.3,522.7,26.1z"/>
	<path class="srt1" d="M544.3,27.7h-8.1v-1.5l4-3.7c1.1-0.9,1.8-2.1,2-3.5v-0.2c0.1-1.1-0.7-2.2-1.9-2.3c-0.1,0-0.3,0-0.4,0
		c-1.3,0-2.4,0.8-2.6,2.1l-1.3-0.5c0.5-1.8,2.1-3,4-2.9c1.9-0.2,3.6,1.2,3.8,3.1c0,0.2,0,0.3,0,0.5c0,1.9-1.1,3.2-2.7,4.7l-3.3,3
		h6.5L544.3,27.7z"/>
</g>
<rect x="0.7" y="41.5" class="st2" width="922.4" height="360.1"/>
<line class="st3" x1="66.4" y1="292.4" x2="904" y2="292.4"/>
<line class="st3" x1="66.4" y1="268.7" x2="904" y2="268.7"/>
<line class="st3" x1="66.4" y1="246.2" x2="904" y2="246.2"/>
<line class="st3" x1="66.4" y1="223.6" x2="904" y2="223.6"/>
<line class="st3" x1="66.4" y1="200" x2="904" y2="200"/>
<line class="st3" x1="66.4" y1="177.5" x2="904" y2="177.5"/>
<line class="st3" x1="66.4" y1="155.1" x2="904" y2="155.1"/>
<line class="st3" x1="66.4" y1="132.4" x2="904" y2="132.4"/>
<line class="st3" x1="66.4" y1="108.8" x2="904" y2="108.8"/>
<line class="st3" x1="66.4" y1="86.3" x2="904" y2="86.3"/>
<g>
	<defs>
		<rect id="SVGID_1_" x="66.4" y="85.7" width="837.7" height="229.7"/>
	</defs>
	<clipPath id="SVGID_2_">
		<use xlink:href="#SVGID_1_"  style="overflow:visible;"/>
	</clipPath>
	<g class="st4">
		<path class="str0" d="M845.5,182.5h32.7v131.7h-32.7V182.5z M761,190.4h33.8v123.9H761V190.4z M677.7,185.9h33.8v128.4h-33.8V185.9
			z M594.4,201.6h32.7v112.6h-32.7V201.6z M510,182.5h33.8v131.7H510V182.5z M426.7,197.1h33.8v117.1h-33.8L426.7,197.1z M343.4,178
			H376v136.2h-32.6V178z M258.9,199.4h33.8v114.8h-33.8V199.4z M175.6,185.9h33.8v128.3h-33.8L175.6,185.9z M92.3,203.9h32.6v110.4
			H92.3L92.3,203.9z"/>
	</g>
</g>
<g>
	<defs>
		<rect id="SVGID_3_" x="66.4" y="85.7" width="837.7" height="229.7"/>
	</defs>
	<clipPath id="SVGID_4_">
		<use xlink:href="#SVGID_3_"  style="overflow:visible;"/>
	</clipPath>
	<g class="st5">
		<path class="srt1" d="M845.5,86.8h32.7v95.7h-32.7V86.8z M761,86.8h33.8v103.6H761V86.8z M677.7,86.8h33.8v99.1h-33.8V86.8z
			 M594.4,86.8h32.7v114.8h-32.7V86.8z M510,86.8h33.8v95.7H510L510,86.8z M426.7,86.8h33.8v110.3h-33.8L426.7,86.8z M343.4,86.8
			H376V178h-32.6V86.8z M258.9,86.8h33.8v112.6h-33.8V86.8z M175.6,86.8h33.8v99.1h-33.8L175.6,86.8z M92.3,86.8h32.6v117.1H92.3
			L92.3,86.8z"/>
	</g>
</g>
<g>
	<path class="st6" d="M98.4,263.6v-2h-4.8v-1.1l4.2-7h1.8v7h1.5v1h-1.5v2L98.4,263.6z M94.7,260.6h3.7v-6.1h-0.1L94.7,260.6z"/>
	<path class="st6" d="M102.4,260.8c0-1.2,0.8-2.3,2-2.5v-0.1c-1-0.3-1.7-1.3-1.7-2.3c0-1.5,1.2-2.5,3.2-2.5s3.2,1,3.2,2.5
		c0,1.1-0.7,2-1.7,2.3v0.1c1.2,0.2,2,1.3,2,2.5c0,1.6-1.2,2.9-3.5,2.9S102.4,262.5,102.4,260.8z M108.1,260.9v-0.3
		c0-1.1-0.8-1.8-2.2-1.8s-2.2,0.7-2.2,1.8v0.3c0,1.1,0.8,1.8,2.2,1.8S108.1,262,108.1,260.9z M107.8,256.2V256c0-1-0.7-1.6-1.9-1.6
		S104,255,104,256v0.2c0,1,0.7,1.6,1.9,1.6S107.8,257.2,107.8,256.2L107.8,256.2z"/>
	<path class="st6" d="M111.1,256.2c0-1.8,0.8-2.8,2.3-2.8s2.3,1,2.3,2.8s-0.8,2.8-2.3,2.8S111.1,258.1,111.1,256.2z M114.6,256.7
		v-0.9c0-1.1-0.4-1.7-1.2-1.7s-1.2,0.6-1.2,1.7v0.9c0,1.1,0.4,1.7,1.2,1.7S114.6,257.8,114.6,256.7z M112.8,263.6l6.9-10h1.1
		l-6.9,10H112.8z M118,260.9c0-1.8,0.8-2.8,2.3-2.8s2.3,1,2.3,2.8s-0.8,2.8-2.3,2.8S118,262.7,118,260.9L118,260.9z M121.5,261.3
		v-0.9c0-1.1-0.4-1.7-1.2-1.7s-1.2,0.6-1.2,1.7v0.9c0,1.1,0.4,1.7,1.2,1.7S121.5,262.4,121.5,261.3L121.5,261.3z"/>
</g>
<g>
	<path class="st6" d="M184.4,245.6H180l-0.3,3.8h0.1c0.4-0.7,1.2-1.1,2-1.1c1.6-0.1,2.9,1.1,3,2.7c0,0.1,0,0.3,0,0.4
		c0.1,1.7-1.2,3.2-2.9,3.3c-0.1,0-0.3,0-0.4,0c-1.3,0-2.5-0.6-3.1-1.7l0.9-0.7c0.4,0.8,1.3,1.4,2.2,1.3c1,0.1,2-0.6,2.1-1.6
		c0-0.1,0-0.3,0-0.4v-0.1c0.1-1-0.6-2-1.7-2.1c-0.1,0-0.3,0-0.4,0c-0.7,0-1.4,0.3-1.8,0.8l-1-0.1l0.4-5.5h5.4L184.4,245.6z"/>
	<path class="st6" d="M186.8,250.9c0.1-2.6,1.4-4.9,3.6-6.3h1.5c-2.1,1.6-3.3,2.9-3.9,5.2h0.1c0.5-0.9,1.4-1.5,2.4-1.4
		c1.6-0.1,2.9,1.2,2.9,2.7c0,0.1,0,0.2,0,0.3c0.1,1.7-1.2,3.2-2.9,3.3c-0.1,0-0.2,0-0.4,0C188.1,254.7,186.8,253.3,186.8,250.9z
		 M192.2,251.6v-0.1c0-1.2-0.9-2.1-2.1-2.1c-1.2,0-2.1,0.9-2.1,2.1c0,0,0,0,0,0v0.1c0,1.2,0.9,2.1,2.1,2.1
		C191.3,253.7,192.2,252.8,192.2,251.6C192.2,251.6,192.2,251.6,192.2,251.6z"/>
	<path class="st6" d="M195.4,247.2c0-1.8,0.8-2.8,2.3-2.8s2.3,1,2.3,2.8s-0.8,2.8-2.3,2.8S195.4,249.1,195.4,247.2z M198.9,247.7
		v-0.9c0-1.1-0.4-1.7-1.2-1.7s-1.2,0.6-1.2,1.7v0.9c0,1.1,0.4,1.7,1.2,1.7S198.9,248.8,198.9,247.7z M197.1,254.6l6.9-10h1.1
		l-6.9,10H197.1z M202.3,251.9c0-1.8,0.8-2.8,2.3-2.8s2.3,1,2.3,2.8s-0.8,2.8-2.3,2.8S202.3,253.7,202.3,251.9z M205.8,252.3v-0.9
		c0-1.1-0.4-1.7-1.2-1.7s-1.2,0.6-1.2,1.7v0.9c0,1.1,0.4,1.7,1.2,1.7S205.8,253.4,205.8,252.3z"/>
</g>
<g>
	<path class="st6" d="M268.1,252.4h-4.4l-0.3,3.8h0.1c0.4-0.7,1.2-1.1,2-1.1c1.6-0.1,2.9,1.1,3,2.7c0,0.1,0,0.3,0,0.4
		c0.1,1.7-1.2,3.2-2.9,3.3c-0.1,0-0.3,0-0.4,0c-1.3,0-2.5-0.6-3.1-1.7l0.9-0.7c0.4,0.8,1.3,1.4,2.2,1.3c1,0.1,2-0.6,2.1-1.6
		c0-0.1,0-0.3,0-0.4v-0.1c0.1-1-0.6-2-1.7-2.1c-0.1,0-0.3,0-0.4,0c-0.7,0-1.4,0.3-1.8,0.8l-1-0.1l0.4-5.5h5.4L268.1,252.4z"/>
	<path class="st6" d="M270.4,256.3c0-3.3,1-5.2,3.4-5.2s3.4,1.9,3.4,5.2s-1,5.2-3.4,5.2S270.4,259.6,270.4,256.3z M276,257.1v-1.6
		c0-1.9-0.6-3.3-2.2-3.3s-2.2,1.4-2.2,3.3v1.6c0,1.9,0.6,3.3,2.2,3.3S276,259.1,276,257.1z"/>
	<path class="st6" d="M279,254c0-1.8,0.8-2.8,2.3-2.8s2.3,1,2.3,2.8s-0.8,2.8-2.3,2.8S279,255.8,279,254z M282.5,254.4v-0.9
		c0-1.1-0.4-1.7-1.2-1.7s-1.2,0.6-1.2,1.7v0.9c0,1.1,0.4,1.7,1.2,1.7S282.5,255.5,282.5,254.4L282.5,254.4z M280.7,261.3l6.9-10h1.1
		l-6.9,10H280.7z M285.9,258.7c0-1.8,0.8-2.8,2.3-2.8s2.3,1,2.3,2.8s-0.8,2.8-2.3,2.8S285.9,260.5,285.9,258.7L285.9,258.7z
		 M289.4,259.1v-0.9c0-1.1-0.4-1.7-1.2-1.7s-1.2,0.6-1.2,1.7v0.9c0,1.1,0.4,1.7,1.2,1.7S289.4,260.2,289.4,259.1L289.4,259.1z"/>
</g>
<g>
	<path class="st6" d="M345.1,246.4c0.1-2.6,1.4-4.9,3.6-6.3h1.5c-2.1,1.6-3.3,2.9-3.9,5.2h0.1c0.5-0.9,1.4-1.5,2.4-1.4
		c1.6-0.1,2.9,1.2,3,2.7c0,0.1,0,0.2,0,0.3c0.1,1.7-1.2,3.2-2.9,3.3c-0.1,0-0.2,0-0.4,0C346.4,250.2,345.1,248.8,345.1,246.4z
		 M350.6,247.1L350.6,247.1c0-1.2-0.9-2.2-2.1-2.2s-2.1,0.9-2.1,2.1c0,0,0,0,0,0v0.1c0,1.2,0.9,2.1,2.1,2.1S350.6,248.3,350.6,247.1
		C350.6,247.1,350.6,247.1,350.6,247.1L350.6,247.1z"/>
	<path class="st6" d="M353.6,245.1c0-3.3,1-5.2,3.4-5.2s3.4,1.9,3.4,5.2s-1,5.2-3.4,5.2S353.6,248.3,353.6,245.1z M359.2,245.9v-1.6
		c0-1.9-0.6-3.3-2.2-3.3s-2.2,1.4-2.2,3.3v1.6c0,1.9,0.6,3.3,2.2,3.3S359.2,247.8,359.2,245.9z"/>
	<path class="st6" d="M362.3,242.7c0-1.8,0.8-2.8,2.3-2.8s2.3,1,2.3,2.8s-0.8,2.8-2.3,2.8S362.3,244.6,362.3,242.7z M365.8,243.1
		v-0.9c0-1.1-0.4-1.7-1.2-1.7s-1.2,0.6-1.2,1.7v0.9c0,1.1,0.4,1.7,1.2,1.7S365.8,244.2,365.8,243.1z M364,250l6.9-10h1.1l-6.9,10
		H364z M369.2,247.4c0-1.8,0.8-2.8,2.3-2.8s2.3,1,2.3,2.8s-0.8,2.8-2.3,2.8S369.2,249.2,369.2,247.4L369.2,247.4z M372.7,247.8V247
		c0-1.1-0.4-1.7-1.2-1.7s-1.2,0.6-1.2,1.7v0.9c0,1.1,0.4,1.7,1.2,1.7S372.7,248.9,372.7,247.8L372.7,247.8z"/>
</g>
<g>
	<path class="st6" d="M435.4,251.3H431l-0.3,3.8h0.1c0.4-0.7,1.2-1.1,2-1.1c1.6-0.1,2.9,1.1,3,2.7c0,0.1,0,0.3,0,0.4
		c0.1,1.7-1.2,3.2-2.9,3.3c-0.1,0-0.3,0-0.4,0c-1.3,0-2.5-0.6-3.1-1.7l0.9-0.7c0.4,0.8,1.3,1.4,2.2,1.3c1,0.1,2-0.6,2.1-1.6
		c0-0.1,0-0.3,0-0.4v-0.1c0.1-1-0.6-2-1.7-2.1c-0.1,0-0.3,0-0.4,0c-0.7,0-1.4,0.3-1.8,0.8l-1-0.1l0.4-5.5h5.4L435.4,251.3z"/>
	<path class="st6" d="M444.5,260.2h-6.5V259l3.3-3c0.9-0.7,1.5-1.7,1.6-2.8V253c0.1-0.9-0.5-1.8-1.5-1.9c-0.1,0-0.2,0-0.3,0
		c-1,0-1.9,0.7-2.1,1.7l-1.1-0.4c0.4-1.4,1.7-2.4,3.1-2.4c1.5-0.2,2.9,1,3,2.5c0,0.1,0,0.3,0,0.4c0,1.5-0.9,2.6-2.2,3.8l-2.7,2.4
		h5.2L444.5,260.2z"/>
	<path class="st6" d="M446.4,252.9c0-1.8,0.8-2.8,2.3-2.8s2.3,1,2.3,2.8s-0.8,2.8-2.3,2.8S446.4,254.7,446.4,252.9z M449.8,253.3
		v-0.9c0-1.1-0.4-1.7-1.2-1.7s-1.2,0.6-1.2,1.7v0.9c0,1.1,0.4,1.7,1.2,1.7S449.9,254.4,449.8,253.3L449.8,253.3z M448,260.2l6.9-10
		h1.1l-6.9,10H448z M453.2,257.5c0-1.8,0.8-2.8,2.3-2.8s2.3,1,2.3,2.8s-0.8,2.8-2.3,2.8S453.2,259.4,453.2,257.5L453.2,257.5z
		 M456.7,258v-0.9c0-1.1-0.4-1.7-1.2-1.7s-1.2,0.6-1.2,1.7v0.9c0,1.1,0.4,1.7,1.2,1.7S456.7,259,456.7,258L456.7,258z"/>
</g>
<g>
	<path class="st6" d="M519.3,243.4h-4.4l-0.3,3.8h0.1c0.4-0.7,1.2-1.1,2-1.1c1.6-0.1,2.9,1.1,3,2.7c0,0.1,0,0.3,0,0.4
		c0.1,1.7-1.2,3.2-2.9,3.3c-0.1,0-0.3,0-0.4,0c-1.3,0-2.5-0.6-3.1-1.7l0.9-0.7c0.4,0.8,1.3,1.4,2.2,1.3c1,0.1,2-0.6,2.1-1.6
		c0-0.1,0-0.3,0-0.4v-0.1c0.1-1-0.6-2-1.7-2.1c-0.1,0-0.3,0-0.4,0c-0.7,0-1.4,0.3-1.8,0.8l-1-0.1l0.4-5.5h5.3L519.3,243.4z"/>
	<path class="st6" d="M521.5,249.6c0-1.2,0.8-2.3,2-2.5V247c-1-0.3-1.7-1.3-1.7-2.3c0-1.5,1.2-2.5,3.2-2.5s3.2,1,3.2,2.5
		c0,1.1-0.7,2-1.7,2.3v0.1c1.2,0.2,2,1.3,2,2.5c0,1.6-1.2,2.9-3.5,2.9S521.5,251.2,521.5,249.6z M527.2,249.6v-0.3
		c0-1.1-0.8-1.8-2.2-1.8s-2.2,0.7-2.2,1.8v0.3c0,1.1,0.8,1.8,2.2,1.8S527.2,250.8,527.2,249.6z M526.9,245v-0.2c0-1-0.7-1.6-1.9-1.6
		s-1.9,0.5-1.9,1.6v0.2c0,1,0.7,1.6,1.9,1.6S526.9,246,526.9,245L526.9,245z"/>
	<path class="st6" d="M530.2,245c0-1.8,0.8-2.8,2.3-2.8s2.3,1,2.3,2.8s-0.8,2.8-2.3,2.8S530.2,246.8,530.2,245z M533.7,245.4v-0.9
		c0-1.1-0.4-1.7-1.2-1.7s-1.2,0.6-1.2,1.7v0.9c0,1.1,0.4,1.7,1.2,1.7S533.7,246.5,533.7,245.4L533.7,245.4z M531.9,252.3l6.9-10h1.2
		l-6.9,10H531.9z M537.1,249.7c0-1.8,0.8-2.8,2.3-2.8s2.3,1,2.3,2.8s-0.8,2.8-2.3,2.8S537.1,251.5,537.1,249.7L537.1,249.7z
		 M540.6,250.1v-0.9c0-1.1-0.4-1.7-1.2-1.7s-1.2,0.6-1.2,1.7v0.9c0,1.1,0.4,1.7,1.2,1.7S540.6,251.2,540.6,250.1L540.6,250.1z"/>
</g>
<g>
	<path class="st6" d="M600.3,262.4v-2h-4.8v-1.1l4.2-7h1.8v7h1.5v1h-1.5v2L600.3,262.4z M596.6,259.4h3.7v-6.1h-0.1L596.6,259.4z"/>
	<path class="st6" d="M607.6,262.4h-1.5c2.1-1.6,3.3-2.9,3.9-5.2h-0.1c-0.5,0.9-1.4,1.5-2.4,1.4c-1.6,0.1-2.9-1.1-3-2.7
		c0-0.1,0-0.3,0-0.4c-0.1-1.7,1.2-3.2,3-3.3c0.1,0,0.2,0,0.4,0c2.1,0,3.3,1.5,3.3,3.8C611,258.7,609.7,261,607.6,262.4z
		 M609.9,255.5v-0.1c0-1.2-0.9-2.1-2.1-2.1s-2.1,0.9-2.1,2.1c0,0,0,0,0,0v0.1c0,1.2,0.9,2.1,2.1,2.1S609.9,256.7,609.9,255.5
		C609.9,255.5,609.9,255.5,609.9,255.5z"/>
	<path class="st6" d="M613.1,255.1c0-1.8,0.8-2.8,2.3-2.8s2.3,1,2.3,2.8s-0.8,2.8-2.3,2.8S613.1,257,613.1,255.1z M616.5,255.5v-0.9
		c0-1.1-0.4-1.7-1.2-1.7s-1.2,0.6-1.2,1.7v0.9c0,1.1,0.4,1.7,1.2,1.7S616.5,256.6,616.5,255.5L616.5,255.5z M614.8,262.4l6.9-10h1.1
		l-6.9,10H614.8z M620,259.8c0-1.8,0.8-2.8,2.3-2.8s2.3,1,2.3,2.8s-0.8,2.8-2.3,2.8S620,261.6,620,259.8L620,259.8z M623.4,260.2
		v-0.9c0-1.1-0.4-1.7-1.2-1.7s-1.2,0.6-1.2,1.7v0.9c0,1.1,0.4,1.7,1.2,1.7S623.4,261.3,623.4,260.2L623.4,260.2z"/>
</g>
<g>
	<path class="st6" d="M686,245.6h-4.4l-0.3,3.8h0.1c0.4-0.7,1.2-1.1,2-1.1c1.6-0.1,2.9,1.1,3,2.7c0,0.1,0,0.3,0,0.4
		c0.1,1.7-1.2,3.2-2.9,3.3c-0.1,0-0.3,0-0.4,0c-1.3,0-2.5-0.6-3.1-1.7l0.9-0.7c0.4,0.8,1.3,1.4,2.2,1.3c1,0.1,2-0.6,2.1-1.6
		c0-0.1,0-0.3,0-0.4v-0.1c0.1-1-0.6-2-1.7-2.1c-0.1,0-0.3,0-0.4,0c-0.7,0-1.4,0.3-1.8,0.8l-1-0.1l0.3-5.5h5.3V245.6z"/>
	<path class="st6" d="M688.4,250.9c0.1-2.6,1.4-4.9,3.6-6.3h1.5c-2.1,1.6-3.3,2.9-3.9,5.2h0.1c0.5-0.9,1.4-1.5,2.4-1.4
		c1.6-0.1,2.9,1.1,3,2.7c0,0.1,0,0.2,0,0.4c0.1,1.7-1.2,3.2-3,3.3c-0.1,0-0.2,0-0.4,0C689.7,254.7,688.4,253.3,688.4,250.9z
		 M693.8,251.6v-0.1c0-1.2-0.9-2.1-2.1-2.1s-2.1,0.9-2.1,2.1c0,0,0,0,0,0v0.1c0,1.2,0.9,2.1,2.1,2.1S693.8,252.8,693.8,251.6
		C693.8,251.6,693.8,251.6,693.8,251.6z"/>
	<path class="st6" d="M697,247.2c0-1.8,0.8-2.8,2.3-2.8s2.3,1,2.3,2.8s-0.8,2.8-2.3,2.8S697,249.1,697,247.2z M700.5,247.7v-0.9
		c0-1.1-0.4-1.7-1.2-1.7s-1.2,0.6-1.2,1.7v0.9c0,1.1,0.4,1.7,1.2,1.7S700.5,248.8,700.5,247.7L700.5,247.7z M698.7,254.6l6.9-10h1.1
		l-6.9,10H698.7z M703.9,251.9c0-1.8,0.8-2.8,2.3-2.8s2.3,1,2.3,2.8s-0.8,2.8-2.3,2.8S703.8,253.7,703.9,251.9L703.9,251.9z
		 M707.4,252.3v-0.9c0-1.1-0.4-1.7-1.2-1.7s-1.2,0.6-1.2,1.7v0.9c0,1.1,0.4,1.7,1.2,1.7S707.3,253.4,707.4,252.3L707.4,252.3z"/>
</g>
<g>
	<path class="st6" d="M769.9,247.9h-4.4l-0.3,3.8h0.1c0.4-0.7,1.2-1.1,2-1.1c1.6-0.1,2.9,1.1,3,2.7c0,0.1,0,0.3,0,0.4
		c0.1,1.7-1.2,3.2-2.9,3.3c-0.1,0-0.3,0-0.4,0c-1.3,0-2.5-0.6-3.1-1.7l0.9-0.7c0.4,0.8,1.3,1.4,2.2,1.3c1,0.1,2-0.6,2.1-1.6
		c0-0.1,0-0.3,0-0.4v-0.1c0.1-1-0.6-2-1.7-2.1c-0.1,0-0.3,0-0.4,0c-0.7,0-1.4,0.3-1.8,0.8l-1-0.1l0.3-5.5h5.4L769.9,247.9z"/>
	<path class="st6" d="M776.7,256.8v-2h-4.8v-1.1l4.2-7h1.8v7h1.4v1h-1.4v2L776.7,256.8z M773,253.8h3.7v-6.1h-0.1L773,253.8z"/>
	<path class="st6" d="M780.8,249.5c0-1.8,0.8-2.8,2.3-2.8s2.3,1,2.3,2.8s-0.8,2.8-2.3,2.8S780.8,251.3,780.8,249.5z M784.3,249.9
		v-0.9c0-1.1-0.4-1.7-1.2-1.7s-1.2,0.6-1.2,1.7v0.9c0,1.1,0.4,1.7,1.2,1.7S784.3,251,784.3,249.9z M782.5,256.8l6.9-10h1.1l-6.9,10
		H782.5z M787.7,254.1c0-1.8,0.8-2.8,2.3-2.8s2.3,1,2.3,2.8s-0.8,2.9-2.2,2.9S787.7,256,787.7,254.1L787.7,254.1z M791.2,254.6v-0.9
		c0-1.1-0.4-1.7-1.2-1.7s-1.2,0.6-1.2,1.7v0.9c0,1.1,0.4,1.7,1.2,1.7S791.2,255.7,791.2,254.6z"/>
</g>
<g>
	<path class="st6" d="M853.7,243.4h-4.4l-0.3,3.8h0.1c0.4-0.7,1.2-1.1,2-1.1c1.6-0.1,2.9,1.1,3,2.7c0,0.1,0,0.3,0,0.4
		c0.1,1.7-1.2,3.2-2.9,3.3c-0.1,0-0.3,0-0.4,0c-1.3,0-2.5-0.6-3.1-1.7l0.9-0.7c0.4,0.8,1.3,1.4,2.2,1.3c1,0.1,2-0.6,2.1-1.6
		c0-0.1,0-0.3,0-0.4v-0.1c0.1-1-0.6-2-1.7-2.1c-0.1,0-0.3,0-0.4,0c-0.7,0-1.4,0.3-1.8,0.9l-1-0.1l0.4-5.5h5.3L853.7,243.4z"/>
	<path class="st6" d="M856,249.6c0-1.2,0.8-2.3,2-2.5V247c-1-0.3-1.7-1.3-1.7-2.3c0-1.5,1.2-2.5,3.2-2.5s3.2,1,3.2,2.5
		c0,1.1-0.7,2-1.7,2.3v0.1c1.2,0.2,2,1.3,2,2.5c0,1.6-1.2,2.9-3.5,2.9S856,251.2,856,249.6z M861.7,249.6v-0.3
		c0-1.1-0.8-1.8-2.2-1.8s-2.2,0.7-2.2,1.8v0.3c0,1.1,0.8,1.8,2.2,1.8S861.7,250.8,861.7,249.6L861.7,249.6z M861.4,245v-0.2
		c0-1-0.7-1.6-1.9-1.6s-1.9,0.5-1.9,1.6v0.2c0,1,0.7,1.6,1.9,1.6S861.4,246,861.4,245z"/>
	<path class="st6" d="M864.7,245c0-1.8,0.8-2.8,2.3-2.8s2.3,1,2.3,2.8s-0.8,2.8-2.3,2.8S864.7,246.8,864.7,245z M868.2,245.4v-0.9
		c0-1.1-0.4-1.7-1.2-1.7s-1.2,0.6-1.2,1.7v0.9c0,1.1,0.4,1.7,1.2,1.7S868.2,246.5,868.2,245.4L868.2,245.4z M866.4,252.3l6.9-10h1.1
		l-6.9,10H866.4z M871.6,249.7c0-1.8,0.8-2.8,2.3-2.8s2.3,1,2.3,2.8s-0.8,2.8-2.3,2.8S871.6,251.5,871.6,249.7L871.6,249.7z
		 M875.1,250.1v-0.9c0-1.1-0.4-1.7-1.2-1.7s-1.2,0.6-1.2,1.7v0.9c0,1.1,0.4,1.7,1.2,1.7S875.1,251.2,875.1,250.1L875.1,250.1z"/>
</g>
<g>
	<path class="st6" d="M100.1,139.8h-4.4l-0.3,3.8h0.1c0.4-0.7,1.2-1.1,2-1.1c1.6-0.1,2.9,1.1,3,2.7c0,0.1,0,0.3,0,0.4
		c0.1,1.7-1.2,3.2-2.9,3.3c-0.1,0-0.3,0-0.4,0c-1.3,0-2.5-0.6-3.1-1.7l0.9-0.7c0.4,0.8,1.3,1.4,2.2,1.3c1,0.1,2-0.6,2.1-1.6
		c0-0.1,0-0.3,0-0.4v-0.1c0.1-1-0.6-2-1.7-2.1c-0.1,0-0.3,0-0.4,0c-0.7,0-1.4,0.3-1.8,0.8l-1-0.1l0.3-5.5h5.4L100.1,139.8z"/>
	<path class="st6" d="M109.2,148.7h-6.6v-1.2l3.3-3c0.9-0.7,1.5-1.7,1.7-2.8v-0.2c0.1-0.9-0.6-1.8-1.5-1.9c-0.1,0-0.2,0-0.3,0
		c-1,0-1.9,0.7-2.1,1.7l-1.1-0.4c0.4-1.4,1.7-2.4,3.2-2.4c1.5-0.2,2.9,1,3,2.5c0,0.1,0,0.3,0,0.4c0,1.5-0.9,2.6-2.2,3.8l-2.6,2.4
		h5.2L109.2,148.7z"/>
	<path class="st6" d="M111.1,141.4c0-1.8,0.8-2.8,2.3-2.8s2.3,1,2.3,2.8s-0.8,2.8-2.3,2.8S111.1,143.2,111.1,141.4z M114.6,141.8
		V141c0-1.1-0.4-1.7-1.2-1.7s-1.2,0.6-1.2,1.7v0.9c0,1.1,0.4,1.7,1.2,1.7S114.6,142.9,114.6,141.8L114.6,141.8z M112.8,148.7l6.9-10
		h1.1l-6.9,10H112.8z M118,146.1c0-1.8,0.8-2.8,2.3-2.8s2.3,1,2.3,2.8s-0.8,2.8-2.3,2.8S118,147.9,118,146.1L118,146.1z
		 M121.5,146.5v-0.9c0-1.1-0.4-1.7-1.2-1.7s-1.2,0.6-1.2,1.7v0.9c0,1.1,0.4,1.7,1.2,1.7S121.5,147.6,121.5,146.5L121.5,146.5z"/>
</g>
<g>
	<path class="st6" d="M182.6,139.7v-2h-4.8v-1l4.2-7h1.8v7h1.4v1h-1.4v2L182.6,139.7z M178.9,136.7h3.7v-6.1h-0.1L178.9,136.7z"/>
	<path class="st6" d="M191.2,139.7v-2h-4.8v-1l4.2-7h1.8v7h1.4v1h-1.4v2L191.2,139.7z M187.5,136.7h3.7v-6.1h-0.1L187.5,136.7z"/>
	<path class="st6" d="M195.4,132.4c0-1.8,0.8-2.8,2.3-2.8s2.3,1,2.3,2.8s-0.8,2.8-2.3,2.8S195.4,134.2,195.4,132.4z M198.9,132.8
		V132c0-1.1-0.4-1.7-1.2-1.7s-1.2,0.6-1.2,1.7v0.9c0,1.1,0.4,1.7,1.2,1.7S198.9,133.9,198.9,132.8L198.9,132.8z M197.1,139.7l6.9-10
		h1.1l-6.9,10H197.1z M202.3,137.1c0-1.8,0.8-2.8,2.3-2.8s2.3,1,2.3,2.8s-0.8,2.8-2.3,2.8S202.3,138.9,202.3,137.1L202.3,137.1z
		 M205.8,137.5v-0.9c0-1.1-0.4-1.7-1.2-1.7s-1.2,0.6-1.2,1.7v0.9c0,1.1,0.4,1.7,1.2,1.7S205.8,138.6,205.8,137.5L205.8,137.5z"/>
</g>
<g>
	<path class="st6" d="M268.1,137.6h-4.4l-0.3,3.8h0.1c0.4-0.7,1.2-1.1,2-1.1c1.6-0.1,2.9,1.1,3,2.7c0,0.1,0,0.3,0,0.4
		c0.1,1.7-1.2,3.2-2.9,3.3c-0.1,0-0.3,0-0.4,0c-1.3,0.1-2.5-0.6-3.2-1.6l0.9-0.7c0.4,0.8,1.3,1.4,2.2,1.3c1,0.1,2-0.6,2.1-1.6
		c0-0.1,0-0.3,0-0.4v-0.1c0.1-1-0.6-2-1.7-2.1c-0.1,0-0.3,0-0.4,0c-0.7,0-1.4,0.3-1.8,0.8l-1-0.1l0.4-5.5h5.4L268.1,137.6z"/>
	<path class="st6" d="M270.4,141.5c0-3.3,1-5.2,3.4-5.2s3.4,1.9,3.4,5.2s-1,5.2-3.4,5.2S270.4,144.8,270.4,141.5z M276,142.3v-1.6
		c0-1.9-0.6-3.3-2.2-3.3s-2.2,1.4-2.2,3.3v1.6c0,1.9,0.6,3.3,2.2,3.3S276,144.2,276,142.3z"/>
	<path class="st6" d="M279,139.1c0-1.8,0.8-2.8,2.3-2.8s2.3,1,2.3,2.8s-0.8,2.8-2.3,2.8S279,141,279,139.1z M282.5,139.6v-0.9
		c0-1.1-0.4-1.7-1.2-1.7s-1.2,0.6-1.2,1.7v0.9c0,1.1,0.4,1.7,1.2,1.7S282.5,140.7,282.5,139.6L282.5,139.6z M280.7,146.5l6.9-10h1.1
		l-6.9,10H280.7z M285.9,143.8c0-1.8,0.8-2.8,2.3-2.8s2.3,1,2.3,2.8s-0.8,2.8-2.3,2.8S285.9,145.6,285.9,143.8L285.9,143.8z
		 M289.4,144.2v-0.9c0-1.1-0.4-1.7-1.2-1.7s-1.2,0.6-1.2,1.7v0.9c0,1.1,0.4,1.7,1.2,1.7S289.4,145.3,289.4,144.2L289.4,144.2z"/>
</g>
<g>
	<path class="st6" d="M349.6,136.3v-2h-4.8v-1.1l4.2-7h1.8v7h1.5v1h-1.5v2L349.6,136.3z M345.9,133.3h3.7v-6.1h-0.1L345.9,133.3z"/>
	<path class="st6" d="M353.6,131.4c0-3.3,1-5.2,3.4-5.2s3.4,1.9,3.4,5.2s-1,5.2-3.4,5.2S353.6,134.6,353.6,131.4z M359.2,132.2v-1.6
		c0-1.9-0.6-3.3-2.2-3.3s-2.2,1.4-2.2,3.3v1.6c0,1.9,0.6,3.3,2.2,3.3S359.2,134.1,359.2,132.2z"/>
	<path class="st6" d="M362.3,129c0-1.8,0.8-2.8,2.3-2.8s2.3,1,2.3,2.8s-0.8,2.8-2.3,2.8S362.3,130.9,362.3,129z M365.8,129.4v-0.9
		c0-1.1-0.4-1.7-1.2-1.7s-1.2,0.6-1.2,1.7v0.9c0,1.1,0.4,1.7,1.2,1.7S365.8,130.5,365.8,129.4L365.8,129.4z M364,136.3l6.9-10h1.1
		l-6.9,10H364z M369.2,133.7c0-1.8,0.8-2.8,2.3-2.8s2.3,1,2.3,2.8s-0.8,2.8-2.3,2.8S369.2,135.5,369.2,133.7L369.2,133.7z
		 M372.7,134.1v-0.9c0-1.1-0.4-1.7-1.2-1.7s-1.2,0.6-1.2,1.7v0.9c0,1.1,0.4,1.7,1.2,1.7S372.7,135.2,372.7,134.1L372.7,134.1z"/>
</g>
<g>
	<path class="st6" d="M433.6,145.4v-2h-4.8v-1.1l4.2-7h1.8v7h1.5v1h-1.5v2L433.6,145.4z M429.9,142.4h3.7v-6.1h-0.1L429.9,142.4z"/>
	<path class="st6" d="M437.7,142.6c0-1.2,0.8-2.3,2-2.5V140c-1-0.3-1.7-1.2-1.7-2.3c0-1.5,1.2-2.5,3.2-2.5s3.2,1,3.2,2.5
		c0,1.1-0.7,2-1.7,2.3v0.1c1.2,0.2,2,1.3,2,2.5c0,1.6-1.2,2.9-3.5,2.9S437.7,144.3,437.7,142.6z M443.3,142.7v-0.3
		c0-1.1-0.8-1.8-2.2-1.8s-2.2,0.7-2.2,1.8v0.3c0,1.1,0.8,1.8,2.2,1.8S443.3,143.8,443.3,142.7z M443.1,138v-0.2c0-1-0.7-1.6-1.9-1.6
		s-1.9,0.6-1.9,1.6v0.2c0,1,0.7,1.6,1.9,1.6S443.1,139,443.1,138L443.1,138z"/>
	<path class="st6" d="M446.4,138c0-1.8,0.8-2.8,2.3-2.8s2.3,1,2.3,2.8s-0.8,2.8-2.3,2.8S446.4,139.9,446.4,138z M449.8,138.4v-0.9
		c0-1.1-0.4-1.7-1.2-1.7s-1.2,0.6-1.2,1.7v0.9c0,1.1,0.4,1.7,1.2,1.7S449.9,139.5,449.8,138.4L449.8,138.4z M448,145.3l6.9-10h1.1
		l-6.9,10H448z M453.2,142.7c0-1.8,0.8-2.8,2.3-2.8s2.3,1,2.3,2.8s-0.8,2.8-2.3,2.8S453.2,144.5,453.2,142.7L453.2,142.7z
		 M456.7,143.1v-0.9c0-1.1-0.4-1.7-1.2-1.7s-1.2,0.6-1.2,1.7v0.9c0,1.1,0.4,1.7,1.2,1.7S456.7,144.2,456.7,143.1L456.7,143.1z"/>
</g>
<g>
	<path class="st6" d="M517.5,138.6v-2h-4.8v-1.1l4.2-7h1.8v7h1.5v1h-1.5v2L517.5,138.6z M513.8,135.6h3.7v-6.1h-0.1L513.8,135.6z"/>
	<path class="st6" d="M528.3,138.6h-6.5v-1.2l3.3-3c0.9-0.7,1.5-1.7,1.7-2.8v-0.2c0.1-0.9-0.6-1.8-1.5-1.9c-0.1,0-0.2,0-0.3,0
		c-1,0-1.9,0.7-2.1,1.7l-1.1-0.4c0.4-1.4,1.7-2.4,3.2-2.4c1.5-0.2,2.9,1,3,2.5c0,0.1,0,0.3,0,0.4c0,1.5-0.9,2.6-2.2,3.8l-2.7,2.4
		h5.2L528.3,138.6z"/>
	<path class="st6" d="M530.2,131.3c0-1.8,0.8-2.8,2.3-2.8s2.3,1,2.3,2.8s-0.8,2.8-2.3,2.8S530.2,133.1,530.2,131.3z M533.7,131.7
		v-0.9c0-1.1-0.4-1.7-1.2-1.7s-1.2,0.6-1.2,1.7v0.9c0,1.1,0.4,1.7,1.2,1.7S533.7,132.8,533.7,131.7L533.7,131.7z M531.9,138.6
		l6.9-10h1.2l-6.9,10H531.9z M537.1,135.9c0-1.8,0.8-2.8,2.3-2.8s2.3,1,2.3,2.8s-0.8,2.8-2.3,2.8S537.1,137.8,537.1,135.9
		L537.1,135.9z M540.6,136.4v-0.9c0-1.1-0.4-1.7-1.2-1.7s-1.2,0.6-1.2,1.7v0.9c0,1.1,0.4,1.7,1.2,1.7S540.6,137.4,540.6,136.4
		L540.6,136.4z"/>
</g>
<g>
	<path class="st6" d="M602.1,138.7h-4.4l-0.3,3.8h0.1c0.4-0.7,1.2-1.1,2-1.1c1.6-0.1,2.9,1.1,3,2.7c0,0.1,0,0.3,0,0.4
		c0.1,1.7-1.2,3.2-2.9,3.3c-0.1,0-0.3,0-0.4,0c-1.3,0-2.5-0.6-3.1-1.7l0.9-0.7c0.4,0.8,1.3,1.4,2.2,1.3c1,0.1,2-0.6,2.1-1.6
		c0-0.1,0-0.3,0-0.4v-0.1c0.1-1-0.6-2-1.7-2.1c-0.1,0-0.3,0-0.4,0c-0.7,0-1.4,0.3-1.8,0.8l-1-0.1l0.3-5.5h5.4L602.1,138.7z"/>
	<path class="st6" d="M604.8,147.6v-1.1h2.8v-8h-0.1l-2.5,2.3l-0.7-0.8l2.6-2.5h1.9v8.9h2.6v1.1H604.8z"/>
	<path class="st6" d="M613.1,140.3c0-1.8,0.8-2.8,2.3-2.8s2.3,1,2.3,2.8s-0.8,2.8-2.3,2.8S613.1,142.1,613.1,140.3z M616.5,140.7
		v-0.9c0-1.1-0.4-1.7-1.2-1.7s-1.2,0.6-1.2,1.7v0.9c0,1.1,0.4,1.7,1.2,1.7S616.5,141.8,616.5,140.7z M614.8,147.6l6.9-10h1.1
		l-6.9,10H614.8z M620,144.9c0-1.8,0.8-2.8,2.3-2.8s2.3,1,2.3,2.8s-0.8,2.8-2.3,2.8S620,146.8,620,144.9L620,144.9z M623.4,145.4
		v-0.9c0-1.1-0.4-1.7-1.2-1.7s-1.2,0.6-1.2,1.7v0.9c0,1.1,0.4,1.7,1.2,1.7S623.4,146.5,623.4,145.4L623.4,145.4z"/>
</g>
<g>
	<path class="st6" d="M684.2,139.7v-2h-4.8v-1l4.2-7h1.8v7h1.5v1h-1.5v2L684.2,139.7z M680.5,136.7h3.7v-6.1h-0.1L680.5,136.7z"/>
	<path class="st6" d="M692.8,139.7v-2H688v-1l4.2-7h1.8v7h1.4v1H694v2L692.8,139.7z M689.1,136.7h3.7v-6.1h-0.1L689.1,136.7z"/>
	<path class="st6" d="M697,132.4c0-1.8,0.8-2.8,2.3-2.8s2.3,1,2.3,2.8s-0.8,2.8-2.3,2.8S697,134.2,697,132.4z M700.5,132.8V132
		c0-1.1-0.4-1.7-1.2-1.7s-1.3,0.5-1.3,1.7v0.9c0,1.1,0.4,1.7,1.2,1.7S700.5,133.9,700.5,132.8L700.5,132.8z M698.7,139.7l6.9-10h1.1
		l-6.9,10H698.7z M703.9,137.1c0-1.8,0.8-2.8,2.3-2.8s2.3,1,2.3,2.8s-0.8,2.8-2.3,2.8S703.8,138.9,703.9,137.1L703.9,137.1z
		 M707.4,137.5v-0.9c0-1.1-0.4-1.7-1.2-1.7s-1.2,0.6-1.2,1.7v0.9c0,1.1,0.4,1.7,1.2,1.7S707.3,138.6,707.4,137.5L707.4,137.5z"/>
</g>
<g>
	<path class="st6" d="M768.1,142v-2h-4.8v-1l4.2-7h1.8v7h1.5v1h-1.5v2H768.1z M764.4,139h3.7v-6.1H768L764.4,139z"/>
	<path class="st6" d="M772.3,138.3c0.1-2.6,1.4-4.9,3.6-6.3h1.5c-2.1,1.6-3.3,2.9-3.9,5.2h0.1c0.5-0.9,1.4-1.5,2.4-1.4
		c1.6-0.1,2.9,1.1,3,2.7c0,0.1,0,0.2,0,0.4c0.1,1.7-1.2,3.2-3,3.3c-0.1,0-0.2,0-0.4,0C773.5,142.1,772.3,140.7,772.3,138.3z
		 M777.7,139v-0.1c0-1.2-0.9-2.1-2.1-2.1s-2.1,0.9-2.1,2.1c0,0,0,0,0,0v0.1c0,1.2,0.9,2.1,2.1,2.1S777.7,140.2,777.7,139
		C777.7,139,777.7,139,777.7,139z"/>
	<path class="st6" d="M780.8,134.6c0-1.8,0.8-2.8,2.3-2.8s2.3,1,2.3,2.8s-0.8,2.8-2.3,2.8S780.8,136.5,780.8,134.6z M784.3,135.1
		v-0.9c0-1.1-0.4-1.7-1.2-1.7s-1.2,0.6-1.2,1.7v0.9c0,1.1,0.4,1.7,1.2,1.7S784.3,136.2,784.3,135.1L784.3,135.1z M782.5,142l6.9-10
		h1.1l-6.9,10H782.5z M787.7,139.3c0-1.8,0.8-2.8,2.3-2.8s2.3,1,2.3,2.8s-0.8,2.8-2.3,2.8S787.7,141.1,787.7,139.3L787.7,139.3z
		 M791.2,139.7v-0.9c0-1.1-0.4-1.7-1.2-1.7s-1.2,0.6-1.2,1.7v0.9c0,1.1,0.4,1.7,1.2,1.7S791.2,140.8,791.2,139.7L791.2,139.7z"/>
</g>
<g>
	<path class="st6" d="M852,137.5v-2h-4.8v-1.1l4.2-7h1.8v7h1.5v1h-1.5v2L852,137.5z M848.3,134.5h3.7v-6.1h-0.1L848.3,134.5z"/>
	<path class="st6" d="M862.8,137.5h-6.5v-1.2l3.3-3c0.9-0.7,1.5-1.7,1.7-2.8v-0.2c0.1-0.9-0.6-1.8-1.5-1.9c-0.1,0-0.2,0-0.3,0
		c-1,0-1.9,0.7-2.1,1.7l-1.1-0.4c0.4-1.4,1.7-2.4,3.2-2.4c1.5-0.2,2.9,1,3,2.5c0,0.1,0,0.3,0,0.4c0,1.5-0.9,2.6-2.2,3.8l-2.7,2.4
		h5.2L862.8,137.5z"/>
	<path class="st6" d="M864.7,130.1c0-1.8,0.8-2.8,2.3-2.8s2.3,1,2.3,2.8s-0.8,2.9-2.2,2.9S864.7,132,864.7,130.1z M868.2,130.6v-0.9
		c0-1.1-0.4-1.7-1.2-1.7s-1.2,0.6-1.2,1.7v0.9c0,1.1,0.4,1.7,1.2,1.7S868.2,131.7,868.2,130.6L868.2,130.6z M866.4,137.5l6.9-10h1.1
		l-6.9,10H866.4z M871.6,134.8c0-1.8,0.8-2.8,2.3-2.8s2.3,1,2.3,2.8s-0.8,2.8-2.3,2.8S871.6,136.6,871.6,134.8L871.6,134.8z
		 M875.1,135.2v-0.9c0-1.1-0.4-1.7-1.2-1.7s-1.2,0.6-1.2,1.7v0.9c0,1.1,0.4,1.7,1.2,1.7S875.1,136.3,875.1,135.2L875.1,135.2z"/>
</g>
<g>
	<path class="st7" d="M33.5,312.6c0-3.3,1-5.2,3.4-5.2s3.4,1.9,3.4,5.2s-1,5.2-3.4,5.2S33.5,315.9,33.5,312.6z M39.1,313.4v-1.6
		c0-1.9-0.6-3.3-2.2-3.3s-2.2,1.4-2.2,3.3v1.6c0,1.9,0.6,3.3,2.2,3.3S39.1,315.4,39.1,313.4z"/>
	<path class="st7" d="M42.1,310.3c0-1.8,0.8-2.8,2.3-2.8s2.3,1,2.3,2.8s-0.8,2.8-2.3,2.8S42.1,312.1,42.1,310.3z M45.6,310.7v-0.9
		c0-1.1-0.4-1.7-1.2-1.7s-1.2,0.6-1.2,1.7v0.9c0,1.1,0.4,1.7,1.2,1.7S45.6,311.8,45.6,310.7z M43.8,317.6l6.9-10h1.1l-6.9,10H43.8z
		 M49,315c0-1.8,0.8-2.8,2.3-2.8s2.3,1,2.3,2.8s-0.8,2.8-2.3,2.8S49,316.8,49,315z M52.5,315.4v-0.9c0-1.1-0.4-1.7-1.2-1.7
		s-1.2,0.6-1.2,1.7v0.9c0,1.1,0.4,1.7,1.2,1.7S52.5,316.5,52.5,315.4L52.5,315.4z"/>
</g>
<g>
	<path class="st7" d="M23.9,294v-1.1h2.8v-8h-0.1l-2.6,2.3l-0.7-0.8L26,284h1.9v8.9h2.6v1.1H23.9z"/>
	<path class="st7" d="M32,289c0-3.3,1-5.2,3.4-5.2s3.4,1.9,3.4,5.2s-1,5.2-3.4,5.2S32,292.2,32,289z M37.6,289.8v-1.6
		c0-1.9-0.6-3.3-2.2-3.3s-2.2,1.4-2.2,3.3v1.6c0,1.9,0.6,3.3,2.2,3.3S37.7,291.7,37.6,289.8L37.6,289.8z"/>
	<path class="st7" d="M40.7,286.6c0-1.8,0.8-2.8,2.3-2.8s2.3,1,2.3,2.8s-0.8,2.8-2.3,2.8S40.7,288.5,40.7,286.6z M44.2,287.1v-0.9
		c0-1.1-0.4-1.7-1.2-1.7s-1.2,0.6-1.2,1.7v0.9c0,1.1,0.4,1.7,1.2,1.7S44.2,288.1,44.2,287.1z M42.4,294l6.9-10h1.1l-6.9,10H42.4z
		 M47.6,291.3c0-1.8,0.8-2.8,2.3-2.8s2.3,1,2.3,2.8s-0.8,2.8-2.3,2.8S47.6,293.1,47.6,291.3z M51.1,291.7v-0.9
		c0-1.1-0.4-1.7-1.2-1.7s-1.2,0.6-1.2,1.7v0.9c0,1.1,0.4,1.7,1.2,1.7S51.1,292.8,51.1,291.7L51.1,291.7z"/>
</g>
<g>
	<path class="st7" d="M30.2,271.5h-6.6v-1.2l3.3-3c0.9-0.7,1.5-1.7,1.6-2.8v-0.2c0.1-0.9-0.6-1.8-1.5-1.9c-0.1,0-0.2,0-0.3,0
		c-1-0.1-1.9,0.7-2.1,1.7l-1.1-0.4c0.4-1.4,1.7-2.4,3.2-2.4c1.5-0.2,2.9,1,3.1,2.5c0,0.1,0,0.3,0,0.4c0,1.5-0.9,2.6-2.2,3.8
		l-2.7,2.4h5.2L30.2,271.5z"/>
	<path class="st7" d="M32,266.5c0-3.3,1-5.2,3.4-5.2s3.4,1.9,3.4,5.2s-1,5.2-3.4,5.2S32,269.7,32,266.5z M37.6,267.3v-1.6
		c0-1.9-0.6-3.3-2.2-3.3s-2.2,1.4-2.2,3.3v1.6c0,1.9,0.6,3.3,2.2,3.3S37.7,269.2,37.6,267.3L37.6,267.3z"/>
	<path class="st7" d="M40.7,264.1c0-1.8,0.8-2.8,2.3-2.8s2.3,1,2.3,2.8S44.4,267,43,267S40.7,266,40.7,264.1z M44.2,264.5v-0.9
		c0-1.1-0.4-1.7-1.2-1.7s-1.2,0.6-1.2,1.7v0.9c0,1.1,0.4,1.7,1.2,1.7S44.2,265.6,44.2,264.5z M42.4,271.4l6.9-10h1.1l-6.9,10H42.4z
		 M47.6,268.8c0-1.8,0.8-2.8,2.3-2.8s2.3,1,2.3,2.8s-0.8,2.8-2.3,2.8S47.6,270.6,47.6,268.8L47.6,268.8z M51.1,269.2v-0.9
		c0-1.1-0.4-1.7-1.2-1.7s-1.2,0.6-1.2,1.7v0.9c0,1.1,0.4,1.7,1.2,1.7S51.1,270.3,51.1,269.2L51.1,269.2z"/>
</g>
<g>
	<path class="st7" d="M26.3,243.2c1.3,0,2-0.7,2-1.7v-0.1c0-1-0.7-1.6-1.8-1.6c-0.9,0-1.7,0.5-2.1,1.2l-0.9-0.7
		c0.6-1.1,1.8-1.7,3-1.6c1.7,0,3,0.9,3,2.5c0,1.1-0.8,2.1-1.9,2.3v0.1c1.2,0.2,2.1,1.3,2.1,2.5c0,1.7-1.4,2.9-3.4,2.9
		c-1.3,0-2.5-0.6-3.2-1.7l0.9-0.7c0.5,0.9,1.4,1.4,2.4,1.3c1.4,0,2.1-0.7,2.1-1.9V246c0-1.2-0.8-1.9-2.1-1.9h-1.2v-1L26.3,243.2z"/>
	<path class="st7" d="M32,243.9c0-3.3,1-5.2,3.4-5.2s3.4,1.9,3.4,5.2s-1,5.2-3.4,5.2S32,247.2,32,243.9z M37.6,244.8v-1.6
		c0-1.9-0.6-3.3-2.2-3.3s-2.2,1.4-2.2,3.3v1.6c0,1.9,0.6,3.3,2.2,3.3S37.7,246.7,37.6,244.8L37.6,244.8z"/>
	<path class="st7" d="M40.7,241.6c0-1.8,0.8-2.8,2.3-2.8s2.3,1,2.3,2.8s-0.8,2.8-2.3,2.8S40.7,243.4,40.7,241.6z M44.2,242v-0.9
		c0-1.1-0.4-1.7-1.2-1.7s-1.2,0.6-1.2,1.7v0.8c0,1.1,0.4,1.7,1.2,1.7S44.2,243.1,44.2,242L44.2,242z M42.4,248.9l6.9-10h1.1l-6.9,10
		H42.4z M47.6,246.3c0-1.8,0.8-2.8,2.3-2.8s2.3,1,2.3,2.8s-0.8,2.8-2.3,2.8S47.6,248.1,47.6,246.3z M51.1,246.7v-0.9
		c0-1.1-0.4-1.7-1.2-1.7s-1.2,0.6-1.2,1.7v0.9c0,1.1,0.4,1.7,1.2,1.7S51.1,247.8,51.1,246.7L51.1,246.7z"/>
</g>
<g>
	<path class="st7" d="M28,226.4v-2h-4.9v-1.1l4.2-7h1.8v7h1.5v1h-1.5v2L28,226.4z M24.3,223.4H28v-6.1h-0.1L24.3,223.4z"/>
	<path class="st7" d="M32,221.4c0-3.3,1-5.2,3.4-5.2s3.4,1.9,3.4,5.2s-1,5.2-3.4,5.2S32,224.7,32,221.4z M37.6,222.2v-1.6
		c0-1.9-0.6-3.3-2.2-3.3s-2.2,1.4-2.2,3.3v1.6c0,1.9,0.6,3.3,2.2,3.3S37.7,224.2,37.6,222.2L37.6,222.2z"/>
	<path class="st7" d="M40.7,219.1c0-1.8,0.8-2.8,2.3-2.8s2.3,1,2.3,2.8s-0.8,2.8-2.3,2.8S40.7,220.9,40.7,219.1z M44.2,219.5v-0.9
		c0-1.1-0.4-1.7-1.2-1.7s-1.2,0.6-1.2,1.7v0.9c0,1.1,0.4,1.7,1.2,1.7S44.2,220.6,44.2,219.5L44.2,219.5z M42.4,226.4l6.9-10h1.1
		l-6.9,10H42.4z M47.6,223.7c0-1.8,0.8-2.8,2.3-2.8s2.3,1,2.3,2.8s-0.8,2.8-2.3,2.8S47.6,225.6,47.6,223.7L47.6,223.7z M51.1,224.2
		v-0.9c0-1.1-0.4-1.7-1.2-1.7s-1.2,0.6-1.2,1.7v0.9c0,1.1,0.4,1.7,1.2,1.7S51.1,225.3,51.1,224.2L51.1,224.2z"/>
</g>
<g>
	<path class="st7" d="M29.7,193.8h-4.4l-0.3,3.8h0.1c0.4-0.7,1.2-1.1,2-1.1c1.6-0.1,2.9,1.1,3,2.7c0,0.1,0,0.3,0,0.4
		c0.1,1.7-1.2,3.2-2.9,3.3c-0.1,0-0.3,0-0.4,0c-1.3,0-2.5-0.6-3.1-1.7l0.9-0.7c0.4,0.8,1.3,1.4,2.2,1.3c1,0.1,2-0.6,2.1-1.6
		c0-0.1,0-0.3,0-0.4v-0.1c0.1-1-0.6-2-1.7-2.1c-0.1,0-0.3,0-0.4,0c-0.7,0-1.4,0.3-1.8,0.8l-1-0.1l0.4-5.5h5.4L29.7,193.8z"/>
	<path class="st7" d="M32,197.8c0-3.3,1-5.2,3.4-5.2s3.4,1.9,3.4,5.2s-1,5.2-3.4,5.2S32,201,32,197.8z M37.6,198.6V197
		c0-1.9-0.6-3.3-2.2-3.3s-2.1,1.3-2.1,3.3v1.6c0,1.9,0.6,3.3,2.2,3.3S37.7,200.5,37.6,198.6L37.6,198.6z"/>
	<path class="st7" d="M40.7,195.4c0-1.8,0.8-2.8,2.3-2.8s2.3,1,2.3,2.8s-0.8,2.8-2.3,2.8S40.7,197.3,40.7,195.4z M44.2,195.9V195
		c0-1.1-0.4-1.7-1.2-1.7s-1.2,0.6-1.2,1.7v0.9c0,1.1,0.4,1.7,1.2,1.7S44.2,197,44.2,195.9z M42.4,202.8l6.9-10h1.1l-6.9,10H42.4z
		 M47.6,200.1c0-1.8,0.8-2.8,2.3-2.8s2.3,1,2.3,2.8s-0.8,2.8-2.3,2.8S47.6,201.9,47.6,200.1z M51.1,200.5v-0.9
		c0-1.1-0.4-1.7-1.2-1.7s-1.2,0.6-1.2,1.7v0.9c0,1.1,0.4,1.7,1.2,1.7S51.1,201.6,51.1,200.5L51.1,200.5z"/>
</g>
<g>
	<path class="st7" d="M23.6,176.6c0.1-2.6,1.4-4.9,3.6-6.3h1.5c-2.1,1.6-3.3,2.9-3.9,5.2h0.1c0.5-0.9,1.4-1.5,2.4-1.4
		c1.6-0.1,2.9,1.2,3,2.7c0,0.1,0,0.2,0,0.3c0.1,1.7-1.2,3.2-2.9,3.3c-0.1,0-0.2,0-0.4,0C24.8,180.4,23.6,179,23.6,176.6z M29,177.3
		v-0.1c0.1-1-0.7-2-1.7-2.1c-0.1,0-0.3,0-0.4,0c-1-0.1-2,0.7-2.1,1.7c0,0.1,0,0.3,0,0.4v0.1c-0.1,1,0.7,2,1.7,2.1c0.1,0,0.3,0,0.4,0
		c1,0.1,2-0.6,2.1-1.7C29,177.6,29,177.4,29,177.3L29,177.3z"/>
	<path class="st7" d="M32,175.3c0-3.3,1-5.2,3.4-5.2s3.4,1.9,3.4,5.2s-1,5.2-3.4,5.2S32,178.5,32,175.3z M37.6,176.1v-1.6
		c0-1.9-0.6-3.3-2.2-3.3s-2.2,1.4-2.2,3.3v1.6c0,1.9,0.6,3.3,2.2,3.3S37.7,178,37.6,176.1L37.6,176.1z"/>
	<path class="st7" d="M40.7,172.9c0-1.8,0.8-2.8,2.3-2.8s2.3,1,2.3,2.8s-0.8,2.8-2.3,2.8S40.7,174.8,40.7,172.9z M44.2,173.3v-0.9
		c0-1.1-0.4-1.7-1.2-1.7s-1.2,0.6-1.2,1.7v0.9c0,1.1,0.4,1.7,1.2,1.7S44.2,174.4,44.2,173.3L44.2,173.3z M42.4,180.2l6.9-10h1.1
		l-6.9,10H42.4z M47.6,177.6c0-1.8,0.8-2.8,2.3-2.8s2.3,1,2.3,2.8s-0.8,2.8-2.3,2.8S47.6,179.4,47.6,177.6L47.6,177.6z M51.1,178
		v-0.9c0-1.1-0.4-1.7-1.2-1.7s-1.2,0.6-1.2,1.7v0.8c0,1.1,0.4,1.7,1.2,1.7S51.1,179.1,51.1,178L51.1,178z"/>
</g>
<g>
	<path class="st7" d="M25.1,157.7l3.8-9h-4.3v1.9h-1.1v-2.9h6.5v1.1l-3.8,8.9L25.1,157.7z"/>
	<path class="st7" d="M32,152.7c0-3.3,1-5.2,3.4-5.2s3.4,1.9,3.4,5.2s-1,5.2-3.4,5.2S32,156,32,152.7z M37.6,153.6v-1.6
		c0-1.9-0.6-3.3-2.2-3.3s-2.2,1.4-2.2,3.3v1.6c0,1.9,0.6,3.3,2.2,3.3S37.7,155.5,37.6,153.6L37.6,153.6z"/>
	<path class="st7" d="M40.7,150.4c0-1.8,0.8-2.8,2.3-2.8s2.3,1,2.3,2.8s-0.8,2.8-2.3,2.8S40.7,152.2,40.7,150.4z M44.2,150.8V150
		c0-1.1-0.4-1.7-1.2-1.7s-1.2,0.6-1.2,1.7v0.9c0,1.1,0.4,1.7,1.2,1.7S44.2,151.9,44.2,150.8L44.2,150.8z M42.4,157.7l6.9-10h1.1
		l-6.9,10H42.4z M47.6,155.1c0-1.8,0.8-2.8,2.3-2.8s2.3,1,2.3,2.8s-0.8,2.8-2.3,2.8S47.6,156.9,47.6,155.1L47.6,155.1z M51.1,155.5
		v-0.9c0-1.1-0.4-1.7-1.2-1.7s-1.2,0.6-1.2,1.7v0.9c0,1.1,0.4,1.7,1.2,1.7S51.1,156.6,51.1,155.5L51.1,155.5z"/>
</g>
<g>
	<path class="st7" d="M23.4,131.4c0-1.2,0.8-2.3,2-2.5v-0.1c-1-0.3-1.7-1.3-1.7-2.3c0-1.5,1.2-2.5,3.2-2.5s3.2,1,3.2,2.5
		c0,1.1-0.7,2-1.7,2.3v0.1c1.2,0.2,2,1.3,2,2.5c0,1.6-1.2,2.9-3.5,2.9S23.4,133,23.4,131.4z M29.1,131.4v-0.3c0-1.1-0.8-1.8-2.2-1.8
		s-2.2,0.7-2.2,1.8v0.3c0,1.1,0.8,1.8,2.2,1.8S29.1,132.6,29.1,131.4z M28.8,126.8v-0.2c0-1-0.7-1.6-1.9-1.6s-1.9,0.6-1.9,1.6v0.2
		c0,1,0.7,1.6,1.9,1.6S28.8,127.8,28.8,126.8z"/>
	<path class="st7" d="M32,129.1c0-3.3,1-5.2,3.4-5.2s3.4,1.9,3.4,5.2s-1,5.2-3.4,5.2S32,132.4,32,129.1z M37.6,129.9v-1.6
		c0-1.9-0.6-3.3-2.2-3.3s-2.2,1.4-2.2,3.3v1.6c0,1.9,0.6,3.3,2.2,3.3S37.7,131.9,37.6,129.9L37.6,129.9z"/>
	<path class="st7" d="M40.7,126.8c0-1.8,0.8-2.8,2.3-2.8s2.3,1,2.3,2.8s-0.8,2.8-2.3,2.8S40.7,128.6,40.7,126.8z M44.2,127.2v-0.9
		c0-1.1-0.4-1.7-1.2-1.7s-1.2,0.6-1.2,1.7v0.9c0,1.1,0.4,1.7,1.2,1.7S44.2,128.3,44.2,127.2L44.2,127.2z M42.4,134.1l6.9-10h1.1
		l-6.9,10H42.4z M47.6,131.4c0-1.8,0.8-2.8,2.3-2.8s2.3,1,2.3,2.8s-0.8,2.8-2.3,2.8S47.6,133.3,47.6,131.4L47.6,131.4z M51.1,131.9
		V131c0-1.1-0.4-1.7-1.2-1.7s-1.2,0.6-1.2,1.7v0.9c0,1.1,0.4,1.7,1.2,1.7S51.1,133,51.1,131.9L51.1,131.9z"/>
</g>
<g>
	<path class="st7" d="M26.7,111.6h-1.5c2.1-1.6,3.3-2.9,3.9-5.2h-0.1c-0.5,0.9-1.4,1.5-2.4,1.4c-1.6,0.1-2.9-1.1-3-2.7
		c0-0.1,0-0.3,0-0.4c-0.1-1.7,1.2-3.2,3-3.3c0.1,0,0.2,0,0.4,0c2.1,0,3.4,1.5,3.4,3.8C30.1,107.8,28.8,110.2,26.7,111.6z M29,104.7
		v-0.1c0.1-1-0.6-2-1.7-2.1c-0.1,0-0.3,0-0.4,0c-1-0.1-2,0.7-2.1,1.7c0,0.1,0,0.3,0,0.4v0.1c-0.1,1.1,0.7,2,1.7,2.1
		c0.1,0,0.3,0,0.4,0c1,0.1,2-0.6,2.1-1.7C29,105,29,104.8,29,104.7L29,104.7z"/>
	<path class="st7" d="M32,106.6c0-3.3,1-5.2,3.4-5.2s3.4,1.9,3.4,5.2s-1,5.2-3.4,5.2S32,109.8,32,106.6z M37.6,107.4v-1.6
		c0-1.9-0.6-3.3-2.2-3.3s-2.2,1.4-2.2,3.3v1.6c0,1.9,0.6,3.3,2.2,3.3S37.7,109.3,37.6,107.4L37.6,107.4z"/>
	<path class="st7" d="M40.7,104.2c0-1.8,0.8-2.8,2.3-2.8s2.3,1,2.3,2.8s-0.8,2.8-2.3,2.8S40.7,106.1,40.7,104.2z M44.2,104.7v-0.9
		c0-1.1-0.4-1.7-1.2-1.7s-1.2,0.6-1.2,1.7v0.9c0,1.1,0.4,1.7,1.2,1.7S44.2,105.8,44.2,104.7z M42.4,111.6l6.9-10h1.1l-6.9,10H42.4z
		 M47.6,108.9c0-1.8,0.8-2.8,2.3-2.8s2.3,1,2.3,2.8s-0.8,2.8-2.3,2.8S47.6,110.7,47.6,108.9L47.6,108.9z M51.1,109.3v-0.9
		c0-1.1-0.4-1.7-1.2-1.7s-1.2,0.6-1.2,1.7v0.9c0,1.1,0.4,1.7,1.2,1.7S51.1,110.4,51.1,109.3L51.1,109.3z"/>
</g>
<g>
	<path class="st7" d="M13.9,89.1V88h2.8v-8h-0.1L14,82.4l-0.7-0.8l2.7-2.5h1.9V88h2.6v1.1L13.9,89.1z"/>
	<path class="st7" d="M22.1,84.1c0-3.3,1-5.2,3.4-5.2s3.4,1.9,3.4,5.2s-1,5.2-3.4,5.2S22.1,87.3,22.1,84.1z M27.7,84.9v-1.6
		c0-1.9-0.6-3.3-2.2-3.3s-2.2,1.4-2.2,3.3v1.6c0,1.9,0.6,3.3,2.2,3.3S27.7,86.8,27.7,84.9z"/>
	<path class="st7" d="M30.6,84.1c0-3.3,1-5.2,3.4-5.2s3.4,1.9,3.4,5.2s-1,5.2-3.4,5.2S30.6,87.3,30.6,84.1z M36.3,84.9v-1.6
		c0-1.9-0.6-3.3-2.2-3.3s-2.2,1.4-2.2,3.3v1.6c0,1.9,0.6,3.3,2.2,3.3S36.3,86.8,36.3,84.9z"/>
	<path class="st7" d="M39.3,81.7c0-1.8,0.8-2.8,2.3-2.8s2.3,1,2.3,2.8s-0.8,2.8-2.3,2.8S39.3,83.6,39.3,81.7z M42.8,82.1v-0.9
		c0-1.1-0.4-1.7-1.2-1.7s-1.2,0.6-1.2,1.7v0.9c0,1.1,0.4,1.7,1.2,1.7S42.8,83.2,42.8,82.1z M41,89l6.9-10H49l-6.9,10H41z M46.2,86.4
		c0-1.8,0.8-2.8,2.3-2.8s2.3,1,2.3,2.8s-0.8,2.8-2.3,2.8S46.2,88.2,46.2,86.4L46.2,86.4z M49.7,86.8V86c0-1.1-0.4-1.7-1.2-1.7
		s-1.2,0.6-1.2,1.7v0.9c0,1.1,0.4,1.7,1.2,1.7S49.7,87.9,49.7,86.8L49.7,86.8z"/>
</g>
<g>
	<g>
		<path class="st7" d="M93.5,323.6v6.2c0,1.9,0.6,2.9,2.4,2.9s2.4-1,2.4-2.9v-6.2h1.2v5.9c0,2.9-1,4.3-3.6,4.3s-3.6-1.4-3.6-4.3
			v-5.9H93.5z"/>
		<path class="st7" d="M101.9,326.3h1.1v1.2h0.1c0.3-0.9,1.2-1.4,2.2-1.4c1.8,0,3,1.5,3,3.9s-1.2,3.9-3,3.9c-0.9,0-1.8-0.5-2.2-1.4
			h-0.1v4.1h-1.1V326.3z M107.1,330.6v-1.3c0.1-1.1-0.7-2.1-1.8-2.2c-0.1,0-0.2,0-0.3,0c-1,0-1.9,0.6-1.9,1.4v2.8
			c0,1,0.9,1.5,1.9,1.5c1.1,0.1,2-0.8,2.1-1.9C107.1,330.8,107.1,330.7,107.1,330.6L107.1,330.6z"/>
		<path class="st7" d="M115.2,333.6c-0.6,0.1-1.2-0.4-1.2-1c0-0.1,0-0.1,0-0.2v-5.2h-1.2v-1h0.7c0.5,0,0.6-0.2,0.6-0.7v-1.4h1v2h1.6
			v1h-1.6v5.4h1.5v1H115.2z"/>
		<path class="st7" d="M118,330c0-2.4,1.4-3.9,3.3-3.9s3.3,1.5,3.3,3.9s-1.4,3.9-3.3,3.9S118,332.3,118,330z M123.4,330.5v-1.1
			c0.1-1.2-0.8-2.2-2-2.3c-1.2-0.1-2.2,0.8-2.3,2c0,0.1,0,0.2,0,0.3v1.1c-0.1,1.2,0.8,2.2,2,2.3c1.2,0.1,2.2-0.8,2.3-2
			C123.4,330.7,123.4,330.6,123.4,330.5z"/>
	</g>
	<g>
		<path class="st7" d="M86,340.8h1.6l2.9,5.4h0.1l2.9-5.4H95v10h-1.2v-8.4h-0.1l-0.8,1.7l-2.4,4.4l-2.4-4.4l-0.8-1.7h-0.1v8.4H86
			V340.8z"/>
		<path class="st7" d="M102.9,350.8c-0.7,0-1.2-0.5-1.3-1.1c0,0,0-0.1,0-0.1h-0.1c-0.3,0.9-1.2,1.5-2.1,1.4
			c-1.2,0.1-2.3-0.7-2.4-1.9c0-0.1,0-0.2,0-0.3c0-1.4,1-2.2,3.2-2.2h1.5v-0.7c0-1-0.6-1.6-1.8-1.6c-0.8,0-1.5,0.4-1.9,1.1l-0.7-0.6
			c0.5-0.9,1.5-1.5,2.6-1.4c1.8,0,2.8,0.9,2.8,2.5v4.1h0.8v1L102.9,350.8z M101.6,348.7v-1.2H100c-1.3,0-1.9,0.4-1.9,1.1v0.3
			c0,0.7,0.6,1.1,1.5,1.1C100.7,350,101.6,349.4,101.6,348.7z"/>
		<path class="st7" d="M109.7,343.4h1.1l-3.3,9.1c-0.3,0.9-0.6,1.1-1.7,1.1h-0.6v-1h1.2l0.6-1.6l-2.8-7.7h1.2l1.8,5l0.3,1.2h0.1
			l0.4-1.2L109.7,343.4z"/>
		<path class="st7" d="M112.5,344.2v-4h1v4H112.5z"/>
		<path class="st7" d="M122.4,350.8h-6.6v-1.2l3.3-3c0.9-0.7,1.5-1.7,1.6-2.8v-0.2c0.1-0.9-0.6-1.8-1.5-1.9c-0.1,0-0.2,0-0.3,0
			c-1-0.1-1.9,0.7-2.1,1.7l-1.1-0.4c0.4-1.4,1.7-2.4,3.2-2.4c1.5-0.2,2.9,1,3.1,2.5c0,0.1,0,0.3,0,0.4c0,1.5-0.9,2.6-2.2,3.8
			l-2.7,2.4h5.2L122.4,350.8z"/>
		<path class="st7" d="M124.2,345.8c0-3.3,1-5.2,3.4-5.2s3.4,1.9,3.4,5.2s-1,5.2-3.4,5.2S124.2,349.1,124.2,345.8z M129.8,346.6V345
			c0-1.9-0.6-3.3-2.2-3.3s-2.2,1.4-2.2,3.3v1.6c0,1.9,0.6,3.3,2.2,3.3S129.8,348.6,129.8,346.6L129.8,346.6z"/>
	</g>
</g>
<g>
	<g>
		<path class="st7" d="M177.7,323.6v6.2c0,1.9,0.6,2.9,2.4,2.9s2.4-1,2.4-2.9v-6.2h1.2v5.9c0,2.9-1,4.3-3.6,4.3s-3.6-1.4-3.6-4.3
			v-5.9H177.7z"/>
		<path class="st7" d="M186.2,326.3h1.1v1.2h0.1c0.3-0.9,1.2-1.4,2.2-1.4c1.9,0,3,1.5,3,3.9s-1.2,3.9-3,3.9c-0.9,0-1.8-0.5-2.2-1.4
			h-0.1v4.1h-1.1V326.3z M191.3,330.6v-1.3c0.1-1.1-0.7-2.1-1.8-2.2c-0.1,0-0.2,0-0.3,0c-1.1,0-1.9,0.6-1.9,1.4v2.8
			c0,1,0.9,1.5,1.9,1.5c1.1,0.1,2-0.8,2.1-1.9C191.4,330.8,191.4,330.7,191.3,330.6L191.3,330.6z"/>
		<path class="st7" d="M199.5,333.6c-0.6,0.1-1.2-0.4-1.2-1c0-0.1,0-0.1,0-0.2v-5.2h-1.2v-1h0.7c0.5,0,0.6-0.2,0.6-0.7v-1.4h1v2h1.6
			v1h-1.6v5.4h1.5v1H199.5z"/>
		<path class="st7" d="M202.3,330c0-2.4,1.4-3.9,3.3-3.9s3.4,1.5,3.4,3.9s-1.4,3.9-3.3,3.9S202.3,332.3,202.3,330z M207.7,330.5
			v-1.1c0.1-1.2-0.8-2.2-2-2.3c-1.2-0.1-2.2,0.8-2.3,2c0,0.1,0,0.2,0,0.3v1.1c-0.1,1.2,0.8,2.2,2,2.3c1.2,0.1,2.2-0.8,2.3-2
			C207.7,330.7,207.7,330.6,207.7,330.5z"/>
	</g>
	<g>
		<path class="st7" d="M170.3,340.8h1.6l2.9,5.4h0.1l2.9-5.4h1.6v10h-1.2v-8.4H178l-0.9,1.7l-2.4,4.4l-2.4-4.4l-0.8-1.7h-0.1v8.4
			h-1.1V340.8z"/>
		<path class="st7" d="M187.2,350.8c-0.7,0-1.2-0.5-1.3-1.1c0,0,0-0.1,0-0.1h-0.1c-0.3,0.9-1.2,1.5-2.1,1.4
			c-1.2,0.2-2.3-0.7-2.5-1.9c0-0.1,0-0.2,0-0.4c0-1.4,1-2.2,3.1-2.2h1.5v-0.7c0-1-0.6-1.6-1.8-1.6c-0.8,0-1.5,0.4-1.9,1.1l-0.7-0.6
			c0.5-0.9,1.5-1.5,2.6-1.4c1.8,0,2.8,0.9,2.8,2.5v4.1h0.9v1L187.2,350.8z M185.8,348.7v-1.2h-1.5c-1.3,0-1.9,0.4-1.9,1.1v0.3
			c0,0.7,0.6,1.1,1.5,1.1C185,350,185.8,349.4,185.8,348.7z"/>
		<path class="st7" d="M193.9,343.4h1.1l-3.3,9.1c-0.3,0.9-0.6,1.1-1.7,1.1h-0.6v-1h1.2l0.6-1.6l-2.8-7.7h1.1l1.8,5l0.4,1.2h0.1
			l0.4-1.2L193.9,343.4z"/>
		<path class="st7" d="M196.8,344.2v-4h1v4H196.8z"/>
		<path class="st7" d="M206.7,350.8h-6.6v-1.2l3.3-3c0.9-0.7,1.5-1.7,1.6-2.8v-0.2c0.1-0.9-0.6-1.8-1.5-1.9c-0.1,0-0.2,0-0.3,0
			c-1-0.1-1.9,0.7-2.1,1.7L200,343c0.4-1.4,1.7-2.4,3.2-2.4c1.5-0.2,2.9,1,3.1,2.5c0,0.1,0,0.3,0,0.4c0,1.5-0.9,2.6-2.2,3.8
			l-2.7,2.4h5.3L206.7,350.8z"/>
		<path class="st7" d="M208.5,345.8c0-3.3,1-5.2,3.4-5.2s3.4,1.9,3.4,5.2s-1,5.2-3.4,5.2S208.5,349.1,208.5,345.8z M214.1,346.6V345
			c0-1.9-0.6-3.3-2.2-3.3s-2.2,1.4-2.2,3.3v1.6c0,1.9,0.6,3.3,2.2,3.3S214.1,348.6,214.1,346.6L214.1,346.6z"/>
	</g>
</g>
<g>
	<g>
		<path class="st7" d="M260.1,323.6v7.4c0,1.6-1.4,2.8-2.9,2.8c-1.3,0-2.4-1-2.7-2.3l1.1-0.3c0.1,0.9,0.8,1.5,1.7,1.5
			c1,0,1.6-0.6,1.6-1.9v-6.1h-3.4v-1.1L260.1,323.6z"/>
		<path class="st7" d="M267.1,332.4L267.1,332.4c-0.4,0.9-1.2,1.4-2.1,1.4c-1.5,0-2.5-1-2.5-2.8v-4.7h1.1v4.5c0,1.3,0.6,2,1.7,2
			c0.9,0,1.8-0.4,1.8-1.4v-5.1h1.1v7.4h-1.1L267.1,332.4z"/>
		<path class="st7" d="M270.7,333.6v-7.4h1.1v1.2l0,0c0.3-0.9,1.2-1.4,2.1-1.4c1.5,0,2.5,1,2.5,2.8v4.7h-1.1v-4.5c0-1.3-0.6-2-1.7-2
			c-0.9,0-1.8,0.5-1.8,1.4v5.1L270.7,333.6z"/>
		<path class="st7" d="M278.6,327.1v-4h1v4H278.6z"/>
		<path class="st7" d="M288.5,333.6h-6.5v-1.2l3.3-3c0.9-0.7,1.5-1.7,1.6-2.8v-0.2c0.1-0.9-0.6-1.8-1.5-1.9c-0.1,0-0.2,0-0.3,0
			c-1-0.1-1.9,0.7-2.1,1.7l-1.1-0.4c0.4-1.4,1.7-2.4,3.2-2.4c1.5-0.2,2.9,1,3,2.5c0,0.1,0,0.3,0,0.4c0,1.5-0.9,2.6-2.2,3.8l-2.7,2.4
			h5.2V333.6z"/>
		<path class="st7" d="M290.3,328.6c0-3.3,1-5.2,3.4-5.2s3.4,1.9,3.4,5.2s-1,5.2-3.4,5.2S290.3,331.9,290.3,328.6z M295.9,329.5
			v-1.6c0-1.9-0.6-3.3-2.2-3.3s-2.2,1.4-2.2,3.3v1.6c0,1.9,0.6,3.3,2.2,3.3S295.9,331.4,295.9,329.5L295.9,329.5z"/>
	</g>
	<g>
		<path class="st7" d="M248.1,350.8c-0.6,0.1-1.2-0.4-1.2-1c0-0.1,0-0.1,0-0.2v-5.2h-1.2v-1h0.7c0.5,0,0.6-0.2,0.6-0.7v-1.4h1v2h1.6
			v1H248v5.4h1.5v1H248.1z"/>
		<path class="st7" d="M250.8,347.1c0-2.4,1.4-3.9,3.3-3.9c2,0,3.3,1.5,3.3,3.9s-1.4,3.9-3.3,3.9S250.8,349.5,250.8,347.1z
			 M256.3,347.7v-1.1c0.1-1.2-0.8-2.2-2-2.3c-1.2-0.1-2.2,0.8-2.3,2c0,0.1,0,0.2,0,0.3v1.1c-0.1,1.2,0.8,2.2,2,2.3
			c1.2,0.1,2.2-0.8,2.3-2C256.3,347.9,256.3,347.8,256.3,347.7z"/>
		<path class="st7" d="M269.1,350.8l-1-3h-4l-1,3h-1.2l3.5-10h1.5l3.5,10H269.1z M266.1,342L266.1,342l-1.8,4.9h3.5L266.1,342z"/>
		<path class="st7" d="M276.5,349.6L276.5,349.6c-0.4,0.9-1.2,1.4-2.1,1.4c-1.5,0-2.5-1-2.5-2.8v-4.7h1.1v4.6c0,1.3,0.6,2,1.7,2
			c0.9,0,1.8-0.4,1.8-1.4v-5.1h1.1v7.4h-1.1V349.6z"/>
		<path class="st7" d="M282.7,353.9c-2.3,0-3.2-0.7-3.2-1.8c0-0.7,0.5-1.3,1.2-1.4v-0.2c-0.4-0.2-0.7-0.6-0.7-1
			c0-0.7,0.5-1.1,1.3-1.3v-0.1c-0.9-0.4-1.4-1.3-1.4-2.3c0-1.4,1.1-2.5,2.5-2.6c0.1,0,0.2,0,0.3,0c0.5,0,1,0.1,1.4,0.3v-0.1
			c0-0.6,0.2-1,0.9-1h1.1v1h-1.4v0.5c0.6,0.5,0.9,1.2,0.9,1.9c0,1.4-1.1,2.6-2.5,2.6c-0.1,0-0.2,0-0.3,0c-0.2,0-0.5,0-0.7-0.1
			c-0.5,0.1-1,0.4-1,0.8s0.5,0.6,1.1,0.6h1.6c1.8,0,2.6,0.7,2.6,2C286.3,353.2,285.1,353.9,282.7,353.9z M283.7,350.8h-2.5
			c-0.4,0.1-0.7,0.6-0.7,1c0,0.6,0.4,1.2,1.6,1.2h1.1c1.3,0,2-0.4,2-1.2C285.2,351.1,284.8,350.8,283.7,350.8L283.7,350.8z
			 M284.3,346v-0.4c0-1-0.6-1.4-1.6-1.4s-1.6,0.5-1.6,1.4v0.4c0,1,0.6,1.4,1.6,1.4S284.2,347,284.3,346L284.3,346z"/>
		<path class="st7" d="M287.7,344.2v-4h1v4H287.7z"/>
		<path class="st7" d="M297.6,350.8H291v-1.2l3.3-3c0.9-0.7,1.5-1.7,1.6-2.8v-0.2c0.1-0.9-0.6-1.8-1.5-1.9c-0.1,0-0.2,0-0.3,0
			c-1,0-1.9,0.7-2.1,1.7l-1.1-0.4c0.4-1.4,1.7-2.4,3.2-2.4c1.5-0.2,2.9,1,3,2.5c0,0.1,0,0.3,0,0.4c0,1.5-0.9,2.6-2.2,3.8l-2.7,2.4
			h5.3L297.6,350.8z"/>
		<path class="st7" d="M299.4,345.8c0-3.3,1-5.2,3.4-5.2s3.4,1.9,3.4,5.2s-1,5.2-3.4,5.2S299.4,349.1,299.4,345.8z M305,346.6V345
			c0-1.9-0.6-3.3-2.2-3.3s-2.2,1.4-2.2,3.3v1.6c0,1.9,0.6,3.3,2.2,3.3S305,348.6,305,346.6L305,346.6z"/>
	</g>
</g>
<g>
	<g>
		<path class="st7" d="M343.4,323.6v7.4c0,1.6-1.4,2.8-2.9,2.8c-1.3,0-2.4-1-2.7-2.3l1.1-0.3c0.1,0.9,0.8,1.5,1.7,1.5
			c1,0,1.6-0.6,1.6-1.9v-6.1h-3.4v-1.1L343.4,323.6z"/>
		<path class="st7" d="M350.4,332.4L350.4,332.4c-0.4,0.9-1.2,1.4-2.1,1.4c-1.5,0-2.5-1-2.5-2.8v-4.7h1.1v4.5c0,1.3,0.6,2,1.7,2
			c0.9,0,1.8-0.4,1.8-1.4v-5.1h1.1v7.4h-1.1L350.4,332.4z"/>
		<path class="st7" d="M354,333.6v-7.4h1.1v1.2h0c0.3-0.9,1.2-1.4,2.1-1.4c1.5,0,2.5,1,2.5,2.8v4.7h-1.1v-4.5c0-1.3-0.6-2-1.7-2
			c-0.9,0-1.8,0.5-1.8,1.4v5.1L354,333.6z"/>
		<path class="st7" d="M361.9,327.1v-4h1v4H361.9z"/>
		<path class="st7" d="M371.8,333.6h-6.5v-1.2l3.3-3c0.9-0.7,1.5-1.7,1.6-2.8v-0.2c0.1-0.9-0.6-1.8-1.5-1.9c-0.1,0-0.2,0-0.3,0
			c-1-0.1-1.9,0.7-2.1,1.7l-1.1-0.4c0.4-1.4,1.7-2.4,3.2-2.4c1.5-0.2,2.9,1,3,2.5c0,0.1,0,0.3,0,0.4c0,1.5-0.9,2.6-2.2,3.8l-2.7,2.4
			h5.2L371.8,333.6z"/>
		<path class="st7" d="M373.6,328.6c0-3.3,1-5.2,3.4-5.2s3.4,1.9,3.4,5.2s-1,5.2-3.4,5.2S373.6,331.9,373.6,328.6z M379.2,329.5
			v-1.6c0-1.9-0.6-3.3-2.2-3.3s-2.2,1.4-2.2,3.3v1.6c0,1.9,0.6,3.3,2.2,3.3S379.2,331.4,379.2,329.5z"/>
	</g>
	<g>
		<path class="st7" d="M331.3,350.8c-0.6,0.1-1.2-0.4-1.2-1c0-0.1,0-0.1,0-0.2v-5.2h-1.2v-1h0.7c0.5,0,0.6-0.2,0.6-0.7v-1.4h1v2h1.6
			v1h-1.6v5.4h1.5v1H331.3z"/>
		<path class="st7" d="M334.1,347.1c0-2.4,1.4-3.9,3.3-3.9s3.3,1.5,3.3,3.9s-1.4,3.9-3.3,3.9S334.1,349.5,334.1,347.1z M339.5,347.7
			v-1.1c0.1-1.2-0.8-2.2-2-2.3c-1.2-0.1-2.2,0.8-2.3,2c0,0.1,0,0.2,0,0.3v1.1c-0.1,1.2,0.8,2.2,2,2.3c1.2,0.1,2.2-0.8,2.3-2
			C339.5,347.9,339.5,347.8,339.5,347.7z"/>
		<path class="st7" d="M352.4,350.8l-1-3h-4l-1,3h-1.2l3.5-10h1.5l3.5,10H352.4z M349.4,342L349.4,342l-1.8,4.9h3.5L349.4,342z"/>
		<path class="st7" d="M359.8,349.6L359.8,349.6c-0.4,0.9-1.2,1.4-2.1,1.4c-1.5,0-2.5-1-2.5-2.8v-4.7h1.1v4.6c0,1.3,0.6,2,1.7,2
			c0.9,0,1.8-0.4,1.8-1.4v-5.1h1.1v7.4h-1.1L359.8,349.6z"/>
		<path class="st7" d="M366,353.9c-2.3,0-3.2-0.7-3.2-1.8c0-0.7,0.5-1.3,1.2-1.4v-0.2c-0.4-0.2-0.7-0.6-0.7-1c0-0.7,0.5-1.1,1.3-1.3
			v-0.1c-0.9-0.4-1.4-1.3-1.4-2.3c0-1.4,1.1-2.5,2.5-2.6c0.1,0,0.2,0,0.3,0c0.5,0,1,0.1,1.4,0.3v-0.1c0-0.6,0.2-1,0.9-1h1.1v1h-1.4
			v0.5c0.5,0.5,0.9,1.2,0.8,1.9c0,1.4-1.1,2.5-2.5,2.6c-0.1,0-0.2,0-0.3,0c-0.2,0-0.5,0-0.7-0.1c-0.5,0.1-1,0.4-1,0.8
			s0.5,0.6,1.1,0.6h1.6c1.8,0,2.6,0.7,2.6,2C369.6,353.2,368.4,353.9,366,353.9z M367,350.8h-2.5c-0.4,0.1-0.7,0.6-0.7,1
			c0,0.6,0.4,1.2,1.6,1.2h1.1c1.3,0,2-0.4,2-1.2C368.5,351.1,368.1,350.8,367,350.8z M367.6,346v-0.4c0-1-0.6-1.4-1.6-1.4
			s-1.6,0.5-1.6,1.4v0.4c0,1,0.6,1.4,1.6,1.4S367.5,347,367.6,346L367.6,346z"/>
		<path class="st7" d="M371,344.2v-4h1v4H371z"/>
		<path class="st7" d="M380.8,350.8h-6.6v-1.2l3.3-3c0.9-0.7,1.5-1.7,1.6-2.8v-0.2c0.1-0.9-0.6-1.8-1.5-1.9c-0.1,0-0.2,0-0.3,0
			c-1,0-1.9,0.7-2.1,1.7l-1.1-0.4c0.4-1.4,1.7-2.4,3.2-2.4c1.5-0.2,2.9,1,3,2.5c0,0.1,0,0.3,0,0.4c0,1.5-0.9,2.6-2.2,3.8l-2.7,2.4
			h5.3V350.8z"/>
		<path class="st7" d="M382.6,345.8c0-3.3,1-5.2,3.4-5.2s3.4,1.9,3.4,5.2s-1,5.2-3.4,5.2S382.6,349.1,382.6,345.8z M388.3,346.6V345
			c0-1.9-0.6-3.3-2.2-3.3s-2.2,1.4-2.2,3.3v1.6c0,1.9,0.6,3.3,2.2,3.3S388.3,348.6,388.3,346.6L388.3,346.6z"/>
	</g>
</g>
<g>
	<g>
		<path class="st7" d="M421.5,332.1l0.9-0.8c0.6,0.9,1.6,1.4,2.7,1.4c1.4,0,2.2-0.7,2.2-1.9c0-1-0.5-1.4-1.8-1.7l-0.8-0.2
			c-1.8-0.4-2.8-1.2-2.8-2.8c0-1.8,1.4-2.7,3.3-2.7c1.3-0.1,2.6,0.5,3.3,1.6l-0.9,0.7c-0.5-0.8-1.5-1.3-2.5-1.2
			c-1.3,0-2.1,0.6-2.1,1.6s0.6,1.4,1.9,1.7l0.8,0.2c2,0.4,2.8,1.3,2.8,2.8c0,1.8-1.3,3-3.4,3C423.7,333.9,422.3,333.2,421.5,332.1z"
			/>
		<path class="st7" d="M429.9,330c0-2.4,1.3-3.9,3.3-3.9s3.2,1.5,3.2,3.6v0.5h-5.3v0.3c-0.1,1.2,0.8,2.1,1.9,2.2c0.1,0,0.2,0,0.2,0
			c0.9,0,1.6-0.5,2-1.3l0.8,0.6c-0.6,1.1-1.7,1.8-2.9,1.7C431.2,333.8,429.9,332.3,429.9,330z M431.1,329.3v0.1h4.1v-0.2
			c0.1-1.1-0.7-2.1-1.8-2.2c-0.1,0-0.1,0-0.2,0c-1.2,0-2.1,1-2.1,2.1C431.1,329.2,431.1,329.3,431.1,329.3L431.1,329.3z"/>
		<path class="st7" d="M438.3,326.3h1.1v1.2h0.1c0.3-0.9,1.2-1.4,2.2-1.4c1.9,0,3,1.5,3,3.9s-1.2,3.9-3,3.9c-0.9,0-1.8-0.5-2.2-1.4
			h-0.1v4.1h-1.1V326.3z M443.4,330.6v-1.3c0.1-1.1-0.7-2.1-1.8-2.2c-0.1,0-0.2,0-0.3,0c-1,0-1.9,0.6-1.9,1.4v2.8
			c0,1,0.9,1.5,1.9,1.5c1.1,0.1,2-0.8,2.1-1.9C443.5,330.8,443.5,330.7,443.4,330.6L443.4,330.6z"/>
		<path class="st7" d="M446.3,327.1v-4h1v4H446.3z"/>
		<path class="st7" d="M456.2,333.6h-6.6v-1.2l3.3-3c0.9-0.7,1.5-1.7,1.6-2.8v-0.2c0.1-0.9-0.6-1.8-1.5-1.9c-0.1,0-0.2,0-0.3,0
			c-1,0-1.9,0.7-2.1,1.7l-1.1-0.4c0.4-1.4,1.7-2.4,3.2-2.4c1.5-0.2,2.9,1,3,2.5c0,0.1,0,0.3,0,0.4c0,1.5-0.9,2.6-2.2,3.8l-2.7,2.4
			h5.3V333.6z"/>
		<path class="st7" d="M458,328.6c0-3.3,1-5.2,3.4-5.2s3.4,1.9,3.4,5.2s-1,5.2-3.4,5.2S458,331.9,458,328.6z M463.6,329.5v-1.6
			c0-1.9-0.6-3.3-2.2-3.3s-2.2,1.4-2.2,3.3v1.6c0,1.9,0.6,3.3,2.2,3.3S463.6,331.4,463.6,329.5L463.6,329.5z"/>
	</g>
	<g>
		<path class="st7" d="M415.2,350.8c-0.6,0.1-1.2-0.4-1.2-1c0-0.1,0-0.1,0-0.2v-5.2h-1.2v-1h0.7c0.5,0,0.6-0.2,0.6-0.7v-1.4h1v2h1.6
			v1h-1.6v5.4h1.5v1H415.2z"/>
		<path class="st7" d="M418,347.1c0-2.4,1.4-3.9,3.3-3.9s3.3,1.5,3.3,3.9s-1.4,3.9-3.3,3.9S418,349.5,418,347.1z M423.4,347.7v-1.1
			c0.1-1.2-0.8-2.2-2-2.3c-1.2-0.1-2.2,0.8-2.3,2c0,0.1,0,0.2,0,0.3v1.1c-0.1,1.2,0.8,2.2,2,2.3c1.2,0.1,2.2-0.8,2.3-2
			C423.4,347.9,423.4,347.8,423.4,347.7z"/>
		<path class="st7" d="M432.5,344.7l-1.2-2.2l0,0v8.3h-1.2v-10h1.4l3.6,6.1l1.2,2.2l0,0v-8.3h1.2v10h-1.4L432.5,344.7z"/>
		<path class="st7" d="M439.5,347.1c0-2.4,1.4-3.9,3.3-3.9s3.3,1.5,3.3,3.9s-1.4,3.9-3.3,3.9S439.5,349.5,439.5,347.1z M444.9,347.7
			v-1.1c0.1-1.2-0.7-2.2-1.9-2.3c-1.2-0.1-2.2,0.7-2.3,1.9c0,0.1,0,0.3,0,0.4v1.1c-0.1,1.2,0.7,2.2,1.9,2.3c1.2,0.1,2.2-0.7,2.3-1.9
			C445,347.9,445,347.8,444.9,347.7z"/>
		<path class="st7" d="M449.6,350.8l-2.6-7.4h1.1l1.3,3.7l0.8,2.5h0.1l0.8-2.5l1.3-3.7h1.1l-2.6,7.4H449.6z"/>
		<path class="st7" d="M455.3,344.2v-4h1v4H455.3z"/>
		<path class="st7" d="M465.1,350.8h-6.6v-1.2l3.3-3c0.9-0.7,1.5-1.7,1.6-2.8v-0.2c0.1-0.9-0.6-1.8-1.5-1.9c-0.1,0-0.2,0-0.3,0
			c-1-0.1-1.9,0.7-2.1,1.7l-1.1-0.4c0.4-1.4,1.7-2.4,3.2-2.4c1.5-0.2,2.9,1,3,2.5c0,0.1,0,0.3,0,0.4c0,1.5-0.9,2.6-2.2,3.8l-2.7,2.4
			h5.2V350.8z"/>
		<path class="st7" d="M467,345.8c0-3.3,1-5.2,3.4-5.2s3.4,1.9,3.4,5.2s-1,5.2-3.4,5.2S467,349.1,467,345.8z M472.6,346.6V345
			c0-1.9-0.6-3.3-2.2-3.3s-2.2,1.4-2.2,3.3v1.6c0,1.9,0.6,3.3,2.2,3.3S472.6,348.6,472.6,346.6L472.6,346.6z"/>
	</g>
</g>
<g>
	<g>
		<path class="st7" d="M505.4,332.1l0.9-0.8c0.6,0.9,1.6,1.4,2.7,1.4c1.4,0,2.2-0.7,2.2-1.9c0-1-0.5-1.4-1.8-1.7l-0.8-0.2
			c-1.8-0.4-2.8-1.2-2.8-2.8c0-1.8,1.4-2.7,3.3-2.7c1.3-0.1,2.6,0.5,3.3,1.6l-0.9,0.7c-0.5-0.8-1.5-1.3-2.5-1.2
			c-1.3,0-2.1,0.6-2.1,1.6s0.6,1.4,1.9,1.7l0.8,0.2c2,0.4,2.8,1.3,2.8,2.8c0,1.8-1.3,3-3.4,3C507.5,333.9,506.2,333.2,505.4,332.1z"
			/>
		<path class="st7" d="M513.8,330c0-2.4,1.3-3.9,3.3-3.9s3.2,1.5,3.2,3.6v0.5H515v0.3c-0.1,1.2,0.8,2.1,1.9,2.2c0.1,0,0.2,0,0.2,0
			c0.9,0,1.6-0.5,2-1.3l0.8,0.6c-0.6,1.1-1.7,1.8-2.9,1.7C515.1,333.8,513.8,332.3,513.8,330z M515,329.3v0.1h4.1v-0.2
			c0.1-1.1-0.7-2.1-1.8-2.2c-0.1,0-0.1,0-0.2,0c-1.2,0-2.1,1-2.1,2.1C515,329.2,515,329.3,515,329.3L515,329.3z"/>
		<path class="st7" d="M522.2,326.3h1.1v1.2h0.1c0.3-0.9,1.2-1.4,2.2-1.4c1.8,0,3,1.5,3,3.9s-1.2,3.9-3,3.9c-0.9,0-1.8-0.5-2.2-1.4
			h-0.1v4.1h-1.1V326.3z M527.3,330.6v-1.3c0.1-1.1-0.7-2.1-1.8-2.2c-0.1,0-0.2,0-0.3,0c-1,0-1.9,0.6-1.9,1.4v2.8
			c0,1,0.9,1.5,1.9,1.5c1.1,0.1,2-0.8,2.1-1.9C527.3,330.8,527.3,330.7,527.3,330.6L527.3,330.6z"/>
		<path class="st7" d="M530.2,327.1v-4h1v4H530.2z"/>
		<path class="st7" d="M540.1,333.6h-6.6v-1.2l3.3-3c0.9-0.7,1.5-1.7,1.7-2.8v-0.2c0.1-0.9-0.6-1.8-1.5-1.9c-0.1,0-0.2,0-0.3,0
			c-1,0-1.9,0.7-2.1,1.7l-1.1-0.4c0.4-1.4,1.7-2.4,3.2-2.4c1.5-0.2,2.9,1,3,2.5c0,0.1,0,0.3,0,0.4c0,1.5-0.9,2.6-2.2,3.8l-2.7,2.4
			h5.3L540.1,333.6z"/>
		<path class="st7" d="M541.9,328.6c0-3.3,1-5.2,3.4-5.2s3.4,1.9,3.4,5.2s-1,5.2-3.4,5.2S541.9,331.9,541.9,328.6z M547.5,329.5
			v-1.6c0-1.9-0.6-3.3-2.2-3.3s-2.2,1.4-2.2,3.3v1.6c0,1.9,0.6,3.3,2.2,3.3S547.5,331.4,547.5,329.5z"/>
	</g>
	<g>
		<path class="st7" d="M499.1,350.8c-0.6,0.1-1.2-0.4-1.2-1c0-0.1,0-0.1,0-0.2v-5.2h-1.2v-1h0.7c0.5,0,0.6-0.2,0.6-0.7v-1.4h1v2h1.6
			v1H499v5.4h1.5v1H499.1z"/>
		<path class="st7" d="M501.9,347.1c0-2.4,1.4-3.9,3.3-3.9s3.3,1.5,3.3,3.9s-1.4,3.9-3.3,3.9S501.9,349.5,501.9,347.1z M507.3,347.7
			v-1.1c0.1-1.2-0.8-2.2-2-2.3c-1.2-0.1-2.2,0.8-2.3,2c0,0.1,0,0.2,0,0.3v1.1c-0.1,1.2,0.8,2.2,2,2.3c1.2,0.1,2.2-0.8,2.3-2
			C507.3,347.9,507.3,347.8,507.3,347.7z"/>
		<path class="st7" d="M516.3,344.7l-1.2-2.2l0,0v8.3H514v-10h1.4l3.7,6.1l1.2,2.2l0,0v-8.3h1.2v10H520L516.3,344.7z"/>
		<path class="st7" d="M523.4,347.1c0-2.4,1.4-3.9,3.3-3.9s3.3,1.5,3.3,3.9s-1.3,3.9-3.3,3.9S523.4,349.5,523.4,347.1z M528.8,347.7
			v-1.1c0.1-1.2-0.7-2.2-1.9-2.3s-2.2,0.7-2.3,1.9c0,0.1,0,0.3,0,0.4v1.1c-0.1,1.2,0.7,2.2,1.9,2.3s2.2-0.7,2.3-1.9
			C528.8,347.9,528.8,347.8,528.8,347.7z"/>
		<path class="st7" d="M533.5,350.8l-2.6-7.4h1.1l1.3,3.7l0.8,2.5h0.1l0.8-2.5l1.3-3.7h1.1l-2.6,7.4H533.5z"/>
		<path class="st7" d="M539.2,344.2v-4h1v4H539.2z"/>
		<path class="st7" d="M549,350.8h-6.6v-1.2l3.3-3c0.9-0.7,1.5-1.7,1.7-2.8v-0.2c0.1-0.9-0.6-1.8-1.5-1.9c-0.1,0-0.2,0-0.3,0
			c-1-0.1-1.9,0.7-2.1,1.7l-1.1-0.4c0.4-1.4,1.7-2.4,3.2-2.4c1.5-0.2,2.9,1,3,2.5c0,0.1,0,0.3,0,0.4c0,1.5-0.9,2.6-2.2,3.8l-2.7,2.4
			h5.2V350.8z"/>
		<path class="st7" d="M550.8,345.8c0-3.3,1-5.2,3.4-5.2s3.4,1.9,3.4,5.2s-1,5.2-3.4,5.2S550.8,349.1,550.8,345.8z M556.5,346.6V345
			c0-1.9-0.6-3.3-2.2-3.3s-2.2,1.4-2.2,3.3v1.6c0,1.9,0.6,3.3,2.2,3.3S556.5,348.6,556.5,346.6L556.5,346.6z"/>
	</g>
</g>
<g>
	<g>
		<path class="st7" d="M589.3,323.6h3.3c2.5,0,4.1,1.7,4.1,5s-1.6,5-4.1,5h-3.3V323.6z M592.6,332.6c1.7,0,2.8-1.1,2.8-3.1v-1.6
			c0-2-1.2-3.1-2.8-3.1h-2.1v7.9H592.6z"/>
		<path class="st7" d="M598.2,330c0-2.4,1.3-3.9,3.3-3.9s3.2,1.5,3.2,3.6v0.5h-5.3v0.3c-0.1,1.2,0.8,2.1,1.9,2.2c0.1,0,0.2,0,0.2,0
			c0.9,0,1.6-0.5,2-1.3l0.8,0.6c-0.6,1.1-1.7,1.8-2.9,1.7C599.6,333.8,598.2,332.3,598.2,330z M599.5,329.3v0.1h4.1v-0.2
			c0.1-1.1-0.7-2.1-1.8-2.2c-0.1,0-0.1,0-0.2,0c-1.2,0-2.1,1-2.1,2.1C599.4,329.2,599.4,329.3,599.5,329.3L599.5,329.3z"/>
		<path class="st7" d="M606.1,330c0-2.4,1.2-3.9,3.3-3.9c1.2-0.1,2.3,0.6,2.8,1.7l-1,0.5c-0.3-0.8-1-1.3-1.8-1.2
			c-1.1,0-2,0.8-2.1,1.9c0,0.1,0,0.2,0,0.3v1.3c-0.1,1.1,0.7,2.1,1.8,2.2c0.1,0,0.2,0,0.3,0c0.9,0,1.7-0.5,2-1.3l0.8,0.6
			c-0.5,1.1-1.6,1.8-2.8,1.7C607.3,333.8,606.1,332.3,606.1,330z"/>
		<path class="st7" d="M613.8,327.1v-4h1v4H613.8z"/>
		<path class="st7" d="M623.7,333.6h-6.6v-1.2l3.3-3c0.9-0.7,1.5-1.7,1.6-2.8v-0.2c0.1-0.9-0.6-1.8-1.5-1.9c-0.1,0-0.2,0-0.3,0
			c-1,0-1.9,0.7-2.1,1.7l-1.1-0.4c0.4-1.4,1.7-2.4,3.2-2.4c1.5-0.2,2.9,1,3,2.5c0,0.1,0,0.3,0,0.4c0,1.5-0.9,2.6-2.2,3.8l-2.7,2.4
			h5.3L623.7,333.6z"/>
		<path class="st7" d="M625.5,328.6c0-3.3,1-5.2,3.4-5.2s3.4,1.9,3.4,5.2s-1,5.2-3.4,5.2S625.5,331.9,625.5,328.6z M631.1,329.5
			v-1.6c0-1.9-0.6-3.3-2.2-3.3s-2.2,1.4-2.2,3.3v1.6c0,1.9,0.6,3.3,2.2,3.3S631.1,331.4,631.1,329.5z"/>
	</g>
	<g>
		<path class="st7" d="M582.9,350.8c-0.6,0.1-1.2-0.4-1.2-1c0-0.1,0-0.1,0-0.2v-5.2h-1.2v-1h0.7c0.5,0,0.7-0.2,0.7-0.7v-1.4h1v2h1.6
			v1h-1.6v5.4h1.5v1H582.9z"/>
		<path class="st7" d="M585.7,347.1c0-2.4,1.4-3.9,3.3-3.9s3.3,1.5,3.3,3.9S591,351,589,351S585.7,349.5,585.7,347.1z M591.1,347.7
			v-1.1c0.1-1.2-0.8-2.2-2-2.3c-1.2-0.1-2.2,0.8-2.2,2c0,0.1,0,0.2,0,0.3v1.1c-0.1,1.2,0.8,2.2,2,2.3c1.2,0.1,2.2-0.8,2.2-2
			C591.1,347.9,591.1,347.8,591.1,347.7z"/>
		<path class="st7" d="M597.7,350.8v-10h6v1.1h-4.8v3.4h4.3v1.1h-4.3v4.5L597.7,350.8z"/>
		<path class="st7" d="M604.7,347.1c0-2.4,1.3-3.9,3.3-3.9s3.2,1.5,3.2,3.6v0.5h-5.3v0.3c-0.1,1.2,0.8,2.1,1.9,2.2
			c0.1,0,0.2,0,0.2,0c0.9,0,1.6-0.5,2-1.3l0.8,0.6c-0.5,1.1-1.7,1.8-2.9,1.7C606,351,604.7,349.5,604.7,347.1z M605.9,346.5v0.1h4.1
			v-0.2c0.1-1.1-0.7-2.1-1.8-2.2c-0.1,0-0.1,0-0.2,0c-1.2,0-2.1,0.9-2.1,2.1C605.9,346.4,605.9,346.4,605.9,346.5z"/>
		<path class="st7" d="M613.1,340.2h1.2v4.4l0,0c0.3-0.9,1.2-1.4,2.2-1.4c1.8,0,3,1.5,3,3.9s-1.2,3.9-3,3.9c-0.9,0-1.8-0.5-2.2-1.4
			l0,0v1.2h-1.2V340.2z M618.2,347.8v-1.3c0.1-1.1-0.7-2.1-1.8-2.2c-0.1,0-0.2,0-0.3,0c-1,0-1.9,0.6-1.9,1.4v2.8
			c0,1,0.8,1.5,1.9,1.5c1.1,0.1,2-0.8,2.1-1.9C618.2,348,618.2,347.9,618.2,347.8L618.2,347.8z"/>
		<path class="st7" d="M621.1,344.2v-4h1v4H621.1z"/>
		<path class="st7" d="M631,350.8h-6.6v-1.2l3.3-3c0.9-0.7,1.5-1.7,1.6-2.8v-0.2c0.1-0.9-0.6-1.8-1.5-1.9c-0.1,0-0.2,0-0.3,0
			c-1-0.1-1.9,0.7-2.1,1.7l-1.1-0.4c0.4-1.4,1.7-2.4,3.2-2.4c1.5-0.2,2.9,1,3.1,2.5c0,0.1,0,0.3,0,0.4c0,1.5-0.9,2.6-2.2,3.8
			l-2.7,2.4h5.2V350.8z"/>
		<path class="st7" d="M633.2,350.8v-1.1h2.8v-8h-0.1l-2.5,2.4l-0.7-0.8l2.6-2.5h1.9v8.9h2.6v1.1L633.2,350.8z"/>
	</g>
</g>
<g>
	<g>
		<path class="st7" d="M672.8,323.6h3.3c2.5,0,4.1,1.7,4.1,5s-1.6,5-4.1,5h-3.3V323.6z M676.1,332.6c1.7,0,2.8-1.1,2.8-3.1v-1.6
			c0-2-1.2-3.1-2.8-3.1H674v7.9H676.1z"/>
		<path class="st7" d="M681.7,330c0-2.4,1.3-3.9,3.3-3.9s3.2,1.5,3.2,3.6v0.5h-5.3v0.3c-0.1,1.2,0.8,2.1,1.9,2.2c0.1,0,0.2,0,0.2,0
			c0.9,0,1.6-0.5,2-1.3l0.8,0.6c-0.6,1.1-1.7,1.8-2.9,1.7C683,333.8,681.7,332.3,681.7,330z M682.9,329.3v0.1h4.1v-0.2
			c0.1-1.1-0.7-2.1-1.8-2.2c-0.1,0-0.1,0-0.2,0c-1.2,0-2.1,1-2.1,2.1C682.9,329.2,682.9,329.3,682.9,329.3L682.9,329.3z"/>
		<path class="st7" d="M689.6,330c0-2.4,1.2-3.9,3.3-3.9c1.2-0.1,2.3,0.6,2.8,1.7l-1,0.5c-0.3-0.8-1-1.3-1.8-1.2
			c-1.1,0-2,0.8-2.1,1.9c0,0.1,0,0.2,0,0.3v1.3c-0.1,1.1,0.7,2.1,1.8,2.2c0.1,0,0.2,0,0.3,0c0.9,0,1.7-0.5,2-1.3l0.8,0.6
			c-0.5,1.1-1.6,1.8-2.8,1.7C690.8,333.8,689.6,332.3,689.6,330z"/>
		<path class="st7" d="M697.3,327.1v-4h1v4H697.3z"/>
		<path class="st7" d="M707.2,333.6h-6.6v-1.2l3.3-3c0.9-0.7,1.5-1.7,1.6-2.8v-0.2c0.1-0.9-0.6-1.8-1.5-1.9c-0.1,0-0.2,0-0.3,0
			c-1-0.1-1.9,0.7-2.1,1.7l-1.1-0.4c0.4-1.4,1.7-2.4,3.2-2.4c1.5-0.2,2.9,1,3,2.5c0,0.1,0,0.3,0,0.4c0,1.5-0.9,2.6-2.2,3.8l-2.7,2.4
			h5.3V333.6z"/>
		<path class="st7" d="M709,328.6c0-3.3,1-5.2,3.4-5.2s3.4,1.9,3.4,5.2s-1,5.2-3.4,5.2S709,331.9,709,328.6z M714.6,329.5v-1.6
			c0-1.9-0.6-3.3-2.2-3.3s-2.2,1.4-2.2,3.3v1.6c0,1.9,0.6,3.3,2.2,3.3S714.6,331.4,714.6,329.5z"/>
	</g>
	<g>
		<path class="st7" d="M666.3,350.8c-0.6,0.1-1.2-0.4-1.2-1c0-0.1,0-0.1,0-0.2v-5.2h-1.2v-1h0.7c0.5,0,0.7-0.2,0.7-0.7v-1.4h1v2h1.6
			v1h-1.6v5.4h1.5v1H666.3z"/>
		<path class="st7" d="M669.1,347.1c0-2.4,1.4-3.9,3.3-3.9s3.3,1.5,3.3,3.9s-1.4,3.9-3.3,3.9S669.1,349.5,669.1,347.1z M674.6,347.7
			v-1.1c0.1-1.2-0.8-2.2-2-2.3c-1.2-0.1-2.2,0.8-2.2,2c0,0.1,0,0.2,0,0.3v1.1c-0.1,1.2,0.8,2.2,2,2.3c1.2,0.1,2.2-0.8,2.2-2
			C674.6,347.9,674.6,347.8,674.6,347.7z"/>
		<path class="st7" d="M681.2,350.8v-10h6v1.1h-4.8v3.4h4.3v1.1h-4.3v4.5L681.2,350.8z"/>
		<path class="st7" d="M688.2,347.1c0-2.4,1.3-3.9,3.3-3.9s3.2,1.5,3.2,3.6v0.5h-5.3v0.3c-0.1,1.2,0.8,2.1,1.9,2.2
			c0.1,0,0.2,0,0.2,0c0.9,0,1.6-0.5,2-1.3l0.8,0.6c-0.6,1.1-1.7,1.8-2.9,1.7C689.5,351,688.2,349.5,688.2,347.1z M689.4,346.5v0.1
			h4.1v-0.2c0.1-1.1-0.7-2.1-1.8-2.2c-0.1,0-0.1,0-0.2,0c-1.2,0-2.1,1-2.1,2.1C689.3,346.4,689.3,346.4,689.4,346.5L689.4,346.5z"/>
		<path class="st7" d="M696.5,340.2h1.2v4.4l0,0c0.3-0.9,1.2-1.4,2.2-1.4c1.8,0,3,1.5,3,3.9s-1.2,3.9-3,3.9c-0.9,0-1.8-0.5-2.2-1.4
			l0,0v1.2h-1.2V340.2z M701.7,347.8v-1.3c0.1-1.1-0.7-2.1-1.8-2.2c-0.1,0-0.2,0-0.3,0c-1,0-1.9,0.6-1.9,1.4v2.8
			c0,1,0.8,1.5,1.9,1.5c1.1,0.1,2-0.8,2.1-1.9C701.7,348,701.7,347.9,701.7,347.8z"/>
		<path class="st7" d="M704.6,344.2v-4h1v4H704.6z"/>
		<path class="st7" d="M714.4,350.8h-6.6v-1.2l3.3-3c0.9-0.7,1.5-1.7,1.6-2.8v-0.2c0.1-0.9-0.6-1.8-1.5-1.9c-0.1,0-0.2,0-0.3,0
			c-1-0.1-1.9,0.7-2.1,1.7l-1.1-0.4c0.4-1.4,1.7-2.4,3.2-2.4c1.5-0.2,2.9,1,3.1,2.5c0,0.1,0,0.3,0,0.4c0,1.5-0.9,2.6-2.2,3.8
			l-2.7,2.4h5.2V350.8z"/>
		<path class="st7" d="M716.7,350.8v-1.1h2.8v-8h-0.1l-2.5,2.4l-0.7-0.8l2.6-2.5h1.9v8.9h2.6v1.1L716.7,350.8z"/>
	</g>
</g>
<g>
	<g>
		<path class="st7" d="M756.7,323.6h1.6l2.9,5.4h0.1l2.9-5.4h1.5v10h-1.2v-8.4h-0.1l-0.8,1.7l-2.4,4.4l-2.4-4.4l-0.8-1.7h-0.1v8.4
			h-1.2L756.7,323.6z"/>
		<path class="st7" d="M773.6,333.6c-0.7,0-1.2-0.5-1.3-1.1c0,0,0-0.1,0-0.1h-0.1c-0.3,0.9-1.2,1.4-2.1,1.4
			c-1.2,0.2-2.3-0.7-2.5-1.9c0-0.1,0-0.2,0-0.4c0-1.4,1-2.2,3.2-2.2h1.5v-0.7c0-1-0.6-1.6-1.8-1.6c-0.8,0-1.5,0.4-1.9,1.1l-0.7-0.6
			c0.5-0.9,1.5-1.5,2.6-1.4c1.8,0,2.8,0.9,2.8,2.5v4.1h0.8v1L773.6,333.6z M772.2,331.5v-1.2h-1.5c-1.3,0-1.9,0.4-1.9,1.1v0.3
			c0,0.7,0.6,1.1,1.5,1.1C771.4,332.8,772.2,332.2,772.2,331.5z"/>
		<path class="st7" d="M775.9,333.6v-7.4h1.1v1.4h0.1c0.3-0.9,1.2-1.4,2.1-1.4h0.4v1.1H779c-1.2,0-2,0.5-2,1.2v5L775.9,333.6z"/>
		<path class="st7" d="M781.5,327.1v-4h1v4H781.5z"/>
		<path class="st7" d="M791.4,333.6h-6.5v-1.2l3.3-3c0.9-0.7,1.5-1.7,1.7-2.8v-0.2c0.1-0.9-0.6-1.8-1.5-1.9c-0.1,0-0.2,0-0.3,0
			c-1,0-1.9,0.7-2.1,1.7l-1.1-0.4c0.4-1.4,1.7-2.4,3.2-2.4c1.5-0.2,2.9,1,3,2.5c0,0.1,0,0.3,0,0.4c0,1.5-0.9,2.6-2.2,3.8l-2.7,2.4
			h5.2L791.4,333.6z"/>
		<path class="st7" d="M793.6,333.6v-1.1h2.8v-8h-0.1l-2.5,2.4l-0.7-0.8l2.7-2.5h1.9v8.9h2.6v1.1L793.6,333.6z"/>
	</g>
	<g>
		<path class="st7" d="M749.1,350.8c-0.6,0.1-1.2-0.4-1.2-1c0-0.1,0-0.1,0-0.2v-5.2h-1.2v-1h0.7c0.5,0,0.7-0.2,0.7-0.7v-1.4h1v2h1.6
			v1H749v5.4h1.5v1H749.1z"/>
		<path class="st7" d="M751.9,347.1c0-2.4,1.4-3.9,3.3-3.9s3.3,1.5,3.3,3.9s-1.4,3.9-3.3,3.9S751.9,349.5,751.9,347.1z M757.3,347.7
			v-1.1c0.1-1.2-0.8-2.2-2-2.3c-1.2-0.1-2.2,0.8-2.2,2c0,0.1,0,0.2,0,0.3v1.1c-0.1,1.2,0.8,2.2,2,2.3c1.2,0.1,2.2-0.8,2.2-2
			C757.3,347.9,757.3,347.8,757.3,347.7z"/>
		<path class="st7" d="M763.9,340.8h1.6l2.9,5.4h0.1l2.9-5.4h1.5v10h-1.2v-8.4h-0.1l-0.8,1.7l-2.4,4.4l-2.4-4.4l-0.8-1.7h-0.1v8.4
			h-1.2L763.9,340.8z"/>
		<path class="st7" d="M780.8,350.8c-0.7,0-1.2-0.5-1.3-1.1c0,0,0-0.1,0-0.1h-0.1c-0.3,0.9-1.2,1.4-2.1,1.4
			c-1.2,0.2-2.3-0.7-2.5-1.8c0-0.1,0-0.3,0-0.4c0-1.4,1-2.2,3.1-2.2h1.5v-0.7c0-1-0.6-1.6-1.7-1.6c-0.8,0-1.5,0.4-1.9,1.1l-0.7-0.6
			c0.5-0.9,1.5-1.5,2.6-1.4c1.8,0,2.8,0.9,2.8,2.5v4.1h0.8v1L780.8,350.8z M779.4,348.7v-1.2h-1.5c-1.3,0-1.9,0.4-1.9,1.1v0.3
			c0,0.7,0.6,1.1,1.5,1.1C778.6,350,779.4,349.4,779.4,348.7z"/>
		<path class="st7" d="M787.5,343.4h1.1l-3.3,9.1c-0.3,0.9-0.6,1.1-1.7,1.1h-0.6v-1h1.2l0.6-1.6l-2.8-7.7h1.1l1.8,5l0.3,1.2h0.1
			l0.4-1.2L787.5,343.4z"/>
		<path class="st7" d="M790.4,344.2v-4h1v4H790.4z"/>
		<path class="st7" d="M800.3,350.8h-6.5v-1.2l3.3-3c0.9-0.7,1.5-1.7,1.7-2.8v-0.2c0.1-0.9-0.6-1.8-1.5-1.9c-0.1,0-0.2,0-0.3,0
			c-1,0-1.9,0.7-2.1,1.7l-1.1-0.4c0.4-1.4,1.7-2.4,3.2-2.4c1.5-0.2,2.9,1,3,2.5c0,0.1,0,0.3,0,0.4c0,1.5-0.9,2.6-2.2,3.8l-2.7,2.4
			h5.2L800.3,350.8z"/>
		<path class="st7" d="M802.5,350.8v-1.1h2.8v-8h-0.1l-2.5,2.4l-0.7-0.8l2.7-2.5h1.9v8.9h2.6v1.1L802.5,350.8z"/>
	</g>
</g>
<g>
	<g>
		<path class="st7" d="M840.6,323.6h1.6l2.8,5.4h0.1l2.9-5.4h1.5v10h-1.2v-8.4h-0.1l-0.8,1.7l-2.4,4.4l-2.4-4.4l-0.8-1.7h-0.1v8.4
			h-1.2L840.6,323.6z"/>
		<path class="st7" d="M857.4,333.6c-0.7,0-1.2-0.5-1.3-1.1c0,0,0-0.1,0-0.1h-0.1c-0.3,0.9-1.2,1.4-2.1,1.4
			c-1.2,0.2-2.3-0.7-2.5-1.9c0-0.1,0-0.2,0-0.4c0-1.4,1-2.2,3.2-2.2h1.5v-0.7c0-1-0.6-1.6-1.8-1.6c-0.8,0-1.5,0.4-1.9,1.1l-0.7-0.6
			c0.5-0.9,1.5-1.5,2.6-1.4c1.8,0,2.8,0.9,2.8,2.5v4.1h0.8v1L857.4,333.6z M856.1,331.5v-1.2h-1.5c-1.3,0-1.9,0.4-1.9,1.1v0.3
			c0,0.7,0.6,1.1,1.5,1.1C855.3,332.8,856.1,332.2,856.1,331.5z"/>
		<path class="st7" d="M859.7,333.6v-7.4h1.1v1.4h0.1c0.3-0.9,1.2-1.4,2.1-1.4h0.4v1.1h-0.7c-1.2,0-2,0.5-2,1.2v5L859.7,333.6z"/>
		<path class="st7" d="M865.4,327.1v-4h1v4H865.4z"/>
		<path class="st7" d="M875.3,333.6h-6.5v-1.2l3.3-3c0.9-0.7,1.5-1.7,1.7-2.8v-0.2c0.1-0.9-0.6-1.8-1.5-1.9c-0.1,0-0.2,0-0.3,0
			c-1,0-1.9,0.7-2.1,1.7l-1.1-0.4c0.4-1.4,1.7-2.4,3.2-2.4c1.5-0.2,2.9,1,3,2.5c0,0.1,0,0.3,0,0.4c0,1.5-0.9,2.6-2.2,3.8l-2.7,2.4
			h5.2L875.3,333.6z"/>
		<path class="st7" d="M877.5,333.6v-1.1h2.8v-8h-0.1l-2.5,2.4l-0.7-0.8l2.7-2.5h1.9v8.9h2.6v1.1L877.5,333.6z"/>
	</g>
	<g>
		<path class="st7" d="M832.9,350.8c-0.6,0.1-1.2-0.4-1.2-1c0-0.1,0-0.1,0-0.2v-5.2h-1.2v-1h0.7c0.5,0,0.7-0.2,0.7-0.7v-1.4h1v2h1.6
			v1h-1.6v5.4h1.5v1H832.9z"/>
		<path class="st7" d="M835.7,347.1c0-2.4,1.4-3.9,3.3-3.9s3.3,1.5,3.3,3.9s-1.4,3.9-3.3,3.9S835.7,349.5,835.7,347.1z M841.2,347.7
			v-1.1c0.1-1.2-0.8-2.2-2-2.3c-1.2-0.1-2.2,0.8-2.2,2c0,0.1,0,0.2,0,0.3v1.1c-0.1,1.2,0.8,2.2,2,2.3c1.2,0.1,2.2-0.8,2.2-2
			C841.2,347.9,841.2,347.8,841.2,347.7z"/>
		<path class="st7" d="M847.8,340.8h1.6l2.9,5.4h0.1l2.9-5.4h1.5v10h-1.2v-8.4h-0.1l-0.8,1.7l-2.4,4.4l-2.4-4.4l-0.8-1.7h0v8.4h-1.2
			L847.8,340.8z"/>
		<path class="st7" d="M864.7,350.8c-0.6,0-1.2-0.4-1.3-1.1c0,0,0-0.1,0-0.1h-0.1c-0.3,0.9-1.2,1.4-2.1,1.4
			c-1.2,0.2-2.3-0.7-2.5-1.8c0-0.1,0-0.3,0-0.4c0-1.4,1-2.2,3.1-2.2h1.5v-0.7c0-1-0.6-1.6-1.7-1.6c-0.8,0-1.5,0.4-1.9,1.1l-0.7-0.6
			c0.5-0.9,1.5-1.5,2.6-1.4c1.8,0,2.8,0.9,2.8,2.5v4.1h0.8v1L864.7,350.8z M863.3,348.7v-1.2h-1.5c-1.3,0-1.9,0.4-1.9,1.1v0.3
			c0,0.7,0.6,1.1,1.5,1.1C862.5,350,863.3,349.4,863.3,348.7L863.3,348.7z"/>
		<path class="st7" d="M871.4,343.4h1.1l-3.3,9.1c-0.3,0.9-0.6,1.1-1.7,1.1h-0.6v-1h1.2l0.6-1.6l-2.8-7.7h1.1l1.8,5l0.3,1.2h0.1
			l0.4-1.2L871.4,343.4z"/>
		<path class="st7" d="M874.3,344.2v-4h1v4H874.3z"/>
		<path class="st7" d="M884.2,350.8h-6.6v-1.2l3.3-3c0.9-0.7,1.5-1.7,1.7-2.8v-0.2c0.1-0.9-0.6-1.8-1.5-1.9c-0.1,0-0.2,0-0.3,0
			c-1,0-1.9,0.7-2.1,1.7l-1.1-0.4c0.4-1.4,1.7-2.4,3.2-2.4c1.5-0.2,2.9,1,3,2.5c0,0.1,0,0.3,0,0.4c0,1.5-0.9,2.6-2.2,3.8l-2.7,2.4
			h5.2V350.8z"/>
		<path class="st7" d="M886.4,350.8v-1.1h2.8v-8h-0.1l-2.5,2.4l-0.7-0.8l2.7-2.5h1.9v8.9h2.6v1.1L886.4,350.8z"/>
	</g>
</g>
<g>
	<path class="st7" d="M89.9,368.7c0-3.3,1.5-5.2,4-5.2c1.5-0.1,2.9,0.8,3.4,2.2l-1,0.6c-0.4-1.1-1.4-1.7-2.5-1.7
		c-1.7,0-2.7,1.4-2.7,3.4v1.5c0,2,1,3.3,2.7,3.3c1.2,0,2.2-0.7,2.6-1.8l1,0.6c-0.6,1.4-2,2.3-3.5,2.3
		C91.4,373.8,89.9,372.1,89.9,368.7z"/>
	<path class="st7" d="M104.5,373.7c-0.7,0-1.2-0.5-1.3-1.1c0,0,0-0.1,0-0.1h-0.1c-0.3,0.9-1.2,1.4-2.1,1.4c-1.2,0.2-2.3-0.7-2.5-1.8
		c0-0.1,0-0.3,0-0.4c0-1.4,1-2.2,3.2-2.2h1.4v-0.7c0-1-0.6-1.6-1.7-1.6c-0.8,0-1.5,0.4-1.9,1.1l-0.7-0.6c0.5-0.9,1.5-1.5,2.6-1.4
		c1.8,0,2.8,0.9,2.8,2.5v4.1h0.8v1L104.5,373.7z M103.2,371.5v-1.2h-1.5c-1.3,0-1.9,0.4-1.9,1.1v0.3c0,0.7,0.6,1.1,1.5,1.1
		C102.4,372.9,103.2,372.3,103.2,371.5z"/>
	<path class="st7" d="M106.1,372.4l0.8-0.7c0.5,0.7,1.3,1.1,2.2,1.1c1,0,1.5-0.4,1.5-1.2c0-0.6-0.3-1-1.3-1.2l-0.6-0.1
		c-1.4-0.2-2.4-0.8-2.4-2.1s1.1-2.2,2.6-2.2c1,0,2,0.4,2.6,1.2l-0.8,0.7c-0.4-0.6-1.2-0.9-1.9-0.9c-0.9,0-1.4,0.4-1.4,1.1
		s0.5,1,1.4,1.1l0.6,0.1c1.6,0.2,2.3,1,2.3,2.1c0,1.4-1.1,2.3-2.7,2.3C107.9,373.9,106.8,373.3,106.1,372.4z"/>
	<path class="st7" d="M113.2,370c0-2.4,1.3-3.9,3.3-3.9s3.2,1.5,3.2,3.6v0.5h-5.3v0.3c-0.1,1.2,0.8,2.1,1.9,2.2c0.1,0,0.2,0,0.2,0
		c0.9,0,1.6-0.5,2-1.3l0.8,0.6c-0.6,1.1-1.7,1.7-2.9,1.7C114.6,373.8,113.2,372.3,113.2,370z M114.4,369.3v0.1h4.1v-0.2
		c0.1-1.1-0.7-2.1-1.8-2.2c-0.1,0-0.1,0-0.2,0c-1.2,0-2.1,1-2.1,2.1C114.4,369.2,114.4,369.3,114.4,369.3L114.4,369.3z"/>
	<path class="st7" d="M120.9,372.4l0.8-0.7c0.5,0.7,1.3,1.1,2.2,1.1c1,0,1.6-0.4,1.6-1.2c0-0.6-0.3-1-1.3-1.2l-0.6-0.1
		c-1.3-0.2-2.4-0.8-2.4-2.1s1.1-2.2,2.6-2.2c1,0,2,0.4,2.6,1.2l-0.8,0.7c-0.4-0.6-1.2-0.9-1.9-0.9c-1,0-1.4,0.4-1.4,1.1
		s0.5,1,1.4,1.1l0.6,0.1c1.6,0.2,2.3,1,2.3,2.1c0,1.4-1,2.3-2.7,2.3C122.7,373.9,121.6,373.3,120.9,372.4z"/>
</g>
<g>
	<path class="st7" d="M171.2,363.7h3.4c2.5,0,4.1,1.7,4.1,5s-1.6,5-4.1,5h-3.4V363.7z M174.6,372.6c1.6,0,2.8-1.1,2.8-3.1v-1.6
		c0-2-1.2-3.1-2.8-3.1h-2.2v7.9H174.6z"/>
	<path class="st7" d="M180.1,370c0-2.4,1.3-3.9,3.3-3.9s3.2,1.5,3.2,3.6v0.5h-5.3v0.3c-0.1,1.2,0.8,2.1,1.9,2.2c0.1,0,0.2,0,0.2,0
		c0.9,0,1.6-0.5,2-1.3l0.8,0.6c-0.6,1.1-1.7,1.7-2.9,1.7C181.5,373.8,180.1,372.3,180.1,370z M181.3,369.3v0.1h4.1v-0.2
		c0.1-1.1-0.7-2.1-1.8-2.2c-0.1,0-0.1,0-0.2,0c-1.2,0-2.1,1-2.1,2.1C181.3,369.2,181.3,369.3,181.3,369.3L181.3,369.3z"/>
	<path class="st7" d="M193.9,373.7c-0.7,0-1.2-0.5-1.3-1.1c0,0,0-0.1,0-0.1h-0.1c-0.3,0.9-1.2,1.4-2.1,1.4c-1.2,0.1-2.3-0.7-2.4-1.9
		c0-0.1,0-0.2,0-0.3c0-1.4,1-2.2,3.1-2.2h1.5v-0.7c0-1-0.6-1.6-1.8-1.6c-0.8,0-1.5,0.4-1.9,1.1l-0.7-0.6c0.5-0.9,1.5-1.5,2.6-1.4
		c1.8,0,2.8,0.9,2.8,2.5v4.1h0.9v1L193.9,373.7z M192.6,371.5v-1.2h-1.5c-1.3,0-1.9,0.4-1.9,1.1v0.3c0,0.7,0.6,1.1,1.5,1.1
		C191.8,372.9,192.6,372.3,192.6,371.5z"/>
	<path class="st7" d="M197.8,373.7c-0.6,0.1-1.2-0.4-1.2-1c0-0.1,0-0.1,0-0.2v-5.2h-1.2v-1h0.7c0.5,0,0.6-0.2,0.6-0.7v-1.4h1v2h1.6
		v1h-1.6v5.4h1.5v1L197.8,373.7z"/>
	<path class="st7" d="M201.2,363.1h1.1v4.4h0.1c0.3-0.9,1.2-1.4,2.1-1.4c1.5,0,2.5,1,2.5,2.8v4.7h-1.1v-4.5c0-1.3-0.6-2-1.7-2
		c-0.9,0-1.8,0.5-1.8,1.4v5.1h-1.1V363.1z"/>
	<path class="st7" d="M208.6,372.4l0.8-0.7c0.5,0.7,1.3,1.1,2.2,1.1c1,0,1.6-0.4,1.6-1.2c0-0.6-0.3-1-1.3-1.2l-0.6-0.1
		c-1.4-0.2-2.4-0.8-2.4-2.1s1.1-2.2,2.6-2.2c1,0,2,0.4,2.6,1.2l-0.8,0.7c-0.5-0.6-1.2-0.9-1.9-0.9c-0.9,0-1.4,0.4-1.4,1.1
		s0.5,1,1.4,1.1l0.6,0.1c1.6,0.2,2.3,1,2.3,2.1c0,1.4-1,2.3-2.7,2.3C210.4,373.9,209.3,373.3,208.6,372.4z"/>
</g>
<g>
	<path class="st7" d="M257.8,368.7c0-3.3,1.5-5.2,4-5.2c1.5-0.1,2.9,0.8,3.4,2.2l-1,0.6c-0.4-1.1-1.4-1.7-2.5-1.7
		c-1.7,0-2.7,1.4-2.7,3.4v1.5c0,2,1,3.3,2.7,3.3c1.2,0,2.2-0.7,2.5-1.8l1,0.6c-0.6,1.4-2,2.3-3.5,2.3
		C259.3,373.8,257.8,372.1,257.8,368.7z"/>
	<path class="st7" d="M272.5,373.7c-0.7,0-1.2-0.5-1.3-1.1c0,0,0-0.1,0-0.1h-0.1c-0.3,0.9-1.2,1.4-2.1,1.4c-1.2,0.2-2.3-0.7-2.5-1.8
		c0-0.1,0-0.3,0-0.4c0-1.4,1-2.2,3.1-2.2h1.5v-0.7c0-1-0.6-1.6-1.7-1.6c-0.8,0-1.5,0.4-1.9,1.1l-0.7-0.6c0.5-0.9,1.5-1.5,2.6-1.4
		c1.8,0,2.8,0.9,2.8,2.5v4.1h0.8v1L272.5,373.7z M271.1,371.5v-1.2h-1.5c-1.3,0-1.9,0.4-1.9,1.1v0.3c0,0.7,0.6,1.1,1.5,1.1
		C270.3,372.9,271.1,372.3,271.1,371.5z"/>
	<path class="st7" d="M274,372.4l0.8-0.7c0.5,0.7,1.3,1.1,2.2,1.1c1,0,1.5-0.4,1.5-1.2c0-0.6-0.3-1-1.3-1.2l-0.6-0.1
		c-1.4-0.2-2.4-0.8-2.4-2.1s1.1-2.2,2.6-2.2c1,0,2,0.4,2.6,1.2l-0.8,0.7c-0.5-0.6-1.2-0.9-1.9-0.9c-0.9,0-1.4,0.4-1.4,1.1
		s0.5,1,1.4,1.1l0.6,0.1c1.6,0.2,2.3,1,2.3,2.1c0,1.4-1,2.3-2.7,2.3C275.8,373.9,274.7,373.3,274,372.4z"/>
	<path class="st7" d="M281.2,370c0-2.4,1.3-3.9,3.3-3.9s3.2,1.5,3.2,3.6v0.5h-5.3v0.3c-0.1,1.2,0.8,2.1,1.9,2.2c0.1,0,0.2,0,0.2,0
		c0.9,0,1.6-0.5,2-1.3l0.8,0.6c-0.6,1.1-1.7,1.7-2.9,1.7C282.5,373.8,281.2,372.3,281.2,370z M282.4,369.3v0.1h4.1v-0.2
		c0.1-1.1-0.7-2.1-1.8-2.2c-0.1,0-0.1,0-0.2,0c-1.2,0-2.1,1-2.1,2.1C282.4,369.2,282.4,369.3,282.4,369.3L282.4,369.3z"/>
	<path class="st7" d="M288.9,372.4l0.8-0.7c0.5,0.7,1.3,1.1,2.2,1.1c1,0,1.5-0.4,1.5-1.2c0-0.6-0.3-1-1.3-1.2l-0.6-0.1
		c-1.4-0.2-2.4-0.8-2.4-2.1s1.1-2.2,2.6-2.2c1,0,2,0.4,2.6,1.2l-0.8,0.7c-0.4-0.6-1.2-0.9-1.9-0.9c-1,0-1.5,0.4-1.5,1.1
		s0.5,1,1.4,1.1l0.6,0.1c1.6,0.2,2.3,1,2.3,2.1c0,1.4-1,2.3-2.7,2.3C290.6,373.9,289.5,373.3,288.9,372.4z"/>
</g>
<g>
	<path class="st7" d="M338.1,363.7h3.4c2.5,0,4.1,1.7,4.1,5s-1.6,5-4.1,5h-3.4V363.7z M341.5,372.6c1.6,0,2.8-1.1,2.8-3.1v-1.6
		c0-2-1.2-3.1-2.8-3.1h-2.1v7.9H341.5z"/>
	<path class="st7" d="M347.1,370c0-2.4,1.3-3.9,3.3-3.9s3.2,1.5,3.2,3.6v0.5h-5.3v0.3c-0.1,1.2,0.8,2.1,1.9,2.2c0.1,0,0.2,0,0.2,0
		c0.9,0,1.6-0.5,2-1.3l0.8,0.6c-0.6,1.1-1.7,1.7-2.9,1.7C348.4,373.8,347.1,372.3,347.1,370z M348.3,369.3v0.1h4.1v-0.2
		c0.1-1.1-0.7-2.1-1.8-2.2c-0.1,0-0.1,0-0.2,0c-1.2,0-2.1,1-2.1,2.1C348.3,369.2,348.3,369.3,348.3,369.3L348.3,369.3z"/>
	<path class="st7" d="M360.8,373.7c-0.7,0-1.2-0.5-1.3-1.1c0,0,0-0.1,0-0.1h-0.1c-0.3,0.9-1.2,1.4-2.1,1.4c-1.2,0.2-2.3-0.7-2.5-1.8
		c0-0.1,0-0.3,0-0.4c0-1.4,1-2.2,3.1-2.2h1.5v-0.7c0-1-0.6-1.6-1.8-1.6c-0.8,0-1.5,0.4-1.9,1.1l-0.7-0.6c0.5-0.9,1.5-1.5,2.6-1.4
		c1.8,0,2.8,0.9,2.8,2.5v4.1h0.9v1L360.8,373.7z M359.5,371.5v-1.2H358c-1.3,0-1.9,0.4-1.9,1.1v0.3c0,0.7,0.6,1.1,1.5,1.1
		C358.7,372.9,359.5,372.3,359.5,371.5z"/>
	<path class="st7" d="M364.8,373.7c-0.6,0.1-1.2-0.4-1.2-1c0-0.1,0-0.1,0-0.2v-5.2h-1.2v-1h0.7c0.5,0,0.6-0.2,0.6-0.7v-1.4h1v2h1.6
		v1h-1.6v5.4h1.5v1L364.8,373.7z"/>
	<path class="st7" d="M368.1,363.1h1.1v4.4h0.1c0.3-0.9,1.2-1.4,2.1-1.4c1.5,0,2.5,1,2.5,2.8v4.7h-1.1v-4.5c0-1.3-0.6-2-1.7-2
		c-0.9,0-1.8,0.5-1.8,1.4v5.1h-1.1V363.1z"/>
	<path class="st7" d="M375.6,372.4l0.8-0.7c0.5,0.7,1.3,1.1,2.2,1.1c1,0,1.5-0.4,1.5-1.2c0-0.6-0.3-1-1.3-1.2l-0.6-0.1
		c-1.4-0.2-2.4-0.8-2.4-2.1s1.1-2.2,2.6-2.2c1,0,2,0.4,2.6,1.2l-0.8,0.7c-0.5-0.6-1.2-0.9-1.9-0.9c-0.9,0-1.4,0.4-1.4,1.1
		s0.5,1,1.4,1.1l0.6,0.1c1.6,0.2,2.3,1,2.3,2.1c0,1.4-1,2.3-2.7,2.3C377.3,373.9,376.2,373.3,375.6,372.4z"/>
</g>
<g>
	<path class="st7" d="M425.1,368.7c0-3.3,1.5-5.2,4-5.2c1.5-0.1,2.9,0.8,3.4,2.2l-1,0.6c-0.4-1.1-1.4-1.7-2.5-1.7
		c-1.7,0-2.7,1.4-2.7,3.4v1.5c0,2,1,3.3,2.7,3.3c1.2,0,2.2-0.7,2.5-1.8l1,0.6c-0.6,1.4-2,2.3-3.5,2.3
		C426.6,373.8,425.1,372.1,425.1,368.7z"/>
	<path class="st7" d="M439.8,373.7c-0.7,0-1.2-0.5-1.3-1.1c0,0,0-0.1,0-0.1h-0.1c-0.3,0.9-1.2,1.4-2.1,1.4c-1.2,0.2-2.3-0.7-2.5-1.8
		c0-0.1,0-0.3,0-0.4c0-1.4,1-2.2,3.1-2.2h1.5v-0.7c0-1-0.6-1.6-1.7-1.6c-0.8,0-1.5,0.4-1.9,1.1l-0.7-0.6c0.5-0.9,1.5-1.5,2.6-1.4
		c1.8,0,2.8,0.9,2.8,2.5v4.1h0.8v1L439.8,373.7z M438.4,371.5v-1.2h-1.5c-1.3,0-1.9,0.4-1.9,1.1v0.3c0,0.7,0.6,1.1,1.5,1.1
		C437.6,372.9,438.4,372.3,438.4,371.5z"/>
	<path class="st7" d="M441.4,372.4l0.8-0.7c0.5,0.7,1.3,1.1,2.2,1.1c1,0,1.5-0.4,1.5-1.2c0-0.6-0.3-1-1.3-1.2l-0.6-0.1
		c-1.4-0.2-2.4-0.8-2.4-2.1s1.1-2.2,2.6-2.2c1,0,2,0.4,2.6,1.2l-0.8,0.7c-0.4-0.6-1.2-0.9-1.9-0.9c-0.9,0-1.4,0.4-1.4,1.1
		s0.5,1,1.4,1.1l0.6,0.1c1.6,0.2,2.3,1,2.3,2.1c0,1.4-1,2.3-2.7,2.3C443.1,373.9,442,373.3,441.4,372.4z"/>
	<path class="st7" d="M448.5,370c0-2.4,1.3-3.9,3.3-3.9s3.2,1.5,3.2,3.6v0.5h-5.3v0.3c-0.1,1.2,0.8,2.1,1.9,2.2c0.1,0,0.2,0,0.2,0
		c0.9,0,1.6-0.5,2-1.3l0.8,0.6c-0.6,1.1-1.7,1.7-2.9,1.7C449.8,373.8,448.5,372.3,448.5,370z M449.7,369.3v0.1h4.1v-0.2
		c0.1-1.1-0.7-2.1-1.8-2.2c-0.1,0-0.1,0-0.2,0c-1.2,0-2.1,1-2.1,2.1C449.7,369.2,449.7,369.3,449.7,369.3L449.7,369.3z"/>
	<path class="st7" d="M456.2,372.4l0.8-0.7c0.5,0.7,1.3,1.1,2.2,1.1c1,0,1.5-0.4,1.5-1.2c0-0.6-0.3-1-1.3-1.2l-0.6-0.1
		c-1.4-0.2-2.4-0.8-2.4-2.1s1.1-2.2,2.6-2.2c1,0,2,0.4,2.6,1.2l-0.8,0.7c-0.4-0.6-1.2-0.9-1.9-0.9c-1,0-1.5,0.4-1.5,1.1
		s0.5,1,1.4,1.1l0.6,0.1c1.6,0.2,2.3,1,2.3,2.1c0,1.4-1,2.3-2.7,2.3C458,373.9,456.9,373.3,456.2,372.4z"/>
</g>
<g>
	<path class="st7" d="M506.1,363.7h3.4c2.5,0,4.1,1.7,4.1,5s-1.6,5-4.1,5h-3.4V363.7z M509.4,372.6c1.6,0,2.8-1.1,2.8-3.1v-1.6
		c0-2-1.2-3.1-2.8-3.1h-2.1v7.9H509.4z"/>
	<path class="st7" d="M515,370c0-2.4,1.3-3.9,3.3-3.9s3.2,1.5,3.2,3.6v0.5h-5.3v0.3c-0.1,1.2,0.8,2.1,1.9,2.2c0.1,0,0.2,0,0.2,0
		c0.9,0,1.6-0.5,2-1.3l0.8,0.6c-0.6,1.1-1.7,1.7-2.9,1.7C516.3,373.8,515,372.3,515,370z M516.2,369.3v0.1h4.1v-0.2
		c0.1-1.1-0.7-2.1-1.8-2.2c-0.1,0-0.1,0-0.2,0c-1.2,0-2.1,1-2.1,2.1C516.2,369.2,516.2,369.3,516.2,369.3L516.2,369.3z"/>
	<path class="st7" d="M528.8,373.7c-0.7,0-1.2-0.5-1.3-1.1c0,0,0-0.1,0-0.1h-0.1c-0.3,0.9-1.2,1.4-2.1,1.4c-1.2,0.2-2.3-0.7-2.5-1.8
		c0-0.1,0-0.3,0-0.4c0-1.4,1-2.2,3.2-2.2h1.5v-0.7c0-1-0.6-1.6-1.8-1.6c-0.8,0-1.5,0.4-1.9,1.1l-0.7-0.6c0.5-0.9,1.5-1.5,2.6-1.4
		c1.8,0,2.8,0.9,2.8,2.5v4.1h0.8v1L528.8,373.7z M527.4,371.5v-1.2h-1.5c-1.3,0-1.9,0.4-1.9,1.1v0.3c0,0.7,0.6,1.1,1.5,1.1
		C526.6,372.9,527.4,372.3,527.4,371.5z"/>
	<path class="st7" d="M532.7,373.7c-0.6,0.1-1.2-0.4-1.2-1c0-0.1,0-0.1,0-0.2v-5.2h-1.2v-1h0.7c0.5,0,0.7-0.2,0.7-0.7v-1.4h1v2h1.6
		v1h-1.6v5.4h1.5v1L532.7,373.7z"/>
	<path class="st7" d="M536.1,363.1h1.1v4.4h0.1c0.3-0.9,1.2-1.4,2.1-1.4c1.5,0,2.5,1,2.5,2.8v4.7h-1.2v-4.5c0-1.3-0.6-2-1.7-2
		c-0.9,0-1.8,0.5-1.8,1.4v5.1h-1.1V363.1z"/>
	<path class="st7" d="M543.5,372.4l0.8-0.7c0.5,0.7,1.3,1.1,2.2,1.1c1,0,1.5-0.4,1.5-1.2c0-0.6-0.3-1-1.3-1.2l-0.6-0.1
		c-1.4-0.2-2.4-0.8-2.4-2.1s1.1-2.2,2.6-2.2c1,0,2,0.4,2.6,1.2l-0.8,0.7c-0.5-0.6-1.2-0.9-1.9-0.9c-0.9,0-1.4,0.4-1.4,1.1
		s0.5,1,1.4,1.1l0.6,0.1c1.6,0.2,2.3,1,2.3,2.1c0,1.4-1,2.3-2.7,2.3C545.3,373.9,544.2,373.3,543.5,372.4z"/>
</g>
<g>
	<path class="st7" d="M592.3,368.7c0-3.3,1.5-5.2,4-5.2c1.5-0.1,2.9,0.8,3.4,2.2l-1,0.6c-0.4-1.1-1.4-1.7-2.5-1.7
		c-1.7,0-2.7,1.4-2.7,3.4v1.5c0,2,1,3.3,2.7,3.3c1.2,0,2.2-0.7,2.5-1.8l1,0.6c-0.6,1.4-2,2.3-3.5,2.3
		C593.8,373.8,592.3,372.1,592.3,368.7z"/>
	<path class="st7" d="M606.9,373.7c-0.7,0-1.2-0.5-1.3-1.1c0,0,0-0.1,0-0.1h-0.1c-0.3,0.9-1.2,1.4-2.1,1.4c-1.2,0.1-2.3-0.7-2.4-1.9
		c0-0.1,0-0.2,0-0.3c0-1.4,1-2.2,3.2-2.2h1.5v-0.7c0-1-0.6-1.6-1.7-1.6c-0.8,0-1.5,0.4-1.9,1.1l-0.7-0.6c0.5-0.9,1.5-1.5,2.6-1.4
		c1.8,0,2.8,0.9,2.8,2.5v4.1h0.8v1L606.9,373.7z M605.6,371.5v-1.2h-1.5c-1.3,0-1.9,0.4-1.9,1.1v0.3c0,0.7,0.6,1.1,1.5,1.1
		C604.8,372.9,605.6,372.3,605.6,371.5z"/>
	<path class="st7" d="M608.5,372.4l0.8-0.7c0.5,0.7,1.3,1.1,2.2,1.1c1,0,1.5-0.4,1.5-1.2c0-0.6-0.3-1-1.3-1.2l-0.6-0.1
		c-1.4-0.2-2.4-0.8-2.4-2.1s1.1-2.2,2.6-2.2c1,0,2,0.4,2.6,1.2l-0.8,0.7c-0.5-0.6-1.2-0.9-1.9-0.9c-0.9,0-1.4,0.4-1.4,1.1
		s0.5,1,1.4,1.1l0.6,0.1c1.6,0.2,2.3,1,2.3,2.1c0,1.4-1,2.3-2.7,2.3C610.3,373.9,609.2,373.3,608.5,372.4z"/>
	<path class="st7" d="M615.6,370c0-2.4,1.3-3.9,3.3-3.9s3.2,1.5,3.2,3.6v0.5h-5.3v0.3c-0.1,1.2,0.8,2.1,1.9,2.2c0.1,0,0.2,0,0.2,0
		c0.9,0,1.6-0.5,2-1.3l0.8,0.6c-0.6,1.1-1.7,1.7-2.9,1.7C616.9,373.8,615.6,372.3,615.6,370z M616.8,369.3v0.1h4.1v-0.2
		c0.1-1.1-0.7-2.1-1.8-2.2c-0.1,0-0.1,0-0.2,0c-1.2,0-2.1,1-2.1,2.1C616.8,369.2,616.8,369.3,616.8,369.3L616.8,369.3z"/>
	<path class="st7" d="M623.3,372.4l0.8-0.7c0.5,0.7,1.3,1.1,2.2,1.1c1,0,1.5-0.4,1.5-1.2c0-0.6-0.3-1-1.3-1.2l-0.6-0.1
		c-1.4-0.2-2.4-0.8-2.4-2.1s1.1-2.2,2.6-2.2c1,0,2,0.4,2.6,1.2l-0.8,0.7c-0.4-0.6-1.2-0.9-1.9-0.9c-1,0-1.5,0.4-1.5,1.1
		s0.5,1,1.4,1.1l0.6,0.1c1.6,0.2,2.3,1,2.3,2.1c0,1.4-1,2.3-2.7,2.3C625.1,373.9,624,373.3,623.3,372.4z"/>
</g>
<g>
	<path class="st7" d="M672.8,363.7h3.3c2.5,0,4.1,1.7,4.1,5s-1.6,5-4.1,5h-3.3V363.7z M676.1,372.6c1.7,0,2.8-1.1,2.8-3.1v-1.6
		c0-2-1.2-3.1-2.8-3.1H674v7.9H676.1z"/>
	<path class="st7" d="M681.8,370c0-2.4,1.3-3.9,3.3-3.9s3.2,1.5,3.2,3.6v0.5H683v0.3c-0.1,1.2,0.8,2.1,1.9,2.2c0.1,0,0.2,0,0.2,0
		c0.9,0,1.6-0.5,2-1.3l0.8,0.6c-0.6,1.1-1.7,1.7-2.9,1.7C683.1,373.8,681.8,372.3,681.8,370z M683,369.3v0.1h4v-0.2
		c0.1-1.1-0.7-2.1-1.8-2.2c-0.1,0-0.1,0-0.2,0C683.8,367.1,682.9,368.1,683,369.3C683,369.3,683,369.3,683,369.3L683,369.3z"/>
	<path class="st7" d="M695.5,373.7c-0.7,0-1.2-0.5-1.3-1.1c0,0,0-0.1,0-0.1h-0.1c-0.3,0.9-1.2,1.4-2.1,1.4c-1.2,0.2-2.3-0.7-2.5-1.8
		c0-0.1,0-0.3,0-0.4c0-1.4,1-2.2,3.2-2.2h1.5v-0.7c0-1-0.6-1.6-1.8-1.6c-0.8,0-1.5,0.4-1.9,1.1l-0.7-0.6c0.5-0.9,1.5-1.5,2.6-1.4
		c1.8,0,2.8,0.9,2.8,2.5v4.1h0.8v1L695.5,373.7z M694.2,371.5v-1.2h-1.5c-1.3,0-1.9,0.4-1.9,1.1v0.3c0,0.7,0.6,1.1,1.5,1.1
		C693.3,372.9,694.2,372.3,694.2,371.5z"/>
	<path class="st7" d="M699.4,373.7c-0.6,0.1-1.2-0.4-1.2-1c0-0.1,0-0.1,0-0.2v-5.2H697v-1h0.7c0.5,0,0.7-0.2,0.7-0.7v-1.4h1v2h1.7v1
		h-1.6v5.4h1.5v1L699.4,373.7z"/>
	<path class="st7" d="M702.8,363.1h1.2v4.4l0,0c0.3-0.9,1.2-1.4,2.1-1.4c1.5,0,2.5,1,2.5,2.8v4.7h-1.2v-4.5c0-1.3-0.6-2-1.7-2
		c-0.9,0-1.8,0.5-1.8,1.4v5.1h-1.1L702.8,363.1z"/>
	<path class="st7" d="M710.2,372.4l0.8-0.7c0.5,0.7,1.3,1.1,2.2,1.1c1,0,1.5-0.4,1.5-1.2c0-0.6-0.3-1-1.3-1.2l-0.6-0.1
		c-1.4-0.2-2.4-0.8-2.4-2.1s1.1-2.2,2.6-2.2c1,0,2,0.4,2.6,1.2L715,368c-0.5-0.6-1.2-0.9-1.9-0.9c-0.9,0-1.4,0.4-1.4,1.1
		s0.5,1,1.4,1.1l0.6,0.1c1.6,0.2,2.3,1,2.3,2.1c0,1.4-1,2.3-2.7,2.3C712,373.9,710.9,373.3,710.2,372.4z"/>
</g>
<g>
	<path class="st7" d="M759.6,368.7c0-3.3,1.5-5.2,4-5.2c1.5-0.1,2.9,0.8,3.4,2.2l-1,0.6c-0.4-1.1-1.4-1.7-2.5-1.7
		c-1.7,0-2.7,1.4-2.7,3.4v1.5c0,2,1,3.3,2.7,3.3c1.2,0,2.2-0.7,2.5-1.8l1,0.6c-0.6,1.4-2,2.3-3.5,2.3
		C761.1,373.8,759.6,372.1,759.6,368.7z"/>
	<path class="st7" d="M774.3,373.7c-0.7,0-1.2-0.5-1.3-1.1c0,0,0-0.1,0-0.1h-0.1c-0.3,0.9-1.2,1.4-2.1,1.4c-1.2,0.2-2.3-0.7-2.5-1.8
		c0-0.1,0-0.3,0-0.4c0-1.4,1-2.2,3.2-2.2h1.5v-0.7c0-1-0.6-1.6-1.7-1.6c-0.8,0-1.5,0.4-1.9,1.1l-0.7-0.6c0.5-0.9,1.5-1.5,2.6-1.4
		c1.8,0,2.8,0.9,2.8,2.5v4.1h0.8v1L774.3,373.7z M772.9,371.5v-1.2h-1.5c-1.3,0-1.9,0.4-1.9,1.1v0.3c0,0.7,0.6,1.1,1.5,1.1
		C772.1,372.9,772.9,372.3,772.9,371.5L772.9,371.5z"/>
	<path class="st7" d="M775.8,372.4l0.8-0.7c0.5,0.7,1.3,1.1,2.2,1.1c1,0,1.5-0.4,1.5-1.2c0-0.6-0.3-1-1.3-1.2l-0.6-0.1
		c-1.4-0.2-2.4-0.8-2.4-2.1s1.1-2.2,2.6-2.2c1,0,2,0.4,2.6,1.2l-0.8,0.7c-0.4-0.6-1.2-0.9-1.9-0.9c-0.9,0-1.4,0.4-1.4,1.1
		s0.5,1,1.4,1.1l0.6,0.1c1.6,0.2,2.3,1,2.3,2.1c0,1.4-1,2.3-2.7,2.3C777.6,373.9,776.5,373.3,775.8,372.4z"/>
	<path class="st7" d="M783,370c0-2.4,1.3-3.9,3.3-3.9s3.2,1.5,3.2,3.6v0.5h-5.3v0.3c-0.1,1.2,0.8,2.1,1.9,2.2c0.1,0,0.2,0,0.2,0
		c0.9,0,1.6-0.5,2-1.3l0.8,0.6c-0.6,1.1-1.7,1.7-2.9,1.7C784.3,373.8,783,372.3,783,370z M784.2,369.3v0.1h4.1v-0.2
		c0.1-1.1-0.7-2.1-1.8-2.2c-0.1,0-0.1,0-0.2,0c-1.2,0-2.1,0.9-2.1,2.1C784.2,369.2,784.2,369.3,784.2,369.3L784.2,369.3z"/>
	<path class="st7" d="M790.7,372.4l0.8-0.7c0.5,0.7,1.3,1.1,2.2,1.1c1,0,1.5-0.4,1.5-1.2c0-0.6-0.3-1-1.3-1.2l-0.6-0.1
		c-1.4-0.2-2.4-0.8-2.4-2.1s1.1-2.2,2.6-2.2c1,0,2,0.4,2.6,1.2l-0.8,0.7c-0.4-0.6-1.2-0.9-1.9-0.9c-1,0-1.5,0.4-1.5,1.1
		s0.5,1,1.4,1.1l0.6,0.1c1.6,0.2,2.3,1,2.3,2.1c0,1.4-1,2.3-2.7,2.3C792.4,373.9,791.3,373.3,790.7,372.4z"/>
</g>
<g>
	<path class="st7" d="M840.5,363.7h3.3c2.5,0,4.1,1.7,4.1,5s-1.6,5-4.1,5h-3.3V363.7z M843.9,372.6c1.7,0,2.8-1.1,2.8-3.1v-1.6
		c0-2-1.2-3.1-2.8-3.1h-2.2v7.9H843.9z"/>
	<path class="st7" d="M849.5,370c0-2.4,1.3-3.9,3.3-3.9s3.2,1.5,3.2,3.6v0.5h-5.3v0.3c-0.1,1.2,0.8,2.1,1.9,2.2c0.1,0,0.2,0,0.2,0
		c0.9,0,1.6-0.5,2-1.3l0.8,0.6c-0.6,1.1-1.7,1.7-2.9,1.7C850.8,373.8,849.5,372.3,849.5,370z M850.7,369.3v0.1h4.1v-0.2
		c0.1-1.1-0.7-2.1-1.8-2.2c-0.1,0-0.1,0-0.2,0c-1.2,0-2.1,1-2.1,2.1C850.7,369.2,850.7,369.3,850.7,369.3L850.7,369.3z"/>
	<path class="st7" d="M863.2,373.7c-0.7,0-1.2-0.5-1.3-1.1c0,0,0-0.1,0-0.1h-0.1c-0.3,0.9-1.2,1.4-2.1,1.4c-1.2,0.2-2.3-0.7-2.5-1.8
		c0-0.1,0-0.3,0-0.4c0-1.4,1-2.2,3.2-2.2h1.5v-0.7c0-1-0.6-1.6-1.8-1.6c-0.8,0-1.5,0.4-1.9,1.1l-0.7-0.6c0.5-0.9,1.5-1.5,2.6-1.4
		c1.8,0,2.8,0.9,2.8,2.5v4.1h0.8v1L863.2,373.7z M861.9,371.5v-1.2h-1.5c-1.3,0-1.9,0.4-1.9,1.1v0.3c0,0.7,0.6,1.1,1.5,1.1
		C861.1,372.9,861.9,372.3,861.9,371.5z"/>
	<path class="st7" d="M867.2,373.7c-0.6,0.1-1.2-0.4-1.2-1c0-0.1,0-0.1,0-0.2v-5.2h-1.2v-1h0.7c0.5,0,0.7-0.2,0.7-0.7v-1.4h1v2h1.6
		v1h-1.6v5.4h1.5v1L867.2,373.7z"/>
	<path class="st7" d="M870.5,363.1h1.1v4.4h0.1c0.3-0.9,1.2-1.4,2.1-1.4c1.5,0,2.5,1,2.5,2.8v4.7h-1.2v-4.5c0-1.3-0.6-2-1.7-2
		c-0.9,0-1.8,0.5-1.8,1.4v5.1h-1.1V363.1z"/>
	<path class="st7" d="M878,372.4l0.8-0.7c0.5,0.7,1.3,1.1,2.2,1.1c1,0,1.5-0.4,1.5-1.2c0-0.6-0.3-1-1.3-1.2l-0.6-0.1
		c-1.4-0.2-2.4-0.8-2.4-2.1s1.1-2.2,2.6-2.2c1,0,2,0.4,2.6,1.2l-0.8,0.7c-0.5-0.6-1.2-0.9-1.9-0.9c-0.9,0-1.4,0.4-1.4,1.1
		s0.5,1,1.4,1.1l0.6,0.1c1.6,0.2,2.3,1,2.3,2.1c0,1.4-1,2.3-2.7,2.3C879.8,373.9,878.7,373.3,878,372.4z"/>
</g>
<rect x="462.4" y="197.5" transform="matrix(5.236017e-03 -1 1 5.236017e-03 366.389 764.4827)" class="str0" width="210.1" height="1.1"/>
<rect x="220.7" y="89.7" transform="matrix(0.9999 -1.343863e-02 1.343863e-02 0.9999 -2.3892 2.9891)" class="str0" width="1.1" height="179.2"/>
<line class="st8" x1="66.4" y1="315.4" x2="66.4" y2="376.1"/>
<line class="st8" x1="150.4" y1="315.4" x2="150.4" y2="376.1"/>
<line class="st8" x1="234.6" y1="315.4" x2="234.6" y2="376.1"/>
<line class="st8" x1="317.8" y1="315.4" x2="317.8" y2="376.1"/>
<line class="st8" x1="401.1" y1="315.4" x2="401.1" y2="376.1"/>
<line class="st8" x1="485.7" y1="315.4" x2="485.7" y2="376.1"/>
<line class="st8" x1="569.2" y1="315.4" x2="569.2" y2="376.1"/>
<line class="st8" x1="652.5" y1="315.4" x2="652.5" y2="376.1"/>
<line class="st8" x1="735.6" y1="315.4" x2="735.6" y2="376.1"/>
<line class="st8" x1="820.1" y1="315.4" x2="820.1" y2="376.1"/>
<line class="st8" x1="904" y1="315.4" x2="904" y2="376.1"/>
<line class="st8" x1="66.4" y1="314.9" x2="904" y2="314.9"/>
</svg>
