<svg xmlns="http://www.w3.org/2000/svg" viewBox="0 0 992.47 435.91"><defs><style>.cls-1,.cls-8{fill:#fff;}.cls-1,.cls-3{stroke:#a7a9ac;}.cls-1,.cls-13,.cls-3{stroke-miterlimit:10;}.cls-1,.cls-2,.cls-3{stroke-width:1.42px;}.cls-2,.cls-3,.cls-4{fill:none;}.cls-2,.cls-4{stroke:#c4c4c4;stroke-linejoin:round;}.cls-4{stroke-width:1.13px;}.cls-5{isolation:isolate;}.cls-6{fill:#606060;}.cls-7{fill:#222b3e;}.cls-9{fill:#acacac;}.cls-10{fill:#4c5874;}.cls-11{fill:#58595b;}.cls-12{fill:#789ac4;}.cls-13{fill:#404040;stroke:#000;stroke-width:0.5px;}</style></defs><g id="Layer_2" data-name="Layer 2"><g id="Layer_1-2" data-name="Layer 1"><rect id="Rectangle_41" data-name="Rectangle 41" class="cls-1" x="0.71" y="50.39" width="991.05" height="384.82"/><rect id="Rectangle_42" data-name="Rectangle 42" class="cls-2" x="1.05" y="50.39" width="990.71" height="384.82"/><path id="Path_376" data-name="Path 376" class="cls-3" d="M90.91,114.77H940.49m-849.58,49H940.49M90.91,213H940.49M90.91,262.05H940.49M90.91,311.1H940.49"/><line id="Line_13" data-name="Line 13" class="cls-4" x1="90.91" y1="360.18" x2="940.49" y2="360.18"/><g class="cls-5"><g class="cls-5"><path class="cls-6" d="M43.26,359.3c0-3.26,1.05-5.16,3.44-5.16s3.43,1.9,3.43,5.16-1,5.17-3.43,5.17S43.26,362.57,43.26,359.3Zm5.61.82v-1.63c0-1.94-.61-3.31-2.17-3.31s-2.18,1.37-2.18,3.31v1.63c0,1.93.62,3.3,2.18,3.3S48.87,362.05,48.87,360.12Z"/><path class="cls-6" d="M51.92,357c0-1.83.82-2.83,2.27-2.83s2.26,1,2.26,2.83-.82,2.83-2.26,2.83S51.92,358.8,51.92,357Zm3.5.43v-.86c0-1.09-.4-1.66-1.23-1.66s-1.24.57-1.24,1.66v.86c0,1.09.41,1.66,1.24,1.66S55.42,358.49,55.42,357.4Zm-1.81,6.9,6.93-10h1.1l-6.93,10Zm5.2-2.66c0-1.84.81-2.84,2.26-2.84s2.26,1,2.26,2.84-.81,2.83-2.26,2.83S58.81,363.47,58.81,361.64Zm3.49.43v-.86c0-1.09-.4-1.66-1.23-1.66s-1.23.57-1.23,1.66v.86c0,1.08.4,1.66,1.23,1.66S62.3,363.15,62.3,362.07Z"/></g></g><g class="cls-5"><g class="cls-5"><path class="cls-6" d="M49.53,306.28H45.15l-.28,3.81H45a2.24,2.24,0,0,1,2-1.1,2.86,2.86,0,0,1,3,3.09,3.12,3.12,0,0,1-3.36,3.3,3.54,3.54,0,0,1-3.12-1.7l.9-.69a2.34,2.34,0,0,0,2.22,1.32,1.88,1.88,0,0,0,2.09-2.07v-.15A1.88,1.88,0,0,0,46.63,310a2.16,2.16,0,0,0-1.79.84l-1-.14.36-5.5h5.35Z"/><path class="cls-6" d="M51.92,307.88c0-1.83.82-2.83,2.27-2.83s2.26,1,2.26,2.83-.82,2.84-2.26,2.84S51.92,309.72,51.92,307.88Zm3.5.43v-.86c0-1.08-.4-1.66-1.23-1.66s-1.24.58-1.24,1.66v.86c0,1.09.41,1.66,1.24,1.66S55.42,309.4,55.42,308.31Zm-1.81,6.9,6.93-10h1.1l-6.93,10Zm5.2-2.66c0-1.83.81-2.83,2.26-2.83s2.26,1,2.26,2.83-.81,2.83-2.26,2.83S58.81,314.38,58.81,312.55Zm3.49.43v-.86c0-1.09-.4-1.66-1.23-1.66s-1.23.57-1.23,1.66V313c0,1.09.4,1.66,1.23,1.66S62.3,314.07,62.3,313Z"/></g></g><g class="cls-5"><g class="cls-5"><path class="cls-6" d="M36.23,266.13v-1.06H39V257h-.1l-2.52,2.35-.7-.76,2.65-2.47h1.88v8.93H42.8v1.06Z"/><path class="cls-6" d="M44.42,261.13c0-3.26,1-5.17,3.43-5.17s3.44,1.91,3.44,5.17-1,5.17-3.44,5.17S44.42,264.4,44.42,261.13ZM50,262v-1.63c0-1.94-.62-3.31-2.18-3.31s-2.17,1.37-2.17,3.31V262c0,1.93.61,3.3,2.17,3.3S50,263.88,50,262Z"/><path class="cls-6" d="M53.08,258.8c0-1.83.82-2.84,2.26-2.84s2.26,1,2.26,2.84-.81,2.83-2.26,2.83S53.08,260.63,53.08,258.8Zm3.49.43v-.86c0-1.09-.4-1.66-1.23-1.66s-1.23.57-1.23,1.66v.86c0,1.09.4,1.66,1.23,1.66S56.57,260.32,56.57,259.23Zm-1.8,6.9,6.93-10h1.1l-6.93,10ZM60,263.46c0-1.83.82-2.83,2.27-2.83s2.26,1,2.26,2.83-.82,2.84-2.26,2.84S60,265.3,60,263.46Zm3.5.43V263c0-1.09-.4-1.67-1.23-1.67S61,262,61,263v.85c0,1.09.41,1.66,1.24,1.66S63.46,265,63.46,263.89Z"/></g></g><g class="cls-5"><g class="cls-5"><path class="cls-6" d="M36.23,217V216H39v-8h-.1l-2.52,2.34-.7-.75,2.65-2.48h1.88V216H42.8V217Z"/><path class="cls-6" d="M50.69,208.11H46.31L46,211.92h.1a2.23,2.23,0,0,1,2.05-1.11,2.87,2.87,0,0,1,3,3.1,3.13,3.13,0,0,1-3.37,3.3,3.54,3.54,0,0,1-3.12-1.7l.9-.69a2.35,2.35,0,0,0,2.22,1.32,1.88,1.88,0,0,0,2.09-2.08v-.14a1.88,1.88,0,0,0-2.09-2.08,2.19,2.19,0,0,0-1.79.85l-1-.14.36-5.5h5.35Z"/><path class="cls-6" d="M53.08,209.71c0-1.83.82-2.83,2.26-2.83s2.26,1,2.26,2.83-.81,2.84-2.26,2.84S53.08,211.54,53.08,209.71Zm3.49.43v-.86c0-1.09-.4-1.66-1.23-1.66s-1.23.57-1.23,1.66v.86c0,1.09.4,1.66,1.23,1.66S56.57,211.23,56.57,210.14Zm-1.8,6.9,6.93-10h1.1l-6.93,10ZM60,214.38c0-1.83.82-2.84,2.27-2.84s2.26,1,2.26,2.84-.82,2.83-2.26,2.83S60,216.21,60,214.38Zm3.5.43V214c0-1.09-.4-1.66-1.23-1.66S61,212.86,61,214v.86c0,1.09.41,1.66,1.24,1.66S63.46,215.9,63.46,214.81Z"/></g></g><g class="cls-5"><g class="cls-5"><path class="cls-6" d="M42.6,168H36.05v-1.23l3.26-3A4.3,4.3,0,0,0,41,160.9v-.17a1.7,1.7,0,0,0-1.85-1.86A2,2,0,0,0,37,160.55L36,160.14a3.16,3.16,0,0,1,3.21-2.35,2.79,2.79,0,0,1,3.06,2.91c0,1.54-.92,2.63-2.19,3.78l-2.69,2.41H42.6Z"/><path class="cls-6" d="M44.42,163c0-3.26,1-5.17,3.43-5.17s3.44,1.91,3.44,5.17-1,5.17-3.44,5.17S44.42,166.22,44.42,163Zm5.61.81v-1.63c0-1.93-.62-3.3-2.18-3.3s-2.17,1.37-2.17,3.3v1.63c0,1.94.61,3.31,2.17,3.31S50,165.71,50,163.77Z"/><path class="cls-6" d="M53.08,160.63c0-1.84.82-2.84,2.26-2.84s2.26,1,2.26,2.84-.81,2.83-2.26,2.83S53.08,162.46,53.08,160.63Zm3.49.43v-.86c0-1.09-.4-1.66-1.23-1.66s-1.23.57-1.23,1.66v.86c0,1.08.4,1.66,1.23,1.66S56.57,162.14,56.57,161.06ZM54.77,168l6.93-10h1.1l-6.93,10ZM60,165.29c0-1.83.82-2.83,2.27-2.83s2.26,1,2.26,2.83-.82,2.84-2.26,2.84S60,167.12,60,165.29Zm3.5.43v-.86c0-1.09-.4-1.66-1.23-1.66s-1.24.57-1.24,1.66v.86c0,1.09.41,1.66,1.24,1.66S63.46,166.81,63.46,165.72Z"/></g></g><g class="cls-5"><g class="cls-5"><path class="cls-6" d="M42.6,118.87H36.05v-1.23l3.26-3A4.3,4.3,0,0,0,41,111.82v-.17a1.7,1.7,0,0,0-1.85-1.86A2,2,0,0,0,37,111.48L36,111.06a3.16,3.16,0,0,1,3.21-2.35,2.79,2.79,0,0,1,3.06,2.91c0,1.54-.92,2.63-2.19,3.78l-2.69,2.42H42.6Z"/><path class="cls-6" d="M50.69,109.94H46.31L46,113.75h.1a2.24,2.24,0,0,1,2.05-1.1,2.86,2.86,0,0,1,3,3.09,3.13,3.13,0,0,1-3.37,3.31,3.54,3.54,0,0,1-3.12-1.71l.9-.68A2.36,2.36,0,0,0,47.78,118a1.88,1.88,0,0,0,2.09-2.07v-.15a1.88,1.88,0,0,0-2.09-2.07,2.22,2.22,0,0,0-1.79.84l-1-.14.36-5.5h5.35Z"/><path class="cls-6" d="M53.08,111.55c0-1.84.82-2.84,2.26-2.84s2.26,1,2.26,2.84-.81,2.83-2.26,2.83S53.08,113.38,53.08,111.55Zm3.49.43v-.86c0-1.09-.4-1.66-1.23-1.66s-1.23.57-1.23,1.66V112c0,1.08.4,1.66,1.23,1.66S56.57,113.06,56.57,112Zm-1.8,6.89,6.93-10h1.1l-6.93,10ZM60,116.21c0-1.83.82-2.83,2.27-2.83s2.26,1,2.26,2.83-.82,2.84-2.26,2.84S60,118,60,116.21Zm3.5.43v-.86c0-1.08-.4-1.66-1.23-1.66S61,114.7,61,115.78v.86c0,1.09.41,1.66,1.24,1.66S63.46,117.73,63.46,116.64Z"/></g></g><g id="_0-19" data-name=" 0-19" class="cls-5"><g class="cls-5"><path class="cls-6" d="M131.49,384c0-3.26,1-5.17,3.43-5.17s3.44,1.91,3.44,5.17-1.05,5.17-3.44,5.17S131.49,387.27,131.49,384Zm5.61.82v-1.64c0-1.93-.62-3.3-2.18-3.3s-2.17,1.37-2.17,3.3v1.64c0,1.93.61,3.3,2.17,3.3S137.1,386.76,137.1,384.83Z"/><path class="cls-6" d="M140.2,385.27V384h3.74v1.23Z"/><path class="cls-6" d="M146.19,389V388H149V379.9h-.1l-2.52,2.35-.7-.76,2.65-2.48h1.87V388h2.58V389Z"/><path class="cls-6" d="M157.58,389H156c2.13-1.56,3.32-2.86,3.86-5.18l-.07,0a2.61,2.61,0,0,1-2.41,1.44,2.85,2.85,0,0,1-2.94-3.08,3.14,3.14,0,0,1,3.32-3.31c2.07,0,3.35,1.46,3.35,3.84A7.9,7.9,0,0,1,157.58,389Zm2.32-6.89V382a2.09,2.09,0,1,0-4.18,0v.12a2.09,2.09,0,1,0,4.18,0Z"/></g></g><g id="_20-29" data-name=" 20-29" class="cls-5"><g class="cls-5"><path class="cls-6" d="M240.73,389h-6.55v-1.23l3.26-3a4.3,4.3,0,0,0,1.65-2.82v-.17a1.7,1.7,0,0,0-1.85-1.86,2,2,0,0,0-2.07,1.69l-1.08-.42a3.17,3.17,0,0,1,3.21-2.35,2.78,2.78,0,0,1,3.06,2.91c0,1.54-.91,2.63-2.19,3.78L235.48,388h5.25Z"/><path class="cls-6" d="M242.55,384c0-3.26,1-5.17,3.44-5.17s3.43,1.91,3.43,5.17-1,5.17-3.43,5.17S242.55,387.27,242.55,384Zm5.61.82v-1.64c0-1.93-.61-3.3-2.17-3.3s-2.18,1.37-2.18,3.3v1.64c0,1.93.62,3.3,2.18,3.3S248.16,386.76,248.16,384.83Z"/><path class="cls-6" d="M251.27,385.27V384H255v1.23Z"/><path class="cls-6" d="M263.62,389h-6.55v-1.23l3.26-3A4.3,4.3,0,0,0,262,382v-.17a1.7,1.7,0,0,0-1.85-1.86,2,2,0,0,0-2.08,1.69l-1.07-.42a3.16,3.16,0,0,1,3.21-2.35,2.79,2.79,0,0,1,3.06,2.91c0,1.54-.92,2.63-2.19,3.78L258.37,388h5.25Z"/><path class="cls-6" d="M268.65,389H267.1c2.13-1.56,3.32-2.86,3.86-5.18l-.07,0a2.59,2.59,0,0,1-2.4,1.44,2.85,2.85,0,0,1-2.95-3.08,3.14,3.14,0,0,1,3.32-3.31c2.08,0,3.35,1.46,3.35,3.84A7.89,7.89,0,0,1,268.65,389Zm2.31-6.89V382a2.09,2.09,0,1,0-4.17,0v.12a2.09,2.09,0,1,0,4.17,0Z"/></g></g><g id="_30-39" data-name=" 30-39" class="cls-5"><g class="cls-5"><path class="cls-6" d="M343,383.25c1.35,0,2-.7,2-1.66v-.1c0-1-.73-1.57-1.79-1.57a2.16,2.16,0,0,0-2.06,1.24l-.89-.69a3.3,3.3,0,0,1,3-1.63c1.68,0,3,.9,3,2.52a2.36,2.36,0,0,1-1.92,2.34v.05a2.48,2.48,0,0,1,2.11,2.52c0,1.72-1.36,2.91-3.4,2.91a3.68,3.68,0,0,1-3.23-1.71l.9-.68a2.5,2.5,0,0,0,2.32,1.31c1.4,0,2.15-.67,2.15-1.84v-.12c0-1.17-.75-1.84-2.15-1.84H342v-1.05Z"/><path class="cls-6" d="M348.76,384c0-3.26,1-5.17,3.43-5.17s3.44,1.91,3.44,5.17-1.05,5.17-3.44,5.17S348.76,387.27,348.76,384Zm5.61.82v-1.64c0-1.93-.62-3.3-2.18-3.3s-2.17,1.37-2.17,3.3v1.64c0,1.93.61,3.3,2.17,3.3S354.37,386.76,354.37,384.83Z"/><path class="cls-6" d="M357.47,385.27V384h3.74v1.23Z"/><path class="cls-6" d="M365.93,383.25c1.35,0,2-.7,2-1.66v-.1c0-1-.73-1.57-1.78-1.57a2.18,2.18,0,0,0-2.07,1.24l-.88-.69a3.3,3.3,0,0,1,3-1.63c1.69,0,3,.9,3,2.52a2.36,2.36,0,0,1-1.92,2.34v.05a2.49,2.49,0,0,1,2.1,2.52c0,1.72-1.36,2.91-3.39,2.91a3.66,3.66,0,0,1-3.23-1.71l.9-.68A2.49,2.49,0,0,0,366,388.1c1.4,0,2.14-.67,2.14-1.84v-.12c0-1.17-.74-1.84-2.14-1.84h-1.18v-1.05Z"/><path class="cls-6" d="M374.85,389H373.3c2.14-1.56,3.32-2.86,3.87-5.18l-.07,0a2.62,2.62,0,0,1-2.41,1.44,2.85,2.85,0,0,1-2.95-3.08,3.14,3.14,0,0,1,3.32-3.31c2.08,0,3.35,1.46,3.35,3.84A7.89,7.89,0,0,1,374.85,389Zm2.32-6.89V382a2.09,2.09,0,1,0-4.18,0v.12a2.09,2.09,0,1,0,4.18,0Z"/></g></g><g id="_40-49" data-name=" 40-49" class="cls-5"><g class="cls-5"><path class="cls-6" d="M450.88,389v-2h-4.82V386l4.18-7H452v7h1.45v1H452v2Zm-3.69-3h3.69V380h-.07Z"/><path class="cls-6" d="M455,384c0-3.26,1-5.17,3.43-5.17s3.44,1.91,3.44,5.17-1.05,5.17-3.44,5.17S455,387.27,455,384Zm5.61.82v-1.64c0-1.93-.62-3.3-2.18-3.3s-2.17,1.37-2.17,3.3v1.64c0,1.93.61,3.3,2.17,3.3S460.57,386.76,460.57,384.83Z"/><path class="cls-6" d="M463.68,385.27V384h3.73v1.23Z"/><path class="cls-6" d="M473.77,389v-2h-4.83V386l4.18-7h1.79v7h1.45v1h-1.45v2Zm-3.7-3h3.7V380h-.07Z"/><path class="cls-6" d="M481.05,389h-1.54c2.13-1.56,3.32-2.86,3.86-5.18l-.07,0a2.61,2.61,0,0,1-2.4,1.44,2.85,2.85,0,0,1-2.95-3.08,3.14,3.14,0,0,1,3.32-3.31c2.07,0,3.35,1.46,3.35,3.84A7.87,7.87,0,0,1,481.05,389Zm2.32-6.89V382a2.09,2.09,0,1,0-4.18,0v.12a2.09,2.09,0,1,0,4.18,0Z"/></g></g><g id="_50-59" data-name=" 50-59" class="cls-5"><g class="cls-5"><path class="cls-6" d="M558.83,380.07h-4.38l-.28,3.81h.1a2.24,2.24,0,0,1,2.05-1.1,2.86,2.86,0,0,1,3,3.09,3.13,3.13,0,0,1-3.36,3.31,3.54,3.54,0,0,1-3.12-1.71l.9-.68a2.36,2.36,0,0,0,2.22,1.31A1.88,1.88,0,0,0,558,386v-.15a1.88,1.88,0,0,0-2.09-2.07,2.19,2.19,0,0,0-1.79.84l-1-.14.36-5.5h5.35Z"/><path class="cls-6" d="M561.15,384c0-3.26,1.05-5.17,3.44-5.17S568,380.75,568,384s-1,5.17-3.43,5.17S561.15,387.27,561.15,384Zm5.61.82v-1.64c0-1.93-.61-3.3-2.17-3.3s-2.18,1.37-2.18,3.3v1.64c0,1.93.62,3.3,2.18,3.3S566.76,386.76,566.76,384.83Z"/><path class="cls-6" d="M569.87,385.27V384h3.74v1.23Z"/><path class="cls-6" d="M581.72,380.07h-4.38l-.28,3.81h.1a2.24,2.24,0,0,1,2-1.1,2.86,2.86,0,0,1,3,3.09,3.13,3.13,0,0,1-3.36,3.31,3.54,3.54,0,0,1-3.12-1.71l.9-.68a2.34,2.34,0,0,0,2.22,1.31,1.88,1.88,0,0,0,2.09-2.07v-.15a1.88,1.88,0,0,0-2.09-2.07,2.19,2.19,0,0,0-1.79.84l-1-.14.36-5.5h5.35Z"/><path class="cls-6" d="M587.25,389H585.7c2.13-1.56,3.32-2.86,3.87-5.18l-.08,0a2.59,2.59,0,0,1-2.4,1.44,2.85,2.85,0,0,1-3-3.08,3.14,3.14,0,0,1,3.32-3.31c2.08,0,3.35,1.46,3.35,3.84A7.89,7.89,0,0,1,587.25,389Zm2.32-6.89V382a2.09,2.09,0,1,0-4.18,0v.12a2.09,2.09,0,1,0,4.18,0Z"/></g></g><g id="_60-69" data-name=" 60-69" class="cls-5"><g class="cls-5"><path class="cls-6" d="M658.87,385.34a7.92,7.92,0,0,1,3.56-6.33H664c-2.13,1.56-3.32,2.87-3.87,5.19l.08,0a2.6,2.6,0,0,1,2.4-1.43,2.85,2.85,0,0,1,2.95,3.08,3.14,3.14,0,0,1-3.32,3.31C660.14,389.18,658.87,387.72,658.87,385.34Zm5.42.69v-.12a2.09,2.09,0,1,0-4.18,0V386a2.09,2.09,0,1,0,4.18,0Z"/><path class="cls-6" d="M667.36,384c0-3.26,1-5.17,3.43-5.17s3.44,1.91,3.44,5.17-1.05,5.17-3.44,5.17S667.36,387.27,667.36,384Zm5.61.82v-1.64c0-1.93-.62-3.3-2.18-3.3s-2.17,1.37-2.17,3.3v1.64c0,1.93.61,3.3,2.17,3.3S673,386.76,673,384.83Z"/><path class="cls-6" d="M676.07,385.27V384h3.74v1.23Z"/><path class="cls-6" d="M681.76,385.34a7.92,7.92,0,0,1,3.56-6.33h1.55c-2.14,1.56-3.32,2.87-3.87,5.19l.07,0a2.63,2.63,0,0,1,2.41-1.43,2.86,2.86,0,0,1,2.95,3.08,3.14,3.14,0,0,1-3.32,3.31C683,389.18,681.76,387.72,681.76,385.34Zm5.42.69v-.12a2.09,2.09,0,1,0-4.18,0V386a2.09,2.09,0,1,0,4.18,0Z"/><path class="cls-6" d="M693.45,389H691.9c2.14-1.56,3.33-2.86,3.87-5.18l-.07,0a2.61,2.61,0,0,1-2.41,1.44,2.86,2.86,0,0,1-2.95-3.08,3.14,3.14,0,0,1,3.32-3.31c2.08,0,3.35,1.46,3.35,3.84A7.89,7.89,0,0,1,693.45,389Zm2.32-6.89V382a2.09,2.09,0,1,0-4.18,0v.12a2.09,2.09,0,1,0,4.18,0Z"/></g></g><g id="_70-79" data-name=" 70-79" class="cls-5"><g class="cls-5"><path class="cls-6" d="M766.62,389l3.82-9h-4.26v1.87H765.1V379h6.56v1.06L767.91,389Z"/><path class="cls-6" d="M773.56,384c0-3.26,1.05-5.17,3.44-5.17s3.43,1.91,3.43,5.17-1,5.17-3.43,5.17S773.56,387.27,773.56,384Zm5.61.82v-1.64c0-1.93-.61-3.3-2.17-3.3s-2.18,1.37-2.18,3.3v1.64c0,1.93.62,3.3,2.18,3.3S779.17,386.76,779.17,384.83Z"/><path class="cls-6" d="M782.28,385.27V384H786v1.23Z"/><path class="cls-6" d="M789.51,389l3.82-9h-4.27v1.87H788V379h6.56v1.06L790.8,389Z"/><path class="cls-6" d="M799.66,389h-1.55c2.13-1.56,3.32-2.86,3.86-5.18l-.07,0a2.61,2.61,0,0,1-2.4,1.44,2.85,2.85,0,0,1-3-3.08,3.14,3.14,0,0,1,3.32-3.31c2.08,0,3.35,1.46,3.35,3.84A7.89,7.89,0,0,1,799.66,389Zm2.31-6.89V382a2.09,2.09,0,1,0-4.18,0v.12a2.09,2.09,0,1,0,4.18,0Z"/></g></g><g class="cls-5"><g class="cls-5"><path class="cls-6" d="M877.17,386.29a2.44,2.44,0,0,1,2-2.48v-.11a2.41,2.41,0,0,1-1.72-2.35c0-1.52,1.17-2.51,3.16-2.51s3.16,1,3.16,2.51a2.41,2.41,0,0,1-1.71,2.35v.11a2.45,2.45,0,0,1,2,2.48c0,1.64-1.19,2.89-3.47,2.89S877.17,387.93,877.17,386.29Zm5.65,0V386c0-1.13-.8-1.79-2.19-1.79s-2.19.66-2.19,1.79v.3c0,1.13.8,1.79,2.19,1.79S882.82,387.47,882.82,386.34Zm-.27-4.66v-.22c0-1-.67-1.57-1.92-1.57s-1.92.56-1.92,1.57v.22c0,1,.68,1.57,1.92,1.57S882.55,382.69,882.55,381.68Z"/><path class="cls-6" d="M885.78,384c0-3.26,1.05-5.17,3.44-5.17s3.43,1.91,3.43,5.17-1,5.17-3.43,5.17S885.78,387.27,885.78,384Zm5.62.82v-1.64c0-1.93-.62-3.3-2.18-3.3s-2.18,1.37-2.18,3.3v1.64c0,1.93.62,3.3,2.18,3.3S891.4,386.76,891.4,384.83Z"/><path class="cls-6" d="M897.26,388.12v-3h-2.79v-1h2.79v-3h1.09v3h2.79v1h-2.79v3Z"/></g></g><g id="Group_70" data-name="Group 70"><g id="Group_65" data-name="Group 65"><rect id="Rectangle_43" data-name="Rectangle 43" class="cls-7" x="0.71" width="194.02" height="33.66"/><g id="Up_to_May_20" data-name="Up to May 20" class="cls-5"><g class="cls-5"><path class="cls-8" d="M36.29,8.52v9.07c0,2.79.9,4.26,3.5,4.26s3.51-1.47,3.51-4.26V8.52h1.76v8.65c0,4.26-1.43,6.25-5.33,6.25s-5.21-2-5.21-6.25V8.52Z"/><path class="cls-8" d="M48.7,12.34h1.68V14.1h.08a3.17,3.17,0,0,1,3.17-2c2.71,0,4.41,2.2,4.41,5.66s-1.7,5.67-4.41,5.67a3.27,3.27,0,0,1-3.17-2h-.08v6H48.7Zm7.53,6.34V16.83a3,3,0,0,0-3.06-3.23c-1.53,0-2.79.88-2.79,2.08v4c0,1.4,1.26,2.2,2.79,2.2A3,3,0,0,0,56.23,18.68Z"/><path class="cls-8" d="M68.23,23.17a1.65,1.65,0,0,1-1.79-1.78V13.81H64.66V12.34h1c.72,0,1-.25,1-1v-2h1.51v3h2.37v1.47H68.12V21.7h2.21v1.47Z"/><path class="cls-8" d="M72.32,17.75c0-3.44,2-5.66,4.89-5.66s4.9,2.22,4.9,5.66-2,5.67-4.9,5.67S72.32,21.2,72.32,17.75Zm8,.78V17c0-2.29-1.28-3.4-3.09-3.4s-3.08,1.11-3.08,3.4v1.55c0,2.29,1.28,3.4,3.08,3.4S80.3,20.82,80.3,18.53Z"/><path class="cls-8" d="M90,8.52h2.35l4.2,7.89h.11l4.22-7.89h2.27V23.17h-1.73V10.83h-.1l-1.24,2.45-3.51,6.39-3.5-6.39-1.24-2.45h-.11V23.17H90Z"/><path class="cls-8" d="M114.76,23.17a1.75,1.75,0,0,1-1.87-1.76h-.1a3.06,3.06,0,0,1-3.13,2c-2.29,0-3.63-1.26-3.63-3.27S107.5,17,110.65,17h2.14V15.91c0-1.54-.84-2.37-2.56-2.37a3,3,0,0,0-2.75,1.61l-1-.94a4.11,4.11,0,0,1,3.84-2.12c2.6,0,4.16,1.36,4.16,3.65v6h1.24v1.47Zm-2-3.15V18.24h-2.23c-1.91,0-2.77.59-2.77,1.63v.45c0,1.07.84,1.68,2.14,1.68C111.59,22,112.79,21.13,112.79,20Z"/><path class="cls-8" d="M124.67,12.34h1.66l-4.85,13.35c-.48,1.3-.92,1.68-2.52,1.68h-.86V25.9h1.7l.82-2.31-4.05-11.25h1.68l2.6,7.37.51,1.76h.1l.59-1.76Z"/><path class="cls-8" d="M133.14,11.64v-.29a5.41,5.41,0,0,1,1.91-3.72h1.4a5.48,5.48,0,0,0-1.57,2.61,1,1,0,0,1,.82,1.11v.29a1.28,1.28,0,0,1-2.56,0Z"/><path class="cls-8" d="M148.57,23.17H139v-1.8L143.74,17c1.37-1.26,2.42-2.73,2.42-4.14v-.25a2.49,2.49,0,0,0-2.71-2.73,3,3,0,0,0-3,2.48l-1.57-.61a4.64,4.64,0,0,1,4.7-3.45c2.86,0,4.49,1.77,4.49,4.27,0,2.26-1.34,3.86-3.21,5.54l-3.95,3.55h7.71Z"/><path class="cls-8" d="M151.24,15.84c0-4.78,1.53-7.58,5-7.58s5,2.8,5,7.58-1.54,7.58-5,7.58S151.24,20.63,151.24,15.84Zm8.23,1.2V14.65c0-2.84-.9-4.85-3.19-4.85s-3.19,2-3.19,4.85V17c0,2.83.9,4.85,3.19,4.85S159.47,19.87,159.47,17Z"/></g></g></g><g id="Group_66" data-name="Group 66"><rect id="Rectangle_44" data-name="Rectangle 44" class="cls-9" x="399.02" width="194.02" height="33.66"/><g id="Sep_20_to_Nov_20" data-name="Sep 20 to Nov 20" class="cls-5"><g class="cls-5"><path class="cls-8" d="M410.08,20.86l1.3-1.09a4.69,4.69,0,0,0,3.95,2.1c2.1,0,3.23-1.09,3.23-2.77,0-1.39-.77-2.08-2.7-2.52l-1.2-.27c-2.67-.61-4.14-1.79-4.14-4,0-2.6,2-4,4.85-4a5.5,5.5,0,0,1,4.85,2.4l-1.32,1a4.14,4.14,0,0,0-3.61-1.8c-1.87,0-3,.82-3,2.39,0,1.39.91,2,2.76,2.44l1.19.27c2.86.65,4.1,1.91,4.1,4.09,0,2.69-1.89,4.41-5,4.41A6.07,6.07,0,0,1,410.08,20.86Z"/><path class="cls-8" d="M422.39,17.75c0-3.44,1.93-5.67,4.87-5.67s4.68,2.23,4.68,5.3v.79h-7.79v.51A3.06,3.06,0,0,0,427.36,22a3.12,3.12,0,0,0,3-1.87l1.2.87a4.54,4.54,0,0,1-4.28,2.47C424.32,23.42,422.39,21.2,422.39,17.75Zm1.76-1v.14h6v-.23a2.88,2.88,0,0,0-2.87-3.19A3.08,3.08,0,0,0,424.15,16.77Z"/><path class="cls-8" d="M434.71,12.34h1.68V14.1h.09a3.17,3.17,0,0,1,3.17-2c2.71,0,4.41,2.21,4.41,5.67s-1.7,5.67-4.41,5.67a3.27,3.27,0,0,1-3.17-2h-.09v6h-1.68Zm7.54,6.34V16.83a3,3,0,0,0-3.06-3.23c-1.54,0-2.8.88-2.8,2.07v4c0,1.4,1.26,2.2,2.8,2.2A3,3,0,0,0,442.25,18.68Z"/><path class="cls-8" d="M451.56,11.64v-.29a5.41,5.41,0,0,1,1.91-3.72h1.4a5.48,5.48,0,0,0-1.57,2.61,1,1,0,0,1,.82,1.11v.29a1.28,1.28,0,0,1-2.56,0Z"/><path class="cls-8" d="M467,23.17h-9.62v-1.8L462.16,17c1.36-1.26,2.41-2.73,2.41-4.14v-.25a2.48,2.48,0,0,0-2.7-2.73,3,3,0,0,0-3.05,2.48l-1.57-.61A4.62,4.62,0,0,1,462,8.26c2.85,0,4.49,1.77,4.49,4.27,0,2.26-1.34,3.86-3.21,5.54l-4,3.55H467Z"/><path class="cls-8" d="M469.66,15.84c0-4.78,1.53-7.58,5-7.58s5,2.8,5,7.58-1.54,7.58-5,7.58S469.66,20.63,469.66,15.84Zm8.23,1.2V14.65c0-2.84-.91-4.85-3.19-4.85s-3.2,2-3.2,4.85V17c0,2.83.91,4.85,3.2,4.85S477.89,19.87,477.89,17Z"/><path class="cls-8" d="M490.13,23.17a1.65,1.65,0,0,1-1.78-1.78V13.81h-1.79V12.34h1c.71,0,.95-.26.95-1v-2H490v3h2.37v1.47H490V21.7h2.2v1.47Z"/><path class="cls-8" d="M494.23,17.75c0-3.44,2-5.67,4.89-5.67S504,14.31,504,17.75s-2,5.67-4.89,5.67S494.23,21.2,494.23,17.75Zm8,.78V17c0-2.29-1.29-3.4-3.09-3.4S496,14.69,496,17v1.55c0,2.29,1.28,3.4,3.09,3.4S502.21,20.82,502.21,18.53Z"/><path class="cls-8" d="M515.46,14.23,513.69,11h-.06v12.2h-1.72V8.52h2l5.36,8.94,1.76,3.25h.07V8.52h1.72V23.17h-2Z"/><path class="cls-8" d="M525.79,17.75c0-3.44,2-5.67,4.89-5.67s4.89,2.23,4.89,5.67-2,5.67-4.89,5.67S525.79,21.2,525.79,17.75Zm8,.78V17c0-2.29-1.28-3.4-3.09-3.4s-3.08,1.11-3.08,3.4v1.55c0,2.29,1.28,3.4,3.08,3.4S533.77,20.82,533.77,18.53Z"/><path class="cls-8" d="M540.57,23.17l-3.8-10.83h1.68l1.89,5.37,1.18,3.7h.1l1.18-3.7,1.93-5.37h1.62l-3.82,10.83Z"/><path class="cls-8" d="M553.17,11.64v-.29a5.45,5.45,0,0,1,1.91-3.72h1.41a5.48,5.48,0,0,0-1.57,2.61,1,1,0,0,1,.81,1.11v.29a1.28,1.28,0,0,1-2.56,0Z"/><path class="cls-8" d="M568.61,23.17H559v-1.8L563.78,17c1.36-1.26,2.41-2.73,2.41-4.14v-.25a2.49,2.49,0,0,0-2.71-2.73,3,3,0,0,0-3,2.48l-1.58-.61a4.64,4.64,0,0,1,4.71-3.45c2.85,0,4.49,1.77,4.49,4.27,0,2.26-1.34,3.86-3.21,5.54l-4,3.55h7.71Z"/><path class="cls-8" d="M571.28,15.84c0-4.78,1.53-7.58,5-7.58s5,2.8,5,7.58-1.53,7.58-5,7.58S571.28,20.63,571.28,15.84Zm8.23,1.2V14.65c0-2.84-.91-4.85-3.2-4.85s-3.19,2-3.19,4.85V17c0,2.83.91,4.85,3.19,4.85S579.51,19.87,579.51,17Z"/></g></g></g><g id="Group_67" data-name="Group 67"><rect id="Rectangle_45" data-name="Rectangle 45" class="cls-10" x="597.95" width="194.02" height="33.66"/><g id="Dec_20_to_Feb_21" data-name="Dec 20 to Feb 21" class="cls-5"><g class="cls-5"><path class="cls-8" d="M610.69,8.52h4.91c3.66,0,6,2.43,6,7.32s-2.35,7.33-6,7.33h-4.91Zm4.91,13.1c2.42,0,4.12-1.68,4.12-4.58V14.65c0-2.9-1.7-4.58-4.12-4.58h-3.15V21.62Z"/><path class="cls-8" d="M623.82,17.75c0-3.44,1.93-5.67,4.87-5.67s4.68,2.23,4.68,5.3v.79h-7.79v.51A3.06,3.06,0,0,0,628.79,22a3.12,3.12,0,0,0,3-1.87L633,21a4.54,4.54,0,0,1-4.28,2.47C625.75,23.42,623.82,21.2,623.82,17.75Zm1.76-1v.14h6v-.23a2.88,2.88,0,0,0-2.87-3.19A3.08,3.08,0,0,0,625.58,16.77Z"/><path class="cls-8" d="M635.34,17.75c0-3.46,1.79-5.67,4.83-5.67a4.06,4.06,0,0,1,4.06,2.55l-1.41.71a2.61,2.61,0,0,0-2.65-1.76c-2,0-3,1.36-3,3.25v1.85c0,1.89,1,3.25,3,3.25A3,3,0,0,0,643.11,20l1.22.82a4.26,4.26,0,0,1-4.16,2.56C637.13,23.42,635.34,21.22,635.34,17.75Z"/><path class="cls-8" d="M651.37,11.64v-.29a5.41,5.41,0,0,1,1.91-3.72h1.4a5.48,5.48,0,0,0-1.57,2.61,1,1,0,0,1,.82,1.11v.29a1.28,1.28,0,0,1-2.56,0Z"/><path class="cls-8" d="M666.8,23.17h-9.62v-1.8L662,17c1.37-1.26,2.42-2.73,2.42-4.14v-.25a2.49,2.49,0,0,0-2.71-2.73,3,3,0,0,0-3,2.48l-1.57-.61a4.63,4.63,0,0,1,4.7-3.45c2.86,0,4.49,1.77,4.49,4.27,0,2.26-1.34,3.86-3.21,5.54l-3.95,3.55h7.71Z"/><path class="cls-8" d="M669.47,15.84c0-4.78,1.53-7.58,5-7.58s5,2.8,5,7.58-1.54,7.58-5,7.58S669.47,20.63,669.47,15.84ZM677.7,17V14.65c0-2.84-.9-4.85-3.19-4.85s-3.19,2-3.19,4.85V17c0,2.83.9,4.85,3.19,4.85S677.7,19.87,677.7,17Z"/><path class="cls-8" d="M689.94,23.17a1.65,1.65,0,0,1-1.78-1.78V13.81h-1.79V12.34h1c.72,0,1-.26,1-1v-2h1.51v3h2.37v1.47h-2.37V21.7H692v1.47Z"/><path class="cls-8" d="M694,17.75c0-3.44,2-5.67,4.89-5.67s4.89,2.23,4.89,5.67-2,5.67-4.89,5.67S694,21.2,694,17.75Zm8,.78V17c0-2.29-1.28-3.4-3.09-3.4s-3.09,1.11-3.09,3.4v1.55c0,2.29,1.28,3.4,3.09,3.4S702,20.82,702,18.53Z"/><path class="cls-8" d="M711.72,23.17V8.52h8.73v1.55h-7V15h6.37v1.56h-6.37v6.63Z"/><path class="cls-8" d="M722,17.75c0-3.44,1.93-5.67,4.87-5.67s4.68,2.23,4.68,5.3v.79h-7.79v.51A3.06,3.06,0,0,0,726.94,22a3.15,3.15,0,0,0,3-1.87l1.19.87a4.53,4.53,0,0,1-4.28,2.47C723.9,23.42,722,21.2,722,17.75Zm1.76-1v.14h6v-.23a2.88,2.88,0,0,0-2.88-3.19A3.08,3.08,0,0,0,723.73,16.77Z"/><path class="cls-8" d="M734.29,7.63H736V14.1h.09a3.18,3.18,0,0,1,3.17-2c2.71,0,4.41,2.21,4.41,5.67s-1.7,5.67-4.41,5.67a3.27,3.27,0,0,1-3.17-2H736v1.76h-1.68Zm7.54,11.05V16.83a3,3,0,0,0-3.06-3.23c-1.54,0-2.8.88-2.8,2.07v4c0,1.4,1.26,2.2,2.8,2.2A3,3,0,0,0,741.83,18.68Z"/><path class="cls-8" d="M751.14,11.64v-.29a5.41,5.41,0,0,1,1.91-3.72h1.4a5.48,5.48,0,0,0-1.57,2.61,1,1,0,0,1,.82,1.11v.29a1.28,1.28,0,0,1-2.56,0Z"/><path class="cls-8" d="M766.57,23.17H757v-1.8L761.74,17c1.37-1.26,2.41-2.73,2.41-4.14v-.25a2.48,2.48,0,0,0-2.7-2.73,3,3,0,0,0-3.05,2.48l-1.57-.61a4.63,4.63,0,0,1,4.7-3.45c2.86,0,4.49,1.77,4.49,4.27,0,2.26-1.34,3.86-3.21,5.54l-3.95,3.55h7.71Z"/><path class="cls-8" d="M769.83,23.17V21.62h4.09V9.82h-.15l-3.69,3.44-1-1.11,3.88-3.63h2.75v13.1h3.78v1.55Z"/></g></g></g><g id="Group_68" data-name="Group 68"><rect id="Rectangle_46" data-name="Rectangle 46" class="cls-11" x="797.74" width="194.02" height="33.66"/><g id="Mar_21_to_Apr_21" data-name="Mar 21 to Apr 21" class="cls-5"><g class="cls-5"><path class="cls-8" d="M811.63,8.52H814l4.2,7.89h.11l4.22-7.89h2.27V23.17h-1.73V10.83H823l-1.24,2.45-3.51,6.39-3.5-6.39-1.24-2.45h-.11V23.17h-1.72Z"/><path class="cls-8" d="M836.39,23.17a1.75,1.75,0,0,1-1.87-1.76h-.11a3,3,0,0,1-3.12,2c-2.29,0-3.64-1.26-3.64-3.27S829.12,17,832.27,17h2.14V15.91c0-1.54-.84-2.38-2.56-2.38a3,3,0,0,0-2.75,1.62l-1-.94a4.09,4.09,0,0,1,3.84-2.13c2.6,0,4.15,1.37,4.15,3.66v6h1.24v1.47Zm-2-3.15V18.24h-2.22c-1.91,0-2.77.59-2.77,1.63v.45c0,1.07.84,1.68,2.14,1.68C833.22,22,834.41,21.13,834.41,20Z"/><path class="cls-8" d="M839.73,23.17V12.34h1.68v2h.1a3.12,3.12,0,0,1,3.13-2h.65V14h-1c-1.81,0-2.9.77-2.9,1.8v7.35Z"/><path class="cls-8" d="M852.1,11.64v-.29A5.41,5.41,0,0,1,854,7.63h1.41a5.5,5.5,0,0,0-1.58,2.61,1,1,0,0,1,.82,1.11v.29a1.28,1.28,0,0,1-2.56,0Z"/><path class="cls-8" d="M867.53,23.17h-9.62v-1.8L862.7,17c1.37-1.26,2.42-2.73,2.42-4.14v-.25a2.49,2.49,0,0,0-2.71-2.73,3,3,0,0,0-3,2.48l-1.57-.61a4.64,4.64,0,0,1,4.7-3.45c2.86,0,4.49,1.77,4.49,4.27,0,2.26-1.34,3.86-3.21,5.54l-3.95,3.55h7.71Z"/><path class="cls-8" d="M870.79,23.17V21.62h4.09V9.82h-.15L871,13.26l-1-1.11,3.89-3.63h2.75v13.1h3.77v1.55Z"/><path class="cls-8" d="M890.67,23.17a1.65,1.65,0,0,1-1.78-1.78V13.81H887.1V12.34h1c.72,0,.95-.26.95-1v-2h1.51v3h2.37v1.47h-2.37V21.7h2.2v1.47Z"/><path class="cls-8" d="M894.77,17.75c0-3.44,2-5.67,4.89-5.67s4.89,2.23,4.89,5.67-2,5.67-4.89,5.67S894.77,21.2,894.77,17.75Zm8,.78V17c0-2.29-1.28-3.4-3.09-3.4s-3.09,1.11-3.09,3.4v1.55c0,2.29,1.29,3.4,3.09,3.4S902.75,20.82,902.75,18.53Z"/><path class="cls-8" d="M921.63,23.17l-1.47-4.32h-5.92l-1.47,4.32H911L916.1,8.52h2.25l5.12,14.65Zm-4.39-13h-.11l-2.47,7.14h5.06Z"/><path class="cls-8" d="M925.74,12.34h1.68V14.1h.09a3.17,3.17,0,0,1,3.17-2c2.71,0,4.41,2.21,4.41,5.67s-1.7,5.67-4.41,5.67a3.27,3.27,0,0,1-3.17-2h-.09v6h-1.68Zm7.54,6.34V16.83a3,3,0,0,0-3.06-3.23c-1.54,0-2.8.88-2.8,2.07v4c0,1.4,1.26,2.2,2.8,2.2A3,3,0,0,0,933.28,18.68Z"/><path class="cls-8" d="M937.92,23.17V12.34h1.68v2h.11a3.11,3.11,0,0,1,3.13-2h.65V14h-1c-1.81,0-2.9.77-2.9,1.8v7.35Z"/><path class="cls-8" d="M950.29,11.64v-.29a5.45,5.45,0,0,1,1.91-3.72h1.41A5.58,5.58,0,0,0,952,10.24a1,1,0,0,1,.82,1.11v.29a1.28,1.28,0,0,1-2.56,0Z"/><path class="cls-8" d="M965.73,23.17h-9.62v-1.8L960.9,17c1.36-1.26,2.41-2.73,2.41-4.14v-.25a2.49,2.49,0,0,0-2.71-2.73,3,3,0,0,0-3,2.48L956,11.71a4.64,4.64,0,0,1,4.71-3.45c2.85,0,4.49,1.77,4.49,4.27,0,2.26-1.34,3.86-3.21,5.54l-4,3.55h7.71Z"/><path class="cls-8" d="M969,23.17V21.62h4.1V9.82h-.15l-3.7,3.44-1-1.11,3.89-3.63h2.75v13.1h3.78v1.55Z"/></g></g></g><g id="Group_69" data-name="Group 69"><rect id="Rectangle_47" data-name="Rectangle 47" class="cls-12" x="200.4" width="194.02" height="33.66"/><g id="Jun_20_to_Aug_20" data-name="Jun 20 to Aug 20" class="cls-5"><g class="cls-5"><path class="cls-8" d="M220.34,8.52V19.37a4.18,4.18,0,0,1-8.27.71l1.6-.37a2.41,2.41,0,0,0,2.52,2.14c1.51,0,2.39-.93,2.39-2.79v-9h-5V8.52Z"/><path class="cls-8" d="M230.66,21.41h-.09a3,3,0,0,1-3,2c-2.23,0-3.66-1.51-3.66-4.13V12.34h1.68V19c0,1.93.86,2.92,2.48,2.92,1.32,0,2.63-.65,2.63-2.08V12.34h1.68V23.17h-1.68Z"/><path class="cls-8" d="M235.91,23.17V12.34h1.68V14.1h.08a3.08,3.08,0,0,1,3.07-2c2.22,0,3.63,1.52,3.63,4.14v7h-1.68V16.51c0-1.93-.84-2.91-2.46-2.91-1.34,0-2.64.67-2.64,2.05v7.52Z"/><path class="cls-8" d="M252.5,11.64v-.29a5.41,5.41,0,0,1,1.91-3.72h1.4a5.48,5.48,0,0,0-1.57,2.61,1,1,0,0,1,.82,1.11v.29a1.28,1.28,0,0,1-2.56,0Z"/><path class="cls-8" d="M267.93,23.17h-9.62v-1.8L263.1,17c1.37-1.26,2.42-2.73,2.42-4.14v-.25a2.49,2.49,0,0,0-2.71-2.73,3,3,0,0,0-3.05,2.48l-1.57-.61a4.63,4.63,0,0,1,4.7-3.45c2.86,0,4.49,1.77,4.49,4.27,0,2.26-1.34,3.86-3.21,5.54l-3.95,3.55h7.71Z"/><path class="cls-8" d="M270.6,15.84c0-4.78,1.53-7.58,5-7.58s5,2.8,5,7.58-1.54,7.58-5,7.58S270.6,20.63,270.6,15.84Zm8.23,1.2V14.65c0-2.84-.9-4.85-3.19-4.85s-3.19,2-3.19,4.85V17c0,2.83.9,4.85,3.19,4.85S278.83,19.87,278.83,17Z"/><path class="cls-8" d="M291.07,23.17a1.65,1.65,0,0,1-1.78-1.78V13.81H287.5V12.34h1c.71,0,.95-.26.95-1v-2H291v3h2.37v1.47H291V21.7h2.2v1.47Z"/><path class="cls-8" d="M295.17,17.75c0-3.44,2-5.67,4.89-5.67S305,14.31,305,17.75s-2,5.67-4.89,5.67S295.17,21.2,295.17,17.75Zm8,.78V17c0-2.29-1.28-3.4-3.09-3.4S297,14.69,297,17v1.55c0,2.29,1.28,3.4,3.09,3.4S303.15,20.82,303.15,18.53Z"/><path class="cls-8" d="M322,23.17l-1.47-4.32h-5.93l-1.47,4.32h-1.78L316.5,8.52h2.25l5.12,14.65Zm-4.39-13h-.11l-2.48,7.14h5.06Z"/><path class="cls-8" d="M332.82,21.41h-.08a3,3,0,0,1-3.05,2c-2.22,0-3.65-1.51-3.65-4.13V12.34h1.68V19c0,1.93.86,2.92,2.47,2.92,1.33,0,2.63-.65,2.63-2.08V12.34h1.68V23.17h-1.68Z"/><path class="cls-8" d="M342,27.62c-3.38,0-4.76-1-4.76-2.66a2,2,0,0,1,1.72-2.1v-.24a1.56,1.56,0,0,1-1-1.51c0-1.09.78-1.61,1.87-1.89v-.08a3.52,3.52,0,0,1-2-3.32c0-2.2,1.61-3.74,4.07-3.74a4.92,4.92,0,0,1,2.06.42v-.18c0-.84.35-1.45,1.26-1.45h1.61v1.47h-2V13A3.62,3.62,0,0,1,346,15.82c0,2.21-1.61,3.74-4.09,3.74a5,5,0,0,1-1.05-.11c-.71.19-1.43.55-1.43,1.22s.68.82,1.66.82h2.31c2.69,0,3.84,1.09,3.84,2.88C347.2,26.59,345.44,27.62,342,27.62Zm1.43-4.55h-3.61a1.51,1.51,0,0,0-1,1.47c0,.94.65,1.72,2.35,1.72h1.56c1.87,0,3-.59,3-1.77C345.63,23.63,345.06,23.07,343.38,23.07Zm.82-6.95v-.59c0-1.43-.9-2.1-2.33-2.1s-2.33.67-2.33,2.1v.59c0,1.42.9,2.1,2.33,2.1S344.2,17.54,344.2,16.12Z"/><path class="cls-8" d="M353.82,11.64v-.29a5.41,5.41,0,0,1,1.91-3.72h1.41a5.5,5.5,0,0,0-1.58,2.61,1,1,0,0,1,.82,1.11v.29a1.28,1.28,0,0,1-2.56,0Z"/><path class="cls-8" d="M369.25,23.17h-9.61v-1.8L364.42,17c1.37-1.26,2.42-2.73,2.42-4.14v-.25a2.49,2.49,0,0,0-2.71-2.73,3,3,0,0,0-3,2.48l-1.58-.61a4.64,4.64,0,0,1,4.7-3.45c2.86,0,4.5,1.77,4.5,4.27,0,2.26-1.35,3.86-3.21,5.54l-3.95,3.55h7.7Z"/><path class="cls-8" d="M371.92,15.84c0-4.78,1.53-7.58,5-7.58s5,2.8,5,7.58-1.53,7.58-5,7.58S371.92,20.63,371.92,15.84Zm8.23,1.2V14.65c0-2.84-.9-4.85-3.19-4.85s-3.19,2-3.19,4.85V17c0,2.83.9,4.85,3.19,4.85S380.15,19.87,380.15,17Z"/></g></g></g></g><g id="Group_193" data-name="Group 193"><g id="Group_192" data-name="Group 192"><g id="Group_184" data-name="Group 184"><rect id="Rectangle_396" data-name="Rectangle 396" class="cls-11" x="164.9" y="222.69" width="15.29" height="137.36"/><rect id="Rectangle_397" data-name="Rectangle 397" class="cls-10" x="147.92" y="232.5" width="15.29" height="127.54"/><rect id="Rectangle_398" data-name="Rectangle 398" class="cls-9" x="130.93" y="242.31" width="15.29" height="117.73"/><rect id="Rectangle_399" data-name="Rectangle 399" class="cls-12" x="113.95" y="291.37" width="15.29" height="68.68"/><rect id="Rectangle_400" data-name="Rectangle 400" class="cls-7" x="96.97" y="320.8" width="15.29" height="39.24"/></g><g id="Group_185" data-name="Group 185"><rect id="Rectangle_401" data-name="Rectangle 401" class="cls-11" x="271.05" y="134.39" width="15.29" height="225.66"/><rect id="Rectangle_402" data-name="Rectangle 402" class="cls-10" x="254.07" y="183.45" width="15.29" height="176.6"/><rect id="Rectangle_403" data-name="Rectangle 403" class="cls-9" x="237.08" y="154.01" width="15.29" height="206.03"/><rect id="Rectangle_404" data-name="Rectangle 404" class="cls-12" x="220.1" y="203.07" width="15.29" height="156.98"/><rect id="Rectangle_405" data-name="Rectangle 405" class="cls-7" x="203.12" y="271.75" width="15.29" height="88.3"/></g><g id="Group_186" data-name="Group 186"><rect id="Rectangle_406" data-name="Rectangle 406" class="cls-11" x="377.2" y="154.01" width="15.29" height="206.03"/><rect id="Rectangle_407" data-name="Rectangle 407" class="cls-10" x="360.22" y="183.45" width="15.29" height="176.6"/><rect id="Rectangle_408" data-name="Rectangle 408" class="cls-9" x="343.23" y="173.64" width="15.29" height="186.41"/><rect id="Rectangle_409" data-name="Rectangle 409" class="cls-12" x="326.25" y="212.88" width="15.29" height="147.17"/><rect id="Rectangle_410" data-name="Rectangle 410" class="cls-7" x="309.27" y="252.13" width="15.29" height="107.92"/></g><g id="Group_187" data-name="Group 187"><rect id="Rectangle_411" data-name="Rectangle 411" class="cls-11" x="483.35" y="203.07" width="15.29" height="156.98"/><rect id="Rectangle_412" data-name="Rectangle 412" class="cls-10" x="466.37" y="203.07" width="15.29" height="156.98"/><rect id="Rectangle_413" data-name="Rectangle 413" class="cls-9" x="449.38" y="203.07" width="15.29" height="156.98"/><rect id="Rectangle_414" data-name="Rectangle 414" class="cls-12" x="432.4" y="203.07" width="15.29" height="156.98"/><rect id="Rectangle_415" data-name="Rectangle 415" class="cls-7" x="415.42" y="222.69" width="15.29" height="137.36"/></g><g id="Group_188" data-name="Group 188"><rect id="Rectangle_416" data-name="Rectangle 416" class="cls-11" x="589.5" y="232.5" width="15.29" height="127.54"/><rect id="Rectangle_417" data-name="Rectangle 417" class="cls-10" x="572.52" y="212.88" width="15.29" height="147.17"/><rect id="Rectangle_418" data-name="Rectangle 418" class="cls-9" x="555.53" y="212.88" width="15.29" height="147.17"/><rect id="Rectangle_419" data-name="Rectangle 419" class="cls-12" x="538.55" y="193.26" width="15.29" height="166.79"/><rect id="Rectangle_420" data-name="Rectangle 420" class="cls-7" x="521.56" y="193.26" width="15.29" height="166.79"/></g><g id="Group_189" data-name="Group 189"><rect id="Rectangle_421" data-name="Rectangle 421" class="cls-11" x="695.65" y="281.56" width="15.29" height="78.49"/><rect id="Rectangle_422" data-name="Rectangle 422" class="cls-10" x="678.67" y="261.94" width="15.29" height="98.11"/><rect id="Rectangle_423" data-name="Rectangle 423" class="cls-9" x="661.68" y="271.75" width="15.29" height="88.3"/><rect id="Rectangle_424" data-name="Rectangle 424" class="cls-12" x="644.7" y="242.31" width="15.29" height="117.73"/><rect id="Rectangle_425" data-name="Rectangle 425" class="cls-7" x="627.71" y="232.5" width="15.29" height="127.54"/></g><g id="Group_190" data-name="Group 190"><rect id="Rectangle_426" data-name="Rectangle 426" class="cls-11" x="801.8" y="330.61" width="15.29" height="29.43"/><rect id="Rectangle_427" data-name="Rectangle 427" class="cls-13" x="784.82" y="310.99" width="15.29" height="49.06"/><rect id="Rectangle_428" data-name="Rectangle 428" class="cls-9" x="767.83" y="320.8" width="15.29" height="39.24"/><rect id="Rectangle_429" data-name="Rectangle 429" class="cls-12" x="750.85" y="281.56" width="15.29" height="78.49"/><rect id="Rectangle_430" data-name="Rectangle 430" class="cls-7" x="733.86" y="242.31" width="15.29" height="117.73"/></g><g id="Group_191" data-name="Group 191"><rect id="Rectangle_431" data-name="Rectangle 431" class="cls-11" x="907.95" y="340.43" width="15.29" height="19.62"/><rect id="Rectangle_432" data-name="Rectangle 432" class="cls-10" x="890.97" y="310.99" width="15.29" height="49.06"/><rect id="Rectangle_433" data-name="Rectangle 433" class="cls-9" x="873.98" y="320.8" width="15.29" height="39.24"/><rect id="Rectangle_434" data-name="Rectangle 434" class="cls-12" x="857" y="261.94" width="15.29" height="98.11"/><rect id="Rectangle_435" data-name="Rectangle 435" class="cls-7" x="840.01" y="153.45" width="15.29" height="206.6"/></g></g></g></g></g></svg>