<svg xmlns="http://www.w3.org/2000/svg" width="100%" height="100%" style="background: white" viewBox="0 0 971.121 369.51">
  <g id="Group_730" data-name="Group 730" transform="translate(-61 -4065)">
    <rect id="Rectangle_412" data-name="Rectangle 412" width="971.121" height="369.51" transform="translate(61 4065)" fill="#fff"/>
    <g id="Group_510" data-name="Group 510" transform="translate(-0.316 -3.747)">
      <path id="Path_658" data-name="Path 658" d="M171.6,4356.992h839.6m-839.6-31.381h839.6m-839.6-31.6h839.6M171.6,4262.63h839.6m-839.6-31.6h839.6m-839.6-31.381h839.6m-839.6-31.381h839.6m-839.6-31.6h839.6m-839.6-31.381h839.6" fill="none" stroke="#a7a9ac" stroke-miterlimit="10" stroke-width="1.417"/>
      <line id="Line_57" data-name="Line 57" x2="839.601" transform="translate(171.604 4388.592)" fill="none" stroke="#a7a9ac" stroke-miterlimit="10" stroke-width="1.417"/>
      <text id="_0" data-name="0" transform="translate(147.994 4393.114)" fill="#606060" font-size="14.314" font-family="IBMPlexSans, IBM Plex Sans"><tspan x="0" y="0">0</tspan></text>
      <text id="_2.000.000" data-name="2.000.000" transform="translate(89.661 4361.64)" fill="#606060" font-size="14.314" font-family="IBMPlexSans, IBM Plex Sans"><tspan x="0" y="0">2.000.000</tspan></text>
      <text id="_4.000.000" data-name="4.000.000" transform="translate(89.661 4330.181)" fill="#606060" font-size="14.314" font-family="IBMPlexSans, IBM Plex Sans"><tspan x="0" y="0">4.000.000</tspan></text>
      <text id="_6.000.000" data-name="6.000.000" transform="translate(89.661 4298.707)" fill="#606060" font-size="14.314" font-family="IBMPlexSans, IBM Plex Sans"><tspan x="0" y="0">6.000.000</tspan></text>
      <text id="_8.000.000" data-name="8.000.000" transform="translate(89.661 4267.218)" fill="#606060" font-size="14.314" font-family="IBMPlexSans, IBM Plex Sans"><tspan x="0" y="0">8.000.000</tspan></text>
      <text id="_10.000.000" data-name="10.000.000" transform="translate(81.316 4235.759)" fill="#606060" font-size="14.314" font-family="IBMPlexSans, IBM Plex Sans"><tspan x="0" y="0">10.000.000</tspan></text>
      <text id="_12.000.000" data-name="12.000.000" transform="translate(81.316 4204.299)" fill="#606060" font-size="14.314" font-family="IBMPlexSans, IBM Plex Sans"><tspan x="0" y="0">12.000.000</tspan></text>
      <text id="_14.000.000" data-name="14.000.000" transform="translate(81.316 4172.825)" fill="#606060" font-size="14.314" font-family="IBMPlexSans, IBM Plex Sans"><tspan x="0" y="0">14.000.000</tspan></text>
      <text id="_16.000.000" data-name="16.000.000" transform="translate(81.316 4141.337)" fill="#606060" font-size="14.314" font-family="IBMPlexSans, IBM Plex Sans"><tspan x="0" y="0">16.000.000</tspan></text>
      <text id="_18.000.000" data-name="18.000.000" transform="translate(81.316 4109.877)" fill="#606060" font-size="14.314" font-family="IBMPlexSans, IBM Plex Sans"><tspan x="0" y="0">18.000.000</tspan></text>
      <text id="Jan" transform="translate(198.869 4415.858)" fill="#606060" font-size="14.314" font-family="IBMPlexSans, IBM Plex Sans"><tspan x="0" y="0">Jan</tspan></text>
      <text id="Feb" transform="translate(273.876 4415.858)" fill="#606060" font-size="14.314" font-family="IBMPlexSans, IBM Plex Sans"><tspan x="0" y="0">Feb</tspan></text>
      <text id="Mar" transform="translate(348.553 4415.858)" fill="#606060" font-size="14.314" font-family="IBMPlexSans, IBM Plex Sans"><tspan x="0" y="0">Mar</tspan></text>
      <text id="Apr" transform="translate(426.746 4415.858)" fill="#606060" font-size="14.314" font-family="IBMPlexSans, IBM Plex Sans"><tspan x="0" y="0">Apr</tspan></text>
      <text id="May" transform="translate(500.321 4415.858)" fill="#606060" font-size="14.314" font-family="IBMPlexSans, IBM Plex Sans"><tspan x="0" y="0">May</tspan></text>
      <text id="Jun" transform="translate(580.071 4415.858)" fill="#606060" font-size="14.314" font-family="IBMPlexSans, IBM Plex Sans"><tspan x="0" y="0">Jun</tspan></text>
      <text id="Jul" transform="translate(658.819 4415.858)" fill="#606060" font-size="14.314" font-family="IBMPlexSans, IBM Plex Sans"><tspan x="0" y="0">Jul</tspan></text>
      <text id="Aug" transform="translate(731.026 4415.858)" fill="#606060" font-size="14.314" font-family="IBMPlexSans, IBM Plex Sans"><tspan x="0" y="0">Aug</tspan></text>
      <text id="Sep" transform="translate(808.104 4415.858)" fill="#606060" font-size="14.314" font-family="IBMPlexSans, IBM Plex Sans"><tspan x="0" y="0">Sep</tspan></text>
      <text id="Oct" transform="translate(884.924 4415.858)" fill="#606060" font-size="14.314" font-family="IBMPlexSans, IBM Plex Sans"><tspan x="0" y="0">Oct</tspan></text>
      <text id="Nov" transform="translate(959.573 4415.858)" fill="#606060" font-size="14.314" font-family="IBMPlexSans, IBM Plex Sans"><tspan x="0" y="0">Nov</tspan></text>
      <line id="Line_58" data-name="Line 58" x1="2.743" y2="281.879" transform="translate(535.445 4106.384)" fill="none" stroke="#a7a9ac" stroke-linejoin="round" stroke-width="1.417" stroke-dasharray="8.048 10.729"/>
      <line id="Line_59" data-name="Line 59" x1="2.743" y2="283.305" transform="translate(869.223 4105.287)" fill="none" stroke="#a7a9ac" stroke-linejoin="round" stroke-width="1.417" stroke-dasharray="8.048 10.729"/>
      <path id="Path_659" data-name="Path 659" d="M524.8,4204.147l73.514-49.595,73.514-41.256,73.295,114.112,73.514,13.825,73.514-74.611,73.514-3.073" fill="none" stroke="#789ac4" stroke-linecap="round" stroke-linejoin="round" stroke-width="2.682" stroke-dasharray="8.047 10.729"/>
      <text id="_24_" data-name="24%" transform="translate(506.685 4186.898)" fill="#606060" font-size="13" font-family="IBMPlexSans-SemiBold, IBM Plex Sans" font-weight="600"><tspan x="0" y="0">24%</tspan></text>
      <text id="_47_" data-name="47%" transform="translate(589.8 4136.669)" fill="#606060" font-size="13" font-family="IBMPlexSans-SemiBold, IBM Plex Sans" font-weight="600"><tspan x="0" y="0">47%</tspan></text>
      <text id="_66_" data-name="66%" transform="translate(657.816 4099.747)" fill="#606060" font-size="13" font-family="IBMPlexSans-SemiBold, IBM Plex Sans" font-weight="600"><tspan x="0" y="0">66%</tspan></text>
      <text id="_13_" data-name="13%" transform="translate(737.379 4211.39)" fill="#606060" font-size="13" font-family="IBMPlexSans-SemiBold, IBM Plex Sans" font-weight="600"><tspan x="0" y="0">13%</tspan></text>
      <text id="_6_" data-name="6%" transform="translate(808.333 4223.957)" fill="#606060" font-size="13" font-family="IBMPlexSans-SemiBold, IBM Plex Sans" font-weight="600"><tspan x="0" y="0">6%</tspan></text>
      <text id="_41_" data-name="41%" transform="translate(877.609 4149.833)" fill="#606060" font-size="13" font-family="IBMPlexSans-SemiBold, IBM Plex Sans" font-weight="600"><tspan x="0" y="0">41%</tspan></text>
      <text id="_43_" data-name="43%" transform="translate(956.724 4149.267)" fill="#606060" font-size="13" font-family="IBMPlexSans-SemiBold, IBM Plex Sans" font-weight="600"><tspan x="0" y="0">43%</tspan></text>
      <path id="Path_660" data-name="Path 660" d="M209.678,4388.263l76.367-.877,76.367-10.314,76.367-25.456,76.367-8.558,76.148-21.506,76.367-44.328,76.367-14.045,76.367-7.68,76.148-55.081,76.367-80.317" fill="none" stroke="#222b3e" stroke-linecap="round" stroke-linejoin="round" stroke-width="3.682"/>
    </g>
  </g>
</svg>
