<?xml version="1.0" encoding="utf-8"?>
<!-- Generator: Adobe Illustrator 22.0.1, SVG Export Plug-In . SVG Version: 6.00 Build 0)  -->
<svg version="1.1" id="Слой_1" xmlns="http://www.w3.org/2000/svg" xmlns:xlink="http://www.w3.org/1999/xlink" x="0px" y="0px"
	 viewBox="0 0 360 360" style="enable-background:new 0 0 360 360;" xml:space="preserve">
<style type="text/css">
	.st0{fill:#FFFFFF;}
	.st1{fill:none;stroke:#A7A9AC;stroke-width:1.417;stroke-miterlimit:10;}
	.st2{fill:#222B3E;}
	.st3{fill:none;}
	.st4{fill:#ACACAC;}
	.st5{fill:#789AC4;}
	.st6{fill:none;stroke:#C4C4C4;stroke-width:1.134;stroke-linejoin:round;}
	.st7{fill:#606060;}
	.st8{font-family:'ArialMT';}
	.st9{font-size:5.6194px;}
	.st10{font-size:8.2442px;}
</style>
<rect id="Rectangle_334" y="114.4" class="st0" width="360" height="151.1"/>
<g id="Group_216">
	<path id="Path_656" class="st1" d="M20.9,139.6h333.5 M20.9,158.9h333.5 M20.9,178.2h333.5 M20.9,197.4h333.5 M20.9,216.7h333.5"/>
	<rect id="Rectangle_336" x="25.9" y="222.1" class="st2" width="10.1" height="13.9"/>
	<rect id="Rectangle_337" x="25.9" y="222.1" class="st3" width="10.1" height="13.9"/>
	<rect id="Rectangle_338" x="67.6" y="203.2" class="st2" width="10.1" height="32.8"/>
	<rect id="Rectangle_339" x="67.6" y="203.2" class="st3" width="10.1" height="32.8"/>
	<rect id="Rectangle_340" x="109.3" y="193.6" class="st2" width="10.1" height="42.4"/>
	<rect id="Rectangle_341" x="151" y="181.2" class="st2" width="10.1" height="54.7"/>
	<rect id="Rectangle_342" x="192.7" y="170.1" class="st2" width="10.1" height="65.9"/>
	<rect id="Rectangle_343" x="172.5" y="173.9" class="st4" width="10.1" height="62"/>
	<rect id="Rectangle_344" x="214.2" y="180.1" class="st4" width="10.1" height="55.9"/>
	<rect id="Rectangle_345" x="109.3" y="193.6" class="st3" width="10.1" height="42.4"/>
	<rect id="Rectangle_346" x="151" y="181.2" class="st3" width="10.1" height="54.7"/>
	<rect id="Rectangle_347" x="192.7" y="170.1" class="st3" width="10.1" height="65.9"/>
	<rect id="Rectangle_348" x="234.4" y="186.3" class="st2" width="10.1" height="49.7"/>
	<rect id="Rectangle_349" x="234.4" y="186.3" class="st3" width="10.1" height="49.7"/>
	<rect id="Rectangle_350" x="276.1" y="189.7" class="st2" width="10.1" height="46.2"/>
	<rect id="Rectangle_351" x="317.7" y="155.8" class="st2" width="10.1" height="80.2"/>
	<rect id="Rectangle_352" x="276.1" y="189.7" class="st3" width="10.1" height="46.2"/>
	<rect id="Rectangle_353" x="317.7" y="155.8" class="st3" width="10.1" height="80.2"/>
	<rect id="Rectangle_354" x="36.7" y="209" class="st5" width="10.1" height="27"/>
	<rect id="Rectangle_355" x="78.4" y="176.2" class="st5" width="10.1" height="59.7"/>
	<rect id="Rectangle_356" x="36.7" y="209" class="st3" width="10.1" height="27"/>
	<rect id="Rectangle_357" x="78.4" y="176.2" class="st3" width="10.1" height="59.7"/>
	<rect id="Rectangle_358" x="120.1" y="177.8" class="st3" width="10.1" height="58.2"/>
	<rect id="Rectangle_359" x="161.8" y="173.9" class="st3" width="10.1" height="62"/>
	<rect id="Rectangle_360" x="203.5" y="171.6" class="st3" width="10.1" height="64.4"/>
	<rect id="Rectangle_361" x="245.1" y="191.7" class="st5" width="10.1" height="44.3"/>
	<rect id="Rectangle_362" x="245.1" y="191.7" class="st3" width="10.1" height="44.3"/>
	<rect id="Rectangle_363" x="286.8" y="205.9" class="st5" width="10.1" height="30.1"/>
	<rect id="Rectangle_364" x="286.8" y="205.9" class="st3" width="10.1" height="30.1"/>
	<rect id="Rectangle_365" x="328.5" y="196.7" class="st5" width="10.1" height="39.3"/>
	<rect id="Rectangle_366" x="328.5" y="196.7" class="st3" width="10.1" height="39.3"/>
	<rect id="Rectangle_367" x="47.5" y="188.2" class="st4" width="10.1" height="47.8"/>
	<rect id="Rectangle_368" x="89.1" y="155.8" class="st4" width="10.1" height="80.2"/>
	<rect id="Rectangle_369" x="130.8" y="161.2" class="st4" width="10.1" height="74.8"/>
	<rect id="Rectangle_370" x="120.1" y="177.8" class="st5" width="10.1" height="58.2"/>
	<rect id="Rectangle_371" x="161.8" y="173.9" class="st5" width="10.1" height="62"/>
	<rect id="Rectangle_372" x="203.5" y="171.8" class="st5" width="10.1" height="64.2"/>
	<rect id="Rectangle_373" x="47.5" y="188.2" class="st3" width="10.1" height="47.8"/>
	<rect id="Rectangle_374" x="89.2" y="155.8" class="st3" width="10.1" height="80.2"/>
	<rect id="Rectangle_375" x="130.8" y="161.2" class="st3" width="10.1" height="74.8"/>
	<rect id="Rectangle_376" x="172.5" y="173.9" class="st3" width="10.1" height="62"/>
	<rect id="Rectangle_377" x="214.2" y="180.1" class="st3" width="10.1" height="55.9"/>
	<rect id="Rectangle_378" x="255.9" y="202.8" class="st4" width="10.1" height="33.1"/>
	<rect id="Rectangle_379" x="255.9" y="202.8" class="st3" width="10.1" height="33.1"/>
	<rect id="Rectangle_380" x="297.6" y="219" class="st4" width="10.1" height="17"/>
	<rect id="Rectangle_381" x="297.6" y="219" class="st3" width="10.1" height="17"/>
	<rect id="Rectangle_382" x="339.3" y="221.7" class="st4" width="10.1" height="14.3"/>
	<rect id="Rectangle_383" x="339.3" y="221.7" class="st3" width="10.1" height="14.3"/>
	<line id="Line_55" class="st6" x1="20.9" y1="236" x2="354.4" y2="236"/>
	<g id="Group_215">
		<g id="Group_214">
			<text transform="matrix(1 0 0 1 27.7861 217.8115)" class="st7 st8 st9">4%</text>
			<text transform="matrix(1 0 0 1 69.478 198.9277)" class="st7 st8 st9">9%</text>
			<text transform="matrix(1 0 0 1 107.9014 189.293)" class="st7 st8 st9">11%</text>
			<text transform="matrix(1 0 0 1 149.5933 176.9624)" class="st7 st8 st9">14%</text>
			<text transform="matrix(1 0 0 1 191.6758 165.7871)" class="st7 st8 st9">17%</text>
			<text transform="matrix(1 0 0 1 233.3672 181.9727)" class="st7 st8 st9">13%</text>
			<text transform="matrix(1 0 0 1 275.0605 185.4453)" class="st7 st8 st9">12%</text>
			<text transform="matrix(1 0 0 1 316.75 151.5298)" class="st7 st8 st9">21%</text>
			<text transform="matrix(1 0 0 1 38.1753 204.541)" class="st7 st8 st9">7%</text>
			<text transform="matrix(1 0 0 1 77.2671 171.7866)" class="st7 st8 st9">16%</text>
			<text transform="matrix(1 0 0 1 118.9219 173.3276)" class="st7 st8 st9">15%</text>
			<text transform="matrix(1 0 0 1 160.6138 169.4731)" class="st7 st8 st9">16%</text>
			<text transform="matrix(1 0 0 1 203.8789 167.1592)" class="st7 st8 st9">17%</text>
			<text transform="matrix(1 0 0 1 245.1777 187.1992)" class="st7 st8 st9">12%</text>
			<text transform="matrix(1 0 0 1 288.3262 201.459)" class="st7 st8 st9">8%</text>
			<text transform="matrix(1 0 0 1 328.5586 192.2129)" class="st7 st8 st9">10%</text>
			<text transform="matrix(1 0 0 1 48.0293 183.8994)" class="st7 st8 st9">12%</text>
			<text transform="matrix(1 0 0 1 89.7212 151.5254)" class="st7 st8 st9">21%</text>
			<text transform="matrix(1 0 0 1 131.4131 156.9214)" class="st7 st8 st9">19%</text>
			<text transform="matrix(1 0 0 1 173.1045 169.6396)" class="st7 st8 st9">16%</text>
			<text transform="matrix(1 0 0 1 214.7969 175.8086)" class="st7 st8 st9">15%</text>
			<text transform="matrix(1 0 0 1 257.793 198.542)" class="st7 st8 st9">9%</text>
			<text transform="matrix(1 0 0 1 299.4863 214.7275)" class="st7 st8 st9">4%</text>
			<text transform="matrix(1 0 0 1 341.1768 217.4268)" class="st7 st8 st9">4%</text>
		</g>
	</g>
	<text transform="matrix(1 0 0 1 8.5117 237.5898)" class="st7 st8 st9">0%</text>
	<text transform="matrix(1 0 0 1 8.5117 218.3203)" class="st7 st8 st9">5%</text>
	<text transform="matrix(1 0 0 1 5.5938 199.0498)" class="st7 st8 st9">10%</text>
	<text transform="matrix(1 0 0 1 5.5938 179.7793)" class="st7 st8 st9">15%</text>
	<text transform="matrix(1 0 0 1 5.5938 160.5093)" class="st7 st8 st9">20%</text>
	<text transform="matrix(1 0 0 1 5.5938 141.2412)" class="st7 st8 st9">25%</text>
	<text transform="matrix(1 0 0 1 36.4692 245.0645)" class="st7 st8 st9">0-19</text>
	<text transform="matrix(1 0 0 1 76.7002 245.0645)" class="st7 st8 st9">20-29</text>
	<text transform="matrix(1 0 0 1 118.3936 245.0645)" class="st7 st8 st9">30-39</text>
	<text transform="matrix(1 0 0 1 160.0874 245.0645)" class="st7 st8 st9">40-49</text>
	<text transform="matrix(1 0 0 1 201.7773 245.0645)" class="st7 st8 st9">50-59</text>
	<text transform="matrix(1 0 0 1 243.4707 245.0645)" class="st7 st8 st9">60-69</text>
	<text transform="matrix(1 0 0 1 285.165 245.0645)" class="st7 st8 st9">70-79</text>
	<text transform="matrix(1 0 0 1 329.2227 245.0645)" class="st7 st8 st9">80+</text>
</g>
<g id="Group_220">
	<g id="Group_217">
		<rect id="Rectangle_384" x="100.6" y="94.6" class="st2" width="49.5" height="13.2"/>
		<text transform="matrix(1 0 0 1 106.7998 103.6699)" class="st0 st8 st10">Up to May</text>
	</g>
	<g id="Group_218">
		<rect id="Rectangle_385" x="210" y="94.6" class="st4" width="49.5" height="13.2"/>
		<text transform="matrix(1 0 0 1 214.709 103.6694)" class="st0 st8 st10">Sep to Nov</text>
	</g>
	<g id="Group_219">
		<rect id="Rectangle_386" x="155.3" y="94.6" class="st5" width="49.5" height="13.2"/>
		<text transform="matrix(1 0 0 1 160.3545 103.6694)" class="st0 st8 st10">Jun to Aug</text>
	</g>
</g>
</svg>
