<svg xmlns="http://www.w3.org/2000/svg" width="973.405" height="610.078" viewBox="0 0 973.405 810.078"><defs><style>.a{fill:#f5f5f5;}.a,.b{stroke:#a6a8ab;stroke-miterlimit:10;stroke-width:1.417px;}.b,.c{fill:none;}.c{stroke:#d9d9d9;stroke-linejoin:round;stroke-width:0.895px;}.d{fill:#606060;font-size:14.314px;font-family:IBMPlexSans, IBM Plex Sans;}.e{fill:#7899c3;}</style></defs><g transform="translate(-468.824 -699.769)"><rect class="a" width="971.988" height="808.661" transform="translate(469.532 700.477)"/><line class="b" y2="722.191" transform="translate(1401.969 763.744)"/><line class="b" y2="722.191" transform="translate(1307.666 763.744)"/><line class="b" y2="722.191" transform="translate(1213.364 763.744)"/><line class="b" y2="722.191" transform="translate(1117.867 763.744)"/><line class="b" y2="722.191" transform="translate(1024.706 763.744)"/><line class="b" y2="722.191" transform="translate(928.068 763.744)"/><line class="b" y2="722.191" transform="translate(833.766 763.744)"/><line class="b" y2="722.191" transform="translate(738.269 763.744)"/><line class="b" y2="722.191" transform="translate(643.37 763.744)"/><line class="c" y2="722.191" transform="translate(643.967 763.744)"/><text class="d" transform="translate(1337.382 777.471)"><tspan x="0" y="0">72,4%</tspan></text><text class="d" transform="translate(1203.947 795.376)"><tspan x="0" y="0">58,3%</tspan></text><text class="d" transform="translate(1162.124 814.475)"><tspan x="0" y="0">53,9%</tspan></text><text class="d" transform="translate(1144.295 832.381)"><tspan x="0" y="0">52,0%</tspan></text><text class="d" transform="translate(1080.754 851.48)"><tspan x="0" y="0">45,3%</tspan></text><text class="d" transform="translate(1078.668 869.386)"><tspan x="0" y="0">45,1%</tspan></text><text class="d" transform="translate(1071.555 888.485)"><tspan x="0" y="0">44,4%</tspan></text><text class="d" transform="translate(1047.182 906.391)"><tspan x="0" y="0">41,8%</tspan></text><text class="d" transform="translate(1043.768 925.49)"><tspan x="0" y="0">41,4%</tspan></text><text class="d" transform="translate(1030.017 943.395)"><tspan x="0" y="0">40,0%</tspan></text><text class="d" transform="translate(1024.706 962.495)"><tspan x="0" y="0">39,4%</tspan></text><text class="d" transform="translate(1019.016 980.4)"><tspan x="0" y="0">38,8%</tspan></text><text class="d" transform="translate(1018.257 999.499)"><tspan x="0" y="0">38,7%</tspan></text><text class="d" transform="translate(1017.024 1017.405)"><tspan x="0" y="0">38,6%</tspan></text><text class="d" transform="translate(1016.834 1036.504)"><tspan x="0" y="0">38,6%</tspan></text><text class="d" transform="translate(1012.188 1054.41)"><tspan x="0" y="0">38,1%</tspan></text><text class="d" transform="translate(1008.963 1073.509)"><tspan x="0" y="0">37,8%</tspan></text><text class="d" transform="translate(1005.359 1091.415)"><tspan x="0" y="0">37,4%</tspan></text><text class="d" transform="translate(1004.601 1110.514)"><tspan x="0" y="0">37,3%</tspan></text><text class="d" transform="translate(1004.506 1128.42)"><tspan x="0" y="0">37,3%</tspan></text><text class="d" transform="translate(997.298 1147.519)"><tspan x="0" y="0">36,5%</tspan></text><text class="d" transform="translate(992.366 1165.425)"><tspan x="0" y="0">36,0%</tspan></text><text class="d" transform="translate(986.392 1184.524)"><tspan x="0" y="0">35,4%</tspan></text><text class="d" transform="translate(984.021 1202.43)"><tspan x="0" y="0">35,1%</tspan></text><text class="d" transform="translate(962.019 1221.529)"><tspan x="0" y="0">32,8%</tspan></text><text class="d" transform="translate(959.458 1239.434)"><tspan x="0" y="0">32,5%</tspan></text><text class="d" transform="translate(954.147 1258.534)"><tspan x="0" y="0">32,0%</tspan></text><text class="d" transform="translate(941.155 1276.439)"><tspan x="0" y="0">30,6%</tspan></text><text class="d" transform="translate(905.971 1295.538)"><tspan x="0" y="0">26,9%</tspan></text><text class="d" transform="translate(864.717 1313.444)"><tspan x="0" y="0">22,5%</tspan></text><text class="d" transform="translate(854.854 1332.543)"><tspan x="0" y="0">21,5%</tspan></text><text class="d" transform="translate(811.514 1350.449)"><tspan x="0" y="0">16,9%</tspan></text><text class="d" transform="translate(762.768 1369.548)"><tspan x="0" y="0">11,8%</tspan></text><text class="d" transform="translate(758.784 1387.453)"><tspan x="0" y="0">11,4%</tspan></text><text class="d" transform="translate(733.179 1406.553)"><tspan x="0" y="0">8,7%</tspan></text><text class="d" transform="translate(705.581 1424.458)"><tspan x="0" y="0">5,8%</tspan></text><text class="d" transform="translate(694.959 1443.557)"><tspan x="0" y="0">4,6%</tspan></text><text class="d" transform="translate(685.191 1461.463)"><tspan x="0" y="0">3,6%</tspan></text><text class="d" transform="translate(674.285 1480.562)"><tspan x="0" y="0">2,5%</tspan></text><text class="d" transform="translate(631.546 750.015)"><tspan x="0" y="0">0,0%</tspan></text><text class="d" transform="translate(723.03 750.015)"><tspan x="0" y="0">10,0%</tspan></text><text class="d" transform="translate(817.867 750.015)"><tspan x="0" y="0">20,0%</tspan></text><text class="d" transform="translate(912.704 750.015)"><tspan x="0" y="0">30,0%</tspan></text><text class="d" transform="translate(1007.54 750.015)"><tspan x="0" y="0">40,0%</tspan></text><text class="d" transform="translate(1102.377 750.015)"><tspan x="0" y="0">50,0%</tspan></text><text class="d" transform="translate(1197.213 750.015)"><tspan x="0" y="0">60,0%</tspan></text><text class="d" transform="translate(1292.05 750.015)"><tspan x="0" y="0">70,0%</tspan></text><text class="d" transform="translate(1386.887 750.015)"><tspan x="0" y="0">80,0%</tspan></text><text class="d" transform="translate(599.442 777.471)"><tspan x="0" y="0">Malta</tspan></text><text class="d" transform="translate(532.141 795.376)"><tspan x="0" y="0">United Kingdom</tspan></text><text class="d" transform="translate(581.293 814.475)"><tspan x="0" y="0">Hungary</tspan></text><text class="d" transform="translate(586.518 832.381)"><tspan x="0" y="0">Iceland</tspan></text><text class="d" transform="translate(587.591 851.48)"><tspan x="0" y="0">Finland</tspan></text><text class="d" transform="translate(576.798 869.386)"><tspan x="0" y="0">Germany</tspan></text><text class="d" transform="translate(590.582 888.485)"><tspan x="0" y="0">Cyprus</tspan></text><text class="d" transform="translate(589.494 906.391)"><tspan x="0" y="0">Austria</tspan></text><text class="d" transform="translate(582.409 925.49)"><tspan x="0" y="0">Belgium</tspan></text><text class="d" transform="translate(605.841 943.395)"><tspan x="0" y="0">Italy</tspan></text><text class="d" transform="translate(599.299 962.495)"><tspan x="0" y="0">Spain</tspan></text><text class="d" transform="translate(591.184 980.4)"><tspan x="0" y="0">France</tspan></text><text class="d" transform="translate(576.24 999.499)"><tspan x="0" y="0">Lithuania</tspan></text><text class="d" transform="translate(556.087 1017.405)"><tspan x="0" y="0">Netherlands</tspan></text><text class="d" transform="translate(581.078 1036.504)"><tspan x="0" y="0">Portugal</tspan></text><text class="d" transform="translate(576.741 1054.41)"><tspan x="0" y="0">Denmark</tspan></text><text class="d" transform="translate(594.318 1073.509)"><tspan x="0" y="0">Serbia</tspan></text><text class="d" transform="translate(590.611 1091.415)"><tspan x="0" y="0">Poland</tspan></text><text class="d" transform="translate(583.812 1110.514)"><tspan x="0" y="0">Sweden</tspan></text><text class="d" transform="translate(585.329 1128.42)"><tspan x="0" y="0">Czechia</tspan></text><text class="d" transform="translate(587.562 1147.519)"><tspan x="0" y="0">Estonia</tspan></text><text class="d" transform="translate(589.294 1165.425)"><tspan x="0" y="0">Greece</tspan></text><text class="d" transform="translate(559.637 1184.524)"><tspan x="0" y="0">Switzerland</tspan></text><text class="d" transform="translate(588.464 1202.43)"><tspan x="0" y="0">Ireland</tspan></text><text class="d" transform="translate(580.792 1221.529)"><tspan x="0" y="0">Slovenia</tspan></text><text class="d" transform="translate(581.594 1239.434)"><tspan x="0" y="0">Slovakia</tspan></text><text class="d" transform="translate(589.223 1258.534)"><tspan x="0" y="0">Croatia</tspan></text><text class="d" transform="translate(586.103 1276.439)"><tspan x="0" y="0">Norway</tspan></text><text class="d" transform="translate(597.166 1295.538)"><tspan x="0" y="0">Latvia</tspan></text><text class="d" transform="translate(578.602 1313.444)"><tspan x="0" y="0">Romania</tspan></text><text class="d" transform="translate(557.804 1332.543)"><tspan x="0" y="0">Montenegro</tspan></text><text class="d" transform="translate(586.903 1350.449)"><tspan x="0" y="0">Albania</tspan></text><text class="d" transform="translate(582.223 1369.548)"><tspan x="0" y="0">Bulgaria</tspan></text><text class="d" transform="translate(525.355 1387.453)"><tspan x="0" y="0">North Macedonia</tspan></text><text class="d" transform="translate(580.734 1406.553)"><tspan x="0" y="0">Moldova</tspan></text><text class="d" transform="translate(481.056 1424.458)"><tspan x="0" y="0">Bosnia and Herzegovina</tspan></text><text class="d" transform="translate(586.174 1443.557)"><tspan x="0" y="0">Belarus</tspan></text><text class="d" transform="translate(588.135 1461.463)"><tspan x="0" y="0">Kosovo</tspan></text><text class="d" transform="translate(585.558 1480.562)"><tspan x="0" y="0">Ukraine</tspan></text><path class="e" d="M667.244,1473.4H643.37v5.968h23.874Zm10.743-19.1H643.37v7.162h34.617Zm9.55-17.906H643.37v5.969h44.167Zm10.743-19.1H643.37v7.162h54.91Zm27.455-17.906H643.37v5.969h82.365Zm26.262-19.1H643.37v7.162H752Zm3.581-17.906H643.37v5.969H755.578Zm48.942-19.1H643.37v7.162H804.52Zm42.973-17.905H643.37v5.968H847.493Zm9.55-19.1H643.37v7.163H857.043Zm41.78-17.905H643.37v5.968H898.823Zm34.617-19.1H643.37v7.163H933.44Zm13.131-17.905H643.37v5.968h303.2Zm5.968-19.1H643.37v7.162H952.539Zm2.388-17.906H643.37v5.969H954.927Zm21.486-19.1H643.37v7.162H976.413Zm2.388-17.906H643.37v5.969H978.8Zm5.968-19.1H643.37v7.162h341.4Zm4.775-17.906H643.37v5.969H989.544Zm8.356-19.1H643.37v7.162H997.9Zm0-17.905H643.37v5.968H997.9Zm0-19.1H643.37v7.162H997.9Zm3.581-17.905H643.37v5.968h358.111Zm3.581-19.1H643.37v7.163h361.692Zm4.775-17.905H643.37v5.968h366.467Zm0-19.1H643.37v7.162h366.467Zm1.194-17.906H643.37v5.969h367.661Zm1.194-19.1H643.37V980.4h368.855ZM1017,955.333H643.37V961.3H1017Zm5.969-19.1H643.37V943.4h379.6Zm13.131-17.906H643.37V924.3H1036.1Zm3.581-19.1H643.37v7.162h396.31Zm25.068-17.906H643.37v5.969h421.378Zm7.162-19.1H643.37v7.162h428.54Zm1.194-17.905H643.37v5.968H1073.1Zm64.46-19.1H643.37v7.163h494.194Zm17.905-17.9H643.37v5.968h512.1Zm41.78-19.1H643.37v7.162h553.879Zm132.5-17.906H643.37v5.969h686.38Z"/></g></svg>