<svg xmlns="http://www.w3.org/2000/svg" width="100%" height="100%" viewBox="0 0 286.131 137.409">
  <g id="Group_443" data-name="Group 443" transform="translate(-417.5 -3297.726)">
    <rect id="Rectangle_696" data-name="Rectangle 696" width="286.131" height="93.803" transform="translate(417.5 3297.726)" fill="#d8383c"/>
    <rect id="Rectangle_697" data-name="Rectangle 697" width="286.131" height="39.707" transform="translate(417.5 3395.428)" fill="#f9a431"/>
    <g id="Group_440" data-name="Group 440">
      <g id="Group_439" data-name="Group 439">
        <path id="Path_1236" data-name="Path 1236" d="M435.105,3425.889a.29.29,0,0,1-.319-.294c-.218-1.34-.448-2.656-.645-3.974h-3.78c-.063.323-.445,2.693-.634,3.974a.284.284,0,0,1-.308.294h-1.471c-.214,0-.363-.2-.278-.544l3.143-18.83c.039-.222.145-.416.38-.416h2.118c.208,0,.317.065.384.391l3.224,18.788c.064.253.024.611-.233.611Zm-3.462-12.413-.853,5.518h2.931l-.859-5.423-.605-4h-.06C432.025,3410.875,431.821,3412.157,431.643,3413.476Z" fill="#fff"/>
        <path id="Path_1237" data-name="Path 1237" d="M447.052,3425.889h-.939c-.31,0-.482-.1-.617-.483-1.17-3.238-3.545-9.458-4.718-12.7l-.068.029v12.7c0,.318-.079.45-.293.45h-1.392c-.213,0-.319-.132-.319-.421v-18.594c0-.516.064-.775.474-.775h.917c.358,0,.49.194.632.546l4.729,12.795.038-.028v-12.9c0-.287.087-.416.322-.416h1.344c.22,0,.348.129.348.416v18.731C447.51,3425.757,447.272,3425.889,447.052,3425.889Z" fill="#fff"/>
        <path id="Path_1238" data-name="Path 1238" d="M456.678,3425.889a.3.3,0,0,1-.322-.294c-.208-1.34-.44-2.656-.639-3.974h-3.78c-.062.323-.441,2.693-.639,3.974-.025.224-.151.294-.3.294H449.52c-.208,0-.357-.2-.274-.544l3.143-18.83c.04-.222.142-.416.386-.416h2.106c.218,0,.329.065.392.391l3.231,18.788c.057.253.008.611-.242.611Zm-3.459-12.413-.851,5.518H455.3l-.862-5.423-.6-4h-.064C453.605,3410.875,453.393,3412.157,453.219,3413.476Z" fill="#fff"/>
        <path id="Path_1239" data-name="Path 1239" d="M467.655,3425.889h-6.966c-.208,0-.314-.158-.314-.45v-18.924c0-.287.058-.416.291-.416h1.475c.217,0,.3.129.3.391v16.642h5.21c.172,0,.272.129.272.413v1.861C467.927,3425.731,467.844,3425.889,467.655,3425.889Z" fill="#fff"/>
        <path id="Path_1240" data-name="Path 1240" d="M470.976,3406.548l2.182,8.375h.085c.575-2.184,1.579-6.161,2.135-8.308.13-.387.219-.516.578-.516h1.39c.358,0,.379.292.293.585l-3.288,11.412a2.146,2.146,0,0,0-.127.8v6.508c0,.325-.1.483-.321.483h-1.454c-.208,0-.32-.158-.32-.45v-6.61a1.682,1.682,0,0,0-.106-.67l-3.286-11.445c-.082-.323-.063-.615.257-.615h1.452C470.724,3406.1,470.875,3406.164,470.976,3406.548Z" fill="#fff"/>
        <path id="Path_1241" data-name="Path 1241" d="M486.6,3408.861h-2.952v16.578c0,.318-.076.45-.312.45h-1.473c-.193,0-.318-.132-.318-.421l.021-16.607h-2.85c-.208,0-.293-.13-.293-.483v-1.83c0-.288.085-.449.293-.449H486.6c.187,0,.283.161.283.416v1.863C486.886,3408.665,486.822,3408.861,486.6,3408.861Z" fill="#fff"/>
        <path id="Path_1242" data-name="Path 1242" d="M490.7,3425.889h-1.487c-.2,0-.325-.132-.325-.421v-18.92c0-.288.108-.449.325-.449H490.7c.172,0,.323.129.323.416v18.924C491.022,3425.757,490.916,3425.889,490.7,3425.889Z" fill="#fff"/>
        <path id="Path_1243" data-name="Path 1243" d="M493.961,3420.531V3411.4c0-3.4,1.69-5.583,4.018-5.583,1.415,0,2.731.543,3.8,2.656a.629.629,0,0,1-.083.77l-.985,1.157c-.169.194-.409.065-.511-.19a2.547,2.547,0,0,0-2.158-1.6c-1.28,0-1.959,1.251-1.959,2.855v9.041c0,1.575.742,2.79,2.02,2.79a2.791,2.791,0,0,0,2.08-1.507c.144-.261.276-.548.528-.291l1.068,1.127a.663.663,0,0,1,.108.642c-.915,1.952-2.309,2.818-3.8,2.818C495.691,3426.079,493.961,3424.028,493.961,3420.531Z" fill="#fff"/>
        <path id="Path_1244" data-name="Path 1244" d="M507.2,3426.049a4.643,4.643,0,0,1-4.079-2.438.624.624,0,0,1,.017-.829l.824-1.26c.208-.317.337-.155.566.128a3.478,3.478,0,0,0,2.628,1.64c1.585,0,2.481-1.1,2.481-2.89,0-1.956-1.261-2.658-2.611-3.363-1.657-.868-3.648-2.114-3.648-5.639,0-3.471,1.8-5.55,3.992-5.55a4.872,4.872,0,0,1,3.672,1.537c.278.324.169.542.042.863l-.53,1.387c-.132.317-.387.283-.6.118a4,4,0,0,0-2.413-1.149c-1.11,0-2.067.7-2.067,2.82,0,1.638,1.3,2.344,2.368,2.947,1.857,1.025,3.912,2.055,3.912,5.934C511.753,3423.894,509.828,3426.049,507.2,3426.049Z" fill="#fff"/>
        <path id="Path_1245" data-name="Path 1245" d="M525.9,3408.861h-5.04v5.51h4.27c.193,0,.295.126.295.455v1.863c0,.29-.053.446-.295.446h-4.27c0,2.759.021,5.51.021,8.271,0,.325-.108.483-.306.483h-1.46c-.193,0-.329-.158-.329-.45v-18.891c0-.288.108-.449.329-.449H525.9c.189,0,.325.161.325.416v1.9C526.223,3408.7,526.11,3408.861,525.9,3408.861Z" fill="#fff"/>
        <path id="Path_1246" data-name="Path 1246" d="M532.038,3426.079c-2.39,0-4.249-2.024-4.249-5.64v-8.947c0-3.527,1.842-5.677,4.234-5.677,2.326,0,4.23,2.049,4.23,5.677v8.947C536.253,3423.962,534.458,3426.079,532.038,3426.079Zm2.095-14.556c0-1.634-.79-2.919-2.095-2.919s-2.133,1.285-2.133,2.919v8.851c0,1.7.768,2.916,2.118,2.916,1.306,0,2.11-1.183,2.11-2.916Z" fill="#fff"/>
        <path id="Path_1247" data-name="Path 1247" d="M545.343,3417.295c-.091.125-.091.35.023.678l2.261,7.207c.129.415.017.709-.255.709H546c-.509,0-.618-.261-.749-.676l-2.176-7.181H541.03c0,2.468.02,4.937.02,7.407,0,.318-.109.45-.323.45h-1.454c-.212,0-.339-.132-.339-.421v-18.92c0-.288.108-.449.318-.449h4c2.6,0,3.989,2.149,3.989,5.646A9.181,9.181,0,0,1,545.343,3417.295Zm-4.313-8.434v6.439h2.348c.957,0,1.746-1.982,1.746-3.678,0-1.356-.505-2.761-2.113-2.761Z" fill="#fff"/>
        <path id="Path_1248" data-name="Path 1248" d="M559,3425.889h-4.1c-.191,0-.319-.158-.319-.45v-18.891c0-.288.109-.449.319-.449h4.075c2.612,0,3.979,2.184,3.979,5.843v7.974C562.952,3423.736,561.558,3425.889,559,3425.889Zm1.855-14.075c0-2.087-.832-2.953-2.086-2.953h-2.076v14.271h2.2c1.324,0,1.961-1.153,1.961-3.019Z" fill="#fff"/>
        <path id="Path_1249" data-name="Path 1249" d="M572.931,3425.889h-7.105c-.191,0-.319-.158-.319-.45v-18.891c0-.288.1-.449.319-.449h7.012c.163,0,.293.161.293.449v1.83c0,.287-.085.483-.293.483h-5.219v5.382h4.336c.212,0,.321.162.321.489v1.819c0,.3-.109.486-.3.486h-4.357v6.095h5.312c.179,0,.306.129.306.448v1.826C573.237,3425.731,573.131,3425.889,572.931,3425.889Z" fill="#fff"/>
        <path id="Path_1250" data-name="Path 1250" d="M575.236,3420.531V3411.4c0-3.4,1.7-5.583,4.018-5.583,1.411,0,2.74.543,3.8,2.656a.625.625,0,0,1-.087.77l-.976,1.157c-.172.194-.418.065-.523-.19a2.526,2.526,0,0,0-2.154-1.6c-1.279,0-1.965,1.251-1.965,2.855v9.041c0,1.575.751,2.79,2.033,2.79a2.772,2.772,0,0,0,2.07-1.507c.152-.261.276-.548.539-.291l1.063,1.127a.653.653,0,0,1,.1.642c-.921,1.952-2.3,2.818-3.8,2.818C576.966,3426.079,575.236,3424.028,575.236,3420.531Z" fill="#fff"/>
        <path id="Path_1251" data-name="Path 1251" d="M587.081,3425.889h-1.488c-.2,0-.322-.132-.322-.421v-18.92c0-.288.1-.449.322-.449h1.488c.18,0,.327.129.327.416v18.924C587.408,3425.757,587.3,3425.889,587.081,3425.889Z" fill="#fff"/>
        <path id="Path_1252" data-name="Path 1252" d="M593.874,3426.049a4.632,4.632,0,0,1-4.079-2.438.615.615,0,0,1,.024-.829l.813-1.26c.208-.317.337-.155.579.128a3.446,3.446,0,0,0,2.619,1.64c1.583,0,2.479-1.1,2.479-2.89,0-1.956-1.259-2.658-2.6-3.363-1.668-.868-3.659-2.114-3.659-5.639,0-3.471,1.8-5.55,3.994-5.55a4.88,4.88,0,0,1,3.672,1.537c.286.324.182.542.044.863l-.534,1.387c-.132.317-.38.283-.6.118a3.972,3.972,0,0,0-2.413-1.149c-1.11,0-2.065.7-2.065,2.82,0,1.638,1.3,2.344,2.368,2.947,1.859,1.025,3.9,2.055,3.9,5.934C598.418,3423.894,596.5,3426.049,593.874,3426.049Z" fill="#fff"/>
        <path id="Path_1253" data-name="Path 1253" d="M602.595,3425.889h-1.488c-.2,0-.314-.132-.314-.421v-18.92c0-.288.1-.449.314-.449h1.488c.185,0,.333.129.333.416v18.924C602.928,3425.757,602.812,3425.889,602.595,3425.889Z" fill="#fff"/>
        <path id="Path_1254" data-name="Path 1254" d="M610.121,3426.079c-2.4,0-4.255-2.024-4.255-5.64v-8.947c0-3.527,1.836-5.677,4.223-5.677,2.339,0,4.236,2.049,4.236,5.677v8.947C614.325,3423.962,612.53,3426.079,610.121,3426.079Zm2.088-14.556c0-1.634-.795-2.919-2.088-2.919-1.324,0-2.137,1.285-2.137,2.919v8.851c0,1.7.764,2.916,2.1,2.916,1.312,0,2.12-1.183,2.12-2.916Z" fill="#fff"/>
        <path id="Path_1255" data-name="Path 1255" d="M625.33,3425.889h-.936c-.321,0-.489-.1-.618-.483-1.176-3.238-3.549-9.458-4.718-12.7l-.066.029v12.7c0,.318-.085.45-.3.45h-1.384c-.214,0-.318-.132-.318-.421v-18.594c0-.516.061-.775.467-.775h.917c.367,0,.49.194.64.546l4.718,12.795.045-.028v-12.9c0-.287.091-.416.318-.416h1.35c.214,0,.333.129.333.416v18.731C625.777,3425.757,625.55,3425.889,625.33,3425.889Z" fill="#fff"/>
        <path id="Path_1256" data-name="Path 1256" d="M644.441,3425.889h-1.39c-.21,0-.3-.132-.3-.421v-11.383h-.062l-.921,3.657-1.81,7.025c-.083.221-.191.511-.469.511h-.9c-.259,0-.38-.032-.516-.445l-1.727-6.86-.9-3.819h-.062v11.314c0,.289-.085.421-.314.421H633.7c-.193,0-.327-.158-.327-.45v-18.7c0-.417.134-.644.412-.644h1.091c.352,0,.443.036.594.516.149.509,2.456,9.746,2.6,10.233l.945,3.94h.1l.978-4.005,2.587-10.168c.13-.387.276-.516.575-.516h1.068c.307,0,.431.227.431.615v18.725C644.762,3425.731,644.638,3425.889,644.441,3425.889Z" fill="#fff"/>
        <path id="Path_1257" data-name="Path 1257" d="M653.76,3425.889a.292.292,0,0,1-.316-.294c-.206-1.34-.452-2.656-.634-3.974h-3.789c-.059.323-.443,2.693-.634,3.974-.03.224-.145.294-.3.294h-1.473c-.218,0-.367-.2-.278-.544l3.139-18.83c.043-.222.145-.416.384-.416h2.114c.215,0,.327.065.382.391l3.228,18.788c.06.253.019.611-.235.611Zm-3.461-12.413-.849,5.518h2.927l-.856-5.423-.6-4h-.062C650.689,3410.875,650.477,3412.157,650.3,3413.476Z" fill="#fff"/>
        <path id="Path_1258" data-name="Path 1258" d="M659.527,3419.86c0,1.888-.019,3.751-.019,5.608,0,.289-.064.421-.242.421h-1.6c-.208,0-.277-.132-.277-.387v-18.987c0-.287.093-.416.3-.416h1.556c.167,0,.259.129.259.391v7.664c.019,0,.065.027.078.027l4.232-7.763c.123-.254.2-.319.422-.319h1.65c.191,0,.256.129.256.292a.385.385,0,0,1-.048.224l-3.971,7.374.048.135a1.008,1.008,0,0,1,.34-.039c2.139,0,3.16,1.986,3.309,5.327.083,2.049.2,4.041.3,6.056,0,.289-.087.421-.257.421h-1.5c-.174,0-.276-.132-.276-.387l-.3-6.476c-.125-1.315-.618-2.6-2.033-2.6C660.316,3416.426,659.527,3417.9,659.527,3419.86Z" fill="#fff"/>
        <path id="Path_1259" data-name="Path 1259" d="M670.514,3425.889h-1.5c-.191,0-.316-.132-.316-.421v-18.92c0-.288.108-.449.316-.449h1.5c.174,0,.325.129.325.416v18.924C670.839,3425.757,670.733,3425.889,670.514,3425.889Z" fill="#fff"/>
        <path id="Path_1260" data-name="Path 1260" d="M682.219,3425.889h-.938a.574.574,0,0,1-.626-.483c-1.176-3.238-3.541-9.458-4.716-12.7l-.075.029v12.7c0,.318-.076.45-.293.45h-1.383c-.217,0-.321-.132-.321-.421v-18.594c0-.516.062-.775.467-.775h.926c.356,0,.483.194.634.546l4.718,12.795.043-.028v-12.9c0-.287.087-.416.318-.416h1.352c.21,0,.339.129.339.416v18.731C682.664,3425.757,682.431,3425.889,682.219,3425.889Z" fill="#fff"/>
        <path id="Path_1261" data-name="Path 1261" d="M693.229,3408.637a.612.612,0,0,1-.106.7l-1.031,1.157c-.185.164-.355,0-.512-.256a2.354,2.354,0,0,0-2.137-1.6c-1.343,0-2.065,1.315-2.065,2.985v8.878c0,1.64.811,2.79,2.065,2.79,1.116,0,1.929-1.025,1.929-2.822v-2.757h-1.545c-.2,0-.312-.13-.312-.448V3415.4c0-.319.109-.449.312-.449h3.313c.2,0,.344.13.344.449v5.2c0,3.335-1.706,5.48-4.058,5.48-2.368,0-4.143-2.024-4.143-5.515v-9.2c0-3.4,1.8-5.548,4.128-5.548A3.959,3.959,0,0,1,693.229,3408.637Z" fill="#fff"/>
      </g>
    </g>
    <g id="Group_442" data-name="Group 442">
      <g id="Group_441" data-name="Group 441">
        <path id="Path_1262" data-name="Path 1262" d="M443.32,3352.531h-7.426l.077,27.441c0,1.144-.387,1.6-1.153,1.6h-5.282c-.688,0-1.151-.455-1.151-1.488v-67.846c0-1.028.383-1.49,1.151-1.49h13.7c9.034,0,14.55,8.958,14.55,21.12C457.79,3343.466,451.665,3352.531,443.32,3352.531Zm-.08-31.913h-7.346v22.159h7.346c4.21,0,7.046-4.367,7.046-11.02C450.286,3326.246,447.911,3320.618,443.24,3320.618Z" fill="#fff"/>
        <path id="Path_1263" data-name="Path 1263" d="M487.5,3350.809a2.886,2.886,0,0,0,.083,2.41l8.115,25.826c.459,1.493.075,2.526-.921,2.526h-4.9c-1.842,0-2.222-.914-2.687-2.407l-7.808-25.71h-7.352c0,8.834.083,17.676.083,26.518,0,1.144-.392,1.6-1.152,1.6h-5.215c-.764,0-1.222-.455-1.222-1.488v-67.727c0-1.036.386-1.609,1.148-1.609H480c9.342,0,14.319,7.692,14.319,20.2C494.32,3338.41,491.408,3346.107,487.5,3350.809Zm-15.466-30.191v23.076h8.426c3.438,0,6.28-7.121,6.28-13.2,0-4.822-1.838-9.877-7.587-9.877Z" fill="#fff"/>
        <path id="Path_1264" data-name="Path 1264" d="M529.088,3381.571h-25.5c-.692,0-1.15-.573-1.15-1.6v-67.616c0-1.036.386-1.609,1.15-1.609H528.7c.609,0,1.07.573,1.07,1.609v6.539c0,1.034-.308,1.723-1.07,1.723H510.01V3339.9h15.553c.766,0,1.144.578,1.144,1.725v6.545c0,1.027-.378,1.717-1.068,1.717H510.01V3371.7h19.078c.609,0,1.072.456,1.072,1.6v6.547C530.16,3381,529.774,3381.571,529.088,3381.571Z" fill="#fff"/>
        <path id="Path_1265" data-name="Path 1265" d="M553.208,3381.571h-14.7c-.7,0-1.152-.573-1.152-1.6v-67.616c0-1.036.386-1.609,1.152-1.609H553.13c9.345,0,14.243,7.809,14.243,20.891v28.585C567.373,3373.882,562.392,3381.571,553.208,3381.571Zm6.662-50.394c0-7.461-2.986-10.559-7.506-10.559h-7.433V3371.7h7.893c4.75,0,7.046-4.129,7.046-10.792Z" fill="#fff"/>
        <path id="Path_1266" data-name="Path 1266" d="M583.76,3381.571h-5.366c-.687,0-1.142-.455-1.142-1.488v-67.727c0-1.036.378-1.609,1.142-1.609h5.366c.613,0,1.143.462,1.143,1.49v67.735C584.9,3381.116,584.521,3381.571,583.76,3381.571Z" fill="#fff"/>
        <path id="Path_1267" data-name="Path 1267" d="M595.167,3362.406v-32.715c0-12.169,6.057-19.978,14.4-19.978,5.051,0,9.795,1.957,13.632,9.53a2.242,2.242,0,0,1-.306,2.754l-3.531,4.133c-.614.686-1.452.224-1.83-.689-1.766-3.555-4.671-5.736-7.736-5.736-4.6,0-7.052,4.478-7.052,10.217v32.366c0,5.626,2.685,9.992,7.281,9.992,2.98,0,5.741-2.642,7.429-5.4.53-.918.995-1.953,1.908-1.027l3.837,4.015a2.378,2.378,0,0,1,.382,2.292c-3.3,7-8.275,10.1-13.636,10.1C601.375,3382.263,595.167,3374.917,595.167,3362.406Z" fill="#fff"/>
        <path id="Path_1268" data-name="Path 1268" d="M655.821,3320.618H645.252v59.354c0,1.144-.306,1.6-1.15,1.6h-5.279c-.694,0-1.154-.455-1.154-1.488l.074-59.465H627.558c-.766,0-1.067-.458-1.067-1.723v-6.539c0-1.036.3-1.609,1.067-1.609h28.263c.69,0,.987.573.987,1.49v6.658C656.808,3319.929,656.581,3320.618,655.821,3320.618Z" fill="#fff"/>
        <path id="Path_1269" data-name="Path 1269" d="M686.139,3381.571a1.032,1.032,0,0,1-1.144-1.033c-.768-4.813-1.611-9.522-2.3-14.231H669.137c-.227,1.145-1.607,9.64-2.3,14.231a.983.983,0,0,1-1.071,1.033h-5.283c-.766,0-1.3-.681-1-1.944l11.259-67.39c.15-.8.526-1.49,1.379-1.49h7.581c.764,0,1.144.231,1.373,1.378l11.569,67.265c.227.921.07,2.181-.838,2.181Zm-12.4-44.422-3.069,19.742h10.495l-3.065-19.4-2.139-14.351h-.225C675.117,3327.852,674.356,3332.445,673.738,3337.149Z" fill="#fff"/>
      </g>
    </g>
  </g>
</svg>
