<svg xmlns="http://www.w3.org/2000/svg" width="83.54" height="170.494" viewBox="0 0 83.54 170.494">
  <g id="Group_486" data-name="Group 486" transform="translate(-362.112 -4485.787)">
    <path id="Path_307" data-name="Path 307" d="M445.267,4564.545a7.085,7.085,0,0,0-9-4.4l-6.807,2.334v14.981l11.4-3.91A7.084,7.084,0,0,0,445.267,4564.545Z" fill="#a7a9ac"/>
    <path id="Path_308" data-name="Path 308" d="M409.392,4527.4a20.805,20.805,0,1,0-20.806-20.805A20.8,20.8,0,0,0,409.392,4527.4Z" fill="#a7a9ac"/>
    <path id="Path_309" data-name="Path 309" d="M426.766,4594.307a18.709,18.709,0,0,0,.51-4.324v-40.009a18.883,18.883,0,0,0-18.828-18.829h0a18.808,18.808,0,0,0-14.505,6.86,18.584,18.584,0,0,1,2.059,1.576c5.019,4.448,7.615,11.484,7.712,20.913.09,8.585-2.447,15.207-7.537,19.684a21.361,21.361,0,0,1-6.386,3.843c-.056.022-.114.041-.171.062v5.9a18.683,18.683,0,0,0,1.149,6.46l-1.505,23.028-15.842,9.049a9.447,9.447,0,1,0,9.372,16.4l20.253-11.567a9.453,9.453,0,0,0,4.74-7.588l1.108-16.97a18.693,18.693,0,0,0,2.674-.255l13.607,41.246a9.447,9.447,0,0,0,17.942-5.919Z" fill="#a7a9ac"/>
    <path id="Path_310" data-name="Path 310" d="M396.394,4560.569c-.075-7.273-1.841-12.491-5.246-15.507-.225-.2-.469-.378-.71-.56a18.693,18.693,0,0,0-.818,5.472v25.985a13.345,13.345,0,0,0,1.723-1.278C394.759,4571.674,396.46,4566.927,396.394,4560.569Z" fill="#a7a9ac"/>
    <path id="Path_311" data-name="Path 311" d="M372.5,4584.22s6.118.166,7.206.166a26.363,26.363,0,0,0,9.568-1.685,19.952,19.952,0,0,0,5.966-3.588c4.765-4.191,7.14-10.451,7.056-18.6-.094-9.013-2.526-15.7-7.236-19.868-3.6-3.193-8.453-4.8-14.449-4.8-1.181,0-6.834.2-6.834.2l-1.658,0a10.055,10.055,0,0,0-10.009,10.043l.049,28.128a10.056,10.056,0,0,0,10.043,10.01ZM392.087,4544c3.718,3.295,5.645,8.865,5.724,16.556.07,6.787-1.792,11.9-5.533,15.187a15.977,15.977,0,0,1-6.114,3.278l0-1.477-.061-35.108,0-1.479A14.037,14.037,0,0,1,392.087,4544Z" fill="#a7a9ac"/>
  </g>
</svg>
