<svg xmlns="http://www.w3.org/2000/svg" width="98.258" height="224.77" viewBox="0 0 98.258 224.77">
  <g id="Group_487" data-name="Group 487" transform="translate(-508.353 -4431.511)">
    <path id="Path_312" data-name="Path 312" d="M561.435,4454.752l-.425.133-.424-.133-15.163-4.759v12.885a22.218,22.218,0,1,0,31.175,0v-12.885Z" fill="#a7a9ac"/>
    <path id="Path_313" data-name="Path 313" d="M595.881,4442.455l-34.87-10.944-34.87,10.944,34.87,10.945Z" fill="#a7a9ac"/>
    <path id="Path_314" data-name="Path 314" d="M577.315,4567.9v-45.15a18.05,18.05,0,0,0-18-18h0a18.014,18.014,0,0,0-14.9,7.939l-27.678,20.731a7.086,7.086,0,0,0-2.745,6.816l4.251,25.957a7.085,7.085,0,1,0,13.984-2.291l-3.557-21.716,12.649-9.475v35.156l-2.76,40.984-23.745,7.915a9.447,9.447,0,1,0,5.975,17.924l29.755-9.919a9.445,9.445,0,0,0,6.44-8.326l1.969-29.2c.12,0,.241.009.365.009h0a17.838,17.838,0,0,0,3.842-.421l18.3,62.648a9.447,9.447,0,0,0,18.137-5.3Z" fill="#a7a9ac"/>
    <path id="Path_315" data-name="Path 315" d="M606.225,4538.66a7.085,7.085,0,0,0-9-4.405l-18.108,6.21v14.979l22.7-7.785A7.081,7.081,0,0,0,606.225,4538.66Z" fill="#a7a9ac"/>
  </g>
</svg>
