<svg xmlns="http://www.w3.org/2000/svg" width="122.909" height="219.764" viewBox="0 0 122.909 219.764">
  <g id="Group_488" data-name="Group 488" transform="translate(-649.627 -4436.517)">
    <path id="Path_316" data-name="Path 316" d="M741.951,4561.208a18.605,18.605,0,0,0,.1-1.882v-49.008a19.02,19.02,0,0,0-18.964-18.964h0a19,19,0,0,0-16.278,9.272l-28.361,21.243a7.088,7.088,0,0,0-2.769,4.686l-3.462,24.663a6.661,6.661,0,0,1,3.691-1.129,6.834,6.834,0,0,1,1.054.083l7.459,1.178a6.743,6.743,0,0,1,1.995.648l2.885-20.554,14.822-11.1v38.984a18.974,18.974,0,0,0,.217,2.859l-.468,6.959a8.587,8.587,0,0,1,.151,3.443l-.668,4.234-1.779,26.4-24.652,17.2a9.446,9.446,0,1,0,10.808,15.5l28.369-19.789a9.446,9.446,0,0,0,4.021-7.112l2.072-30.749c.3.014.594.024.893.024h0a18.871,18.871,0,0,0,2.981-.238l14.187,70.64a9.447,9.447,0,0,0,18.524-3.719ZM725.76,4544.1l-6.558-6.557,5.671-29.582-3.527-6.11h8.827l-3.528,6.11,5.671,29.582Z" fill="#a7a9ac"/>
    <path id="Path_317" data-name="Path 317" d="M772.151,4527.208a7.087,7.087,0,0,0-9-4.4l-19.274,6.609v14.981l23.87-8.185A7.084,7.084,0,0,0,772.151,4527.208Z" fill="#a7a9ac"/>
    <path id="Path_318" data-name="Path 318" d="M683.537,4556.912l-7.46-1.178a1.029,1.029,0,0,0-.174-.014,1.109,1.109,0,0,0-1.085.93l-.389,2.468,9.217,1.456a7.3,7.3,0,0,0,.512-.538l.3-1.865A1.1,1.1,0,0,0,683.537,4556.912Z" fill="#a7a9ac"/>
    <path id="Path_319" data-name="Path 319" d="M724.867,4483.339a23.411,23.411,0,1,0-23.412-23.411A23.41,23.41,0,0,0,724.867,4483.339Z" fill="#a7a9ac"/>
    <path id="Path_320" data-name="Path 320" d="M691.986,4600.332a7.3,7.3,0,0,0,7.186-6.139l3.446-21.827a7.294,7.294,0,0,0-6.05-8.318L688,4562.7l.613-3.868a5.324,5.324,0,0,0-4.422-6.078l-7.461-1.179a5.463,5.463,0,0,0-.831-.065,5.324,5.324,0,0,0-5.246,4.486l-.613,3.869-8.564-1.354a7.422,7.422,0,0,0-1.131-.088,7.3,7.3,0,0,0-7.186,6.137l-3.447,21.827a7.294,7.294,0,0,0,6.05,8.319l35.088,5.54A7.307,7.307,0,0,0,691.986,4600.332Zm-6.134-41.941-.61,3.869-12.434-1.963.611-3.869a2.512,2.512,0,0,1,2.88-2.093l7.459,1.178A2.52,2.52,0,0,1,685.852,4558.391Z" fill="#a7a9ac"/>
  </g>
</svg>
