<svg xmlns="http://www.w3.org/2000/svg" width="95.362" height="235.664" viewBox="0 0 95.362 235.664">
  <g id="Group_490" data-name="Group 490" transform="translate(-970.6 -4420.617)">
    <g id="Group_28" data-name="Group 28">
      <path id="Path_324" data-name="Path 324" d="M1032.776,4562.7a20.769,20.769,0,0,0,2.1-6.257l7.552-45.4a21.092,21.092,0,0,0-17.294-24.2l-3.841-.638a20.967,20.967,0,0,0-15.679,3.667l-31.36,19.231a7.085,7.085,0,0,0-3.381,6.006l-.166,34.8a7.084,7.084,0,0,0,7.052,7.118h.035a7.086,7.086,0,0,0,7.083-7.051l.148-30.859,10.552-6.471-6.031,36.245a20.846,20.846,0,0,0,.289,8.29v41.089l-18.443,42.182a9.447,9.447,0,1,0,17.313,7.568l19.233-43.99a9.446,9.446,0,0,0,.792-3.784V4573.41l1.95.324a20.885,20.885,0,0,0,5.209.208l16.332,74.9a9.447,9.447,0,1,0,18.461-4.026Z" fill="#a7a9ac"/>
      <path id="Path_325" data-name="Path 325" d="M1010.206,4451.694a23.41,23.41,0,1,0,40.385-11.268Z" fill="#a7a9ac"/>
      <path id="Path_326" data-name="Path 326" d="M1002.617,4451.837a1.647,1.647,0,0,0,1.254.154l51.867-14.471a1.654,1.654,0,0,0-.888-3.186l-7.963,2.222-2.983-10.692a7.674,7.674,0,0,0-.483-1.281,6.966,6.966,0,0,0-4.937-3.812,7.348,7.348,0,0,0-6.354,1.672l-6.88,6.012-8.37-1.623a7.379,7.379,0,0,0-6.7,2.1,6.915,6.915,0,0,0-1.874,6.388c.032.148.07.3.111.444l2.983,10.691-8.416,2.348a1.651,1.651,0,0,0-.367,3.031Z" fill="#a7a9ac"/>
      <path id="Path_327" data-name="Path 327" d="M1063.45,4550.717l-22.116-18.688-2.706,16.265,15.676,13.245a7.085,7.085,0,1,0,9.146-10.822Z" fill="#a7a9ac"/>
    </g>
  </g>
</svg>
