<svg xmlns="http://www.w3.org/2000/svg" width="132.008" height="206.288" viewBox="0 0 132.008 206.288">
  <g id="Group_491" data-name="Group 491" transform="translate(-1105.877 -4449.993)">
    <g id="Group_29" data-name="Group 29">
      <path id="Path_328" data-name="Path 328" d="M1167.981,4560.643l25.215-37.68a20.863,20.863,0,0,0-5.72-28.856h0c-3.707-2.481-7.5-3.376-12.232-3.538a37.406,37.406,0,0,0-8.773.665l-46.629,11.358a7.777,7.777,0,0,0-5.915,7.009l-2.33,33.362a7.774,7.774,0,0,0,7.211,8.3c.184.012.368.018.551.018a7.771,7.771,0,0,0,7.743-7.231l1.937-27.7,22.13-5.391-22.448,33.543c-1.128,1.688-4.948,7.288-4.967,12.145l.733,46.533-17.247,30.236a10.363,10.363,0,1,0,18,10.268l18.65-32.7a10.35,10.35,0,0,0,1.361-5.3l-.455-28.875a20.98,20.98,0,0,0,5.531-.428l15.393,67.047a10.363,10.363,0,0,0,20.2-4.637Z" fill="#a7a9ac"/>
      <path id="Path_329" data-name="Path 329" d="M1212.2,4501.351a25.679,25.679,0,1,0-25.679-25.679A25.68,25.68,0,0,0,1212.2,4501.351Z" fill="#a7a9ac"/>
      <path id="Path_330" data-name="Path 330" d="M1222.025,4538.394a3.116,3.116,0,0,0-3.3,2.881v4.519a7.767,7.767,0,0,0,6.6-3.843v-.676A3.117,3.117,0,0,0,1222.025,4538.394Z" fill="#a7a9ac"/>
      <path id="Path_331" data-name="Path 331" d="M1214.547,4530.16l-22.6-.519-10.255,15.325,26.156.591v-4.282A12.905,12.905,0,0,1,1214.547,4530.16Z" fill="#a7a9ac"/>
      <path id="Path_332" data-name="Path 332" d="M1222.025,4529.741c-6.964,0-12.629,5.174-12.629,11.534v111.457a3.9,3.9,0,0,0,7.772,0V4541.275a4.876,4.876,0,0,1,9.711,0v6.954a3.9,3.9,0,0,0,7.772,0v-6.954C1234.651,4534.915,1228.986,4529.741,1222.025,4529.741Z" fill="#a7a9ac"/>
    </g>
  </g>
</svg>
