<svg xmlns="http://www.w3.org/2000/svg" width="143.652" height="192.221" viewBox="0 0 143.652 192.221">
  <g id="Group_493" data-name="Group 493" transform="translate(-1414.236 -4469.201)">
    <path id="Path_333" data-name="Path 333" d="M1463.125,4563.294a48.893,48.893,0,1,0,48.889,48.893A48.952,48.952,0,0,0,1463.125,4563.294Zm0,92.51a43.618,43.618,0,1,1,0-87.236h0a43.618,43.618,0,0,1,0,87.236Z" fill="#a7a9ac"/>
    <path id="Path_334" data-name="Path 334" d="M1463.126,4600.121a12.067,12.067,0,1,0,12.067,12.068A12.082,12.082,0,0,0,1463.126,4600.121Z" fill="#a7a9ac"/>
    <path id="Path_335" data-name="Path 335" d="M1466.569,4513.414a16.036,16.036,0,0,0-15.981,17.07l.007,29.5a54.091,54.091,0,0,1,28.059.824c-2.331-4.736-9.357-19.04-10.3-21.286-1.258-2.988.026-4.808.081-4.885l.706-.972,13.2,27.719a7.963,7.963,0,0,0,1.617,1.338c.6.24,1.3.559,2,.886a7.768,7.768,0,0,0,2.028.275h33.49a7.661,7.661,0,0,0,0-15.321h-28.216l-12.177-25.951A16.117,16.117,0,0,0,1466.569,4513.414Z" fill="#a7a9ac"/>
    <path id="Path_336" data-name="Path 336" d="M1464.328,4508.268a19.533,19.533,0,1,0-19.52-19.531A19.555,19.555,0,0,0,1464.328,4508.268Z" fill="#a7a9ac"/>
    <path id="Path_337" data-name="Path 337" d="M1514.638,4576.637a10.163,10.163,0,0,0-1.669.138l-9.525.009a53.477,53.477,0,0,1,13.351,35.4c0,1.346-.061,2.758-.187,4.315l3.578,8.118a10.183,10.183,0,0,0,9.316,6.074h0a10.179,10.179,0,0,0,9.3-14.279l-14.86-33.721A10.173,10.173,0,0,0,1514.638,4576.637Z" fill="#a7a9ac"/>
    <path id="Path_338" data-name="Path 338" d="M1425.379,4546.382h13.311V4564.4c1.542-.787,3.159-1.513,4.827-2.169v-18.259a2.417,2.417,0,0,0-2.413-2.415l-15.725,0a2.414,2.414,0,1,0,0,4.828Z" fill="#a7a9ac"/>
    <path id="Path_339" data-name="Path 339" d="M1557.683,4625.378a2.454,2.454,0,0,0-3.181-1.236l-23.166,10.21a18.367,18.367,0,0,1,3.666,3.659l21.447-9.451A2.417,2.417,0,0,0,1557.683,4625.378Z" fill="#a7a9ac"/>
    <path id="Path_340" data-name="Path 340" d="M1520.306,4636.72a12.351,12.351,0,1,0,12.351,12.351A12.365,12.365,0,0,0,1520.306,4636.72Zm0,19.546a7.2,7.2,0,1,1,7.195-7.2A7.2,7.2,0,0,1,1520.306,4656.266Z" fill="#a7a9ac"/>
  </g>
</svg>
