<svg xmlns="http://www.w3.org/2000/svg" width="55px" height="55px" viewBox="0 0 70.363 81.716">
  <g id="Group_169" data-name="Group 169" transform="translate(-1156.872 -2159.335)">
    <path id="Path_584" data-name="Path 584" d="M1210.42,2175.861q.793-1.6,1.589-3.205a.938.938,0,0,0-.332-1.263l-3.728-1.848a.937.937,0,0,0-1.263.331q-.812,1.637-1.623,3.274-.463-.187-.934-.361a34.017,34.017,0,0,0-6.067-1.617V2167h.44a.95.95,0,0,0,.2,0h.01l.031,0a.875.875,0,0,0,.2-.051c1.826-.564,1.465-2.483,1.465-4.054,0-1.507.1-3.165-1.824-3.39-3.041-.358-6.331,0-9.392,0a35.9,35.9,0,0,0-3.682,0c-1.789.188-1.864,1.589-1.864,3.039s-.475,3.817,1.341,4.373a3.947,3.947,0,0,0,1,.152v4.172a35.187,35.187,0,1,0,12.89,69.178c16.382-3.2,28.241-17.968,28.365-34.545A35.733,35.733,0,0,0,1210.42,2175.861Zm6.145,44.591a28.478,28.478,0,0,1-18.958,13.51,28.917,28.917,0,0,1-19.67-3.219,1.057,1.057,0,0,1-.405-.231,28.209,28.209,0,0,1-14.1-24.435,1.049,1.049,0,0,1,0-.436,28.851,28.851,0,0,1,6.392-17.879,28.139,28.139,0,0,1,7.8-6.623,1.173,1.173,0,0,1,.2-.113,28.439,28.439,0,0,1,38.8,10.292,1.05,1.05,0,0,1,.3.528,28,28,0,0,1,.014,27.969A1.054,1.054,0,0,1,1216.565,2220.452Z" fill="#606060"/>
    <path id="Path_585" data-name="Path 585" d="M1216.363,2205.863a24.891,24.891,0,0,1-3.192,11.871l-.156.276-.159.269a23.911,23.911,0,0,1-20.737,11.954,24.863,24.863,0,0,1-12.151-3.2l-.194-.109-.152-.089a23.955,23.955,0,0,1-11.994-20.78v-.17l0-.2a24.64,24.64,0,0,1,5.44-15.24,23.8,23.8,0,0,1,6.623-5.62l.2-.116h0a24.94,24.94,0,0,1,11.994-3.215.237.237,0,0,1,.238.237l0,23.474a.236.236,0,0,0,.418.151l14.9-17.986a.235.235,0,0,1,.336-.029,24.659,24.659,0,0,1,5.122,6.139l.106.18.153.272A24.937,24.937,0,0,1,1216.363,2205.863Z" fill="#606060"/>
  </g>
</svg>
