<svg xmlns="http://www.w3.org/2000/svg" width="50px" height="50px" viewBox="0 0 93.01 91">
  <g id="Group_541" data-name="Group 541" transform="translate(-214.812 -1220.099)">
    <g id="Group_522" data-name="Group 522">
      <text id="_" data-name="=" transform="translate(260.174 1292.099)" fill="#606060" font-size="70.074" font-family="IBMPlexSans-SemiBold, IBM Plex Sans" font-weight="600"><tspan x="-21.022" y="0">=</tspan></text>
      <g id="Group_160" data-name="Group 160">
        <g id="Group_159" data-name="Group 159">
          <path id="Path_566" data-name="Path 566" d="M232.466,1240.971a5.071,5.071,0,1,0-5.071,5.072A5.07,5.07,0,0,0,232.466,1240.971Z" fill="#606060"/>
          <path id="Path_567" data-name="Path 567" d="M232.97,1247.715H221.819c-4.05,0-7.007,3.441-7.007,5.711v16.609a2.227,2.227,0,0,0,4.454,0v-14.844H220.9V1295.1a2.788,2.788,0,1,0,5.576,0v-22.836h1.841V1295.1a2.789,2.789,0,0,0,5.578,0v-39.906h1.629v14.844a2.229,2.229,0,0,0,4.457,0v-16.609C239.978,1251.156,237.02,1247.715,232.97,1247.715Z" fill="#606060"/>
        </g>
      </g>
      <g id="Group_161" data-name="Group 161">
        <path id="Path_568" data-name="Path 568" d="M298.036,1240.982a5.083,5.083,0,1,0-5.083,5.083A5.084,5.084,0,0,0,298.036,1240.982Z" fill="#606060"/>
        <path id="Path_569" data-name="Path 569" d="M307.712,1266.662l-5.135-15.837a5.42,5.42,0,0,0-4.872-3.267H288.2a5.421,5.421,0,0,0-4.871,3.267l-5.136,15.837a2.234,2.234,0,0,0,4.249,1.379l4.011-12.369,1.124-.66-5.615,20.723h5.505v19.873a2.277,2.277,0,1,0,4.554,0v-19.873h1.866v19.873a2.278,2.278,0,1,0,4.555,0v-19.873h5.5l-5.614-20.723,1.124.66,4.01,12.369a2.233,2.233,0,1,0,4.248-1.379Z" fill="#606060"/>
      </g>
    </g>
  </g>
</svg>
