<svg xmlns="http://www.w3.org/2000/svg" width="75.26" height="36.985" viewBox="0 0 104.26 61.985">
  <text id="_40_" data-name="40%" transform="translate(65.26 51.14)" fill="#606060" font-size="35.571" font-family="IBMPlexSans-SemiBold, IBM Plex Sans" font-weight="600"><tspan x="-38.417" y="0">40%</tspan></text>
  <g id="Group_163" data-name="Group 163" transform="translate(-680.868 -1229.105)">
    <g id="Group_162" data-name="Group 162">
      <path id="Path_570" data-name="Path 570" d="M698.522,1234.175a5.07,5.07,0,1,0-5.07,5.072A5.07,5.07,0,0,0,698.522,1234.175Z" fill="#606060"/>
      <path id="Path_571" data-name="Path 571" d="M699.026,1240.919h-11.15c-4.05,0-7.008,3.441-7.008,5.711v16.609a2.228,2.228,0,0,0,4.455,0V1248.4h1.631V1288.3a2.788,2.788,0,1,0,5.576,0v-22.836h1.841V1288.3a2.789,2.789,0,0,0,5.578,0V1248.4h1.629v14.844a2.228,2.228,0,0,0,4.456,0V1246.63C706.034,1244.36,703.076,1240.919,699.026,1240.919Z" fill="#606060"/>
    </g>
  </g>
</svg>
