<svg xmlns="http://www.w3.org/2000/svg" width="35px" height="45px" viewBox="0 0 59.089 92.34">
  <g id="Group_170" data-name="Group 170" transform="translate(-1629.161 -1227.288)">
    <path id="Path_586" data-name="Path 586" d="M1656.959,1276.817l11.288-16.866a9.34,9.34,0,0,0-2.561-12.917h0a9.838,9.838,0,0,0-5.475-1.583,16.719,16.719,0,0,0-3.927.3l-20.873,5.084a3.482,3.482,0,0,0-2.647,3.138l-1.043,14.934a3.479,3.479,0,0,0,3.227,3.713c.083.005.165.008.247.008a3.478,3.478,0,0,0,3.466-3.237l.867-12.4,9.906-2.413-10.048,15.015c-.505.755-2.215,3.262-2.223,5.436l.328,20.829-7.72,13.535a4.638,4.638,0,1,0,8.058,4.6l8.348-14.636a4.627,4.627,0,0,0,.609-2.371l-.2-12.925a9.387,9.387,0,0,0,2.476-.192l6.89,30.012a4.639,4.639,0,0,0,9.042-2.076Z" fill="#606060"/>
    <path id="Path_587" data-name="Path 587" d="M1676.755,1250.277a11.495,11.495,0,1,0-11.495-11.494A11.494,11.494,0,0,0,1676.755,1250.277Z" fill="#606060"/>
    <path id="Path_588" data-name="Path 588" d="M1681.151,1266.859a1.4,1.4,0,0,0-1.478,1.289v2.023a3.475,3.475,0,0,0,2.955-1.721v-.3A1.394,1.394,0,0,0,1681.151,1266.859Z" fill="#606060"/>
    <path id="Path_589" data-name="Path 589" d="M1677.8,1263.173l-10.119-.233-4.59,6.86,11.708.265v-1.917A5.776,5.776,0,0,1,1677.8,1263.173Z" fill="#606060"/>
    <path id="Path_590" data-name="Path 590" d="M1681.151,1262.985a5.431,5.431,0,0,0-5.653,5.163v49.891a1.747,1.747,0,0,0,3.479,0v-49.891a2.182,2.182,0,0,1,4.347,0v3.113a1.747,1.747,0,0,0,3.479,0v-3.113A5.431,5.431,0,0,0,1681.151,1262.985Z" fill="#606060"/>
  </g>
</svg>
