<svg xmlns="http://www.w3.org/2000/svg" width="40px" height="50px" viewBox="0 0 43.467 94.169">
  <g id="Group_167" data-name="Group 167" transform="translate(-1175.631 -1686.385)">
    <g id="Group_165" data-name="Group 165">
      <path id="Path_575" data-name="Path 575" d="M1193.022,1780.554a17.4,17.4,0,0,1-11.775-30.2V1698.16a11.775,11.775,0,1,1,23.55,0v52.194a17.4,17.4,0,0,1-11.775,30.2Zm0-89.017a6.63,6.63,0,0,0-6.623,6.623v54.634l-.983.774a12.132,12.132,0,0,0-4.634,9.595,12.24,12.24,0,1,0,24.48,0,12.132,12.132,0,0,0-4.634-9.595l-.982-.774V1698.16A6.631,6.631,0,0,0,1193.022,1691.537Z" fill="#606060"/>
    </g>
    <path id="Path_576" data-name="Path 576" d="M1196.334,1754.876v-30.455h-6.623v30.455a8.927,8.927,0,1,0,6.623,0Z" fill="#606060"/>
    <g id="Group_166" data-name="Group 166">
      <path id="Path_577" data-name="Path 577" d="M1219.1,1698.16a2.576,2.576,0,0,0-2.576-2.575h-9.281v5.151h9.281A2.576,2.576,0,0,0,1219.1,1698.16Z" fill="#606060"/>
      <path id="Path_578" data-name="Path 578" d="M1216.522,1742.955h-9.281v5.151h9.281a2.576,2.576,0,1,0,0-5.151Z" fill="#606060"/>
      <path id="Path_579" data-name="Path 579" d="M1216.522,1707.427h-9.281v5.152h9.281a2.576,2.576,0,1,0,0-5.152Z" fill="#606060"/>
      <path id="Path_580" data-name="Path 580" d="M1216.522,1719.27h-9.281v5.151h9.281a2.576,2.576,0,1,0,0-5.151Z" fill="#606060"/>
      <path id="Path_581" data-name="Path 581" d="M1216.522,1731.112h-9.281v5.152h9.281a2.576,2.576,0,1,0,0-5.152Z" fill="#606060"/>
    </g>
  </g>
</svg>
