<svg xmlns="http://www.w3.org/2000/svg" width="77.259" height="73.249" viewBox="0 0 77.259 73.249"><defs><style>.a{fill:#606060;stroke:#606060;stroke-miterlimit:10;stroke-width:2px;}</style></defs><g transform="translate(-1154.726 -2163.253)"><path class="a" d="M1230.537,2166.81l-15.031,14.693,2.274,6.494-2.812.983-2.379-6.785-6.226-2.825-4.625,4.377,2.714,2.864a1.491,1.491,0,0,1-2.167,2.05l-2.71-2.865-6.27,5.935,2.711,2.864a1.487,1.487,0,0,1-.059,2.1,1.471,1.471,0,0,1-1.023.409,1.5,1.5,0,0,1-1.082-.464l-2.71-2.867-7.21,6.822,2.714,2.867a1.49,1.49,0,1,1-2.167,2.047l-2.711-2.864-5.461,5.169,8.261,8.725,6.638-6.285,2.05,2.164-6.641,6.287,1.552,1.638a1.49,1.49,0,0,1-2.164,2.05l-6.423-6.785-13.1,11.859,5.222,5.516a1.489,1.489,0,1,1-2.164,2.047l-13.255-14a1.492,1.492,0,0,1,2.167-2.05l5.974,6.312,12.926-12.044-6.807-7.191a1.49,1.49,0,0,1,2.164-2.05l1.555,1.641,31.509-29.828,7.7,3.5,14.982-14.643a1.49,1.49,0,0,1,2.084,2.129Z"/><path class="a" d="M1221.609,2202.383h-.527V2194.4a1.573,1.573,0,0,0-1.467-1.6h-16.894a1.491,1.491,0,0,0-1.49,1.482v8.108h-.47c-2.493,0-4.5,1.647-4.513,3.779v24.54a4.137,4.137,0,0,0,4.4,3.839h20.851c2.49,0,4.447-1.706,4.457-3.839v-24.54C1225.958,2204.054,1224.071,2202.4,1221.609,2202.383Zm-17.417-6.513H1218.1v6.513h-13.906Zm18.779,34.83c0,.344-.578.86-1.476.86h-20.839c-.906,0-1.374-.516-1.374-.86v-24.485c0-.345.578-.852,1.488-.852H1221.6c.907,0,1.374.507,1.374.852Z"/></g></svg>