<svg xmlns="http://www.w3.org/2000/svg" width="1256.361" height="747.821" viewBox="0 0 1256.361 747.821">
  <g id="Group_546" data-name="Group 546" transform="translate(-331.819 -6987.066)">
    <line id="Line_1" data-name="Line 1" x2="375.714" transform="translate(772.843 7151.373)" fill="none" stroke="#606060" stroke-miterlimit="10" stroke-width="1.417"/>
    <g id="Group_498" data-name="Group 498">
      <g id="Group_57" data-name="Group 57">
        <path id="Path_403" data-name="Path 403" d="M677.791,6997.16a10.1,10.1,0,1,0-10.1,10.1A10.1,10.1,0,0,0,677.791,6997.16Z" fill="#a7a9ac"/>
        <path id="Path_404" data-name="Path 404" d="M697.013,7048.177l-10.2-31.464c-.886-2.756-4.8-6.489-9.678-6.489H658.248c-4.876,0-8.788,3.733-9.677,6.489l-10.2,31.464a4.437,4.437,0,1,0,8.441,2.74l7.968-24.574,2.234-1.31L645.855,7066.2h10.937v39.48a4.523,4.523,0,1,0,9.047,0V7066.2h3.706v39.48a4.526,4.526,0,0,0,9.051,0V7066.2h10.931l-11.153-41.168,2.234,1.31,7.965,24.574a4.437,4.437,0,1,0,8.44-2.74Z" fill="#a7a9ac"/>
      </g>
      <g id="Group_58" data-name="Group 58">
        <path id="Path_405" data-name="Path 405" d="M548.406,6997.16a10.1,10.1,0,1,0-10.1,10.1A10.1,10.1,0,0,0,548.406,6997.16Z" fill="#a7a9ac"/>
        <path id="Path_406" data-name="Path 406" d="M567.629,7048.177l-10.2-31.464c-.886-2.756-4.8-6.489-9.677-6.489H528.863c-4.876,0-8.787,3.733-9.677,6.489l-10.2,31.464a4.437,4.437,0,1,0,8.441,2.74l7.969-24.574,2.233-1.31L516.47,7066.2h10.937v39.48a4.523,4.523,0,1,0,9.047,0V7066.2h3.707v39.48a4.525,4.525,0,0,0,9.05,0V7066.2h10.931l-11.153-41.168,2.234,1.31,7.965,24.574a4.437,4.437,0,1,0,8.441-2.74Z" fill="#a7a9ac"/>
      </g>
      <g id="Group_61" data-name="Group 61">
        <g id="Group_60" data-name="Group 60">
          <g id="Group_59" data-name="Group 59">
            <path id="Path_407" data-name="Path 407" d="M513.286,6997.139a10.073,10.073,0,1,0-10.072,10.076A10.073,10.073,0,0,0,513.286,6997.139Z" fill="#606060"/>
            <path id="Path_408" data-name="Path 408" d="M514.288,7010.536H492.136c-8.047,0-13.921,6.836-13.921,11.347v33a4.424,4.424,0,0,0,8.849,0v-29.49h3.24v79.279a5.539,5.539,0,1,0,11.078,0V7059.3h3.657v45.366a5.54,5.54,0,0,0,11.081,0v-79.279h3.237v29.49a4.426,4.426,0,0,0,8.852,0v-33C528.209,7017.372,522.334,7010.536,514.288,7010.536Z" fill="#606060"/>
          </g>
        </g>
      </g>
      <g id="Group_64" data-name="Group 64">
        <g id="Group_63" data-name="Group 63">
          <g id="Group_62" data-name="Group 62">
            <path id="Path_409" data-name="Path 409" d="M449.91,6997.139a10.072,10.072,0,1,0-10.072,10.076A10.073,10.073,0,0,0,449.91,6997.139Z" fill="#606060"/>
            <path id="Path_410" data-name="Path 410" d="M450.912,7010.536H428.76c-8.046,0-13.921,6.836-13.921,11.347v33a4.424,4.424,0,0,0,8.849,0v-29.49h3.24v79.279a5.539,5.539,0,1,0,11.078,0V7059.3h3.657v45.366a5.54,5.54,0,0,0,11.081,0v-79.279h3.237v29.49a4.427,4.427,0,0,0,8.853,0v-33C464.834,7017.372,458.958,7010.536,450.912,7010.536Z" fill="#606060"/>
          </g>
        </g>
      </g>
      <g id="Group_67" data-name="Group 67">
        <g id="Group_66" data-name="Group 66">
          <g id="Group_65" data-name="Group 65">
            <path id="Path_411" data-name="Path 411" d="M483.765,6997.139a10.073,10.073,0,1,0-10.072,10.076A10.073,10.073,0,0,0,483.765,6997.139Z" fill="#606060"/>
            <path id="Path_412" data-name="Path 412" d="M484.767,7010.536H462.615c-8.047,0-13.921,6.836-13.921,11.347v33a4.424,4.424,0,0,0,8.849,0v-29.49h3.24v79.279a5.539,5.539,0,1,0,11.078,0V7059.3h3.657v45.366a5.54,5.54,0,0,0,11.081,0v-79.279h3.237v29.49a4.426,4.426,0,0,0,8.852,0v-33C498.688,7017.372,492.813,7010.536,484.767,7010.536Z" fill="#606060"/>
          </g>
        </g>
      </g>
      <g id="Group_70" data-name="Group 70">
        <g id="Group_69" data-name="Group 69">
          <g id="Group_68" data-name="Group 68">
            <path id="Path_413" data-name="Path 413" d="M645.921,6997.139a10.073,10.073,0,1,0-10.073,10.076A10.073,10.073,0,0,0,645.921,6997.139Z" fill="#606060"/>
            <path id="Path_414" data-name="Path 414" d="M646.923,7010.536H624.771c-8.047,0-13.921,6.836-13.921,11.347v33a4.424,4.424,0,0,0,8.849,0v-29.49h3.24v79.279a5.539,5.539,0,1,0,11.078,0V7059.3h3.657v45.366a5.54,5.54,0,0,0,11.081,0v-79.279h3.237v29.49a4.426,4.426,0,0,0,8.852,0v-33C660.844,7017.372,654.969,7010.536,646.923,7010.536Z" fill="#606060"/>
          </g>
        </g>
      </g>
      <g id="Group_73" data-name="Group 73">
        <g id="Group_72" data-name="Group 72">
          <g id="Group_71" data-name="Group 71">
            <path id="Path_415" data-name="Path 415" d="M583.477,6997.139a10.073,10.073,0,1,0-10.072,10.076A10.073,10.073,0,0,0,583.477,6997.139Z" fill="#606060"/>
            <path id="Path_416" data-name="Path 416" d="M584.479,7010.536H562.327c-8.046,0-13.921,6.836-13.921,11.347v33a4.424,4.424,0,0,0,8.849,0v-29.49h3.24v79.279a5.539,5.539,0,1,0,11.078,0V7059.3h3.657v45.366a5.54,5.54,0,0,0,11.081,0v-79.279h3.237v29.49a4.427,4.427,0,0,0,8.853,0v-33C598.4,7017.372,592.525,7010.536,584.479,7010.536Z" fill="#606060"/>
          </g>
        </g>
      </g>
      <g id="Group_74" data-name="Group 74">
        <path id="Path_417" data-name="Path 417" d="M466.463,6997.16a10.1,10.1,0,1,0-10.1,10.1A10.1,10.1,0,0,0,466.463,6997.16Z" fill="#a7a9ac"/>
        <path id="Path_418" data-name="Path 418" d="M485.686,7048.177l-10.2-31.464c-.886-2.756-4.8-6.489-9.678-6.489H446.92c-4.876,0-8.788,3.733-9.677,6.489l-10.2,31.464a4.437,4.437,0,1,0,8.441,2.74l7.968-24.574,2.234-1.31L434.527,7066.2h10.937v39.48a4.523,4.523,0,1,0,9.047,0V7066.2h3.706v39.48a4.525,4.525,0,0,0,9.051,0V7066.2H478.2l-11.153-41.168,2.234,1.31,7.965,24.574a4.437,4.437,0,1,0,8.441-2.74Z" fill="#a7a9ac"/>
      </g>
      <g id="Group_75" data-name="Group 75">
        <path id="Path_419" data-name="Path 419" d="M616.406,6997.16a10.1,10.1,0,1,0-10.1,10.1A10.1,10.1,0,0,0,616.406,6997.16Z" fill="#a7a9ac"/>
        <path id="Path_420" data-name="Path 420" d="M635.629,7048.177l-10.2-31.464c-.886-2.756-4.8-6.489-9.677-6.489H596.863c-4.876,0-8.787,3.733-9.677,6.489l-10.2,31.464a4.437,4.437,0,1,0,8.441,2.74l7.969-24.574,2.233-1.31L584.47,7066.2h10.937v39.48a4.523,4.523,0,1,0,9.047,0V7066.2h3.707v39.48a4.525,4.525,0,0,0,9.05,0V7066.2h10.931l-11.153-41.168,2.234,1.31,7.965,24.574a4.437,4.437,0,1,0,8.441-2.74Z" fill="#a7a9ac"/>
      </g>
    </g>
    <g id="Group_499" data-name="Group 499">
      <g id="Group_90" data-name="Group 90">
        <g id="Group_76" data-name="Group 76">
          <path id="Path_421" data-name="Path 421" d="M1485.72,6997.16a10.1,10.1,0,1,0-10.1,10.1A10.1,10.1,0,0,0,1485.72,6997.16Z" fill="#d02f34"/>
          <path id="Path_422" data-name="Path 422" d="M1504.943,7048.177l-10.2-31.464c-.886-2.756-4.8-6.489-9.677-6.489h-18.886c-4.876,0-8.787,3.733-9.677,6.489l-10.2,31.464a4.437,4.437,0,1,0,8.441,2.74l7.969-24.574,2.234-1.31-11.157,41.168h10.937v39.48a4.523,4.523,0,1,0,9.047,0V7066.2h3.707v39.48a4.525,4.525,0,0,0,9.05,0V7066.2h10.931l-11.153-41.168,2.234,1.31,7.965,24.574a4.437,4.437,0,1,0,8.441-2.74Z" fill="#d02f34"/>
        </g>
        <g id="Group_77" data-name="Group 77">
          <path id="Path_423" data-name="Path 423" d="M1356.335,6997.16a10.1,10.1,0,1,0-10.1,10.1A10.1,10.1,0,0,0,1356.335,6997.16Z" fill="#d02f34"/>
          <path id="Path_424" data-name="Path 424" d="M1375.558,7048.177l-10.2-31.464c-.886-2.756-4.8-6.489-9.677-6.489h-18.886c-4.876,0-8.787,3.733-9.677,6.489l-10.2,31.464a4.437,4.437,0,1,0,8.441,2.74l7.969-24.574,2.234-1.31L1324.4,7066.2h10.938v39.48a4.523,4.523,0,1,0,9.046,0V7066.2h3.707v39.48a4.525,4.525,0,0,0,9.05,0V7066.2h10.931l-11.153-41.168,2.234,1.31,7.965,24.574a4.437,4.437,0,1,0,8.441-2.74Z" fill="#d02f34"/>
        </g>
        <g id="Group_79" data-name="Group 79">
          <g id="Group_78" data-name="Group 78">
            <path id="Path_425" data-name="Path 425" d="M1321.216,6997.139a10.073,10.073,0,1,0-10.073,10.076A10.073,10.073,0,0,0,1321.216,6997.139Z" fill="#222b3e"/>
            <path id="Path_426" data-name="Path 426" d="M1322.217,7010.536h-22.152c-8.046,0-13.921,6.836-13.921,11.347v33a4.424,4.424,0,0,0,8.849,0v-29.49h3.24v79.279a5.539,5.539,0,1,0,11.078,0V7059.3h3.657v45.366a5.54,5.54,0,0,0,11.081,0v-79.279h3.237v29.49a4.427,4.427,0,0,0,8.853,0v-33C1336.139,7017.372,1330.263,7010.536,1322.217,7010.536Z" fill="#222b3e"/>
          </g>
        </g>
        <g id="Group_81" data-name="Group 81">
          <g id="Group_80" data-name="Group 80">
            <path id="Path_427" data-name="Path 427" d="M1257.84,6997.139a10.073,10.073,0,1,0-10.073,10.076A10.073,10.073,0,0,0,1257.84,6997.139Z" fill="#222b3e"/>
            <path id="Path_428" data-name="Path 428" d="M1258.841,7010.536h-22.152c-8.046,0-13.921,6.836-13.921,11.347v33a4.425,4.425,0,0,0,8.85,0v-29.49h3.24v79.279a5.539,5.539,0,1,0,11.077,0V7059.3h3.657v45.366a5.54,5.54,0,0,0,11.081,0v-79.279h3.237v29.49a4.426,4.426,0,0,0,8.853,0v-33C1272.763,7017.372,1266.887,7010.536,1258.841,7010.536Z" fill="#222b3e"/>
          </g>
        </g>
        <g id="Group_83" data-name="Group 83">
          <g id="Group_82" data-name="Group 82">
            <path id="Path_429" data-name="Path 429" d="M1291.695,6997.139a10.073,10.073,0,1,0-10.073,10.076A10.073,10.073,0,0,0,1291.695,6997.139Z" fill="#222b3e"/>
            <path id="Path_430" data-name="Path 430" d="M1292.7,7010.536h-22.152c-8.046,0-13.921,6.836-13.921,11.347v33a4.424,4.424,0,0,0,8.849,0v-29.49h3.24v79.279a5.539,5.539,0,1,0,11.078,0V7059.3h3.657v45.366a5.54,5.54,0,0,0,11.081,0v-79.279h3.237v29.49a4.427,4.427,0,0,0,8.853,0v-33C1306.618,7017.372,1300.742,7010.536,1292.7,7010.536Z" fill="#222b3e"/>
          </g>
        </g>
        <g id="Group_85" data-name="Group 85">
          <g id="Group_84" data-name="Group 84">
            <path id="Path_431" data-name="Path 431" d="M1453.85,6997.139a10.073,10.073,0,1,0-10.072,10.076A10.073,10.073,0,0,0,1453.85,6997.139Z" fill="#222b3e"/>
            <path id="Path_432" data-name="Path 432" d="M1454.852,7010.536H1432.7c-8.046,0-13.921,6.836-13.921,11.347v33a4.424,4.424,0,0,0,8.849,0v-29.49h3.24v79.279a5.539,5.539,0,1,0,11.078,0V7059.3h3.657v45.366a5.54,5.54,0,0,0,11.081,0v-79.279h3.237v29.49a4.427,4.427,0,0,0,8.853,0v-33C1468.774,7017.372,1462.9,7010.536,1454.852,7010.536Z" fill="#222b3e"/>
          </g>
        </g>
        <g id="Group_87" data-name="Group 87">
          <g id="Group_86" data-name="Group 86">
            <path id="Path_433" data-name="Path 433" d="M1391.407,6997.139a10.073,10.073,0,1,0-10.073,10.076A10.073,10.073,0,0,0,1391.407,6997.139Z" fill="#222b3e"/>
            <path id="Path_434" data-name="Path 434" d="M1392.408,7010.536h-22.152c-8.046,0-13.921,6.836-13.921,11.347v33a4.425,4.425,0,0,0,8.85,0v-29.49h3.24v79.279a5.538,5.538,0,1,0,11.077,0V7059.3h3.657v45.366a5.54,5.54,0,0,0,11.081,0v-79.279h3.237v29.49a4.426,4.426,0,0,0,8.853,0v-33C1406.33,7017.372,1400.454,7010.536,1392.408,7010.536Z" fill="#222b3e"/>
          </g>
        </g>
        <g id="Group_88" data-name="Group 88">
          <path id="Path_435" data-name="Path 435" d="M1274.392,6997.16a10.1,10.1,0,1,0-10.1,10.1A10.1,10.1,0,0,0,1274.392,6997.16Z" fill="#d02f34"/>
          <path id="Path_436" data-name="Path 436" d="M1293.615,7048.177l-10.2-31.464c-.886-2.756-4.8-6.489-9.677-6.489h-18.886c-4.876,0-8.787,3.733-9.677,6.489l-10.2,31.464a4.437,4.437,0,1,0,8.441,2.74l7.969-24.574,2.234-1.31-11.157,41.168h10.937v39.48a4.523,4.523,0,1,0,9.047,0V7066.2h3.707v39.48a4.525,4.525,0,0,0,9.05,0V7066.2h10.931l-11.153-41.168,2.234,1.31,7.965,24.574a4.437,4.437,0,1,0,8.441-2.74Z" fill="#d02f34"/>
        </g>
        <g id="Group_89" data-name="Group 89">
          <path id="Path_437" data-name="Path 437" d="M1424.335,6997.16a10.1,10.1,0,1,0-10.1,10.1A10.1,10.1,0,0,0,1424.335,6997.16Z" fill="#d02f34"/>
          <path id="Path_438" data-name="Path 438" d="M1443.558,7048.177l-10.2-31.464c-.886-2.756-4.8-6.489-9.677-6.489h-18.886c-4.876,0-8.787,3.733-9.677,6.489l-10.2,31.464a4.437,4.437,0,1,0,8.441,2.74l7.969-24.574,2.234-1.31L1392.4,7066.2h10.938v39.48a4.523,4.523,0,1,0,9.046,0V7066.2h3.707v39.48a4.525,4.525,0,0,0,9.05,0V7066.2h10.931l-11.153-41.168,2.234,1.31,7.965,24.574a4.437,4.437,0,1,0,8.441-2.74Z" fill="#d02f34"/>
        </g>
      </g>
    </g>
    <rect id="Rectangle_10" data-name="Rectangle 10" width="207.164" height="82.333" transform="translate(856.418 7110.206)" fill="#222b3e"/>
    <rect id="Rectangle_11" data-name="Rectangle 11" width="448.432" height="82.333" transform="translate(331.819 7110.206)" fill="#222b3e"/>
    <text id="Cases_Median_Age_45" data-name="Cases Median Age  45" transform="translate(556.035 7165.948)" fill="#fff" font-size="27.774" font-family="IBMPlexSans, IBM Plex Sans"><tspan x="-149.803" y="0" xml:space="preserve">Cases Median Age  </tspan><tspan y="0" font-size="50" font-family="IBMPlexSans-SemiBold, IBM Plex Sans" font-weight="600">45</tspan></text>
    <rect id="Rectangle_12" data-name="Rectangle 12" width="448.432" height="82.333" transform="translate(1139.749 7110.206)" fill="#222b3e"/>
    <text id="Population_Age_38" data-name="Population Age  38" transform="translate(1363.964 7165.948)" fill="#fff" font-size="27.774" font-family="IBMPlexSans, IBM Plex Sans"><tspan x="-130.667" y="0" xml:space="preserve">Population Age  </tspan><tspan y="0" font-size="50" font-family="IBMPlexSans-SemiBold, IBM Plex Sans" font-weight="600">38</tspan></text>
    <line id="Line_2" data-name="Line 2" x2="375.714" transform="translate(772.843 7421.077)" fill="none" stroke="#606060" stroke-miterlimit="10" stroke-width="1.417"/>
    <rect id="Rectangle_13" data-name="Rectangle 13" width="207.164" height="82.333" transform="translate(856.418 7379.91)" fill="#222b3e"/>
    <g id="Group_500" data-name="Group 500">
      <g id="Group_91" data-name="Group 91">
        <path id="Path_439" data-name="Path 439" d="M493.606,7320.156a1.8,1.8,0,0,0-1.8,1.8v5.318a4.583,4.583,0,0,0,2.3-7.043A1.819,1.819,0,0,0,493.606,7320.156Z" fill="#a7a9ac"/>
        <path id="Path_440" data-name="Path 440" d="M474.942,7314.363a66.378,66.378,0,0,0,.131,9.485l10.556,2.612v-4.507a7.918,7.918,0,0,1,1.457-4.584Z" fill="#a7a9ac"/>
        <path id="Path_441" data-name="Path 441" d="M476.646,7348.491l-12.608.3,7.684,27.848a6.119,6.119,0,0,0,5.893,4.492,6.225,6.225,0,0,0,1.631-.221,6.119,6.119,0,0,0,4.269-7.525Z" fill="#a7a9ac"/>
        <path id="Path_442" data-name="Path 442" d="M448.515,7353.946l-9.98,16.61a6.117,6.117,0,1,0,10.487,6.3l10.747-17.885a6.126,6.126,0,0,0,.861-2.763l.468-7.35-12.277.289Z" fill="#a7a9ac"/>
        <path id="Path_443" data-name="Path 443" d="M442.052,7322.021a4.584,4.584,0,0,0,5.156-3.94l1.661-12.435,5.932-1.5,1.775-.449a82.024,82.024,0,0,0-14.006,44.285.079.079,0,0,0,.024.06.088.088,0,0,0,.062.025l36.993-.876a.07.07,0,0,0,.065-.035.084.084,0,0,0,.007-.081h0c-6.714-15.726-7.925-32.081-3.506-47.3a6.384,6.384,0,0,0-.357-4.753,15.109,15.109,0,0,0-3.724-3.715,4.557,4.557,0,0,0-2.978-.254l-4.764,1.2-20.782,5.251a4.59,4.59,0,0,0-3.424,3.84l-2.074,15.513A4.589,4.589,0,0,0,442.052,7322.021Z" fill="#a7a9ac"/>
        <path id="Path_444" data-name="Path 444" d="M493.606,7314.9a7.066,7.066,0,0,0-7.059,7.057v56.63a2.173,2.173,0,1,0,4.345,0v-56.63a2.714,2.714,0,0,1,5.428,0v4.258a2.173,2.173,0,0,0,4.345,0v-4.258A7.065,7.065,0,0,0,493.606,7314.9Z" fill="#a7a9ac"/>
        <path id="Path_445" data-name="Path 445" d="M472.731,7270.719a16.029,16.029,0,1,0,13.556-7.477,16.164,16.164,0,0,0-2.534.2,8.326,8.326,0,0,0-1.942-3.038c-2.992-2.992-7.6-3.239-10.283-.553s-2.441,7.292.551,10.284A8.691,8.691,0,0,0,472.731,7270.719Z" fill="#a7a9ac"/>
      </g>
      <g id="Group_92" data-name="Group 92">
        <path id="Path_446" data-name="Path 446" d="M537.443,7325l14.8-22.112a12.245,12.245,0,0,0-3.357-16.935h0a12.912,12.912,0,0,0-7.179-2.076,21.992,21.992,0,0,0-5.148.39l-27.365,6.666a4.562,4.562,0,0,0-3.47,4.113l-1.368,19.579a4.562,4.562,0,0,0,4.232,4.868c.108.007.216.011.323.011a4.56,4.56,0,0,0,4.544-4.244l1.137-16.253,12.987-3.164L514.4,7315.531c-.662.991-2.9,4.277-2.915,7.127l.431,27.308L501.8,7367.71a6.081,6.081,0,1,0,10.565,6.026l10.945-19.188a6.069,6.069,0,0,0,.8-3.109l-.267-16.945a12.312,12.312,0,0,0,3.247-.251l9.033,39.346a6.081,6.081,0,0,0,11.854-2.721Z" fill="#606060"/>
        <path id="Path_447" data-name="Path 447" d="M563.4,7290.208a15.07,15.07,0,1,0-15.069-15.07A15.07,15.07,0,0,0,563.4,7290.208Z" fill="#606060"/>
        <path id="Path_448" data-name="Path 448" d="M569.159,7311.946a1.83,1.83,0,0,0-1.938,1.691v2.652a4.556,4.556,0,0,0,3.875-2.255v-.4A1.83,1.83,0,0,0,569.159,7311.946Z" fill="#606060"/>
        <path id="Path_449" data-name="Path 449" d="M564.77,7307.114l-13.265-.3-6.019,8.993,15.35.347v-2.513A7.578,7.578,0,0,1,564.77,7307.114Z" fill="#606060"/>
        <path id="Path_450" data-name="Path 450" d="M569.159,7306.868c-4.087,0-7.411,3.037-7.411,6.769v65.409a2.29,2.29,0,0,0,4.561,0v-65.409a2.861,2.861,0,0,1,5.7,0v4.081a2.29,2.29,0,0,0,4.562,0v-4.081C576.569,7309.9,573.244,7306.868,569.159,7306.868Z" fill="#606060"/>
      </g>
      <g id="Group_93" data-name="Group 93">
        <path id="Path_451" data-name="Path 451" d="M633.386,7325l14.8-22.112a12.244,12.244,0,0,0-3.357-16.935h0a12.906,12.906,0,0,0-7.178-2.076,22,22,0,0,0-5.149.39l-27.364,6.666a4.562,4.562,0,0,0-3.471,4.113l-1.367,19.579a4.561,4.561,0,0,0,4.231,4.868c.108.007.216.011.324.011a4.56,4.56,0,0,0,4.544-4.244l1.137-16.253,12.986-3.164-13.173,19.685c-.662.991-2.9,4.277-2.915,7.127l.43,27.308-10.121,17.744a6.081,6.081,0,1,0,10.565,6.026l10.944-19.188a6.07,6.07,0,0,0,.8-3.109l-.267-16.945a12.3,12.3,0,0,0,3.246-.251l9.034,39.346a6.081,6.081,0,0,0,11.854-2.721Z" fill="#606060"/>
        <path id="Path_452" data-name="Path 452" d="M659.339,7290.208a15.07,15.07,0,1,0-15.07-15.07A15.071,15.071,0,0,0,659.339,7290.208Z" fill="#606060"/>
        <path id="Path_453" data-name="Path 453" d="M665.1,7311.946a1.829,1.829,0,0,0-1.937,1.691v2.652a4.554,4.554,0,0,0,3.874-2.255v-.4A1.829,1.829,0,0,0,665.1,7311.946Z" fill="#606060"/>
        <path id="Path_454" data-name="Path 454" d="M660.714,7307.114l-13.266-.3-6.018,8.993,15.349.347v-2.513A7.577,7.577,0,0,1,660.714,7307.114Z" fill="#606060"/>
        <path id="Path_455" data-name="Path 455" d="M665.1,7306.868c-4.086,0-7.411,3.037-7.411,6.769v65.409a2.29,2.29,0,0,0,4.561,0v-65.409a2.861,2.861,0,0,1,5.7,0v4.081a2.29,2.29,0,0,0,4.561,0v-4.081C672.512,7309.9,669.188,7306.868,665.1,7306.868Z" fill="#606060"/>
      </g>
      <g id="Group_94" data-name="Group 94">
        <path id="Path_456" data-name="Path 456" d="M617.527,7320.156a1.8,1.8,0,0,0-1.8,1.8v5.318a4.583,4.583,0,0,0,2.3-7.043A1.82,1.82,0,0,0,617.527,7320.156Z" fill="#a7a9ac"/>
        <path id="Path_457" data-name="Path 457" d="M598.863,7314.363a66.378,66.378,0,0,0,.131,9.485l10.556,2.612v-4.507a7.925,7.925,0,0,1,1.456-4.584Z" fill="#a7a9ac"/>
        <path id="Path_458" data-name="Path 458" d="M600.567,7348.491l-12.608.3,7.684,27.848a6.119,6.119,0,0,0,5.893,4.492,6.212,6.212,0,0,0,1.63-.221,6.119,6.119,0,0,0,4.27-7.525Z" fill="#a7a9ac"/>
        <path id="Path_459" data-name="Path 459" d="M572.436,7353.946l-9.98,16.61a6.117,6.117,0,1,0,10.487,6.3l10.747-17.885a6.126,6.126,0,0,0,.861-2.763l.468-7.35-12.277.289Z" fill="#a7a9ac"/>
        <path id="Path_460" data-name="Path 460" d="M565.973,7322.021a4.584,4.584,0,0,0,5.156-3.94l1.661-12.435,5.932-1.5,1.775-.449a82.024,82.024,0,0,0-14.006,44.285.078.078,0,0,0,.024.06.088.088,0,0,0,.062.025l36.993-.876a.07.07,0,0,0,.065-.035.084.084,0,0,0,.007-.081h0c-6.714-15.726-7.926-32.081-3.506-47.3a6.384,6.384,0,0,0-.357-4.753,15.109,15.109,0,0,0-3.724-3.715,4.557,4.557,0,0,0-2.978-.254l-4.764,1.2-20.782,5.251a4.59,4.59,0,0,0-3.424,3.84l-2.074,15.513A4.589,4.589,0,0,0,565.973,7322.021Z" fill="#a7a9ac"/>
        <path id="Path_461" data-name="Path 461" d="M617.527,7314.9a7.066,7.066,0,0,0-7.059,7.057v56.63a2.172,2.172,0,1,0,4.345,0v-56.63a2.714,2.714,0,0,1,5.428,0v4.258a2.172,2.172,0,0,0,4.345,0v-4.258A7.065,7.065,0,0,0,617.527,7314.9Z" fill="#a7a9ac"/>
        <path id="Path_462" data-name="Path 462" d="M596.652,7270.719a16.029,16.029,0,1,0,13.556-7.477,16.163,16.163,0,0,0-2.534.2,8.327,8.327,0,0,0-1.942-3.038c-2.992-2.992-7.6-3.239-10.283-.553s-2.441,7.292.551,10.284A8.5,8.5,0,0,0,596.652,7270.719Z" fill="#a7a9ac"/>
      </g>
    </g>
    <g id="Group_501" data-name="Group 501">
      <g id="Group_99" data-name="Group 99">
        <g id="Group_95" data-name="Group 95">
          <path id="Path_463" data-name="Path 463" d="M1442.144,7325l14.8-22.112a12.244,12.244,0,0,0-3.357-16.935h0a12.906,12.906,0,0,0-7.178-2.076,22,22,0,0,0-5.149.39l-27.364,6.666a4.562,4.562,0,0,0-3.471,4.113l-1.367,19.579a4.561,4.561,0,0,0,4.231,4.868c.109.007.216.011.324.011a4.561,4.561,0,0,0,4.544-4.244l1.137-16.253,12.987-3.164-13.174,19.685c-.662.991-2.9,4.277-2.915,7.127l.43,27.308L1406.5,7367.71a6.081,6.081,0,1,0,10.565,6.026l10.944-19.188a6.061,6.061,0,0,0,.8-3.109l-.267-16.945a12.3,12.3,0,0,0,3.246-.251l9.034,39.346a6.081,6.081,0,0,0,11.854-2.721Z" fill="#222b3e"/>
          <path id="Path_464" data-name="Path 464" d="M1468.1,7290.208a15.07,15.07,0,1,0-15.07-15.07A15.071,15.071,0,0,0,1468.1,7290.208Z" fill="#222b3e"/>
          <path id="Path_465" data-name="Path 465" d="M1473.859,7311.946a1.829,1.829,0,0,0-1.937,1.691v2.652a4.557,4.557,0,0,0,3.875-2.255v-.4A1.83,1.83,0,0,0,1473.859,7311.946Z" fill="#222b3e"/>
          <path id="Path_466" data-name="Path 466" d="M1469.471,7307.114l-13.266-.3-6.018,8.993,15.35.347v-2.513A7.576,7.576,0,0,1,1469.471,7307.114Z" fill="#222b3e"/>
          <path id="Path_467" data-name="Path 467" d="M1473.859,7306.868c-4.086,0-7.411,3.037-7.411,6.769v65.409a2.29,2.29,0,0,0,4.561,0v-65.409a2.861,2.861,0,0,1,5.7,0v4.081a2.29,2.29,0,0,0,4.561,0v-4.081C1481.269,7309.9,1477.945,7306.868,1473.859,7306.868Z" fill="#222b3e"/>
        </g>
        <g id="Group_96" data-name="Group 96">
          <path id="Path_468" data-name="Path 468" d="M1300.708,7320.156a1.8,1.8,0,0,0-1.8,1.8v5.318a4.583,4.583,0,0,0,2.294-7.043A1.817,1.817,0,0,0,1300.708,7320.156Z" fill="#d02f34"/>
          <path id="Path_469" data-name="Path 469" d="M1282.044,7314.363a66.4,66.4,0,0,0,.13,9.485l10.557,2.612v-4.507a7.924,7.924,0,0,1,1.456-4.584Z" fill="#d02f34"/>
          <path id="Path_470" data-name="Path 470" d="M1283.748,7348.491l-12.609.3,7.685,27.848a6.119,6.119,0,0,0,5.893,4.492,6.223,6.223,0,0,0,1.63-.221,6.118,6.118,0,0,0,4.269-7.525Z" fill="#d02f34"/>
          <path id="Path_471" data-name="Path 471" d="M1255.617,7353.946l-9.98,16.61a6.117,6.117,0,1,0,10.487,6.3l10.747-17.885a6.137,6.137,0,0,0,.861-2.763l.467-7.35-12.276.289Z" fill="#d02f34"/>
          <path id="Path_472" data-name="Path 472" d="M1249.154,7322.021a4.583,4.583,0,0,0,5.155-3.94l1.662-12.435,5.931-1.5,1.776-.449a82.016,82.016,0,0,0-14.007,44.285.083.083,0,0,0,.024.06.09.09,0,0,0,.062.025l36.994-.876a.071.071,0,0,0,.065-.035.084.084,0,0,0,.006-.081h0c-6.713-15.726-7.925-32.081-3.505-47.3a6.394,6.394,0,0,0-.357-4.753,15.1,15.1,0,0,0-3.725-3.715,4.557,4.557,0,0,0-2.978-.254l-4.763,1.2-20.782,5.251a4.589,4.589,0,0,0-3.424,3.84l-2.074,15.513A4.588,4.588,0,0,0,1249.154,7322.021Z" fill="#d02f34"/>
          <path id="Path_473" data-name="Path 473" d="M1300.708,7314.9a7.066,7.066,0,0,0-7.06,7.057v56.63a2.173,2.173,0,0,0,4.346,0v-56.63a2.714,2.714,0,0,1,5.428,0v4.258a2.172,2.172,0,0,0,4.345,0v-4.258A7.066,7.066,0,0,0,1300.708,7314.9Z" fill="#d02f34"/>
          <path id="Path_474" data-name="Path 474" d="M1279.833,7270.719a16.028,16.028,0,1,0,13.555-7.477,16.161,16.161,0,0,0-2.533.2,8.315,8.315,0,0,0-1.943-3.038c-2.991-2.992-7.6-3.239-10.283-.553s-2.44,7.292.551,10.284A8.7,8.7,0,0,0,1279.833,7270.719Z" fill="#d02f34"/>
        </g>
        <g id="Group_97" data-name="Group 97">
          <path id="Path_475" data-name="Path 475" d="M1344.544,7325l14.8-22.112a12.244,12.244,0,0,0-3.357-16.935h0a12.906,12.906,0,0,0-7.178-2.076,22,22,0,0,0-5.149.39l-27.364,6.666a4.562,4.562,0,0,0-3.471,4.113l-1.367,19.579a4.561,4.561,0,0,0,4.231,4.868c.108.007.216.011.324.011a4.561,4.561,0,0,0,4.544-4.244l1.137-16.253,12.986-3.164-13.173,19.685c-.662.991-2.9,4.277-2.915,7.127l.43,27.308L1308.9,7367.71a6.081,6.081,0,1,0,10.565,6.026l10.944-19.188a6.061,6.061,0,0,0,.8-3.109l-.267-16.945a12.3,12.3,0,0,0,3.246-.251l9.034,39.346a6.081,6.081,0,0,0,11.854-2.721Z" fill="#222b3e"/>
          <path id="Path_476" data-name="Path 476" d="M1370.5,7290.208a15.07,15.07,0,1,0-15.07-15.07A15.071,15.071,0,0,0,1370.5,7290.208Z" fill="#222b3e"/>
          <path id="Path_477" data-name="Path 477" d="M1376.26,7311.946a1.829,1.829,0,0,0-1.937,1.691v2.652a4.554,4.554,0,0,0,3.874-2.255v-.4A1.829,1.829,0,0,0,1376.26,7311.946Z" fill="#222b3e"/>
          <path id="Path_478" data-name="Path 478" d="M1371.872,7307.114l-13.266-.3-6.018,8.993,15.35.347v-2.513A7.576,7.576,0,0,1,1371.872,7307.114Z" fill="#222b3e"/>
          <path id="Path_479" data-name="Path 479" d="M1376.26,7306.868c-4.086,0-7.411,3.037-7.411,6.769v65.409a2.29,2.29,0,0,0,4.561,0v-65.409a2.861,2.861,0,0,1,5.7,0v4.081a2.29,2.29,0,0,0,4.561,0v-4.081C1383.67,7309.9,1380.346,7306.868,1376.26,7306.868Z" fill="#222b3e"/>
        </g>
        <g id="Group_98" data-name="Group 98">
          <path id="Path_480" data-name="Path 480" d="M1424.629,7320.156a1.8,1.8,0,0,0-1.8,1.8v5.318a4.583,4.583,0,0,0,2.294-7.043A1.817,1.817,0,0,0,1424.629,7320.156Z" fill="#d02f34"/>
          <path id="Path_481" data-name="Path 481" d="M1405.965,7314.363a66.4,66.4,0,0,0,.13,9.485l10.557,2.612v-4.507a7.924,7.924,0,0,1,1.456-4.584Z" fill="#d02f34"/>
          <path id="Path_482" data-name="Path 482" d="M1407.669,7348.491l-12.609.3,7.685,27.848a6.119,6.119,0,0,0,5.893,4.492,6.222,6.222,0,0,0,1.63-.221,6.119,6.119,0,0,0,4.269-7.525Z" fill="#d02f34"/>
          <path id="Path_483" data-name="Path 483" d="M1379.538,7353.946l-9.981,16.61a6.118,6.118,0,1,0,10.488,6.3l10.746-17.885a6.126,6.126,0,0,0,.862-2.763l.467-7.35-12.276.289Z" fill="#d02f34"/>
          <path id="Path_484" data-name="Path 484" d="M1373.075,7322.021a4.583,4.583,0,0,0,5.155-3.94l1.662-12.435,5.931-1.5,1.776-.449a82.016,82.016,0,0,0-14.007,44.285.083.083,0,0,0,.024.06.09.09,0,0,0,.062.025l36.994-.876a.071.071,0,0,0,.065-.035.084.084,0,0,0,.006-.081h0c-6.713-15.726-7.925-32.081-3.505-47.3a6.394,6.394,0,0,0-.357-4.753,15.1,15.1,0,0,0-3.725-3.715,4.557,4.557,0,0,0-2.978-.254l-4.763,1.2-20.783,5.251a4.589,4.589,0,0,0-3.423,3.84l-2.074,15.513A4.588,4.588,0,0,0,1373.075,7322.021Z" fill="#d02f34"/>
          <path id="Path_485" data-name="Path 485" d="M1424.629,7314.9a7.066,7.066,0,0,0-7.06,7.057v56.63a2.173,2.173,0,0,0,4.346,0v-56.63a2.714,2.714,0,0,1,5.428,0v4.258a2.172,2.172,0,0,0,4.345,0v-4.258A7.066,7.066,0,0,0,1424.629,7314.9Z" fill="#d02f34"/>
          <path id="Path_486" data-name="Path 486" d="M1403.754,7270.719a16.028,16.028,0,1,0,13.555-7.477,16.16,16.16,0,0,0-2.533.2,8.315,8.315,0,0,0-1.943-3.038c-2.991-2.992-7.6-3.239-10.283-.553s-2.44,7.292.551,10.284A8.724,8.724,0,0,0,1403.754,7270.719Z" fill="#d02f34"/>
        </g>
      </g>
    </g>
    <text id="_1_4" data-name="1,4" transform="translate(960 7441.4)" fill="#fff" font-size="55" font-family="IBMPlexSans-SemiBold, IBM Plex Sans" font-weight="600"><tspan x="-41.222" y="0">1,4</tspan></text>
    <text id="_1_2" data-name="1,2" transform="translate(960 7168)" fill="#fff" font-size="55" font-family="IBMPlexSans-SemiBold, IBM Plex Sans" font-weight="600"><tspan x="-41.222" y="0">1,2</tspan></text>
    <rect id="Rectangle_14" data-name="Rectangle 14" width="448.432" height="82.333" transform="translate(331.819 7379.91)" fill="#222b3e"/>
    <text id="Cases_Age_70_11_" data-name="Cases Age 70+ (11%)" transform="translate(556.036 7435.651)" fill="#fff" font-size="27.774" font-family="IBMPlexSans, IBM Plex Sans"><tspan x="-176.516" y="0">Cases Age </tspan><tspan y="0" font-size="50" font-family="IBMPlexSans-SemiBold, IBM Plex Sans" font-weight="600">70+ </tspan><tspan y="0" font-size="41" font-family="IBMPlexSans-SemiBold, IBM Plex Sans" font-weight="600">(11%)</tspan></text>
    <rect id="Rectangle_15" data-name="Rectangle 15" width="448.432" height="82.333" transform="translate(1139.749 7379.91)" fill="#222b3e"/>
    <text id="Population_Age_70_7_" data-name="Population Age 70+ (7%)" transform="translate(1363.964 7435.651)" fill="#fff" font-size="27.774" font-family="IBMPlexSans, IBM Plex Sans"><tspan x="-194.087" y="0">Population Age </tspan><tspan y="0" font-size="50" font-family="IBMPlexSans-SemiBold, IBM Plex Sans" font-weight="600">70+ </tspan><tspan y="0" font-size="41" font-family="IBMPlexSans-SemiBold, IBM Plex Sans" font-weight="600">(7%)</tspan></text>
    <line id="Line_3" data-name="Line 3" x2="375.714" transform="translate(772.843 7693.72)" fill="none" stroke="#606060" stroke-miterlimit="10" stroke-width="1.417"/>
    <g id="Group_502" data-name="Group 502">
      <g id="Group_100" data-name="Group 100">
        <path id="Path_487" data-name="Path 487" d="M677.791,7539.508a10.1,10.1,0,1,0-10.1,10.1A10.1,10.1,0,0,0,677.791,7539.508Z" fill="#a7a9ac"/>
        <path id="Path_488" data-name="Path 488" d="M697.013,7590.525l-10.2-31.464c-.886-2.756-4.8-6.49-9.678-6.49H658.248c-4.876,0-8.788,3.734-9.677,6.49l-10.2,31.464a4.437,4.437,0,1,0,8.441,2.739l7.968-24.573,2.234-1.311-11.156,41.168h10.937v39.48a4.523,4.523,0,1,0,9.047,0v-39.48h3.706v39.48a4.526,4.526,0,1,0,9.051,0v-39.48h10.931l-11.153-41.168,2.234,1.311,7.965,24.573a4.437,4.437,0,1,0,8.44-2.739Z" fill="#a7a9ac"/>
      </g>
      <g id="Group_101" data-name="Group 101">
        <path id="Path_489" data-name="Path 489" d="M548.406,7539.508a10.1,10.1,0,1,0-10.1,10.1A10.1,10.1,0,0,0,548.406,7539.508Z" fill="#a7a9ac"/>
        <path id="Path_490" data-name="Path 490" d="M567.629,7590.525l-10.2-31.464c-.886-2.756-4.8-6.49-9.677-6.49H528.863c-4.876,0-8.787,3.734-9.677,6.49l-10.2,31.464a4.437,4.437,0,1,0,8.441,2.739l7.969-24.573,2.233-1.311-11.156,41.168h10.937v39.48a4.523,4.523,0,1,0,9.047,0v-39.48h3.707v39.48a4.525,4.525,0,1,0,9.05,0v-39.48h10.931l-11.153-41.168,2.234,1.311,7.965,24.573a4.437,4.437,0,1,0,8.441-2.739Z" fill="#a7a9ac"/>
      </g>
      <g id="Group_104" data-name="Group 104">
        <g id="Group_103" data-name="Group 103">
          <g id="Group_102" data-name="Group 102">
            <path id="Path_491" data-name="Path 491" d="M513.286,7539.486a10.073,10.073,0,1,0-10.072,10.076A10.073,10.073,0,0,0,513.286,7539.486Z" fill="#606060"/>
            <path id="Path_492" data-name="Path 492" d="M514.288,7552.883H492.136c-8.047,0-13.921,6.837-13.921,11.347v33a4.424,4.424,0,0,0,8.849,0v-29.489h3.24v79.279a5.539,5.539,0,1,0,11.078,0v-45.367h3.657v45.367a5.54,5.54,0,0,0,11.081,0v-79.279h3.237v29.489a4.426,4.426,0,0,0,8.852,0v-33C528.209,7559.72,522.334,7552.883,514.288,7552.883Z" fill="#606060"/>
          </g>
        </g>
      </g>
      <g id="Group_107" data-name="Group 107">
        <g id="Group_106" data-name="Group 106">
          <g id="Group_105" data-name="Group 105">
            <path id="Path_493" data-name="Path 493" d="M449.91,7539.486a10.072,10.072,0,1,0-10.072,10.076A10.073,10.073,0,0,0,449.91,7539.486Z" fill="#606060"/>
            <path id="Path_494" data-name="Path 494" d="M450.912,7552.883H428.76c-8.046,0-13.921,6.837-13.921,11.347v33a4.424,4.424,0,0,0,8.849,0v-29.489h3.24v79.279a5.539,5.539,0,1,0,11.078,0v-45.367h3.657v45.367a5.54,5.54,0,0,0,11.081,0v-79.279h3.237v29.489a4.427,4.427,0,0,0,8.853,0v-33C464.834,7559.72,458.958,7552.883,450.912,7552.883Z" fill="#606060"/>
          </g>
        </g>
      </g>
      <g id="Group_110" data-name="Group 110">
        <g id="Group_109" data-name="Group 109">
          <g id="Group_108" data-name="Group 108">
            <path id="Path_495" data-name="Path 495" d="M483.765,7539.486a10.073,10.073,0,1,0-10.072,10.076A10.073,10.073,0,0,0,483.765,7539.486Z" fill="#606060"/>
            <path id="Path_496" data-name="Path 496" d="M484.767,7552.883H462.615c-8.047,0-13.921,6.837-13.921,11.347v33a4.424,4.424,0,0,0,8.849,0v-29.489h3.24v79.279a5.539,5.539,0,1,0,11.078,0v-45.367h3.657v45.367a5.54,5.54,0,0,0,11.081,0v-79.279h3.237v29.489a4.426,4.426,0,0,0,8.852,0v-33C498.688,7559.72,492.813,7552.883,484.767,7552.883Z" fill="#606060"/>
          </g>
        </g>
      </g>
      <g id="Group_113" data-name="Group 113">
        <g id="Group_112" data-name="Group 112">
          <g id="Group_111" data-name="Group 111">
            <path id="Path_497" data-name="Path 497" d="M645.921,7539.486a10.073,10.073,0,1,0-10.073,10.076A10.074,10.074,0,0,0,645.921,7539.486Z" fill="#606060"/>
            <path id="Path_498" data-name="Path 498" d="M646.923,7552.883H624.771c-8.047,0-13.921,6.837-13.921,11.347v33a4.424,4.424,0,0,0,8.849,0v-29.489h3.24v79.279a5.539,5.539,0,1,0,11.078,0v-45.367h3.657v45.367a5.54,5.54,0,0,0,11.081,0v-79.279h3.237v29.489a4.426,4.426,0,0,0,8.852,0v-33C660.844,7559.72,654.969,7552.883,646.923,7552.883Z" fill="#606060"/>
          </g>
        </g>
      </g>
      <g id="Group_116" data-name="Group 116">
        <g id="Group_115" data-name="Group 115">
          <g id="Group_114" data-name="Group 114">
            <path id="Path_499" data-name="Path 499" d="M583.477,7539.486a10.073,10.073,0,1,0-10.072,10.076A10.073,10.073,0,0,0,583.477,7539.486Z" fill="#606060"/>
            <path id="Path_500" data-name="Path 500" d="M584.479,7552.883H562.327c-8.046,0-13.921,6.837-13.921,11.347v33a4.424,4.424,0,0,0,8.849,0v-29.489h3.24v79.279a5.539,5.539,0,1,0,11.078,0v-45.367h3.657v45.367a5.54,5.54,0,0,0,11.081,0v-79.279h3.237v29.489a4.427,4.427,0,0,0,8.853,0v-33C598.4,7559.72,592.525,7552.883,584.479,7552.883Z" fill="#606060"/>
          </g>
        </g>
      </g>
      <g id="Group_117" data-name="Group 117">
        <path id="Path_501" data-name="Path 501" d="M466.463,7539.508a10.1,10.1,0,1,0-10.1,10.1A10.1,10.1,0,0,0,466.463,7539.508Z" fill="#a7a9ac"/>
        <path id="Path_502" data-name="Path 502" d="M485.686,7590.525l-10.2-31.464c-.886-2.756-4.8-6.49-9.678-6.49H446.92c-4.876,0-8.788,3.734-9.677,6.49l-10.2,31.464a4.437,4.437,0,1,0,8.441,2.739l7.968-24.573,2.234-1.311-11.156,41.168h10.937v39.48a4.523,4.523,0,1,0,9.047,0v-39.48h3.706v39.48a4.525,4.525,0,1,0,9.051,0v-39.48H478.2l-11.153-41.168,2.234,1.311,7.965,24.573a4.437,4.437,0,1,0,8.441-2.739Z" fill="#a7a9ac"/>
      </g>
      <g id="Group_118" data-name="Group 118">
        <path id="Path_503" data-name="Path 503" d="M616.406,7539.508a10.1,10.1,0,1,0-10.1,10.1A10.1,10.1,0,0,0,616.406,7539.508Z" fill="#a7a9ac"/>
        <path id="Path_504" data-name="Path 504" d="M635.629,7590.525l-10.2-31.464c-.886-2.756-4.8-6.49-9.677-6.49H596.863c-4.876,0-8.787,3.734-9.677,6.49l-10.2,31.464a4.437,4.437,0,1,0,8.441,2.739l7.969-24.573,2.233-1.311-11.156,41.168h10.937v39.48a4.523,4.523,0,1,0,9.047,0v-39.48h3.707v39.48a4.525,4.525,0,1,0,9.05,0v-39.48h10.931l-11.153-41.168,2.234,1.311,7.965,24.573a4.437,4.437,0,1,0,8.441-2.739Z" fill="#a7a9ac"/>
      </g>
    </g>
    <g id="Group_503" data-name="Group 503">
      <g id="Group_133" data-name="Group 133">
        <g id="Group_119" data-name="Group 119">
          <path id="Path_505" data-name="Path 505" d="M1485.72,7539.508a10.1,10.1,0,1,0-10.1,10.1A10.1,10.1,0,0,0,1485.72,7539.508Z" fill="#d02f34"/>
          <path id="Path_506" data-name="Path 506" d="M1504.943,7590.525l-10.2-31.464c-.886-2.756-4.8-6.49-9.677-6.49h-18.886c-4.876,0-8.787,3.734-9.677,6.49l-10.2,31.464a4.437,4.437,0,1,0,8.441,2.739l7.969-24.573,2.234-1.311-11.157,41.168h10.937v39.48a4.523,4.523,0,1,0,9.047,0v-39.48h3.707v39.48a4.525,4.525,0,1,0,9.05,0v-39.48h10.931L1486.3,7567.38l2.234,1.311,7.965,24.573a4.437,4.437,0,1,0,8.441-2.739Z" fill="#d02f34"/>
        </g>
        <g id="Group_120" data-name="Group 120">
          <path id="Path_507" data-name="Path 507" d="M1356.335,7539.508a10.1,10.1,0,1,0-10.1,10.1A10.1,10.1,0,0,0,1356.335,7539.508Z" fill="#d02f34"/>
          <path id="Path_508" data-name="Path 508" d="M1375.558,7590.525l-10.2-31.464c-.886-2.756-4.8-6.49-9.677-6.49h-18.886c-4.876,0-8.787,3.734-9.677,6.49l-10.2,31.464a4.437,4.437,0,1,0,8.441,2.739l7.969-24.573,2.234-1.311-11.157,41.168h10.938v39.48a4.523,4.523,0,1,0,9.046,0v-39.48h3.707v39.48a4.525,4.525,0,1,0,9.05,0v-39.48h10.931l-11.153-41.168,2.234,1.311,7.965,24.573a4.437,4.437,0,1,0,8.441-2.739Z" fill="#d02f34"/>
        </g>
        <g id="Group_122" data-name="Group 122">
          <g id="Group_121" data-name="Group 121">
            <path id="Path_509" data-name="Path 509" d="M1321.216,7539.486a10.073,10.073,0,1,0-10.073,10.076A10.074,10.074,0,0,0,1321.216,7539.486Z" fill="#222b3e"/>
            <path id="Path_510" data-name="Path 510" d="M1322.217,7552.883h-22.152c-8.046,0-13.921,6.837-13.921,11.347v33a4.424,4.424,0,0,0,8.849,0v-29.489h3.24v79.279a5.539,5.539,0,1,0,11.078,0v-45.367h3.657v45.367a5.54,5.54,0,0,0,11.081,0v-79.279h3.237v29.489a4.427,4.427,0,0,0,8.853,0v-33C1336.139,7559.72,1330.263,7552.883,1322.217,7552.883Z" fill="#222b3e"/>
          </g>
        </g>
        <g id="Group_124" data-name="Group 124">
          <g id="Group_123" data-name="Group 123">
            <path id="Path_511" data-name="Path 511" d="M1257.84,7539.486a10.073,10.073,0,1,0-10.073,10.076A10.074,10.074,0,0,0,1257.84,7539.486Z" fill="#222b3e"/>
            <path id="Path_512" data-name="Path 512" d="M1258.841,7552.883h-22.152c-8.046,0-13.921,6.837-13.921,11.347v33a4.425,4.425,0,0,0,8.85,0v-29.489h3.24v79.279a5.539,5.539,0,1,0,11.077,0v-45.367h3.657v45.367a5.54,5.54,0,0,0,11.081,0v-79.279h3.237v29.489a4.426,4.426,0,0,0,8.853,0v-33C1272.763,7559.72,1266.887,7552.883,1258.841,7552.883Z" fill="#222b3e"/>
          </g>
        </g>
        <g id="Group_126" data-name="Group 126">
          <g id="Group_125" data-name="Group 125">
            <path id="Path_513" data-name="Path 513" d="M1291.695,7539.486a10.073,10.073,0,1,0-10.073,10.076A10.074,10.074,0,0,0,1291.695,7539.486Z" fill="#222b3e"/>
            <path id="Path_514" data-name="Path 514" d="M1292.7,7552.883h-22.152c-8.046,0-13.921,6.837-13.921,11.347v33a4.424,4.424,0,0,0,8.849,0v-29.489h3.24v79.279a5.539,5.539,0,1,0,11.078,0v-45.367h3.657v45.367a5.54,5.54,0,0,0,11.081,0v-79.279h3.237v29.489a4.427,4.427,0,0,0,8.853,0v-33C1306.618,7559.72,1300.742,7552.883,1292.7,7552.883Z" fill="#222b3e"/>
          </g>
        </g>
        <g id="Group_128" data-name="Group 128">
          <g id="Group_127" data-name="Group 127">
            <path id="Path_515" data-name="Path 515" d="M1453.85,7539.486a10.073,10.073,0,1,0-10.072,10.076A10.073,10.073,0,0,0,1453.85,7539.486Z" fill="#222b3e"/>
            <path id="Path_516" data-name="Path 516" d="M1454.852,7552.883H1432.7c-8.046,0-13.921,6.837-13.921,11.347v33a4.424,4.424,0,0,0,8.849,0v-29.489h3.24v79.279a5.539,5.539,0,1,0,11.078,0v-45.367h3.657v45.367a5.54,5.54,0,0,0,11.081,0v-79.279h3.237v29.489a4.427,4.427,0,0,0,8.853,0v-33C1468.774,7559.72,1462.9,7552.883,1454.852,7552.883Z" fill="#222b3e"/>
          </g>
        </g>
        <g id="Group_130" data-name="Group 130">
          <g id="Group_129" data-name="Group 129">
            <path id="Path_517" data-name="Path 517" d="M1391.407,7539.486a10.073,10.073,0,1,0-10.073,10.076A10.074,10.074,0,0,0,1391.407,7539.486Z" fill="#222b3e"/>
            <path id="Path_518" data-name="Path 518" d="M1392.408,7552.883h-22.152c-8.046,0-13.921,6.837-13.921,11.347v33a4.425,4.425,0,0,0,8.85,0v-29.489h3.24v79.279a5.538,5.538,0,1,0,11.077,0v-45.367h3.657v45.367a5.54,5.54,0,0,0,11.081,0v-79.279h3.237v29.489a4.426,4.426,0,0,0,8.853,0v-33C1406.33,7559.72,1400.454,7552.883,1392.408,7552.883Z" fill="#222b3e"/>
          </g>
        </g>
        <g id="Group_131" data-name="Group 131">
          <path id="Path_519" data-name="Path 519" d="M1274.392,7539.508a10.1,10.1,0,1,0-10.1,10.1A10.1,10.1,0,0,0,1274.392,7539.508Z" fill="#d02f34"/>
          <path id="Path_520" data-name="Path 520" d="M1293.615,7590.525l-10.2-31.464c-.886-2.756-4.8-6.49-9.677-6.49h-18.886c-4.876,0-8.787,3.734-9.677,6.49l-10.2,31.464a4.437,4.437,0,1,0,8.441,2.739l7.969-24.573,2.234-1.311-11.157,41.168h10.937v39.48a4.523,4.523,0,1,0,9.047,0v-39.48h3.707v39.48a4.525,4.525,0,1,0,9.05,0v-39.48h10.931l-11.153-41.168,2.234,1.311,7.965,24.573a4.437,4.437,0,1,0,8.441-2.739Z" fill="#d02f34"/>
        </g>
        <g id="Group_132" data-name="Group 132">
          <path id="Path_521" data-name="Path 521" d="M1424.335,7539.508a10.1,10.1,0,1,0-10.1,10.1A10.1,10.1,0,0,0,1424.335,7539.508Z" fill="#d02f34"/>
          <path id="Path_522" data-name="Path 522" d="M1443.558,7590.525l-10.2-31.464c-.886-2.756-4.8-6.49-9.677-6.49h-18.886c-4.876,0-8.787,3.734-9.677,6.49l-10.2,31.464a4.437,4.437,0,1,0,8.441,2.739l7.969-24.573,2.234-1.311-11.157,41.168h10.938v39.48a4.523,4.523,0,1,0,9.046,0v-39.48h3.707v39.48a4.525,4.525,0,1,0,9.05,0v-39.48h10.931l-11.153-41.168,2.234,1.311,7.965,24.573a4.437,4.437,0,1,0,8.441-2.739Z" fill="#d02f34"/>
        </g>
      </g>
    </g>
    <rect id="Rectangle_16" data-name="Rectangle 16" width="207.164" height="82.333" transform="translate(856.418 7652.554)" fill="#222b3e"/>
    <rect id="Rectangle_17" data-name="Rectangle 17" width="448.432" height="82.333" transform="translate(331.819 7652.554)" fill="#222b3e"/>
    <text id="Deaths_Median_Age_79" data-name="Deaths Median Age  79" transform="translate(556.035 7708.295)" fill="#fff" font-size="27.774" font-family="IBMPlexSans, IBM Plex Sans"><tspan x="-156.497" y="0" xml:space="preserve">Deaths Median Age  </tspan><tspan y="0" font-size="50" font-family="IBMPlexSans-SemiBold, IBM Plex Sans" font-weight="600">79</tspan></text>
    <rect id="Rectangle_18" data-name="Rectangle 18" width="448.432" height="82.333" transform="translate(1139.749 7652.554)" fill="#222b3e"/>
    <text id="Population_Age_38-2" data-name="Population Age  38" transform="translate(1363.964 7708.295)" fill="#fff" font-size="27.774" font-family="IBMPlexSans, IBM Plex Sans"><tspan x="-130.667" y="0" xml:space="preserve">Population Age  </tspan><tspan y="0" font-size="50" font-family="IBMPlexSans-SemiBold, IBM Plex Sans" font-weight="600">38</tspan></text>
    <text id="_2_0" data-name="2,0" transform="translate(960 7714.044)" fill="#fff" font-size="55" font-family="IBMPlexSans-SemiBold, IBM Plex Sans" font-weight="600"><tspan x="-41.222" y="0">2,0</tspan></text>
  </g>
</svg>
