<svg xmlns="http://www.w3.org/2000/svg" width="265.389" height="102.76" viewBox="0 0 265.389 102.76">
  <g id="Group_524" data-name="Group 524" transform="translate(-1322.051 -5147.017)">
    <g id="Group_52" data-name="Group 52">
      <path id="Path_400" data-name="Path 400" d="M1355.13,5155.441a8.427,8.427,0,1,0-8.427,8.427A8.429,8.429,0,0,0,1355.13,5155.441Z" fill="#d02f34"/>
      <path id="Path_401" data-name="Path 401" d="M1371.171,5198.014l-8.514-26.256a8.986,8.986,0,0,0-8.076-5.416h-15.76a8.987,8.987,0,0,0-8.075,5.416l-8.514,26.256a3.7,3.7,0,1,0,7.043,2.286l6.65-20.506,1.864-1.094-9.31,34.355h9.128V5246a3.774,3.774,0,1,0,7.549,0v-32.946h3.093V5246a3.776,3.776,0,0,0,7.553,0v-32.946h9.121l-9.307-34.355,1.864,1.094,6.647,20.506a3.7,3.7,0,1,0,7.044-2.286Z" fill="#d02f34"/>
    </g>
    <path id="Path_402" data-name="Path 402" d="M1381.139,5147.017h206.3v102.76h-206.3v-102.76Z" fill="#d02f34" fill-rule="evenodd"/>
  </g>
</svg>
