<svg xmlns="http://www.w3.org/2000/svg" width="349.937" height="102.76" viewBox="0 0 349.937 102.76">
  <g id="Group_525" data-name="Group 525" transform="translate(-1325.842 -5360.663)">
    <g id="Group_51" data-name="Group 51">
      <g id="Group_50" data-name="Group 50">
        <path id="Path_397" data-name="Path 397" d="M1355.109,5369.069a8.406,8.406,0,1,0-8.406,8.408A8.406,8.406,0,0,0,1355.109,5369.069Z" fill="#222b3e"/>
        <path id="Path_398" data-name="Path 398" d="M1355.944,5380.248h-18.485c-6.715,0-11.617,5.706-11.617,9.469v27.535a3.692,3.692,0,0,0,7.384,0v-24.609h2.7V5458.8a4.622,4.622,0,1,0,9.244,0v-37.858h3.052V5458.8a4.624,4.624,0,0,0,9.247,0v-66.158h2.7v24.609a3.694,3.694,0,0,0,7.388,0v-27.535C1367.562,5385.954,1362.659,5380.248,1355.944,5380.248Z" fill="#222b3e"/>
      </g>
    </g>
    <path id="Path_399" data-name="Path 399" d="M1381.139,5360.663h294.64v102.76h-294.64v-102.76Z" fill="#222b3e" fill-rule="evenodd"/>
  </g>
</svg>
