<svg xmlns="http://www.w3.org/2000/svg" width="100%" height="100%" viewBox="0 0 1453.474 681.844">
  <g id="Group_542" data-name="Group 542" transform="translate(-228.085 -5964.665)">
    <g id="Group_496" data-name="Group 496">
      <g id="Group_31" data-name="Group 31">
        <path id="Path_341" data-name="Path 341" d="M819.061,6297.766a19.548,19.548,0,1,1-19.548,19.548A19.547,19.547,0,0,1,819.061,6297.766Z" fill="#222b3e"/>
        <path id="Path_342" data-name="Path 342" d="M818.692,6346.029a15.847,15.847,0,0,1,19.413-11.2L872.268,6344a15.849,15.849,0,0,1,7.309,26.295l-.8,6.306h14.878a9.461,9.461,0,0,1,0,18.922H868.041a9.465,9.465,0,0,1-9.385-10.652l1.438-11.325-22.135-5.941v19.131a9.461,9.461,0,0,1-18.922,0v-31.377A15.766,15.766,0,0,1,818.692,6346.029Z" fill="#222b3e"/>
      </g>
      <g id="Group_32" data-name="Group 32">
        <path id="Path_343" data-name="Path 343" d="M666.491,6304.335a7.094,7.094,0,0,1,9.012-4.411l6.816,2.337v15l-11.418-3.917A7.091,7.091,0,0,1,666.491,6304.335Z" fill="#222b3e"/>
        <path id="Path_344" data-name="Path 344" d="M702.417,6267.136a20.836,20.836,0,1,1,20.835-20.835A20.836,20.836,0,0,1,702.417,6267.136Z" fill="#222b3e"/>
        <path id="Path_345" data-name="Path 345" d="M685.018,6334.139a18.7,18.7,0,0,1-.511-4.33v-40.066a18.909,18.909,0,0,1,18.855-18.855h0a18.83,18.83,0,0,1,14.525,6.87,18.609,18.609,0,0,0-2.061,1.577c-5.027,4.455-7.627,11.5-7.724,20.943-.09,8.6,2.451,15.228,7.548,19.713a21.411,21.411,0,0,0,6.4,3.848c.055.022.113.041.17.062v5.908a18.7,18.7,0,0,1-1.15,6.469l1.507,23.061,15.864,9.062a9.46,9.46,0,1,1-9.385,16.429l-20.282-11.585a9.467,9.467,0,0,1-4.747-7.6l-1.109-17a18.622,18.622,0,0,1-2.678-.254l-13.626,41.3a9.46,9.46,0,1,1-17.967-5.927Z" fill="#222b3e"/>
        <path id="Path_346" data-name="Path 346" d="M715.432,6300.353c.076-7.283,1.844-12.508,5.254-15.529.226-.2.47-.378.711-.56a18.7,18.7,0,0,1,.819,5.479v26.022a13.226,13.226,0,0,1-1.725-1.28C717.07,6311.474,715.367,6306.72,715.432,6300.353Z" fill="#222b3e"/>
        <path id="Path_347" data-name="Path 347" d="M739.657,6324.04a10.071,10.071,0,0,0,10.058-10.024l.048-28.168a10.068,10.068,0,0,0-10.022-10.057l-1.662,0s-5.66-.2-6.843-.2c-6,0-10.86,1.61-14.469,4.807-4.717,4.176-7.153,10.87-7.247,19.9-.084,8.164,2.295,14.433,7.066,18.63a19.99,19.99,0,0,0,5.975,3.593,26.394,26.394,0,0,0,9.582,1.687c1.089,0,7.216-.166,7.216-.166Zm-13.912-43.327,0,1.482-.062,35.158,0,1.479a16,16,0,0,1-6.123-3.283c-3.747-3.294-5.611-8.412-5.541-15.209.079-7.7,2.008-13.28,5.732-16.579A14.065,14.065,0,0,1,725.745,6280.713Z" fill="#222b3e"/>
      </g>
      <g id="Group_34" data-name="Group 34">
        <path id="Path_348" data-name="Path 348" d="M582.543,6341l35.138-5.548a7.3,7.3,0,0,0,6.059-8.331l-3.452-21.858a7.284,7.284,0,0,0-8.329-6.057l-8.576,1.355-.613-3.875a5.332,5.332,0,0,0-5.254-4.492,5.605,5.605,0,0,0-.832.065l-7.472,1.181a5.331,5.331,0,0,0-4.428,6.087l.614,3.873-8.577,1.354a7.3,7.3,0,0,0-6.058,8.33l3.451,21.858a7.277,7.277,0,0,0,8.329,6.058Zm7.107-44.793,7.47-1.18a2.522,2.522,0,0,1,2.884,2.1l.611,3.873-12.451,1.966-.612-3.873A2.525,2.525,0,0,1,589.65,6296.21Z" fill="#222b3e"/>
        <g id="Group_33" data-name="Group 33">
          <path id="Path_349" data-name="Path 349" d="M541.267,6217.48a23.445,23.445,0,1,1,23.446-23.445A23.445,23.445,0,0,1,541.267,6217.48Z" fill="#222b3e"/>
          <path id="Path_350" data-name="Path 350" d="M515.567,6307.453a19.038,19.038,0,0,0-.727-6.574,15.763,15.763,0,0,1-.606-4.306l5.1-48.159a22.987,22.987,0,0,1,14.193-21.171l4.291,6.388-5.679,36.713,6.564,6.566,6.566-6.566-5.677-36.713,8.175-8.12a22.694,22.694,0,0,1,10.547,2.666c4.241,2.716,35.783,26.948,35.783,26.948a8.28,8.28,0,0,1,3.093,5.557l3.176,27.857a8.385,8.385,0,0,1-7.123,9.316,8.12,8.12,0,0,1-1.093.072,8.278,8.278,0,0,1-8.214-7.34l-2.8-24.608-9.538-7.539,4.044,38.133a17.343,17.343,0,0,1-2.79,9.186,19.823,19.823,0,0,0-3.1,10.544l.118,26.742,18.663,27.8a10.879,10.879,0,1,1-18.066,12.127l-20.495-30.53a10.878,10.878,0,0,1-1.846-6.017l-.114-25.957a1,1,0,0,0-1.005-1l-4.762.009a25.474,25.474,0,0,1-4.194-.362,1.4,1.4,0,0,0-1.64,1.273l-4.96,65.749a10.879,10.879,0,0,1-10.837,10.062c-.274,0-.551-.011-.829-.032a10.877,10.877,0,0,1-10.03-11.666Z" fill="#222b3e"/>
          <path id="Path_351" data-name="Path 351" d="M484.662,6272.428a8.278,8.278,0,0,1,9.5-6.841l20.442,3.328-1.629,16.508-21.472-3.494A8.28,8.28,0,0,1,484.662,6272.428Z" fill="#222b3e"/>
        </g>
      </g>
      <g id="Group_35" data-name="Group 35">
        <path id="Path_352" data-name="Path 352" d="M402.416,6302.484a20.828,20.828,0,0,1-2.1-6.266l-7.563-45.461a21.122,21.122,0,0,1,17.319-24.23l3.846-.639a21,21,0,0,1,15.7,3.672l31.4,19.258a7.1,7.1,0,0,1,3.385,6.015l.166,34.853a7.094,7.094,0,0,1-7.061,7.129h-.035a7.1,7.1,0,0,1-7.094-7.061l-.148-30.9-10.566-6.48,6.038,36.3a20.87,20.87,0,0,1-.289,8.3v41.147l18.469,42.242a9.461,9.461,0,1,1-17.337,7.579l-19.261-44.053a9.464,9.464,0,0,1-.792-3.789v-26.883l-1.953.325a20.944,20.944,0,0,1-5.216.209l-16.355,75.008a9.461,9.461,0,1,1-18.488-4.031Z" fill="#222b3e"/>
        <path id="Path_353" data-name="Path 353" d="M425.018,6191.324a23.444,23.444,0,1,1-40.442-11.284Z" fill="#222b3e"/>
        <path id="Path_354" data-name="Path 354" d="M432.619,6191.467a1.654,1.654,0,0,1-1.257.155l-51.94-14.493a1.656,1.656,0,1,1,.89-3.19l7.973,2.225,2.988-10.707a7.681,7.681,0,0,1,.483-1.282,6.979,6.979,0,0,1,4.945-3.818,7.352,7.352,0,0,1,6.362,1.675l6.891,6.02,8.381-1.626a7.484,7.484,0,0,1,1.409-.135,7.406,7.406,0,0,1,5.3,2.242,6.921,6.921,0,0,1,1.877,6.4c-.032.149-.07.3-.111.445l-2.987,10.707,8.428,2.351a1.653,1.653,0,0,1,.368,3.035Z" fill="#222b3e"/>
        <path id="Path_355" data-name="Path 355" d="M371.7,6290.487l22.147-18.714,2.71,16.288-15.7,13.264a7.1,7.1,0,1,1-9.159-10.838Z" fill="#222b3e"/>
      </g>
      <g id="Group_36" data-name="Group 36">
        <path id="Path_356" data-name="Path 356" d="M290.9,6310.259,268.243,6276.4a18.749,18.749,0,0,1,5.14-25.931h0a19.769,19.769,0,0,1,10.992-3.179,33.6,33.6,0,0,1,7.884.6l41.9,10.206a6.987,6.987,0,0,1,5.315,6.3l2.094,29.98a6.986,6.986,0,0,1-6.48,7.454c-.166.011-.33.017-.495.017a6.984,6.984,0,0,1-6.958-6.5l-1.741-24.887-19.886-4.845,20.172,30.142c1.014,1.517,4.447,6.55,4.464,10.914l-.659,41.815,15.5,27.17a9.312,9.312,0,1,1-16.177,9.228L312.548,6355.5a9.3,9.3,0,0,1-1.223-4.76l.409-25.947a18.829,18.829,0,0,1-4.971-.384l-13.832,60.249a9.312,9.312,0,0,1-18.152-4.167Z" fill="#222b3e"/>
        <path id="Path_357" data-name="Path 357" d="M251.163,6256.98a23.076,23.076,0,1,1,23.075-23.076A23.077,23.077,0,0,1,251.163,6256.98Z" fill="#222b3e"/>
        <path id="Path_358" data-name="Path 358" d="M242.337,6290.267a2.8,2.8,0,0,1,2.967,2.589v4.061a6.98,6.98,0,0,1-5.933-3.454v-.607A2.8,2.8,0,0,1,242.337,6290.267Z" fill="#222b3e"/>
        <path id="Path_359" data-name="Path 359" d="M249.057,6282.868l20.313-.467,9.215,13.772-23.5.53v-3.847A11.6,11.6,0,0,0,249.057,6282.868Z" fill="#222b3e"/>
        <path id="Path_360" data-name="Path 360" d="M242.337,6282.491c6.258,0,11.349,4.65,11.349,10.365v100.156a3.507,3.507,0,0,1-6.985,0V6292.856a4.381,4.381,0,0,0-8.726,0v6.248a3.506,3.506,0,0,1-6.984,0v-6.248C230.991,6287.141,236.082,6282.491,242.337,6282.491Z" fill="#222b3e"/>
      </g>
    </g>
    <g id="Group_497" data-name="Group 497">
      <g id="Group_37" data-name="Group 37">
        <path id="Path_361" data-name="Path 361" d="M1100.394,6297.766a19.548,19.548,0,1,0,19.547,19.548A19.546,19.546,0,0,0,1100.394,6297.766Z" fill="#d02f34"/>
        <path id="Path_362" data-name="Path 362" d="M1100.763,6346.03a15.847,15.847,0,0,0-19.414-11.195l-34.162,9.171a15.849,15.849,0,0,0-7.309,26.295l.8,6.306H1025.8a9.461,9.461,0,0,0,0,18.922h25.615a9.466,9.466,0,0,0,9.384-10.653l-1.437-11.326,22.135-5.939v19.13a9.461,9.461,0,0,0,18.922,0v-31.376A15.768,15.768,0,0,0,1100.763,6346.03Z" fill="#d02f34"/>
      </g>
      <g id="Group_38" data-name="Group 38">
        <path id="Path_363" data-name="Path 363" d="M1222.867,6339.041h-36.816l-2.25,15.5-18.937,9.911a9.46,9.46,0,1,0,8.771,16.765l23.221-12.151a9.46,9.46,0,0,0,4.977-7.024l2.67-18.417,12.591,45.631a9.461,9.461,0,0,0,18.24-5.034Z" fill="#d02f34"/>
        <path id="Path_364" data-name="Path 364" d="M1203.366,6269.683a6.577,6.577,0,0,0-3.557,1.04,19.308,19.308,0,0,1,4.01,5.873c2.671,6.164,2.047,13.648-1.858,22.246-3.555,7.828-8.663,12.762-15.178,14.67a21.329,21.329,0,0,1-7.423.782c-.163-.009-.325-.021-.487-.038l-10.215,22.42h69.416l-28.781-63.183A6.446,6.446,0,0,0,1203.366,6269.683Z" fill="#d02f34"/>
        <path id="Path_365" data-name="Path 365" d="M1195.284,6295.811c3.013-6.633,3.621-12.115,1.807-16.3a11.4,11.4,0,0,0-1.347-2.3l-13.542,29.728a13.433,13.433,0,0,0,2.522-.469C1189.1,6305.2,1192.651,6301.606,1195.284,6295.811Z" fill="#d02f34"/>
        <circle id="Ellipse_13" data-name="Ellipse 13" cx="23.554" cy="23.554" r="23.554" transform="translate(1180.123 6215.541) rotate(-0.775)" fill="#d02f34"/>
        <path id="Path_366" data-name="Path 366" d="M1214.813,6213.465v-15.63l-11.52,7.52-11.518-7.52v15.63l11.518-7.52Z" fill="#d02f34"/>
        <path id="Path_367" data-name="Path 367" d="M1163.139,6307.647l1.784.829,1.616.749a10.088,10.088,0,0,0,2.946.856,26.658,26.658,0,0,0,9.968,2.8c.472.031.944.045,1.41.045a19.583,19.583,0,0,0,5.522-.774c6.1-1.785,10.907-6.461,14.284-13.9,3.733-8.217,4.354-15.313,1.846-21.093-2.184-5.036-6.7-8.887-13.437-11.47a9.908,9.908,0,0,0-1.809-1.086l-1.054-.493-2.347-1.088a10.169,10.169,0,0,0-13.467,4.925l-12.186,26.228A10.171,10.171,0,0,0,1163.139,6307.647Zm14.795-.422a10.034,10.034,0,0,0,2.074-2.922l12.185-26.228a10.033,10.033,0,0,0,.871-5.314,14.7,14.7,0,0,1,5.33,6.19c1.979,4.563,1.367,10.435-1.817,17.446-2.812,6.19-6.665,10.039-11.455,11.439a15.125,15.125,0,0,1-4.265.6,18.343,18.343,0,0,1-3.821-.417A9.625,9.625,0,0,0,1177.934,6307.225Z" fill="#d02f34"/>
      </g>
      <g id="Group_39" data-name="Group 39">
        <path id="Path_368" data-name="Path 368" d="M1668.221,6302.838a2.754,2.754,0,0,0-2.751,2.752v8.143a7.019,7.019,0,0,0,3.513-10.786A2.774,2.774,0,0,0,1668.221,6302.838Z" fill="#d02f34"/>
        <path id="Path_369" data-name="Path 369" d="M1639.642,6293.967a101.583,101.583,0,0,0,.2,14.523l16.164,4v-6.9a12.134,12.134,0,0,1,2.23-7.02Z" fill="#d02f34"/>
        <path id="Path_370" data-name="Path 370" d="M1642.252,6346.225l-19.307.457,11.767,42.642a9.37,9.37,0,0,0,9.023,6.878,9.507,9.507,0,0,0,2.5-.339,9.368,9.368,0,0,0,6.537-11.523Z" fill="#d02f34"/>
        <path id="Path_371" data-name="Path 371" d="M1599.177,6354.579l-15.283,25.434a9.367,9.367,0,1,0,16.059,9.648l16.456-27.387a9.376,9.376,0,0,0,1.318-4.231l.716-11.254-18.8.443Z" fill="#d02f34"/>
        <path id="Path_372" data-name="Path 372" d="M1589.28,6305.694a7.1,7.1,0,0,0,.938.061,7.025,7.025,0,0,0,6.956-6.095l2.544-19.04,9.083-2.292,2.718-.687c-13.319,19.471-20.67,42.564-21.446,67.811a.118.118,0,0,0,.036.092.146.146,0,0,0,.095.038l56.646-1.341a.107.107,0,0,0,.1-.055.125.125,0,0,0,.009-.123h0c-10.279-24.081-12.135-49.124-5.367-72.425a9.785,9.785,0,0,0-.547-7.278,23.1,23.1,0,0,0-5.7-5.688,6.974,6.974,0,0,0-4.56-.389l-7.294,1.842-31.823,8.041a7.025,7.025,0,0,0-5.242,5.88l-3.176,23.754A7.027,7.027,0,0,0,1589.28,6305.694Z" fill="#d02f34"/>
        <path id="Path_373" data-name="Path 373" d="M1668.221,6294.783a10.819,10.819,0,0,0-10.809,10.807V6392.3a3.327,3.327,0,1,0,6.654,0V6305.59a4.155,4.155,0,0,1,8.311,0v6.519a3.327,3.327,0,0,0,6.654,0v-6.519A10.819,10.819,0,0,0,1668.221,6294.783Z" fill="#d02f34"/>
        <path id="Path_374" data-name="Path 374" d="M1636.257,6227.137A24.533,24.533,0,1,0,1653.134,6216a12.723,12.723,0,0,0-2.974-4.652c-4.581-4.581-11.632-4.96-15.746-.846s-3.737,11.165.844,15.746A12.907,12.907,0,0,0,1636.257,6227.137Z" fill="#d02f34"/>
      </g>
      <g id="Group_40" data-name="Group 40">
        <path id="Path_375" data-name="Path 375" d="M1535.766,6283.912a7.093,7.093,0,0,0-8.1-5.925l-18.034,2.787v14.359l20.2-3.126A7.091,7.091,0,0,0,1535.766,6283.912Z" fill="#d02f34"/>
        <path id="Path_376" data-name="Path 376" d="M1505.545,6389.256a9.46,9.46,0,0,0,18.239-5.034l-10.2-36.978h-19.627Z" fill="#d02f34"/>
        <path id="Path_377" data-name="Path 377" d="M1467.76,6350.893l-23.055,20.344a9.459,9.459,0,1,0,12.517,14.186l25.99-22.931a9.449,9.449,0,0,0,3.181-6.491l.557-8.757h-18.958Z" fill="#d02f34"/>
        <path id="Path_378" data-name="Path 378" d="M1467.313,6275.785v34.876c0,.169,0,.346-9.583,34.691h61.456l-11.442-34.539v-46.832c0-8.407-9.519-19.074-20.217-19.074-5.178,0-10.078,2.5-13.757,6.034-1.129,1.086-7.04,6.859-7.04,6.859l-22.059,18.383a7.092,7.092,0,0,0-2.322,7.252l7.229,27.537a7.1,7.1,0,0,0,13.725-3.6l-6.082-23.171,8.2-6.832Z" fill="#d02f34"/>
        <path id="Path_379" data-name="Path 379" d="M1477.247,6206.073a24.79,24.79,0,1,0,43.961,22.491,9.441,9.441,0,1,0,0-18.53,24.8,24.8,0,0,0-23-15.526,25.056,25.056,0,0,0-3.917.311,12.893,12.893,0,0,0-3.005-4.7c-4.629-4.628-11.748-5.012-15.905-.855s-3.774,11.276.853,15.9A12.751,12.751,0,0,0,1477.247,6206.073Zm53.3,13.227a7.547,7.547,0,1,1-7.547-7.551A7.557,7.557,0,0,1,1530.542,6219.3Zm-35.787,0a8.494,8.494,0,1,1,8.495,8.492A8.493,8.493,0,0,1,1494.755,6219.3Z" fill="#d02f34"/>
      </g>
      <g id="Group_41" data-name="Group 41">
        <path id="Path_380" data-name="Path 380" d="M1398.315,6278.769a7.094,7.094,0,0,0-8.629-5.119l-21.557,5.5v14.643l25.065-6.4A7.093,7.093,0,0,0,1398.315,6278.769Z" fill="#d02f34"/>
        <path id="Path_381" data-name="Path 381" d="M1376.221,6347.244h-19.627l11.592,42.012a9.46,9.46,0,0,0,18.239-5.034Z" fill="#d02f34"/>
        <path id="Path_382" data-name="Path 382" d="M1330.4,6350.893l-23.055,20.344a9.46,9.46,0,1,0,12.519,14.186l25.988-22.931a9.46,9.46,0,0,0,3.183-6.491l.557-8.757h-18.959Z" fill="#d02f34"/>
        <path id="Path_383" data-name="Path 383" d="M1305.291,6294.3l-7.471-1.18a.828.828,0,0,0-.173-.014,1.109,1.109,0,0,0-1.087.929l-.39,2.472,9.647,1.523.39-2.469a1.1,1.1,0,0,0-.2-.822A1.081,1.081,0,0,0,1305.291,6294.3Z" fill="#d02f34"/>
        <path id="Path_384" data-name="Path 384" d="M1298.7,6287.55l7.471,1.177a6.694,6.694,0,0,1,3.963,2.162l7.464-17.531,15.007-10.33,1.892-1.3v39.306c0,.211,0,.393-14.995,44.322h63.218l-16.483-44.152v-48.225a15.858,15.858,0,0,0-24.623-13.23,6.993,6.993,0,0,0-1.122.624l-5.557,3.825-27.082,18.644a7.1,7.1,0,0,0-2.5,3.065l-9.263,21.756a6.52,6.52,0,0,1,1.559-.2A6.6,6.6,0,0,1,1298.7,6287.55Z" fill="#d02f34"/>
        <path id="Path_385" data-name="Path 385" d="M1313.751,6337.778a7.311,7.311,0,0,0,7.2-6.145l3.451-21.858a7.3,7.3,0,0,0-6.059-8.33l-8.576-1.354.612-3.875a5.326,5.326,0,0,0-4.427-6.086l-7.47-1.18a5.2,5.2,0,0,0-.835-.066,5.332,5.332,0,0,0-5.253,4.493l-.612,3.873-8.577-1.354a7.132,7.132,0,0,0-1.132-.09,7.308,7.308,0,0,0-7.2,6.146l-3.452,21.86a7.3,7.3,0,0,0,6.058,8.328l35.139,5.55A7.264,7.264,0,0,0,1313.751,6337.778Zm-6.142-42-.612,3.875-12.45-1.965.611-3.875a2.508,2.508,0,0,1,2.883-2.1l7.47,1.178A2.522,2.522,0,0,1,1307.609,6295.778Z" fill="#d02f34"/>
        <path id="Path_386" data-name="Path 386" d="M1330.428,6193.773a24.79,24.79,0,1,0,44.893,19.711,9.433,9.433,0,0,0,8.344-12.169l-.2-.669h-8.1a24.8,24.8,0,0,0-23.967-18.438,25.061,25.061,0,0,0-3.919.311,12.85,12.85,0,0,0-3-4.7c-4.629-4.626-11.748-5.01-15.905-.853s-3.774,11.276.854,15.9A12.543,12.543,0,0,0,1330.428,6193.773Zm36.821,8.767h14.779a7.548,7.548,0,1,1-14.779,0Zm-20.477-.948h16.244a8.494,8.494,0,1,1-16.244,0Z" fill="#d02f34"/>
      </g>
    </g>
    <path id="Path_387" data-name="Path 387" d="M501.738,6170.769v-158h904.338v158" fill="none" stroke="#606060" stroke-miterlimit="10" stroke-width="1.417"/>
    <circle id="Ellipse_14" data-name="Ellipse 14" cx="63.32" cy="63.32" r="63.32" transform="translate(438.418 5966.87)" fill="#f8f8f8"/>
    <circle id="Ellipse_15" data-name="Ellipse 15" cx="63.32" cy="63.32" r="63.32" transform="translate(897.082 5966.87)" fill="#f8f8f8"/>
    <circle id="Ellipse_16" data-name="Ellipse 16" cx="63.32" cy="63.32" r="63.32" transform="translate(1342.756 5966.87)" fill="#f8f8f8"/>
    <text id="_45" data-name="45" transform="translate(499.46 6042.665)" fill="#222b3e" font-size="76.243" font-family="IBMPlexSans-SemiBold, IBM Plex Sans" font-weight="600"><tspan x="-45.746" y="0">45</tspan></text>
    <text id="_46" data-name="46" transform="translate(1406.072 6042.665)" fill="#d02f34" font-size="76.243" font-family="IBMPlexSans-SemiBold, IBM Plex Sans" font-weight="600"><tspan x="-45.746" y="0">46</tspan></text>
    <text id="Age" transform="translate(499.459 6077.508)" fill="#222b3e" font-size="27.774" font-family="IBMPlexSans, IBM Plex Sans"><tspan x="-23.775" y="0">Age</tspan></text>
    <text id="Age-2" data-name="Age" transform="translate(1406.077 6077.508)" fill="#d02f34" font-size="27.774" font-family="IBMPlexSans, IBM Plex Sans"><tspan x="-23.775" y="0">Age</tspan></text>
    <text id="Median_Age" data-name="Median Age" transform="translate(960 6077.51)" fill="#606060" font-size="27.774" font-family="IBMPlexSans, IBM Plex Sans"><tspan x="-72.782" y="0">Median Age</tspan></text>
    <text id="_45-2" data-name="45" transform="translate(960 6042.665)" fill="#606060" font-size="76.243" font-family="IBMPlexSans-SemiBold, IBM Plex Sans" font-weight="600"><tspan x="-45.746" y="0">45</tspan></text>
    <path id="Path_388" data-name="Path 388" d="M1610.168,6416.915v158H301.034v-158" fill="none" stroke="#606060" stroke-miterlimit="10" stroke-width="1.417"/>
    <circle id="Ellipse_17" data-name="Ellipse 17" cx="63.32" cy="63.32" r="63.32" transform="translate(237.714 6519.868)" fill="#f8f8f8"/>
    <circle id="Ellipse_18" data-name="Ellipse 18" cx="63.32" cy="63.32" r="63.32" transform="translate(1544.224 6519.868)" fill="#f8f8f8"/>
    <circle id="Ellipse_19" data-name="Ellipse 19" cx="63.32" cy="63.32" r="63.32" transform="translate(896.68 6519.868)" fill="#f8f8f8"/>
    <text id="_76" data-name="76" transform="translate(301.034 6594.356)" fill="#222b3e" font-size="76.243" font-family="IBMPlexSans-SemiBold, IBM Plex Sans" font-weight="600"><tspan x="-45.746" y="0">76</tspan></text>
    <text id="_81" data-name="81" transform="translate(1610.167 6594.356)" fill="#d02f34" font-size="76.243" font-family="IBMPlexSans-SemiBold, IBM Plex Sans" font-weight="600"><tspan x="-45.746" y="0">81</tspan></text>
    <text id="Age-3" data-name="Age" transform="translate(301.034 6629.203)" fill="#222b3e" font-size="27.774" font-family="IBMPlexSans, IBM Plex Sans"><tspan x="-23.775" y="0">Age</tspan></text>
    <text id="Age-4" data-name="Age" transform="translate(1610.168 6629.203)" fill="#d02f34" font-size="27.774" font-family="IBMPlexSans, IBM Plex Sans"><tspan x="-23.775" y="0">Age</tspan></text>
    <text id="Deaths" transform="translate(960 6513.852)" fill="#606060" font-size="43.84" font-family="IBMPlexSans-Bold, IBM Plex Sans" font-weight="700"><tspan x="-72.446" y="0">Deaths</tspan></text>
    <text id="Median_Age-2" data-name="Median Age" transform="translate(960 6629.198)" fill="#606060" font-size="27.774" font-family="IBMPlexSans, IBM Plex Sans"><tspan x="-72.782" y="0">Median Age</tspan></text>
    <text id="_79" data-name="79" transform="translate(960 6594.356)" fill="#606060" font-size="76.243" font-family="IBMPlexSans-SemiBold, IBM Plex Sans" font-weight="600"><tspan x="-45.746" y="0">79</tspan></text>
  </g>
</svg>
