<svg xmlns="http://www.w3.org/2000/svg" width="100%" height="100%" viewBox="0 0 756.353 409.517"><g transform="translate(-179.432 -3595.573)"><rect width="754.936" height="367.333" transform="translate(180.141 3637.048)" fill="#fff" stroke="#a7a9ac" stroke-miterlimit="10" stroke-width="1.417"/><path d="M259.391,3931.326H891.347m-631.956-27.144H891.347m-631.956-27.3H891.347m-631.956-27.3H891.347m-631.956-27.3H891.347m-631.956-27.3H891.347m-631.956-27.3H891.347m-631.956-27.3H891.347m-631.956-27.3H891.347m-631.956-27.3H891.347" fill="none" stroke="#d9d9d9" stroke-linejoin="round" stroke-width="0.975"/><path d="M259.391,3952.542l79.092,6.084,78.936-6.084,79.092-18.72,78.936-12.324H733.475l78.936,12.324,78.936,12.48v12.324H259.391v-6.084Z" fill="#91bce8"/><path d="M259.391,3959.563H892.283V3685.626H259.391v273.936Z" fill="none" fill-rule="evenodd"/><path d="M259.391,3952.542l79.092,6.084,78.936-6.084,79.092-43.524,78.936-49.608h78.936l79.092-31.044h78.936l78.936,24.8V3946.3l-78.936-12.48L733.475,3921.5H575.447l-78.936,12.324-79.092,18.72-78.936,6.084-79.092-6.084Z" fill="#789ac4"/><path d="M259.391,3959.563H892.283V3685.626H259.391v273.936Z" fill="none" fill-rule="evenodd"/><path d="M259.391,3921.5h79.092l78.936-18.564,79.092-99.372,78.936-37.128,78.936-12.48,79.092-6.24h78.936l78.936,12.48v92.976l-78.936-24.8H733.475l-79.092,31.044H575.447l-78.936,49.608-79.092,43.524-78.936,6.084-79.092-6.084V3921.5Z" fill="#4c5874"/><path d="M259.391,3959.563H892.283V3685.626H259.391v273.936Z" fill="none" fill-rule="evenodd"/><path d="M259.391,3685.782H891.347v74.412l-78.936-12.48H733.475l-79.092,6.24-78.936,12.48-78.936,37.128-79.092,99.372L338.483,3921.5H259.391V3685.782Z" fill="#313e59"/><path d="M259.391,3959.563H892.283V3685.626H259.391v273.936Z" fill="none" fill-rule="evenodd"/><text transform="translate(228.774 3962.754)" fill="#606060" font-size="14.314" font-family="IBMPlexSans, IBM Plex Sans"><tspan x="0" y="0">0%</tspan></text><text transform="translate(220.128 3935.443)" fill="#606060" font-size="14.314" font-family="IBMPlexSans, IBM Plex Sans"><tspan x="0" y="0">10%</tspan></text><text transform="translate(220.128 3908.154)" fill="#606060" font-size="14.314" font-family="IBMPlexSans, IBM Plex Sans"><tspan x="0" y="0">20%</tspan></text><text transform="translate(220.128 3880.853)" fill="#606060" font-size="14.314" font-family="IBMPlexSans, IBM Plex Sans"><tspan x="0" y="0">30%</tspan></text><text transform="translate(220.128 3853.564)" fill="#606060" font-size="14.314" font-family="IBMPlexSans, IBM Plex Sans"><tspan x="0" y="0">40%</tspan></text><text transform="translate(220.128 3826.263)" fill="#606060" font-size="14.314" font-family="IBMPlexSans, IBM Plex Sans"><tspan x="0" y="0">50%</tspan></text><text transform="translate(220.128 3798.964)" fill="#606060" font-size="14.314" font-family="IBMPlexSans, IBM Plex Sans"><tspan x="0" y="0">60%</tspan></text><text transform="translate(220.128 3771.664)" fill="#606060" font-size="14.314" font-family="IBMPlexSans, IBM Plex Sans"><tspan x="0" y="0">70%</tspan></text><text transform="translate(220.128 3744.364)" fill="#606060" font-size="14.314" font-family="IBMPlexSans, IBM Plex Sans"><tspan x="0" y="0">80%</tspan></text><text transform="translate(220.128 3717.074)" fill="#606060" font-size="14.314" font-family="IBMPlexSans, IBM Plex Sans"><tspan x="0" y="0">90%</tspan></text><text transform="translate(211.626 3689.784)" fill="#606060" font-size="14.314" font-family="IBMPlexSans, IBM Plex Sans"><tspan x="0" y="0">100%</tspan></text><text transform="translate(246.013 3983.422)" fill="#606060" font-size="14.314" font-family="IBMPlexSans, IBM Plex Sans"><tspan x="0" y="0">Mar</tspan></text><text transform="translate(326.765 3983.422)" fill="#606060" font-size="14.314" font-family="IBMPlexSans, IBM Plex Sans"><tspan x="0" y="0">Apr</tspan></text><text transform="translate(403.08 3983.422)" fill="#606060" font-size="14.314" font-family="IBMPlexSans, IBM Plex Sans"><tspan x="0" y="0">May</tspan></text><text transform="translate(485.477 3983.422)" fill="#606060" font-size="14.314" font-family="IBMPlexSans, IBM Plex Sans"><tspan x="0" y="0">Jun</tspan></text><text transform="translate(566.737 3983.422)" fill="#606060" font-size="14.314" font-family="IBMPlexSans, IBM Plex Sans"><tspan x="0" y="0">Jul</tspan></text><text transform="translate(641.802 3983.422)" fill="#606060" font-size="14.314" font-family="IBMPlexSans, IBM Plex Sans"><tspan x="0" y="0">Aug</tspan></text><text transform="translate(721.61 3983.422)" fill="#606060" font-size="14.314" font-family="IBMPlexSans, IBM Plex Sans"><tspan x="0" y="0">Sep</tspan></text><text transform="translate(801.154 3983.422)" fill="#606060" font-size="14.314" font-family="IBMPlexSans, IBM Plex Sans"><tspan x="0" y="0">Oct</tspan></text><text transform="translate(878.372 3983.422)" fill="#606060" font-size="14.314" font-family="IBMPlexSans, IBM Plex Sans"><tspan x="0" y="0">Nov</tspan></text><line y2="9.514" transform="translate(260.043 3958.626)" fill="none" stroke="#a7a9ac" stroke-miterlimit="10" stroke-width="1.417"/><line y2="9.514" transform="translate(338.483 3958.626)" fill="none" stroke="#a7a9ac" stroke-miterlimit="10" stroke-width="1.417"/><line y2="9.514" transform="translate(417.419 3958.626)" fill="none" stroke="#a7a9ac" stroke-miterlimit="10" stroke-width="1.417"/><line y2="9.514" transform="translate(496.511 3958.626)" fill="none" stroke="#a7a9ac" stroke-miterlimit="10" stroke-width="1.417"/><line y2="9.514" transform="translate(575.447 3958.626)" fill="none" stroke="#a7a9ac" stroke-miterlimit="10" stroke-width="1.417"/><line y2="9.514" transform="translate(654.383 3958.626)" fill="none" stroke="#a7a9ac" stroke-miterlimit="10" stroke-width="1.417"/><line y2="9.514" transform="translate(733.475 3958.626)" fill="none" stroke="#a7a9ac" stroke-miterlimit="10" stroke-width="1.417"/><line y2="9.514" transform="translate(812.411 3958.626)" fill="none" stroke="#a7a9ac" stroke-miterlimit="10" stroke-width="1.417"/><line y2="9.514" transform="translate(890.667 3958.626)" fill="none" stroke="#a7a9ac" stroke-miterlimit="10" stroke-width="1.417"/><line x2="632.008" transform="translate(259.34 3958.626)" fill="none" stroke="#a7a9ac" stroke-miterlimit="10" stroke-width="1.417"/><text transform="translate(505.4 3610.573)" fill="#606060" font-size="14.314" font-family="IBMPlexSans, IBM Plex Sans"><tspan x="0" y="0">0</tspan></text><text transform="translate(542.098 3610.573)" fill="#606060" font-size="14.314" font-family="IBMPlexSans, IBM Plex Sans"><tspan x="0" y="0">1</tspan></text><rect width="9.763" height="9.763" transform="translate(492.033 3600.518)" fill="#91bce8"/><rect width="9.763" height="9.763" transform="translate(528.545 3600.518)" fill="#789ac4"/><text transform="translate(578.348 3610.573)" fill="#606060" font-size="14.314" font-family="IBMPlexSans, IBM Plex Sans"><tspan x="0" y="0">2</tspan></text><rect width="9.763" height="9.763" transform="translate(564.795 3600.518)" fill="#4c5874"/><text transform="translate(614.598 3610.573)" fill="#606060" font-size="14.314" font-family="IBMPlexSans, IBM Plex Sans"><tspan x="0" y="0">3</tspan></text><rect width="9.763" height="9.763" transform="translate(601.045 3600.518)" fill="#313e59"/></g></svg>