<svg xmlns="http://www.w3.org/2000/svg" width="100%" height="100%" viewBox="0 0 756.353 409.517">
  <g id="Group_717" data-name="Group 717" transform="translate(-984.214 -3595.573)">
    <rect id="Rectangle_656" data-name="Rectangle 656" width="754.936" height="367.333" transform="translate(984.923 3637.048)" fill="#fff" stroke="#a7a9ac" stroke-miterlimit="10" stroke-width="1.417"/>
    <g id="Group_628" data-name="Group 628">
      <line id="Line_89" data-name="Line 89" y2="9.514" transform="translate(1692.924 3972.763)" fill="none" stroke="#a7a9ac" stroke-miterlimit="10" stroke-width="1.417"/>
      <line id="Line_90" data-name="Line 90" y2="9.514" transform="translate(1615.332 3972.763)" fill="none" stroke="#a7a9ac" stroke-miterlimit="10" stroke-width="1.417"/>
      <line id="Line_91" data-name="Line 91" y2="9.514" transform="translate(1537.19 3972.763)" fill="none" stroke="#a7a9ac" stroke-miterlimit="10" stroke-width="1.417"/>
      <line id="Line_92" data-name="Line 92" y2="9.514" transform="translate(1458.891 3972.763)" fill="none" stroke="#a7a9ac" stroke-miterlimit="10" stroke-width="1.417"/>
      <line id="Line_93" data-name="Line 93" y2="9.514" transform="translate(1380.591 3972.763)" fill="none" stroke="#a7a9ac" stroke-miterlimit="10" stroke-width="1.417"/>
      <line id="Line_94" data-name="Line 94" y2="9.514" transform="translate(1302.291 3972.763)" fill="none" stroke="#a7a9ac" stroke-miterlimit="10" stroke-width="1.417"/>
      <line id="Line_95" data-name="Line 95" y2="9.514" transform="translate(1224.149 3972.763)" fill="none" stroke="#a7a9ac" stroke-miterlimit="10" stroke-width="1.417"/>
      <line id="Line_96" data-name="Line 96" y2="9.514" transform="translate(1145.849 3972.763)" fill="none" stroke="#a7a9ac" stroke-miterlimit="10" stroke-width="1.417"/>
      <line id="Line_97" data-name="Line 97" y2="9.514" transform="translate(1068.286 3972.763)" fill="none" stroke="#a7a9ac" stroke-miterlimit="10" stroke-width="1.417"/>
      <path id="Path_970" data-name="Path 970" d="M1067.549,3973.415h627.031V3671.424H1067.549v301.991Z" fill="none" fill-rule="evenodd"/>
      <path id="Path_971" data-name="Path 971" d="M1067.549,3973.415h627.031V3671.424H1067.549v301.991Z" fill="none" fill-rule="evenodd"/>
      <path id="Path_972" data-name="Path 972" d="M1067.549,3973.415h627.031V3671.424H1067.549v301.991Z" fill="none" fill-rule="evenodd"/>
      <path id="Path_973" data-name="Path 973" d="M1067.549,3973.415h627.031V3671.424H1067.549v301.991Z" fill="none" fill-rule="evenodd"/>
      <path id="Path_974" data-name="Path 974" d="M1067.549,3965.68h156.6l78.142-20.522,78.3-20.522,78.3,6.946,78.3,20.522h78.142l78.3,13.576v6.946H1067.549v-6.946Z" fill="#91bce8"/>
      <path id="Path_975" data-name="Path 975" d="M1067.549,3973.415h627.031V3671.424H1067.549v301.991Z" fill="none" fill-rule="evenodd"/>
      <path id="Path_976" data-name="Path 976" d="M1067.549,3945.158l78.3,6.946h78.3l78.142-41.044,78.3-75.3,78.3,13.734,78.3,6.788,78.142,41.044,78.3,20.522v47.833l-78.3-13.576H1537.19l-78.3-20.522-78.3-6.946-78.3,20.522-78.142,20.522h-156.6v-20.522Z" fill="#789ac4"/>
      <path id="Path_977" data-name="Path 977" d="M1067.549,3973.415h627.031V3671.424H1067.549v301.991Z" fill="none" fill-rule="evenodd"/>
      <path id="Path_978" data-name="Path 978" d="M1067.549,3828.813l78.3,6.946,78.3-68.512,78.142-88.877,78.3,6.788,78.3,6.946,78.3-6.946,78.142,13.734,78.3,47.832v171.123l-78.3-20.522-78.142-41.044-78.3-6.788-78.3-13.734-78.3,75.3-78.142,41.044h-78.3l-78.3-6.946V3828.813Z" fill="#4c5874"/>
      <path id="Path_979" data-name="Path 979" d="M1067.549,3973.273h627.031V3671.282H1067.549v301.991Z" fill="none" fill-rule="evenodd"/>
      <path id="Path_980" data-name="Path 980" d="M1067.549,3671.582h626.083v75.143l-78.3-47.833-78.142-13.734-78.3,6.946-78.3-6.946-78.3-6.788-78.142,88.877-78.3,68.512-78.3-6.946V3671.582Z" fill="#313e59"/>
      <text id="_0_" data-name="0%" transform="translate(1036.244 3976.654)" fill="#606060" font-size="14.314" font-family="IBMPlexSans, IBM Plex Sans"><tspan x="0" y="0">0%</tspan></text>
      <text id="_10_" data-name="10%" transform="translate(1027.598 3946.553)" fill="#606060" font-size="14.314" font-family="IBMPlexSans, IBM Plex Sans"><tspan x="0" y="0">10%</tspan></text>
      <text id="_20_" data-name="20%" transform="translate(1027.598 3916.459)" fill="#606060" font-size="14.314" font-family="IBMPlexSans, IBM Plex Sans"><tspan x="0" y="0">20%</tspan></text>
      <text id="_30_" data-name="30%" transform="translate(1027.598 3886.347)" fill="#606060" font-size="14.314" font-family="IBMPlexSans, IBM Plex Sans"><tspan x="0" y="0">30%</tspan></text>
      <text id="_40_" data-name="40%" transform="translate(1027.598 3856.243)" fill="#606060" font-size="14.314" font-family="IBMPlexSans, IBM Plex Sans"><tspan x="0" y="0">40%</tspan></text>
      <text id="_50_" data-name="50%" transform="translate(1027.598 3826.141)" fill="#606060" font-size="14.314" font-family="IBMPlexSans, IBM Plex Sans"><tspan x="0" y="0">50%</tspan></text>
      <text id="_60_" data-name="60%" transform="translate(1027.598 3796.048)" fill="#606060" font-size="14.314" font-family="IBMPlexSans, IBM Plex Sans"><tspan x="0" y="0">60%</tspan></text>
      <text id="_70_" data-name="70%" transform="translate(1027.598 3765.935)" fill="#606060" font-size="14.314" font-family="IBMPlexSans, IBM Plex Sans"><tspan x="0" y="0">70%</tspan></text>
      <text id="_80_" data-name="80%" transform="translate(1027.598 3735.833)" fill="#606060" font-size="14.314" font-family="IBMPlexSans, IBM Plex Sans"><tspan x="0" y="0">80%</tspan></text>
      <text id="_90_" data-name="90%" transform="translate(1027.598 3705.729)" fill="#606060" font-size="14.314" font-family="IBMPlexSans, IBM Plex Sans"><tspan x="0" y="0">90%</tspan></text>
      <text id="_100_" data-name="100%" transform="translate(1019.096 3675.616)" fill="#606060" font-size="14.314" font-family="IBMPlexSans, IBM Plex Sans"><tspan x="0" y="0">100%</tspan></text>
      <text id="Mar" transform="translate(1053.978 3997.59)" fill="#606060" font-size="14.314" font-family="IBMPlexSans, IBM Plex Sans"><tspan x="0" y="0">Mar</tspan></text>
      <text id="Apr" transform="translate(1134.01 3997.59)" fill="#606060" font-size="14.314" font-family="IBMPlexSans, IBM Plex Sans"><tspan x="0" y="0">Apr</tspan></text>
      <text id="May" transform="translate(1209.559 3997.59)" fill="#606060" font-size="14.314" font-family="IBMPlexSans, IBM Plex Sans"><tspan x="0" y="0">May</tspan></text>
      <text id="Jun" transform="translate(1291.266 3997.59)" fill="#606060" font-size="14.314" font-family="IBMPlexSans, IBM Plex Sans"><tspan x="0" y="0">Jun</tspan></text>
      <text id="Jul" transform="translate(1371.821 3997.59)" fill="#606060" font-size="14.314" font-family="IBMPlexSans, IBM Plex Sans"><tspan x="0" y="0">Jul</tspan></text>
      <text id="Aug" transform="translate(1446.106 3997.59)" fill="#606060" font-size="14.314" font-family="IBMPlexSans, IBM Plex Sans"><tspan x="0" y="0">Aug</tspan></text>
      <text id="Sep" transform="translate(1525.182 3997.59)" fill="#606060" font-size="14.314" font-family="IBMPlexSans, IBM Plex Sans"><tspan x="0" y="0">Sep</tspan></text>
      <text id="Oct" transform="translate(1604.001 3997.59)" fill="#606060" font-size="14.314" font-family="IBMPlexSans, IBM Plex Sans"><tspan x="0" y="0">Oct</tspan></text>
      <text id="Nov" transform="translate(1680.466 3997.59)" fill="#606060" font-size="14.314" font-family="IBMPlexSans, IBM Plex Sans"><tspan x="0" y="0">Nov</tspan></text>
      <line id="Line_98" data-name="Line 98" x2="626.067" transform="translate(1067.577 3972.626)" fill="none" stroke="#a7a9ac" stroke-miterlimit="10" stroke-width="1.417"/>
    </g>
    <g id="Group_673" data-name="Group 673">
      <text id="_0" data-name="0" transform="translate(1310.182 3610.573)" fill="#606060" font-size="14.314" font-family="IBMPlexSans, IBM Plex Sans"><tspan x="0" y="0">0</tspan></text>
      <text id="_1" data-name="1" transform="translate(1346.88 3610.573)" fill="#606060" font-size="14.314" font-family="IBMPlexSans, IBM Plex Sans"><tspan x="0" y="0">1</tspan></text>
      <rect id="Rectangle_688" data-name="Rectangle 688" width="9.763" height="9.763" transform="translate(1296.815 3600.518)" fill="#91bce8"/>
      <rect id="Rectangle_689" data-name="Rectangle 689" width="9.763" height="9.763" transform="translate(1333.327 3600.518)" fill="#789ac4"/>
      <text id="_2" data-name="2" transform="translate(1383.13 3610.573)" fill="#606060" font-size="14.314" font-family="IBMPlexSans, IBM Plex Sans"><tspan x="0" y="0">2</tspan></text>
      <rect id="Rectangle_690" data-name="Rectangle 690" width="9.763" height="9.763" transform="translate(1369.577 3600.518)" fill="#4c5874"/>
      <text id="_3" data-name="3" transform="translate(1419.38 3610.573)" fill="#606060" font-size="14.314" font-family="IBMPlexSans, IBM Plex Sans"><tspan x="0" y="0">3</tspan></text>
      <rect id="Rectangle_691" data-name="Rectangle 691" width="9.763" height="9.763" transform="translate(1405.827 3600.518)" fill="#313e59"/>
    </g>
  </g>
</svg>
