<svg xmlns="http://www.w3.org/2000/svg" width="100%" height="100%" viewBox="0 0 756.353 409.866">
  <g id="Group_718" data-name="Group 718" transform="translate(-179.433 -4181.515)">
    <g id="Group_677" data-name="Group 677">
      <text id="_0" data-name="0" transform="translate(523.524 4196.515)" fill="#606060" font-size="14.314" font-family="IBMPlexSans, IBM Plex Sans"><tspan x="0" y="0">0</tspan></text>
      <text id="_1" data-name="1" transform="translate(560.222 4196.515)" fill="#606060" font-size="14.314" font-family="IBMPlexSans, IBM Plex Sans"><tspan x="0" y="0">1</tspan></text>
      <rect id="Rectangle_698" data-name="Rectangle 698" width="9.763" height="9.763" transform="translate(510.157 4186.46)" fill="#91bce8"/>
      <rect id="Rectangle_699" data-name="Rectangle 699" width="9.763" height="9.763" transform="translate(546.67 4186.46)" fill="#789ac4"/>
      <text id="_2" data-name="2" transform="translate(596.472 4196.515)" fill="#606060" font-size="14.314" font-family="IBMPlexSans, IBM Plex Sans"><tspan x="0" y="0">2</tspan></text>
      <rect id="Rectangle_700" data-name="Rectangle 700" width="9.763" height="9.763" transform="translate(582.92 4186.46)" fill="#4c5874"/>
    </g>
    <g id="Group_678" data-name="Group 678">
      <rect id="Rectangle_701" data-name="Rectangle 701" width="754.936" height="367.333" transform="translate(180.141 4223.339)" fill="#fff" stroke="#a7a9ac" stroke-miterlimit="10" stroke-width="1.417"/>
      <path id="Path_1072" data-name="Path 1072" d="M270.643,4504.413H883.619m-612.976-27.156H883.619M270.643,4450.1H883.619m-612.976-27.156H883.619m-612.976-27.156H883.619m-612.976-27.156H883.619M270.643,4341.3H883.619m-612.976-27.156H883.619m-612.976-27.156H883.619M270.643,4259.83H883.619" fill="none" stroke="#d9d9d9" stroke-linejoin="round" stroke-width="1.117"/>
      <path id="Path_1073" data-name="Path 1073" d="M270.643,4525.316l76.644,6.253H500.576l76.644-43.235,76.644,6.253,76.466,6.075,76.644,18.58,76.644,6.075v6.253H270.643v-6.253Z" fill="#91bce8"/>
      <path id="Path_1074" data-name="Path 1074" d="M270.643,4512.988H423.932l76.644-55.562,76.644-36.982,76.644-30.908,76.466,24.655,76.644,43.235,76.644,37.161v30.729l-76.644-6.074-76.644-18.581-76.466-6.074-76.644-6.253-76.644,43.235H347.287l-76.644-6.253v-12.328Z" fill="#789ac4"/>
      <path id="Path_1075" data-name="Path 1075" d="M270.643,4259.83H883.619v234.756l-76.644-37.161L730.33,4414.19l-76.466-24.655-76.644,30.908-76.644,36.982-76.644,55.563H270.643V4259.83Z" fill="#4c5874"/>
      <text id="_0_" data-name="0%" transform="translate(238.391 4536.219)" fill="#606060" font-size="14.314" font-family="IBMPlexSans, IBM Plex Sans"><tspan x="0" y="0">0%</tspan></text>
      <text id="_10_" data-name="10%" transform="translate(229.746 4509.036)" fill="#606060" font-size="14.314" font-family="IBMPlexSans, IBM Plex Sans"><tspan x="0" y="0">10%</tspan></text>
      <text id="_20_" data-name="20%" transform="translate(229.746 4481.864)" fill="#606060" font-size="14.314" font-family="IBMPlexSans, IBM Plex Sans"><tspan x="0" y="0">20%</tspan></text>
      <text id="_30_" data-name="30%" transform="translate(229.746 4454.693)" fill="#606060" font-size="14.314" font-family="IBMPlexSans, IBM Plex Sans"><tspan x="0" y="0">30%</tspan></text>
      <text id="_40_" data-name="40%" transform="translate(229.746 4427.534)" fill="#606060" font-size="14.314" font-family="IBMPlexSans, IBM Plex Sans"><tspan x="0" y="0">40%</tspan></text>
      <text id="_50_" data-name="50%" transform="translate(229.746 4400.364)" fill="#606060" font-size="14.314" font-family="IBMPlexSans, IBM Plex Sans"><tspan x="0" y="0">50%</tspan></text>
      <text id="_60_" data-name="60%" transform="translate(229.746 4373.181)" fill="#606060" font-size="14.314" font-family="IBMPlexSans, IBM Plex Sans"><tspan x="0" y="0">60%</tspan></text>
      <text id="_70_" data-name="70%" transform="translate(229.746 4346.01)" fill="#606060" font-size="14.314" font-family="IBMPlexSans, IBM Plex Sans"><tspan x="0" y="0">70%</tspan></text>
      <text id="_80_" data-name="80%" transform="translate(229.746 4318.851)" fill="#606060" font-size="14.314" font-family="IBMPlexSans, IBM Plex Sans"><tspan x="0" y="0">80%</tspan></text>
      <text id="_90_" data-name="90%" transform="translate(229.746 4291.68)" fill="#606060" font-size="14.314" font-family="IBMPlexSans, IBM Plex Sans"><tspan x="0" y="0">90%</tspan></text>
      <text id="_100_" data-name="100%" transform="translate(221.244 4264.509)" fill="#606060" font-size="14.314" font-family="IBMPlexSans, IBM Plex Sans"><tspan x="0" y="0">100%</tspan></text>
      <text id="Mar" transform="translate(255.269 4556.589)" fill="#606060" font-size="14.314" font-family="IBMPlexSans, IBM Plex Sans"><tspan x="0" y="0">Mar</tspan></text>
      <text id="Apr" transform="translate(333.907 4556.589)" fill="#606060" font-size="14.314" font-family="IBMPlexSans, IBM Plex Sans"><tspan x="0" y="0">Apr</tspan></text>
      <text id="May" transform="translate(407.465 4556.589)" fill="#606060" font-size="14.314" font-family="IBMPlexSans, IBM Plex Sans"><tspan x="0" y="0">May</tspan></text>
      <text id="Jun" transform="translate(487.988 4556.589)" fill="#606060" font-size="14.314" font-family="IBMPlexSans, IBM Plex Sans"><tspan x="0" y="0">Jun</tspan></text>
      <text id="Jul" transform="translate(567.222 4556.589)" fill="#606060" font-size="14.314" font-family="IBMPlexSans, IBM Plex Sans"><tspan x="0" y="0">Jul</tspan></text>
      <text id="Aug" transform="translate(639.348 4556.589)" fill="#606060" font-size="14.314" font-family="IBMPlexSans, IBM Plex Sans"><tspan x="0" y="0">Aug</tspan></text>
      <text id="Sep" transform="translate(716.906 4556.589)" fill="#606060" font-size="14.314" font-family="IBMPlexSans, IBM Plex Sans"><tspan x="0" y="0">Sep</tspan></text>
      <text id="Oct" transform="translate(794.174 4556.589)" fill="#606060" font-size="14.314" font-family="IBMPlexSans, IBM Plex Sans"><tspan x="0" y="0">Oct</tspan></text>
      <text id="Nov" transform="translate(868.752 4556.589)" fill="#606060" font-size="14.314" font-family="IBMPlexSans, IBM Plex Sans"><tspan x="0" y="0">Nov</tspan></text>
      <line id="Line_154" data-name="Line 154" x2="613.041" transform="translate(270.642 4531.793)" fill="none" stroke="#a7a9ac" stroke-miterlimit="10" stroke-width="1.417"/>
      <line id="Line_155" data-name="Line 155" y2="9.514" transform="translate(271.398 4531.793)" fill="none" stroke="#a7a9ac" stroke-miterlimit="10" stroke-width="1.417"/>
      <line id="Line_156" data-name="Line 156" y2="9.514" transform="translate(345.258 4531.793)" fill="none" stroke="#a7a9ac" stroke-miterlimit="10" stroke-width="1.417"/>
      <line id="Line_157" data-name="Line 157" y2="9.514" transform="translate(420.684 4531.793)" fill="none" stroke="#a7a9ac" stroke-miterlimit="10" stroke-width="1.417"/>
      <line id="Line_158" data-name="Line 158" y2="9.514" transform="translate(499.783 4531.793)" fill="none" stroke="#a7a9ac" stroke-miterlimit="10" stroke-width="1.417"/>
      <line id="Line_159" data-name="Line 159" y2="9.514" transform="translate(576.898 4531.793)" fill="none" stroke="#a7a9ac" stroke-miterlimit="10" stroke-width="1.417"/>
      <line id="Line_160" data-name="Line 160" y2="9.514" transform="translate(651.765 4531.793)" fill="none" stroke="#a7a9ac" stroke-miterlimit="10" stroke-width="1.417"/>
      <line id="Line_161" data-name="Line 161" y2="9.514" transform="translate(729.173 4531.793)" fill="none" stroke="#a7a9ac" stroke-miterlimit="10" stroke-width="1.417"/>
      <line id="Line_162" data-name="Line 162" y2="9.514" transform="translate(805.317 4531.793)" fill="none" stroke="#a7a9ac" stroke-miterlimit="10" stroke-width="1.417"/>
      <line id="Line_163" data-name="Line 163" y2="9.514" transform="translate(882.966 4531.793)" fill="none" stroke="#a7a9ac" stroke-miterlimit="10" stroke-width="1.417"/>
    </g>
  </g>
</svg>
