<svg xmlns="http://www.w3.org/2000/svg" width="100%" height="100%" viewBox="0 0 756.353 409.866">
  <g id="Group_719" data-name="Group 719" transform="translate(-984.214 -4181.515)">
    <rect id="Rectangle_692" data-name="Rectangle 692" width="754.936" height="367.333" transform="translate(984.923 4223.339)" fill="#fff" stroke="#a7a9ac" stroke-miterlimit="10" stroke-width="1.417"/>
    <g id="Group_674" data-name="Group 674">
      <text id="_0" data-name="0" transform="translate(1292.057 4196.515)" fill="#606060" font-size="14.314" font-family="IBMPlexSans, IBM Plex Sans"><tspan x="0" y="0">0</tspan></text>
      <text id="_1" data-name="1" transform="translate(1328.755 4196.515)" fill="#606060" font-size="14.314" font-family="IBMPlexSans, IBM Plex Sans"><tspan x="0" y="0">1</tspan></text>
      <rect id="Rectangle_693" data-name="Rectangle 693" width="9.763" height="9.763" transform="translate(1278.69 4186.46)" fill="#91bce8"/>
      <rect id="Rectangle_694" data-name="Rectangle 694" width="9.763" height="9.763" transform="translate(1315.203 4186.46)" fill="#789ac4"/>
      <text id="_2" data-name="2" transform="translate(1365.005 4196.515)" fill="#606060" font-size="14.314" font-family="IBMPlexSans, IBM Plex Sans"><tspan x="0" y="0">2</tspan></text>
      <rect id="Rectangle_695" data-name="Rectangle 695" width="9.763" height="9.763" transform="translate(1351.453 4186.46)" fill="#4c5874"/>
      <text id="_3" data-name="3" transform="translate(1401.255 4196.515)" fill="#606060" font-size="14.314" font-family="IBMPlexSans, IBM Plex Sans"><tspan x="0" y="0">3</tspan></text>
      <rect id="Rectangle_696" data-name="Rectangle 696" width="9.763" height="9.763" transform="translate(1387.703 4186.46)" fill="#313e59"/>
      <text id="_4" data-name="4" transform="translate(1437.505 4196.515)" fill="#606060" font-size="14.314" font-family="IBMPlexSans, IBM Plex Sans"><tspan x="0" y="0">4</tspan></text>
      <rect id="Rectangle_697" data-name="Rectangle 697" width="9.763" height="9.763" transform="translate(1423.953 4186.46)" fill="#222b3e"/>
    </g>
    <g id="Group_675" data-name="Group 675">
      <line id="Line_135" data-name="Line 135" y2="9.514" transform="translate(1146.514 4532.357)" fill="none" stroke="#a7a9ac" stroke-miterlimit="10" stroke-width="1.417"/>
      <line id="Line_136" data-name="Line 136" y2="9.514" transform="translate(1225.077 4532.357)" fill="none" stroke="#a7a9ac" stroke-miterlimit="10" stroke-width="1.417"/>
      <line id="Line_137" data-name="Line 137" y2="9.514" transform="translate(1303.804 4532.357)" fill="none" stroke="#a7a9ac" stroke-miterlimit="10" stroke-width="1.417"/>
      <line id="Line_138" data-name="Line 138" y2="9.514" transform="translate(1382.366 4532.357)" fill="none" stroke="#a7a9ac" stroke-miterlimit="10" stroke-width="1.417"/>
      <line id="Line_139" data-name="Line 139" y2="9.514" transform="translate(1461.094 4532.357)" fill="none" stroke="#a7a9ac" stroke-miterlimit="10" stroke-width="1.417"/>
      <line id="Line_140" data-name="Line 140" y2="9.514" transform="translate(1539.656 4532.357)" fill="none" stroke="#a7a9ac" stroke-miterlimit="10" stroke-width="1.417"/>
      <line id="Line_141" data-name="Line 141" y2="9.514" transform="translate(1618.219 4532.357)" fill="none" stroke="#a7a9ac" stroke-miterlimit="10" stroke-width="1.417"/>
      <line id="Line_142" data-name="Line 142" y2="9.514" transform="translate(1696.271 4532.357)" fill="none" stroke="#a7a9ac" stroke-miterlimit="10" stroke-width="1.417"/>
      <line id="Line_143" data-name="Line 143" y2="9.514" transform="translate(1068.67 4532.357)" fill="none" stroke="#a7a9ac" stroke-miterlimit="10" stroke-width="1.417"/>
      <path id="Path_1061" data-name="Path 1061" d="M1067.951,4506.671h628.995m-628.995-26.133h628.995M1067.951,4454.4h628.995m-628.995-26.132h628.995m-628.995-26.133h628.995m-628.995-26.133h628.995m-628.995-26.133h628.995m-628.995-26.133h628.995m-628.995-26.132h628.995m-628.995-26.133h628.995" fill="none" stroke="#d9d9d9" stroke-linejoin="round" stroke-width="1.027"/>
      <path id="Path_1062" data-name="Path 1062" d="M1067.951,4509.136H1303.8l78.563-5.917h157.29l78.563,11.833,78.727,5.917V4532.8h-629v-23.667Z" fill="#91bce8"/>
      <path id="Path_1063" data-name="Path 1063" d="M1067.787,4533.79h629.981V4271.312H1067.787V4533.79Z" fill="none" fill-rule="evenodd"/>
      <path id="Path_1064" data-name="Path 1064" d="M1067.951,4503.219h78.563l78.563-6.081h157.29l78.727-17.75,78.563,11.833,78.563,17.915,78.727,11.834h0l-78.727-5.917-78.563-11.834h-157.29l-78.563,5.917H1067.951v-5.917Z" fill="#789ac4"/>
      <path id="Path_1065" data-name="Path 1065" d="M1067.787,4533.79h629.981V4271.312H1067.787V4533.79Z" fill="none" fill-rule="evenodd"/>
      <path id="Path_1066" data-name="Path 1066" d="M1067.951,4497.138l78.563,6.081,78.563-6.081,78.727-47.5,78.563-17.75,78.727-5.917,78.563,11.833,78.563,59.333,78.727,23.832h0l-78.727-11.834-78.563-17.915-78.563-11.833-78.727,17.75h-157.29l-78.563,6.081h-78.563v-6.081Z" fill="#4c5874"/>
      <path id="Path_1067" data-name="Path 1067" d="M1067.787,4533.79h629.981V4271.312H1067.787V4533.79Z" fill="none" fill-rule="evenodd"/>
      <path id="Path_1068" data-name="Path 1068" d="M1067.951,4467.554l78.563,11.833,78.563-23.832,78.727-112.749,78.563,11.833h78.727l78.563,17.751,78.563,65.414,78.727,29.749v53.416l-78.727-23.832-78.563-59.333-78.563-11.834-78.727,5.917-78.563,17.75-78.727,47.5-78.563,6.082-78.563-6.082v-29.584Z" fill="#313e59"/>
      <path id="Path_1069" data-name="Path 1069" d="M1067.787,4533.79h629.981V4271.312H1067.787V4533.79Z" fill="none" fill-rule="evenodd"/>
      <path id="Path_1070" data-name="Path 1070" d="M1067.951,4271.476h629v196.078l-78.727-29.749-78.563-65.414-78.563-17.75h-78.727l-78.563-11.834-78.727,112.749-78.563,23.832-78.563-11.834V4271.476Z" fill="#222b3e"/>
      <path id="Path_1071" data-name="Path 1071" d="M1067.787,4533.79h629.981V4271.312H1067.787V4533.79Z" fill="none" fill-rule="evenodd"/>
      <text id="_0_" data-name="0%" transform="translate(1036.433 4537.114)" fill="#606060" font-size="14.314" font-family="IBMPlexSans, IBM Plex Sans"><tspan x="0" y="0">0%</tspan></text>
      <text id="_10_" data-name="10%" transform="translate(1027.788 4510.983)" fill="#606060" font-size="14.314" font-family="IBMPlexSans, IBM Plex Sans"><tspan x="0" y="0">10%</tspan></text>
      <text id="_20_" data-name="20%" transform="translate(1027.788 4484.854)" fill="#606060" font-size="14.314" font-family="IBMPlexSans, IBM Plex Sans"><tspan x="0" y="0">20%</tspan></text>
      <text id="_30_" data-name="30%" transform="translate(1027.788 4458.702)" fill="#606060" font-size="14.314" font-family="IBMPlexSans, IBM Plex Sans"><tspan x="0" y="0">30%</tspan></text>
      <text id="_40_" data-name="40%" transform="translate(1027.788 4432.561)" fill="#606060" font-size="14.314" font-family="IBMPlexSans, IBM Plex Sans"><tspan x="0" y="0">40%</tspan></text>
      <text id="_50_" data-name="50%" transform="translate(1027.788 4406.431)" fill="#606060" font-size="14.314" font-family="IBMPlexSans, IBM Plex Sans"><tspan x="0" y="0">50%</tspan></text>
      <text id="_60_" data-name="60%" transform="translate(1027.788 4380.279)" fill="#606060" font-size="14.314" font-family="IBMPlexSans, IBM Plex Sans"><tspan x="0" y="0">60%</tspan></text>
      <text id="_70_" data-name="70%" transform="translate(1027.788 4354.139)" fill="#606060" font-size="14.314" font-family="IBMPlexSans, IBM Plex Sans"><tspan x="0" y="0">70%</tspan></text>
      <text id="_80_" data-name="80%" transform="translate(1027.788 4328.008)" fill="#606060" font-size="14.314" font-family="IBMPlexSans, IBM Plex Sans"><tspan x="0" y="0">80%</tspan></text>
      <text id="_90_" data-name="90%" transform="translate(1027.788 4301.855)" fill="#606060" font-size="14.314" font-family="IBMPlexSans, IBM Plex Sans"><tspan x="0" y="0">90%</tspan></text>
      <text id="_100_" data-name="100%" transform="translate(1019.285 4275.727)" fill="#606060" font-size="14.314" font-family="IBMPlexSans, IBM Plex Sans"><tspan x="0" y="0">100%</tspan></text>
      <text id="Mar" transform="translate(1053.76 4558.911)" fill="#606060" font-size="14.314" font-family="IBMPlexSans, IBM Plex Sans"><tspan x="0" y="0">Mar</tspan></text>
      <text id="Apr" transform="translate(1134.226 4558.911)" fill="#606060" font-size="14.314" font-family="IBMPlexSans, IBM Plex Sans"><tspan x="0" y="0">Apr</tspan></text>
      <text id="May" transform="translate(1210.017 4558.911)" fill="#606060" font-size="14.314" font-family="IBMPlexSans, IBM Plex Sans"><tspan x="0" y="0">May</tspan></text>
      <text id="Jun" transform="translate(1292.238 4558.911)" fill="#606060" font-size="14.314" font-family="IBMPlexSans, IBM Plex Sans"><tspan x="0" y="0">Jun</tspan></text>
      <text id="Jul" transform="translate(1373.25 4558.911)" fill="#606060" font-size="14.314" font-family="IBMPlexSans, IBM Plex Sans"><tspan x="0" y="0">Jul</tspan></text>
      <text id="Aug" transform="translate(1447.725 4558.911)" fill="#606060" font-size="14.314" font-family="IBMPlexSans, IBM Plex Sans"><tspan x="0" y="0">Aug</tspan></text>
      <text id="Sep" transform="translate(1527.207 4558.911)" fill="#606060" font-size="14.314" font-family="IBMPlexSans, IBM Plex Sans"><tspan x="0" y="0">Sep</tspan></text>
      <text id="Oct" transform="translate(1606.41 4558.911)" fill="#606060" font-size="14.314" font-family="IBMPlexSans, IBM Plex Sans"><tspan x="0" y="0">Oct</tspan></text>
      <text id="Nov" transform="translate(1683.153 4558.911)" fill="#606060" font-size="14.314" font-family="IBMPlexSans, IBM Plex Sans"><tspan x="0" y="0">Nov</tspan></text>
      <line id="Line_144" data-name="Line 144" x2="628.995" transform="translate(1067.951 4532.804)" fill="none" stroke="#a7a9ac" stroke-miterlimit="10" stroke-width="1.417"/>
    </g>
  </g>
</svg>
