<?xml version="1.0" encoding="utf-8"?>
<!-- Generator: Adobe Illustrator 22.0.1, SVG Export Plug-In . SVG Version: 6.00 Build 0)  -->
<svg version="1.1" id="_06_MEASURES_AGAINST_COVID-19"
	 xmlns="http://www.w3.org/2000/svg" xmlns:xlink="http://www.w3.org/1999/xlink" x="0px" y="0px" viewBox="0 0 807.4 430.9"
	 style="enable-background:new 0 0 807.4 430.9;" xml:space="preserve">
<style type="text/css">
	.uuu0{fill:#606060;}
	.uuu1{font-family:'ArialMT';}
	.uuu2{font-size:14.31px;}
	.uuu3{fill:#90BBE7;}
	.uuu4{fill:#7899C3;}
	.uuu5{fill:#4C5874;}
	.uuu6{fill:#313E59;}
	.uuu7{fill:#222B3E;}
	.uuu8{fill:#FFFFFF;stroke:#A6A8AB;stroke-width:1.42;stroke-miterlimit:10;}
	.uuu9{fill:none;stroke:#A6A8AB;stroke-width:1.42;stroke-miterlimit:10;}
</style>
<text transform="matrix(1 0 0 1 333.39 36.38)" class="uuu0 uuu1 uuu2">0</text>
<text transform="matrix(1 0 0 1 370.08 36.38)" class="uuu0 uuu1 uuu2">1</text>
<rect x="320" y="26.3" class="uuu3" width="9.8" height="9.8"/>
<rect x="356.5" y="26.3" class="uuu4" width="9.8" height="9.8"/>
<text transform="matrix(1 0 0 1 406.33 36.38)" class="uuu0 uuu1 uuu2">2</text>
<rect x="392.8" y="26.3" class="uuu5" width="9.8" height="9.8"/>
<text transform="matrix(1 0 0 1 442.58 36.38)" class="uuu0 uuu1 uuu2">3</text>
<rect x="429" y="26.3" class="uuu6" width="9.8" height="9.8"/>
<text transform="matrix(1 0 0 1 478.83 36.38)" class="uuu0 uuu1 uuu2">4</text>
<rect x="465.3" y="26.3" class="uuu7" width="9.8" height="9.8"/>
<rect x="0.7" y="62.9" class="uuu8" width="806" height="367.3"/>
<polygon class="uuu3" points="55.4,137.6 107.8,221.1 158.9,256 209.9,282.1 262.3,313.3 313.4,334.5 365.7,339.5 416.8,339.5 
	469.1,339.5 520.2,339.5 572.6,344.5 623.7,344.5 676,344.5 727.1,344.5 779.4,344.5 727.1,344.5 676,344.5 623.7,344.5 
	572.6,344.5 520.2,344.5 469.1,344.5 416.8,344.5 365.7,344.5 313.4,344.5 262.3,344.5 209.9,344.5 158.9,344.5 107.8,344.5 
	55.4,344.5 "/>
<polygon class="uuu4" points="55.4,126.4 107.8,188.7 158.9,223.6 209.9,256 262.3,292.1 313.4,308.3 365.7,323.3 416.8,329.5 
	469.1,334.5 520.2,334.5 572.6,334.5 623.7,339.5 676,344.5 727.1,344.5 779.4,344.5 727.1,344.5 676,344.5 623.7,344.5 
	572.6,344.5 520.2,339.5 469.1,339.5 416.8,339.5 365.7,339.5 313.4,334.5 262.3,313.3 209.9,282.1 158.9,256 107.8,221.1 
	55.4,137.6 "/>
<polygon class="uuu5" points="55.4,117.7 107.8,157.5 158.9,156.3 209.9,156.3 262.3,192.4 313.4,202.4 365.7,223.6 416.8,265.9 
	469.1,275.9 520.2,282.1 572.6,282.1 623.7,275.9 676,282.1 727.1,287.1 779.4,287.1 779.4,344.5 727.1,344.5 676,344.5 
	623.7,339.5 572.6,334.5 520.2,334.5 469.1,334.5 416.8,329.5 365.7,323.3 313.4,308.3 262.3,292.1 209.9,256 158.9,223.6 
	107.8,188.7 55.4,126.4 "/>
<polygon class="uuu6" points="55.4,103.9 107.8,108.9 158.9,108.9 209.9,113.9 262.3,118.9 313.4,123.9 365.7,130.1 416.8,161.3 
	469.1,171.2 520.2,182.4 572.6,182.4 623.7,171.2 676,176.2 727.1,182.4 779.4,166.2 779.4,287.1 727.1,287.1 676,282.1 
	623.7,275.9 572.6,282.1 520.2,282.1 469.1,275.9 416.8,265.9 365.7,223.6 313.4,202.4 262.3,192.4 209.9,156.3 158.9,156.3 
	107.8,157.5 55.4,117.7 "/>
<polygon class="uuu7" points="55.4,103.9 107.8,103.9 158.9,103.9 209.9,103.9 262.3,103.9 313.4,103.9 365.7,103.9 416.8,103.9 
	469.1,103.9 520.2,103.9 572.6,103.9 623.7,103.9 676,103.9 727.1,103.9 779.4,103.9 779.4,166.2 727.1,182.4 676,176.2 
	623.7,171.2 572.6,182.4 520.2,182.4 469.1,171.2 416.8,161.3 365.7,130.1 313.4,123.9 262.3,118.9 209.9,113.9 158.9,108.9 
	107.8,108.9 "/>
<line class="st9" x1="56.1" y1="345.1" x2="778.8" y2="345.1"/>
<path class="st9" d="M778.8,345.1v5 M727.7,345.1v5 M675.4,345.1v5 M624.3,345.1v5 M571.9,345.1v5 M520.9,345.1v5 M468.5,345.1v5
	 M417.4,345.1v5 M365.1,345.1v5 M314,345.1v5 M261.7,345.1v5 M210.6,345.1v5 M159.5,345.1v5 M107.1,345.1v5 M56.1,345.1v5"/>
<text transform="matrix(1 0 0 1 23.93 349.43)" class="uuu0 uuu1 uuu2">0%</text>
<text transform="matrix(1 0 0 1 16.23 325.75)" class="uuu0 uuu1 uuu2">10%</text>
<text transform="matrix(1 0 0 1 16.23 300.83)" class="uuu0 uuu1 uuu2">20%</text>
<text transform="matrix(1 0 0 1 16.23 277.16)" class="uuu0 uuu1 uuu2">30%</text>
<text transform="matrix(1 0 0 1 16.23 253.48)" class="uuu0 uuu1 uuu2">40%</text>
<text transform="matrix(1 0 0 1 16.23 228.56)" class="uuu0 uuu1 uuu2">50%</text>
<text transform="matrix(1 0 0 1 16.23 204.88)" class="uuu0 uuu1 uuu2">60%</text>
<text transform="matrix(1 0 0 1 16.23 179.96)" class="uuu0 uuu1 uuu2">70%</text>
<text transform="matrix(1 0 0 1 16.23 156.29)" class="uuu0 uuu1 uuu2">80%</text>
<text transform="matrix(1 0 0 1 16.23 132.61)" class="uuu0 uuu1 uuu2">90%</text>
<text transform="matrix(1 0 0 1 8.54 107.69)" class="uuu0 uuu1 uuu2">100%</text>
<text transform="matrix(0.7071 -0.7071 0.7071 0.7071 21.45 405.5301)" class="uuu0 uuu1 uuu2">2020-03</text>
<text transform="matrix(0.7071 -0.7071 0.7071 0.7071 73.1499 405.5301)" class="uuu0 uuu1 uuu2">2020-04</text>
<text transform="matrix(0.7071 -0.7071 0.7071 0.7071 124.8501 405.5301)" class="uuu0 uuu1 uuu2">2020-05</text>
<text transform="matrix(0.7071 -0.7071 0.7071 0.7071 176.55 405.5301)" class="uuu0 uuu1 uuu2">2020-06</text>
<text transform="matrix(0.7071 -0.7071 0.7071 0.7071 228.24 405.5301)" class="uuu0 uuu1 uuu2">2020-07</text>
<text transform="matrix(0.7071 -0.7071 0.7071 0.7071 279.9399 405.5301)" class="uuu0 uuu1 uuu2">2020-08</text>
<text transform="matrix(0.7071 -0.7071 0.7071 0.7071 331.6401 405.5301)" class="uuu0 uuu1 uuu2">2020-09</text>
<text transform="matrix(0.7071 -0.7071 0.7071 0.7071 383.3401 405.5301)" class="uuu0 uuu1 uuu2">2020-10</text>
<text transform="matrix(0.7071 -0.7071 0.7071 0.7071 435.04 405.5301)" class="uuu0 uuu1 uuu2">2020-11</text>
<text transform="matrix(0.7071 -0.7071 0.7071 0.7071 486.73 405.5301)" class="uuu0 uuu1 uuu2">2020-12</text>
<text transform="matrix(0.7071 -0.7071 0.7071 0.7071 538.4299 405.5301)" class="uuu0 uuu1 uuu2">2021-01</text>
<text transform="matrix(0.7071 -0.7071 0.7071 0.7071 590.1299 405.5301)" class="uuu0 uuu1 uuu2">2021-02</text>
<text transform="matrix(0.7071 -0.7071 0.7071 0.7071 641.8201 405.5301)" class="uuu0 uuu1 uuu2">2021-03</text>
<text transform="matrix(0.7071 -0.7071 0.7071 0.7071 693.52 405.5301)" class="uuu0 uuu1 uuu2">2021-04</text>
<text transform="matrix(0.7071 -0.7071 0.7071 0.7071 745.22 405.5301)" class="uuu0 uuu1 uuu2">2021-05</text>
</svg>
