<svg xmlns="http://www.w3.org/2000/svg" width="100%" height="100%" viewBox="0 0 807.44 409.518">
  <g id="Group_722" data-name="Group 722" transform="translate(-556.28 -5353.747)">
    <g id="Group_683" data-name="Group 683">
      <text id="_0" data-name="0" transform="translate(889.666 5368.747)" fill="#606060" font-size="14.314" font-family="IBMPlexSans, IBM Plex Sans"><tspan x="0" y="0">0</tspan></text>
      <text id="_1" data-name="1" transform="translate(926.364 5368.747)" fill="#606060" font-size="14.314" font-family="IBMPlexSans, IBM Plex Sans"><tspan x="0" y="0">1</tspan></text>
      <rect id="Rectangle_712" data-name="Rectangle 712" width="9.763" height="9.763" transform="translate(876.299 5358.692)" fill="#91bce8"/>
      <rect id="Rectangle_713" data-name="Rectangle 713" width="9.763" height="9.763" transform="translate(912.812 5358.692)" fill="#789ac4"/>
      <text id="_2" data-name="2" transform="translate(962.614 5368.747)" fill="#606060" font-size="14.314" font-family="IBMPlexSans, IBM Plex Sans"><tspan x="0" y="0">2</tspan></text>
      <rect id="Rectangle_714" data-name="Rectangle 714" width="9.763" height="9.763" transform="translate(949.062 5358.692)" fill="#4c5874"/>
      <text id="_3" data-name="3" transform="translate(998.864 5368.747)" fill="#606060" font-size="14.314" font-family="IBMPlexSans, IBM Plex Sans"><tspan x="0" y="0">3</tspan></text>
      <rect id="Rectangle_715" data-name="Rectangle 715" width="9.763" height="9.763" transform="translate(985.312 5358.692)" fill="#313e59"/>
      <text id="_4" data-name="4" transform="translate(1035.114 5368.747)" fill="#606060" font-size="14.314" font-family="IBMPlexSans, IBM Plex Sans"><tspan x="0" y="0">4</tspan></text>
      <rect id="Rectangle_716" data-name="Rectangle 716" width="9.763" height="9.763" transform="translate(1021.562 5358.692)" fill="#222b3e"/>
    </g>
    <g id="Group_685" data-name="Group 685">
      <rect id="Rectangle_717" data-name="Rectangle 717" width="806.023" height="367.333" transform="translate(556.989 5395.223)" fill="#fff" stroke="#a7a9ac" stroke-miterlimit="10" stroke-width="1.417"/>
      <g id="Group_684" data-name="Group 684">
        <path id="Path_1094" data-name="Path 1094" d="M629.562,5680.482h693.264M629.562,5652.09h693.264m-693.264-28.548h693.264m-693.264-28.548h693.264M629.562,5566.6h693.264m-693.264-28.548h693.264m-693.264-28.548h693.264m-693.264-28.548h693.264m-693.264-28.392h693.264m-693.264-28.548h693.264" fill="none" stroke="#d9d9d9" stroke-linejoin="round" stroke-width="0.975"/>
        <path id="Path_1095" data-name="Path 1095" d="M629.562,5462.861l86.58,90.636,86.736,39,86.58,32.292,86.736,38.844,86.58,25.9,86.736,6.552h173.316v12.948H629.562V5462.861Z" fill="#91bce8"/>
        <path id="Path_1096" data-name="Path 1096" d="M629.406,5709.965h694.356V5424.018H629.406v285.948Z" fill="none" fill-rule="evenodd"/>
        <path id="Path_1097" data-name="Path 1097" d="M629.562,5456.465l86.58,58.188,86.736,45.4,86.58,38.844,86.736,38.844,86.58,19.5,86.736,19.344,86.736,6.552h86.58v12.948H1149.51l-86.736-6.552-86.58-25.9-86.736-38.844-86.58-32.292-86.736-39-86.58-90.636v-6.4Z" fill="#789ac4"/>
        <path id="Path_1098" data-name="Path 1098" d="M629.406,5709.965h694.356V5424.018H629.406v285.948Z" fill="none" fill-rule="evenodd"/>
        <path id="Path_1099" data-name="Path 1099" d="M629.562,5443.518l86.58,32.292,86.736,6.552h86.58l86.736,51.792h86.58l86.736,25.9,86.736,45.4h86.58v77.688h-86.58l-86.736-6.552-86.736-19.344-86.58-19.5-86.736-38.844-86.58-38.844-86.736-45.4-86.58-58.188v-12.948Z" fill="#4c5874"/>
        <path id="Path_1100" data-name="Path 1100" d="M629.406,5709.965h694.356V5424.018H629.406v285.948Z" fill="none" fill-rule="evenodd"/>
        <path id="Path_1101" data-name="Path 1101" d="M629.562,5424.018l86.58,6.552h86.736l86.58,6.4,86.736,6.552,86.58,12.948,86.736,6.4,86.736,32.448h86.58v110.136h-86.58l-86.736-45.4-86.736-25.9h-86.58l-86.736-51.792h-86.58l-86.736-6.552-86.58-32.292v-19.5Z" fill="#313e59"/>
        <path id="Path_1102" data-name="Path 1102" d="M629.406,5709.965h694.356V5424.018H629.406v285.948Z" fill="none" fill-rule="evenodd"/>
        <path id="Path_1103" data-name="Path 1103" d="M629.562,5424.018h693.264v71.292h-86.58l-86.736-32.448-86.736-6.4-86.58-12.948-86.736-6.552-86.58-6.4H716.142l-86.58-6.552Z" fill="#222b3e"/>
        <path id="Path_1104" data-name="Path 1104" d="M629.406,5709.965h694.356V5424.018H629.406v285.948Z" fill="none" fill-rule="evenodd"/>
        <text id="_0_" data-name="0%" transform="translate(599.68 5713.083)" fill="#606060" font-size="14.314" font-family="IBMPlexSans, IBM Plex Sans"><tspan x="0" y="0">0%</tspan></text>
        <text id="_10_" data-name="10%" transform="translate(591.035 5684.574)" fill="#606060" font-size="14.314" font-family="IBMPlexSans, IBM Plex Sans"><tspan x="0" y="0">10%</tspan></text>
        <text id="_20_" data-name="20%" transform="translate(591.035 5656.075)" fill="#606060" font-size="14.314" font-family="IBMPlexSans, IBM Plex Sans"><tspan x="0" y="0">20%</tspan></text>
        <text id="_30_" data-name="30%" transform="translate(591.035 5627.577)" fill="#606060" font-size="14.314" font-family="IBMPlexSans, IBM Plex Sans"><tspan x="0" y="0">30%</tspan></text>
        <text id="_40_" data-name="40%" transform="translate(591.035 5599.079)" fill="#606060" font-size="14.314" font-family="IBMPlexSans, IBM Plex Sans"><tspan x="0" y="0">40%</tspan></text>
        <text id="_50_" data-name="50%" transform="translate(591.035 5570.58)" fill="#606060" font-size="14.314" font-family="IBMPlexSans, IBM Plex Sans"><tspan x="0" y="0">50%</tspan></text>
        <text id="_60_" data-name="60%" transform="translate(591.035 5542.071)" fill="#606060" font-size="14.314" font-family="IBMPlexSans, IBM Plex Sans"><tspan x="0" y="0">60%</tspan></text>
        <text id="_70_" data-name="70%" transform="translate(591.035 5513.573)" fill="#606060" font-size="14.314" font-family="IBMPlexSans, IBM Plex Sans"><tspan x="0" y="0">70%</tspan></text>
        <text id="_80_" data-name="80%" transform="translate(591.035 5485.075)" fill="#606060" font-size="14.314" font-family="IBMPlexSans, IBM Plex Sans"><tspan x="0" y="0">80%</tspan></text>
        <text id="_90_" data-name="90%" transform="translate(591.035 5456.566)" fill="#606060" font-size="14.314" font-family="IBMPlexSans, IBM Plex Sans"><tspan x="0" y="0">90%</tspan></text>
        <text id="_100_" data-name="100%" transform="translate(582.532 5428.058)" fill="#606060" font-size="14.314" font-family="IBMPlexSans, IBM Plex Sans"><tspan x="0" y="0">100%</tspan></text>
        <text id="Mar" transform="translate(616.051 5733.761)" fill="#606060" font-size="14.314" font-family="IBMPlexSans, IBM Plex Sans"><tspan x="0" y="0">Mar</tspan></text>
        <text id="Apr" transform="translate(704.481 5733.761)" fill="#606060" font-size="14.314" font-family="IBMPlexSans, IBM Plex Sans"><tspan x="0" y="0">Apr</tspan></text>
        <text id="May" transform="translate(788.463 5733.761)" fill="#606060" font-size="14.314" font-family="IBMPlexSans, IBM Plex Sans"><tspan x="0" y="0">May</tspan></text>
        <text id="Jun" transform="translate(878.549 5733.761)" fill="#606060" font-size="14.314" font-family="IBMPlexSans, IBM Plex Sans"><tspan x="0" y="0">Jun</tspan></text>
        <text id="Jul" transform="translate(967.487 5733.761)" fill="#606060" font-size="14.314" font-family="IBMPlexSans, IBM Plex Sans"><tspan x="0" y="0">Jul</tspan></text>
        <text id="Aug" transform="translate(1050.23 5733.761)" fill="#606060" font-size="14.314" font-family="IBMPlexSans, IBM Plex Sans"><tspan x="0" y="0">Aug</tspan></text>
        <text id="Sep" transform="translate(1137.717 5733.761)" fill="#606060" font-size="14.314" font-family="IBMPlexSans, IBM Plex Sans"><tspan x="0" y="0">Sep</tspan></text>
        <text id="Oct" transform="translate(1224.938 5733.761)" fill="#606060" font-size="14.314" font-family="IBMPlexSans, IBM Plex Sans"><tspan x="0" y="0">Oct</tspan></text>
        <text id="Nov" transform="translate(1309.824 5733.761)" fill="#606060" font-size="14.314" font-family="IBMPlexSans, IBM Plex Sans"><tspan x="0" y="0">Nov</tspan></text>
        <line id="Line_184" data-name="Line 184" y2="9.514" transform="translate(630.271 5709.03)" fill="none" stroke="#a7a9ac" stroke-miterlimit="10" stroke-width="1.417"/>
        <line id="Line_185" data-name="Line 185" y2="9.514" transform="translate(716.142 5709.03)" fill="none" stroke="#a7a9ac" stroke-miterlimit="10" stroke-width="1.417"/>
        <line id="Line_186" data-name="Line 186" y2="9.514" transform="translate(802.878 5709.03)" fill="none" stroke="#a7a9ac" stroke-miterlimit="10" stroke-width="1.417"/>
        <line id="Line_187" data-name="Line 187" y2="9.514" transform="translate(889.458 5709.03)" fill="none" stroke="#a7a9ac" stroke-miterlimit="10" stroke-width="1.417"/>
        <line id="Line_188" data-name="Line 188" y2="9.514" transform="translate(976.194 5709.03)" fill="none" stroke="#a7a9ac" stroke-miterlimit="10" stroke-width="1.417"/>
        <line id="Line_189" data-name="Line 189" y2="9.514" transform="translate(1062.774 5709.03)" fill="none" stroke="#a7a9ac" stroke-miterlimit="10" stroke-width="1.417"/>
        <line id="Line_190" data-name="Line 190" y2="9.514" transform="translate(1149.51 5709.03)" fill="none" stroke="#a7a9ac" stroke-miterlimit="10" stroke-width="1.417"/>
        <line id="Line_191" data-name="Line 191" y2="9.514" transform="translate(1236.246 5709.03)" fill="none" stroke="#a7a9ac" stroke-miterlimit="10" stroke-width="1.417"/>
        <line id="Line_192" data-name="Line 192" y2="9.514" transform="translate(1322.146 5709.03)" fill="none" stroke="#a7a9ac" stroke-miterlimit="10" stroke-width="1.417"/>
        <line id="Line_193" data-name="Line 193" x2="693.264" transform="translate(629.562 5709.03)" fill="none" stroke="#a7a9ac" stroke-miterlimit="10" stroke-width="1.417"/>
      </g>
    </g>
  </g>
</svg>
