<svg xmlns="http://www.w3.org/2000/svg" width="928.578" height="433.426" viewBox="0 0 928.578 433.426"><g transform="translate(-495.711 -6181.045)"><rect width="927.161" height="391.241" transform="translate(496.42 6222.521)" fill="#f6f6f6" stroke="#a7a9ac" stroke-miterlimit="10" stroke-width="1.417"/><line y1="300.756" transform="translate(550.006 6265.239)" fill="none" stroke="#a7a9ac" stroke-miterlimit="10" stroke-width="1.417"/><path d="M550.006,6265.239h855.575m-855.575,27.323h855.575m-855.575,27.3h855.575m-855.575,27.452h855.575m-855.575,27.305h855.575m-855.575,27.305h855.575m-855.575,27.3h855.575m-855.575,54.757h855.575m-855.575,27.305h855.575m-855.575,27.3h855.575M550.006,6566h855.575" fill="none" stroke="#a7a9ac" stroke-miterlimit="10" stroke-width="1.417"/><path d="M1405.581,6265.239V6566m-85.594-300.756V6566m-85.465-300.756V6566m-85.613-300.756V6566m-85.594-300.756V6566M977.85,6265.239V6566m-85.612-300.756V6566m-85.612-300.756V6566m-85.447-300.756V6566m-85.612-300.756V6566" fill="none" stroke="#a7a9ac" stroke-miterlimit="10" stroke-width="1.417"/><line x2="855.575" transform="translate(550.006 6456.629)" fill="none" stroke="#a7a9ac" stroke-miterlimit="10" stroke-width="1.417"/><path d="M593.323,6437.806l85.353,26.054,84.932,3.68,84.931-40.074,85.466-55.253,85.667-61.1,86.882-27.948,86.348,77.351,85.19,65.906,85.373,32.089-.442,1.14-85.539-32.143-85.373-66.054-85.851-76.909-86.036,27.672-85.52,61.013-85.576,55.327-85.281,40.221-85.373-3.7-85.509-26.09Z" fill="#313e59"/><path d="M593.649,6455.58l85.487,45.318,84.932,32.4,84.9-22.907,85.722-22.613,85.686-10.653,85.686-1.178,85.7-3.845,85.7,7.691,85.741,19.227-.258,1.2-85.667-19.19-85.539-7.691-85.649,3.845-85.631,1.178-85.538,10.635-85.65,22.594-85.262,23-85.392-32.567-85.548-45.354Z" fill="#91bce8"/><path d="M593.364,6462.774l85.607,28.335,85.115,31.537,84.95-20.975,85.833-17.609,85.7,1.767,85.465,4.581,85.539-11.352,85.686-1.785,85.741,9.016-.129,1.233-85.668-9.016-85.538,1.766-85.576,11.371-85.575-4.581-85.539-1.767-85.686,17.572-85.281,21.067-85.447-31.665-85.588-28.335Z" fill="#231f20"/><path d="M592.49,6453.391l85.616-13.892,85.852-10.745,85.685,9.862,85.539,9.144,85.373,4.122,85.576.883,85.557,1.435,85.373-4.084,85.612-6.5.093,1.232-85.613,6.5-85.447,4.085L1106.131,6454l-85.612-.883-85.429-4.122L849.5,6439.83l-85.52-9.843-85.7,10.745L592.687,6454.6Z" fill="#808285"/><path d="M593.6,6463.179l85.589,42.337L764.1,6547.6l84.747-29.789,85.87-27.526,85.8-2.667,85.5,4.121,85.576-12.4,85.778,1.49,85.778,16.412-.221,1.215-85.686-16.394-85.557-1.49-85.612,12.4-85.557-4.122-85.576,2.65-85.7,27.488-85.226,29.936-85.373-42.3-85.581-42.337Z" fill="#d1d3d4"/><text transform="translate(587.099 6443.324)" fill="#606060" font-size="10" font-family="IBMPlexSans, IBM Plex Sans"><tspan x="0" y="0">13</tspan></text><text transform="translate(673.874 6464.651)" fill="#606060" font-size="10" font-family="IBMPlexSans, IBM Plex Sans"><tspan x="0" y="0">-</tspan></text><text transform="translate(677.278 6463.234)" fill="#606060" font-size="10" font-family="IBMPlexSans, IBM Plex Sans"><tspan x="0" y="0">7</tspan></text><text transform="translate(759.45 6465.398)" fill="#606060" font-size="10" font-family="IBMPlexSans, IBM Plex Sans"><tspan x="0" y="0">-</tspan></text><text transform="translate(762.854 6465.398)" fill="#606060" font-size="10" font-family="IBMPlexSans, IBM Plex Sans"><tspan x="0" y="0">9</tspan></text><text transform="translate(843.828 6433.004)" fill="#606060" font-size="10" font-family="IBMPlexSans, IBM Plex Sans"><tspan x="0" y="0">20</tspan></text><text transform="translate(929.424 6377.584)" fill="#606060" font-size="10" font-family="IBMPlexSans, IBM Plex Sans"><tspan x="0" y="0">61</tspan></text><text transform="translate(1012.164 6316.554)" fill="#606060" font-size="10" font-family="IBMPlexSans, IBM Plex Sans"><tspan x="0" y="0">105</tspan></text><text transform="translate(1097.741 6289.046)" fill="#606060" font-size="10" font-family="IBMPlexSans, IBM Plex Sans"><tspan x="0" y="0">125</tspan></text><text transform="translate(1186.151 6365.792)" fill="#606060" font-size="10" font-family="IBMPlexSans, IBM Plex Sans"><tspan x="0" y="0">69</tspan></text><text transform="translate(1271.726 6431.899)" fill="#606060" font-size="10" font-family="IBMPlexSans, IBM Plex Sans"><tspan x="0" y="0">21</tspan></text><text transform="translate(1358.459 6464.135)" fill="#606060" font-size="10" font-family="IBMPlexSans, IBM Plex Sans"><tspan x="0" y="0">-</tspan></text><text transform="translate(1361.865 6464.135)" fill="#606060" font-size="10" font-family="IBMPlexSans, IBM Plex Sans"><tspan x="0" y="0">3</tspan></text><text transform="translate(589.924 6461.083)" fill="#606060" font-size="10" font-family="IBMPlexSans, IBM Plex Sans"><tspan x="0" y="0">0</tspan></text><text transform="translate(671.04 6504.488)" fill="#606060" font-size="10" font-family="IBMPlexSans, IBM Plex Sans"><tspan x="0" y="0">-</tspan></text><text transform="translate(674.445 6503.921)" fill="#606060" font-size="10" font-family="IBMPlexSans, IBM Plex Sans"><tspan x="0" y="0">34</tspan></text><text transform="translate(756.616 6537.696)" fill="#606060" font-size="10" font-family="IBMPlexSans, IBM Plex Sans"><tspan x="0" y="0">-</tspan></text><text transform="translate(760.021 6537.696)" fill="#606060" font-size="10" font-family="IBMPlexSans, IBM Plex Sans"><tspan x="0" y="0">57</tspan></text><text transform="translate(842.21 6515.967)" fill="#606060" font-size="10" font-family="IBMPlexSans, IBM Plex Sans"><tspan x="0" y="0">-</tspan></text><text transform="translate(845.595 6515.967)" fill="#606060" font-size="10" font-family="IBMPlexSans, IBM Plex Sans"><tspan x="0" y="0">41</tspan></text><text transform="translate(927.786 6492.028)" fill="#606060" font-size="10" font-family="IBMPlexSans, IBM Plex Sans"><tspan x="0" y="0">-</tspan></text><text transform="translate(931.189 6492.028)" fill="#606060" font-size="10" font-family="IBMPlexSans, IBM Plex Sans"><tspan x="0" y="0">24</tspan></text><text transform="translate(1013.361 6482.565)" fill="#606060" font-size="10" font-family="IBMPlexSans, IBM Plex Sans"><tspan x="0" y="0">-</tspan></text><text transform="translate(1016.764 6482.565)" fill="#606060" font-size="10" font-family="IBMPlexSans, IBM Plex Sans"><tspan x="0" y="0">16</tspan></text><text transform="translate(1098.935 6481.579)" fill="#606060" font-size="10" font-family="IBMPlexSans, IBM Plex Sans"><tspan x="0" y="0">-</tspan></text><text transform="translate(1102.341 6481.579)" fill="#606060" font-size="10" font-family="IBMPlexSans, IBM Plex Sans"><tspan x="0" y="0">15</tspan></text><text transform="translate(1184.512 6477.862)" fill="#606060" font-size="10" font-family="IBMPlexSans, IBM Plex Sans"><tspan x="0" y="0">-</tspan></text><text transform="translate(1187.916 6477.578)" fill="#606060" font-size="10" font-family="IBMPlexSans, IBM Plex Sans"><tspan x="0" y="0">13</tspan></text><text transform="translate(1270.107 6482.854)" fill="#606060" font-size="10" font-family="IBMPlexSans, IBM Plex Sans"><tspan x="0" y="0">-</tspan></text><text transform="translate(1273.491 6483.42)" fill="#606060" font-size="10" font-family="IBMPlexSans, IBM Plex Sans"><tspan x="0" y="0">18</tspan></text><text transform="translate(1355.682 6507.039)" fill="#606060" font-size="10" font-family="IBMPlexSans, IBM Plex Sans"><tspan x="0" y="0">-</tspan></text><text transform="translate(1359.086 6507.257)" fill="#606060" font-size="10" font-family="IBMPlexSans, IBM Plex Sans"><tspan x="0" y="0">32</tspan></text><text transform="translate(588.29 6468.367)" fill="#606060" font-size="10" font-family="IBMPlexSans, IBM Plex Sans"><tspan x="0" y="0">-</tspan></text><text transform="translate(591.692 6468.367)" fill="#606060" font-size="10" font-family="IBMPlexSans, IBM Plex Sans"><tspan x="0" y="0">6</tspan></text><text transform="translate(671.04 6495.815)" fill="#606060" font-size="10" font-family="IBMPlexSans, IBM Plex Sans"><tspan x="0" y="0">-</tspan></text><text transform="translate(674.445 6495.815)" fill="#606060" font-size="10" font-family="IBMPlexSans, IBM Plex Sans"><tspan x="0" y="0">26</tspan></text><text transform="translate(756.616 6528.422)" fill="#606060" font-size="10" font-family="IBMPlexSans, IBM Plex Sans"><tspan x="0" y="0">-</tspan></text><text transform="translate(760.021 6528.422)" fill="#606060" font-size="10" font-family="IBMPlexSans, IBM Plex Sans"><tspan x="0" y="0">50</tspan></text><text transform="translate(842.21 6507.357)" fill="#606060" font-size="10" font-family="IBMPlexSans, IBM Plex Sans"><tspan x="0" y="0">-</tspan></text><text transform="translate(845.595 6507.357)" fill="#606060" font-size="10" font-family="IBMPlexSans, IBM Plex Sans"><tspan x="0" y="0">34</tspan></text><text transform="translate(927.786 6485.405)" fill="#606060" font-size="10" font-family="IBMPlexSans, IBM Plex Sans"><tspan x="0" y="0">-</tspan></text><text transform="translate(931.189 6485.405)" fill="#606060" font-size="10" font-family="IBMPlexSans, IBM Plex Sans"><tspan x="0" y="0">21</tspan></text><text transform="translate(1013.361 6488.714)" fill="#606060" font-size="10" font-family="IBMPlexSans, IBM Plex Sans"><tspan x="0" y="0">-</tspan></text><text transform="translate(1016.764 6488.714)" fill="#606060" font-size="10" font-family="IBMPlexSans, IBM Plex Sans"><tspan x="0" y="0">23</tspan></text><text transform="translate(1098.935 6491.56)" fill="#606060" font-size="10" font-family="IBMPlexSans, IBM Plex Sans"><tspan x="0" y="0">-</tspan></text><text transform="translate(1102.341 6491.843)" fill="#606060" font-size="10" font-family="IBMPlexSans, IBM Plex Sans"><tspan x="0" y="0">26</tspan></text><text transform="translate(1184.512 6484.706)" fill="#606060" font-size="10" font-family="IBMPlexSans, IBM Plex Sans"><tspan x="0" y="0">-</tspan></text><text transform="translate(1187.916 6484.706)" fill="#606060" font-size="10" font-family="IBMPlexSans, IBM Plex Sans"><tspan x="0" y="0">18</tspan></text><text transform="translate(1270.107 6478.12)" fill="#606060" font-size="10" font-family="IBMPlexSans, IBM Plex Sans"><tspan x="0" y="0">-</tspan></text><text transform="translate(1273.491 6478.403)" fill="#606060" font-size="10" font-family="IBMPlexSans, IBM Plex Sans"><tspan x="0" y="0">16</tspan></text><text transform="translate(1355.682 6492.03)" fill="#606060" font-size="10" font-family="IBMPlexSans, IBM Plex Sans"><tspan x="0" y="0">-</tspan></text><text transform="translate(1359.086 6492.03)" fill="#606060" font-size="10" font-family="IBMPlexSans, IBM Plex Sans"><tspan x="0" y="0">23</tspan></text><text transform="translate(589.924 6459.093)" fill="#606060" font-size="10" font-family="IBMPlexSans, IBM Plex Sans"><tspan x="0" y="0">1</tspan></text><text transform="translate(672.677 6445.22)" fill="#606060" font-size="10" font-family="IBMPlexSans, IBM Plex Sans"><tspan x="0" y="0">11</tspan></text><text transform="translate(758.254 6434.458)" fill="#606060" font-size="10" font-family="IBMPlexSans, IBM Plex Sans"><tspan x="0" y="0">19</tspan></text><text transform="translate(843.828 6444.266)" fill="#606060" font-size="10" font-family="IBMPlexSans, IBM Plex Sans"><tspan x="0" y="0">12</tspan></text><text transform="translate(932.202 6453.483)" fill="#606060" font-size="10" font-family="IBMPlexSans, IBM Plex Sans"><tspan x="0" y="0">5</tspan></text><text transform="translate(1017.779 6457.548)" fill="#606060" font-size="10" font-family="IBMPlexSans, IBM Plex Sans"><tspan x="0" y="0">2</tspan></text><text transform="translate(1103.353 6458.524)" fill="#606060" font-size="10" font-family="IBMPlexSans, IBM Plex Sans"><tspan x="0" y="0">1</tspan></text><text transform="translate(1188.928 6459.885)" fill="#606060" font-size="10" font-family="IBMPlexSans, IBM Plex Sans"><tspan x="0" y="0">0</tspan></text><text transform="translate(1274.523 6455.874)" fill="#606060" font-size="10" font-family="IBMPlexSans, IBM Plex Sans"><tspan x="0" y="0">3</tspan></text><text transform="translate(1360.098 6449.25)" fill="#606060" font-size="10" font-family="IBMPlexSans, IBM Plex Sans"><tspan x="0" y="0">8</tspan></text><text transform="translate(588.29 6469.814)" fill="#606060" font-size="10" font-family="IBMPlexSans, IBM Plex Sans"><tspan x="0" y="0">-</tspan></text><text transform="translate(591.692 6469.814)" fill="#606060" font-size="10" font-family="IBMPlexSans, IBM Plex Sans"><tspan x="0" y="0">6</tspan></text><text transform="translate(671.04 6511.356)" fill="#606060" font-size="10" font-family="IBMPlexSans, IBM Plex Sans"><tspan x="0" y="0">-</tspan></text><text transform="translate(674.445 6511.923)" fill="#606060" font-size="10" font-family="IBMPlexSans, IBM Plex Sans"><tspan x="0" y="0">37</tspan></text><text transform="translate(756.616 6553.464)" fill="#606060" font-size="10" font-family="IBMPlexSans, IBM Plex Sans"><tspan x="0" y="0">-</tspan></text><text transform="translate(760.021 6553.464)" fill="#606060" font-size="10" font-family="IBMPlexSans, IBM Plex Sans"><tspan x="0" y="0">68</tspan></text><text transform="translate(842.21 6523.382)" fill="#606060" font-size="10" font-family="IBMPlexSans, IBM Plex Sans"><tspan x="0" y="0">-</tspan></text><text transform="translate(845.595 6523.382)" fill="#606060" font-size="10" font-family="IBMPlexSans, IBM Plex Sans"><tspan x="0" y="0">46</tspan></text><text transform="translate(927.786 6498.42)" fill="#606060" font-size="10" font-family="IBMPlexSans, IBM Plex Sans"><tspan x="0" y="0">-</tspan></text><text transform="translate(931.189 6498.42)" fill="#606060" font-size="10" font-family="IBMPlexSans, IBM Plex Sans"><tspan x="0" y="0">26</tspan></text><text transform="translate(1013.361 6495.263)" fill="#606060" font-size="10" font-family="IBMPlexSans, IBM Plex Sans"><tspan x="0" y="0">-</tspan></text><text transform="translate(1016.764 6495.263)" fill="#606060" font-size="10" font-family="IBMPlexSans, IBM Plex Sans"><tspan x="0" y="0">24</tspan></text><text transform="translate(1098.935 6499.084)" fill="#606060" font-size="10" font-family="IBMPlexSans, IBM Plex Sans"><tspan x="0" y="0">-</tspan></text><text transform="translate(1102.341 6499.084)" fill="#606060" font-size="10" font-family="IBMPlexSans, IBM Plex Sans"><tspan x="0" y="0">27</tspan></text><text transform="translate(1184.512 6491.628)" fill="#606060" font-size="10" font-family="IBMPlexSans, IBM Plex Sans"><tspan x="0" y="0">-</tspan></text><text transform="translate(1187.916 6491.628)" fill="#606060" font-size="10" font-family="IBMPlexSans, IBM Plex Sans"><tspan x="0" y="0">18</tspan></text><text transform="translate(1270.107 6489.023)" fill="#606060" font-size="10" font-family="IBMPlexSans, IBM Plex Sans"><tspan x="0" y="0">-</tspan></text><text transform="translate(1273.491 6489.023)" fill="#606060" font-size="10" font-family="IBMPlexSans, IBM Plex Sans"><tspan x="0" y="0">19</tspan></text><text transform="translate(1355.682 6500.013)" fill="#606060" font-size="10" font-family="IBMPlexSans, IBM Plex Sans"><tspan x="0" y="0">-</tspan></text><text transform="translate(1359.086 6500.013)" fill="#606060" font-size="10" font-family="IBMPlexSans, IBM Plex Sans"><tspan x="0" y="0">31</tspan></text><text transform="translate(517.296 6569.803)" fill="#606060" font-size="14.314" font-family="IBMPlexSans, IBM Plex Sans"><tspan x="0" y="0">-80</tspan></text><text transform="translate(517.296 6542.425)" fill="#606060" font-size="14.314" font-family="IBMPlexSans, IBM Plex Sans"><tspan x="0" y="0">-60</tspan></text><text transform="translate(517.296 6515.082)" fill="#606060" font-size="14.314" font-family="IBMPlexSans, IBM Plex Sans"><tspan x="0" y="0">-40</tspan></text><text transform="translate(517.296 6487.759)" fill="#606060" font-size="14.314" font-family="IBMPlexSans, IBM Plex Sans"><tspan x="0" y="0">-20</tspan></text><text transform="translate(531.595 6460.418)" fill="#606060" font-size="14.314" font-family="IBMPlexSans, IBM Plex Sans"><tspan x="0" y="0">0</tspan></text><text transform="translate(523.007 6433.079)" fill="#606060" font-size="14.314" font-family="IBMPlexSans, IBM Plex Sans"><tspan x="0" y="0">20</tspan></text><text transform="translate(523.007 6405.7)" fill="#606060" font-size="14.314" font-family="IBMPlexSans, IBM Plex Sans"><tspan x="0" y="0">40</tspan></text><text transform="translate(523.007 6378.375)" fill="#606060" font-size="14.314" font-family="IBMPlexSans, IBM Plex Sans"><tspan x="0" y="0">60</tspan></text><text transform="translate(523.007 6351.035)" fill="#606060" font-size="14.314" font-family="IBMPlexSans, IBM Plex Sans"><tspan x="0" y="0">80</tspan></text><text transform="translate(514.419 6323.711)" fill="#606060" font-size="14.314" font-family="IBMPlexSans, IBM Plex Sans"><tspan x="0" y="0">100</tspan></text><text transform="translate(514.419 6296.333)" fill="#606060" font-size="14.314" font-family="IBMPlexSans, IBM Plex Sans"><tspan x="0" y="0">120</tspan></text><text transform="translate(514.419 6268.992)" fill="#606060" font-size="14.314" font-family="IBMPlexSans, IBM Plex Sans"><tspan x="0" y="0">140</tspan></text><text transform="translate(583.611 6473.107)" fill="#606060" font-size="14.314" font-family="IBMPlexSans, IBM Plex Sans"><tspan x="0" y="0">FEB</tspan></text><text transform="translate(666.239 6473.107)" fill="#606060" font-size="14.314" font-family="IBMPlexSans, IBM Plex Sans"><tspan x="0" y="0">MAR</tspan></text><text transform="translate(753.893 6473.107)" fill="#606060" font-size="14.314" font-family="IBMPlexSans, IBM Plex Sans"><tspan x="0" y="0">APR</tspan></text><text transform="translate(837.74 6473.107)" fill="#606060" font-size="14.314" font-family="IBMPlexSans, IBM Plex Sans"><tspan x="0" y="0">MAY</tspan></text><text transform="translate(925.228 6473.107)" fill="#606060" font-size="14.314" font-family="IBMPlexSans, IBM Plex Sans"><tspan x="0" y="0">JUN</tspan></text><text transform="translate(1012.221 6473.107)" fill="#606060" font-size="14.314" font-family="IBMPlexSans, IBM Plex Sans"><tspan x="0" y="0">JUL</tspan></text><text transform="translate(1094.869 6473.107)" fill="#606060" font-size="14.314" font-family="IBMPlexSans, IBM Plex Sans"><tspan x="0" y="0">AUG</tspan></text><text transform="translate(1182.839 6473.107)" fill="#606060" font-size="14.314" font-family="IBMPlexSans, IBM Plex Sans"><tspan x="0" y="0">SEP</tspan></text><text transform="translate(1267.091 6473.107)" fill="#606060" font-size="14.314" font-family="IBMPlexSans, IBM Plex Sans"><tspan x="0" y="0">OCT</tspan></text><text transform="translate(1351.486 6473.107)" fill="#606060" font-size="14.314" font-family="IBMPlexSans, IBM Plex Sans"><tspan x="0" y="0">NOV</tspan></text><text transform="translate(564.628 6196.328)" fill="#606060" font-size="14.314" font-family="IBMPlexSans, IBM Plex Sans"><tspan x="0" y="0">Parks Mobility MA7</tspan></text><rect width="9.763" height="9.763" transform="translate(551.26 6186.274)" fill="#313e59"/><text transform="translate(715.742 6196.328)" fill="#606060" font-size="14.314" font-family="IBMPlexSans, IBM Plex Sans"><tspan x="0" y="0">Transport Usage MA7</tspan></text><rect width="9.763" height="9.763" transform="translate(702.374 6186.274)" fill="#91bce8"/><text transform="translate(881.968 6196.045)" fill="#606060" font-size="14.314" font-family="IBMPlexSans, IBM Plex Sans"><tspan x="0" y="0">Workplace Mobility MA7</tspan></text><rect width="9.763" height="9.763" transform="translate(868.6 6185.991)" fill="#231f20"/><text transform="translate(1065.432 6196.328)" fill="#606060" font-size="14.314" font-family="IBMPlexSans, IBM Plex Sans"><tspan x="0" y="0">Stay at home index MA7</tspan></text><rect width="9.763" height="9.763" transform="translate(1052.064 6186.274)" fill="#808285"/><text transform="translate(1248.678 6196.328)" fill="#606060" font-size="14.314" font-family="IBMPlexSans, IBM Plex Sans"><tspan x="0" y="0">Total Mobility MA7</tspan></text><rect width="9.763" height="9.763" transform="translate(1235.126 6186.274)" fill="#d1d3d4"/></g></svg>