<?xml version="1.0" encoding="utf-8"?>
<!-- Generator: Adobe Illustrator 22.0.1, SVG Export Plug-In . SVG Version: 6.00 Build 0)  -->
<svg version="1.1" id="Слой_1" xmlns="http://www.w3.org/2000/svg" xmlns:xlink="http://www.w3.org/1999/xlink" x="0px" y="0px"
	 viewBox="0 0 928.6 461.1" style="enable-background:new 0 0 928.6 461.1;" xml:space="preserve">
<style type="text/css">
	.st0{fill:#F5F5F5;stroke:#A6A8AB;stroke-width:1.417;stroke-miterlimit:10;}
	.st1{fill:none;stroke:#A6A8AB;stroke-width:1.417;stroke-miterlimit:10;}
	.st2{fill:#D0D2D3;}
	.st3{fill:#313E59;}
	.st4{fill:#90BBE7;}
	.st5{fill:#231F20;}
	.st6{fill:#808184;}
	.st7{fill:#606060;}
	.st8{font-family:'ArialMT';}
	.st9{font-size:14.314px;}
	.st10{fill:#595959;}
	.st11{font-family:'Roboto-Regular';}
	.st12{font-size:12.112px;}
</style>
<g transform="translate(-495.711 -6281.54)">
	<rect x="496.4" y="6317.2" class="st0" width="927.2" height="424.7"/>
	<path class="st1" d="M551.4,6355.5h855.9 M551.4,6407.9h855.9 M551.4,6459.1h855.9 M551.4,6511.6h855.9 M551.4,6613.9h855.9
		 M551.4,6666.3h855.9"/>
	<line class="st1" x1="551.4" y1="6666.3" x2="551.4" y2="6355.5"/>
	<line class="st1" x1="551.4" y1="6562.7" x2="1407.3" y2="6562.7"/>
	<path class="st1" d="M1395.2,6562.7v4 M1342.7,6562.7v4 M1288.9,6562.7v4 M1240.4,6562.7v4 M1186.6,6562.7v4 M1132.8,6562.7v4
		 M1080.3,6562.7v4 M1026.5,6562.7v4 M974,6562.7v4 M920.1,6562.7v4 M866.3,6562.7v4 M815.2,6562.7v4 M761.3,6562.7v4 M708.8,6562.7
		v4 M655,6562.7v4 M605.2,6562.7v4 M551.4,6562.7v4"/>
	<path class="st2" d="M598.5,6567.4h3.6l1.2,2.4l1.6,1.6h4l1.3,1.3h4.7l1.5-3.1l1.2-2.5l2.3-1.2h1.5l1.5-1.5l3.4,0.2h5.1l1.2,2.3
		l1.3,2.6l1.4,4.1l2.7,4l1.3,5.3l1.4,6.8l2.7,6.7l1.3,8l1.4,6.8l1.4,4.2l2.7,4l1.3,4l1.4,2.8l2.8,2.8l1.3,1.3l1.3,1.3l1.5,1.5h2.7
		l1.3,1.3h4l1.3,1.3h11l2.3,1.2l2.9,1.5l2.6,4.6l1.9-1.9h4.2l1.4-2.9l2.3-1.2h1.7l1.3-4l3.7-1.3h1.5l1.5-1.5l2.7-1.3l1.4-1.4
		l2.4-1.1l2.7-1.3l2,4h3.5l1.3-1.3l3.9-1.3h1.5l1.7-1.7l1.3-6.6l2.6-1.3l1.3-2.5l4-1.5l1.4-1.4l1.3-1.3l4-2.6l1.4-1.4l3.8-1.1h12.1
		l1.6-1.6l1.3-2.6l2.7-1.3l1.4-2.8l2,0.4l3-1.5h1.5l1.3-1.3h5.5l1.3-2.7h2.3l2.6,1.5l3.2-1.6l2.6-1.2l1.3-1.3h2.7l1.5-1.5l3.3-1.1
		l1.6,1.6l1.3-1.3l3.9,2.4h11.2l1.3-1.3h1.3l1.3-1.3h3.8l3.9,1.3h12.3l2.4,1.3h12.4l3.9,1.3h6.9l3.9,1.3h1.5l2.4,1.3h3l2.6,1.5
		l3-1.5h4l2.7-1.3h5.2l2.4,1.3h5.9l1.3-1.3h4l1.3-1.3h5.4l1.5-1.5l2.5-1.2h8.2l1.3-1.3h2.7l1.3-1.3h6.7l1.3-1.3h5.3l2.9-1.5l2.6-1.2
		l1.3-1.3H974l2.4,1.3h8.6l1.3-1.3h16.9l1.3,1.3h1.5l2.7,1.3l2.6,1.3h1.5l2.7,1.3h5.5l2.4,1.3h3l2.2,1.1l1.4,1.4l2.9,1.5l2.6,1.3
		h2.7l1.3,1.3h7l3.9,1.3h2.9l3.9,1.3h5.5l2.4,1.3h9.4l1.3,1.3h1.8l2.7-1.3h4l2.7-1.3l2.3,1.3h11l3.9,1.3h1.8l1.3-1.3h6.6l2.7-1.3
		h6.6l2.2,1.1l2.6,2.6l1.3,2.5l1.3,5.3l2.7,9.5l1.4,2.8l1.3,1.3l1.3,2.7l2.8,2.8l1.3,1.3l1.4,1.4l2.9,1.5h3.1l1.5-1.5l2.5-1.2h1.7
		l1.5-4.5l2.7-8l1.1-2.3l2.8-1.5l2.8-2.8l1.4-2.8l1.2-2.5l2.3-1.2h4.9l1.3,1.3h3.1l2.7-1.3h5.5l1.3-1.3h6.7l1.3-1.3h5.4l1.3-1.3h3.8
		l3.9,1.3h19.3l1.3-1.3l4.2-1.5l2.3-1.2h5.7l1.3-1.3h5.3l2.4-1.2l2.8,1.2h3.8l1.3,1.3h30.2l1.3-1.3h3.8l2.4,1.3h2.5l1.2,3.7l1.7,1.7
		h2.4l1.3,5.1l1.7,1.7h4.8l1.4-4.3l4-2.6l1.4-5.5l2.2-1l2.7-1.3h1.5l1.3-1.3h4l1.3-1.3h2.7l1.3-1.3h2.6l2.7-1.3h5.2l2.1,1.1l1.4,2.8
		l2.7,1.3l1.3,2.6l1.6,1.6h4.6l1.7-1.7l1.3-3.9l2.6-1.3l1.4-2.8l3.2-2.2l1.1,2.2l1.6,1.6h4.6l1.5-1.5l4-1.1l1.5-4.5l1.2-2.4l2.3-1.2
		l2.1,2.7h7.3l2.7-1.3h1.7l1.5-4.5l-0.5,5.8h-2.3l-2.7,1.3h-8.5l-1.3-2.7l-2.3,2.8l-1.8,5.3h-3.3l-2.7,2.7h-5.7l-2.2-2.2h-2.1
		l-1.5,3l-2.5,1.3l-1.2,3.7l-2.3,2.3h-5.7l-2.2-2.2l-1.2-2.4l-2.7-1.3l-1.5-3l-3.7-0.5h-1.3l-3.6,1.3h-1.8l-1.9,1.3h-2.7l-1.3,1.3
		h-4l-1.3,1.3h-1.7l-2.7,1.3l-2.8,6.1l-3.2,1.6l-2.4,5.7h-6.3l-2.3-2.3l-1.1-4.4h-2l-2.3-2.3l-1-3.1h-2.1l-1.3-1.3h-3.7l-1.3,1.3
		h-31.3l-1.3-1.3h-13.1l-1.3,1.3h-6.2l-1.5,1l-3.4,1.7l-2.3,1.3h-20.1l-2.7-1.3h-4.1l-1.3,1.3h-5.4l-1.3,1.3h-6.2l-1.9,1.3h-4.9
		l-3.6,1.3h-4l-1.3-1.3h-3.2l-2.5,0.8l-1,2.1l-1.5,3l-2.9,2.9l-1.9,1.9l-1.7,1.4l-2.6,7.9l-1.8,5.4h-2.3l-2,1l-1.7,1.7h-4l-3.4-1.7
		l-1.6-1.6l-1.3-1.3l-2.9-2.9l-1.3-2.7l-1.3-1.3l-1.6-3.2l-2.8-9.6l-1.3-5.2l-1.1-2.2l-2.5-2.5l-4-0.8h-2.7l-3.6,1.3h-5.9l-1.9,1.3
		h-2.7l-2.7-1.3h-12.5l-1.3-1.3l-2.7,1.3h-3.2l-3.6,1.3h-2.7l-1.3-1.3h-9.4l-1.3-1.3h-6.4l-2.7-1.3h-4.1l-2.7-1.3h-8.4l-1.3-1.3
		h-2.7l-1.3-1.3l-4.4-1.7l-1.6-1.6l-4.8-0.8l-1.3-1.3h-6.4l-2.7-1.3h-1.7l-1.3-1.3l-3.7-1.3h-1.7l-1.3-1.3h-15.3l-1.9,1.3h-9.7
		l-1.3-1.3H960l-1.3,1.3h-1.3l-4.4,2.7h-5l-1.3,1.3h-6.2l-1.9,1.3h-2.7l-1.3,1.3h-7.6l-2.8,1l-1.7,1.7h-4.9l-1.9,1.3h-4l-1.3,1.3
		h-7.1l-1.3-1.3h-4.5l-3.6,1.3h-3.2l-4.4,1.8l-1.8-1.8h-4l-1.3-1.3h-2.3l-2.7-1.3h-8.1l-2.7-1.3h-13.8l-1.3-1.3h-13.1l-2.7-1.3h-4.1
		l-1.3,1.3h-1.3l-1.3,1.3H812l-3.4-1.7l-1.5,1.2l-2.2-2.2l-1.8,0.8l-1.9,1.9h-2.7l-1.3,1.3h-1.3l-5.3,3.1l-1.8-1.8h-2l-1.3,2.7h-5.8
		l-1.3,1.3h-1.7l-3.6,1.8l-2.1,1.7l-2.7,1.3l-1.2,2.4l-2.2,2.2h-14.8l-2.3,2.3l-2.7,1.3l-2.5,2.5l-1.6,1.6l-3.4,1.7l-1.7,2.2
		l-2.4,1.2l-1.3,6.4l-2.4,2.4h-1.7l-2.7,1.3l-2.3,1.3h-5l-1.3-4l-2.1,1.3l-1.7,0.8l-1.6,1.6l-2.7,1.3l-1.7,1.7h-1.7l-2.7,1.3l-1.7,4
		h-2.3l-1.7,0.8l-1.6,3.2h-4.4l-3.1,3.1l-1.9-5.8l-3.8-1.7l-1.5-1H669l-1.3-1.3h-4l-1.3-1.3h-2.7l-1.9-1.9l-1.3-1.3l-1.3-1.3
		l-2.9-2.9l-1.6-3.1l-1.3-3.9l-2.7-4l-1.5-4.4l-1.4-6.9l-1.3-7.9l-2.7-6.7l-1.4-6.9l-1.2-5l-2.6-4l-1.4-4.2l-1.3-2.6l-0.8-1.6h-4.6
		l-1.8-0.9l-2.3,2.3h-1.7l-1.7,0.8l-1,2.1l-1.9,3.8h-6.1l-1.3-1.3h-4l-2.2-2.2l-0.9-1.9h-2.8L598.5,6567.4z"/>
	<path class="st3" d="M598.5,6552.6h1.6l2.9-2.9l1.9-1.1l1.3,1.3h2.7l1.3,1.3h1.5l2.3,1.2l1.2,2.4l1.6,4.7l3.6-1.8l1-2.1l1.3,1.3
		l1.6-3.2h3.6l3.9,1.3l2.3,1.1l1.3,2.7l2.8,2.8l1.5,1.5h1.3l2.5,2.5l1.3,1.3l2.6,4l2.7,2.7l1.3,3.9l1.4,2.8l2.7,2.7l1.5,3h1.8
		l3.9,1.3h5.3l2.5,3.9l3.6,1.8l1.6-4.7l1.4-2.7l1.3-5.3l2.7-2.7l1.4-4.2l1.2-4.9h1.9l1.3,1.3l2.4,3.8l2.8,1.4l3,3l3.2-1.6l2.8-1.2
		l1.5-4.4l2.6-3.9l2.6-2.6l2.7-1.3l1.5-1.5l1-2l3.4,3.4l1.8,1.8l1.6-1.6h4l1.5-1.5l2.8-1.4l1.4-4.3l1.3-2.7l1.3-4l2.7-5.3l0.9-1.9
		l3.7,2.2l2.2,2.3l1.4,2.8l3,3h2.1l1.4-4.3l2.7-2.7l1.4-2.9l1.4-8.1l1.2-3.7l2.3-1.1h2.7l2.7-1.3l2,4h3.6l1.6-3.1l1.4-4.1l1.3-9.3
		l2.3-2.3l1.9,1.1l2.7,2.7l1.3,1.3l2.6,8.1l3.4,1.7l1.8-1.8l1.4-5.5l2.7-6.7l1.3-5.4l1.3-2.6l1.3-2.6l2.7-2.7l1.2-2.4l3.5-1.2
		l1.5,1.5l1.9-1.9l1.4-2.8l2.7-5.5l1.4-6.8l1.3-5.2l2.7-2.7l1.3-4l2.9,0.1l1.2,3.7l1.4,5.4l1.4,2.9l2.7,2.7l1.7,3.4l2.1-2.1l2.8-4.1
		l1.4-2.7l1.4-2.7l1.3-3.9l2.4-2.4h1.5l1.5-3l2.7-4.1l1.4-4.1l1.3-4l1.3-2.6l2.7-2.8l1.4-5.5l1.3-2.5l2.7-2.7l1.3-4l2.2-2.2l2.2,1.1
		l1.5,1.5h4l1.3,1.3h1.8l3.1-1.5l1.4-4.3l1.3-2.6l2.9,1.3l1.7,3.4l2-2l2.7-2.7l1.4-1.4l1.4-2.8l1.3-2.7l2.7-4l1.4-2.7l0.9-1.9
		l1.9,1.9l1.3,4l1.5,1.5l1.4,1.4l2.5,1.3l1.3,3.8l1.5,2.9l3,1.5l2.2,4.9l1.4,5.5l2.7,4l1.3,5.3l1.4,4.1l2.7,5.4l1.3,5.4l1.4,2.9
		l2.7,2.7l1.3,3.9l1.4,4.1l1.4,2.8l2.8,2.8l1.5,1.5h1.8l2.4-1.2l2.8,1.2h5.7l1.5-1.5l2.7-1.3l1.5-1.5l1.3-2.7l3,1.4l1.3,1.3l1.4,1.4
		l2.6,1.3l1.2,2.4l1.3,4l2.7,5.4l1.3,2.6l1.3,5.3l1.4,6.8l2.7,5.4l1.3,5.3l1.4,5.7l2.8,1.4l1.4,2.9h1.8l3.9,1.3l2.5,1.2l2.9,1.5h1.8
		l1.3-1.3l3.6,1.3l2.6,1.3h2.7l2.4,3.7l1.5,3.1h2.8l2.6,2.6l3.2,1.6l1.5-1.5h10.1l1.2,2.3l1.5,3.1h2.7l1.2,2.4l1.4,1.4l1.4,1.4
		l2.7,1.3l1.5,1.5h4.6l1.3-1.3l2.1,1.3h3l2.3,1.2l2.6,1.3l1.3,2.6l1.6,1.6h4l2.6,2.6l2.7,1.3l1.5,1.5h1.5l2.5,1.2l1.7,1.7l1.6-1.6
		h3.5l1.3,1.3h4l2.7,2.7h4l1.3,1.3h7.3l3.9,0.1l1.7-1.7l3.8-1.1l1.5-1.5l1.3-1.3l3.7-2.5h1.5l1.3-1.3h2.7l1.5-1.5l3.6-1.1l2.7,1.6
		l1.7-1.7l2.7-1.3l1.5-1.5l1.3-2.6l2.6-1.3l1.4-1.4l1.7,1.3l2.8,2.8l2.6,5.4l3.1,1.5l2.6,1.3h1.5l2.5,1.2l2.7,2.7l2.7,1.3l2.7,2.7
		l2.9,1.5h8.5l1.3-1.3h9.4l1.3-1.3h4l1.3-1.3h1.5l1.4-2.9l2.3-1.2l2.3,1.3h4.3l2.3,2.7h4.9l1.4-2.9l2.6-1.3l2.5-1.2l2.9-1.5l1.4-1.4
		l1.5-1.5l1.3-3.9l2.6-1.3l1.5-2.9l1.3-3.9l2.7-2.7l1.3-2.7l2.3-2.3l2.7,1.3l2.2-0.3l2.6,1.3l1.3,2.6l1.3,1.3l1.5,3h2.7l1.2,2.3
		l1.4,2.8l2.8,2.8l1.5,1.5l2.6,2.7h6l2.9-1.5l1.4-1.4l3.6-1.1h1.6l1.5-1.5l1.3-1.3l2.8-2.8l1.4-2.8l1.3-2.7l2.7-4l1.4-2.8l1.4-6.8
		l1.3-5.3l2.7-5.3l1.2-2.3l3.8-1.3l1.9,6.2l1.4,6.9l2.7,4.1l1.5,4.4h2l2.4-1.2l1.5,1.5l1.8-1.8l3.8-1.1l1.5-1.5l4-2.6l1.5-1.5l1.3-4
		l2.6-2.6l2.5-1.1l1.5-1.5l2.5-2.5h6.9l1.5-3.1l0.9-1.9l2.5,2.5l1.6-1.6l3.4,1.2l2.6,2.6l2,2l3.1-6.2l1.3-2.7l1.3-2.7l2.7-5.4
		l1.4-5.4l1.2-3.6h1.7l1.2,3.6l1.4,2.7l1.4,2.9l2.6,1.3l1.3,3.9l1.7,1.7h3.2l1.7-1.7l1.1-3.2l4.1-0.7l1.5-1.5l1.4-4.1l2.7-4.1
		l1.3-5.3l2.2-0.3l-2.2,6.1l-2.7,4.1l-1.4,4.2l-1.9,1.9l-4.3,2.1l-2.8,3.6h-4.4l-2.3-2.3l-1.2-3.7l-2.5-1.3l-1.6-3.3l-1.4-2.8
		l-0.9-2.8l-0.6,2.6l-1.4,5.5l-2.8,5.6l-1.3,2.7l-1.3,2.7l-3.9,7.9l-3.3-3.3l-1.3-1.3l-3.1-2.1l-2.2,2.2l-2.1-2.1l-2,4h-6.6
		l-2.6,2.1l-1.9,1.9h-1.3l-3.1,3.1l-1.3,4l-1.9,1.9l-2.7,1.3l-3.1,3.1h-2.7l-3.5,3.5l-1.7-1.7l-1.8,0.9h-3.3l-1.7-5.2l-2.8-4.1
		l-1.4-7.1l-1-5.1l-1.9,1.3l-1.4,1.6l-2.6,5.2l-1.3,5.1l-1.4,6.9l-1.5,3l-2.7,4l-1.3,2.6l-1.5,3l-2.9,2.9l-1.3,1.3l-1.9,1.9h-4
		l-2.3,2.3l-3.4,1.7h-7.1l-1.3-2.7l-2.9-1.9l-2.9-2.9l-1.5-3l-0.8-1.6h-2.7l-1.8-3.5l-1.3-1.3l-1.2-2.4l-2.4-1.2l-3.8-0.5l-1.4,1.4
		l-1.3,2.7l-2.6,2.6l-1.2,3.7l-1.7,3.4l-2.5,1.3l-1.2,3.7l-1.7,1.7l-1.6,1.6l-3.4,1.7l-2,1l-2.4,1.2l-1.6,3.2h-6.5l-1.3-2.7h-5
		l-1.3-1.3l-1.7,0.8l-1.6,3.2h-1.8l-1.3,1.3h-3.5l-1.9,1.3h-9.4l-1.3,1.3h-9.4l-3.4-1.7l-1.6-1.6l-3.8-2.5l-1.6-1.6l-3.1-2.1h-1.7
		l-1.3-1.3l-4.9-1.9l-1.5-4.4l-3.9-3.9l-3.6,1.7l-1.2,2.4l-1.8,1.8l-2.7,1.3l-2.5,2.5l-2.2-2.2h-2.4l-2.7,2.7h-2.7l-1.3,1.3h-1.7
		l-2,1l-2.5,2.5l-1.9,1.9h-2.7l-3.1,3.1l-2.7-1.3l-3.1,0.9h-6.2l-1.3-1.3h-4l-1.9-1.9l-2.6-0.8h-2.2l-1.3-1.3h-1.9l-2.7,2.2
		l-2.5-2.5l-2-1h-1.7l-1.7-1.7l-2.7-1.3l-1.6-1.6l-2.6-0.8h-2.2l-2.2-2.2l-1.2-2.4l-2.4-1.2l-1.5-1h-3.5l-1.3-1.3l-1,1.3h-5.7
		l-1.7-1.7l-2.7-1.3l-1.6-1.6l-1.6-1.6l-0.9-1.9h-2.7l-1.9-3.8l-0.8-1.6h-8.2l-2.3,1.8l-4.3-2.1l-1.6-1.6l-3.9-0.8l-1.9-3.8
		l-1.2-2.4l-3.2-0.5l-1.3-1.3l-3.7-1.3l-1.4,1.3h-2.7l-3.4-1.7l-2-1l-2.7-1.3h-3.5l-1.6-3.2l-2.9-1.5l-1.6-6.3l-1.3-5.2l-2.7-5.4
		l-1.4-6.9l-1.3-5.1l-1.2-2.5l-2.8-5.5l-1.3-4l-1-2l-2.4-1.2l-1.6-1.6l-1.3-1.3l-1-1.6l-1.3,2.7l-1.8,1.8l-2.7,1.3l-1.7,1.7h-13.8
		l-1.9-1.9l-2.9-2.9l-1.6-3.1l-1.4-4.2l-1.2-3.6l-2.6-2.6l-1.6-3.2l-1.3-5.4l-2.7-5.3l-1.4-4.2l-1.3-5.1l-2.7-4l-1.4-5.7l-1-3.9
		l-4-1.9l-1.7-3.4l-1.1-3.4l-2.2-1.1l-1.6-1.6l-1.7-1.7l-1.3-4l-1.9,2.6l-2.7,4l-1.3,2.6l-1.5,3l-1.6,1.6l-2.7,2.7l-3.3,3.3
		l-2.5-4.9l-0.7-1.3l-1.1,2.3l-1.6,4.7l-3.9,1.9h-2.7l-1.3-1.3h-4l-1.7-1.7l-1.4-0.2l-2.4,5l-2.8,2.8l-1.1,2.2l-1.4,5.7l-2.9,2.9
		l-1.1,2.3l-1.3,3.9l-1.4,4.3l-2.8,4.2l-1.8,3.7h-1.8l-1.8,1.8l-1.2,3.7l-1.4,2.8l-1.4,2.8l-2.9,4.3l-3.5,3.5l-2.5-4.9l-2.7-2.7
		l-1.6-3.2l-1.4-5.5l-1.1-3.2l-2,3.7l-2.6,2.6l-1.2,4.8l-1.4,6.9l-2.8,5.6l-1.5,3l-3,3l-1.7-1.7l-1.8,0.9l-1.5,1.9l-2.7,2.7
		l-1.2,2.4l-1.2,2.5l-1.3,5.3l-2.7,6.7l-1.4,5.8l-2.8,2.8l-4.9-2.4l-1.4-7.1l-2.3-2.3l-2.7-2.7l-2.1,0.9l-1.3,8.9l-1.4,4.3l-2,3.9
		h-5.4l-1.3-4l-2.1,1.3H760l-2.4,0.8l-1,3.1l-1.4,8.2l-1.6,3.3l-2.6,2.6l-1.7,5h-3.6l-3.5-3.5l-1.5-3l-0.8-1.6l-4-1.7l-2.3,5.8
		l-1.3,4l-1.3,2.7l-1.6,4.7l-3.1,1.6l-1.7,1.7h-4l-2.2,2.2l-2.8-2.8l-2.7-2.7l-1.4,2.9l-2.7,1.3l-2.3,2.3l-2.4,3.6l-1.7,5.2h-2
		l-5.3,3.1l-2.4-2.4l-4.3-2.7l-1.2-3.5l-2.1-1.3l-1.3,3.9l-1.5,4.6l-2.6,2.6l-1.3,5.1l-1.4,2.8l-2,6.1l-5.4-2.7l-1.5-3l-2.4-0.5
		h-3.2l-2.7-1.3h-3.5l-1.8-3.5l-2.7-2.7l-1.6-3.1l-1.2-3.7l-2.6-2.6l-1.3-2.7l-2.5-2.5l-2.1-2.1h-1.3l-1.9-1.9l-2.9-2.9l-1.3-2.7
		l-1.5-0.5l-2.7-1.3h-3.7l-2,4.1l-1.3-1.3l-5.8,3.5l-2-6.1l-1-2l-1.7-0.8h-1.7l-1.3-1.3h-2.7l-1.3-1.3l-3.7,4h-2.2V6552.6z"/>
	<path class="st4" d="M598.5,6562h3.8l1.3,1.3h1.6l3.9,1.3l2.6,1.3h8.6l1.3-1.3h6.5l3.6,1.2l2.5,3.7l1.3,5.4l2.7,5.4l1.3,2.6
		l1.3,5.4l2.7,5.4l1.3,6.7l1.4,4.1l1.4,4.1l2.7,4.1l1.3,2.7l1.4,2.8l2.8,2.8l1.3,1.3l1.5,1.5h4l1.3,1.3h4.3l2.4,1.3h3.2l1.3-1.3h2.6
		l2.7-1.3h5.2l2.4,1.3h5.9l1.3-1.3h4l1.3-1.3l3.9-1.3h2.7l2.7-1.3h1.5l1.5-1.5l3.6-1.1l2.4,1.3h3.2l1.3-1.3l3.9-1.3h1.5l1.6-1.6
		l1.3-2.6l2.6-1.3l1.4-1.4l3.8-1.1l1.3-1.3h1.3l1.3-1.3h2.7l1.5-1.5l3.8-1.1l1.3-1.3h1.3l1.3-1.3h8.1l1.5-1.5l3.8-1.1l1.5-1.5
		l2.4-1.1l2.7-1.3h1.5l1.3-1.3h12l2.7-1.3h1.5l1.5-1.5l3.6-1.1h1.6l1.3-1.3h4l1.3-1.3h9.4l1.3-1.3h5.4l1.3-1.3h5.4l1.3-1.3h10.8
		l1.3-1.3h47.1l1.3-1.3h7.8l2.7,1.6l1.6-1.6h7.8l2.4,1.3h18.1l1.3-1.3h4l1.3-1.3h9.4l1.3-1.3h4l1.3-1.3h6.5l3.9,1.3h6.9l2.3,1.2
		l2.9,1.5h12.5l1.3-1.3h3.8l2.4,1.3h4l1.3,1.3h1.5l2.7,1.3l2.6,1.3h4.3l2.4,1.3h3l2.4,1.3h3l2.4,1.3h1.5l2.7,1.3l2.6,1.3h2.7
		l2.7,2.7h1.5l2.7,1.3h1.5l3.9,1.3h1.5l2.4,1.3h4.3l3.9,1.3h6.6l1.3,1.3h4l1.3,1.3h7.3l1.3-1.3h2.1l1.3,1.3h23.4l1.3-1.3l3.9-1.3
		h1.5l1.3-1.3h9.1l2.1,2.4l2.7,4l1.4,2.8l1.4,1.4l1.4,1.4l2.9,1.5h1.5l3.9,1.3h6.6l1.3,1.3h2l2.9-4.3l2.2-1.1h4.3l1.3-1.3h5.1
		l3.9,1.3h8.5l1.3-1.3h10.8l1.3-1.3h6.6l2.7-1.3h11.7l1.6,1.6l1.6-1.6h8.1l1.5-1.5l2.4-1.1l2.7-1.3h1.5l1.3-1.3h2.7l1.3-1.3h6.7
		l1.3-1.3h2.1l1.3,1.3h5.7l2.4,1.3h4.3l2.4,1.3h20.7l1.3-1.3l3.9-1.3h1.5l1.3-1.3l3.6-1.2l2.5,2.5h2.6l1.3,2.7h1.5l1.3,1.3h4.6
		l1.5-1.5l2.8-1.4l1.3-2.5h2.4l2.7-1.3h6.8l1.5-1.5l2.5-1.2h1.5l1.3-1.3l3.9-1.3l2.4,1.5l3-1.5h2.5l3.6,1.2l1.5,1.5h4l1.6,1.6
		l1.8-1.8l4.1-2.7l1.4-2.8l3.4-2.3l1.5,1.5l1.6-1.6h5.4l1.3-1.3h4l1.3-1.3h2.4l2.4,1.3h4.6l1.3-1.3l4.2-1.5l1.4-1.4l1.3-1.3
		l-0.4,2.3l-1.6,1.6l-3.4,1.7l-2.3,1.3h-5.7l-1.3-1.3h-2.4l-1.3,1.3h-4l-1.3,1.3h-5.4l-2.2,2.2l-1.7-1.7l-2,1.4l-1.5,3l-3,1.5
		l-3.9,3.9l-2.2-2.2h-4l-1.7-1.7l-2-1h-2.2l-4.4,1.8l-1.8-1.8l-2.7,1.3l-2.3,1.3h-1.7l-2,1l-1.7,1.7h-6.2l-3.6,1.3h-1.8l-1.2,2.2
		l-3,1.5l-1.7,1.7h-5.7l-1.3-1.3h-1.8l-1.3-2.7h-2.3l-1.9-1.9l-2.1,0.6l-2.3,1.3h-1.7l-2.7,1.3l-2.3,1.3h-21.9l-1.3-1.3h-5.4
		l-1.3-1.3h-6.7l-1.3-1.3l-2.4,1.3h-6.2l-1.9,1.3h-2.7l-1.3,1.3h-1.7l-2.7,1.3l-1.7,0.8l-1.9,1.9h-8.1l-2.2,2.2l-2.2-2.2h-9.9
		l-3.6,1.3h-6.4l-1.3,1.3h-10.8l-1.3,1.3h-9.4l-2.7-1.3h-4.9l-1.9,1.3h-4.9l-4.3,5.4h-3.3l-1.3-1.3h-6.4l-2.7-1.3h-2.7l-3.4-1.7
		l-1.6-1.6l-1.6-1.6l-1.4-2.9l-2.7-4l-0.8-1.7h-8.2l-1.9,1.3h-1.7l-2.7,1.3l-2.3,1.3h-24.6l-1.3-1.3l-2.4,1.3h-8.4l-1.3-1.3h-4
		l-1.3-1.3h-6.4l-2.7-1.3h-5.7l-1.3-1.3h-2.3l-2.7-1.3h-2.7l-2.7-1.3h-1.7l-1.9-1.9l-3.4-0.8l-1.3-1.3l-3.7-1.3h-1.7l-1.3-1.3h-4
		l-1.3-1.3h-4l-1.3-1.3h-5.4l-1.3-1.3l-3.7-1.3h-1.7l-1.3-1.3h-4l-1.3-1.3h-3.2l-1.9,1.3h-13.4l-3.4-1.7l-1.5-1h-7.2l-2.7-1.3h-6.3
		l-1.9,1.3h-3.5l-1.9,1.3h-9.4l-1.3,1.3h-4l-1.3,1.3h-19.2l-1.3-1.3h-7.7l-2.2,2.2l-2.2-2.2h-7.7l-1.3,1.3h-47.1l-1.3,1.3h-10.8
		l-1.3,1.3h-4.9l-1.9,1.3h-4.9l-1.9,1.3h-8.9l-1.9,1.3h-4l-1.3,1.3h-4l-2.7,2.7h-1.7l-2.7,1.3h-11.8l-1.3,1.3h-1.7l-2.7,1.3
		l-1.7,0.8l-1.9,1.9h-2.7l-2.7,2.7h-8.1l-1.3,1.3h-1.3l-1.3,1.3H750l-2.7,2.7h-2.7l-1.3,1.3H742l-1.3,1.3h-2.7l-2.3,2.3l-2.4,1.2
		l-1.2,2.4l-2.2,2.2h-1.7l-2.7,1.3l-2.3,1.3h-4.4l-1.3-1.3h-2.4l-2.7,2.7h-1.7l-2.7,1.3h-1.8l-3.6,1.3l-2.3,1.3h-4l-1.3,1.3h-7.1
		l-1.3-1.3h-4.5l-3.6,1.3h-1.8l-1.9,1.3h-4.4l-1.3-1.3h-5.4l-1.3-1.3h-4l-1.9-1.9l-1.3-1.3l-2.9-2.9l-1.5-3l-1.3-2.6l-2.8-4.2
		l-1.4-4.3l-1.4-4.2l-1.3-6.6l-2.7-5.3l-1.3-5.4l-1.2-2.5l-2.8-5.6l-1.3-5.4l-1.1-2.2l-2.9-1.9h-6.3l-1.9,1.3h-9.8l-1.3-1.3
		l-3.7-1.3H603l-1.3-1.3h-3.2L598.5,6562z"/>
	<path class="st5" d="M598.5,6567.4h3.8l2.7,2.7h4l1.3,1.3h4.7l1.5-3.1l1.2-2.3h2.6l1.5-1.5l2.2-1.1h2.7l2.6,1.5l2.5-1.3l1.1,2.2
		l1.3,1.3l1.3,2.7l2.7,2.7l1.3,3.9l1.4,5.5l2.7,4l1.3,6.6l1.4,4.1l1.4,4.2l2.7,2.7l1.3,2.7l1.5,1.5l2.7,1.3l2.8,2.8h1.5l2.7,1.3h1.5
		l3.9,1.3h12.3l2.2,2.5l3,1.5l2.4,2.7h4.7l1.5-1.5l3.7-2.5h1.6l1.5-3l3.5-1.1h1.6l1.3-1.3h2.7l1.5-1.5l2.2-1.1h3l1.9,2.7h4.8
		l1.3-1.3h2.7l1.3-1.3h1.6l1.4-4.3l2.6-2.6l2.4-1.1l2.9-1.5l2.6-1.2l1.5-1.5l2.7-1.3l2.5-1.2l2.7-1.3l2.1,1.1l1.7,1.7l3-1.5l2.4,1.5
		l3-1.5h1.6l1.4-2.9l2.6-1.3l1.4-1.4l2.1,0.3l3-1.5h8.3l1.3-2.7h2.3l2.4,1.3h3.2l1.3-1.3h1.4l1.3-1.3h4l1.3-1.3h3.8l2.3,1.2l2.9,1.5
		h12.5l1.3-1.3h8.9l1.3,1.3h5.4l1.6,1.6l1.6-1.6h2.1l1.3,1.3h1.6l3.9,1.3h12l1.3,1.3h9.4l1.3,1.3h1.3l1.3,1.3h17.9l2.7-1.3l2.3,1.3
		h4.6l1.3-1.3h5.4l1.3-1.3h5.4l1.3-1.3h2.7l1.3-1.3h6.7l1.3-1.3h2.7l1.3-1.3l3.9,1.5l1.5-1.5h10.8l1.5-1.5l2.4-1.1l2.7-1.3h17.6
		l1.3-1.3h23.9l3.9,1.3h2.8l3.9,1.3h10.9l2.4,1.3h1.5l2.5,1.2l1.5,1.5h4l1.3,1.3h17.8l2.4,1.3h24.7l2.7-1.3l2.3,1.3h24.7l2.7-1.3
		h2.5l3.9,1.3l2.5,1.2l2.6,1.3l1.2,2.4l1.3,4l2.7,8.1l1.4,2.8l1.3,1.3l1.4,2.8l2.8,1.4l1.5,1.5h1.3l3,3l1.6-1.6h1.3l1.5-1.5l2.5-1.2
		h1.6l1.5-3.1l2.7-6.7l1.3-2.6l2.5-2.5l2.8-1.4l1.4-2.8l3.6-2.4h2.4l2.7,1.3h8.5l1.3-1.3h6.6l2.7-1.3h39l2.7-1.3h2.7l2.7-1.3h6.8
		l1.3-1.3h6.5l3.9,1.3h32.6l2.4-1.2l2.8,1.2l3.5,1.2l1.3,2.6l1.5,1.5l2.5,1.3l1.3,3.9l1.7,1.7h1.8l3-1.5l1.4-2.8l4-2.6l1.4-4.2
		l2.3-1l2.7-1.3h5.5l1.3-1.3l3.9-1.3h4l2.7-1.3l2.3,1.3h4.3l2.2,4h2.8l1.2,2.4l1.6,1.6h4.6l1.6-1.6l1.3-2.6l2.7-1.3l1.4-2.8l3.1-1.1
		l1.3,2.7h1.6l2.7,1.3h1.8l1.5-1.5l4-1.1l1.4-4.3l3.6-2.4l2.1,2.7h7.3l2.7-1.3h1.7l1.5-4.5l-0.5,5.8h-2.3l-2.7,1.3h-8.5l-1.3-2.7
		l-1.6,1l-2.4,5.7h-3.3l-2.7,2.7h-2.7l-2.7-1.3h-2.1l-1.3-2.7l-2.6,3.5l-2.7,1.3l-1.2,2.4l-2.2,2.2h-5.7l-2.2-2.2l-0.9-1.9h-2.9
		l-1.3-4h-4.8l-1.3-1.3l-2.7,1.3h-3.2l-3.6,1.3l-2.3,1.3h-4.9l-3.6,1.3l-1.4,0.4l-1.5,4.4l-3.1,1.6l-2.4,3.9l-3.7,1.9h-2.7l-2.3-2.3
		l-1.2-3.7l-2.2-1.1l-1.8-1.8l-1.2-2.4l-1.7-0.8h-39l-2.7-1.3h-6.3l-1.9,1.3h-6.2l-3.6,1.3h-1.8l-3.6,1.3H1196l-3.6,1.3h-6.4
		l-1.3,1.3h-9.4l-2.7-1.3h-1.7l-2,1l-2.4,3.9l-3,1.5l-2.2,2.2l-1.2,2.3l-2.7,6.7l-1.9,3.9h-2.1l-2,1l-1.7,1.7h-1.3l-2.2,2.2
		l-3.5-3.5h-1.3l-1.7-1.7l-3-1.5l-1.5-3l-1.3-1.3l-1.6-3.1l-2.7-8.2l-1.3-3.9l-1-2l-2.4-1.2l-2-1l-2.7-1.3h-2.2l-3.6,1.3h-25.5
		l-1.3-1.3l-2.7,1.3h-25.5l-1.3-1.3h-18.8l-1.3-1.3h-4l-1.7-1.7l-2-1h-1.7l-1.3-1.3h-11.8l-2.7-1.3h-4l-2.7-1.3H982l-1.9,1.3h-17
		l-3.6,1.3l-1.7,0.8l-1.9,1.9h-10.3l-2.3,1.8l-3.6-1.8l-1.4,1.3h-2.7l-1.3,1.3h-6.2l-1.9,1.3h-2.7l-1.3,1.3h-4.9l-1.9,1.3h-4.9
		l-1.9,1.3h-5.7l-1.3-1.3l-2.7,1.3h-18.8l-1.3-1.3h-1.3l-1.3-1.3h-9.4l-1.3-1.3h-11.8l-2.7-1.3H848l-1.3-1.3l-3.2,2.2l-2.2-2.2h-5.4
		l-1.3-1.3h-7.2l-1.9,1.3H812l-3.4-1.7l-1.5-1h-3.2l-1.3,1.3h-4l-1.3,1.3h-1.3l-1.3,1.3h-4.4l-1.3-1.3h-2l-1.3,2.7h-8l-4.4,1.8
		l-2.4,0.5l-2.4,1.2l-1.6,3.2h-2.1l-3.6,1.8l-1.8-1.8l-3.6,1.8l-2.4-2.4l-3.5,0.6l-2,1l-2.7,1.3l-1.7,1.7H742l-4.4,2.7l-1.7,0.8
		l-2.4,2.4l-1.7,5h-2l-1.3,1.3h-2.7l-1.3,1.3h-6.3l-0.8-2.3l-3.2-0.4l-3.2,2.7h-2.7l-1.3,1.3h-4l-2.3,4h-2.1l-2,1l-3.1,3.1h-6.1
		l-1.3-2.7l-4.3-1.9l-1.1-2.2H668l-2.7-1.3h-2.7l-2.7-1.3h-1.7l-1.9-1.9l-3.8-2.5l-1.8-1.8l-1.3-2.7l-2.8-2.8l-1.5-4.5l-1.4-4.2
		l-1.3-6.5l-2.7-4l-1.4-5.6l-1.2-3.5l-2.6-2.6l-1.3-2.7l-1.3-1.3l-2.8-0.1l-1.8-1.8H624l-3.2,2.7h-2.3l-0.8,1.6l-1.9,3.8h-6.1
		l-1.3-1.3h-4l-1.9-1.9l-2.6-0.8h-1.3L598.5,6567.4z"/>
	<path class="st6" d="M598.5,6562l4.2,1.5l1.5-1.5h29.6l1.5-1.5l4-2.6l1.4-1.4l1.3-1.3l2.7-2.7l1.4-1.4l1.3-2.7l3.8-1.1l1.5-1.5
		l3.8-1.1l1.3-1.3h6.7l1.3-1.3h9.1l2.4,1.3h10l1.3-1.3h3.8l2.4,1.3h4.3l2.4,1.3h8.1l1.3,1.3h5.4l1.6,1.6l1.6-1.6h2.4l2.4,1.3h4.3
		l2.3,1.2l2.9,1.5h5.5l2.4,1.3h4.3l2.4,1.3h14.8l1.3,1.3h4l1.3,1.3h10.8l1.3,1.3h7l3.9,1.3h6.9l2.4,1.3h15.1l2.4,1.3h33.6l1.3,1.3
		h13.9l2.7-1.3h5.2l2.4,1.3h64.9l2.4,1.3h8.4l2.4,1.3h4.6l1.3-1.3h9.4l1.3-1.3h6.7l1.3-1.3h2.4l2.4,1.3h13.9l2.7-1.3h6.8l1.3-1.3
		h10.8l1.3-1.3h9.4l1.3-1.3h12.1l1.3-1.3h14.8l1.3-1.3h65.9l1.5-1.5l2.5-1.2h1.5l1.3-1.3h4l1.3-1.3h11.8l3.9,1.3h1.5l2.4,1.3h3
		l2.4,1.3h3l2.4,1.3h4.6l1.3-1.3h5.1l3.9,1.3h18.7l1.3,1.3h1.8l2.7-1.3h17.3l2.4,1.3h9.4l1.3,1.3h20.6l2.7-1.3h29.2l1.3,1.3h5.9
		l1.3-1.3h5.4l1.3-1.3h3.5l1.3,1.3h4l1.3,1.3h11l2.4,1.3h15.1l2.7,1.6l1.5-1.5l2.7,1.3l1.5-1.5h5.1l2.4,1.3h3l2.4,1.3h15.1l2.4,1.3
		h4.6l1.3-1.3h3.8l2.4,1.3h5.7v1.3h-6.2l-1.3-1.3h-3.2l-1.9,1.3h-5.7l-1.3-1.3h-16.2l-1.3-1.3h-4l-1.3-1.3h-4.5l-2.3,1.8l-2.7-1.3
		l-1.7,1.7l-2.2-2.2h-16.2l-1.3-1.3h-12.1l-1.3-1.3h-4l-1.3-1.3h-1.9l-1.9,1.3h-4.9l-1.9,1.3h-7.1l-1.3-1.3h-27.4l-3.6,1.3h-21.5
		l-1.3-1.3h-9.4l-1.3-1.3h-16.7l-3.6,1.3h-2.7l-1.3-1.3h-18.5l-2.7-1.3h-4.9l-1.9,1.3h-5.7l-1.3-1.3h-4l-1.3-1.3h-4l-1.3-1.3h-2.3
		l-2.7-1.3h-11.6l-1.9,1.3h-3.5l-1.9,1.3h-1.7l-2,1l-1.7,1.7h-65.4l-1.9,1.3h-14.8l-1.3,1.3h-11.6l-1.9,1.3h-9.4l-1.3,1.3H1013
		l-1.9,1.3h-6.2l-3.6,1.3h-14.8l-1.3-1.3h-2.4l-1.3,1.3h-6.2l-1.9,1.3h-8.9l-1.9,1.3H957l-1.3-1.3h-9.4l-1.3-1.3h-56.2l-1.8-0.9
		l-3.1,0.9h-4.9l-1.3-1.3H873l-3.6,1.3h-14.8l-1.3-1.3h-33.6l-1.3-1.3h-16.1l-1.3-1.3h-7.7l-2.7-1.3H782l-1.3-1.3h-10.8l-1.3-1.3h-4
		l-1.3-1.3h-14.8l-1.3-1.3h-5.4l-1.3-1.3h-6.4l-3.4-1.7l-1.5-1h-4.9l-1.3-1.3h-2.4l-2.2,2.2l-2.2-2.2h-5.4l-1.3-1.3h-8.1l-1.3-1.3
		h-5.4l-1.3-1.3H690l-1.9,1.3H677l-1.3-1.3h-9.1l-1.3,1.3H659l-1.9,1.3h-2.7l-2.7,2.7h-2.7l-1.9,3.2l-1.6,1.6l-2.7,2.7l-1.3,1.3
		l-1.6,1.6l-2.7,1.3l-3.1,3.1h-29.1l-2.3,1.8l-3.6-1.8L598.5,6562z"/>
	<text transform="matrix(1 0 0 1 509.411 6668.356)" class="st7 st8 st9">-100</text>
	<text transform="matrix(1 0 0 1 517.999 6617.2148)" class="st7 st8 st9">-50</text>
	<text transform="matrix(1 0 0 1 531.729 6566.0742)" class="st10 st11 st12">0</text>
	<text transform="matrix(1 0 0 1 523.71 6513.5869)" class="st7 st8 st9">50</text>
	<text transform="matrix(1 0 0 1 515.122 6462.4458)" class="st7 st8 st9">100</text>
	<text transform="matrix(1 0 0 1 515.122 6411.3052)" class="st7 st8 st9">150</text>
	<text transform="matrix(1 0 0 1 515.122 6358.8179)" class="st7 st8 st9">200</text>
	<text transform="matrix(0.7071 -0.7071 0.7071 0.7071 523.4561 6721.147)" class="st7 st8 st9">25/1/20</text>
	<text transform="matrix(0.7071 -0.7071 0.7071 0.7071 577.2999 6721.147)" class="st7 st8 st9">25/2/20</text>
	<text transform="matrix(0.7071 -0.7071 0.7071 0.7071 627.6719 6721.147)" class="st7 st8 st9">25/3/20</text>
	<text transform="matrix(0.7071 -0.7071 0.7071 0.7071 681.5159 6721.147)" class="st7 st8 st9">25/4/20</text>
	<text transform="matrix(0.7071 -0.7071 0.7071 0.7071 733.6241 6721.1479)" class="st7 st8 st9">25/5/20</text>
	<text transform="matrix(0.7071 -0.7071 0.7071 0.7071 787.4691 6721.147)" class="st7 st8 st9">25/6/20</text>
	<text transform="matrix(0.7071 -0.7071 0.7071 0.7071 839.577 6721.147)" class="st7 st8 st9">25/7/20</text>
	<text transform="matrix(0.7071 -0.7071 0.7071 0.7071 893.4219 6721.1479)" class="st7 st8 st9">25/8/20</text>
	<text transform="matrix(0.7071 -0.7071 0.7071 0.7071 947.2659 6721.147)" class="st7 st8 st9">25/9/20</text>
	<text transform="matrix(0.7071 -0.7071 0.7071 0.7071 994.564 6726.5308)" class="st7 st8 st9">25/10/20</text>
	<text transform="matrix(0.7071 -0.7071 0.7071 0.7071 1048.4091 6726.5308)" class="st7 st8 st9">25/11/20</text>
	<text transform="matrix(0.7071 -0.7071 0.7071 0.7071 1100.517 6726.5308)" class="st7 st8 st9">25/12/20</text>
	<text transform="matrix(0.7071 -0.7071 0.7071 0.7071 1159.173 6721.147)" class="st7 st8 st9">25/1/21</text>
	<text transform="matrix(0.7071 -0.7071 0.7071 0.7071 1213.017 6721.147)" class="st7 st8 st9">25/2/21</text>
	<text transform="matrix(0.7071 -0.7071 0.7071 0.7071 1261.651 6721.147)" class="st7 st8 st9">25/3/21</text>
	<text transform="matrix(0.7071 -0.7071 0.7071 0.7071 1315.495 6721.147)" class="st7 st8 st9">25/4/21</text>
	<text transform="matrix(0.7071 -0.7071 0.7071 0.7071 1367.6031 6721.147)" class="st7 st8 st9">25/5/21</text>
</g>
<g transform="translate(-551.26 -6240.771)">
	<text transform="matrix(1 0 0 1 622.1377 6256.3394)" class="st7 st8 st9">Parks Mobility MA7</text>
	<rect x="608.8" y="6246.3" class="st3" width="9.8" height="9.8"/>
	<text transform="matrix(1 0 0 1 773.2517 6256.3394)" class="st7 st8 st9">Transport Usage MA7</text>
	<rect x="759.9" y="6246.3" class="st4" width="9.8" height="9.8"/>
	<text transform="matrix(1 0 0 1 939.4777 6256.0542)" class="st7 st8 st9">Workplace Mobility MA7</text>
	<rect x="926.1" y="6246" class="st5" width="9.8" height="9.8"/>
	<text transform="matrix(1 0 0 1 1122.9418 6256.3394)" class="st7 st8 st9">Stay at home index MA7</text>
	<rect x="1109.6" y="6246.3" class="st6" width="9.8" height="9.8"/>
	<text transform="matrix(1 0 0 1 1306.1877 6256.3394)" class="st7 st8 st9">Total Mobility MA7</text>
	<rect x="1292.6" y="6246.3" class="st2" width="9.8" height="9.8"/>
</g>
</svg>
