<?xml version="1.0" encoding="utf-8"?>
<!-- Generator: Adobe Illustrator 22.0.1, SVG Export Plug-In . SVG Version: 6.00 Build 0)  -->
<svg version="1.1" id="_06_MEASURES_AGAINST_COVID-19"
	 xmlns="http://www.w3.org/2000/svg" xmlns:xlink="http://www.w3.org/1999/xlink" x="0px" y="0px" viewBox="0 0 763.4 438.9"
	 style="enable-background:new 0 0 763.4 438.9;" xml:space="preserve">
<style type="text/css">
	.eee0{fill:#606060;}
	.eee1{font-family:'ArialMT';}
	.eee2{font-size:14.31px;}
	.eee3{fill:#90BBE7;}
	.eee4{fill:#7899C3;}
	.eee5{fill:#4C5874;}
	.eee6{fill:#FFFFFF;stroke:#A6A8AB;stroke-width:1.42;stroke-miterlimit:10;}
	.eee7{fill:none;}
	.eee8{fill:none;stroke:#A6A8AB;stroke-width:1.42;stroke-miterlimit:10;}
</style>
<text transform="matrix(1 0 0 1 347.32 35.38)" class="eee0 eee1 eee2">0</text>
<text transform="matrix(1 0 0 1 384.02 35.38)" class="eee0 eee1 eee2">1</text>
<rect x="334" y="25.3" class="eee3" width="9.8" height="9.8"/>
<rect x="370.5" y="25.3" class="eee4" width="9.8" height="9.8"/>
<text transform="matrix(1 0 0 1 420.27 35.38)" class="eee0 eee1 eee2">2</text>
<rect x="406.7" y="25.3" class="eee5" width="9.8" height="9.8"/>
<rect x="0.7" y="62.8" class="eee6" width="762" height="375.4"/>
<rect x="0.1" y="62.2" class="eee7" width="762" height="374.1"/>
<polygon class="eee3" points="56.2,330.3 103.6,334.1 152.2,334.1 200.9,334.1 249.5,304.1 298.2,309.1 346.8,314.1 395.4,324.1 
	444.1,334.1 492.7,334.1 540.1,334.1 588.8,334.1 637.4,334.1 686,334.1 734.7,334.1 686,334.1 637.4,334.1 588.8,334.1 
	540.1,334.1 492.7,334.1 444.1,334.1 395.4,334.1 346.8,334.1 298.2,334.1 249.5,334.1 200.9,334.1 152.2,334.1 103.6,334.1 
	56.2,334.1 "/>
<polygon class="eee4" points="56.2,320.4 103.6,319.1 152.2,319.1 200.9,269.2 249.5,229.3 298.2,214.3 346.8,239.3 395.4,269.2 
	444.1,299.1 492.7,309.1 540.1,314.1 588.8,299.1 637.4,304.1 686,304.1 734.7,264.2 734.7,334.1 686,334.1 637.4,334.1 
	588.8,334.1 540.1,334.1 492.7,334.1 444.1,334.1 395.4,324.1 346.8,314.1 298.2,309.1 249.5,304.1 200.9,334.1 152.2,334.1 
	103.6,334.1 56.2,330.3 "/>
<polygon class="eee5" points="56.2,104.6 103.6,104.6 152.2,104.6 200.9,104.6 249.5,104.6 298.2,104.6 346.8,104.6 395.4,104.6 
	444.1,104.6 492.7,104.6 540.1,104.6 588.8,104.6 637.4,104.6 686,104.6 734.7,104.6 734.7,264.2 686,304.1 637.4,304.1 
	588.8,299.1 540.1,314.1 492.7,309.1 444.1,299.1 395.4,269.2 346.8,239.3 298.2,214.3 249.5,229.3 200.9,269.2 152.2,319.1 
	103.6,319.1 56.2,320.4 "/>
<line class="eee8" x1="55.6" y1="334.7" x2="735.3" y2="334.7"/>
<rect x="0.1" y="62.2" class="eee7" width="762" height="374.1"/>
<path class="eee8" d="M735.3,334.7v5 M686.6,334.7v5 M638,334.7v5 M589.4,334.7v5 M540.7,334.7v5 M492.1,334.7v5 M443.4,334.7v5
	 M394.8,334.7v5 M346.2,334.7v5 M298.8,334.7v5 M250.1,334.7v5 M201.5,334.7v5 M152.9,334.7v5 M104.2,334.7v5 M55.6,334.7v5"/>
<rect x="0.1" y="62.2" class="eee7" width="762" height="374.1"/>
<text transform="matrix(1 0 0 1 24.08 339.06)" class="eee0 eee1 eee2">0%</text>
<rect x="0.1" y="62.2" class="eee7" width="762" height="374.1"/>
<text transform="matrix(1 0 0 1 16.38 316.61)" class="eee0 eee1 eee2">10%</text>
<rect x="0.1" y="62.2" class="eee7" width="762" height="374.1"/>
<text transform="matrix(1 0 0 1 16.38 292.91)" class="eee0 eee1 eee2">20%</text>
<rect x="0.1" y="62.2" class="eee7" width="762" height="374.1"/>
<text transform="matrix(1 0 0 1 16.38 270.46)" class="eee0 eee1 eee2">30%</text>
<rect x="0.1" y="62.2" class="eee7" width="762" height="374.1"/>
<text transform="matrix(1 0 0 1 16.38 248.01)" class="eee0 eee1 eee2">40%</text>
<rect x="0.1" y="62.2" class="eee7" width="762" height="374.1"/>
<text transform="matrix(1 0 0 1 16.38 224.32)" class="eee0 eee1 eee2">50%</text>
<rect x="0.1" y="62.2" class="eee7" width="762" height="374.1"/>
<text transform="matrix(1 0 0 1 16.38 201.87)" class="eee0 eee1 eee2">60%</text>
<rect x="0.1" y="62.2" class="eee7" width="762" height="374.1"/>
<text transform="matrix(1 0 0 1 16.38 178.17)" class="eee0 eee1 eee2">70%</text>
<rect x="0.1" y="62.2" class="eee7" width="762" height="374.1"/>
<text transform="matrix(1 0 0 1 16.38 155.72)" class="eee0 eee1 eee2">80%</text>
<rect x="0.1" y="62.2" class="eee7" width="762" height="374.1"/>
<text transform="matrix(1 0 0 1 16.38 133.27)" class="eee0 eee1 eee2">90%</text>
<rect x="0.1" y="62.2" class="eee7" width="762" height="374.1"/>
<text transform="matrix(1 0 0 1 8.68 109.58)" class="eee0 eee1 eee2">100%</text>
<rect x="0.1" y="62.2" class="eee7" width="762" height="374.1"/>
<text transform="matrix(0.7071 -0.7071 0.7071 0.7071 21.6001 395.2)" class="eee0 eee1 eee2">2020-03</text>
<rect x="0.1" y="62.2" class="eee7" width="762" height="374.1"/>
<text transform="matrix(0.7071 -0.7071 0.7071 0.7071 70.1101 395.2)" class="eee0 eee1 eee2">2020-04</text>
<rect x="0.1" y="62.2" class="eee7" width="762" height="374.1"/>
<text transform="matrix(0.7071 -0.7071 0.7071 0.7071 118.6101 395.2)" class="eee0 eee1 eee2">2020-05</text>
<rect x="0.1" y="62.2" class="eee7" width="762" height="374.1"/>
<text transform="matrix(0.7071 -0.7071 0.7071 0.7071 167.1201 395.2)" class="eee0 eee1 eee2">2020-06</text>
<rect x="0.1" y="62.2" class="eee7" width="762" height="374.1"/>
<text transform="matrix(0.7071 -0.7071 0.7071 0.7071 215.6201 395.2)" class="eee0 eee1 eee2">2020-07</text>
<rect x="0.1" y="62.2" class="eee7" width="762" height="374.1"/>
<text transform="matrix(0.7071 -0.7071 0.7071 0.7071 264.1299 395.2)" class="eee0 eee1 eee2">2020-08</text>
<rect x="0.1" y="62.2" class="eee7" width="762" height="374.1"/>
<text transform="matrix(0.7071 -0.7071 0.7071 0.7071 312.6299 395.2)" class="eee0 eee1 eee2">2020-09</text>
<rect x="0.1" y="62.2" class="eee7" width="762" height="374.1"/>
<text transform="matrix(0.7071 -0.7071 0.7071 0.7071 361.1401 395.2)" class="eee0 eee1 eee2">2020-10</text>
<rect x="0.1" y="62.2" class="eee7" width="762" height="374.1"/>
<text transform="matrix(0.7071 -0.7071 0.7071 0.7071 409.6401 395.2)" class="eee0 eee1 eee2">2020-11</text>
<rect x="0.1" y="62.2" class="eee7" width="762" height="374.1"/>
<text transform="matrix(0.7071 -0.7071 0.7071 0.7071 458.1499 395.2)" class="eee0 eee1 eee2">2020-12</text>
<rect x="0.1" y="62.2" class="eee7" width="762" height="374.1"/>
<text transform="matrix(0.7071 -0.7071 0.7071 0.7071 506.6499 395.2)" class="eee0 eee1 eee2">2021-01</text>
<rect x="0.1" y="62.2" class="eee7" width="762" height="374.1"/>
<text transform="matrix(0.7071 -0.7071 0.7071 0.7071 555.1599 395.2)" class="eee0 eee1 eee2">2021-02</text>
<rect x="0.1" y="62.2" class="eee7" width="762" height="374.1"/>
<text transform="matrix(0.7071 -0.7071 0.7071 0.7071 603.6599 395.2)" class="eee0 eee1 eee2">2021-03</text>
<rect x="0.1" y="62.2" class="eee7" width="762" height="374.1"/>
<text transform="matrix(0.7071 -0.7071 0.7071 0.7071 652.1699 395.2)" class="eee0 eee1 eee2">2021-04</text>
<rect x="0.1" y="62.2" class="eee7" width="762" height="374.1"/>
<text transform="matrix(0.7071 -0.7071 0.7071 0.7071 700.6699 395.2)" class="eee0 eee1 eee2">2021-05</text>
<rect x="0.1" y="62.2" class="eee7" width="762" height="374.1"/>
<rect x="0.1" y="62.2" class="eee7" width="762" height="374.1"/>
<rect x="0.1" y="62.2" class="eee7" width="762" height="374.1"/>
<rect x="0.1" y="62.2" class="eee7" width="762" height="374.1"/>
<rect x="0.1" y="62.2" class="eee7" width="762" height="374.1"/>
<rect x="0.1" y="62.2" class="eee7" width="762" height="374.1"/>
<rect x="0.1" y="62.2" class="eee7" width="762" height="374.1"/>
<rect x="0.1" y="62.2" class="eee7" width="762" height="374.1"/>
</svg>
