<?xml version="1.0" encoding="utf-8"?>
<!-- Generator: Adobe Illustrator 22.0.1, SVG Export Plug-In . SVG Version: 6.00 Build 0)  -->
<svg version="1.1" id="_06_MEASURES_AGAINST_COVID-19"
	 xmlns="http://www.w3.org/2000/svg" xmlns:xlink="http://www.w3.org/1999/xlink" x="0px" y="0px" viewBox="0 0 756.3 421.9"
	 style="enable-background:new 0 0 756.3 421.9;" xml:space="preserve">
<style type="text/css">
	.ttt0{fill:#606060;}
	.ttt1{font-family:'ArialMT';}
	.ttt2{font-size:14.31px;}
	.ttt3{fill:#90BBE7;}
	.ttt4{fill:#7899C3;}
	.ttt5{fill:#4C5874;}
	.ttt6{fill:#FFFFFF;stroke:#A6A8AB;stroke-width:1.42;stroke-miterlimit:10;}
	.ttt7{fill:none;stroke:#A6A8AB;stroke-width:1.42;stroke-miterlimit:10;}
</style>
<text transform="matrix(1 0 0 1 344.09 37.38)" class="ttt0 ttt1 ttt2">0</text>
<text transform="matrix(1 0 0 1 380.79 37.38)" class="ttt0 ttt1 ttt2">1</text>
<rect x="330.7" y="27.3" class="ttt3" width="9.8" height="9.8"/>
<rect x="367.2" y="27.3" class="ttt4" width="9.8" height="9.8"/>
<text transform="matrix(1 0 0 1 417.04 37.38)" class="ttt0 ttt1 ttt2">2</text>
<rect x="403.5" y="27.3" class="ttt5" width="9.8" height="9.8"/>
<rect x="0.7" y="63.9" class="ttt6" width="754.9" height="357.3"/>
<polygon class="ttt3" points="53.5,299 102,301.5 150.6,291.8 197.9,249.3 246.5,205.6 295,200.7 343.6,186.2 392.1,210.4 
	439.5,239.6 488,239.6 536.6,234.7 585.1,229.9 633.7,239.6 681,239.6 729.6,234.7 729.6,325.8 681,325.8 633.7,325.8 585.1,325.8 
	536.6,325.8 488,325.8 439.5,325.8 392.1,325.8 343.6,325.8 295,325.8 246.5,325.8 197.9,325.8 150.6,325.8 102,325.8 53.5,325.8 
	"/>
<polygon class="ttt4" points="53.5,251.7 102,277.2 150.6,239.6 197.9,171.6 246.5,147.3 295,152.2 343.6,142.5 392.1,171.6 
	439.5,186.2 488,205.6 536.6,200.7 585.1,191 633.7,195.9 681,186.2 729.6,176.4 729.6,234.7 681,239.6 633.7,239.6 585.1,229.9 
	536.6,234.7 488,239.6 439.5,239.6 392.1,210.4 343.6,186.2 295,200.7 246.5,205.6 197.9,249.3 150.6,291.8 102,301.5 53.5,299 "/>
<polygon class="ttt5" points="53.5,103.6 102,103.6 150.6,103.6 197.9,103.6 246.5,103.6 295,103.6 343.6,103.6 392.1,103.6 
	439.5,103.6 488,103.6 536.6,103.6 585.1,103.6 633.7,103.6 681,103.6 729.6,103.6 729.6,176.4 681,186.2 633.7,195.9 585.1,191 
	536.6,200.7 488,205.6 439.5,186.2 392.1,171.6 343.6,142.5 295,152.2 246.5,147.3 197.9,171.6 150.6,239.6 102,277.2 53.5,251.7 
	"/>
<line class="ttt7" x1="52.9" y1="326.4" x2="730.2" y2="326.4"/>
<path class="ttt7" d="M730.2,326.4v4.9 M681.6,326.4v4.9 M633.1,326.4v4.9 M584.5,326.4v4.9 M536,326.4v4.9 M488.6,326.4v4.9
	 M440.1,326.4v4.9 M391.5,326.4v4.9 M343,326.4v4.9 M294.4,326.4v4.9 M247.1,326.4v4.9 M198.5,326.4v4.9 M150,326.4v4.9
	 M101.4,326.4v4.9 M52.9,326.4v4.9"/>
<text transform="matrix(1 0 0 1 22.73 330.61)" class="ttt0 ttt1 ttt2">0%</text>
<text transform="matrix(1 0 0 1 15.23 308.76)" class="ttt0 ttt1 ttt2">10%</text>
<text transform="matrix(1 0 0 1 15.23 285.7)" class="ttt0 ttt1 ttt2">20%</text>
<text transform="matrix(1 0 0 1 15.23 263.85)" class="ttt0 ttt1 ttt2">30%</text>
<text transform="matrix(1 0 0 1 15.23 242)" class="ttt0 ttt1 ttt2">40%</text>
<text transform="matrix(1 0 0 1 15.23 218.94)" class="ttt0 ttt1 ttt2">50%</text>
<text transform="matrix(1 0 0 1 15.23 197.09)" class="ttt0 ttt1 ttt2">60%</text>
<text transform="matrix(1 0 0 1 15.23 175.24)" class="ttt0 ttt1 ttt2">70%</text>
<text transform="matrix(1 0 0 1 15.23 153.39)" class="ttt0 ttt1 ttt2">80%</text>
<text transform="matrix(1 0 0 1 15.23 130.33)" class="ttt0 ttt1 ttt2">90%</text>
<text transform="matrix(1 0 0 1 7.74 108.48)" class="ttt0 ttt1 ttt2">100%</text>
<text transform="matrix(0.7071 -0.7071 0.7071 0.7071 20.3201 385.2498)" class="ttt0 ttt1 ttt2">2020-03</text>
<text transform="matrix(0.7071 -0.7071 0.7071 0.7071 68.6299 385.2498)" class="ttt0 ttt1 ttt2">2020-04</text>
<text transform="matrix(0.7071 -0.7071 0.7071 0.7071 116.9399 385.2498)" class="ttt0 ttt1 ttt2">2020-05</text>
<text transform="matrix(0.7071 -0.7071 0.7071 0.7071 165.24 385.2498)" class="ttt0 ttt1 ttt2">2020-06</text>
<text transform="matrix(0.7071 -0.7071 0.7071 0.7071 213.55 385.2498)" class="ttt0 ttt1 ttt2">2020-07</text>
<text transform="matrix(0.7071 -0.7071 0.7071 0.7071 261.8599 385.2498)" class="ttt0 ttt1 ttt2">2020-08</text>
<text transform="matrix(0.7071 -0.7071 0.7071 0.7071 310.1599 385.2498)" class="ttt0 ttt1 ttt2">2020-09</text>
<text transform="matrix(0.7071 -0.7071 0.7071 0.7071 358.47 385.2498)" class="ttt0 ttt1 ttt2">2020-10</text>
<text transform="matrix(0.7071 -0.7071 0.7071 0.7071 406.78 385.2498)" class="ttt0 ttt1 ttt2">2020-11</text>
<text transform="matrix(0.7071 -0.7071 0.7071 0.7071 455.0801 385.2498)" class="ttt0 ttt1 ttt2">2020-12</text>
<text transform="matrix(0.7071 -0.7071 0.7071 0.7071 503.3901 385.2498)" class="ttt0 ttt1 ttt2">2021-01</text>
<text transform="matrix(0.7071 -0.7071 0.7071 0.7071 551.7 385.2498)" class="ttt0 ttt1 ttt2">2021-02</text>
<text transform="matrix(0.7071 -0.7071 0.7071 0.7071 600 385.2498)" class="ttt0 ttt1 ttt2">2021-03</text>
<text transform="matrix(0.7071 -0.7071 0.7071 0.7071 648.3101 385.2498)" class="ttt0 ttt1 ttt2">2021-04</text>
<text transform="matrix(0.7071 -0.7071 0.7071 0.7071 696.6201 385.2498)" class="ttt0 ttt1 ttt2">2021-05</text>
</svg>
