<?xml version="1.0" encoding="utf-8"?>
<!-- Generator: Adobe Illustrator 22.0.1, SVG Export Plug-In . SVG Version: 6.00 Build 0)  -->
<svg version="1.1" id="_06_MEASURES_AGAINST_COVID-19"
	 xmlns="http://www.w3.org/2000/svg" xmlns:xlink="http://www.w3.org/1999/xlink" x="0px" y="0px" viewBox="0 0 763.4 434"
	 style="enable-background:new 0 0 763.4 434;" xml:space="preserve">
<style type="text/css">
	.rrr0{fill:#606060;}
	.rrr1{font-family:'ArialMT';}
	.rrr2{font-size:14.31px;}
	.rrr3{fill:#90BBE7;}
	.rrr4{fill:#7899C3;}
	.rrr5{fill:#4C5874;}
	.rrr6{fill:#313E59;}
	.rrr7{fill:#222B3E;}
	.rrr8{fill:#FFFFFF;stroke:#A6A8AB;stroke-width:1.42;stroke-miterlimit:10;}
	.rrr9{fill:none;stroke:#A6A8AB;stroke-width:1.42;stroke-miterlimit:10;}
</style>
<text transform="matrix(1 0 0 1 311.38 32.38)" class="rrr0 rrr1 rrr2">0</text>
<text transform="matrix(1 0 0 1 348.08 32.38)" class="rrr0 rrr1 rrr2">1</text>
<rect x="298" y="22.3" class="rrr3" width="9.8" height="9.8"/>
<rect x="334.5" y="22.3" class="rrr4" width="9.8" height="9.8"/>
<text transform="matrix(1 0 0 1 384.33 32.38)" class="rrr0 rrr1 rrr2">2</text>
<rect x="370.8" y="22.3" class="rrr5" width="9.8" height="9.8"/>
<text transform="matrix(1 0 0 1 420.58 32.38)" class="rrr0 rrr1 rrr2">3</text>
<rect x="407" y="22.3" class="rrr6" width="9.8" height="9.8"/>
<text transform="matrix(1 0 0 1 456.83 32.38)" class="rrr0 rrr1 rrr2">4</text>
<rect x="443.3" y="22.3" class="rrr7" width="9.8" height="9.8"/>
<rect x="0.7" y="59.2" class="rrr8" width="762" height="374.1"/>
<polygon class="rrr3" points="56.9,324.9 106,321.2 153.8,321.2 201.7,321.2 250.8,316.1 298.6,316.1 347.7,316.1 395.6,326.2 
	443.4,331.2 492.5,331.2 540.4,331.2 588.2,331.2 637.3,331.2 685.2,331.2 734.3,336.3 685.2,336.3 637.3,336.3 588.2,336.3 
	540.4,336.3 492.5,336.3 443.4,336.3 395.6,336.3 347.7,336.3 298.6,336.3 250.8,336.3 201.7,336.3 153.8,336.3 106,336.3 
	56.9,336.3 "/>
<polygon class="rrr4" points="56.9,319.9 106,316.1 153.8,311.1 201.7,311.1 250.8,306.1 298.6,296 347.7,306.1 395.6,321.2 
	443.4,331.2 492.5,331.2 540.4,331.2 588.2,331.2 637.3,331.2 685.2,331.2 734.3,336.3 685.2,331.2 637.3,331.2 588.2,331.2 
	540.4,331.2 492.5,331.2 443.4,331.2 395.6,326.2 347.7,316.1 298.6,316.1 250.8,316.1 201.7,321.2 153.8,321.2 106,321.2 
	56.9,324.9 "/>
<polygon class="rrr5" points="56.9,316.1 106,316.1 153.8,311.1 201.7,270.8 250.8,244.4 298.6,250.7 347.7,255.7 395.6,306.1 
	443.4,331.2 492.5,331.2 540.4,331.2 588.2,331.2 637.3,331.2 685.2,331.2 734.3,336.3 685.2,331.2 637.3,331.2 588.2,331.2 
	540.4,331.2 492.5,331.2 443.4,331.2 395.6,321.2 347.7,306.1 298.6,296 250.8,306.1 201.7,311.1 153.8,311.1 106,316.1 56.9,319.9 
	"/>
<polygon class="rrr6" points="56.9,294.7 106,301 153.8,280.9 201.7,183.9 250.8,183.9 298.6,178.9 347.7,194 395.6,260.7 
	443.4,311.1 492.5,311.1 540.4,311.1 588.2,296 637.3,301 685.2,306.1 734.3,296 734.3,336.3 685.2,331.2 637.3,331.2 588.2,331.2 
	540.4,331.2 492.5,331.2 443.4,331.2 395.6,306.1 347.7,255.7 298.6,250.7 250.8,244.4 201.7,270.8 153.8,311.1 106,316.1 
	56.9,316.1 "/>
<polygon class="rrr7" points="56.9,102.1 106,102.1 153.8,102.1 201.7,102.1 250.8,102.1 298.6,102.1 347.7,102.1 395.6,102.1 
	443.4,102.1 492.5,102.1 540.4,102.1 588.2,102.1 637.3,102.1 685.2,102.1 734.3,102.1 734.3,296 685.2,306.1 637.3,301 588.2,296 
	540.4,311.1 492.5,311.1 443.4,311.1 395.6,260.7 347.7,194 298.6,178.9 250.8,183.9 201.7,183.9 153.8,280.9 106,301 56.9,294.7 
	"/>
<line class="rrr9" x1="57.5" y1="336.9" x2="733.6" y2="336.9"/>
<path class="rrr8" d="M733.6,336.9v5 M685.8,336.9v5 M636.7,336.9v5 M588.8,336.9v5 M541,336.9v5 M491.9,336.9v5 M444,336.9v5
	 M394.9,336.9v5 M347.1,336.9v5 M299.2,336.9v5 M250.1,336.9v5 M202.3,336.9v5 M154.4,336.9v5 M105.3,336.9v5 M57.5,336.9v5"/>
<text transform="matrix(1 0 0 1 25.33 341.31)" class="rrr0 rrr1 rrr2">0%</text>
<text transform="matrix(1 0 0 1 17.56 318.65)" class="rrr0 rrr1 rrr2">10%</text>
<text transform="matrix(1 0 0 1 17.56 294.73)" class="rrr0 rrr1 rrr2">20%</text>
<text transform="matrix(1 0 0 1 17.56 270.8)" class="rrr0 rrr1 rrr2">30%</text>
<text transform="matrix(1 0 0 1 17.56 248.14)" class="rrr0 rrr1 rrr2">40%</text>
<text transform="matrix(1 0 0 1 17.56 224.22)" class="rrr0 rrr1 rrr2">50%</text>
<text transform="matrix(1 0 0 1 17.56 200.3)" class="rrr0 rrr1 rrr2">60%</text>
<text transform="matrix(1 0 0 1 17.56 177.63)" class="rrr0 rrr1 rrr2">70%</text>
<text transform="matrix(1 0 0 1 17.56 153.71)" class="rrr0 rrr1 rrr2">80%</text>
<text transform="matrix(1 0 0 1 17.56 131.05)" class="rrr0 rrr1 rrr2">90%</text>
<text transform="matrix(1 0 0 1 9.78 107.13)" class="rrr0 rrr1 rrr2">100%</text>
<text transform="matrix(0.7071 -0.7071 0.7071 0.7071 22.8301 397.9901)" class="rrr0 rrr1 rrr2">2020-03</text>
<text transform="matrix(0.7071 -0.7071 0.7071 0.7071 71.1599 397.9901)" class="rrr0 rrr1 rrr2">2020-04</text>
<text transform="matrix(0.7071 -0.7071 0.7071 0.7071 119.49 397.9901)" class="rrr0 rrr1 rrr2">2020-05</text>
<text transform="matrix(0.7071 -0.7071 0.7071 0.7071 167.8201 397.9901)" class="rrr0 rrr1 rrr2">2020-06</text>
<text transform="matrix(0.7071 -0.7071 0.7071 0.7071 216.1499 397.9901)" class="rrr0 rrr1 rrr2">2020-07</text>
<text transform="matrix(0.7071 -0.7071 0.7071 0.7071 264.48 397.9901)" class="rrr0 rrr1 rrr2">2020-08</text>
<text transform="matrix(0.7071 -0.7071 0.7071 0.7071 312.8 397.9901)" class="rrr0 rrr1 rrr2">2020-09</text>
<text transform="matrix(0.7071 -0.7071 0.7071 0.7071 361.1299 397.9901)" class="rrr0 rrr1 rrr2">2020-10</text>
<text transform="matrix(0.7071 -0.7071 0.7071 0.7071 409.46 397.9901)" class="rrr0 rrr1 rrr2">2020-11</text>
<text transform="matrix(0.7071 -0.7071 0.7071 0.7071 457.79 397.9901)" class="rrr0 rrr1 rrr2">2020-12</text>
<text transform="matrix(0.7071 -0.7071 0.7071 0.7071 506.1201 397.9901)" class="rrr0 rrr1 rrr2">2021-01</text>
<text transform="matrix(0.7071 -0.7071 0.7071 0.7071 554.45 397.9901)" class="rrr0 rrr1 rrr2">2021-02</text>
<text transform="matrix(0.7071 -0.7071 0.7071 0.7071 602.78 397.9901)" class="rrr0 rrr1 rrr2">2021-03</text>
<text transform="matrix(0.7071 -0.7071 0.7071 0.7071 651.1099 397.9901)" class="rrr0 rrr1 rrr2">2021-04</text>
<text transform="matrix(0.7071 -0.7071 0.7071 0.7071 699.4399 397.9901)" class="rrr0 rrr1 rrr2">2021-05</text>
</svg>
