<?xml version="1.0" encoding="utf-8"?>
<!-- Generator: Adobe Illustrator 22.0.1, SVG Export Plug-In . SVG Version: 6.00 Build 0)  -->
<svg version="1.1" id="_06_MEASURES_AGAINST_COVID-19"
	 xmlns="http://www.w3.org/2000/svg" xmlns:xlink="http://www.w3.org/1999/xlink" x="0px" y="0px" viewBox="0 0 760.1 455.2"
	 style="enable-background:new 0 0 760.1 455.2;" xml:space="preserve">
<style type="text/css">
	.qqq-01{fill:#606060;font-size:14.31px;}
	.qqq-02{font-family:'ArialMT';}
	.qqq-03{font-size:14.31px;}
	.qqq-04{fill:#90BBE7;}
	.qqq-05{fill:#7899C3;}
	.qqq-06{fill:#4C5874;}
	.qqq-07{fill:#313E59;}
	.qqq-08{fill:#FFFFFF;stroke:#A6A8AB;stroke-width:1.42;stroke-miterlimit:10;}
	.qqq-09{fill:none;stroke:#A6A8AB;stroke-width:1.42;stroke-miterlimit:10;}
	.qqq-10{font-size:14.3686px;}
</style>
<text transform="matrix(1 0 0 1 327.86 32.38)" class="qqq-01">0</text>
<text transform="matrix(1 0 0 1 364.56 32.38)" class="qqq-01">1</text>
<rect x="314.5" y="22.3" class="qqq-04" width="9.8" height="9.8"/>
<rect x="351" y="22.3" class="qqq-05" width="9.8" height="9.8"/>
<text transform="matrix(1 0 0 1 400.81 32.38)" class="qqq-01">2</text>
<rect x="387.3" y="22.3" class="qqq-06" width="9.8" height="9.8"/>
<text transform="matrix(1 0 0 1 437.06 32.38)" class="qqq-01">3</text>
<rect x="423.5" y="22.3" class="qqq-07" width="9.8" height="9.8"/>
<rect x="0.7" y="58.9" class="qqq-08" width="758.7" height="395.7"/>
<polygon class="qqq-04" points="53.4,349.9 101.9,354.8 150.4,349.9 198.9,343.9 246.1,343.9 294.6,343.9 343.1,343.9 391.6,343.9 
	440.1,349.9 487.3,349.9 535.8,349.9 584.3,349.9 632.8,343.9 680,339 728.5,339 728.5,354.8 680,354.8 632.8,354.8 584.3,354.8 
	535.8,354.8 487.3,354.8 440.1,354.8 391.6,354.8 343.1,354.8 294.6,354.8 246.1,354.8 198.9,354.8 150.4,354.8 101.9,354.8 
	53.4,354.8 "/>
<polygon class="qqq-05" points="53.4,349.9 101.9,354.8 150.4,349.9 198.9,302.8 246.1,260.5 294.6,260.5 343.1,233.9 391.6,238.7 
	440.1,260.5 487.3,291.9 535.8,307.6 584.3,281 632.8,302.8 680,302.8 728.5,238.7 728.5,339 680,339 632.8,343.9 584.3,349.9 
	535.8,349.9 487.3,349.9 440.1,349.9 391.6,343.9 343.1,343.9 294.6,343.9 246.1,343.9 198.9,343.9 150.4,349.9 101.9,354.8 "/>
<polygon class="qqq-06" points="53.4,319.7 101.9,323.3 150.4,307.6 198.9,213.3 246.1,181.9 294.6,171 343.1,166.1 391.6,160.1 
	440.1,175.8 487.3,213.3 535.8,223 584.3,181.9 632.8,207.2 680,207.2 728.5,139.5 728.5,238.7 680,302.8 632.8,302.8 584.3,281 
	535.8,307.6 487.3,291.9 440.1,260.5 391.6,238.7 343.1,233.9 294.6,260.5 246.1,260.5 198.9,302.8 150.4,349.9 101.9,354.8 
	53.4,349.9 "/>
<polygon class="qqq-07" points="53.4,103.2 101.9,103.2 680,103.3 728.5,103.3 728.5,139.5 680,207.2 632.8,207.2 584.3,181.9 
	535.8,223 487.3,213.3 440.1,175.8 391.6,160.1 343.1,166.1 294.6,171 246.1,181.9 198.9,213.3 150.4,307.6 101.9,323.3 53.4,319.7 
	"/>
<line class="qqq-09" x1="54" y1="355.4" x2="729.1" y2="355.4"/>
<path class="qqq-09" d="M729.1,355.4v4.8 M680.6,355.4v4.8 M632.2,355.4v4.8 M583.7,355.4v4.8 M536.4,355.4v4.8 M487.9,355.4v4.8
	 M439.5,355.4v4.8 M391,355.4v4.8 M342.5,355.4v4.8 M295.2,355.4v4.8 M246.8,355.4v4.8 M198.3,355.4v4.8 M149.8,355.4v4.8
	 M102.5,355.4v4.8 M54,355.4v4.8"/>
<text transform="matrix(1 0 0 1 23.05 359.61)" class="qqq-01">0%</text>
<text transform="matrix(1 0 0 1 15.57 335.42)" class="qqq-01">10%</text>
<text transform="matrix(1 0 0 1 15.57 311.24)" class="qqq-01">20%</text>
<text transform="matrix(1 0 0 1 15.57 287.06)" class="qqq-01">30%</text>
<text transform="matrix(1 0 0 1 15.57 262.87)" class="qqq-01">40%</text>
<text transform="matrix(1 0 0 1 15.57 238.69)" class="qqq-01">50%</text>
<text transform="matrix(1 0 0 1 15.57 214.5)" class="qqq-01">60%</text>
<text transform="matrix(1 0 0 1 15.57 190.32)" class="qqq-01">70%</text>
<text transform="matrix(1 0 0 1 15.57 166.14)" class="qqq-01">80%</text>
<text transform="matrix(1 0 0 1 15.57 141.95)" class="qqq-01">90%</text>
<text transform="matrix(1 0 0 1 8.09 117.77)" class="qqq-01">100%</text>
<text transform="matrix(0.7071 -0.7071 0.7071 0.7071 20.6597 414.0402)" class="qqq-01  qqq-10">2020-03</text>
<text transform="matrix(0.7071 -0.7071 0.7071 0.7071 68.8797 414.0402)" class="qqq-01  qqq-10">2020-04</text>
<text transform="matrix(0.7071 -0.7071 0.7071 0.7071 117.0997 414.0402)" class="qqq-01  qqq-10">2020-05</text>
<text transform="matrix(0.7071 -0.7071 0.7071 0.7071 165.3197 414.0402)" class="qqq-01  qqq-10">2020-06</text>
<text transform="matrix(0.7071 -0.7071 0.7071 0.7071 213.5396 414.0402)" class="qqq-01  qqq-10">2020-07</text>
<text transform="matrix(0.7071 -0.7071 0.7071 0.7071 261.76 414.0398)" class="qqq-01  qqq-10">2020-08</text>
<text transform="matrix(0.7071 -0.7071 0.7071 0.7071 309.9799 414.0398)" class="qqq-01  qqq-10">2020-09</text>
<text transform="matrix(0.7071 -0.7071 0.7071 0.7071 358.2096 414.0398)" class="qqq-01  qqq-10">2020-10</text>
<text transform="matrix(0.7071 -0.7071 0.7071 0.7071 406.4303 414.0405)" class="qqq-01  qqq-10">2020-11</text>
<text transform="matrix(0.7071 -0.7071 0.7071 0.7071 454.6496 414.0398)" class="qqq-01  qqq-10">2020-12</text>
<text transform="matrix(0.7071 -0.7071 0.7071 0.7071 502.8706 414.0402)" class="qqq-01  qqq-10">2021-01</text>
<text transform="matrix(0.7071 -0.7071 0.7071 0.7071 551.0899 414.0395)" class="qqq-01  qqq-10">2021-02</text>
<text transform="matrix(0.7071 -0.7071 0.7071 0.7071 599.3106 414.0402)" class="qqq-01  qqq-10">2021-03</text>
<text transform="matrix(0.7071 -0.7071 0.7071 0.7071 647.5298 414.0395)" class="qqq-01  qqq-10">2021-04</text>
<text transform="matrix(0.7071 -0.7071 0.7071 0.7071 695.7505 414.0402)" class="qqq-01  qqq-10">2021-05</text>
</svg>
