<?xml version="1.0" encoding="utf-8"?>
<!-- Generator: Adobe Illustrator 22.0.1, SVG Export Plug-In . SVG Version: 6.00 Build 0)  -->
<svg version="1.1" id="_06_MEASURES_AGAINST_COVID-19"
	 xmlns="http://www.w3.org/2000/svg" xmlns:xlink="http://www.w3.org/1999/xlink" x="0px" y="0px" viewBox="0 0 756.3 415.9"
	 style="enable-background:new 0 0 756.3 415.9;" xml:space="preserve">
<style type="text/css">
	.yyy0{fill:#FFFFFF;stroke:#A6A8AB;stroke-width:1.42;stroke-miterlimit:10;}
	.yyy1{fill:#90BBE7;}
	.yyy2{fill:#7899C3;}
	.yyy3{fill:#4C5874;}
	.yyy4{fill:#313E59;}
	.yyy5{fill:#222B3E;}
	.yyy6{fill:none;stroke:#A6A8AB;stroke-width:1.42;stroke-miterlimit:10;}
	.yyy7{fill:#606060;}
	.yyy8{font-family:'ArialMT';}
	.yyy9{font-size:14.31px;}
</style>
<rect x="0.7" y="57.9" class="yyy0" width="754.9" height="357.3"/>
<polygon class="yyy1" points="53.6,302.4 102.2,311.7 150.8,311.7 198.2,307.1 246.8,311.7 294.3,320.9 342.9,320.9 391.5,320.9 
	438.9,320.9 487.5,320.9 535,320.9 583.6,320.9 632.2,320.9 679.6,320.9 728.2,320.9 679.6,320.9 632.2,320.9 583.6,320.9 
	535,320.9 487.5,320.9 438.9,320.9 391.5,320.9 342.9,320.9 294.3,320.9 246.8,320.9 198.2,320.9 150.8,320.9 102.2,320.9 
	53.6,320.9 "/>
<polygon class="yyy2" points="53.6,302.4 102.2,311.7 150.8,311.7 198.2,307.1 246.8,307.1 294.3,307.1 342.9,301.3 391.5,292 
	438.9,292 487.5,307.1 535,311.7 583.6,311.7 632.2,311.7 679.6,292 728.2,287.4 728.2,320.9 679.6,320.9 632.2,320.9 583.6,320.9 
	535,320.9 487.5,320.9 438.9,320.9 391.5,320.9 342.9,320.9 294.3,320.9 246.8,311.7 198.2,307.1 150.8,311.7 102.2,311.7 "/>
<polygon class="yyy3" points="53.6,299 102.2,301.3 150.8,292 198.2,267.7 246.8,248 294.3,238.8 342.9,238.8 391.5,243.4 438.9,233 
	487.5,263.1 535,272.3 583.6,272.3 632.2,263.1 679.6,252.7 728.2,258.5 728.2,287.4 679.6,292 632.2,311.7 583.6,311.7 535,311.7 
	487.5,307.1 438.9,292 391.5,292 342.9,301.3 294.3,307.1 246.8,307.1 198.2,307.1 150.8,311.7 102.2,311.7 53.6,302.4 "/>
<polygon class="yyy4" points="53.6,218 102.2,223.7 150.8,228.4 198.2,155.5 246.8,116.1 294.3,106.9 342.9,111.5 391.5,111.5 
	438.9,111.5 487.5,111.5 535,120.8 583.6,120.8 632.2,120.8 679.6,126.5 728.2,116.1 728.2,258.5 679.6,252.7 632.2,263.1 
	583.6,272.3 535,272.3 487.5,263.1 438.9,233 391.5,243.4 342.9,238.8 294.3,238.8 246.8,248 198.2,267.7 150.8,292 102.2,301.3 
	53.6,299 "/>
<polygon class="yyy5" points="53.6,96.5 102.2,96.5 150.8,96.5 198.2,96.5 246.8,96.5 294.3,96.5 342.9,96.5 391.5,96.5 438.9,96.5 
	487.5,96.5 535,96.5 583.6,96.5 632.2,96.5 679.6,96.5 728.2,96.5 728.2,116.1 679.6,126.5 632.2,120.8 583.6,120.8 535,120.8 
	487.5,111.5 438.9,111.5 391.5,111.5 342.9,111.5 294.3,106.9 246.8,116.1 198.2,155.5 150.8,228.4 102.2,223.7 53.6,218 "/>
<line class="yyy6" x1="54.2" y1="321.5" x2="727.6" y2="321.5"/>
<path class="yyy6" d="M727.6,321.5v4.6 M680.2,321.5v4.6 M631.6,321.5v4.6 M584.1,321.5v4.6 M535.5,321.5v4.6 M486.9,321.5v4.6
	 M439.5,321.5v4.6 M390.9,321.5v4.6 M343.5,321.5v4.6 M294.9,321.5v4.6 M246.3,321.5v4.6 M198.8,321.5v4.6 M150.2,321.5v4.6
	 M102.8,321.5v4.6 M54.2,321.5v4.6"/>
<text transform="matrix(1 0 0 1 24.76 325.57)" class="yyy7 yyy8 yyy9">0%</text>
<text transform="matrix(1 0 0 1 17.62 303.58)" class="yyy7 yyy8 yyy9">10%</text>
<text transform="matrix(1 0 0 1 17.62 280.44)" class="yyy7 yyy8 yyy9">20%</text>
<text transform="matrix(1 0 0 1 17.62 258.46)" class="yyy7 yyy8 yyy9">30%</text>
<text transform="matrix(1 0 0 1 17.62 236.47)" class="yyy7 yyy8 yyy9">40%</text>
<text transform="matrix(1 0 0 1 17.62 213.33)" class="yyy7 yyy8 yyy9">50%</text>
<text transform="matrix(1 0 0 1 17.62 191.34)" class="yyy7 yyy8 yyy9">60%</text>
<text transform="matrix(1 0 0 1 17.62 168.2)" class="yyy7 yyy8 yyy9">70%</text>
<text transform="matrix(1 0 0 1 17.62 146.22)" class="yyy7 yyy8 yyy9">80%</text>
<text transform="matrix(1 0 0 1 17.62 124.23)" class="yyy7 yyy8 yyy9">90%</text>
<text transform="matrix(1 0 0 1 10.47 101.09)" class="yyy7 yyy8 yyy9">100%</text>
<text transform="matrix(0.7071 -0.7071 0.7071 0.7071 22.47 377.6703)" class="yyy7 yyy8 yyy9">2020-03</text>
<text transform="matrix(0.7071 -0.7071 0.7071 0.7071 70.6101 377.6703)" class="yyy7 yyy8 yyy9">2020-04</text>
<text transform="matrix(0.7071 -0.7071 0.7071 0.7071 118.76 377.6703)" class="yyy7 yyy8 yyy9">2020-05</text>
<text transform="matrix(0.7071 -0.7071 0.7071 0.7071 166.9099 377.6703)" class="yyy7 yyy8 yyy9">2020-06</text>
<text transform="matrix(0.7071 -0.7071 0.7071 0.7071 215.05 377.6703)" class="yyy7 yyy8 yyy9">2020-07</text>
<text transform="matrix(0.7071 -0.7071 0.7071 0.7071 263.2 377.6703)" class="yyy7 yyy8 yyy9">2020-08</text>
<text transform="matrix(0.7071 -0.7071 0.7071 0.7071 311.3401 377.6703)" class="yyy7 yyy8 yyy9">2020-09</text>
<text transform="matrix(0.7071 -0.7071 0.7071 0.7071 359.49 377.6703)" class="yyy7 yyy8 yyy9">2020-10</text>
<text transform="matrix(0.7071 -0.7071 0.7071 0.7071 407.6401 377.6703)" class="yyy7 yyy8 yyy9">2020-11</text>
<text transform="matrix(0.7071 -0.7071 0.7071 0.7071 455.78 377.6703)" class="yyy7 yyy8 yyy9">2020-12</text>
<text transform="matrix(0.7071 -0.7071 0.7071 0.7071 503.9299 377.6703)" class="yyy7 yyy8 yyy9">2021-01</text>
<text transform="matrix(0.7071 -0.7071 0.7071 0.7071 552.0801 377.6703)" class="yyy7 yyy8 yyy9">2021-02</text>
<text transform="matrix(0.7071 -0.7071 0.7071 0.7071 600.22 377.6703)" class="yyy7 yyy8 yyy9">2021-03</text>
<text transform="matrix(0.7071 -0.7071 0.7071 0.7071 648.3701 377.6703)" class="yyy7 yyy8 yyy9">2021-04</text>
<text transform="matrix(0.7071 -0.7071 0.7071 0.7071 696.52 377.6703)" class="yyy7 yyy8 yyy9">2021-05</text>
<text transform="matrix(1 0 0 1 307.84 31.38)" class="yyy7 yyy8 yyy9">0</text>
<text transform="matrix(1 0 0 1 344.54 31.38)" class="yyy7 yyy8 yyy9">1</text>
<rect x="294.5" y="21.3" class="yyy1" width="9.8" height="9.8"/>
<rect x="331" y="21.3" class="yyy2" width="9.8" height="9.8"/>
<text transform="matrix(1 0 0 1 380.79 31.38)" class="yyy7 yyy8 yyy9">2</text>
<rect x="367.2" y="21.3" class="yyy3" width="9.8" height="9.8"/>
<text transform="matrix(1 0 0 1 417.04 31.38)" class="yyy7 yyy8 yyy9">3</text>
<rect x="403.5" y="21.3" class="yyy4" width="9.8" height="9.8"/>
<text transform="matrix(1 0 0 1 453.29 31.38)" class="yyy7 yyy8 yyy9">4</text>
<rect x="439.7" y="21.3" class="yyy5" width="9.8" height="9.8"/>
</svg>
