<?xml version="1.0" encoding="utf-8"?>
<!-- Generator: Adobe Illustrator 22.0.1, SVG Export Plug-In . SVG Version: 6.00 Build 0)  -->
<svg version="1.1" id="_06_MEASURES_AGAINST_COVID-19"
	 xmlns="http://www.w3.org/2000/svg" xmlns:xlink="http://www.w3.org/1999/xlink" x="0px" y="0px" viewBox="0 0 760.1 461.2"
	 style="enable-background:new 0 0 760.1 461.2;" xml:space="preserve">
<style type="text/css">
	.www0{fill:#606060;}
	.www1{font-family:'ArialMT';}
	.www2{font-size:14.31px;}
	.www3{fill:#90BBE7;}
	.www4{fill:#7899C3;}
	.www5{fill:#4C5874;}
	.www6{fill:#313E59;}
	.www7{fill:#FFFFFF;stroke:#A6A8AB;stroke-width:1.42;stroke-miterlimit:10;}
	.www8{fill:none;stroke:#A6A8AB;stroke-width:1.42;stroke-miterlimit:10;}
</style>
<text transform="matrix(1 0 0 1 327.86 38.38)" class="www0 www1 www2">0</text>
<text transform="matrix(1 0 0 1 364.56 38.38)" class="www0 www1 www2">1</text>
<rect x="314.5" y="28.3" class="www3" width="9.8" height="9.8"/>
<rect x="351" y="28.3" class="www4" width="9.8" height="9.8"/>
<text transform="matrix(1 0 0 1 400.81 38.38)" class="www0 www1 www2">2</text>
<rect x="387.3" y="28.3" class="www5" width="9.8" height="9.8"/>
<text transform="matrix(1 0 0 1 437.06 38.38)" class="www0 www1 www2">3</text>
<rect x="423.5" y="28.3" class="www6" width="9.8" height="9.8"/>
<rect x="0.7" y="64.9" class="www7" width="758.7" height="395.7"/>
<polygon class="www3" points="60.3,362 108.3,360.8 155.1,360.8 203.1,344.3 251.1,333 299.2,339.3 345.9,355.7 394,355.7 442,360.8 
	490,360.8 536.8,360.8 584.8,360.8 632.9,360.8 680.9,360.8 727.7,360.8 727.7,367.1 680.9,367.1 632.9,367.1 584.8,367.1 
	536.8,367.1 490,367.1 442,367.1 394,367.1 345.9,367.1 299.2,367.1 251.1,367.1 203.1,367.1 155.1,367.1 108.3,367.1 60.3,367.1 
	"/>
<polygon class="www4" points="60.3,344.3 108.3,349.4 155.1,349.4 203.1,300.1 251.1,243.2 299.2,254.6 345.9,259.6 394,305.1 
	442,339.3 490,360.8 536.8,355.7 584.8,344.3 632.9,339.3 680.9,339.3 727.7,316.5 727.7,360.8 680.9,360.8 632.9,360.8 
	584.8,360.8 536.8,360.8 490,360.8 442,360.8 394,355.7 345.9,355.7 299.2,339.3 251.1,333 203.1,344.3 155.1,360.8 108.3,360.8 
	60.3,362 "/>
<polygon class="www5" points="60.3,240.7 108.3,243.2 155.1,181.3 203.1,109.2 251.1,109.2 299.2,114.3 345.9,114.3 394,125.6 
	442,159.8 490,164.8 536.8,181.3 584.8,176.2 632.9,199 680.9,199 727.7,169.9 727.7,316.5 680.9,339.3 632.9,339.3 584.8,344.3 
	536.8,355.7 490,360.8 442,339.3 394,305.1 345.9,259.6 299.2,254.6 251.1,243.2 203.1,300.1 155.1,349.4 108.3,349.4 60.3,344.3 
	"/>
<polygon class="www6" points="60.3,109.2 108.3,109.2 155.1,109.2 203.1,109.2 251.1,109.2 299.2,109.2 345.9,109.2 394,109.2 
	442,109.2 490,109.2 536.8,109.2 584.8,109.2 632.9,109.2 680.9,109.2 727.7,109.2 727.7,169.9 680.9,199 632.9,199 584.8,176.2 
	536.8,181.3 490,164.8 442,159.8 394,125.6 345.9,114.3 299.2,114.3 251.1,109.2 203.1,109.2 155.1,181.3 108.3,243.2 60.3,240.7 
	"/>
<line class="www8" x1="59.6" y1="366.5" x2="728.3" y2="366.5"/>
<path class="www8" d="M728.3,366.5v5 M680.3,366.4v5.1 M632.3,366.4v5.1 M585.5,366.5v5 M537.5,366.4v5.1 M489.5,366.4v5.1
	 M441.5,366.4v5.1 M394.6,366.5v5 M346.6,366.4v5.1 M298.6,366.4v5.1 M250.6,366.4v5.1 M203.8,366.5v5 M155.8,366.4v5.1
	 M107.8,366.4v5.1 M59.8,366.4v5.1"/>
<text transform="matrix(1 0 0 1 28.04 372.14)" class="www0 www1 www2">0%</text>
<text transform="matrix(1 0 0 1 20.24 345.6)" class="www0 www1 www2">10%</text>
<text transform="matrix(1 0 0 1 20.24 320.31)" class="www0 www1 www2">20%</text>
<text transform="matrix(1 0 0 1 20.24 293.77)" class="www0 www1 www2">30%</text>
<text transform="matrix(1 0 0 1 20.24 268.49)" class="www0 www1 www2">40%</text>
<text transform="matrix(1 0 0 1 20.24 243.21)" class="www0 www1 www2">50%</text>
<text transform="matrix(1 0 0 1 20.24 216.66)" class="www0 www1 www2">60%</text>
<text transform="matrix(1 0 0 1 20.24 191.38)" class="www0 www1 www2">70%</text>
<text transform="matrix(1 0 0 1 20.24 164.83)" class="www0 www1 www2">80%</text>
<text transform="matrix(1 0 0 1 20.24 139.55)" class="www0 www1 www2">90%</text>
<text transform="matrix(1 0 0 1 12.43 113.01)" class="www0 www1 www2">100%</text>
<text transform="matrix(0.7071 -0.7071 0.7071 0.7071 25.53 427.7801)" class="www0 www1 www2">2020-03</text>
<text transform="matrix(0.7071 -0.7071 0.7071 0.7071 73.24 427.7801)" class="www0 www1 www2">2020-04</text>
<text transform="matrix(0.7071 -0.7071 0.7071 0.7071 120.95 427.7801)" class="www0 www1 www2">2020-05</text>
<text transform="matrix(0.7071 -0.7071 0.7071 0.7071 168.6699 427.7801)" class="www0 www1 www2">2020-06</text>
<text transform="matrix(0.7071 -0.7071 0.7071 0.7071 216.3799 427.7801)" class="www0 www1 www2">2020-07</text>
<text transform="matrix(0.7071 -0.7071 0.7071 0.7071 264.0901 427.7801)" class="www0 www1 www2">2020-08</text>
<text transform="matrix(0.7071 -0.7071 0.7071 0.7071 311.8 427.7801)" class="www0 www1 www2">2020-09</text>
<text transform="matrix(0.7071 -0.7071 0.7071 0.7071 359.51 427.7801)" class="www0 www1 www2">2020-10</text>
<text transform="matrix(0.7071 -0.7071 0.7071 0.7071 407.23 427.7801)" class="www0 www1 www2">2020-11</text>
<text transform="matrix(0.7071 -0.7071 0.7071 0.7071 454.9399 427.7801)" class="www0 www1 www2">2020-12</text>
<text transform="matrix(0.7071 -0.7071 0.7071 0.7071 502.6499 427.7801)" class="www0 www1 www2">2021-01</text>
<text transform="matrix(0.7071 -0.7071 0.7071 0.7071 550.3599 427.7801)" class="www0 www1 www2">2021-02</text>
<text transform="matrix(0.7071 -0.7071 0.7071 0.7071 598.0701 427.7801)" class="www0 www1 www2">2021-03</text>
<text transform="matrix(0.7071 -0.7071 0.7071 0.7071 645.79 427.7801)" class="www0 www1 www2">2021-04</text>
<text transform="matrix(0.7071 -0.7071 0.7071 0.7071 693.5 427.7801)" class="www0 www1 www2">2021-05</text>
</svg>
