<svg xmlns="http://www.w3.org/2000/svg" width="845.579" height="447.562" viewBox="0 0 845.579 447.562"><defs><style>.a,.c{fill:#606060;font-size:14.314px;}.a{font-family:IBMPlexSans, IBM Plex Sans;}.b{fill:none;stroke:#fff;stroke-linejoin:round;stroke-width:1.038px;opacity:0.502;}.c{font-family:IBMPlexSans-Bold, IBM Plex Sans;font-weight:700;}.d{fill:#222b3e;}.e{fill:#91bce8;}</style></defs><g transform="translate(-537.623 -2156.325)"><text class="a" transform="translate(727.748 2599.887)"><tspan x="0" y="0">International flights suspension</tspan></text><text class="a" transform="translate(787.65 2574.738)"><tspan x="0" y="0">Awareness campaigns</tspan></text><text class="a" transform="translate(830.161 2549.555)"><tspan x="0" y="0">Schools closure</tspan></text><text class="a" transform="translate(679.784 2524.406)"><tspan x="0" y="0">Strengthening the public health system</tspan></text><text class="a" transform="translate(785.69 2499.256)"><tspan x="0" y="0">Limit public gatherings</tspan></text><text class="a" transform="translate(801.863 2474.107)"><tspan x="0" y="0">Economic measures</tspan></text><text class="a" transform="translate(623.318 2448.957)"><tspan x="0" y="0">Introduction of isolation and quarantine policies</tspan></text><text class="a" transform="translate(609.505 2423.806)"><tspan x="0" y="0">Health screenings in airports and border crossings</tspan></text><text class="a" transform="translate(836.674 2398.656)"><tspan x="0" y="0">Border closure</tspan></text><text class="a" transform="translate(603.651 2373.507)"><tspan x="0" y="0">Lockdown of refugee/idp camps or other minorities</tspan></text><text class="a" transform="translate(828.257 2348.358)"><tspan x="0" y="0">Visa restrictions</tspan></text><text class="a" transform="translate(784.817 2323.208)"><tspan x="0" y="0">Public services closure</tspan></text><text class="a" transform="translate(537.623 2298.027)"><tspan x="0" y="0">Emergency administrative structures activated or established</tspan></text><text class="a" transform="translate(824.222 2272.876)"><tspan x="0" y="0">Partial lockdown</tspan></text><text class="a" transform="translate(878.67 2247.727)"><tspan x="0" y="0">Curfews</tspan></text><text class="a" transform="translate(751.996 2222.576)"><tspan x="0" y="0">Surveillance and monitoring</tspan></text><text class="a" transform="translate(754.329 2197.427)"><tspan x="0" y="0">Domestic travel restrictions</tspan></text><text class="a" transform="translate(638.118 2172.278)"><tspan x="0" y="0">Requirement to wear protective gear in public</tspan></text><rect class="b" width="20.928" height="19.358" transform="translate(1070.247 2358.596)"/><rect class="b" width="20.928" height="19.358" transform="translate(1076.296 2308.296)"/><text class="c" transform="translate(1026.029 2598.935)"><tspan x="0" y="0">11</tspan></text><text class="c" transform="translate(1026.029 2573.783)"><tspan x="0" y="0">11</tspan></text><text class="c" transform="translate(1038.143 2548.634)"><tspan x="0" y="0">13</tspan></text><text class="c" transform="translate(1050.257 2523.485)"><tspan x="0" y="0">15</tspan></text><text class="c" transform="translate(1050.257 2498.335)"><tspan x="0" y="0">15</tspan></text><text class="c" transform="translate(1050.257 2473.186)"><tspan x="0" y="0">15</tspan></text><text class="c" transform="translate(1062.371 2448.004)"><tspan x="0" y="0">17</tspan></text><text class="c" transform="translate(1062.371 2422.854)"><tspan x="0" y="0">17</tspan></text><text class="c" transform="translate(1062.371 2397.704)"><tspan x="0" y="0">17</tspan></text><text class="c" transform="translate(1074.502 2372.555)"><tspan x="0" y="0">19</tspan></text><text class="c" transform="translate(1080.52 2347.406)"><tspan x="0" y="0">20</tspan></text><text class="c" transform="translate(1080.52 2322.255)"><tspan x="0" y="0">20</tspan></text><text class="c" transform="translate(1080.52 2297.105)"><tspan x="0" y="0">20</tspan></text><text class="c" transform="translate(1110.815 2271.955)"><tspan x="0" y="0">25</tspan></text><text class="c" transform="translate(1110.815 2246.806)"><tspan x="0" y="0">25</tspan></text><text class="c" transform="translate(1153.223 2221.656)"><tspan x="0" y="0">32</tspan></text><text class="c" transform="translate(1231.941 2196.506)"><tspan x="0" y="0">45</tspan></text><text class="c" transform="translate(1365.201 2171.325)"><tspan x="0" y="0">67</tspan></text><rect class="d" width="406.5" height="14" transform="translate(950 2160.633)"/><rect class="d" width="272.5" height="14" transform="translate(950 2184.165)"/><rect class="d" width="151.75" height="14" transform="translate(950 2235.526)"/><rect class="d" width="151.75" height="14" transform="translate(950 2260.676)"/><rect class="d" width="121.75" height="14" transform="translate(950 2310.975)"/><rect class="d" width="103" height="14" transform="translate(950 2386.424)"/><rect class="d" width="103" height="14" transform="translate(950 2411.574)"/><rect class="d" width="103" height="14" transform="translate(950 2436.724)"/><rect class="d" width="91" height="14" transform="translate(950 2461.874)"/><rect class="d" width="91" height="14" transform="translate(950 2487.023)"/><rect class="d" width="91" height="14" transform="translate(950 2512.173)"/><rect class="d" width="79.25" height="14" transform="translate(950 2537.323)"/><rect class="d" width="67.25" height="14" transform="translate(950 2562.472)"/><rect class="e" width="67.25" height="14" transform="translate(950 2587.622)"/><rect class="e" width="194.25" height="14" transform="translate(950 2210.376)"/><rect class="e" width="121.75" height="14" transform="translate(950 2285.825)"/><rect class="e" width="121.75" height="14" transform="translate(950 2336.125)"/><rect class="e" width="115.25" height="14" transform="translate(950 2361.274)"/></g></svg>