<svg xmlns="http://www.w3.org/2000/svg" width="1048.356" height="376.018" viewBox="0 0 1048.356 376.018"><defs><style>.a{fill:#f6f6f6;stroke-width:1.304px;}.a,.e{stroke:#a7a9ac;stroke-miterlimit:10;}.b{fill:#606060;font-size:14.314px;font-family:IBMPlexSans, IBM Plex Sans;}.c{fill:#789ac4;fill-rule:evenodd;}.d{fill:#222b3e;}.e{fill:none;stroke-width:1.417px;}</style></defs><g transform="translate(-435.822 -1954.506)"><rect class="a" width="1047.052" height="374.714" transform="translate(436.474 1955.159)"/><text class="b" transform="translate(646.264 2272.03) rotate(-90)"><tspan x="0" y="0">Luxembourg</tspan></text><text class="b" transform="translate(1144.639 2237.692) rotate(-90)"><tspan x="0" y="0">Austria</tspan></text><text class="b" transform="translate(612.311 2244.806) rotate(-90)"><tspan x="0" y="0">Belgium</tspan></text><text class="b" transform="translate(1211.508 2250.918) rotate(-90)"><tspan x="0" y="0">Lithuania</tspan></text><text class="b" transform="translate(1077.768 2239.639) rotate(-90)"><tspan x="0" y="0">Estonia</tspan></text><text class="b" transform="translate(1011.763 2245.837) rotate(-90)"><tspan x="0" y="0">Hungary</tspan></text><text class="b" transform="translate(1243.575 2221.389) rotate(-90)"><tspan x="0" y="0">Italy</tspan></text><text class="b" transform="translate(812.812 2236.032) rotate(-90)"><tspan x="0" y="0">France</tspan></text><text class="b" transform="translate(845.484 2250.374) rotate(-90)"><tspan x="0" y="0">Germany</tspan></text><text class="b" transform="translate(1177.672 2241.786) rotate(-90)"><tspan x="0" y="0">Czechia</tspan></text><text class="b" transform="translate(1112.038 2227.802) rotate(-90)"><tspan x="0" y="0">Spain</tspan></text><text class="b" transform="translate(1278.163 2230.063) rotate(-90)"><tspan x="0" y="0">Latvia</tspan></text><text class="b" transform="translate(779.757 2245.536) rotate(-90)"><tspan x="0" y="0">Slovakia</tspan></text><text class="b" transform="translate(911.795 2241.113) rotate(-90)"><tspan x="0" y="0">Norway</tspan></text><text class="b" transform="translate(1310.356 2236.561) rotate(-90)"><tspan x="0" y="0">Poland</tspan></text><text class="b" transform="translate(979.461 2250.474) rotate(-90)"><tspan x="0" y="0">Denmark</tspan></text><text class="b" transform="translate(1044.932 2295.032) rotate(-90)"><tspan x="0" y="0">United Kingdom</tspan></text><text class="b" transform="translate(946.292 2238.665) rotate(-90)"><tspan x="0" y="0">Ireland</tspan></text><text class="b" transform="translate(713.366 2271.071) rotate(-90)"><tspan x="0" y="0">Netherlands</tspan></text><text class="b" transform="translate(878.897 2246.352) rotate(-90)"><tspan x="0" y="0">Slovenia</tspan></text><text class="b" transform="translate(747.245 2239.567) rotate(-90)"><tspan x="0" y="0">Finland</tspan></text><text class="b" transform="translate(1342.677 2237.921) rotate(-90)"><tspan x="0" y="0">Greece</tspan></text><text class="b" transform="translate(679.629 2243.417) rotate(-90)"><tspan x="0" y="0">Sweden</tspan></text><path class="c" d="M1334.75,2175.063h10.26v7.02h-10.26v-7.02Z"/><path class="d" d="M605.39,2016.123h10.44v165.96H605.39v-165.96Zm33.12,2.34h10.44v163.62H638.51v-163.62Zm33.12,9.18h10.44v154.44H671.63v-154.44Zm33.3,2.34h10.26v152.1H704.93v-152.1ZM738.05,2046h10.44v136.08H738.05V2046Zm33.12,7.02h10.44v129.06H771.17v-129.06Zm33.12,6.84h10.44v122.22H804.29v-122.22Zm33.12,2.34h10.44v119.88H837.41V2062.2Zm33.12,2.34h10.44v117.54H870.53v-117.54Zm33.3,2.34h10.26v115.2H903.83v-115.2Zm33.12,2.16h10.26v113.04H936.95v-113.04Zm33.12,2.34h10.44v110.7H970.07v-110.7Zm33.12,2.34h10.44v108.36h-10.44v-108.36Zm33.12,2.34h10.44v106.02h-10.44v-106.02Zm33.12,6.84h10.44v99.18h-10.44V2082.9Zm33.12,0h10.44v99.18h-10.44V2082.9Zm33.3,4.68h10.26v94.5h-10.26v-94.5Zm33.12,2.34h10.44v92.16h-10.44v-92.16Zm33.12,11.52h10.44v80.64h-10.44v-80.64Zm33.12,39.06h10.44v41.58h-10.44V2140.5Zm33.12,9.18h10.44v32.4h-10.44v-32.4Zm33.12,4.68h10.44v27.72h-10.44v-27.72Z"/><line class="e" x2="762.48" transform="translate(594.05 2182.083)"/><text class="b" transform="translate(602.494 2005.08)"><tspan x="0" y="0">72</tspan></text><text class="b" transform="translate(635.646 2007.376)"><tspan x="0" y="0">71</tspan></text><text class="b" transform="translate(668.787 2016.611)"><tspan x="0" y="0">67</tspan></text><text class="b" transform="translate(701.939 2018.908)"><tspan x="0" y="0">66</tspan></text><text class="b" transform="translate(735.08 2035.033)"><tspan x="0" y="0">59</tspan></text><text class="b" transform="translate(768.232 2041.947)"><tspan x="0" y="0">56</tspan></text><text class="b" transform="translate(801.384 2048.861)"><tspan x="0" y="0">53</tspan></text><text class="b" transform="translate(834.525 2051.158)"><tspan x="0" y="0">52</tspan></text><text class="b" transform="translate(867.677 2053.466)"><tspan x="0" y="0">51</tspan></text><text class="b" transform="translate(900.83 2055.775)"><tspan x="0" y="0">50</tspan></text><text class="b" transform="translate(933.97 2058.072)"><tspan x="0" y="0">49</tspan></text><text class="b" transform="translate(967.111 2060.38)"><tspan x="0" y="0">48</tspan></text><text class="b" transform="translate(1000.263 2062.689)"><tspan x="0" y="0">47</tspan></text><text class="b" transform="translate(1033.416 2064.986)"><tspan x="0" y="0">46</tspan></text><text class="b" transform="translate(1066.568 2071.9)"><tspan x="0" y="0">43</tspan></text><text class="b" transform="translate(1099.72 2071.9)"><tspan x="0" y="0">43</tspan></text><text class="b" transform="translate(1132.861 2076.505)"><tspan x="0" y="0">41</tspan></text><text class="b" transform="translate(1166.001 2078.814)"><tspan x="0" y="0">40</tspan></text><text class="b" transform="translate(1199.154 2090.333)"><tspan x="0" y="0">35</tspan></text><text class="b" transform="translate(1232.306 2129.509)"><tspan x="0" y="0">18</tspan></text><text class="b" transform="translate(1265.447 2138.72)"><tspan x="0" y="0">14</tspan></text><text class="b" transform="translate(1298.599 2143.337)"><tspan x="0" y="0">12</tspan></text><text class="b" transform="translate(1335.712 2164.08)"><tspan x="0" y="0">3</tspan></text><text class="b" transform="translate(571.973 2186.474)"><tspan x="0" y="0">0</tspan></text><text class="b" transform="translate(563.47 2163.423)"><tspan x="0" y="0">10</tspan></text><text class="b" transform="translate(563.47 2140.384)"><tspan x="0" y="0">20</tspan></text><text class="b" transform="translate(563.47 2117.345)"><tspan x="0" y="0">30</tspan></text><text class="b" transform="translate(563.47 2094.318)"><tspan x="0" y="0">40</tspan></text><text class="b" transform="translate(563.47 2071.279)"><tspan x="0" y="0">50</tspan></text><text class="b" transform="translate(563.47 2048.228)"><tspan x="0" y="0">60</tspan></text><text class="b" transform="translate(563.47 2025.189)"><tspan x="0" y="0">70</tspan></text><text class="b" transform="translate(563.47 2002.15)"><tspan x="0" y="0">80</tspan></text></g></svg>