<svg xmlns="http://www.w3.org/2000/svg" width="1153.883" height="421.568" viewBox="0 0 1153.883 421.568"><defs><style>.a{fill:#f6f6f6;}.a,.b{stroke:#a7a9ac;stroke-miterlimit:10;stroke-width:1.417px;}.b{fill:none;}.c{fill:#789ac4;}.d{fill:#222b3e;}.e{fill:#606060;font-size:14.314px;font-family:IBMPlexSans, IBM Plex Sans;}</style></defs><g transform="translate(-381.466 -2912.512)"><path class="a" d="M382.174,2913.221H1534.64v420.151H382.174V2913.221Z"/><line class="b" x2="1091.995" transform="translate(426.385 3238.821)"/><path class="c" d="M652.822,3241.468a4.226,4.226,0,0,1-3.238-1.685c-.764-.942-1.336-2.637-2.188-5.317a21.4,21.4,0,0,0-1.675-4.356l-.01-.011a9.824,9.824,0,0,0-1.755,1.849,17.052,17.052,0,0,0-1.411,3.308c-1.116,3.1-2,5.548-4.074,5.035-1.5-.371-2.135-2.254-3.309-6.138a23.583,23.583,0,0,0-1.539-4.268,3.525,3.525,0,0,0-5.473,0,24.619,24.619,0,0,0-1.732,4.431c-.783,2.366-1.458,4.409-2.316,5.467-.891,1.1-2.857,2.595-6.015.259a9.775,9.775,0,0,1-2.264-3.382c-.28-.557-.7-1.383-1.032-1.9-.237.3-.51.711-.7,1-.788,1.176-1.533,2.287-2.7,2.574-1.42.351-2.571-.574-3.41-1.249a6.709,6.709,0,0,0-.869-.632,7.651,7.651,0,0,0-.724.635c-.785.747-2.42,2.3-4.182,1-.947-.7-1.542-2.186-2.433-4.552-.284-.752-.7-1.858-1.051-2.578-.195.277-.4.6-.552.836-.77,1.2-1.5,2.338-2.664,2.626-1.422.353-2.569-.575-3.408-1.25a4.677,4.677,0,0,0-.966-.67,5.158,5.158,0,0,0-1.782.92,13.972,13.972,0,0,1-1.482.889c-.414.2-.826.443-1.24.681a11.985,11.985,0,0,1-3.034,1.389c-.246.061-.492.151-.738.239-1.1.392-2.939,1.047-4.636-.625a13.8,13.8,0,0,1-2.251-4.368,29.772,29.772,0,0,0-1.253-2.878c-.107.114-.214.233-.3.327-.667.74-2.228,2.474-3.978,1.18-.936-.693-1.517-2.179-2.388-4.546-.259-.7-.633-1.725-.96-2.439-.354.595-.761,1.431-1.045,2.014a22.724,22.724,0,0,1-1.428,2.648c-.435.643-.869,1.322-1.3,2a45.461,45.461,0,0,1-2.746,3.981,17.066,17.066,0,0,0-1,1.472c-.94,1.482-1.829,2.881-3.207,3.138a2.3,2.3,0,0,1-1.8-.434c-1.023-.757-1.616-2.567-2.574-5.7a35.044,35.044,0,0,0-1.332-3.851c-.149.141-.309.3-.427.426a4.013,4.013,0,0,1-2.722,1.585,4.608,4.608,0,0,1-2.788-1.325,6.062,6.062,0,0,0-.9-.648,9.488,9.488,0,0,0-1.771,1.857,20.178,20.178,0,0,1-1.434,1.645,14.577,14.577,0,0,0-1.184,1.438c-1.087,1.43-2.212,2.909-3.833,2.909-1.453,0-2.352-1.329-3.22-2.615-.213-.314-.524-.775-.776-1.081-.268.309-.607.79-.837,1.117-.777,1.105-1.581,2.247-2.752,2.536-1.423.35-2.571-.575-3.41-1.25a4.612,4.612,0,0,0-.965-.67,4.935,4.935,0,0,0-1.317.751,7.15,7.15,0,0,1-2.25,1.169c-.2.05-.4.108-.606.166a4.829,4.829,0,0,1-4.608-.415,9.78,9.78,0,0,1-2.264-3.383,18.9,18.9,0,0,0-1.154-2.078,14.091,14.091,0,0,0-1.427,1.817c-.351.5-.7.993-1.053,1.426a20.075,20.075,0,0,0-1.519,2.409,12.354,12.354,0,0,1-2.723,3.726,4.828,4.828,0,0,1-4.608.415c-.2-.058-.4-.116-.606-.166a7.141,7.141,0,0,1-2.25-1.169,4.336,4.336,0,0,0-1.364-.746,4.625,4.625,0,0,0-1.1.687,4.918,4.918,0,0,1-2.871,1.271,6.49,6.49,0,0,1-3.466-1.406,11.7,11.7,0,0,0-1.164-.706,10.321,10.321,0,0,1-1.55-1.009,4.822,4.822,0,0,0-1.409-.839,8.374,8.374,0,0,0-1.291,1.47,7.7,7.7,0,0,1-2.373,2.337,6.928,6.928,0,0,1-4.987.11,7.13,7.13,0,0,1-2.25-1.169,1.619,1.619,0,0,0-2.728,0,7.159,7.159,0,0,1-2.25,1.168,9.439,9.439,0,0,1-3.126.111c-.4-.033-.8-.068-1.2-.068H444.254a1.49,1.49,0,0,1,0-2.979h19.855c.482,0,.964.038,1.446.077a6.919,6.919,0,0,0,2.168-.034,5.269,5.269,0,0,0,1.279-.733,4.3,4.3,0,0,1,6.1,0,5.245,5.245,0,0,0,1.279.734c1.314.324,2.16.5,2.956.111a7.37,7.37,0,0,0,1.331-1.482c.85-1.1,1.73-2.247,2.942-2.546,1.559-.386,2.853.569,3.89,1.337a8.259,8.259,0,0,0,1.1.732,13.877,13.877,0,0,1,1.483.889,4.829,4.829,0,0,0,1.829.916,4.6,4.6,0,0,0,1.1-.687,4.925,4.925,0,0,1,2.872-1.272,5.509,5.509,0,0,1,3.048,1.268,5.266,5.266,0,0,0,1.28.734c.239.059.477.128.716.2,1.111.32,1.541.4,2.012.053a12.2,12.2,0,0,0,1.909-2.811,22.054,22.054,0,0,1,1.79-2.806c.311-.384.621-.825.933-1.266,1.206-1.711,2.578-3.645,4.553-3.159,1.382.341,2.189,1.942,3.123,3.8a11.283,11.283,0,0,0,1.377,2.329c.47.348.9.266,2.011-.053.239-.069.478-.137.716-.2a5.308,5.308,0,0,0,1.28-.734,5.511,5.511,0,0,1,3.048-1.268,4.6,4.6,0,0,1,2.788,1.325,7.12,7.12,0,0,0,.846.619,10.831,10.831,0,0,0,1.01-1.3c.9-1.28,1.832-2.6,3.3-2.6s2.351,1.329,3.22,2.614a13.618,13.618,0,0,0,.854,1.175,12.648,12.648,0,0,0,1.358-1.6,16.577,16.577,0,0,1,1.463-1.756,17.59,17.59,0,0,0,1.213-1.4c1.023-1.261,2.08-2.565,3.448-2.9,1.424-.352,2.571.574,3.409,1.25a7.312,7.312,0,0,0,.843.618,8.636,8.636,0,0,0,.663-.635,4.034,4.034,0,0,1,2.7-1.584,2.337,2.337,0,0,1,1.732.737c.868.857,1.445,2.64,2.313,5.477.338,1.106.855,2.8,1.259,3.7.318-.409.7-1.009.962-1.424a19.308,19.308,0,0,1,1.2-1.752,43.263,43.263,0,0,0,2.55-3.71c.448-.7.9-1.4,1.344-2.062a20.908,20.908,0,0,0,1.218-2.283c1.179-2.423,2.294-4.713,4.344-4.205,1.4.345,2.07,2,3.137,4.905.293.795.732,1.991,1.084,2.7.1-.1.2-.212.272-.3.667-.74,2.229-2.473,3.978-1.179.96.71,1.607,2.223,2.558,4.63a15.944,15.944,0,0,0,1.573,3.342c.294.29.407.343,1.543-.061a10.672,10.672,0,0,1,1.024-.325,9.78,9.78,0,0,0,2.262-1.078c.469-.27.939-.539,1.407-.771a11.522,11.522,0,0,0,1.164-.706,6.5,6.5,0,0,1,3.466-1.406,4.61,4.61,0,0,1,2.788,1.325,7.917,7.917,0,0,0,.812.6,12.24,12.24,0,0,0,.881-1.264c.873-1.361,2.191-3.419,4.12-2.467,1.154.569,1.777,2.1,2.781,4.765a25.691,25.691,0,0,0,1.238,2.936c.179-.15.387-.348.536-.489a4.147,4.147,0,0,1,2.728-1.489,4.6,4.6,0,0,1,2.787,1.324,7.541,7.541,0,0,0,.83.611,11.754,11.754,0,0,0,.937-1.275c.9-1.338,2.02-3,3.744-2.576,1.382.341,2.19,1.942,3.124,3.8a11.333,11.333,0,0,0,1.377,2.329c1.334.988,1.623.635,1.927.259a21.9,21.9,0,0,0,1.8-4.526,24.264,24.264,0,0,1,2.092-5.163,6.489,6.489,0,0,1,10.41,0,22.145,22.145,0,0,1,1.923,5.073c.259.858.623,2.06.962,2.991.274-.669.557-1.455.767-2.035a16.169,16.169,0,0,1,1.9-4.175c1.152-1.42,2.344-2.89,3.967-2.98a2.85,2.85,0,0,1,2.207.9c.9.886,1.5,2.7,2.419,5.572a21.61,21.61,0,0,0,1.663,4.343,1.258,1.258,0,0,0,.947.582.944.944,0,0,0,.632-.478,28.71,28.71,0,0,0,1.552-5.225c1.163-4.782,1.747-7.182,3.653-7.182,1.874,0,2.428,2.36,3.53,7.061.252,1.071.579,2.464.886,3.54.131-.3.255-.592.357-.834.832-1.967,1.488-3.521,2.812-3.848,1.8-.443,3.018,1.283,4,2.669a8.514,8.514,0,0,0,1.215,1.5c.32.237.641.508.96.78a6.119,6.119,0,0,0,1.45,1.031,13.369,13.369,0,0,0,1.25-2.222c.9-1.834,1.678-3.419,3.039-3.755,1.734-.425,2.847,1.238,3.745,2.576a12.648,12.648,0,0,0,.9,1.239c.208-.141.5-.391.692-.558.8-.694,1.9-1.645,3.316-1.3,1.184.292,2.02,1.425,2.827,2.521a9.245,9.245,0,0,0,1.142,1.374,5.85,5.85,0,0,0,1.059-.7,6.215,6.215,0,0,1,2.2-1.235,6.685,6.685,0,0,1,2.524-.033,4.328,4.328,0,0,0,1.447.033,5.359,5.359,0,0,0,1.28-.734,5.5,5.5,0,0,1,3.047-1.268,6.5,6.5,0,0,1,3.466,1.405,11.543,11.543,0,0,0,1.164.707c.469.231.938.5,1.407.77a9.78,9.78,0,0,0,2.262,1.078,6.626,6.626,0,0,0,3.257,0,9.789,9.789,0,0,0,3.441-1.71,8.8,8.8,0,0,0,1.284-1.5c1-1.332,2.035-2.71,3.574-2.71,1.447,0,2.319,1.345,3.161,2.647.163.25.385.593.59.877.289-.5.627-1.207.861-1.7.873-1.83,1.627-3.411,2.973-3.743,1.792-.439,3.016,1.283,4,2.669a8.49,8.49,0,0,0,1.215,1.5c1.108.819,2.252,1.666,3.085,1.666a5.942,5.942,0,0,0,.919-.666c.838-.675,1.987-1.6,3.409-1.249,1.184.292,2.02,1.425,2.827,2.521a7.449,7.449,0,0,0,1.212,1.42,6.663,6.663,0,0,0,1.336-.863,10.384,10.384,0,0,1,1.551-1.009,11.66,11.66,0,0,0,1.164-.707,6.493,6.493,0,0,1,3.466-1.405,4.921,4.921,0,0,1,2.871,1.271,4.444,4.444,0,0,0,1.109.687,6.5,6.5,0,0,0,.909-.665c.838-.676,1.984-1.6,3.409-1.25,1.185.292,2.02,1.425,2.828,2.521a9.249,9.249,0,0,0,1.142,1.374,5.884,5.884,0,0,0,1.059-.7,6.22,6.22,0,0,1,2.2-1.235,9.67,9.67,0,0,1,4.685,0,6.219,6.219,0,0,1,2.2,1.235,6.1,6.1,0,0,0,1.044.7,9.93,9.93,0,0,0,1.043-1.329c.9-1.28,1.832-2.6,3.3-2.6,1.492,0,2.467,1.335,3.41,2.626a7.428,7.428,0,0,0,1.221,1.445,2.918,2.918,0,0,0,1.745.011,9.586,9.586,0,0,1,1.566-.165,5.6,5.6,0,0,1,1.789.365c.9.295.94.256,1.135.064a16.453,16.453,0,0,0,1.412-3.255c1.061-2.908,1.828-5.009,3.606-5.009s2.544,2.1,3.6,5.009a16.434,16.434,0,0,0,1.412,3.256c.294.29.408.343,1.542-.062.342-.121.684-.24,1.025-.325a5.267,5.267,0,0,0,1.28-.734,4.3,4.3,0,0,1,6.1,0,5.266,5.266,0,0,0,1.28.734,6.917,6.917,0,0,0,2.168.034,12.951,12.951,0,0,1,3.011.088,2.933,2.933,0,0,0,1.747-.011,7.375,7.375,0,0,0,1.331-1.483c.851-1.1,1.73-2.246,2.942-2.545,1.561-.386,2.852.569,3.89,1.337a8.2,8.2,0,0,0,1.1.732c.468.231.937.5,1.406.769a9.747,9.747,0,0,0,2.262,1.079,6.924,6.924,0,0,0,2.169.034c.482-.039.963-.077,1.445-.077h7.942c.482,0,.964.038,1.446.077a6.918,6.918,0,0,0,2.168-.034,6.615,6.615,0,0,0,1.56-.8,8.619,8.619,0,0,1,2.411-1.157,6.711,6.711,0,0,1,2.525-.033,4.266,4.266,0,0,0,1.446.033,5.341,5.341,0,0,0,1.28-.734,4.3,4.3,0,0,1,6.095,0,5.34,5.34,0,0,0,1.28.734,6.991,6.991,0,0,0,2.169.034c.882-.073,1.764-.073,2.647-.146a9.442,9.442,0,0,1,3.126.112,8.6,8.6,0,0,1,2.41,1.157,6.6,6.6,0,0,0,1.561.8,6.924,6.924,0,0,0,2.169.034c.481-.039.963-.077,1.445-.077h3.971c.482,0,.964.038,1.446.077a6.919,6.919,0,0,0,2.168-.034,5.267,5.267,0,0,0,1.28-.734,4.3,4.3,0,0,1,6.1,0,5.285,5.285,0,0,0,1.28.734,6.926,6.926,0,0,0,2.169.034c.481-.039.963-.077,1.445-.077h3.971c.482,0,.964.038,1.446.077a6.919,6.919,0,0,0,2.168-.034,5.267,5.267,0,0,0,1.28-.734,4.3,4.3,0,0,1,6.1,0,5.267,5.267,0,0,0,1.28.734,6.918,6.918,0,0,0,2.168.034c.482-.039.964-.077,1.446-.077h11.912c.482,0,.964.038,1.446.077a6.924,6.924,0,0,0,2.169-.034,5.307,5.307,0,0,0,1.279-.733,4.3,4.3,0,0,1,6.1,0,5.266,5.266,0,0,0,1.28.734,6.919,6.919,0,0,0,2.168.034c.482-.039.964-.077,1.446-.077h23.825c.482,0,.964.038,1.446.077A6.918,6.918,0,0,0,976,3237.4a5.283,5.283,0,0,0,1.281-.734,4.3,4.3,0,0,1,6.1,0,5.266,5.266,0,0,0,1.28.734,6.641,6.641,0,0,0,3.258,0,9.761,9.761,0,0,0,2.261-1.079c.469-.269.938-.538,1.407-.769l3.97-1.959a8.114,8.114,0,0,0,1.1-.731c1.038-.768,2.333-1.723,3.891-1.338,1.264.312,2.21,1.5,3.125,2.644a9.618,9.618,0,0,0,1.376,1.522,9.8,9.8,0,0,0,3.441,1.71,6.626,6.626,0,0,0,3.257,0,5.266,5.266,0,0,0,1.28-.734,5.512,5.512,0,0,1,3.048-1.268,4.925,4.925,0,0,1,2.871,1.272,4.464,4.464,0,0,0,1.11.687,4.76,4.76,0,0,0,1.089-.688A4.93,4.93,0,0,1,1024,3235.4a5.5,5.5,0,0,1,3.048,1.268,5.269,5.269,0,0,0,1.281.734c.239.059.477.128.716.2,1.11.32,1.542.4,2.012.053a11.526,11.526,0,0,0,1.311-2.308c1.007-2.071,1.879-3.86,3.546-3.86,1.633,0,2.451,1.765,3.4,3.809.227.49.556,1.2.836,1.7.225-.3.473-.665.651-.932.789-1.175,1.535-2.285,2.7-2.573,1.563-.387,2.852.569,3.889,1.337a8.3,8.3,0,0,0,1.1.732,13.965,13.965,0,0,1,1.482.889,4.829,4.829,0,0,0,1.829.916,4.607,4.607,0,0,0,1.1-.687,4.925,4.925,0,0,1,2.871-1.272,5.508,5.508,0,0,1,3.048,1.268,5.281,5.281,0,0,0,1.279.734,5.353,5.353,0,0,0,4.819-.8,8.592,8.592,0,0,1,2.411-1.157,9.431,9.431,0,0,1,3.125-.112c.4.033.8.068,1.2.068h3.971c.481,0,.963.038,1.445.078a6.962,6.962,0,0,0,2.169-.034,6.134,6.134,0,0,0,3.281-1.573,12.188,12.188,0,0,0,1.367-2.369c1.049-2.112,1.954-3.937,3.65-3.937,1.647,0,2.489,1.771,3.464,3.822a18.161,18.161,0,0,0,1.071,2.043c.206-.148.475-.385.659-.546a4.343,4.343,0,0,1,2.748-1.4,5.508,5.508,0,0,1,3.048,1.268,5.309,5.309,0,0,0,1.28.734,6.953,6.953,0,0,0,2.168.034,17.707,17.707,0,0,1,2.892,0,6.92,6.92,0,0,0,2.168-.034,4.827,4.827,0,0,0,.988-.714c.929-.779,2.33-1.958,4-1.135,1.082.534,1.757,1.956,2.539,3.6.21.443.5,1.062.773,1.548.267-.486.561-1.1.772-1.547.782-1.646,1.457-3.068,2.539-3.6,1.666-.823,3.07.356,4,1.135a4.827,4.827,0,0,0,.988.714,3.079,3.079,0,0,0,1.127-.1,4.7,4.7,0,0,1,3.146.207,7.731,7.731,0,0,1,2.375,2.337,7.38,7.38,0,0,0,1.333,1.483c.67.164,1.5-.327,2.418-1.464a19.308,19.308,0,0,0,1.771-3.561,19.664,19.664,0,0,1,2.2-4.273,6.493,6.493,0,0,1,10.256,0,17.776,17.776,0,0,1,2.045,4.135,18.763,18.763,0,0,0,1.595,3.377,7.566,7.566,0,0,0,1.141-.934,13.5,13.5,0,0,1,1.119-.961,14.028,14.028,0,0,0,1.762-1.757,15.98,15.98,0,0,1,2.208-2.161c.268-.2.535-.427.8-.654,1.184-1.006,2.8-2.386,4.713-1.443,1.082.534,1.757,1.956,2.539,3.6.2.411.464.976.716,1.443.223-.452.456-.984.627-1.375.958-2.186,1.873-4.245,3.757-3.78,1.416.349,2.106,2.024,3.205,4.954a16.166,16.166,0,0,0,1.456,3.266c.48.474.881.721,2.039-.137a11.572,11.572,0,0,0,1.7-2.581,14.549,14.549,0,0,1,2.108-3.158l.424-.427c1.22-1.237,3.264-3.308,5.479-1.668.946.7,1.541,2.186,2.432,4.552.3.794.748,1.983,1.109,2.7.259-.331.555-.773.764-1.085a9.05,9.05,0,0,1,1.865-2.245c1.5-1.107,3.041-2.251,4.856-2.251a6.5,6.5,0,0,1,3.466,1.406,11.638,11.638,0,0,0,1.164.706,14.33,14.33,0,0,1,1.483.889,4.812,4.812,0,0,0,1.829.917c.833,0,1.977-.848,3.084-1.667a8.9,8.9,0,0,0,1.285-1.5c1-1.332,2.034-2.71,3.572-2.71,1.492,0,2.467,1.336,3.409,2.627a7.488,7.488,0,0,0,1.223,1.445l.312.158c1.488.759,1.6.592,1.764.343a28.935,28.935,0,0,0,1.527-5.229c1.074-4.491,1.582-6.252,2.676-6.918a1.779,1.779,0,0,1,1.359-.217c1.535.379,2.023,2.374,3.208,8.09.352,1.7.845,4.08,1.251,5.356.238-.371.491-.809.676-1.133a15.89,15.89,0,0,1,1.292-2.011,17.913,17.913,0,0,0,1.44-2.364c.973-1.776,1.814-3.311,3.031-3.911,1.608-.794,2.95.446,3.751,1.189.164.152.4.374.591.52a13.7,13.7,0,0,0,.87-1.2c.9-1.338,2.014-3,3.744-2.576,1.33.328,2.013,1.848,2.878,3.773.143.318.327.729.514,1.115.242-.645.492-1.405.676-1.964.933-2.827,1.474-4.326,2.649-4.818a1.82,1.82,0,0,1,1.527.045c1.184.584,1.675,2.251,2.776,6.867.221.926.5,2.095.773,3.09.148-.436.29-.871.4-1.226.969-2.991,1.61-4.967,3.33-4.967,1.761,0,2.507,2.082,3.54,4.963a23.18,23.18,0,0,0,1.232,3.021,9.113,9.113,0,0,0,.848-.708,7.543,7.543,0,0,1,1.663-1.246,8.213,8.213,0,0,0,1.1-.733c1.037-.767,2.332-1.723,3.889-1.336,1.265.311,2.21,1.5,3.125,2.643a9.587,9.587,0,0,0,1.376,1.523c.32.237.641.507.96.779a5.287,5.287,0,0,0,1.494,1.038,12.7,12.7,0,0,0,1.707-2.668,19.757,19.757,0,0,1,1.737-2.807c.311-.383.62-.825.932-1.266,1.206-1.71,2.573-3.648,4.554-3.159,1.329.327,2.011,1.848,2.877,3.773.146.326.336.748.526,1.141.25-.648.511-1.42.7-1.987,1.015-3.009,1.83-5.384,3.835-4.886,1.473.363,2.074,2.205,3.192,6a28.711,28.711,0,0,0,1.376,4.029,10,10,0,0,0,.9-.835,11.1,11.1,0,0,1,1.228-1.116,8.163,8.163,0,0,0,1.118-1.529c.837-1.318,1.629-2.562,2.907-2.8a2.194,2.194,0,0,1,1.718.411c.991.733,1.547,2.529,2.448,5.639.257.89.627,2.168.958,3.086a51.825,51.825,0,0,0,1.972-5.257l.266-.789a67.708,67.708,0,0,0,1.566-6.979c1.367-7.06,1.88-8.92,3.159-9.55a1.766,1.766,0,0,1,1.541-.012c1.223.576,1.729,2.3,2.864,7.091a31.04,31.04,0,0,0,1.513,5.263c.652,1.126,1.561,1.216,2.681,1.216s2.03-.09,2.682-1.216a30.486,30.486,0,0,0,1.582-5.241c1.214-4.846,1.768-6.828,3.321-7.211,2.115-.519,2.835,2.066,3.925,5.982.276.994.648,2.331.974,3.236.148-.228.293-.466.408-.654.754-1.234,1.467-2.4,2.636-2.688,1.411-.349,2.51.6,3.314,1.3a8.638,8.638,0,0,0,.692.558,12.663,12.663,0,0,0,.9-1.238c.9-1.338,2.016-3.007,3.744-2.577,1.46.361,2.354,2.064,3.39,4.036a16.484,16.484,0,0,0,1.381,2.349,14.146,14.146,0,0,1,1.353,2.243c.142.267.323.612.506.935.451-1.64.981-4.817,1.392-7.274,1.057-6.329,1.545-8.808,2.489-9.738a1.864,1.864,0,0,1,1.819-.512c1.513.4,2.107,2.342,3.309,6.687.422,1.53.86,3.111,1.269,4.12.466,1.15.924,2.657,1.367,4.115.3.986.72,2.366,1.114,3.433.257-.808.523-1.758.733-2.511.981-3.515,1.506-5.231,2.687-5.813a1.869,1.869,0,0,1,1.508-.071c1.163.443,1.761,1.918,2.519,3.786.1.252.226.561.358.871.3-.872.617-1.942.846-2.719.917-3.111,1.484-4.907,2.485-5.647a2.076,2.076,0,0,1,1.653-.38c1.212.243,1.924,1.442,2.678,2.71.134.225.311.523.484.79.166-.28.337-.593.466-.828.774-1.416,1.506-2.753,2.86-2.876a2.083,2.083,0,0,1,1.844.844c.852,1.051,1.437,3.544,2.321,7.524a43.585,43.585,0,0,0,1.608,6.078,13.452,13.452,0,0,0,.941-1.016c.3-.345.589-.681.868-.956a12.535,12.535,0,0,0,1.425-2.382c.977-1.9,1.822-3.532,3.235-3.88,1.717-.423,2.7,1.35,3.492,2.775.087.156.193.347.3.54.521-1.318,1.143-3.572,1.6-5.21.49-1.779,1-3.619,1.51-5.009a30.88,30.88,0,0,1,1.572-3.49,25.809,25.809,0,0,0,2.352-6.154c.5-1.971,1.024-6.026,1.532-9.948,1.41-10.91,1.776-12.342,3.264-12.764a1.681,1.681,0,0,1,1.777.594c.762.94,1.133,3.713,2.21,16.485.144,1.718.305,3.623.472,5.486.294-3.565.58-7.574.828-11.036.617-8.611,1.2-16.745,1.81-20.061.463-2.516,2.992-2.736,4.072-2.831.089-.007.19-.016.285-.026a43.548,43.548,0,0,0,1.567-5.005c.766-2.791,1.428-5.2,2.248-6.413,1.341-1.985,3.333-1.149,4.182-.793.162.068.391.163.536.207a5.858,5.858,0,0,0,3.1-3.109,43.474,43.474,0,0,0,1.5-6.3c1.191-6.068,1.64-8,3.178-8.388a1.753,1.753,0,0,1,1.813.647c.844,1.041,1.33,3.964,2.455,12.816a109.669,109.669,0,0,0,1.681,10.861,3.172,3.172,0,0,0,1.2.339c.612-5.239,1.239-18.474,1.845-31.28.718-15.172,1.4-29.5,2.112-33.212.137-.706.467-2.372,1.969-2.292,1.782.081,2,.98,3.277,13.734.273,2.722.607,6.052.927,8.481.027-.089.051-.175.075-.257.938-3.25,1.449-4.827,2.8-5.161,1.956-.485,3.026,1.741,4.054,3.892a12.275,12.275,0,0,0,1.32,2.37c.122.121.292.308.494.533.23.256.775.864,1.243,1.282.994-3.478,2.674-12.294,3.674-24.381.6-7.221,1.206-20.5,1.795-33.351.714-15.553,1.452-31.637,2.183-37.234.1-.726.348-2.655,2-2.685.716-.014,2.81-.04,4.913,12.424.576,3.408,1.128,10.383,1.711,17.768.238,3.008.512,6.468.792,9.6.2-2.243.382-4.589.549-6.678,1.237-15.5,1.54-16.99,2.536-17.726a1.6,1.6,0,0,1,1.6-.179c1.257.56,1.523,1.524,2.809,14.939.191,1.993.41,4.278.635,6.378.216-1.648.425-3.379.61-4.914a102.417,102.417,0,0,1,1.739-11.523,3.9,3.9,0,0,1,2.462-2.368c.985-.458,1.341-.682,1.475-1.4.557-3.021,1.135-11.018,1.693-18.753,1.459-20.181,1.746-20.93,3.027-21.518a1.671,1.671,0,0,1,1.6.169c1.183.875,1.592,3.384,3.246,28,.435,6.453.883,13.125,1.323,18.119a1.49,1.49,0,0,1-2.968.262c-.443-5.025-.893-11.713-1.327-18.181-.366-5.444-.776-11.55-1.186-16.512-.265,3.231-.521,6.784-.745,9.878-.591,8.175-1.149,15.9-1.735,19.078a4.774,4.774,0,0,1-3.149,3.567c-.288.134-.824.383-.856.495a105.848,105.848,0,0,0-1.643,11.051c-1.321,10.944-1.7,12.69-2.911,13.345a1.622,1.622,0,0,1-1.507.03c-1.195-.59-1.479-1.651-2.751-14.912-.129-1.344-.27-2.82-.418-4.283-.211,2.4-.414,4.951-.594,7.2-1.317,16.49-1.6,17.2-2.7,17.824a1.669,1.669,0,0,1-1.479.044c-1.253-.618-1.572-1.425-3.1-20.8-.553-7-1.125-14.229-1.679-17.507-.319-1.894-.849-4.274-1.384-6.277-.6,7.235-1.209,20.507-1.8,33.413-.59,12.873-1.2,26.184-1.8,33.459-1.113,13.455-3.028,22.811-4.044,25.817a2.292,2.292,0,0,1-1.716,1.649c-1.687.346-3.22-1.37-4.343-2.622-.153-.17-.279-.312-.369-.4a12.019,12.019,0,0,1-1.916-3.206c-.181-.379-.42-.879-.656-1.328-.231.7-.472,1.529-.648,2.138-.909,3.153-1.459,5.056-3.058,5.207a1.945,1.945,0,0,1-1.947-1.239c-.617-1.219-1.03-4.813-1.824-12.721-.063-.624-.128-1.28-.2-1.95-.407,6.4-.818,15.066-1.22,23.564-.618,13.069-1.258,26.583-1.893,31.748a2.637,2.637,0,0,1-2.494,2.346c-1.4.146-3.876-.6-4.366-2.05-.66-1.953-1.265-6.7-1.9-11.729-.3-2.4-.67-5.273-1.028-7.554-.193.922-.38,1.871-.538,2.676a41.223,41.223,0,0,1-1.7,6.948,8.839,8.839,0,0,1-4.638,4.626,3.285,3.285,0,0,1-2.863-.2c-.169-.07-.424-.177-.6-.227a31.173,31.173,0,0,0-1.812,5.474,31.091,31.091,0,0,1-2.073,6.131,2.742,2.742,0,0,1-2.393,1.08c-1.14.1-1.366.213-1.4.4-.581,3.154-1.185,11.582-1.768,19.734-1.238,17.306-1.661,21.019-2.512,22.068a1.607,1.607,0,0,1-1.721.543c-1.433-.441-1.668-1.109-3.008-17.024-.226-2.671-.489-5.793-.755-8.508-.2,1.46-.4,2.974-.573,4.325-.542,4.193-1.054,8.154-1.6,10.3a28.735,28.735,0,0,1-2.583,6.768,28.075,28.075,0,0,0-1.435,3.175c-.468,1.272-.959,3.05-1.433,4.77-1.1,3.984-1.825,6.478-2.888,7.527a2.044,2.044,0,0,1-1.749.609c-1.281-.185-1.989-1.461-2.739-2.812-.128-.231-.3-.538-.464-.813-.339.537-.735,1.306-1.011,1.838a12.866,12.866,0,0,1-1.98,3.137c-.227.224-.461.5-.7.78-.942,1.093-1.991,2.331-3.49,2.243a2.636,2.636,0,0,1-2.058-1.291c-.753-1.114-1.321-3.506-2.166-7.313-.357-1.6-.841-3.786-1.263-5.145-.088.157-.17.308-.24.437-.777,1.418-1.578,2.883-3.038,2.883s-2.282-1.4-3.086-2.752c-.1-.173-.232-.39-.364-.6-.353.927-.756,2.3-1.034,3.238-1.01,3.428-1.593,5.244-2.8,5.839a1.868,1.868,0,0,1-1.508.07c-1.162-.442-1.76-1.917-2.517-3.784-.094-.232-.208-.512-.327-.8-.265.821-.539,1.8-.755,2.577-1.082,3.871-1.678,6-3.494,6-1.986,0-2.772-2.583-4.073-6.861-.424-1.4-.863-2.837-1.279-3.863a45.507,45.507,0,0,1-1.379-4.445c-.216-.78-.482-1.742-.748-2.607-.37,1.744-.76,4.081-1.058,5.866-.816,4.884-1.353,7.941-2.087,9.208a2.326,2.326,0,0,1-2.1,1.37c-1.545-.031-2.391-1.639-3.288-3.341a12.647,12.647,0,0,0-1.031-1.755,18.1,18.1,0,0,1-1.7-2.84,21.736,21.736,0,0,0-1.283-2.229c-.245.309-.536.743-.74,1.045-.789,1.176-1.534,2.286-2.7,2.574-1.408.348-2.512-.6-3.315-1.3-.184-.158-.453-.39-.657-.534a14.361,14.361,0,0,0-.8,1.223c-.777,1.271-1.51,2.471-2.738,2.71a2.1,2.1,0,0,1-1.669-.391c-.979-.724-1.492-2.437-2.388-5.657-.178-.641-.4-1.425-.616-2.144-.306,1.052-.62,2.308-.868,3.3a28.874,28.874,0,0,1-1.9,6.011,6.472,6.472,0,0,1-10.52,0,27.811,27.811,0,0,1-1.833-6.069c-.2-.831-.438-1.848-.681-2.775-.373,1.583-.758,3.576-1.058,5.125a66.988,66.988,0,0,1-1.67,7.367l-.263.784c-1.688,5.023-2.909,8.654-5.475,8.02-1.46-.359-2.05-2.192-3.143-5.97-.29-1-.721-2.5-1.082-3.414-.216.307-.445.667-.614.934a8.58,8.58,0,0,1-1.859,2.325,8.752,8.752,0,0,0-.892.825c-.894.9-2.986,3-5.013,1-.848-.837-1.4-2.618-2.236-5.455-.216-.737-.51-1.737-.8-2.584-.2.546-.4,1.127-.547,1.578-1.005,2.981-1.593,4.552-2.959,4.888-1.9.469-2.874-1.688-3.811-3.774-.247-.552-.619-1.381-.911-1.876a15.461,15.461,0,0,0-1.366,1.758c-.35.5-.7.993-1.052,1.425a18.02,18.02,0,0,0-1.439,2.363c-.973,1.777-1.814,3.311-3.03,3.911-1.91.942-3.53-.437-4.713-1.443-.268-.227-.535-.456-.8-.654a11.292,11.292,0,0,1-1.932-2.06,7.479,7.479,0,0,0-1.523-1.612,5.059,5.059,0,0,0-1.389.843,10.45,10.45,0,0,1-1.552,1.009,5.844,5.844,0,0,0-.983.784c-.934.844-2.669,2.415-4.534,1.036-.926-.686-1.5-2.178-2.347-4.554-.183-.508-.423-1.179-.663-1.781-.206.58-.412,1.214-.569,1.7-.916,2.828-1.448,4.327-2.613,4.819a1.807,1.807,0,0,1-1.522-.044c-1.183-.583-1.674-2.25-2.775-6.866-.225-.944-.511-2.139-.789-3.145-.159.457-.311.92-.435,1.293-.988,3-1.567,4.576-2.927,4.912-1.9.467-2.874-1.689-3.812-3.775-.215-.48-.525-1.171-.794-1.668-.22.292-.461.65-.635.91-.79,1.176-1.535,2.286-2.7,2.574-1.417.348-2.48-.644-3.261-1.369-.167-.154-.412-.381-.6-.528a17.414,17.414,0,0,0-1.542,2.5,19.76,19.76,0,0,1-1.738,2.808,13.851,13.851,0,0,0-1.024,1.622c-.922,1.6-1.792,3.112-3.274,3.23a2.286,2.286,0,0,1-1.987-.934c-.77-.949-1.251-2.984-2.166-7.4-.22-1.06-.495-2.382-.768-3.537-.236.9-.469,1.871-.66,2.67-.762,3.187-1.274,5.194-1.956,6.2-1.756,2.6-4.537,1.178-5.587.642l-.277-.14a7.268,7.268,0,0,1-2.31-2.36,12.5,12.5,0,0,0-1.028-1.29,12.086,12.086,0,0,0-1.165,1.406,10.259,10.259,0,0,1-1.9,2.106c-1.494,1.107-3.04,2.251-4.856,2.251a6.5,6.5,0,0,1-3.467-1.406,11.653,11.653,0,0,0-1.163-.707,13.981,13.981,0,0,1-1.483-.889,4.81,4.81,0,0,0-1.829-.915c-.833,0-1.977.847-3.085,1.666a8.135,8.135,0,0,0-1.161,1.51c-.942,1.405-2.365,3.526-4.355,2.546-1.153-.569-1.777-2.1-2.781-4.765a16.023,16.023,0,0,0-1.449-3.234,9.17,9.17,0,0,0-1.552,1.391l-.454.456a13.6,13.6,0,0,0-1.6,2.489,11.327,11.327,0,0,1-2.533,3.524c-2.867,2.121-4.929.825-5.9-.137-.779-.768-1.334-2.153-2.154-4.342-.241-.643-.579-1.543-.891-2.246-.2.415-.4.874-.552,1.222-.9,2.059-1.68,3.837-3.3,3.837-1.648,0-2.49-1.771-3.464-3.822a13.646,13.646,0,0,0-1.2-2.2,6.492,6.492,0,0,0-1.436,1.037c-.319.272-.64.543-.959.779a14,14,0,0,0-1.767,1.76,15.869,15.869,0,0,1-2.205,2.158,11.447,11.447,0,0,0-.868.754c-1.01.934-2.89,2.675-4.875,1.205-.983-.728-1.655-2.269-2.645-4.721a17.693,17.693,0,0,0-1.6-3.373,3.516,3.516,0,0,0-5.627,0,19.334,19.334,0,0,0-1.773,3.566,19.618,19.618,0,0,1-2.2,4.269c-2.135,2.632-4.162,2.793-5.485,2.467-1.211-.3-2.091-1.441-2.942-2.546a7.323,7.323,0,0,0-1.331-1.481,2.158,2.158,0,0,0-1.266.046,5.433,5.433,0,0,1-2.4.064,5.67,5.67,0,0,1-2.188-1.324,8.3,8.3,0,0,0-.823-.634,16.883,16.883,0,0,0-1.11,2.1c-.974,2.051-1.816,3.822-3.463,3.822s-2.49-1.771-3.464-3.822a17.016,17.016,0,0,0-1.11-2.1,8.2,8.2,0,0,0-.823.635,5.686,5.686,0,0,1-2.189,1.324,9.488,9.488,0,0,1-3.125.111,14.584,14.584,0,0,0-2.4,0,9.489,9.489,0,0,1-3.126-.111,7.172,7.172,0,0,1-2.25-1.169,4.351,4.351,0,0,0-1.364-.747c-.082.047-.52.433-.783.662-.83.728-2.218,1.947-3.847,1.144-1.082-.534-1.758-1.956-2.54-3.6-.221-.466-.535-1.126-.813-1.621-.319.529-.685,1.267-.941,1.782a12.364,12.364,0,0,1-1.943,3.165,8.949,8.949,0,0,1-4.66,2.344,9.465,9.465,0,0,1-3.126.111c-.4-.033-.8-.067-1.2-.067h-3.971c-.483,0-.964-.038-1.446-.078a6.979,6.979,0,0,0-2.167.034,6.622,6.622,0,0,0-1.562.8,8.567,8.567,0,0,1-2.411,1.158,9.681,9.681,0,0,1-4.685,0,7.157,7.157,0,0,1-2.249-1.169,4.346,4.346,0,0,0-1.364-.746,4.624,4.624,0,0,0-1.1.687,4.919,4.919,0,0,1-2.871,1.271,6.494,6.494,0,0,1-3.466-1.406,11.824,11.824,0,0,0-1.164-.706,10.368,10.368,0,0,1-1.55-1.009,5.743,5.743,0,0,0-1.345-.833,9.807,9.807,0,0,0-1,1.334c-.9,1.338-2.014,3-3.745,2.577-1.337-.329-2.035-1.839-2.921-3.751-.2-.431-.478-1.033-.733-1.51-.286.5-.6,1.151-.827,1.613a9.374,9.374,0,0,1-2.217,3.4,4.831,4.831,0,0,1-4.609.415c-.2-.058-.4-.116-.606-.166a7.14,7.14,0,0,1-2.25-1.169,4.33,4.33,0,0,0-1.365-.746,4.622,4.622,0,0,0-1.1.686,3.878,3.878,0,0,1-5.743,0,1.413,1.413,0,0,0-2.464.059,7.141,7.141,0,0,1-2.25,1.169,9.682,9.682,0,0,1-4.685,0,12.765,12.765,0,0,1-4.5-2.208,11.325,11.325,0,0,1-1.933-2.059,7.463,7.463,0,0,0-1.522-1.613,4.558,4.558,0,0,0-1.391.844,10.418,10.418,0,0,1-1.55,1.008l-3.971,1.959c-.413.2-.825.442-1.238.68a12.008,12.008,0,0,1-3.035,1.389,9.682,9.682,0,0,1-4.685,0,7.141,7.141,0,0,1-2.25-1.169,1.619,1.619,0,0,0-2.727,0,7.146,7.146,0,0,1-2.251,1.169,9.465,9.465,0,0,1-3.126.111c-.4-.033-.8-.068-1.2-.068H948.557c-.4,0-.8.035-1.2.068a9.464,9.464,0,0,1-3.126-.111,7.12,7.12,0,0,1-2.25-1.169,1.62,1.62,0,0,0-2.729,0,7.154,7.154,0,0,1-2.249,1.168,9.446,9.446,0,0,1-3.127.111c-.4-.033-.8-.068-1.2-.068H920.761c-.4,0-.8.035-1.2.068a9.464,9.464,0,0,1-3.126-.111,7.141,7.141,0,0,1-2.25-1.169,1.62,1.62,0,0,0-2.728,0,7.13,7.13,0,0,1-2.25,1.169,9.438,9.438,0,0,1-3.126.111c-.4-.033-.8-.068-1.2-.068h-3.971c-.4,0-.8.035-1.2.068a9.464,9.464,0,0,1-3.126-.111,7.12,7.12,0,0,1-2.25-1.169,1.62,1.62,0,0,0-2.728,0,7.135,7.135,0,0,1-2.251,1.169,9.433,9.433,0,0,1-3.125.111c-.4-.033-.8-.068-1.2-.068h-3.971c-.4,0-.8.035-1.2.068a9.47,9.47,0,0,1-3.127-.111,8.575,8.575,0,0,1-2.41-1.158,6.656,6.656,0,0,0-1.561-.8,6.985,6.985,0,0,0-2.168-.034c-.882.072-1.764.073-2.647.145a9.464,9.464,0,0,1-3.126-.111,7.133,7.133,0,0,1-2.251-1.168,1.618,1.618,0,0,0-2.727,0,7.144,7.144,0,0,1-2.251,1.168,6.7,6.7,0,0,1-2.524.032,4.294,4.294,0,0,0-1.446-.032,6.638,6.638,0,0,0-1.561.8,8.575,8.575,0,0,1-2.41,1.158,9.439,9.439,0,0,1-3.126.111c-.4-.033-.8-.068-1.2-.068h-7.942c-.4,0-.8.035-1.2.068a9.471,9.471,0,0,1-3.127-.111,12.024,12.024,0,0,1-3.035-1.389c-.412-.238-.825-.477-1.237-.68a10.383,10.383,0,0,1-1.551-1.009,4.657,4.657,0,0,0-1.408-.839,8.339,8.339,0,0,0-1.291,1.47,7.716,7.716,0,0,1-2.374,2.337,5.514,5.514,0,0,1-3.548.279,8.673,8.673,0,0,0-2.284-.058,9.465,9.465,0,0,1-3.126-.111,7.13,7.13,0,0,1-2.25-1.169,1.62,1.62,0,0,0-2.728,0,7.124,7.124,0,0,1-2.251,1.169c-.245.061-.491.151-.738.239-1.1.392-2.94,1.048-4.635-.625-.771-.761-1.315-2.152-2.118-4.355-.219-.6-.521-1.426-.806-2.1-.287.678-.588,1.5-.807,2.1-.8,2.2-1.347,3.594-2.119,4.354a3.681,3.681,0,0,1-4.158.645,3.516,3.516,0,0,0-.858-.216,7.029,7.029,0,0,0-1.082.126,5.513,5.513,0,0,1-3.548-.279,7.266,7.266,0,0,1-2.309-2.36,13.684,13.684,0,0,0-.978-1.239,14.011,14.011,0,0,0-.887,1.173c-.777,1.105-1.581,2.247-2.752,2.536-1.465.359-2.634-.529-3.575-1.245a4.746,4.746,0,0,0-1.109-.714,6.641,6.641,0,0,0-3.258,0,4.7,4.7,0,0,0-1.11.715c-.94.715-2.11,1.607-3.574,1.244-1.185-.292-2.02-1.425-2.828-2.521a10.156,10.156,0,0,0-1.108-1.347,6.874,6.874,0,0,0-.862.628,4.6,4.6,0,0,1-2.787,1.325,4.922,4.922,0,0,1-2.872-1.272,4.459,4.459,0,0,0-1.108-.687,4.859,4.859,0,0,0-1.82.916,13.961,13.961,0,0,1-1.484.889,8.141,8.141,0,0,0-1.1.732c-1.036.768-2.325,1.724-3.89,1.337-1.184-.292-2.02-1.425-2.828-2.521a10.142,10.142,0,0,0-1.107-1.347,6.8,6.8,0,0,0-.862.628,4.61,4.61,0,0,1-2.788,1.325c-1.815,0-3.362-1.144-4.857-2.251a9.549,9.549,0,0,1-1.873-2.17c-.249-.352-.614-.866-.909-1.2-.3.5-.687,1.3-.943,1.837-.873,1.83-1.627,3.411-2.974,3.743-1.715.424-2.8-1.245-3.666-2.586-.209-.323-.517-.8-.761-1.1a13.979,13.979,0,0,0-1.092,1.337,10.275,10.275,0,0,1-1.893,2.1,12.765,12.765,0,0,1-4.5,2.208,9.67,9.67,0,0,1-4.685,0,12.017,12.017,0,0,1-3.034-1.389c-.413-.238-.826-.476-1.239-.68a13.955,13.955,0,0,1-1.484-.889,4.8,4.8,0,0,0-1.828-.916,4.342,4.342,0,0,0-1.364.747,7.139,7.139,0,0,1-2.25,1.168,6.709,6.709,0,0,1-2.525.032,4.294,4.294,0,0,0-1.446-.032,4.7,4.7,0,0,0-1.109.715c-.941.715-2.112,1.6-3.576,1.244-1.184-.292-2.019-1.425-2.827-2.521a10.94,10.94,0,0,0-1.073-1.317,8.036,8.036,0,0,0-.726.582c-.8.694-1.909,1.644-3.315,1.3-1.166-.287-1.911-1.4-2.7-2.574-.188-.279-.452-.673-.685-.975-.313.507-.693,1.281-.951,1.807-.8,1.638-1.5,3.052-2.59,3.591-1.907.941-3.529-.437-4.713-1.443-.268-.228-.535-.456-.8-.655a9.528,9.528,0,0,1-1.873-2.17c-.233-.328-.565-.8-.849-1.132-.263.51-.574,1.244-.787,1.749-.823,1.946-1.471,3.483-2.764,3.836a1.909,1.909,0,0,1-1.669-.324c-.977-.723-1.45-2.411-2.455-6.7-.191-.814-.426-1.815-.663-2.722-.258.949-.516,2.009-.725,2.867-.772,3.172-1.29,5.171-1.978,6.19a3.782,3.782,0,0,1-2.972,1.785C652.923,3241.466,652.873,3241.468,652.822,3241.468Zm124.531-4.034h0ZM607.208,3236.4h0Zm584.37-.755h0ZM683,3235.489Zm-72.452,0Zm500.073-1.239h0Zm9.435,0h0Zm-27.8-.6h0Zm166.983-1.792h0Zm-664.608-.267Zm-83.426-1.172Zm651.034-.081Zm-516.6-.291Zm663.291-1.832h0Zm-59.378-.374h0Zm39.843-1.4h0Zm-47.481-.744Zm-675.268-3.205Zm776.019-.419h0Zm6.462-2.252Zm74.663-7.2h0Zm30.252-49.066h0Zm8.355-64.041Zm35.375-57.7Zm13.435-39.147ZM432.342,3240.334h-3.971a1.49,1.49,0,1,1,0-2.979h3.971a1.49,1.49,0,1,1,0,2.979Z"/><path class="d" d="M431.313,3240.031c-.563,0-1.118-.017-1.662-.033-.432-.013-.863-.025-1.294-.03a1.49,1.49,0,0,1,.014-2.979h.015c.451,0,.9.017,1.353.031.877.026,1.7.05,2.529.01.686-.034,1.381-.125,2.118-.222.6-.078,1.2-.157,1.805-.206,1.4-.114,2.8-.172,4.031-.223.538-.022,1.076-.026,1.614-.029.794,0,1.543-.009,2.284-.076.6-.054,1.206-.167,1.854-.287.682-.126,1.387-.257,2.116-.324a29.311,29.311,0,0,1,4.181-.12,7.828,7.828,0,0,1,1.859.385,2.858,2.858,0,0,0,1.529.219,6.606,6.606,0,0,0,1.43-1.32,7.644,7.644,0,0,1,2.481-2.057,5.236,5.236,0,0,1,3.157-.108,4.248,4.248,0,0,0,1.2.13,15.263,15.263,0,0,0,2.82-.747c.3-.1.589-.2.885-.289.459-.144.937-.342,1.443-.552a13.246,13.246,0,0,1,2.711-.9,7.177,7.177,0,0,1,2.226.028,3.657,3.657,0,0,0,1.53,0,5.567,5.567,0,0,0,1.251-.98,5.23,5.23,0,0,1,3.136-1.768c1.288-.05,2.184.97,2.9,1.791.115.131.266.3.412.458.381-.824.894-2.435,1.228-3.485.977-3.072,1.583-4.844,2.687-5.514a2,2,0,0,1,1.581-.226c1.182.324,1.844,1.563,2.611,3,.17.319.409.766.624,1.118.358-.479.8-1.223,1.093-1.73a15.076,15.076,0,0,1,1.716-2.528,20.9,20.9,0,0,1,2.543-2.251c.525-.413,1.021-.8,1.511-1.253l.691-.628a37.493,37.493,0,0,0,3.167-3.115c.276-.316.553-.616.829-.917a17.107,17.107,0,0,0,2.942-3.989,33.472,33.472,0,0,0,1.6-4.319c1.017-3.13,1.7-5.1,2.664-6.018a2.218,2.218,0,0,1,1.7-.655,3.963,3.963,0,0,1,2.623,1.858c.137.168.328.4.494.585a20.652,20.652,0,0,0,2.834-4.483,51.17,51.17,0,0,0,2.117-5.219c.592-1.613,1.205-3.281,1.821-4.638l.055-.12a42.731,42.731,0,0,1,4.093-7.736,4.34,4.34,0,0,1,2.374-1.43c.831-.255,1.134-.375,1.421-1a47.167,47.167,0,0,0,1.82-6.893c.726-3.287,1.412-6.391,2.194-7.844a3.178,3.178,0,0,1,1.976-1.624,5.239,5.239,0,0,1,4.075.942,7.413,7.413,0,0,1,2.205,3.036c.167.322.393.756.609,1.13.551-1.224,1.257-3.51,1.722-5.019.4-1.306.821-2.657,1.238-3.8.479-1.315.974-2.934,1.453-4.5a42.214,42.214,0,0,1,2.619-7.2,5.192,5.192,0,0,1,3.294-2.539,2.752,2.752,0,0,0,.979-.451,4.441,4.441,0,0,1,.761-.508c.92-.539,2.461-1.44,2.736-3.152.585-3.646,1.189-12.728,1.773-21.511,1.026-15.416,1.558-22.331,2.343-23.861a1.7,1.7,0,0,1,1.848-.99c1.7.327,2.011,1.39,3.654,18.727.418,4.4.849,8.952,1.272,12.223.468,3.629.943,8.321,1.4,12.859.582,5.752,1.221,12.066,1.831,15.849a51.6,51.6,0,0,0,1.756-7.794c.57-3.968,1.155-12.565,1.72-20.878,1.054-15.487,1.6-22.428,2.426-23.9a1.63,1.63,0,0,1,1.777-.854c1.55.334,1.765.893,3.1,16.452.186,2.163.4,4.635.618,6.92.134-1.1.262-2.209.38-3.222,1.124-9.677,1.481-11.516,2.387-12.3a1.753,1.753,0,0,1,1.749-.344c1.5.533,2,2.538,3.489,10.881.382,2.146.777,4.364,1.161,6.085.6,2.663,1.2,5.884,1.779,9,.717,3.843,1.46,7.817,2.183,10.7.968,3.861,2.244,8.955,3.252,10.779a4.261,4.261,0,0,0,1.793-2.467c.679-2.942,1.385-9.444,2.067-15.733.617-5.694,1.256-11.582,1.892-14.957,2.263-12.013,3.819-12.454,4.655-12.69a1.833,1.833,0,0,1,1.882.565c.954,1.049,1.5,4.121,2.609,11.409a90.009,90.009,0,0,0,1.685,9.289,9.258,9.258,0,0,0,2.441,4,11.906,11.906,0,0,1,1.359,1.662,7.526,7.526,0,0,0,.731.827,11.673,11.673,0,0,1,3.445,6.045c.622,3.041,1.214,9.216,1.842,15.755.464,4.84.971,10.132,1.457,13.467.507-2.036,1.03-4.634,1.408-6.505l.316-1.56c.547-2.678,1.114-7.751,1.661-12.657,1.09-9.761,1.66-14.172,2.546-15.447a1.756,1.756,0,0,1,1.838-.773c1.543.345,1.969,2.049,3.276,9.835a65.118,65.118,0,0,0,1.49,7.433c1.323,3.877,2.3,5.384,2.841,5.967.188-.227.4-.52.554-.728.815-1.113,1.932-2.637,3.6-2.086,1.165.383,4.251,2.89,4.971,6.818.606,3.3,1.183,10.547,1.795,18.215.31,3.887.68,8.522,1.049,12.26.242-1.908.477-3.948.683-5.742.485-4.2.986-8.551,1.487-11.1.255-1.3.51-2.66.765-4.023,1.584-8.469,2.361-12.035,3.679-13.206a1.878,1.878,0,0,1,1.795-.431c1.484.427,2.12,2.4,3.3,6.466.412,1.416.839,2.88,1.239,3.852.5,1.218,1,2.584,1.492,3.906a55.1,55.1,0,0,0,2.419,5.918,14.431,14.431,0,0,0,2.518,3.384c.419.451.853.917,1.294,1.464a6.406,6.406,0,0,0,.95.854,8.9,8.9,0,0,1,3.269,4.347,70.816,70.816,0,0,1,1.844,8.834c.407,2.359.967,5.6,1.453,7.481a49.62,49.62,0,0,0,1.814-5.146c.572-1.849,1.175-5.32,1.758-8.678.761-4.391,1.481-8.538,2.293-10.235a2.521,2.521,0,0,1,2.19-1.6c1.816-.089,3.4,1.908,4.4,3.594a28.01,28.01,0,0,1,1.957,5.739c.29,1.054.666,2.42,1.019,3.488.064-.16.124-.312.177-.446.789-2,1.412-3.584,2.892-3.672a2.008,2.008,0,0,1,1.929,1.23c.783,1.454,1.4,5.03,2.322,10.745a86.977,86.977,0,0,0,1.757,9.169,11.2,11.2,0,0,0,2.287,4.277c.9-1.193,2.321-5.59,2.817-7.123a72.929,72.929,0,0,0,1.564-7.218c1.366-7.306,1.881-9.229,3.162-9.865a1.728,1.728,0,0,1,1.525-.01c1.2.574,1.654,2.229,2.747,7.2.256,1.166.592,2.693.905,3.843l.162-.347c.709-1.52,1.322-2.833,2.459-3.206a1.9,1.9,0,0,1,1.52.14c1.2.658,1.876,2.475,2.96,5.63a23.951,23.951,0,0,0,1.554,3.885,2.279,2.279,0,0,0,1.165.865,5.342,5.342,0,0,1,2.892,2.737,39.326,39.326,0,0,1,1.89,6.5c.421,1.758,1.013,4.231,1.486,5.478a31.383,31.383,0,0,0,1.855-3.8,45.991,45.991,0,0,0,1.633-6.066c1.146-5,1.715-7.119,2.741-7.991a1.808,1.808,0,0,1,1.681-.386c1.317.366,1.858,1.983,2.678,4.429.052.157.111.332.173.517.277-1.219.56-2.674.782-3.822,1.142-5.885,1.563-7.439,2.766-8a1.691,1.691,0,0,1,1.555.06c1.233.691,1.691,2.751,2.964,10.573a66.011,66.011,0,0,0,1.675,8.445,3.527,3.527,0,0,0,2.613,2.069c.192.064.363.122.505.177a4.351,4.351,0,0,0,2.112.03c.412-.055.825-.108,1.237-.13a7.507,7.507,0,0,0,1.225-.22,6.3,6.3,0,0,1,3.216-.147,5.262,5.262,0,0,1,2.339,1.787c.177.2.431.478.644.681a29.768,29.768,0,0,0,1.2-2.8c.927-2.369,1.547-3.855,2.557-4.512,1.887-1.229,3.56.507,4.457,1.44a6.034,6.034,0,0,0,1.032.943,9.13,9.13,0,0,0,1.354.55,8.86,8.86,0,0,1,2.838,1.43,22.729,22.729,0,0,1,4.263,4.787,23.442,23.442,0,0,1,1.729,3.24,13.8,13.8,0,0,0,1.8,3.183c.427-.006,1.51-1.182,2.093-1.813a15.545,15.545,0,0,0,1.652-2.833,13.242,13.242,0,0,1,2.443-3.824,4.621,4.621,0,0,1,5.679-.565,7.835,7.835,0,0,1,2.375,2.892c.267.444.664,1.1.977,1.508.232-.282.507-.675.7-.949.859-1.226,1.742-2.494,3.182-2.474,1.771.025,3.063,1.7,4.313,3.323.262.341.524.682.787,1a19.349,19.349,0,0,1,1.762,2.809,11.38,11.38,0,0,0,1.76,2.663c.463.245,1.185-.194,2.146-1.3a16.488,16.488,0,0,0,1.625-3.246c.826-1.935,1.54-3.607,2.512-4.424,2.454-2.06,4.95.043,5.89.836a11.4,11.4,0,0,1,2.2,3.278,16.915,16.915,0,0,0,1.318,2.229c.2-.15.475-.4.658-.56a4.091,4.091,0,0,1,2.912-1.43c1.471.1,2.661,1.108,3.813,2.079.317.268.633.536.95.775a15.351,15.351,0,0,1,1.734,1.622,7.447,7.447,0,0,0,1.843,1.585c1.33.474,1.777.434,2.392-.211a15.9,15.9,0,0,0,1.577-3.3c.968-2.4,1.625-3.912,2.605-4.612,1.231-.879,2.3.22,3.236,1.192.11.113.248.256.4.4.492-3.223,1-9.621,1.492-15.837,1.348-17,1.677-18.627,2.754-19.369a1.7,1.7,0,0,1,1.351-.219c1.467.432,1.732.509,3.3,21.053.566,7.415,1.151,15.082,1.715,18.109.359,1.927,2.092,2.923,2.924,3.4.183.106.328.191.422.256a4.14,4.14,0,0,0,2.425.523c.263.006.526.012.789.026.357.02.713.069,1.069.12,1.024.146,1.454.167,1.926-.186a10.575,10.575,0,0,0,1.4-2.219c.924-1.717,1.724-3.2,3.025-3.6,1.7-.524,2.939.964,3.843,2.05a6.34,6.34,0,0,0,1.062,1.112,4.172,4.172,0,0,0,2.247-.278c.291-.083.582-.167.873-.238a6.27,6.27,0,0,0,1.26-.57,5.692,5.692,0,0,1,3.2-.94,7.3,7.3,0,0,1,3.393,1.606c.414.293.806.569,1.171.774.508.285.993.616,1.462.937a7.39,7.39,0,0,0,2.1,1.159,4.57,4.57,0,0,0,3.015-.418,8.488,8.488,0,0,0,1.737-1.432,12.4,12.4,0,0,1,2.109-1.753l.162-.1c1.387-.832,2.959-1.772,4.714-1.609a5.7,5.7,0,0,1,2.845,1.446,4.894,4.894,0,0,0,1.282.829,3.056,3.056,0,0,0,1.228-.267,5.257,5.257,0,0,1,2.719-.377,8.167,8.167,0,0,1,2.907,1.4,10.413,10.413,0,0,0,1.389.817l.481.213a10.889,10.889,0,0,0,3.042,1.032l.139.014a4.073,4.073,0,0,0,2.87-.337,8.923,8.923,0,0,0,1.45-1.832,7.6,7.6,0,0,1,2.736-2.9c1.575-.688,3,.067,4.039.618a7.5,7.5,0,0,0,1,.475c.605.2,1.183.462,1.743.713a10.732,10.732,0,0,0,2.054.769,7.915,7.915,0,0,0,1.862.064,12.609,12.609,0,0,1,1.974.026l.583.061a12.3,12.3,0,0,1,3.815.831,9.495,9.495,0,0,1,2.19,1.5,6.247,6.247,0,0,0,1.6,1.106,4.377,4.377,0,0,0,2.979-.3,8,8,0,0,0,1.724-1.3,11.88,11.88,0,0,1,2.114-1.609,9.628,9.628,0,0,1,4.727-1.514,6.459,6.459,0,0,1,2.853,1,5.9,5.9,0,0,0,1.368.617,4.3,4.3,0,0,0,1.319-.052,5.981,5.981,0,0,1,2.843.132,9.467,9.467,0,0,1,2.719,1.741,11.082,11.082,0,0,0,1.481,1.085l.372.206a8.709,8.709,0,0,0,3.012,1.257,6.054,6.054,0,0,0,3.182-.8,8.458,8.458,0,0,0,1.55-1.215,9.164,9.164,0,0,1,2.519-1.8,8.985,8.985,0,0,1,4.426-.376l.24.023a10.151,10.151,0,0,1,2.273.551,7.478,7.478,0,0,0,1.667.419,5.741,5.741,0,0,0,1.458-.192,7.328,7.328,0,0,1,2.622-.213,14.311,14.311,0,0,1,4.447,1.71,10.522,10.522,0,0,1,1.847,1.342,5.3,5.3,0,0,0,1.581,1.082,4.229,4.229,0,0,0,1.724-.825,12.755,12.755,0,0,1,1.472-.85c.47-.218.938-.457,1.407-.7a26.908,26.908,0,0,1,2.666-1.237l.128-.049a15.344,15.344,0,0,1,4.262-1.156,9.192,9.192,0,0,1,2.611.289,8.657,8.657,0,0,0,1.5.236,5.311,5.311,0,0,0,1.2-.2,5.434,5.434,0,0,1,3.232-.048,7.293,7.293,0,0,1,2.543,1.943,6.253,6.253,0,0,0,1.418,1.223,3.116,3.116,0,0,0,1.576-.164,7.975,7.975,0,0,1,1.887-.309,7.24,7.24,0,0,1,1.9.3,2.433,2.433,0,0,0,1.47.136,7.343,7.343,0,0,0,1.432-1.529,7.746,7.746,0,0,1,2.548-2.394,6.237,6.237,0,0,1,4.715.2l.321.1a8.077,8.077,0,0,1,2.2,1.264,4.98,4.98,0,0,0,1.5.872,3.541,3.541,0,0,0,1.306-.457,6.077,6.077,0,0,1,2.432-.749,7.5,7.5,0,0,1,2.695.558,6.406,6.406,0,0,0,1.443.391,13.75,13.75,0,0,0,2.923-.2l.741-.1a9.748,9.748,0,0,0,1.3-.3,7.764,7.764,0,0,1,3.029-.4,6.09,6.09,0,0,1,2.424,1.025,3.657,3.657,0,0,0,1.262.608,4.66,4.66,0,0,0,1.349-.838,6.95,6.95,0,0,1,2.357-1.342,9.345,9.345,0,0,1,4.714.166,6.245,6.245,0,0,1,2.128,1.191,6.3,6.3,0,0,0,.995.661,11.776,11.776,0,0,0,1.039-1.55c.947-1.574,1.931-3.2,3.607-2.977,1.487.2,2.321,1.792,3.285,3.639a10.662,10.662,0,0,0,1.321,2.163c.455.3,1.054.556,2.314-.283a9.315,9.315,0,0,0,1.369-1.952c.9-1.492,1.743-2.9,3.039-3.25,1.636-.439,2.866.9,3.766,1.876a5.907,5.907,0,0,0,1.081,1.018,3.128,3.128,0,0,0,1.414-.078,6.334,6.334,0,0,1,2.326-.121,8.53,8.53,0,0,1,2.328.891,5.764,5.764,0,0,0,1.573.628,4.315,4.315,0,0,0,1.421-.228,6.56,6.56,0,0,1,2.549-.3,6.98,6.98,0,0,1,2.408.924,4.35,4.35,0,0,0,1.428.595,7.186,7.186,0,0,0,3.228-1.082,9.416,9.416,0,0,0,1.535-1.187,9.355,9.355,0,0,1,2.584-1.8,7.381,7.381,0,0,1,4.949-.232,7.954,7.954,0,0,1,2.581,1.607,7.055,7.055,0,0,0,1.494,1.042,7.13,7.13,0,0,0,2.443.331c.364.009.728.019,1.093.044.779.055,1.559.059,2.384.062.508,0,1.017,0,1.525.019s.993.069,1.489.125a7.119,7.119,0,0,0,2.144.043,9.3,9.3,0,0,0,2.2-.935c.493-.257.987-.513,1.48-.725.394-.169.786-.371,1.181-.572a10.5,10.5,0,0,1,3.157-1.2,5.487,5.487,0,0,1,2.47.326,2.586,2.586,0,0,0,1.243.209,7.228,7.228,0,0,0,1-1.113c.887-1.106,2.227-2.783,4.028-2.017,1.153.488,1.813,1.854,2.794,4.043a22.32,22.32,0,0,0,1.124,2.28c.192-.173.415-.405.575-.569a4.2,4.2,0,0,1,2.836-1.674h.085a4.65,4.65,0,0,1,2.938,1.739,7.041,7.041,0,0,0,.965.856,7.748,7.748,0,0,0,1.525-1.317,13.352,13.352,0,0,1,1.587-1.44c.367-.267.734-.581,1.1-.9a7.679,7.679,0,0,1,3.5-2.066,5.087,5.087,0,0,1,3.249.856,4.947,4.947,0,0,0,1.212.535,4.178,4.178,0,0,0,1.254-.094,5.547,5.547,0,0,1,3,.114,8.394,8.394,0,0,1,2.592,1.887,8.036,8.036,0,0,0,1.511,1.229c1.223.6,2.143,1.009,2.855.78a6.6,6.6,0,0,0,1.511-1.374,9.163,9.163,0,0,1,2.213-1.941,3.84,3.84,0,0,1,2.5-.263c.783.114.8.09.977-.144a22.734,22.734,0,0,0,1.552-4.315c1.134-3.787,1.741-5.628,3.133-6.106,2.117-.724,3.1,1.838,4.138,4.552a15.013,15.013,0,0,0,1.334,2.943c.353.329.566.339,1.629.07a10.088,10.088,0,0,1,1.128-.237,4.064,4.064,0,0,0,1.026-.5c.9-.527,2.247-1.324,3.742-.665,1.079.476,1.841,1.683,2.648,2.961a8.889,8.889,0,0,0,1.351,1.835c.381.174,1.188-.316,1.961-.785.214-.13.427-.259.64-.382a13.277,13.277,0,0,0,2.083-1.716c.554-.518,1.128-1.054,1.723-1.51.341-.262.683-.559,1.026-.855a8.251,8.251,0,0,1,3.568-2.178,5.064,5.064,0,0,1,3.229.73,4.726,4.726,0,0,0,1.206.478,5.617,5.617,0,0,0,1.479-.127,7.424,7.424,0,0,1,2.562-.113,9.578,9.578,0,0,1,2.63.995,10.038,10.038,0,0,0,1.51.657,22.548,22.548,0,0,0,3.726.672c.278.033.556.072.834.11a9.225,9.225,0,0,0,2.714.123l.489-.078a4.269,4.269,0,0,0,2.7-1.083,13,13,0,0,0,1.569-2.558,10.349,10.349,0,0,1,2.6-3.692c1.7-1.149,3.355-.351,4.451.177a8.355,8.355,0,0,0,.846.374,11.77,11.77,0,0,1,2.2,1.14,8.539,8.539,0,0,0,1.719.9,4.529,4.529,0,0,0,1.393.091,6.469,6.469,0,0,1,2.684.335,13.98,13.98,0,0,1,3.363,2.178c.318.251.637.5.954.739a8.817,8.817,0,0,1,1.684,1.924c.182.253.437.6.665.881a42.639,42.639,0,0,0,1.412-4.28,23.827,23.827,0,0,1,2.056-5.561,4.028,4.028,0,0,1,3.981-1.7,3.363,3.363,0,0,0,.746-.012c.744-.253,1.489-.559,2.278-.883.548-.225,1.1-.45,1.645-.657a5.066,5.066,0,0,0,.935-.619c.946-.714,2.7-2.043,4.5-.592.9.727,1.476,2.188,2.344,4.511.266.712.649,1.74.985,2.462.21-.346.428-.744.591-1.041.78-1.423,1.455-2.652,2.574-3.059,1.648-.6,3.045.446,4.066,1.209a7.394,7.394,0,0,0,1.06.71,6.012,6.012,0,0,1,1.668,1.433c.163.176.385.415.589.615a57.735,57.735,0,0,0,1.608-6.7c.848-4.153,1.415-6.767,2.138-8.036a2.389,2.389,0,0,1,1.682-1.264c1.241-.221,2.254.635,3.063,1.322.135.115.312.264.46.38.234-.2.574-.546.8-.78.893-.919,2.006-2.064,3.513-1.773,1.4.269,2.363,1.585,3.388,2.978a12.808,12.808,0,0,0,1.315,1.619c.364.337.729.719,1.093,1.1.539.567,1.542,1.62,1.933,1.645.327-.023,1.2-.856,1.673-1.3a16.793,16.793,0,0,1,1.326-1.172,11.364,11.364,0,0,1,1.379-.875,5.171,5.171,0,0,0,2.231-2.009,29.834,29.834,0,0,0,1.9-4.55,33.452,33.452,0,0,1,2.044-4.891,13.477,13.477,0,0,1,3.785-4.181c.179-.14.357-.281.534-.425l.315-.257c1.4-1.145,2.847-2.328,4.6-2.328,1.6,0,2.978,1.077,4.19,2.028.225.176.448.352.673.52a15.345,15.345,0,0,1,1.944,1.873,9.447,9.447,0,0,0,1.841,1.707l.262.142c1.354.738,1.73.836,2.122.551a10.312,10.312,0,0,0,3.412-5.579c.591-2.2,1.209-6.655,1.807-10.964.742-5.344,1.442-10.392,2.214-12.377a2.18,2.18,0,0,1,1.745-1.527c1.48-.2,2.5,1.2,3.494,2.545.2.27.474.644.662.861a3.848,3.848,0,0,0,2.464-1.139,10.649,10.649,0,0,0,1.227-2.11c.844-1.688,1.573-3.147,2.824-3.535a2.043,2.043,0,0,1,1.607.166c1.235.683,1.923,2.675,3.032,6.136a30.6,30.6,0,0,0,1.528,4.165c.215.4.43.816.646,1.234a22.6,22.6,0,0,0,1.618,2.821,13.64,13.64,0,0,0,2.884-6.88c.6-6.435,1.213-21.93,1.8-36.915.744-18.775,1.446-36.509,2.193-39.966.346-1.6,1.208-1.876,1.861-1.829,1.789.132,1.977.146,3.429,22.344.529,8.091,1.077,16.457,1.6,19.5a8.2,8.2,0,0,0,1.995,3.979c.272-.809.576-1.934.8-2.78.942-3.481,1.46-5.4,3.065-5.58a1.9,1.9,0,0,1,1.925,1.156c.81,1.522,1.444,5.923,2.389,12.99.567,4.228,1.152,8.6,1.714,10.872a52,52,0,0,0,1.942,6.509c.8-2.641,1.962-8.34,3.074-17.725.564-4.766,1.141-13.4,1.7-21.747.781-11.691,1.519-22.733,2.317-25.527.447-1.561,1.316-1.829,1.969-1.779,1.763.132,2.066,1.588,3.371,11.663a84.228,84.228,0,0,0,1.485,9.32,12.324,12.324,0,0,0,2.594,4.821c.124-.152.251-.313.356-.446.917-1.166,1.869-2.371,3.243-2.187a2.15,2.15,0,0,1,1.7,1.427c.817,1.93,1.555,6.7,2.336,11.753.563,3.642,1.146,7.409,1.708,9.652.305,1.218.611,2.64.908,4.014.234,1.082.522,2.415.812,3.61.64-3.955,1.312-10.808,1.922-17.032.451-4.6.917-9.35,1.376-13.1.423-3.461.856-7.8,1.275-12,1.242-12.468,1.933-18.519,2.893-20.134a1.736,1.736,0,0,1,1.843-.9c1.59.315,1.947,1.912,3.239,10.744a65.828,65.828,0,0,0,1.56,8.587,5.1,5.1,0,0,0,1.329,1.936c.446-1.647.964-6.217,1.388-9.959,1.237-10.92,1.5-12.315,3.294-12.391,1.554-.057,1.859,1.619,2,2.338.73,3.659,1.423,17.145,2.156,31.423.6,11.739,1.225,23.877,1.833,29.138a21.853,21.853,0,0,0,1.437,5.382c.643-5.239,1.291-14.691,1.921-23.886.532-7.745,1.08-15.754,1.622-21.2.236-2.368.471-4.833.707-7.3,1.5-15.715,2.332-23.327,3.466-25.234a1.733,1.733,0,0,1,1.844-.9c1.6.319,1.958,1.953,3.262,10.995a72.509,72.509,0,0,0,1.551,8.74,7.923,7.923,0,0,0,1.663,2.788c.3-1.1.67-2.961.941-4.313,1.18-5.869,1.579-7.856,3.38-7.856h.014c1.534.009,1.862,1.741,2,2.481.711,3.758,1.387,15.209,2.1,27.332.618,10.471,1.257,21.3,1.88,25.843.238,1.74,1.706,2.708,2.678,3.349a4.11,4.11,0,0,1,.97.776,1.49,1.49,0,0,1-2.238,1.964c-.09-.07-.221-.152-.374-.253-1.157-.764-3.566-2.353-3.987-5.431-.639-4.658-1.281-15.545-1.9-26.072-.487-8.261-.987-16.722-1.48-22.156-.043.211-.084.415-.123.61-.936,4.653-1.25,5.9-1.966,6.545a2.255,2.255,0,0,1-2.1.481c-1.868-.479-3.521-2.979-4.267-5.1a68.093,68.093,0,0,1-1.688-9.3c-.178-1.231-.39-2.7-.611-4.1-.7,5.012-1.449,12.818-2.048,19.088-.235,2.469-.471,4.937-.707,7.309-.537,5.4-1.085,13.387-1.614,21.11-.81,11.815-1.575,22.975-2.379,26.993a1.934,1.934,0,0,1-1.96,1.813c-2.845-.116-4.706-8.044-4.951-10.163-.62-5.356-1.245-17.543-1.85-29.328-.43-8.374-.869-16.925-1.3-23.047-.074.639-.144,1.266-.211,1.859-.687,6.056-1.145,9.831-1.73,11.18a2.5,2.5,0,0,1-2.322,1.647h-.054c-1.821-.037-3.6-2.122-4.351-4.065-.609-1.574-1.153-5.293-1.729-9.229-.162-1.108-.352-2.415-.552-3.679-.524,3.928-1.067,9.374-1.51,13.829-.42,4.216-.855,8.575-1.283,12.069-.456,3.711-.919,8.447-1.368,13.026-.9,9.187-1.751,17.864-2.675,20.508-.461,1.317-1.192,1.957-2.171,1.893-1.833-.113-2.4-2.309-3.765-8.641-.3-1.37-.591-2.739-.887-3.92-.594-2.375-1.187-6.211-1.761-9.92-.564-3.643-1.189-7.685-1.767-9.892l-.227.286c-.861,1.095-1.935,2.456-3.378,1.773-1.781-.841-3.692-3.7-4.756-7.1a80.634,80.634,0,0,1-1.6-9.825c-.118-.909-.246-1.9-.38-2.89-.458,5-.922,11.934-1.351,18.349-.56,8.385-1.14,17.057-1.713,21.9-.49,4.134-2.242,17.844-4.228,20.694a1.979,1.979,0,0,1-2,.894c-1.2-.221-2.453-1.154-4.64-10.007-.6-2.43-1.17-6.686-1.774-11.192-.389-2.9-.868-6.485-1.324-9.01-.08.29-.156.571-.226.827-.943,3.49-1.414,5.052-2.679,5.495a2.06,2.06,0,0,1-1.762-.269,10.543,10.543,0,0,1-4.169-6.693c-.555-3.2-1.083-11.267-1.642-19.811-.136-2.092-.282-4.312-.431-6.487-.368,7.339-.738,16.68-1.1,25.861-.595,15.024-1.209,30.559-1.816,37.074-.477,5.11-3.841,9.244-4.87,9.683-2.387,1.019-3.909-1.932-5.249-4.538-.207-.4-.413-.8-.619-1.186a31,31,0,0,1-1.742-4.666c-.344-1.071-.85-2.652-1.28-3.654-.24.429-.494.936-.681,1.309a9.941,9.941,0,0,1-1.961,3.047,6.323,6.323,0,0,1-5.183,1.781c-.906-.152-1.479-.928-2.272-2-.11-.149-.252-.342-.4-.539-.566,2.345-1.163,6.654-1.7,10.537-.639,4.6-1.242,8.948-1.881,11.326a13.452,13.452,0,0,1-4.529,7.211c-2,1.463-3.992.379-5.308-.339l-.25-.136a11.047,11.047,0,0,1-2.614-2.306,13.456,13.456,0,0,0-1.543-1.511c-.242-.181-.484-.371-.726-.561a5.735,5.735,0,0,0-2.351-1.393c-.687,0-1.762.879-2.71,1.655l-.324.264c-.188.153-.378.3-.567.452a10.51,10.51,0,0,0-3.054,3.338,32.678,32.678,0,0,0-1.82,4.413,30.42,30.42,0,0,1-2.174,5.1,8.073,8.073,0,0,1-3.3,3.03,8.977,8.977,0,0,0-1.035.648,14.427,14.427,0,0,0-1.081.964c-1.08,1.027-2.315,2.19-3.861,2.121-1.58-.073-2.788-1.341-3.955-2.567-.322-.336-.641-.674-.961-.971a14.527,14.527,0,0,1-1.692-2.039,11.31,11.31,0,0,0-1.456-1.746,8.8,8.8,0,0,0-.9.851,5.19,5.19,0,0,1-2.622,1.78,3.4,3.4,0,0,1-2.7-1.183c-.124-.1-.287-.243-.444-.367a59.62,59.62,0,0,0-1.592,6.67c-.862,4.214-1.437,6.863-2.179,8.105a2.437,2.437,0,0,1-1.864,1.3c-1.378.141-2.421-.986-3.26-1.893a6.915,6.915,0,0,0-.79-.78,9.381,9.381,0,0,1-1.534-1,6.047,6.047,0,0,0-1.219-.778,12.34,12.34,0,0,0-1.027,1.675c-.931,1.7-2.091,3.813-4.041,3.047-1.254-.491-1.9-2.085-2.938-4.86a19.194,19.194,0,0,0-1.381-3.177,6.649,6.649,0,0,0-.875.594,6.954,6.954,0,0,1-1.678,1.028c-.522.2-1.045.412-1.567.626-.8.327-1.619.665-2.451.948a4.816,4.816,0,0,1-1.841.167c-.942-.042-1.11.005-1.377.4a25.644,25.644,0,0,0-1.665,4.73c-.943,3.214-1.569,5.229-2.524,6.118a2.287,2.287,0,0,1-1.823.652c-1.316-.129-2.173-1.317-3-2.465a7.622,7.622,0,0,0-1.05-1.28c-.34-.254-.679-.521-1.019-.789a12.057,12.057,0,0,0-2.605-1.743,3.933,3.933,0,0,0-1.509-.131,6.979,6.979,0,0,1-2.357-.222,10.641,10.641,0,0,1-2.4-1.207,9.5,9.5,0,0,0-1.625-.867,11.164,11.164,0,0,1-1.155-.5c-.973-.468-1.266-.544-1.491-.392a11.741,11.741,0,0,0-1.633,2.613,13.586,13.586,0,0,1-2.138,3.315,7.127,7.127,0,0,1-4.31,1.881l-.447.071a11.624,11.624,0,0,1-3.618-.109c-.259-.036-.517-.072-.775-.1a25.022,25.022,0,0,1-4.215-.773,12.252,12.252,0,0,1-1.994-.846,7.486,7.486,0,0,0-1.81-.728,4.972,4.972,0,0,0-1.562.115,7.981,7.981,0,0,1-2.337.146,6.8,6.8,0,0,1-2.159-.761,3.294,3.294,0,0,0-1.35-.478,6.8,6.8,0,0,0-2.184,1.507c-.387.334-.774.668-1.161.964-.481.369-.977.832-1.5,1.323a15.18,15.18,0,0,1-2.633,2.123c-.192.111-.383.227-.574.343-1.23.747-2.914,1.771-4.748.949a7.283,7.283,0,0,1-2.633-2.953,8.944,8.944,0,0,0-1.352-1.837,5.287,5.287,0,0,0-1.006.517,5.764,5.764,0,0,1-2.146.887,7.023,7.023,0,0,0-.79.172,4.253,4.253,0,0,1-4.392-.781c-.766-.713-1.3-2.008-2.083-4.054-.184-.48-.429-1.118-.67-1.683-.339.937-.7,2.156-.964,3.024-.786,2.626-1.314,4.289-2.013,5.234a3.583,3.583,0,0,1-3.8,1.32,2.936,2.936,0,0,0-.68-.054,7.849,7.849,0,0,0-1.418,1.332,7.177,7.177,0,0,1-2.785,2.187c-1.919.618-3.676-.248-5.087-.945a9.764,9.764,0,0,1-2.232-1.728,6.875,6.875,0,0,0-1.606-1.272,2.988,2.988,0,0,0-1.461.04,6.589,6.589,0,0,1-2.231.091,7.009,7.009,0,0,1-2.128-.848,3.475,3.475,0,0,0-1.354-.541,6.291,6.291,0,0,0-2.053,1.394c-.427.365-.857.729-1.286,1.039a11.548,11.548,0,0,0-1.219,1.125c-1.04,1.049-2.115,2.135-3.543,2.215-1.34.076-2.307-.888-3.163-1.737a8.686,8.686,0,0,0-.89-.809,9.121,9.121,0,0,0-.728.7c-.832.861-2.226,2.3-3.939,1.4-1.052-.556-1.681-1.867-2.619-3.96a24.409,24.409,0,0,0-1.081-2.21c-.233.248-.506.589-.7.829a5.744,5.744,0,0,1-2.368,2.071,4.787,4.787,0,0,1-3.071-.181,3.261,3.261,0,0,0-1.157-.229,8.271,8.271,0,0,0-2.247.908c-.453.231-.9.46-1.356.655-.429.184-.855.408-1.283.63a11.516,11.516,0,0,1-2.982,1.213,9.618,9.618,0,0,1-3.075,0c-.411-.047-.822-.1-1.234-.108-.485-.013-.969-.015-1.453-.018-.838,0-1.7-.007-2.58-.068-.32-.023-.64-.03-.961-.039a9.775,9.775,0,0,1-3.446-.532,8.858,8.858,0,0,1-2.3-1.509,6.344,6.344,0,0,0-1.568-1.067,4.409,4.409,0,0,0-2.993.156,7.544,7.544,0,0,0-1.708,1.267,11.406,11.406,0,0,1-2.114,1.584,9.6,9.6,0,0,1-4.716,1.422,6.29,6.29,0,0,1-2.738-.95,4.956,4.956,0,0,0-1.368-.591,4.273,4.273,0,0,0-1.42.227,6.561,6.561,0,0,1-2.55.3,7.954,7.954,0,0,1-2.537-.923,6.333,6.333,0,0,0-1.5-.617,4,4,0,0,0-1.268.115,5.514,5.514,0,0,1-2.93-.034,6.05,6.05,0,0,1-2.3-1.817,10.772,10.772,0,0,0-.881-.885,14.843,14.843,0,0,0-1.178,1.775,9.012,9.012,0,0,1-2.273,2.9c-2.495,1.659-4.434,1.068-5.621.278a8.853,8.853,0,0,1-2.3-3.259c-.257-.492-.634-1.212-.946-1.694-.255.361-.548.847-.754,1.189-.775,1.287-1.507,2.5-2.642,2.88-1.526.509-2.8-.447-3.734-1.146a4.671,4.671,0,0,0-1.076-.687,6.364,6.364,0,0,0-3.228-.167,5.2,5.2,0,0,0-1.3.829,5.73,5.73,0,0,1-2.933,1.438,5.143,5.143,0,0,1-3.037-1.039,4.293,4.293,0,0,0-1.219-.607,5.393,5.393,0,0,0-1.887.31,12.011,12.011,0,0,1-1.723.383l-.709.1a16.274,16.274,0,0,1-3.567.218,8.814,8.814,0,0,1-2.181-.546,5.025,5.025,0,0,0-1.624-.4,4.065,4.065,0,0,0-1.239.459,5.333,5.333,0,0,1-2.965.725,6.486,6.486,0,0,1-2.868-1.413,6.238,6.238,0,0,0-1.372-.843l-.339-.11c-1.166-.384-1.914-.6-2.566-.31a7.32,7.32,0,0,0-1.435,1.532,7.8,7.8,0,0,1-2.528,2.384,4.941,4.941,0,0,1-3.45.036,4.685,4.685,0,0,0-1.123-.207,5.6,5.6,0,0,0-1.191.219,5.482,5.482,0,0,1-3.288.086,7.235,7.235,0,0,1-2.562-1.95,6.323,6.323,0,0,0-1.417-1.222,3.058,3.058,0,0,0-1.54.141,7.286,7.286,0,0,1-1.967.278,10.936,10.936,0,0,1-2.056-.3,6.745,6.745,0,0,0-1.768-.23,12.928,12.928,0,0,0-3.425.971l-.129.049a24.39,24.39,0,0,0-2.367,1.1c-.5.255-1,.509-1.5.742a10.521,10.521,0,0,0-1.124.659,5.736,5.736,0,0,1-3.621,1.28,6.239,6.239,0,0,1-3.211-1.77,8.6,8.6,0,0,0-1.3-.977,12.178,12.178,0,0,0-3.492-1.4,4.945,4.945,0,0,0-1.581.179,8.124,8.124,0,0,1-2.284.249,9.934,9.934,0,0,1-2.386-.56,7.886,7.886,0,0,0-1.615-.415l-.248-.023a6.382,6.382,0,0,0-3.028.17,7.385,7.385,0,0,0-1.646,1.258,10.416,10.416,0,0,1-2.226,1.672,8.917,8.917,0,0,1-4.76,1.093,10.812,10.812,0,0,1-4.2-1.618l-.362-.2a13.35,13.35,0,0,1-1.926-1.383,7.61,7.61,0,0,0-1.816-1.239,3.508,3.508,0,0,0-1.483.007,6.706,6.706,0,0,1-2.3.018,8.034,8.034,0,0,1-2.2-.92,4.5,4.5,0,0,0-1.521-.636,7,7,0,0,0-3.213,1.155,9.935,9.935,0,0,0-1.559,1.221,9.809,9.809,0,0,1-2.546,1.818,7.328,7.328,0,0,1-4.964.418,7.825,7.825,0,0,1-2.675-1.674,7.627,7.627,0,0,0-1.473-1.059,9.679,9.679,0,0,0-2.928-.6l-.616-.064a10.175,10.175,0,0,0-1.522-.01,10.443,10.443,0,0,1-2.584-.123,13,13,0,0,1-2.671-.968c-.517-.232-1.006-.451-1.473-.608a9.587,9.587,0,0,1-1.45-.667c-.56-.3-1.191-.634-1.45-.52a8.672,8.672,0,0,0-1.464,1.842,9.367,9.367,0,0,1-2.29,2.656,6.841,6.841,0,0,1-4.8.8l-.135-.014a13.135,13.135,0,0,1-3.95-1.273l-.467-.206a12.744,12.744,0,0,1-1.827-1.054,6.273,6.273,0,0,0-1.818-.959,3.141,3.141,0,0,0-1.22.269,5.205,5.205,0,0,1-2.777.365,6.345,6.345,0,0,1-2.517-1.4,4.763,4.763,0,0,0-1.3-.831,5.988,5.988,0,0,0-2.9,1.2l-.165.1a10.52,10.52,0,0,0-1.575,1.344,10.249,10.249,0,0,1-2.522,1.976,7.523,7.523,0,0,1-4.926.639,9.277,9.277,0,0,1-3.147-1.611c-.434-.3-.845-.578-1.237-.8a16.37,16.37,0,0,1-1.435-.942,5.608,5.608,0,0,0-1.942-1.071,3.885,3.885,0,0,0-1.528.6,8.556,8.556,0,0,1-1.953.836c-.255.062-.508.135-.762.208a6.593,6.593,0,0,1-4.038.23,5.856,5.856,0,0,1-2.383-2.022c-.219-.265-.544-.655-.8-.9a18.283,18.283,0,0,0-1.157,1.958,9.925,9.925,0,0,1-2.237,3.19,5.1,5.1,0,0,1-4.133.752c-.272-.039-.543-.08-.815-.095-.229-.013-.458-.017-.686-.022a6.866,6.866,0,0,1-4.042-1.042c-.051-.033-.13-.077-.226-.132-1.028-.591-3.758-2.161-4.369-5.44-.593-3.185-1.159-10.589-1.757-18.427-.234-3.062-.5-6.589-.78-9.775-.242,2.75-.477,5.716-.684,8.318-.612,7.718-1.19,15.008-1.806,17.619a2.078,2.078,0,0,1-1.464,1.664c-1.369.377-2.531-.778-3.648-1.931-.348.721-.74,1.693-1.016,2.378a14.74,14.74,0,0,1-2.187,4.246,4.747,4.747,0,0,1-5.548.959,8.585,8.585,0,0,1-2.984-2.321,13.07,13.07,0,0,0-1.383-1.312c-.36-.271-.72-.574-1.08-.878a6.817,6.817,0,0,0-2.005-1.37,6.269,6.269,0,0,0-.8.654c-.819.739-2.189,1.977-3.812,1.188-1.148-.559-1.912-2-2.8-3.673a11.523,11.523,0,0,0-1.484-2.4c-1.518-1.28-1.8-1.042-2.052-.832a14.841,14.841,0,0,0-1.689,3.313,16.749,16.749,0,0,1-2.115,4.03c-1.991,2.292-3.937,2.96-5.792,1.981-1.18-.624-2.049-2.191-2.969-3.85a17.706,17.706,0,0,0-1.455-2.358c-.283-.343-.566-.71-.849-1.077a12.193,12.193,0,0,0-1.848-2.077,12.106,12.106,0,0,0-.846,1.118c-.882,1.258-1.878,2.683-3.467,2.451-1.41-.207-2.28-1.652-3.2-3.18a9.141,9.141,0,0,0-1.287-1.836,1.692,1.692,0,0,0-2.257.216,13.33,13.33,0,0,0-1.74,2.92,16.234,16.234,0,0,1-2.114,3.5c-1.47,1.595-3.472,3.766-5.832,2.354-1.178-.705-2-2.445-2.951-4.46a21.665,21.665,0,0,0-1.474-2.8,20.122,20.122,0,0,0-3.678-4.166,6.169,6.169,0,0,0-1.959-.948,11.72,11.72,0,0,1-1.792-.742,7.588,7.588,0,0,1-1.767-1.5,10.9,10.9,0,0,0-.832-.806,26.12,26.12,0,0,0-1.259,2.9c-.932,2.384-1.556,3.878-2.579,4.526-1.844,1.168-3.409-.566-4.25-1.5a5.777,5.777,0,0,0-.948-.921,4.03,4.03,0,0,0-1.718.186,9.912,9.912,0,0,1-1.745.294c-.334.017-.667.064-1,.108a6.825,6.825,0,0,1-3.594-.209c-.1-.039-.22-.078-.357-.123a6.458,6.458,0,0,1-4.466-3.858,63.979,63.979,0,0,1-1.822-9c-.254-1.562-.573-3.52-.892-5.2-.19.91-.373,1.852-.528,2.648-.96,4.951-1.409,6.9-2.315,7.7a1.819,1.819,0,0,1-1.7.419c-1.329-.356-1.872-1.978-2.7-4.435-.081-.241-.176-.526-.278-.821-.371,1.346-.778,3.124-1.091,4.489a45.986,45.986,0,0,1-1.8,6.579c-1.488,3.452-2.594,5.74-4.352,6.067a2.242,2.242,0,0,1-2.052-.694c-.97-.991-1.578-3.385-2.571-7.531a39.6,39.6,0,0,0-1.677-5.9,2.442,2.442,0,0,0-1.482-1.338,5.172,5.172,0,0,1-2.4-1.955,23.89,23.89,0,0,1-1.858-4.518c-.294-.856-.714-2.077-1.092-2.969-.12.247-.236.495-.33.7-.757,1.624-1.411,3.026-2.707,3.27a1.958,1.958,0,0,1-1.727-.541c-.85-.811-1.313-2.615-2.244-6.845-.167-.762-.368-1.678-.575-2.542-.361,1.611-.73,3.583-1.019,5.129a72.546,72.546,0,0,1-1.658,7.588c-1.9,5.874-3.059,8.6-4.887,9.257a2.246,2.246,0,0,1-1.8-.152c-1.728-.858-3.3-3.772-4.093-6.279a85.258,85.258,0,0,1-1.859-9.592c-.427-2.648-.926-5.737-1.39-7.784l-.038.1c-.75,1.9-1.292,3.281-2.525,3.613a1.846,1.846,0,0,1-1.634-.35c-1.055-.834-1.676-2.946-2.683-6.606a28.98,28.98,0,0,0-1.643-5,8.627,8.627,0,0,0-1.475-1.9,72.712,72.712,0,0,0-1.918,9.122,87.679,87.679,0,0,1-1.847,9.05c-1.913,6.186-2.937,8.05-4.561,8.312a2.056,2.056,0,0,1-2.045-.936c-.882-1.235-1.5-4.637-2.443-10.085a71.706,71.706,0,0,0-1.723-8.362,5.984,5.984,0,0,0-2.312-3,8.738,8.738,0,0,1-1.411-1.313c-.385-.478-.772-.892-1.157-1.307a17.138,17.138,0,0,1-2.971-4.02,56.785,56.785,0,0,1-2.58-6.28c-.478-1.3-.971-2.636-1.451-3.8-.461-1.12-.911-2.661-1.345-4.153-.247-.848-.585-2.008-.911-2.966-.683,2.4-1.491,6.72-2.077,9.852-.257,1.372-.514,2.743-.77,4.049-.478,2.434-.973,6.722-1.451,10.869-1.461,12.674-1.814,14.165-3.433,14.5a1.7,1.7,0,0,1-1.836-.889c-.817-1.4-1.357-7.245-2.393-20.237-.579-7.256-1.177-14.76-1.756-17.915a7.361,7.361,0,0,0-2.645-4.284c-.2.233-.429.551-.591.774-.79,1.079-2.112,2.884-3.922,1.953-1.655-.852-3.1-3.316-4.7-7.989a63.885,63.885,0,0,1-1.608-7.9c-.175-1.039-.382-2.275-.6-3.458-.4,2.864-.818,6.593-1.163,9.68-.555,4.972-1.129,10.113-1.7,12.924l-.315,1.552c-1.844,9.148-2.519,11.486-4.418,11.638-.534.041-1.516-.114-2.092-1.65-.734-1.955-1.337-7.823-2.241-17.255-.592-6.173-1.205-12.556-1.8-15.442a8.817,8.817,0,0,0-2.678-4.581,8.79,8.79,0,0,1-1.088-1.281,9.424,9.424,0,0,0-1.036-1.245,12.076,12.076,0,0,1-3.106-5.158,88.475,88.475,0,0,1-1.78-9.707c-.355-2.334-.828-5.444-1.267-7.583a72.568,72.568,0,0,0-2.005,8.4c-.614,3.26-1.247,9.089-1.858,14.727-.724,6.668-1.407,12.967-2.125,16.08a6.883,6.883,0,0,1-4.292,4.853,2.129,2.129,0,0,1-2.206-.487c-1.487-1.551-2.628-5.789-4.332-12.586-.754-3.012-1.505-7.031-2.231-10.918-.577-3.089-1.174-6.283-1.758-8.9-.4-1.783-.8-4.035-1.186-6.212-.266-1.492-.594-3.336-.926-4.968-.283,2.041-.567,4.489-.807,6.553-1.256,10.814-1.555,12.11-2.906,12.608a1.628,1.628,0,0,1-1.678-.348c-.9-.836-1.226-3.086-2.342-16.047-.131-1.526-.275-3.205-.426-4.864-.325,4.059-.648,8.824-.94,13.112-.57,8.368-1.158,17.021-1.743,21.1a55.927,55.927,0,0,1-1.729,7.824c-1.2,3.967-2.07,4.812-3.157,4.932a1.866,1.866,0,0,1-1.953-1.346c-.928-2.445-1.77-10.772-2.662-19.588-.457-4.518-.93-9.19-1.393-12.778-.429-3.32-.863-7.9-1.283-12.323-.257-2.714-.554-5.848-.858-8.667-.36,4.371-.724,9.845-1.048,14.708-.616,9.258-1.2,18-1.8,21.786-.5,3.1-3.073,4.607-4.173,5.25-.137.08-.25.143-.326.2a5.268,5.268,0,0,1-1.975,1.017,2.323,2.323,0,0,0-1.641,1.176,42.1,42.1,0,0,0-2.366,6.612c-.49,1.6-1,3.259-1.5,4.648-.393,1.076-.8,2.391-1.191,3.662-1.272,4.121-2.054,6.495-3.34,7.373a2.042,2.042,0,0,1-1.665.307c-1.269-.319-1.986-1.7-2.816-3.3a9.974,9.974,0,0,0-1.133-1.882c-1.188-.713-1.666-.611-1.716-.6-.015,0-.062.017-.14.162a42.012,42.012,0,0,0-1.909,7.075,46.454,46.454,0,0,1-2.019,7.49,4.617,4.617,0,0,1-3.258,2.614c-.484.148-.764.24-.889.4a42.107,42.107,0,0,0-3.738,7.147l-.055.12c-.57,1.256-1.164,2.871-1.737,4.433a52.977,52.977,0,0,1-2.268,5.561c-1.8,3.473-3.086,5.477-4.754,6.125-1.621.632-2.771-.781-3.532-1.716-.085-.1-.193-.237-.3-.366a40.559,40.559,0,0,0-1.539,4.221,34.129,34.129,0,0,1-1.79,4.782,19.836,19.836,0,0,1-3.388,4.623c-.26.284-.521.567-.782.864a40.57,40.57,0,0,1-3.406,3.358l-.678.617c-.574.526-1.138.97-1.683,1.4a18.3,18.3,0,0,0-2.2,1.939,13.36,13.36,0,0,0-1.328,2.009c-1.042,1.771-2.026,3.444-3.616,3.568-1.607.126-2.46-1.5-3.3-3.064-.112-.209-.253-.473-.4-.729-.349.878-.742,2.112-1.015,2.97-.875,2.754-1.458,4.482-2.368,5.279a2.322,2.322,0,0,1-2.906.178,7.066,7.066,0,0,1-1.445-1.369,9.491,9.491,0,0,0-.674-.718,8.821,8.821,0,0,0-1.108.922,6.834,6.834,0,0,1-2.312,1.61,6.152,6.152,0,0,1-2.855.134,4.744,4.744,0,0,0-1.33-.053,10.933,10.933,0,0,0-2.1.719c-.543.226-1.105.458-1.689.643-.282.088-.563.181-.844.274a17.734,17.734,0,0,1-3.394.877,6.686,6.686,0,0,1-2.126-.161,2.725,2.725,0,0,0-1.457-.065,6.694,6.694,0,0,0-1.421,1.316,7.258,7.258,0,0,1-2.611,2.107,5.173,5.173,0,0,1-3.4-.164,5.522,5.522,0,0,0-1.158-.265,26.542,26.542,0,0,0-3.759.112c-.593.055-1.2.167-1.846.287-.686.127-1.395.258-2.127.324-.866.079-1.715.084-2.535.089-.5,0-1.006,0-1.508.026-1.208.05-2.576.107-3.912.216-.554.045-1.107.118-1.661.191-.763.1-1.552.2-2.358.242C432.045,3240.024,431.678,3240.031,431.313,3240.031Zm659.617-10.7h0Zm79.285-3.482Zm-328.824-.854Zm-352.563-1.7h0Zm321.167-2.681h0Zm508.5-5.626Zm15.432-12.888Zm-610.61-3.766h0Zm681.068-25.612h0Zm110.86-32.689c.012.015.026.032.042.049C1515.269,3140.063,1515.254,3140.047,1515.241,3140.03Zm-926.845-33.6"/><text class="e" transform="translate(404.231 3243.327)"><tspan x="0" y="0">0</tspan></text><text class="e" transform="translate(404.231 3201.315)"><tspan x="0" y="0">2</tspan></text><text class="e" transform="translate(404.231 3159.302)"><tspan x="0" y="0">4</tspan></text><text class="e" transform="translate(404.231 3117.289)"><tspan x="0" y="0">6</tspan></text><text class="e" transform="translate(404.231 3075.277)"><tspan x="0" y="0">8</tspan></text><text class="e" transform="translate(395.6 3033.254)"><tspan x="0" y="0">10</tspan></text><text class="e" transform="translate(395.6 2991.241)"><tspan x="0" y="0">12</tspan></text><text class="e" transform="translate(398.134 3263.997)"><tspan x="0" y="0">1/3/2020</tspan></text><text class="e" transform="translate(521.234 3263.997)"><tspan x="0" y="0">1/4/2020</tspan></text><text class="e" transform="translate(640.361 3263.997)"><tspan x="0" y="0">1/5/2020</tspan></text><text class="e" transform="translate(763.46 3263.997)"><tspan x="0" y="0">1/6/2020</tspan></text><text class="e" transform="translate(882.598 3263.997)"><tspan x="0" y="0">1/7/2020</tspan></text><text class="e" transform="translate(1005.686 3263.997)"><tspan x="0" y="0">1/8/2020</tspan></text><text class="e" transform="translate(1128.788 3263.997)"><tspan x="0" y="0">1/9/2020</tspan></text><text class="e" transform="translate(1243.889 3263.997)"><tspan x="0" y="0">1/10/2020</tspan></text><text class="e" transform="translate(1366.989 3263.997)"><tspan x="0" y="0">1/11/2020</tspan></text></g></svg>