<svg xmlns="http://www.w3.org/2000/svg" width="1153.883" height="421.568" viewBox="0 0 1153.883 421.568"><defs><style>.a{fill:#fff;}.a,.b{stroke:#a7a9ac;stroke-miterlimit:10;stroke-width:1.417px;}.b,.c,.f{fill:none;}.c{fill-rule:evenodd;}.d{fill:#d02f34;}.e{fill:#606060;font-size:14.314px;font-family:IBMPlexSans, IBM Plex Sans;}</style></defs><g transform="translate(-381.466 -3089.238)"><path class="a" d="M382.174,3089.947H1534.64V3510.1H382.174v-420.15Z"/><line class="b" x2="1093.671" transform="translate(425.638 3165.25)"/><path class="c" d="M382.006,3510.1H1534.64v-420.15H382.006V3510.1Z"/><path class="d" d="M887.473,3453.3c-4.1,0-8.1-1.757-11.826-3.394-3.346-1.469-6.5-2.855-9.613-3.1-3.371-.261-6.742-.479-10.113-.7-6.655-.43-13.536-.875-20.324-1.663-2.726-.317-5.717.248-8.882.846-7.246,1.37-15.459,2.923-22.556-6.148-4.89-6.25-9.513-20.666-14.408-35.929-4.994-15.574-10.656-33.227-15.628-36.693a2.653,2.653,0,0,0-2.2-.51c-3.584.795-7.927,8.281-11.759,14.886-5.118,8.822-9.958,17.152-15.7,16.487-5.924-.688-11.093-9.9-16.565-19.649-4.521-8.057-9.646-17.189-13.93-18.018-4.073-.787-9.142,6.175-13.611,12.32-5.511,7.577-10.713,14.738-16.766,13.563-6.1-1.18-11.517-10.294-17.257-19.944-4.538-7.626-9.228-15.512-13.572-17.867-7.388-4.007-14.87-.922-22.79,2.342-2.062.85-4.2,1.729-6.313,2.468-3.757,1.309-7.738,4.6-11.587,7.775-6.309,5.21-12.833,10.6-19.723,8.729-6.989-1.9-13.42-10.628-20.229-19.873-3.574-4.852-7.268-9.87-10.855-13.482-3.126-3.148-6.272-7.054-9.315-10.832-6.706-8.327-13.64-16.937-19.941-16.937-4.252,0-9.159,6.842-13.9,13.459-5.45,7.6-10.6,14.777-16.472,14.777-7.813,0-14.9-8.8-22.4-18.115-2.992-3.715-6.085-7.556-9.1-10.588-6.777-6.824-13.652-14.458-20.3-21.841-3.317-3.682-6.746-7.49-10.116-11.144a1.58,1.58,0,1,1,2.323-2.141c3.382,3.668,6.817,7.482,10.14,11.171,6.624,7.355,13.473,14.96,20.2,21.729,3.126,3.148,6.272,7.055,9.314,10.833,6.706,8.327,13.64,16.937,19.941,16.937,4.252,0,9.16-6.842,13.9-13.459,5.45-7.6,10.6-14.777,16.472-14.777,7.813,0,14.9,8.8,22.4,18.114,2.992,3.715,6.086,7.557,9.1,10.589,3.751,3.777,7.516,8.889,11.157,13.833,6.189,8.4,12.588,17.092,18.513,18.7,5.312,1.442,10.933-3.2,16.884-8.115,4.065-3.357,8.267-6.827,12.559-8.323,2.035-.71,4.127-1.572,6.149-2.405,8.255-3.4,16.792-6.921,25.5-2.2,5.108,2.769,9.806,10.667,14.78,19.028,4.893,8.225,10.439,17.547,15.144,18.458,4.068.788,9.141-6.175,13.61-12.32,5.512-7.577,10.717-14.737,16.766-13.563,5.722,1.107,10.755,10.077,16.085,19.573,4.618,8.229,9.851,17.555,14.174,18.057,3.7.439,8.423-7.734,12.6-14.934,4.561-7.863,8.87-15.29,13.807-16.385a5.756,5.756,0,0,1,4.691,1c5.847,4.076,11.181,20.71,16.829,38.32,4.6,14.327,9.346,29.141,13.888,34.947,5.912,7.555,12.5,6.311,19.481,4.991,3.258-.616,6.629-1.254,9.834-.881,6.707.78,13.547,1.221,20.162,1.648,3.384.219,6.769.437,10.154.7,3.643.282,7.2,1.843,10.638,3.353,6.713,2.946,12.509,5.49,18.5-.539,4.609-4.642,9.482-17.867,14.194-30.658,5.512-14.963,10.719-29.1,16.4-33.057,7.513-5.237,14.742,3.22,21.12,10.681,3.622,4.237,7.367,8.618,10.87,10.382a67.2,67.2,0,0,1,8.305,5.317c7.43,5.276,13.848,9.834,20.337,4.3,4.757-4.053,9.831-17.22,14.738-29.954,5.281-13.7,10.271-26.651,15.639-31.225,6.507-5.545,12.923-.564,18.581,3.831,4.379,3.4,8.512,6.612,12.3,5.292,4.778-1.666,9.946-8.425,14.943-14.962,4.934-6.454,10.035-13.127,15.287-15.569,6.388-2.968,12.633-1.25,18.671.412,4.232,1.165,8.231,2.265,12.189,1.8,5.043-.586,10.283-2.668,15.349-4.681,4.875-1.937,9.917-3.941,14.969-4.723,4.807-.745,9.593-.223,14.221.282,5.527.6,10.749,1.173,15.984-.246,3.921-1.063,8.109-4.513,12.159-7.85,6.073-5,12.358-10.176,18.987-8.635,6.179,1.435,11.811,8.8,17.774,16.6,4.338,5.675,8.824,11.544,13.078,14.18,10.85,6.725,19.861,11.509,28.834,6.991,4.46-2.245,9.288-10.249,13.957-17.989,5.569-9.231,10.829-17.95,16.662-19.758,6.872-2.128,13.3,3.979,19.52,9.886,3.947,3.749,8.028,7.626,11.843,8.956l1.269.444c9.655,3.381,18.777,6.573,27.879,1.99,8.113-4.085,16.579-15.179,24.766-25.909,1.693-2.217,3.385-4.434,5.077-6.6,4.622-5.908,9.35-13.474,13.923-20.791,5.393-8.627,10.969-17.548,16.5-23.974,7.993-9.286,16.073-15.267,23.887-21.051,2.2-1.632,4.485-3.319,6.721-5.051,9.052-7.013,19.761-15.027,30.551-21.294a180.146,180.146,0,0,1,20.423-9.761c3.307-1.409,6.727-2.866,10.08-4.425a1.58,1.58,0,0,1,1.332,2.865c-3.4,1.579-6.844,3.047-10.174,4.466a177.53,177.53,0,0,0-20.074,9.586c-10.63,6.175-21.234,14.111-30.2,21.06-2.263,1.753-4.557,3.451-6.775,5.093-7.675,5.68-15.611,11.554-23.372,20.572-5.374,6.244-10.885,15.061-16.215,23.589-4.616,7.386-9.39,15.023-14.114,21.062-1.685,2.153-3.369,4.36-5.053,6.567-8.405,11.013-17.1,22.4-25.858,26.813-10.3,5.186-20.488,1.62-30.343-1.83l-1.264-.442c-4.459-1.554-8.791-5.669-12.979-9.649-5.558-5.279-11.3-10.742-16.409-9.158-4.686,1.451-9.874,10.053-14.893,18.371-5.126,8.5-9.969,16.524-15.242,19.18-11.263,5.671-22.717-1.425-31.918-7.128-4.747-2.941-9.412-9.045-13.924-14.947-5.361-7.015-10.9-14.268-15.978-15.447-5.123-1.19-10.531,3.273-16.264,8-4.309,3.549-8.764,7.22-13.342,8.461-5.81,1.576-11.577.946-17.153.337-4.628-.5-9-.981-13.4-.3-4.7.728-9.573,2.665-14.285,4.537-5.258,2.089-10.694,4.249-16.151,4.883-4.569.532-9.054-.7-13.392-1.9-5.74-1.579-11.165-3.073-16.5-.592-4.547,2.113-9.408,8.472-14.109,14.622-5.524,7.225-10.74,14.049-16.414,16.027-5.407,1.885-10.424-2.012-15.276-5.78-6.251-4.854-10.351-7.539-14.6-3.922-4.758,4.054-9.833,17.223-14.741,29.957-5.281,13.705-10.269,26.649-15.636,31.223-8.362,7.125-16.784,1.144-24.215-4.133a65.072,65.072,0,0,0-7.9-5.071c-4.07-2.05-8.025-6.676-11.85-11.151-7.1-8.3-12.107-13.494-16.912-10.141-4.867,3.392-10.142,17.71-15.243,31.557-5.052,13.712-9.823,26.662-14.917,31.792C894.265,3452.117,890.837,3453.3,887.473,3453.3Z"/><text class="e" transform="translate(452.73 3277.648)"><tspan x="0" y="0">46</tspan></text><rect class="f" width="1152.634" height="420.15" transform="translate(382.006 3089.947)"/><path class="c" d="M382.006,3510.1H1534.64v-420.15H382.006V3510.1Z"/><text class="e" transform="translate(483.111 3310.596)"><tspan x="0" y="0">60</tspan></text><rect class="f" width="1152.634" height="420.15" transform="translate(382.006 3089.947)"/><path class="c" d="M382.006,3510.1H1534.64v-420.15H382.006V3510.1Z"/><text class="e" transform="translate(513.491 3338.838)"><tspan x="0" y="0">72</tspan></text><rect class="f" width="1152.634" height="420.15" transform="translate(382.006 3089.947)"/><path class="c" d="M382.006,3510.1H1534.64v-420.15H382.006V3510.1Z"/><text class="e" transform="translate(543.872 3310.596)"><tspan x="0" y="0">60</tspan></text><rect class="f" width="1152.634" height="420.15" transform="translate(382.006 3089.947)"/><path class="c" d="M382.006,3510.1H1534.64v-420.15H382.006V3510.1Z"/><text class="e" transform="translate(574.252 3338.838)"><tspan x="0" y="0">72</tspan></text><rect class="f" width="1152.634" height="420.15" transform="translate(382.006 3089.947)"/><path class="c" d="M382.006,3510.1H1534.64v-420.15H382.006V3510.1Z"/><text class="e" transform="translate(604.622 3376.263)"><tspan x="0" y="0">86</tspan></text><rect class="f" width="1152.634" height="420.15" transform="translate(382.006 3089.947)"/><path class="c" d="M382.006,3510.1H1534.64v-420.15H382.006V3510.1Z"/><text class="e" transform="translate(635.002 3359.801)"><tspan x="0" y="0">79</tspan></text><rect class="f" width="1152.634" height="420.15" transform="translate(382.006 3089.947)"/><path class="c" d="M382.006,3510.1H1534.64v-420.15H382.006V3510.1Z"/><text class="e" transform="translate(665.383 3350.596)"><tspan x="0" y="0">77</tspan></text><rect class="f" width="1152.634" height="420.15" transform="translate(382.006 3089.947)"/><path class="c" d="M382.006,3510.1H1534.64v-420.15H382.006V3510.1Z"/><text class="e" transform="translate(695.764 3388.247)"><tspan x="0" y="0">93</tspan></text><rect class="f" width="1152.634" height="420.15" transform="translate(382.006 3089.947)"/><path class="c" d="M382.006,3510.1H1534.64v-420.15H382.006V3510.1Z"/><text class="e" transform="translate(726.145 3362.363)"><tspan x="0" y="0">82</tspan></text><rect class="f" width="1152.634" height="420.15" transform="translate(382.006 3089.947)"/><path class="c" d="M382.006,3510.1H1534.64v-420.15H382.006V3510.1Z"/><text class="e" transform="translate(756.525 3400.005)"><tspan x="0" y="0">98</tspan></text><rect class="f" width="1152.634" height="420.15" transform="translate(382.006 3089.947)"/><path class="c" d="M382.006,3510.1H1534.64v-420.15H382.006V3510.1Z"/><text class="e" transform="translate(786.906 3369.427)"><tspan x="0" y="0">85</tspan></text><rect class="f" width="1152.634" height="420.15" transform="translate(382.006 3089.947)"/><path class="c" d="M382.006,3510.1H1534.64v-420.15H382.006V3510.1Z"/><text class="e" transform="translate(817.287 3437.862)"><tspan x="0" y="0">116</tspan></text><rect class="f" width="1152.634" height="420.15" transform="translate(382.006 3089.947)"/><path class="c" d="M382.006,3510.1H1534.64v-420.15H382.006V3510.1Z"/><text class="e" transform="translate(847.656 3439.511)"><tspan x="0" y="0">118</tspan></text><rect class="f" width="1152.634" height="420.15" transform="translate(382.006 3089.947)"/><path class="c" d="M382.006,3510.1H1534.64v-420.15H382.006V3510.1Z"/><text class="e" transform="translate(876.052 3438.713)"><tspan x="0" y="0">119</tspan></text><rect class="f" width="1152.634" height="420.15" transform="translate(382.006 3089.947)"/><path class="c" d="M382.006,3510.1H1534.64v-420.15H382.006V3510.1Z"/><text class="e" transform="translate(907.567 3451.772)"><tspan x="0" y="0">120</tspan></text><rect class="f" width="1152.634" height="420.15" transform="translate(382.006 3089.947)"/><path class="c" d="M382.006,3510.1H1534.64v-420.15H382.006V3510.1Z"/><text class="e" transform="translate(938.798 3383.747)"><tspan x="0" y="0">93</tspan></text><rect class="f" width="1152.634" height="420.15" transform="translate(382.006 3089.947)"/><path class="c" d="M382.006,3510.1H1534.64v-420.15H382.006V3510.1Z"/><text class="e" transform="translate(969.167 3399.154)"><tspan x="0" y="0">102</tspan></text><rect class="f" width="1152.634" height="420.15" transform="translate(382.006 3089.947)"/><path class="c" d="M382.006,3510.1H1534.64v-420.15H382.006V3510.1Z"/><text class="e" transform="translate(999.548 3418.825)"><tspan x="0" y="0">106</tspan></text><rect class="f" width="1152.634" height="420.15" transform="translate(382.006 3089.947)"/><path class="c" d="M382.006,3510.1H1534.64v-420.15H382.006V3510.1Z"/><text class="e" transform="translate(1029.929 3350.596)"><tspan x="0" y="0">80</tspan></text><rect class="f" width="1152.634" height="420.15" transform="translate(382.006 3089.947)"/><path class="c" d="M382.006,3510.1H1534.64v-420.15H382.006V3510.1Z"/><text class="e" transform="translate(1060.31 3367.908)"><tspan x="0" y="0">84</tspan></text><rect class="f" width="1152.634" height="420.15" transform="translate(382.006 3089.947)"/><path class="c" d="M382.006,3510.1H1534.64v-420.15H382.006V3510.1Z"/><text class="e" transform="translate(1090.69 3326.627)"><tspan x="0" y="0">71</tspan></text><rect class="f" width="1152.634" height="420.15" transform="translate(382.006 3089.947)"/><path class="c" d="M382.006,3510.1H1534.64v-420.15H382.006V3510.1Z"/><text class="e" transform="translate(1121.071 3344.966)"><tspan x="0" y="0">72</tspan></text><rect class="f" width="1152.634" height="420.15" transform="translate(382.006 3089.947)"/><path class="c" d="M382.006,3510.1H1534.64v-420.15H382.006V3510.1Z"/><text class="e" transform="translate(1151.452 3321.417)"><tspan x="0" y="0">68</tspan></text><rect class="f" width="1152.634" height="420.15" transform="translate(382.006 3089.947)"/><path class="c" d="M382.006,3510.1H1534.64v-420.15H382.006V3510.1Z"/><text class="e" transform="translate(1181.821 3329.984)"><tspan x="0" y="0">68</tspan></text><rect class="f" width="1152.634" height="420.15" transform="translate(382.006 3089.947)"/><path class="c" d="M382.006,3510.1H1534.64v-420.15H382.006V3510.1Z"/><text class="e" transform="translate(1212.202 3312.954)"><tspan x="0" y="0">61</tspan></text><rect class="f" width="1152.634" height="420.15" transform="translate(382.006 3089.947)"/><path class="c" d="M382.006,3510.1H1534.64v-420.15H382.006V3510.1Z"/><text class="e" transform="translate(1242.582 3342.692)"><tspan x="0" y="0">74</tspan></text><rect class="f" width="1152.634" height="420.15" transform="translate(382.006 3089.947)"/><path class="c" d="M382.006,3510.1H1534.64v-420.15H382.006V3510.1Z"/><text class="e" transform="translate(1272.963 3351.163)"><tspan x="0" y="0">77</tspan></text><rect class="f" width="1152.634" height="420.15" transform="translate(382.006 3089.947)"/><path class="c" d="M382.006,3510.1H1534.64v-420.15H382.006V3510.1Z"/><text class="e" transform="translate(1303.344 3310.686)"><tspan x="0" y="0">61</tspan></text><rect class="f" width="1152.634" height="420.15" transform="translate(382.006 3089.947)"/><path class="c" d="M382.006,3510.1H1534.64v-420.15H382.006V3510.1Z"/><text class="e" transform="translate(1333.724 3326.388)"><tspan x="0" y="0">69</tspan></text><rect class="f" width="1152.634" height="420.15" transform="translate(382.006 3089.947)"/><path class="c" d="M382.006,3510.1H1534.64v-420.15H382.006V3510.1Z"/><text class="e" transform="translate(1364.105 3335.256)"><tspan x="0" y="0">70</tspan></text><rect class="f" width="1152.634" height="420.15" transform="translate(382.006 3089.947)"/><path class="c" d="M382.006,3510.1H1534.64v-420.15H382.006V3510.1Z"/><text class="e" transform="translate(1394.475 3299.201)"><tspan x="0" y="0">56</tspan></text><rect class="f" width="1152.634" height="420.15" transform="translate(382.006 3089.947)"/><path class="c" d="M382.006,3510.1H1534.64v-420.15H382.006V3510.1Z"/><text class="e" transform="translate(1424.855 3255.631)"><tspan x="0" y="0">37</tspan></text><rect class="f" width="1152.634" height="420.15" transform="translate(382.006 3089.947)"/><path class="c" d="M382.006,3510.1H1534.64v-420.15H382.006V3510.1Z"/><text class="e" transform="translate(1455.236 3231.731)"><tspan x="0" y="0">26</tspan></text><rect class="f" width="1152.634" height="420.15" transform="translate(382.006 3089.947)"/><path class="c" d="M382.006,3510.1H1534.64v-420.15H382.006V3510.1Z"/><text class="e" transform="translate(1485.617 3212.254)"><tspan x="0" y="0">17</tspan></text><rect class="f" width="1152.634" height="420.15" transform="translate(382.006 3089.947)"/><path class="c" d="M382.006,3510.1H1534.64v-420.15H382.006V3510.1Z"/><text class="e" transform="translate(1510.6 3195.292)"><tspan x="0" y="0">11</tspan></text><rect class="f" width="1152.634" height="420.15" transform="translate(382.006 3089.947)"/><path class="c" d="M382.006,3510.1H1534.64v-420.15H382.006V3510.1Z"/><text class="e" transform="translate(405.502 3169.134)"><tspan x="0" y="0">0</tspan></text><rect class="f" width="1152.634" height="420.15" transform="translate(382.006 3089.947)"/><path class="c" d="M382.006,3510.1H1534.64v-420.15H382.006V3510.1Z"/><text class="e" transform="translate(396.914 3216.186)"><tspan x="0" y="0">20</tspan></text><rect class="f" width="1152.634" height="420.15" transform="translate(382.006 3089.947)"/><path class="c" d="M382.006,3510.1H1534.64v-420.15H382.006V3510.1Z"/><text class="e" transform="translate(396.914 3263.259)"><tspan x="0" y="0">40</tspan></text><rect class="f" width="1152.634" height="420.15" transform="translate(382.006 3089.947)"/><path class="c" d="M382.006,3510.1H1534.64v-420.15H382.006V3510.1Z"/><text class="e" transform="translate(396.914 3310.311)"><tspan x="0" y="0">60</tspan></text><rect class="f" width="1152.634" height="420.15" transform="translate(382.006 3089.947)"/><path class="c" d="M382.006,3510.1H1534.64v-420.15H382.006V3510.1Z"/><text class="e" transform="translate(396.914 3357.373)"><tspan x="0" y="0">80</tspan></text><rect class="f" width="1152.634" height="420.15" transform="translate(382.006 3089.947)"/><path class="c" d="M382.006,3510.1H1534.64v-420.15H382.006V3510.1Z"/><text class="e" transform="translate(388.169 3404.436)"><tspan x="0" y="0">100</tspan></text><rect class="f" width="1152.634" height="420.15" transform="translate(382.006 3089.947)"/><path class="c" d="M382.006,3510.1H1534.64v-420.15H382.006V3510.1Z"/><text class="e" transform="translate(388.169 3451.487)"><tspan x="0" y="0">120</tspan></text><rect class="f" width="1152.634" height="420.15" transform="translate(382.006 3089.947)"/><path class="c" d="M382.006,3510.1H1534.64v-420.15H382.006V3510.1Z"/><text class="e" transform="translate(388.169 3498.55)"><tspan x="0" y="0">140</tspan></text><rect class="f" width="1152.634" height="420.15" transform="translate(382.006 3089.947)"/><path class="c" d="M382.006,3510.1H1534.64v-420.15H382.006V3510.1Z"/><text class="e" transform="translate(433.711 3150.873)"><tspan x="0" y="0">14</tspan></text><rect class="f" width="1152.634" height="420.15" transform="translate(382.006 3089.947)"/><path class="c" d="M382.006,3510.1H1534.64v-420.15H382.006V3510.1Z"/><text class="e" transform="translate(494.473 3150.873)"><tspan x="0" y="0">16</tspan></text><rect class="f" width="1152.634" height="420.15" transform="translate(382.006 3089.947)"/><path class="c" d="M382.006,3510.1H1534.64v-420.15H382.006V3510.1Z"/><text class="e" transform="translate(555.234 3150.873)"><tspan x="0" y="0">18</tspan></text><rect class="f" width="1152.634" height="420.15" transform="translate(382.006 3089.947)"/><path class="c" d="M382.006,3510.1H1534.64v-420.15H382.006V3510.1Z"/><text class="e" transform="translate(615.996 3150.873)"><tspan x="0" y="0">20</tspan></text><rect class="f" width="1152.634" height="420.15" transform="translate(382.006 3089.947)"/><path class="c" d="M382.006,3510.1H1534.64v-420.15H382.006V3510.1Z"/><text class="e" transform="translate(676.746 3150.873)"><tspan x="0" y="0">22</tspan></text><rect class="f" width="1152.634" height="420.15" transform="translate(382.006 3089.947)"/><path class="c" d="M382.006,3510.1H1534.64v-420.15H382.006V3510.1Z"/><text class="e" transform="translate(737.497 3150.873)"><tspan x="0" y="0">24</tspan></text><rect class="f" width="1152.634" height="420.15" transform="translate(382.006 3089.947)"/><path class="c" d="M382.006,3510.1H1534.64v-420.15H382.006V3510.1Z"/><text class="e" transform="translate(798.257 3150.873)"><tspan x="0" y="0">26</tspan></text><rect class="f" width="1152.634" height="420.15" transform="translate(382.006 3089.947)"/><path class="c" d="M382.006,3510.1H1534.64v-420.15H382.006V3510.1Z"/><text class="e" transform="translate(859.019 3150.873)"><tspan x="0" y="0">28</tspan></text><rect class="f" width="1152.634" height="420.15" transform="translate(382.006 3089.947)"/><path class="c" d="M382.006,3510.1H1534.64v-420.15H382.006V3510.1Z"/><text class="e" transform="translate(919.78 3150.873)"><tspan x="0" y="0">30</tspan></text><rect class="f" width="1152.634" height="420.15" transform="translate(382.006 3089.947)"/><path class="c" d="M382.006,3510.1H1534.64v-420.15H382.006V3510.1Z"/><text class="e" transform="translate(980.531 3150.873)"><tspan x="0" y="0">32</tspan></text><rect class="f" width="1152.634" height="420.15" transform="translate(382.006 3089.947)"/><path class="c" d="M382.006,3510.1H1534.64v-420.15H382.006V3510.1Z"/><text class="e" transform="translate(1041.291 3150.873)"><tspan x="0" y="0">34</tspan></text><rect class="f" width="1152.634" height="420.15" transform="translate(382.006 3089.947)"/><path class="c" d="M382.006,3510.1H1534.64v-420.15H382.006V3510.1Z"/><text class="e" transform="translate(1102.041 3150.873)"><tspan x="0" y="0">36</tspan></text><rect class="f" width="1152.634" height="420.15" transform="translate(382.006 3089.947)"/><path class="c" d="M382.006,3510.1H1534.64v-420.15H382.006V3510.1Z"/><text class="e" transform="translate(1162.803 3150.873)"><tspan x="0" y="0">38</tspan></text><rect class="f" width="1152.634" height="420.15" transform="translate(382.006 3089.947)"/><path class="c" d="M382.006,3510.1H1534.64v-420.15H382.006V3510.1Z"/><text class="e" transform="translate(1223.564 3150.873)"><tspan x="0" y="0">40</tspan></text><rect class="f" width="1152.634" height="420.15" transform="translate(382.006 3089.947)"/><path class="c" d="M382.006,3510.1H1534.64v-420.15H382.006V3510.1Z"/><text class="e" transform="translate(1284.326 3150.873)"><tspan x="0" y="0">42</tspan></text><rect class="f" width="1152.634" height="420.15" transform="translate(382.006 3089.947)"/><path class="c" d="M382.006,3510.1H1534.64v-420.15H382.006V3510.1Z"/><text class="e" transform="translate(1345.076 3150.873)"><tspan x="0" y="0">44</tspan></text><rect class="f" width="1152.634" height="420.15" transform="translate(382.006 3089.947)"/><path class="c" d="M382.006,3510.1H1534.64v-420.15H382.006V3510.1Z"/><text class="e" transform="translate(1405.827 3150.873)"><tspan x="0" y="0">46</tspan></text><rect class="f" width="1152.634" height="420.15" transform="translate(382.006 3089.947)"/><path class="c" d="M382.006,3510.1H1534.64v-420.15H382.006V3510.1Z"/><text class="e" transform="translate(1466.587 3150.873)"><tspan x="0" y="0">48</tspan></text><rect class="f" width="1152.634" height="420.15" transform="translate(382.006 3089.947)"/><path class="c" d="M382.006,3510.1H1534.64v-420.15H382.006V3510.1Z"/><rect class="f" width="1152.634" height="420.15" transform="translate(382.006 3089.947)"/><path class="c" d="M382.006,3510.1H1534.64v-420.15H382.006V3510.1Z"/><rect class="f" width="1152.634" height="420.15" transform="translate(382.006 3089.947)"/><path class="c" d="M382.006,3510.1H1534.64v-420.15H382.006V3510.1Z"/><rect class="f" width="1152.634" height="420.15" transform="translate(382.006 3089.947)"/><path class="c" d="M382.006,3510.1H1534.64v-420.15H382.006V3510.1Z"/><path class="c" d="M381.669,3510.6H1535.145V3089.441H381.669V3510.6Z"/></g></svg>