<svg xmlns="http://www.w3.org/2000/svg" width="880.777" height="511.417" viewBox="0 0 880.777 511.417"><defs><style>.a{fill:#fff;fill-rule:evenodd;}.a,.b{stroke:#a7a9ac;stroke-miterlimit:10;stroke-width:1.417px;}.b{fill:none;}.c{fill:#d02f34;}.d{fill:#222b3e;}.e{fill:#606060;font-size:14.314px;font-family:IBMPlexSans, IBM Plex Sans;}</style></defs><g transform="translate(-532.205 -4146.354)"><path class="a" d="M532.913,4147.062h879.36v510H532.913v-510Z"/><path class="b" d="M590.033,4512.1h800.16m-800.16-53.04h800.16m-800.16-52.8h800.16m-800.16-52.8h800.16m-800.16-52.8h800.16m-800.16-53.04h800.16"/><line class="b" x2="800.16" transform="translate(590.033 4564.902)"/><path class="b" d="M590.033,4564.9v5.76m90-5.76v5.76m87.36-5.76v5.76m90.24-5.76v5.76m87.36-5.76v5.76m90.24-5.76v5.76m90.24-5.76v5.76m87.12-5.76v5.76m90.24-5.76v5.76m87.36-5.76v5.76"/><path class="c" d="M1091.993,4566.439a1.407,1.407,0,0,1-.713-.193l-2.439-1.422-2.374.4a1.551,1.551,0,0,1-.233.019h-6a1.564,1.564,0,0,1-.234-.019l-2.646-.441-2.647.441a1.418,1.418,0,0,1-.867-.13l-2.247-1.124-2.246,1.123a1.408,1.408,0,0,1-.4.131l-2.88.48a1.575,1.575,0,0,1-.234.019h-8.7l-2.711.678a1.423,1.423,0,0,1-.344.042h-2.879a1.424,1.424,0,0,1-.344-.042l-2.536-.634-2.536.634a1.426,1.426,0,0,1-.688,0l-2.816-.7-2.662-.41-2.514,1.047a1.415,1.415,0,0,1-1.259-.084l-2.166-1.263-2.166,1.263a1.422,1.422,0,0,1-.714.193h-2.88a1.422,1.422,0,0,1-.343-.042l-2.537-.634-2.536.634a1.422,1.422,0,0,1-.687,0l-2.55-.638-2.788.644a1.427,1.427,0,0,1-.318.036h-2.88a1.423,1.423,0,0,1-.344-.042l-2.88-.72c-.035-.009-.07-.019-.1-.031l-2.546-.848-5.359.892-2.824.707a1.429,1.429,0,0,1-.344.042h-2.88a1.427,1.427,0,0,1-.318-.036l-2.788-.644-2.55.638a1.423,1.423,0,0,1-.344.042h-23.28a1.435,1.435,0,0,1-.344-.042l-2.536-.634-2.536.634a1.423,1.423,0,0,1-.344.042H946.314a1.43,1.43,0,0,1-.344-.042l-2.536-.634-2.537.634a1.435,1.435,0,0,1-.344.042h-8.64a1.427,1.427,0,0,1-.343-.042l-2.537-.634-2.536.634a1.421,1.421,0,0,1-.343.042h-8.88a1.429,1.429,0,0,1-.344-.042l-2.711-.678h-5.585a1.53,1.53,0,0,1-.233-.019l-2.647-.441-2.648.441a1.541,1.541,0,0,1-.233.019h-2.945l-2.711.678a1.429,1.429,0,0,1-.344.042h-11.52a1.427,1.427,0,0,1-.343-.042l-2.825-.707-2.68-.446-11.555.471-5.7.713a1.415,1.415,0,0,1-1.026-.272l-2.029-1.523-2.03,1.523a1.419,1.419,0,0,1-.851.283h-6a1.421,1.421,0,0,1-.545-.109l-2.335-.973-2.334.973a1.41,1.41,0,0,1-.889.067l-2.711-.678h-2.531l-2.711.678a1.41,1.41,0,0,1-.889-.067l-2.512-1.047-2.727.42a1.443,1.443,0,0,1-.449,0l-2.647-.441-2.591.431-2.825.707a1.407,1.407,0,0,1-.888-.067l-2.505-1.043-2.478.413a1.4,1.4,0,0,1-.465,0l-2.88-.48a1.485,1.485,0,0,1-.216-.054l-2.347-.782-2.611,1.2a1.417,1.417,0,0,1-1.042.058l-2.431-.81-2.432.81c-.035.012-.07.022-.105.031l-2.88.72a1.429,1.429,0,0,1-.344.042h-2.879a1.429,1.429,0,0,1-.344-.042l-2.825-.707-2.592-.431-2.647.441a1.53,1.53,0,0,1-.233.019h-2.945l-2.711.678a1.41,1.41,0,0,1-.889-.067l-2.5-1.043-2.478.413a1.411,1.411,0,0,1-.682-.054l-2.272-.757-2.325,1.357a1.415,1.415,0,0,1-1.058.151l-2.711-.678h-2.705a1.594,1.594,0,0,1-.216-.016l-3.012-.464h-2.772a1.4,1.4,0,0,1-.449-.073l-2.175-.725-2.286,1.715a1.419,1.419,0,0,1-1.809-.089l-2.37-2.174-1.857.31-2.6,1.953a1.417,1.417,0,0,1-1.808-.089l-2.6-2.388-2.34-.54-5.36,2.01a1.408,1.408,0,0,1-.73.071l-2.765-.461H725.5l-2.661.887a1.4,1.4,0,0,1-.682.054l-2.647-.441-2.647.441a1.415,1.415,0,0,1-.975-.191l-2.557-1.574-2.252.751a1.4,1.4,0,0,1-.681.054l-2.647-.441-5.528.921a1.53,1.53,0,0,1-.233.019h-2.879a1.413,1.413,0,0,1-.851-.284l-2.34-1.755-2.226.557a1.413,1.413,0,0,1-1.15-.21l-2.43-1.682-2.13,1.064-2.8,1.637a1.471,1.471,0,0,1-.266.12l-2.88.96a1.416,1.416,0,0,1-1.406-.3l-2.318-2.125-2.141.535a1.426,1.426,0,0,1-.688,0l-2.424-.607-2.446,1.02c-.043.017-.085.033-.129.046l-3.12.96a1.4,1.4,0,0,1-.865-.01l-2.432-.81-2.431.81a1.4,1.4,0,0,1-.681.054l-2.648-.441-2.647.441a1.551,1.551,0,0,1-.233.019h-2.88a1.429,1.429,0,0,1-.448-.073l-2.546-.848-2.439.406-3.029.932-2.954.741a1.426,1.426,0,0,1-.688,0l-2.536-.634-2.536.634a1.422,1.422,0,0,1-.687,0l-2.825-.707-2.422-.4-2.505,1.043a1.408,1.408,0,0,1-.888.067l-2.55-.638-2.788.644a1.423,1.423,0,0,1-.319.036h-40.56a1.417,1.417,0,0,1,0-2.835h40.4l2.963-.683a1.393,1.393,0,0,1,.662.006l2.424.606,2.448-1.019a1.409,1.409,0,0,1,.778-.09l2.879.48c.038.006.075.013.111.023l2.536.634,2.537-.634a1.41,1.41,0,0,1,.687,0l2.536.634,2.537-.634,3.046-.94a1.62,1.62,0,0,1,.184-.043l2.881-.48a1.414,1.414,0,0,1,.681.053l2.661.887h2.533l2.764-.46a1.358,1.358,0,0,1,.466,0l2.533.422,2.546-.849a1.416,1.416,0,0,1,.9,0l2.449.816,2.621-.806,2.816-1.174a1.41,1.41,0,0,1,.889-.066l2.536.634,2.537-.634a1.418,1.418,0,0,1,1.3.33l2.264,2.076,1.95-.65,2.753-1.606,2.961-1.483a1.416,1.416,0,0,1,1.441.1l2.591,1.794,2.258-.564a1.414,1.414,0,0,1,1.194.241l2.5,1.876h2.29l5.645-.94a1.408,1.408,0,0,1,.466,0l2.532.422,2.546-.849a1.422,1.422,0,0,1,1.191.138l2.668,1.641,2.357-.392a1.352,1.352,0,0,1,.465,0l2.533.422,2.546-.849a1.431,1.431,0,0,1,.449-.073h2.88a1.421,1.421,0,0,1,.232.02l2.506.417,5.4-2.027a1.41,1.41,0,0,1,.816-.053l3.12.72a1.422,1.422,0,0,1,.639.336l2.013,1.845,1.939-1.454a1.419,1.419,0,0,1,.618-.264l2.88-.48a1.411,1.411,0,0,1,1.19.353l2.013,1.845,1.939-1.454a1.417,1.417,0,0,1,1.3-.211l2.663.887h2.649a1.442,1.442,0,0,1,.216.017l3.013.463h2.771a1.43,1.43,0,0,1,.344.043l2.321.58,2.381-1.389a1.415,1.415,0,0,1,1.162-.121l2.547.849,2.533-.422a1.412,1.412,0,0,1,.778.09l2.446,1.019,2.425-.606a1.428,1.428,0,0,1,.343-.043h3l2.764-.46a1.358,1.358,0,0,1,.466,0l2.881.48c.037.006.074.013.11.023l2.711.677h2.531l2.657-.664L803.3,4562a1.417,1.417,0,0,1,.9,0l2.347.783,2.611-1.2a1.419,1.419,0,0,1,1.042-.058l2.774.925,2.537.423,2.647-.441a1.41,1.41,0,0,1,.778.09l2.447,1.019,2.425-.606c.036-.01.074-.017.111-.023l2.88-.48a1.352,1.352,0,0,1,.465,0l2.657.442,2.9-.445a1.417,1.417,0,0,1,.761.093l2.446,1.019,2.424-.606a1.437,1.437,0,0,1,.344-.043h2.881a1.429,1.429,0,0,1,.343.043l2.425.606,2.446-1.019a1.414,1.414,0,0,1,1.091,0l2.617,1.09h5.245l2.5-1.876a1.418,1.418,0,0,1,1.7,0l2.422,1.816,5.191-.649c.04,0,.079-.008.119-.009l11.76-.48a1.37,1.37,0,0,1,.29.018l2.88.48c.037.006.075.013.111.023l2.711.677H896.7l2.711-.677a1.383,1.383,0,0,1,.344-.043h3l2.765-.46a1.358,1.358,0,0,1,.466,0l2.764.46h5.642a1.383,1.383,0,0,1,.344.043l2.711.677h8.531l2.711-.677a1.41,1.41,0,0,1,.687,0l2.711.677h8.29l2.712-.677a1.414,1.414,0,0,1,.688,0l2.71.677H960.78l2.709-.677a1.414,1.414,0,0,1,.688,0l2.71.677H989.82l2.71-.677a1.405,1.405,0,0,1,.662-.006l2.963.683H998.7l2.71-.677c.037-.01.074-.017.111-.023l5.761-.96a1.413,1.413,0,0,1,.681.053l2.829.943,2.657.664h2.544l2.963-.683a1.405,1.405,0,0,1,.662.006l2.537.634,2.536-.634a1.41,1.41,0,0,1,.687,0l2.71.677h2.323l2.549-1.486a1.413,1.413,0,0,1,1.428,0l2.271,1.324,2.231-.928a1.412,1.412,0,0,1,.761-.093l3.119.48c.043.007.086.015.128.026l2.537.634,2.536-.634a1.41,1.41,0,0,1,.687,0l2.71.677h2.533l2.71-.677a1.423,1.423,0,0,1,.343-.043h8.762l2.555-.426,2.689-1.344a1.42,1.42,0,0,1,1.268,0l2.469,1.234,2.424-.4a1.364,1.364,0,0,1,.467,0l2.765.46h5.764l2.764-.46a1.414,1.414,0,0,1,.947.174l2.166,1.263,2.166-1.263a1.413,1.413,0,0,1,.948-.174l2.764.46h2.762a1.392,1.392,0,0,1,.545.11l2.447,1.019,2.212-.553,2.934-1.805a1.443,1.443,0,0,1,.4-.168l2.88-.72a1.4,1.4,0,0,1,.688,0l2.879.72a1.382,1.382,0,0,1,.443.2l2.413,1.608,2.218-.369,2.774-.925a1.5,1.5,0,0,1,.215-.053l2.88-.48a1.414,1.414,0,0,1,.867.13l2.271,1.135,2.5-1.154a1.419,1.419,0,0,1,1.38.108l2.524,1.681h2.116l2.581-1.29a1.4,1.4,0,0,1,.4-.13l2.88-.48a1.408,1.408,0,0,1,1.02.219l2.3,1.535,2.222-.741a1.535,1.535,0,0,1,.215-.053l2.88-.48a1.413,1.413,0,0,1,.449,0l5.784.924,2.537-.423,2.775-.925a1.413,1.413,0,0,1,.9,0l2.662.887h2.031l2.459-2.664a1.463,1.463,0,0,1,1.091-.455,1.418,1.418,0,0,1,1.056.531l2.279,2.847,2.042-.628,2.739-1.6a1.4,1.4,0,0,1,.947-.173l2.532.421,2.546-.848a1.421,1.421,0,0,1,1.162.12l2.069,1.206,2.127-1.6a1.417,1.417,0,0,1,1.891.172l2.013,2.18,1.856-1.392a1.418,1.418,0,0,1,1.658-.032l2.646,1.833,5.193-.865a1.416,1.416,0,0,1,.682.053l2.774.925,2.316.386,2.468-1.234,2.968-1.241a1.414,1.414,0,0,1,1.259.084l2.1,1.226,2.379-1.646a1.416,1.416,0,0,1,1.764.12l2.37,2.173,2.038-.339,2.73-1.138a1.417,1.417,0,0,1,1.5.264l2.061,1.889,1.718-1.146,2.723-4.084a1.418,1.418,0,0,1,2.221-.176l2.544,2.756,2.406.37,2.177-.363,2.55-2.763a1.417,1.417,0,0,1,2-.083l2.265,2.076,2.089-.7a1.409,1.409,0,0,1,.682-.053l2.477.413,2.505-1.044a1.417,1.417,0,0,1,1.259.085l2.739,1.6,1.928.593,2.3-3.643a1.417,1.417,0,0,1,2.156-.288l4.8,4.4,1.921-1.762a1.416,1.416,0,0,1,1.592-.223l2.008,1,2.16-1.98a1.421,1.421,0,0,1,1.5-.264l2.357.982,2.589-1a1.418,1.418,0,0,1,1.643.472l2.315,3.088,1.818-.455,2.74-1.37a1.417,1.417,0,0,1,1.082-.077l2.012.67,2.259-2.447c.026-.028.054-.056.083-.083l2.707-2.481,2.766-5.073a1.417,1.417,0,0,1,2.551.13l1.529,3.645,1.8-6.589a1.417,1.417,0,0,1,1.024-1l2.469-.618,2.593-2.809a1.419,1.419,0,0,1,1.041-.456h2.651l2.242-.747,2.614-3.486a1.418,1.418,0,0,1,2.429.275l2.505,5.638h1l2.684-16.332a1.418,1.418,0,0,1,2.694-.346l2.157,4.854,1.457-1.092a1.415,1.415,0,0,1,1.484-.134l2.741,1.37,1.543.386,2.347-5.671,2.855-18.79a1.418,1.418,0,0,1,2.317-.869l3.119,2.64a1.413,1.413,0,0,1,.446.692l1.586,5.549,1.461-4.626a1.418,1.418,0,0,1,2.674-.085l1.647,4.259,1.5-3.363a1.412,1.412,0,0,1,.846-.769l2.16-.72,2.681-9.828a1.418,1.418,0,0,1,1.367-1.045h.026a1.417,1.417,0,0,1,1.354,1.092l2.847,12.1,3.058,6.588a1.417,1.417,0,1,1-2.57,1.193l-3.12-6.72a1.424,1.424,0,0,1-.095-.272l-1.6-6.806-1.411,5.175a1.419,1.419,0,0,1-.919.972l-2.287.762-2.626,5.908a1.418,1.418,0,0,1-1.3.842h-.035a1.415,1.415,0,0,1-1.287-.906l-1.423-3.674-1.664,5.269a1.416,1.416,0,0,1-2.713-.037l-2.763-9.665-.855-.724-2.5,16.453a1.405,1.405,0,0,1-.091.329l-2.88,6.96a1.419,1.419,0,0,1-1.654.833l-2.88-.721a1.388,1.388,0,0,1-.29-.107l-2.1-1.048-2.179,1.634a1.417,1.417,0,0,1-2.145-.558l-.956-2.149-2.111,12.844a1.417,1.417,0,0,1-1.4,1.187h-3.12a1.415,1.415,0,0,1-1.295-.842l-1.9-4.274-1.431,1.909a1.408,1.408,0,0,1-.686.494l-2.88.96a1.41,1.41,0,0,1-.448.073h-2.261l-2.459,2.664a1.41,1.41,0,0,1-.7.414l-2.074.519-2.662,9.758a1.417,1.417,0,0,1-2.674.176l-1.981-4.722-1.468,2.692a1.417,1.417,0,0,1-.287.367l-2.835,2.6-2.841,3.077a1.418,1.418,0,0,1-1.49.383l-2.323-.774-2.354,1.177a1.444,1.444,0,0,1-.29.108l-2.881.72a1.419,1.419,0,0,1-1.478-.525l-2.237-2.983-2.12.815a1.417,1.417,0,0,1-1.054-.014l-2.045-.852-2.212,2.028a1.419,1.419,0,0,1-1.592.223l-2.007-1-2.16,1.981a1.419,1.419,0,0,1-1.916,0l-4.509-4.135-1.975,3.126a1.419,1.419,0,0,1-1.615.6l-3.12-.96a1.457,1.457,0,0,1-.3-.13l-2.272-1.325-2.23.929a1.407,1.407,0,0,1-.778.09l-2.533-.422-2.546.848a1.417,1.417,0,0,1-1.406-.3l-1.839-1.685-1.922,2.082a1.409,1.409,0,0,1-.807.436l-2.88.48a1.386,1.386,0,0,1-.449,0l-3.12-.48a1.41,1.41,0,0,1-.826-.439l-1.658-1.8-1.881,2.821a1.411,1.411,0,0,1-.393.393l-2.88,1.92a1.419,1.419,0,0,1-1.744-.134l-2.212-2.029-2.046.852a1.406,1.406,0,0,1-.312.09l-2.879.48a1.415,1.415,0,0,1-1.192-.353l-2.046-1.876-2.189,1.516a1.415,1.415,0,0,1-1.521.059l-2.271-1.325-2.23.929-2.791,1.4a1.409,1.409,0,0,1-.867.131l-2.88-.48a1.541,1.541,0,0,1-.215-.054l-2.545-.848-5.414.9a1.409,1.409,0,0,1-1.04-.233l-2.279-1.579-2.063,1.547a1.42,1.42,0,0,1-1.893-.172l-2.012-2.18-1.855,1.393a1.419,1.419,0,0,1-1.565.09l-2.326-1.357-2.271.757a1.4,1.4,0,0,1-.682.053l-2.375-.4-2.437,1.422a1.4,1.4,0,0,1-.3.13l-3.12.96a1.413,1.413,0,0,1-1.524-.469l-1.85-2.313-1.762,1.909a1.415,1.415,0,0,1-1.041.456h-2.881a1.424,1.424,0,0,1-.448-.073l-2.432-.81-2.432.81a1.489,1.489,0,0,1-.214.054l-2.88.48a1.469,1.469,0,0,1-.467,0l-5.758-.923-2.546.425-2.774.924a1.413,1.413,0,0,1-1.235-.165l-2.414-1.609-2.116.352-2.689,1.345a1.41,1.41,0,0,1-.634.15h-2.881a1.417,1.417,0,0,1-.786-.238l-2.22-1.48-2.4,1.108a1.421,1.421,0,0,1-1.228-.02l-2.467-1.234-2.316.387-2.774.924a1.541,1.541,0,0,1-.215.054l-2.88.48a1.4,1.4,0,0,1-1.02-.219l-2.675-1.784-2.3-.575-2.323.581-2.934,1.806a1.442,1.442,0,0,1-.4.168l-2.88.72a1.4,1.4,0,0,1-.889-.067l-2.619-1.091h-2.6a1.551,1.551,0,0,1-.233-.019l-2.374-.4-2.439,1.422A1.411,1.411,0,0,1,1091.993,4566.439Z"/><path class="d" d="M597.114,4566.439H579.833a1.417,1.417,0,0,1,0-2.835h17.119l2.963-.683a1.369,1.369,0,0,1,.319-.037H603l2.764-.46a1.443,1.443,0,0,1,.233-.02h5.643l5.483-.913,2.729-1.138a1.412,1.412,0,0,1,.545-.109h2.786l2.581-1.29a1.4,1.4,0,0,1,.633-.15h2.6l2.389-1,2.7-2.472a1.418,1.418,0,0,1,.51-.3l2.534-.845,2.633-2.852c.027-.029.054-.056.084-.083l2.88-2.64a1.378,1.378,0,0,1,.151-.121l3.12-2.16c.029-.02.061-.04.092-.058l2.566-1.5,2.693-4.489a1.426,1.426,0,0,1,.429-.449l2.789-1.86,5.68-5.206a1.419,1.419,0,0,1,.412-.263l2.45-1.021,2.64-4.4a1.418,1.418,0,0,1,1-.672l3.12-.48a1.417,1.417,0,0,1,.761.093l2.229.928,1.858-1.084,2.7-6.518a1.408,1.408,0,0,1,.352-.5l2.88-2.64a1.425,1.425,0,0,1,.725-.353l5.759-.96a1.408,1.408,0,0,1,.466,0l2.55.424,2.8-.861a1.419,1.419,0,0,1,1.051.087l2.581,1.29h2.546a1.418,1.418,0,0,1,1.076.495l2.824,3.295,2.594,2.379,5.14,1.712,2.533-.421a1.41,1.41,0,0,1,.9.149l2.421,1.3,2.193-1.28a1.418,1.418,0,0,1,1.565.091l2.813,2.11,2.48,1.446h2.5a1.429,1.429,0,0,1,.448.073l2.88.96a1.441,1.441,0,0,1,.3.143l5.559,3.474,2.889.667a1.413,1.413,0,0,1,.467.2l2.88,1.92,2.809,1.636a1.276,1.276,0,0,1,.136.09l2.6,1.952,5.419.9a1.413,1.413,0,0,1,.481.173l2.88,1.68,2.4,1.195,2.675-.411a1.423,1.423,0,0,1,.93.176l2.753,1.607,2.407.8,2.532-.422a1.435,1.435,0,0,1,.233-.02h2.881a1.429,1.429,0,0,1,.448.073l2.661.887h2.533l2.764-.46a1.406,1.406,0,0,1,.905.15l2.914,1.568,2.647.442a1.41,1.41,0,0,1,.617.264l2.233,1.674,2.133-.888c.031-.014.064-.026.1-.037l2.88-.96a1.416,1.416,0,0,1,.448-.073h2.88a1.415,1.415,0,0,1,.85.284l5.477,4.107,2.662.409h2.772a1.322,1.322,0,0,1,.232.02l2.533.422,2.546-.849a1.416,1.416,0,0,1,.9,0l2.662.887h2.65a1.421,1.421,0,0,1,.232.02l2.88.48a1.344,1.344,0,0,1,.313.089l2.459,1.025,2.677-.617a1.386,1.386,0,0,1,.662.006l2.825.706,2.708.451h2.764a1.422,1.422,0,0,1,.232.02l5.645.94h2.762a1.4,1.4,0,0,1,.545.11l2.721,1.133,8.727,1.417,5.644,1.174,11.586-.472h2.654l2.618-1.092c.032-.013.064-.025.1-.036l2.88-.96a1.431,1.431,0,0,1,.449-.073h2.88a1.489,1.489,0,0,1,.233.019l2.764.461h5.643a1.377,1.377,0,0,1,.215.017l6.018.963c.037.006.074.014.11.023l2.711.677h2.705a1.372,1.372,0,0,1,.233.02l2.765.46h2.763a1.391,1.391,0,0,1,.233.02l2.764.46h5.765l2.6-.434,2.729-1.137a1.422,1.422,0,0,1,.545-.109h2.88a1.43,1.43,0,0,1,.344.043l2.711.677h2.7a1.361,1.361,0,0,1,.232.02l2.766.46h2.763a1.463,1.463,0,0,1,.216.017l3.012.463h2.389l2.549-1.486a1.413,1.413,0,0,1,.714-.194h5.759a1.424,1.424,0,0,1,.344.043l2.825.706,2.708.451h8.646l2.6-.434,2.729-1.137a1.474,1.474,0,0,1,.311-.089l2.88-.48a1.393,1.393,0,0,1,.234-.02H987l2.764-.461a1.412,1.412,0,0,1,.682.054l2.662.887h2.772l2.764-.46a1.414,1.414,0,0,1,.467,0l2.88.48a1.474,1.474,0,0,1,.311.089l2.618,1.091h2.6a1.424,1.424,0,0,1,.448.073l2.662.887h2.419l2.662-.887a1.444,1.444,0,0,1,.664-.056l3.013.463h2.772a1.382,1.382,0,0,1,.233.02l2.764.46h2.762a1.393,1.393,0,0,1,.234.02l2.532.421,2.546-.848a1.3,1.3,0,0,1,.215-.053l2.719-.454,2.73-1.137a1.44,1.44,0,0,1,.329-.092l3.119-.48a1.388,1.388,0,0,1,.216-.017h5.644l2.763-.461a1.493,1.493,0,0,1,.234-.019h2.5l2.418-1.41,2.766-2.537a1.427,1.427,0,0,1,.51-.3l2.88-.96,3.059-1.178a1.417,1.417,0,0,1,1.054.014l2.832,1.181,2.613.87h2.534l5.643-.94a1.414,1.414,0,0,1,.467,0l2.5.416,2.7-1.037,2.82-1.409,2.968-1.24a1.411,1.411,0,0,1,1.09,0l2.23.928,2.271-1.324a1.413,1.413,0,0,1,.714-.194h8.428l2.851-.877,2.817-1.173a1.393,1.393,0,0,1,.545-.11h2.762l2.764-.46a1.414,1.414,0,0,1,.467,0l2.646.441,2.538-.423,2.774-.925a1.425,1.425,0,0,1,.448-.073h2.772l3.012-.463a1.42,1.42,0,0,1,.45,0l2.477.413,2.505-1.044a1.336,1.336,0,0,1,.312-.089l5.759-.96a1.393,1.393,0,0,1,.234-.02h2.407l2.5-1.876a1.413,1.413,0,0,1,.217-.134l2.88-1.44,3.082-1.66a1.392,1.392,0,0,1,.438-.15l5.346-.891,2.443-2.241,2.784-4.176a1.419,1.419,0,0,1,1.18-.632h2.651l2.613-.87,2.832-1.18a1.413,1.413,0,0,1,1.547.306l1.639,1.639,2.056-4.8a1.414,1.414,0,0,1,1.069-.839l2.88-.48a1.428,1.428,0,0,1,.682.053l2.88.96a1.406,1.406,0,0,1,.4.211l2.88,2.16c.037.028.073.058.107.089l4.8,4.4,1.924-1.762a1.412,1.412,0,0,1,.957-.373h2.568l2.43-2.227,2.841-3.077a1.414,1.414,0,0,1,1.274-.436l1.829.3,2.42-5.04a1.418,1.418,0,0,1,2.128-.52l2.88,2.16a1.45,1.45,0,0,1,.226.211l2.11,2.463,1.859-1.085a1.394,1.394,0,0,1,.5-.176l2.77-.426,2.6-1.947a1.41,1.41,0,0,1,.617-.264l2.624-.438,2.429-1.416,2.714-3.394a1.418,1.418,0,0,1,.562-.423l2.88-1.2a1.419,1.419,0,0,1,1.679.457l2.614,3.486,2.46.82,3.089.95a1.421,1.421,0,0,1,.3.13l2.88,1.681a1.191,1.191,0,0,1,.137.09l2.6,1.952,2.191.366,2.546-.849a1.409,1.409,0,0,1,.215-.054l2.825-.47,2.772-.693,2.829-.943a1.413,1.413,0,0,1,.664-.056l2.53.389,2.4-1.8a1.407,1.407,0,0,1,1.084-.264l2.532.422,2.546-.849a1.417,1.417,0,0,1,1.582.494l1.479,1.972,1.87-3.9a1.39,1.39,0,0,1,.171-.272l2.88-3.6c.02-.027.042-.052.064-.077l5.824-6.289,2.782-6.956a1.492,1.492,0,0,1,.182-.324l2.881-3.84a1.417,1.417,0,0,1,.176-.194l2.648-2.428,2.76-6.669,2.849-8.318a1.441,1.441,0,0,1,.1-.219l2.88-5.28c.027-.048.055-.094.086-.139l2.88-4.08,3.047-4.688,2.775-5.553,2.843-11.132a1.4,1.4,0,0,1,.106-.283l2.8-5.606,2.844-12.553,2.862-17.911a1.414,1.414,0,0,1,.1-.334l2.823-6.589,2.852-13.781,3.117-15.826,2.884-13.7a1.409,1.409,0,0,1,.207-.5l2.695-4.043,2.838-22.23,2.884-19.706a1.426,1.426,0,0,1,.039-.184l2.88-10.079,2.876-10.544a1.417,1.417,0,0,1,.733-.9l2.35-1.175,2.936-9.035a1.487,1.487,0,0,1,.133-.292l2.826-4.709,2.776-6.707,2.853-18.313a1.452,1.452,0,0,1,.133-.415l2.88-5.76a1.415,1.415,0,0,1,1.5-.764l2.88.48a1.047,1.047,0,0,1,.11.023l2.88.72a1.422,1.422,0,0,1,.29.107l2.88,1.44,3.158,1.7a1.417,1.417,0,0,1-1.344,2.5l-3.12-1.68-2.7-1.351-2.674-.669-1.792-.3-2.313,4.626-2.846,18.262a1.385,1.385,0,0,1-.091.324l-2.88,6.96a1.367,1.367,0,0,1-.094.187l-2.8,4.662-3.069,9.447a1.415,1.415,0,0,1-.714.829l-2.315,1.157-2.713,9.949-2.858,10-2.866,19.587-2.876,22.534a1.441,1.441,0,0,1-.227.607l-2.728,4.093-2.825,13.413-3.116,15.821-2.883,13.934a1.321,1.321,0,0,1-.085.271l-2.81,6.559-2.853,17.827-2.9,12.809a1.462,1.462,0,0,1-.115.321l-2.812,5.623-2.843,11.133a1.364,1.364,0,0,1-.1.283l-2.88,5.76a1.21,1.21,0,0,1-.079.139l-3.12,4.8-2.863,4.058-2.784,5.1-2.841,8.286-2.911,7.043a1.433,1.433,0,0,1-.351.5l-2.783,2.551-2.69,3.584-2.809,7.026a1.439,1.439,0,0,1-.278.438l-5.964,6.441-2.747,3.434-2.81,5.854a1.417,1.417,0,0,1-2.411.237l-2.267-3.023-1.911.637a1.392,1.392,0,0,1-.682.054l-2.281-.381-2.4,1.8a1.4,1.4,0,0,1-1.066.267l-2.781-.428-2.555.851c-.034.012-.069.022-.1.031l-2.881.719a1.065,1.065,0,0,1-.111.023l-2.77.462-2.775.926a1.42,1.42,0,0,1-.681.053l-2.88-.481a1.41,1.41,0,0,1-.617-.264l-2.815-2.111-2.668-1.556-2.964-.912-2.911-.97a1.414,1.414,0,0,1-.685-.494l-2.219-2.958-1.527.636-2.654,3.317a1.41,1.41,0,0,1-.392.339l-2.881,1.68a1.423,1.423,0,0,1-.481.174l-2.539.423-2.6,1.952a1.411,1.411,0,0,1-.635.267l-2.854.439-2.648,1.545a1.417,1.417,0,0,1-1.79-.3l-2.779-3.242-1.374-1.03-2.133,4.443a1.423,1.423,0,0,1-1.511.785l-2.124-.354-2.36,2.557c-.027.029-.056.057-.084.084l-2.881,2.64a1.419,1.419,0,0,1-.958.372h-2.568l-2.475,2.267a1.416,1.416,0,0,1-1.915,0l-5.709-5.233-2.639-1.979-2.328-.776-1.768.294-2.575,6.008a1.417,1.417,0,0,1-2.3.444l-2.449-2.449-2,.835-.1.037-2.88.96a1.452,1.452,0,0,1-.448.072h-2.122l-2.459,3.689a1.48,1.48,0,0,1-.222.259l-2.88,2.64a1.418,1.418,0,0,1-.724.353l-5.529.921-2.913,1.568-2.8,1.4-2.779,2.083a1.417,1.417,0,0,1-.85.284h-2.762l-5.484.914-2.73,1.137a1.4,1.4,0,0,1-.778.09l-2.656-.443-2.9.446a1.6,1.6,0,0,1-.216.016h-2.65l-2.661.887a1.541,1.541,0,0,1-.215.054l-2.88.48a1.414,1.414,0,0,1-.467,0l-2.646-.441-2.647.441a1.549,1.549,0,0,1-.233.019h-2.6l-2.618,1.091a1.251,1.251,0,0,1-.128.046l-3.12.96a1.406,1.406,0,0,1-.417.063h-8.258l-2.549,1.487a1.413,1.413,0,0,1-1.259.084l-2.335-.973-2.335.973-2.791,1.4a1.071,1.071,0,0,1-.125.055l-3.12,1.2a1.4,1.4,0,0,1-.742.076l-2.646-.441-5.527.921a1.434,1.434,0,0,1-.233.019h-2.881a1.425,1.425,0,0,1-.448-.073l-2.88-.96c-.032-.011-.066-.023-.1-.036l-2.356-.982-2.59,1-2.653.886-2.658,2.437a1.4,1.4,0,0,1-.244.179l-2.88,1.68a1.419,1.419,0,0,1-.714.193h-2.762l-2.764.461a1.381,1.381,0,0,1-.233.019h-5.653l-2.841.437-2.722,1.134a1.434,1.434,0,0,1-.312.09l-2.77.461-2.775.925a1.39,1.39,0,0,1-.681.053l-2.765-.46h-2.762a1.432,1.432,0,0,1-.233-.02l-2.764-.46h-2.762a1.443,1.443,0,0,1-.216-.017l-2.781-.427-2.555.851a1.415,1.415,0,0,1-.448.073h-2.88a1.407,1.407,0,0,1-.448-.073l-2.662-.887h-2.651a1.413,1.413,0,0,1-.545-.109l-2.728-1.137-2.487-.414-2.646.441a1.383,1.383,0,0,1-.234.019h-3.12a1.457,1.457,0,0,1-.448-.072l-2.546-.85-2.532.423a1.38,1.38,0,0,1-.233.019h-2.763l-2.6.434-2.728,1.137a1.422,1.422,0,0,1-.313.09l-2.88.48a1.432,1.432,0,0,1-.233.019h-8.88a1.552,1.552,0,0,1-.233-.019l-2.88-.48-.111-.023-2.71-.678h-5.2l-2.548,1.487a1.422,1.422,0,0,1-.714.193h-2.88a1.452,1.452,0,0,1-.216-.017l-3.012-.463h-2.772a1.454,1.454,0,0,1-.234-.019l-2.764-.461h-2.763a1.436,1.436,0,0,1-.344-.042l-2.711-.678H932.2l-2.619,1.091a1.4,1.4,0,0,1-.312.09l-2.88.479a1.421,1.421,0,0,1-.232.02h-6a1.415,1.415,0,0,1-.233-.02l-2.765-.46h-2.763a1.562,1.562,0,0,1-.233-.019l-2.764-.461h-2.762a1.429,1.429,0,0,1-.344-.042l-2.825-.706-5.819-.932h-5.653a1.38,1.38,0,0,1-.233-.019L891,4559h-2.532l-2.614.871-2.832,1.18a1.409,1.409,0,0,1-.545.109h-2.879l-11.7.479a1.364,1.364,0,0,1-.347-.029l-5.76-1.2-8.806-1.428a1.394,1.394,0,0,1-.329-.092l-2.619-1.091h-2.6a1.489,1.489,0,0,1-.233-.019l-5.644-.941h-2.763a1.49,1.49,0,0,1-.233-.019l-2.88-.48c-.037-.007-.074-.014-.11-.023l-2.55-.638-2.788.644a1.408,1.408,0,0,1-.864-.073l-2.729-1.137-2.6-.434h-2.762a1.431,1.431,0,0,1-.449-.073l-2.432-.81-2.431.81a1.4,1.4,0,0,1-.681.054l-2.765-.461h-2.762a1.6,1.6,0,0,1-.216-.016l-3.12-.48a1.423,1.423,0,0,1-.635-.268L800.4,4549.4h-2.178l-2.612.871-2.832,1.18a1.419,1.419,0,0,1-1.4-.175l-2.6-1.952-2.539-.423a1.413,1.413,0,0,1-.438-.15l-2.694-1.451-2.4.4a1.53,1.53,0,0,1-.233.019h-2.879a1.431,1.431,0,0,1-.449-.073l-2.661-.887H771.95l-2.764.461a1.425,1.425,0,0,1-.681-.054l-2.88-.96a1.505,1.505,0,0,1-.266-.12l-2.446-1.427-2.624.4a1.4,1.4,0,0,1-.849-.133l-2.88-1.44-2.736-1.592-5.5-.918a1.415,1.415,0,0,1-.617-.264l-2.815-2.11-2.809-1.639-2.736-1.822-2.869-.662a1.434,1.434,0,0,1-.432-.178l-5.616-3.511-2.5-.834h-2.649a1.425,1.425,0,0,1-.715-.193l-2.88-1.68a1.55,1.55,0,0,1-.136-.091l-2.128-1.6-2.067,1.206a1.419,1.419,0,0,1-1.386.024l-2.694-1.451-2.4.4a1.4,1.4,0,0,1-.681-.053l-5.76-1.92a1.418,1.418,0,0,1-.509-.3l-2.88-2.641a1.387,1.387,0,0,1-.119-.122l-2.455-2.865h-2.228a1.407,1.407,0,0,1-.634-.15l-2.373-1.186-2.576.793a1.4,1.4,0,0,1-.65.044l-2.648-.441-5.112.851-2.338,2.144-2.76,6.67a1.422,1.422,0,0,1-.6.682l-2.88,1.68a1.414,1.414,0,0,1-1.26.084L669.9,4528.8l-2.07.318-2.537,4.23a1.429,1.429,0,0,1-.67.579l-2.651,1.1-5.577,5.111a1.386,1.386,0,0,1-.172.135l-2.614,1.743-2.716,4.527a1.423,1.423,0,0,1-.5.5l-2.833,1.652-2.995,2.074-2.766,2.535-2.839,3.076a1.406,1.406,0,0,1-.593.383l-2.594.865-2.657,2.436a1.4,1.4,0,0,1-.413.263l-2.879,1.2a1.413,1.413,0,0,1-.545.109h-2.546l-2.581,1.29a1.412,1.412,0,0,1-.634.15h-2.836l-2.618,1.091a1.4,1.4,0,0,1-.313.09l-5.759.96a1.561,1.561,0,0,1-.233.019h-5.643l-2.765.461a1.527,1.527,0,0,1-.232.019H600.4l-2.963.684A1.421,1.421,0,0,1,597.114,4566.439Z"/><text class="e" transform="translate(564.18 4569.971)"><tspan x="0" y="0">0</tspan></text><text class="e" transform="translate(547.004 4517.096)"><tspan x="0" y="0">100</tspan></text><text class="e" transform="translate(547.004 4464.236)"><tspan x="0" y="0">200</tspan></text><text class="e" transform="translate(547.004 4411.361)"><tspan x="0" y="0">300</tspan></text><text class="e" transform="translate(547.004 4358.486)"><tspan x="0" y="0">400</tspan></text><text class="e" transform="translate(547.004 4305.596)"><tspan x="0" y="0">500</tspan></text><text class="e" transform="translate(547.004 4252.721)"><tspan x="0" y="0">600</tspan></text><text class="e" transform="translate(562.459 4593.377)"><tspan x="0" y="0">1/3/2020</tspan></text><text class="e" transform="translate(652.678 4593.377)"><tspan x="0" y="0">1/4/2020</tspan></text><text class="e" transform="translate(739.975 4593.377)"><tspan x="0" y="0">1/5/2020</tspan></text><text class="e" transform="translate(830.193 4593.377)"><tspan x="0" y="0">1/6/2020</tspan></text><text class="e" transform="translate(917.49 4593.377)"><tspan x="0" y="0">1/7/2020</tspan></text><text class="e" transform="translate(1007.709 4593.377)"><tspan x="0" y="0">1/8/2020</tspan></text><text class="e" transform="translate(1097.928 4593.377)"><tspan x="0" y="0">1/9/2020</tspan></text><text class="e" transform="translate(1180.662 4593.377)"><tspan x="0" y="0">1/10/2020</tspan></text><text class="e" transform="translate(1270.881 4593.377)"><tspan x="0" y="0">1/11/2020</tspan></text></g></svg>