<svg xmlns="http://www.w3.org/2000/svg" width="1292.664" height="510.288" viewBox="0 0 1292.664 510.288"><defs><style>.a{fill:#fff;stroke-width:1.417px;}.a,.b{stroke:#a7a9ac;}.a,.b,.l,.m{stroke-miterlimit:10;}.b,.c,.e,.f,.h,.l,.m{fill:none;}.b{stroke-width:0.283px;}.c,.e{stroke:#91bce8;}.c,.f{stroke-linecap:round;stroke-width:2.25px;}.c,.e,.f,.h{stroke-linejoin:round;}.d{fill:#91bce8;}.e,.h{stroke-width:1.125px;}.f,.h{stroke:#222b3e;}.g{fill:#222b3e;}.i,.o{fill:#606060;font-size:14.314px;}.i{font-family:IBMPlexSans, IBM Plex Sans;}.j,.l,.m{stroke:#000;}.j{stroke-miterlimit:8;stroke-width:0.75px;}.k,.n{fill-rule:evenodd;}.l{stroke-width:1.415px;}.m{stroke-width:1.41px;}.n{fill:#e8e8e8;}.o{font-family:IBMPlexSans-Bold, IBM Plex Sans;font-weight:700;}</style></defs><g transform="translate(-313.668 -1147.229)"><rect class="a" width="1291.247" height="508.871" transform="translate(314.377 1147.938)"/><path class="b" d="M401.453,1543.709h1143.9m-1143.9-43.2h1143.9m-1143.9-43.019h1143.9m-1143.9-43.021h1143.9m-1143.9-43.2h1143.9m-1143.9-43.021h1143.9m-1143.9-43.02h1143.9m-1143.9-43.2h1143.9m0,344.7-1143.9,8.073V1199.008h1143.9"/><path class="b" d="M592.073,1199.008v394.447m190.62-394.447v392.859m190.62-392.859v387.72m190.8-387.72v390.411m190.62-390.411v389.066m190.62-389.066v387.72"/><path class="c" d="M477.683,1584.659l9.54-2.16,9.54,2.16,9.54-4.32,9.54,6.48,28.62-6.48L554,1539.3l9.54,19.44,9.54-17.28,9.54,30.24,9.54-8.64,9.54,10.8,9.54-6.48,9.36-53.82,9.54-49.68,9.54,41.04,9.54-140.04,9.54,176.58,9.54-30.06,9.54,8.64,9.54-32.4,9.54,32.4,9.54-8.64,9.54-127.08,9.54,49.5,9.54,49.5,9.54-64.62,9.54,15.12,9.54-6.48,9.54-45.18h9.54l9.54,83.88,9.54-99,9.54,88.38,9.54-168.12,9.54,86.22,9.54,84.06,9.36-4.32,9.54,90.36,9.54-122.76,9.54,53.82,9.54-40.86,9.54,32.22,9.54-30.06,9.54,79.74,9.54,4.32,9.54,12.78,9.54,6.48,9.54,15.12,9.54,32.4h9.54l9.54-60.3,9.54,38.7,9.54-314.46,9.54,320.94,9.54-103.5,9.54,60.3,9.54,23.76,9.54,34.56,9.54-60.3,9.54,60.3,9.36-90.54,9.54,58.14,9.54,32.4,9.54-62.46,9.54,49.5h9.54l9.54-8.64,9.54-23.76,9.54,12.96,9.54,4.32,9.54-12.96,9.54,28.08,9.54-8.64,9.54-17.28,9.54,4.32,9.54,12.96,9.54-64.62,9.54,66.78,9.54-12.96,9.54,28.08,9.54-4.32,9.54-12.96,9.54,15.12,9.54-36.72,9.36,36.72,9.54,2.16,9.54-4.32,9.54-12.96,9.54-2.16,9.54,17.28h9.54l9.54-6.48"/><path class="d" d="M481.49,1584.6a3.78,3.78,0,1,1-3.78-3.78,3.78,3.78,0,0,1,3.78,3.78Z"/><path class="e" d="M481.49,1584.6a3.78,3.78,0,1,1-3.78-3.78,3.78,3.78,0,0,1,3.78,3.78Z"/><path class="d" d="M491.03,1582.44a3.78,3.78,0,1,1-3.78-3.78,3.78,3.78,0,0,1,3.78,3.78Z"/><path class="e" d="M491.03,1582.44a3.78,3.78,0,1,1-3.78-3.78,3.78,3.78,0,0,1,3.78,3.78Z"/><path class="d" d="M500.57,1584.6a3.78,3.78,0,1,1-3.78-3.78,3.78,3.78,0,0,1,3.78,3.78Z"/><path class="e" d="M500.57,1584.6a3.78,3.78,0,1,1-3.78-3.78,3.78,3.78,0,0,1,3.78,3.78Z"/><path class="d" d="M509.93,1580.28a3.78,3.78,0,1,1-3.78-3.78,3.78,3.78,0,0,1,3.78,3.78Z"/><path class="e" d="M509.93,1580.28a3.78,3.78,0,1,1-3.78-3.78,3.78,3.78,0,0,1,3.78,3.78Z"/><path class="d" d="M519.47,1586.76a3.78,3.78,0,1,1-3.78-3.78,3.78,3.78,0,0,1,3.78,3.78Z"/><path class="e" d="M519.47,1586.76a3.78,3.78,0,1,1-3.78-3.78,3.78,3.78,0,0,1,3.78,3.78Z"/><path class="d" d="M548.09,1580.28a3.78,3.78,0,1,1-3.78-3.78,3.78,3.78,0,0,1,3.78,3.78Z"/><path class="e" d="M548.09,1580.28a3.78,3.78,0,1,1-3.78-3.78,3.78,3.78,0,0,1,3.78,3.78Z"/><path class="d" d="M557.63,1539.42a3.78,3.78,0,1,1-3.78-3.78,3.779,3.779,0,0,1,3.78,3.78Z"/><path class="e" d="M557.63,1539.42a3.78,3.78,0,1,1-3.78-3.78,3.779,3.779,0,0,1,3.78,3.78Z"/><path class="d" d="M567.17,1558.86a3.78,3.78,0,1,1-3.78-3.78,3.78,3.78,0,0,1,3.78,3.78Z"/><path class="e" d="M567.17,1558.86a3.78,3.78,0,1,1-3.78-3.78,3.78,3.78,0,0,1,3.78,3.78Z"/><path class="d" d="M576.71,1541.58a3.78,3.78,0,1,1-3.78-3.78,3.78,3.78,0,0,1,3.78,3.78Z"/><path class="e" d="M576.71,1541.58a3.78,3.78,0,1,1-3.78-3.78,3.78,3.78,0,0,1,3.78,3.78Z"/><path class="d" d="M586.25,1571.64a3.78,3.78,0,1,1-3.78-3.78,3.78,3.78,0,0,1,3.78,3.78Z"/><path class="e" d="M586.25,1571.64a3.78,3.78,0,1,1-3.78-3.78,3.78,3.78,0,0,1,3.78,3.78Z"/><path class="d" d="M595.79,1563a3.78,3.78,0,1,1-3.78-3.78,3.78,3.78,0,0,1,3.78,3.78Z"/><path class="e" d="M595.79,1563a3.78,3.78,0,1,1-3.78-3.78,3.78,3.78,0,0,1,3.78,3.78Z"/><path class="d" d="M605.33,1573.8a3.78,3.78,0,1,1-3.78-3.78,3.78,3.78,0,0,1,3.78,3.78Z"/><path class="e" d="M605.33,1573.8a3.78,3.78,0,1,1-3.78-3.78,3.78,3.78,0,0,1,3.78,3.78Z"/><path class="d" d="M614.87,1567.32a3.78,3.78,0,1,1-3.78-3.78,3.78,3.78,0,0,1,3.78,3.78Z"/><path class="e" d="M614.87,1567.32a3.78,3.78,0,1,1-3.78-3.78,3.78,3.78,0,0,1,3.78,3.78Z"/><path class="d" d="M624.41,1513.5a3.78,3.78,0,1,1-3.78-3.78,3.78,3.78,0,0,1,3.78,3.78Z"/><path class="e" d="M624.41,1513.5a3.78,3.78,0,1,1-3.78-3.78,3.78,3.78,0,0,1,3.78,3.78Z"/><path class="d" d="M633.95,1464a3.78,3.78,0,1,1-3.78-3.78,3.78,3.78,0,0,1,3.78,3.78Z"/><path class="e" d="M633.95,1464a3.78,3.78,0,1,1-3.78-3.78,3.78,3.78,0,0,1,3.78,3.78Z"/><path class="d" d="M643.49,1504.86a3.78,3.78,0,1,1-3.78-3.78,3.78,3.78,0,0,1,3.78,3.78Z"/><path class="e" d="M643.49,1504.86a3.78,3.78,0,1,1-3.78-3.78,3.78,3.78,0,0,1,3.78,3.78Z"/><path class="d" d="M653.03,1364.82a3.78,3.78,0,1,1-3.78-3.78,3.78,3.78,0,0,1,3.78,3.78Z"/><path class="e" d="M653.03,1364.82a3.78,3.78,0,1,1-3.78-3.78,3.78,3.78,0,0,1,3.78,3.78Z"/><path class="d" d="M662.57,1541.58a3.78,3.78,0,1,1-3.78-3.78,3.78,3.78,0,0,1,3.78,3.78Z"/><path class="e" d="M662.57,1541.58a3.78,3.78,0,1,1-3.78-3.78,3.78,3.78,0,0,1,3.78,3.78Z"/><path class="d" d="M672.11,1511.34a3.78,3.78,0,1,1-3.78-3.78,3.78,3.78,0,0,1,3.78,3.78Z"/><path class="e" d="M672.11,1511.34a3.78,3.78,0,1,1-3.78-3.78,3.78,3.78,0,0,1,3.78,3.78Z"/><path class="d" d="M681.65,1519.98a3.78,3.78,0,1,1-3.78-3.78,3.78,3.78,0,0,1,3.78,3.78Z"/><path class="e" d="M681.65,1519.98a3.78,3.78,0,1,1-3.78-3.78,3.78,3.78,0,0,1,3.78,3.78Z"/><path class="d" d="M691.19,1487.76a3.78,3.78,0,1,1-3.78-3.78,3.78,3.78,0,0,1,3.78,3.78Z"/><path class="e" d="M691.19,1487.76a3.78,3.78,0,1,1-3.78-3.78,3.78,3.78,0,0,1,3.78,3.78Z"/><path class="d" d="M700.73,1519.98a3.78,3.78,0,1,1-3.78-3.78,3.78,3.78,0,0,1,3.78,3.78Z"/><path class="e" d="M700.73,1519.98a3.78,3.78,0,1,1-3.78-3.78,3.78,3.78,0,0,1,3.78,3.78Z"/><path class="d" d="M710.27,1511.34a3.78,3.78,0,1,1-3.78-3.78,3.78,3.78,0,0,1,3.78,3.78Z"/><path class="e" d="M710.27,1511.34a3.78,3.78,0,1,1-3.78-3.78,3.78,3.78,0,0,1,3.78,3.78Z"/><path class="d" d="M719.81,1384.26a3.78,3.78,0,1,1-3.78-3.78,3.78,3.78,0,0,1,3.78,3.78Z"/><path class="e" d="M719.81,1384.26a3.78,3.78,0,1,1-3.78-3.78,3.78,3.78,0,0,1,3.78,3.78Z"/><path class="d" d="M729.35,1433.76a3.78,3.78,0,1,1-3.78-3.78,3.78,3.78,0,0,1,3.78,3.78Z"/><path class="e" d="M729.35,1433.76a3.78,3.78,0,1,1-3.78-3.78,3.78,3.78,0,0,1,3.78,3.78Z"/><path class="d" d="M738.71,1483.44a3.78,3.78,0,1,1-3.78-3.78,3.78,3.78,0,0,1,3.78,3.78Z"/><path class="e" d="M738.71,1483.44a3.78,3.78,0,1,1-3.78-3.78,3.78,3.78,0,0,1,3.78,3.78Z"/><path class="d" d="M748.25,1418.82a3.78,3.78,0,1,1-3.78-3.78,3.78,3.78,0,0,1,3.78,3.78Z"/><path class="e" d="M748.25,1418.82a3.78,3.78,0,1,1-3.78-3.78,3.78,3.78,0,0,1,3.78,3.78Z"/><path class="d" d="M757.79,1433.76a3.78,3.78,0,1,1-3.78-3.78,3.78,3.78,0,0,1,3.78,3.78Z"/><path class="e" d="M757.79,1433.76a3.78,3.78,0,1,1-3.78-3.78,3.78,3.78,0,0,1,3.78,3.78Z"/><path class="d" d="M767.33,1427.28a3.78,3.78,0,1,1-3.78-3.78,3.78,3.78,0,0,1,3.78,3.78Z"/><path class="e" d="M767.33,1427.28a3.78,3.78,0,1,1-3.78-3.78,3.78,3.78,0,0,1,3.78,3.78Z"/><path class="d" d="M776.87,1382.1a3.78,3.78,0,1,1-3.78-3.78,3.78,3.78,0,0,1,3.78,3.78Z"/><path class="e" d="M776.87,1382.1a3.78,3.78,0,1,1-3.78-3.78,3.78,3.78,0,0,1,3.78,3.78Z"/><path class="d" d="M786.41,1382.1a3.78,3.78,0,1,1-3.78-3.78,3.78,3.78,0,0,1,3.78,3.78Z"/><path class="e" d="M786.41,1382.1a3.78,3.78,0,1,1-3.78-3.78,3.78,3.78,0,0,1,3.78,3.78Z"/><path class="d" d="M795.95,1466.16a3.78,3.78,0,1,1-3.78-3.78,3.779,3.779,0,0,1,3.78,3.78Z"/><path class="e" d="M795.95,1466.16a3.78,3.78,0,1,1-3.78-3.78,3.779,3.779,0,0,1,3.78,3.78Z"/><path class="d" d="M805.49,1366.98a3.78,3.78,0,1,1-3.78-3.78,3.78,3.78,0,0,1,3.78,3.78Z"/><path class="e" d="M805.49,1366.98a3.78,3.78,0,1,1-3.78-3.78,3.78,3.78,0,0,1,3.78,3.78Z"/><path class="d" d="M815.03,1455.36a3.78,3.78,0,1,1-3.78-3.78,3.78,3.78,0,0,1,3.78,3.78Z"/><path class="e" d="M815.03,1455.36a3.78,3.78,0,1,1-3.78-3.78,3.78,3.78,0,0,1,3.78,3.78Z"/><path class="d" d="M824.57,1287.42a3.78,3.78,0,1,1-3.78-3.78,3.779,3.779,0,0,1,3.78,3.78Z"/><path class="e" d="M824.57,1287.42a3.78,3.78,0,1,1-3.78-3.78,3.779,3.779,0,0,1,3.78,3.78Z"/><path class="d" d="M834.11,1373.46a3.78,3.78,0,1,1-3.78-3.78,3.78,3.78,0,0,1,3.78,3.78Z"/><path class="e" d="M834.11,1373.46a3.78,3.78,0,1,1-3.78-3.78,3.78,3.78,0,0,1,3.78,3.78Z"/><path class="d" d="M843.65,1457.52a3.78,3.78,0,1,1-3.78-3.78,3.78,3.78,0,0,1,3.78,3.78Z"/><path class="e" d="M843.65,1457.52a3.78,3.78,0,1,1-3.78-3.78,3.78,3.78,0,0,1,3.78,3.78Z"/><path class="d" d="M853.19,1453.2a3.78,3.78,0,1,1-3.78-3.78,3.78,3.78,0,0,1,3.78,3.78Z"/><path class="e" d="M853.19,1453.2a3.78,3.78,0,1,1-3.78-3.78,3.78,3.78,0,0,1,3.78,3.78Z"/><path class="d" d="M862.73,1543.74a3.78,3.78,0,1,1-3.78-3.78,3.78,3.78,0,0,1,3.78,3.78Z"/><path class="e" d="M862.73,1543.74a3.78,3.78,0,1,1-3.78-3.78,3.78,3.78,0,0,1,3.78,3.78Z"/><path class="d" d="M872.27,1420.98a3.78,3.78,0,1,1-3.78-3.78,3.78,3.78,0,0,1,3.78,3.78Z"/><path class="e" d="M872.27,1420.98a3.78,3.78,0,1,1-3.78-3.78,3.78,3.78,0,0,1,3.78,3.78Z"/><path class="d" d="M881.81,1474.8a3.78,3.78,0,1,1-3.78-3.78,3.78,3.78,0,0,1,3.78,3.78Z"/><path class="e" d="M881.81,1474.8a3.78,3.78,0,1,1-3.78-3.78,3.78,3.78,0,0,1,3.78,3.78Z"/><path class="d" d="M891.35,1433.76a3.78,3.78,0,1,1-3.78-3.78,3.78,3.78,0,0,1,3.78,3.78Z"/><path class="e" d="M891.35,1433.76a3.78,3.78,0,1,1-3.78-3.78,3.78,3.78,0,0,1,3.78,3.78Z"/><path class="d" d="M900.89,1466.16a3.78,3.78,0,1,1-3.78-3.78,3.779,3.779,0,0,1,3.78,3.78Z"/><path class="e" d="M900.89,1466.16a3.78,3.78,0,1,1-3.78-3.78,3.779,3.779,0,0,1,3.78,3.78Z"/><path class="d" d="M910.43,1435.92a3.78,3.78,0,1,1-3.78-3.78,3.779,3.779,0,0,1,3.78,3.78Z"/><path class="e" d="M910.43,1435.92a3.78,3.78,0,1,1-3.78-3.78,3.779,3.779,0,0,1,3.78,3.78Z"/><path class="d" d="M919.97,1515.66a3.78,3.78,0,1,1-3.78-3.78,3.779,3.779,0,0,1,3.78,3.78Z"/><path class="e" d="M919.97,1515.66a3.78,3.78,0,1,1-3.78-3.78,3.779,3.779,0,0,1,3.78,3.78Z"/><path class="d" d="M929.51,1519.98a3.78,3.78,0,1,1-3.78-3.78,3.78,3.78,0,0,1,3.78,3.78Z"/><path class="e" d="M929.51,1519.98a3.78,3.78,0,1,1-3.78-3.78,3.78,3.78,0,0,1,3.78,3.78Z"/><path class="d" d="M939.05,1532.94a3.78,3.78,0,1,1-3.78-3.78,3.78,3.78,0,0,1,3.78,3.78Z"/><path class="e" d="M939.05,1532.94a3.78,3.78,0,1,1-3.78-3.78,3.78,3.78,0,0,1,3.78,3.78Z"/><path class="d" d="M948.59,1539.42a3.78,3.78,0,1,1-3.78-3.78,3.779,3.779,0,0,1,3.78,3.78Z"/><path class="e" d="M948.59,1539.42a3.78,3.78,0,1,1-3.78-3.78,3.779,3.779,0,0,1,3.78,3.78Z"/><path class="d" d="M958.13,1554.54a3.78,3.78,0,1,1-3.78-3.78,3.779,3.779,0,0,1,3.78,3.78Z"/><path class="e" d="M958.13,1554.54a3.78,3.78,0,1,1-3.78-3.78,3.779,3.779,0,0,1,3.78,3.78Z"/><path class="d" d="M967.49,1586.76a3.78,3.78,0,1,1-3.78-3.78,3.78,3.78,0,0,1,3.78,3.78Z"/><path class="e" d="M967.49,1586.76a3.78,3.78,0,1,1-3.78-3.78,3.78,3.78,0,0,1,3.78,3.78Z"/><path class="d" d="M977.03,1586.76a3.78,3.78,0,1,1-3.78-3.78,3.78,3.78,0,0,1,3.78,3.78Z"/><path class="e" d="M977.03,1586.76a3.78,3.78,0,1,1-3.78-3.78,3.78,3.78,0,0,1,3.78,3.78Z"/><path class="d" d="M986.57,1526.46a3.78,3.78,0,1,1-3.78-3.78,3.78,3.78,0,0,1,3.78,3.78Z"/><path class="e" d="M986.57,1526.46a3.78,3.78,0,1,1-3.78-3.78,3.78,3.78,0,0,1,3.78,3.78Z"/><path class="d" d="M996.11,1565.16a3.78,3.78,0,1,1-3.78-3.78,3.779,3.779,0,0,1,3.78,3.78Z"/><path class="e" d="M996.11,1565.16a3.78,3.78,0,1,1-3.78-3.78,3.779,3.779,0,0,1,3.78,3.78Z"/><path class="d" d="M1005.65,1250.7a3.78,3.78,0,1,1-3.78-3.78,3.78,3.78,0,0,1,3.78,3.78Z"/><path class="e" d="M1005.65,1250.7a3.78,3.78,0,1,1-3.78-3.78,3.78,3.78,0,0,1,3.78,3.78Z"/><path class="d" d="M1015.19,1571.64a3.78,3.78,0,1,1-3.78-3.78,3.78,3.78,0,0,1,3.78,3.78Z"/><path class="e" d="M1015.19,1571.64a3.78,3.78,0,1,1-3.78-3.78,3.78,3.78,0,0,1,3.78,3.78Z"/><path class="d" d="M1024.73,1468.32a3.78,3.78,0,1,1-3.78-3.78,3.78,3.78,0,0,1,3.78,3.78Z"/><path class="e" d="M1024.73,1468.32a3.78,3.78,0,1,1-3.78-3.78,3.78,3.78,0,0,1,3.78,3.78Z"/><path class="d" d="M1034.27,1528.62a3.78,3.78,0,1,1-3.78-3.78,3.78,3.78,0,0,1,3.78,3.78Z"/><path class="e" d="M1034.27,1528.62a3.78,3.78,0,1,1-3.78-3.78,3.78,3.78,0,0,1,3.78,3.78Z"/><path class="d" d="M1043.81,1552.38a3.78,3.78,0,1,1-3.78-3.78,3.78,3.78,0,0,1,3.78,3.78Z"/><path class="e" d="M1043.81,1552.38a3.78,3.78,0,1,1-3.78-3.78,3.78,3.78,0,0,1,3.78,3.78Z"/><path class="d" d="M1053.35,1586.76a3.78,3.78,0,1,1-3.78-3.78,3.78,3.78,0,0,1,3.78,3.78Z"/><path class="e" d="M1053.35,1586.76a3.78,3.78,0,1,1-3.78-3.78,3.78,3.78,0,0,1,3.78,3.78Z"/><path class="d" d="M1062.89,1526.46a3.78,3.78,0,1,1-3.78-3.78,3.78,3.78,0,0,1,3.78,3.78Z"/><path class="e" d="M1062.89,1526.46a3.78,3.78,0,1,1-3.78-3.78,3.78,3.78,0,0,1,3.78,3.78Z"/><path class="d" d="M1072.43,1586.76a3.78,3.78,0,1,1-3.78-3.78,3.78,3.78,0,0,1,3.78,3.78Z"/><path class="e" d="M1072.43,1586.76a3.78,3.78,0,1,1-3.78-3.78,3.78,3.78,0,0,1,3.78,3.78Z"/><path class="d" d="M1081.97,1496.22a3.78,3.78,0,1,1-3.78-3.78,3.78,3.78,0,0,1,3.78,3.78Z"/><path class="e" d="M1081.97,1496.22a3.78,3.78,0,1,1-3.78-3.78,3.78,3.78,0,0,1,3.78,3.78Z"/><path class="d" d="M1091.51,1554.54a3.78,3.78,0,1,1-3.78-3.78,3.779,3.779,0,0,1,3.78,3.78Z"/><path class="e" d="M1091.51,1554.54a3.78,3.78,0,1,1-3.78-3.78,3.779,3.779,0,0,1,3.78,3.78Z"/><path class="d" d="M1101.05,1586.76a3.78,3.78,0,1,1-3.78-3.78,3.78,3.78,0,0,1,3.78,3.78Z"/><path class="e" d="M1101.05,1586.76a3.78,3.78,0,1,1-3.78-3.78,3.78,3.78,0,0,1,3.78,3.78Z"/><path class="d" d="M1110.59,1524.3a3.78,3.78,0,1,1-3.78-3.78,3.78,3.78,0,0,1,3.78,3.78Z"/><path class="e" d="M1110.59,1524.3a3.78,3.78,0,1,1-3.78-3.78,3.78,3.78,0,0,1,3.78,3.78Z"/><path class="d" d="M1120.13,1573.8a3.78,3.78,0,1,1-3.78-3.78,3.78,3.78,0,0,1,3.78,3.78Z"/><path class="e" d="M1120.13,1573.8a3.78,3.78,0,1,1-3.78-3.78,3.78,3.78,0,0,1,3.78,3.78Z"/><path class="d" d="M1129.67,1573.8a3.78,3.78,0,1,1-3.78-3.78,3.78,3.78,0,0,1,3.78,3.78Z"/><path class="e" d="M1129.67,1573.8a3.78,3.78,0,1,1-3.78-3.78,3.78,3.78,0,0,1,3.78,3.78Z"/><path class="d" d="M1139.21,1565.16a3.78,3.78,0,1,1-3.78-3.78,3.779,3.779,0,0,1,3.78,3.78Z"/><path class="e" d="M1139.21,1565.16a3.78,3.78,0,1,1-3.78-3.78,3.779,3.779,0,0,1,3.78,3.78Z"/><path class="d" d="M1148.75,1541.58a3.78,3.78,0,1,1-3.78-3.78,3.78,3.78,0,0,1,3.78,3.78Z"/><path class="e" d="M1148.75,1541.58a3.78,3.78,0,1,1-3.78-3.78,3.78,3.78,0,0,1,3.78,3.78Z"/><path class="d" d="M1158.29,1554.54a3.78,3.78,0,1,1-3.78-3.78,3.779,3.779,0,0,1,3.78,3.78Z"/><path class="e" d="M1158.29,1554.54a3.78,3.78,0,1,1-3.78-3.78,3.779,3.779,0,0,1,3.78,3.78Z"/><path class="d" d="M1167.83,1558.86a3.78,3.78,0,1,1-3.78-3.78,3.78,3.78,0,0,1,3.78,3.78Z"/><path class="e" d="M1167.83,1558.86a3.78,3.78,0,1,1-3.78-3.78,3.78,3.78,0,0,1,3.78,3.78Z"/><path class="d" d="M1177.37,1545.9a3.78,3.78,0,1,1-3.78-3.78,3.78,3.78,0,0,1,3.78,3.78Z"/><path class="e" d="M1177.37,1545.9a3.78,3.78,0,1,1-3.78-3.78,3.78,3.78,0,0,1,3.78,3.78Z"/><path class="d" d="M1186.91,1573.8a3.78,3.78,0,1,1-3.78-3.78,3.78,3.78,0,0,1,3.78,3.78Z"/><path class="e" d="M1186.91,1573.8a3.78,3.78,0,1,1-3.78-3.78,3.78,3.78,0,0,1,3.78,3.78Z"/><path class="d" d="M1196.27,1565.16a3.78,3.78,0,1,1-3.78-3.78,3.779,3.779,0,0,1,3.78,3.78Z"/><path class="e" d="M1196.27,1565.16a3.78,3.78,0,1,1-3.78-3.78,3.779,3.779,0,0,1,3.78,3.78Z"/><path class="d" d="M1205.81,1548.06a3.78,3.78,0,1,1-3.78-3.78,3.78,3.78,0,0,1,3.78,3.78Z"/><path class="e" d="M1205.81,1548.06a3.78,3.78,0,1,1-3.78-3.78,3.78,3.78,0,0,1,3.78,3.78Z"/><path class="d" d="M1215.35,1552.38a3.78,3.78,0,1,1-3.78-3.78,3.78,3.78,0,0,1,3.78,3.78Z"/><path class="e" d="M1215.35,1552.38a3.78,3.78,0,1,1-3.78-3.78,3.78,3.78,0,0,1,3.78,3.78Z"/><path class="d" d="M1224.89,1565.16a3.78,3.78,0,1,1-3.78-3.78,3.779,3.779,0,0,1,3.78,3.78Z"/><path class="e" d="M1224.89,1565.16a3.78,3.78,0,1,1-3.78-3.78,3.779,3.779,0,0,1,3.78,3.78Z"/><path class="d" d="M1234.43,1500.54a3.78,3.78,0,1,1-3.78-3.78,3.779,3.779,0,0,1,3.78,3.78Z"/><path class="e" d="M1234.43,1500.54a3.78,3.78,0,1,1-3.78-3.78,3.779,3.779,0,0,1,3.78,3.78Z"/><path class="d" d="M1243.97,1567.32a3.78,3.78,0,1,1-3.78-3.78,3.78,3.78,0,0,1,3.78,3.78Z"/><path class="e" d="M1243.97,1567.32a3.78,3.78,0,1,1-3.78-3.78,3.78,3.78,0,0,1,3.78,3.78Z"/><path class="d" d="M1253.51,1554.54a3.78,3.78,0,1,1-3.78-3.78,3.779,3.779,0,0,1,3.78,3.78Z"/><path class="e" d="M1253.51,1554.54a3.78,3.78,0,1,1-3.78-3.78,3.779,3.779,0,0,1,3.78,3.78Z"/><path class="d" d="M1263.05,1582.44a3.78,3.78,0,1,1-3.78-3.78,3.78,3.78,0,0,1,3.78,3.78Z"/><path class="e" d="M1263.05,1582.44a3.78,3.78,0,1,1-3.78-3.78,3.78,3.78,0,0,1,3.78,3.78Z"/><path class="d" d="M1272.59,1578.12a3.78,3.78,0,1,1-3.78-3.78,3.78,3.78,0,0,1,3.78,3.78Z"/><path class="e" d="M1272.59,1578.12a3.78,3.78,0,1,1-3.78-3.78,3.78,3.78,0,0,1,3.78,3.78Z"/><path class="d" d="M1282.13,1564.026a3.78,3.78,0,1,1-3.78-3.78,3.78,3.78,0,0,1,3.78,3.78Z"/><path class="e" d="M1282.13,1564.026a3.78,3.78,0,1,1-3.78-3.78,3.78,3.78,0,0,1,3.78,3.78Z"/><path class="d" d="M1291.67,1579.146a3.78,3.78,0,1,1-3.78-3.78,3.78,3.78,0,0,1,3.78,3.78Z"/><path class="e" d="M1291.67,1579.146a3.78,3.78,0,1,1-3.78-3.78,3.78,3.78,0,0,1,3.78,3.78Z"/><path class="d" d="M1301.21,1542.606a3.78,3.78,0,1,1-3.78-3.78,3.78,3.78,0,0,1,3.78,3.78Z"/><path class="e" d="M1301.21,1542.606a3.78,3.78,0,1,1-3.78-3.78,3.78,3.78,0,0,1,3.78,3.78Z"/><path class="d" d="M1310.75,1579.146a3.78,3.78,0,1,1-3.78-3.78,3.78,3.78,0,0,1,3.78,3.78Z"/><path class="e" d="M1310.75,1579.146a3.78,3.78,0,1,1-3.78-3.78,3.78,3.78,0,0,1,3.78,3.78Z"/><path class="d" d="M1320.29,1581.306a3.78,3.78,0,1,1-3.78-3.78,3.78,3.78,0,0,1,3.78,3.78Z"/><path class="e" d="M1320.29,1581.306a3.78,3.78,0,1,1-3.78-3.78,3.78,3.78,0,0,1,3.78,3.78Z"/><path class="d" d="M1329.83,1576.986a3.78,3.78,0,1,1-3.78-3.78,3.78,3.78,0,0,1,3.78,3.78Z"/><path class="e" d="M1329.83,1576.986a3.78,3.78,0,1,1-3.78-3.78,3.78,3.78,0,0,1,3.78,3.78Z"/><path class="d" d="M1339.37,1564.026a3.78,3.78,0,1,1-3.78-3.78,3.78,3.78,0,0,1,3.78,3.78Z"/><path class="e" d="M1339.37,1564.026a3.78,3.78,0,1,1-3.78-3.78,3.78,3.78,0,0,1,3.78,3.78Z"/><path class="d" d="M1348.91,1561.866a3.78,3.78,0,1,1-3.78-3.78,3.78,3.78,0,0,1,3.78,3.78Z"/><path class="e" d="M1348.91,1561.866a3.78,3.78,0,1,1-3.78-3.78,3.78,3.78,0,0,1,3.78,3.78Z"/><path class="d" d="M1358.45,1579.146a3.78,3.78,0,1,1-3.78-3.78,3.779,3.779,0,0,1,3.78,3.78Z"/><path class="e" d="M1358.45,1579.146a3.78,3.78,0,1,1-3.78-3.78,3.779,3.779,0,0,1,3.78,3.78Z"/><path class="d" d="M1367.99,1579.146a3.78,3.78,0,1,1-3.78-3.78,3.78,3.78,0,0,1,3.78,3.78Z"/><path class="e" d="M1367.99,1579.146a3.78,3.78,0,1,1-3.78-3.78,3.78,3.78,0,0,1,3.78,3.78Z"/><path class="d" d="M1377.53,1572.666a3.78,3.78,0,1,1-3.78-3.78,3.78,3.78,0,0,1,3.78,3.78Z"/><path class="e" d="M1377.53,1572.666a3.78,3.78,0,1,1-3.78-3.78,3.78,3.78,0,0,1,3.78,3.78Z"/><path class="f" d="M477.683,1586.459h19.08l9.54-5.04,9.54-6.12,28.62-6.48,9.54-6.3,9.54-6.48,9.54-6.48,9.54-6.3,9.54-6.48,9.54-6.3,9.54-6.3,9.36-6.66,9.54-6.48,9.54-6.66,9.54-6.48,9.54-6.12,9.54-6.48,9.54-7.38,9.54-7.56,9.54-7.56,9.54-6.84,9.54-5.76,9.54-5.58,9.54-6.3,9.54-6.12,9.54-5.76,9.54-4.5,9.54-2.52,9.54-.9,9.54-.18,9.54.54,9.54,1.26,9.54,1.98,9.54,2.52,9.54,4.5,9.36,7.38,9.54,8.82,9.54,9.36,9.54,8.28,9.54,6.48,9.54,5.76,9.54,7.2,9.54,7.56,9.54,7.02,9.54,5.76,9.54,4.68,9.54,4.14,9.54,3.96,9.54,3.6,9.54,3.6,9.54,3.42,9.54,2.88,9.54,2.16,9.54,1.8,9.54,1.62,9.54,1.44,9.54,1.98,9.54,1.98,9.54,1.8,9.36,1.8,9.54,1.62,9.54,1.62,9.54,1.62,9.54,1.8,9.54,2.16,9.54,2.16,9.54,1.98,9.54,1.62,9.54,1.08,9.54.72,9.54.36,9.54.36,9.54.54,9.54.72,9.54.9,9.54.9,9.54.54,9.54.72,9.54.72,9.54.72,9.54.9,9.54.72,9.54.9,9.36.72,9.54.72,9.54.9,9.54.9,9.54.9,9.54.9,9.54,1.08,9.54.9"/><path class="g" d="M481.49,1586.58a3.78,3.78,0,1,1-3.78-3.78,3.78,3.78,0,0,1,3.78,3.78Z"/><path class="h" d="M481.49,1586.58a3.78,3.78,0,1,1-3.78-3.78,3.78,3.78,0,0,1,3.78,3.78Z"/><path class="g" d="M491.03,1586.58a3.78,3.78,0,1,1-3.78-3.78,3.78,3.78,0,0,1,3.78,3.78Z"/><path class="h" d="M491.03,1586.58a3.78,3.78,0,1,1-3.78-3.78,3.78,3.78,0,0,1,3.78,3.78Z"/><path class="g" d="M500.57,1586.58a3.78,3.78,0,1,1-3.78-3.78,3.78,3.78,0,0,1,3.78,3.78Z"/><path class="h" d="M500.57,1586.58a3.78,3.78,0,1,1-3.78-3.78,3.78,3.78,0,0,1,3.78,3.78Z"/><path class="g" d="M509.93,1581.54a3.78,3.78,0,1,1-3.78-3.78,3.779,3.779,0,0,1,3.78,3.78Z"/><path class="h" d="M509.93,1581.54a3.78,3.78,0,1,1-3.78-3.78,3.779,3.779,0,0,1,3.78,3.78Z"/><path class="g" d="M519.47,1575.24a3.78,3.78,0,1,1-3.78-3.78,3.78,3.78,0,0,1,3.78,3.78Z"/><path class="h" d="M519.47,1575.24a3.78,3.78,0,1,1-3.78-3.78,3.78,3.78,0,0,1,3.78,3.78Z"/><path class="g" d="M548.09,1568.94a3.78,3.78,0,1,1-3.78-3.78,3.78,3.78,0,0,1,3.78,3.78Z"/><path class="h" d="M548.09,1568.94a3.78,3.78,0,1,1-3.78-3.78,3.78,3.78,0,0,1,3.78,3.78Z"/><path class="g" d="M557.63,1562.46a3.78,3.78,0,1,1-3.78-3.78,3.78,3.78,0,0,1,3.78,3.78Z"/><path class="h" d="M557.63,1562.46a3.78,3.78,0,1,1-3.78-3.78,3.78,3.78,0,0,1,3.78,3.78Z"/><path class="g" d="M567.17,1556.16a3.78,3.78,0,1,1-3.78-3.78,3.779,3.779,0,0,1,3.78,3.78Z"/><path class="h" d="M567.17,1556.16a3.78,3.78,0,1,1-3.78-3.78,3.779,3.779,0,0,1,3.78,3.78Z"/><path class="g" d="M576.71,1549.68a3.78,3.78,0,1,1-3.78-3.78,3.78,3.78,0,0,1,3.78,3.78Z"/><path class="h" d="M576.71,1549.68a3.78,3.78,0,1,1-3.78-3.78,3.78,3.78,0,0,1,3.78,3.78Z"/><path class="g" d="M586.25,1543.2a3.78,3.78,0,1,1-3.78-3.78,3.78,3.78,0,0,1,3.78,3.78Z"/><path class="h" d="M586.25,1543.2a3.78,3.78,0,1,1-3.78-3.78,3.78,3.78,0,0,1,3.78,3.78Z"/><path class="g" d="M595.79,1536.9a3.78,3.78,0,1,1-3.78-3.78,3.78,3.78,0,0,1,3.78,3.78Z"/><path class="h" d="M595.79,1536.9a3.78,3.78,0,1,1-3.78-3.78,3.78,3.78,0,0,1,3.78,3.78Z"/><path class="g" d="M605.33,1530.6a3.78,3.78,0,1,1-3.78-3.78,3.78,3.78,0,0,1,3.78,3.78Z"/><path class="h" d="M605.33,1530.6a3.78,3.78,0,1,1-3.78-3.78,3.78,3.78,0,0,1,3.78,3.78Z"/><path class="g" d="M614.87,1524.12a3.78,3.78,0,1,1-3.78-3.78,3.78,3.78,0,0,1,3.78,3.78Z"/><path class="h" d="M614.87,1524.12a3.78,3.78,0,1,1-3.78-3.78,3.78,3.78,0,0,1,3.78,3.78Z"/><path class="g" d="M624.41,1517.64a3.78,3.78,0,1,1-3.78-3.78,3.78,3.78,0,0,1,3.78,3.78Z"/><path class="h" d="M624.41,1517.64a3.78,3.78,0,1,1-3.78-3.78,3.78,3.78,0,0,1,3.78,3.78Z"/><path class="g" d="M633.95,1510.98a3.78,3.78,0,1,1-3.78-3.78,3.78,3.78,0,0,1,3.78,3.78Z"/><path class="h" d="M633.95,1510.98a3.78,3.78,0,1,1-3.78-3.78,3.78,3.78,0,0,1,3.78,3.78Z"/><path class="g" d="M643.49,1504.5a3.78,3.78,0,1,1-3.78-3.78,3.78,3.78,0,0,1,3.78,3.78Z"/><path class="h" d="M643.49,1504.5a3.78,3.78,0,1,1-3.78-3.78,3.78,3.78,0,0,1,3.78,3.78Z"/><path class="g" d="M653.03,1498.02a3.78,3.78,0,1,1-3.78-3.78,3.78,3.78,0,0,1,3.78,3.78Z"/><path class="h" d="M653.03,1498.02a3.78,3.78,0,1,1-3.78-3.78,3.78,3.78,0,0,1,3.78,3.78Z"/><path class="g" d="M662.57,1491.9a3.78,3.78,0,1,1-3.78-3.78,3.78,3.78,0,0,1,3.78,3.78Z"/><path class="h" d="M662.57,1491.9a3.78,3.78,0,1,1-3.78-3.78,3.78,3.78,0,0,1,3.78,3.78Z"/><path class="g" d="M672.11,1485.42a3.78,3.78,0,1,1-3.78-3.78,3.779,3.779,0,0,1,3.78,3.78Z"/><path class="h" d="M672.11,1485.42a3.78,3.78,0,1,1-3.78-3.78,3.779,3.779,0,0,1,3.78,3.78Z"/><path class="g" d="M681.65,1478.04a3.78,3.78,0,1,1-3.78-3.78,3.779,3.779,0,0,1,3.78,3.78Z"/><path class="h" d="M681.65,1478.04a3.78,3.78,0,1,1-3.78-3.78,3.779,3.779,0,0,1,3.78,3.78Z"/><path class="g" d="M691.19,1470.3a3.78,3.78,0,1,1-3.78-3.78,3.78,3.78,0,0,1,3.78,3.78Z"/><path class="h" d="M691.19,1470.3a3.78,3.78,0,1,1-3.78-3.78,3.78,3.78,0,0,1,3.78,3.78Z"/><path class="g" d="M700.73,1462.74a3.78,3.78,0,1,1-3.78-3.78,3.78,3.78,0,0,1,3.78,3.78Z"/><path class="h" d="M700.73,1462.74a3.78,3.78,0,1,1-3.78-3.78,3.78,3.78,0,0,1,3.78,3.78Z"/><path class="g" d="M710.27,1455.9a3.78,3.78,0,1,1-3.78-3.78,3.78,3.78,0,0,1,3.78,3.78Z"/><path class="h" d="M710.27,1455.9a3.78,3.78,0,1,1-3.78-3.78,3.78,3.78,0,0,1,3.78,3.78Z"/><path class="g" d="M719.81,1450.14a3.78,3.78,0,1,1-3.78-3.78,3.78,3.78,0,0,1,3.78,3.78Z"/><path class="h" d="M719.81,1450.14a3.78,3.78,0,1,1-3.78-3.78,3.78,3.78,0,0,1,3.78,3.78Z"/><path class="g" d="M729.35,1444.74a3.78,3.78,0,1,1-3.78-3.78,3.78,3.78,0,0,1,3.78,3.78Z"/><path class="h" d="M729.35,1444.74a3.78,3.78,0,1,1-3.78-3.78,3.78,3.78,0,0,1,3.78,3.78Z"/><path class="g" d="M738.71,1438.44a3.78,3.78,0,1,1-3.78-3.78,3.78,3.78,0,0,1,3.78,3.78Z"/><path class="h" d="M738.71,1438.44a3.78,3.78,0,1,1-3.78-3.78,3.78,3.78,0,0,1,3.78,3.78Z"/><path class="g" d="M748.25,1432.14a3.78,3.78,0,1,1-3.78-3.78,3.78,3.78,0,0,1,3.78,3.78Z"/><path class="h" d="M748.25,1432.14a3.78,3.78,0,1,1-3.78-3.78,3.78,3.78,0,0,1,3.78,3.78Z"/><path class="g" d="M757.79,1426.38a3.78,3.78,0,1,1-3.78-3.78,3.78,3.78,0,0,1,3.78,3.78Z"/><path class="h" d="M757.79,1426.38a3.78,3.78,0,1,1-3.78-3.78,3.78,3.78,0,0,1,3.78,3.78Z"/><path class="g" d="M767.33,1422.06a3.78,3.78,0,1,1-3.78-3.78,3.78,3.78,0,0,1,3.78,3.78Z"/><path class="h" d="M767.33,1422.06a3.78,3.78,0,1,1-3.78-3.78,3.78,3.78,0,0,1,3.78,3.78Z"/><path class="g" d="M776.87,1419.54a3.78,3.78,0,1,1-3.78-3.78,3.779,3.779,0,0,1,3.78,3.78Z"/><path class="h" d="M776.87,1419.54a3.78,3.78,0,1,1-3.78-3.78,3.779,3.779,0,0,1,3.78,3.78Z"/><path class="g" d="M786.41,1418.46a3.78,3.78,0,1,1-3.78-3.78,3.78,3.78,0,0,1,3.78,3.78Z"/><path class="h" d="M786.41,1418.46a3.78,3.78,0,1,1-3.78-3.78,3.78,3.78,0,0,1,3.78,3.78Z"/><path class="g" d="M795.95,1418.28a3.78,3.78,0,1,1-3.78-3.78,3.78,3.78,0,0,1,3.78,3.78Z"/><path class="h" d="M795.95,1418.28a3.78,3.78,0,1,1-3.78-3.78,3.78,3.78,0,0,1,3.78,3.78Z"/><path class="g" d="M805.49,1418.82a3.78,3.78,0,1,1-3.78-3.78,3.78,3.78,0,0,1,3.78,3.78Z"/><path class="h" d="M805.49,1418.82a3.78,3.78,0,1,1-3.78-3.78,3.78,3.78,0,0,1,3.78,3.78Z"/><path class="g" d="M815.03,1420.26a3.78,3.78,0,1,1-3.78-3.78,3.78,3.78,0,0,1,3.78,3.78Z"/><path class="h" d="M815.03,1420.26a3.78,3.78,0,1,1-3.78-3.78,3.78,3.78,0,0,1,3.78,3.78Z"/><path class="g" d="M824.57,1422.06a3.78,3.78,0,1,1-3.78-3.78,3.78,3.78,0,0,1,3.78,3.78Z"/><path class="h" d="M824.57,1422.06a3.78,3.78,0,1,1-3.78-3.78,3.78,3.78,0,0,1,3.78,3.78Z"/><path class="g" d="M834.11,1424.58a3.78,3.78,0,1,1-3.78-3.78,3.78,3.78,0,0,1,3.78,3.78Z"/><path class="h" d="M834.11,1424.58a3.78,3.78,0,1,1-3.78-3.78,3.78,3.78,0,0,1,3.78,3.78Z"/><path class="g" d="M843.65,1429.08a3.78,3.78,0,1,1-3.78-3.78,3.78,3.78,0,0,1,3.78,3.78Z"/><path class="h" d="M843.65,1429.08a3.78,3.78,0,1,1-3.78-3.78,3.78,3.78,0,0,1,3.78,3.78Z"/><path class="g" d="M853.19,1436.46a3.78,3.78,0,1,1-3.78-3.78,3.78,3.78,0,0,1,3.78,3.78Z"/><path class="h" d="M853.19,1436.46a3.78,3.78,0,1,1-3.78-3.78,3.78,3.78,0,0,1,3.78,3.78Z"/><path class="g" d="M862.73,1445.46a3.78,3.78,0,1,1-3.78-3.78,3.78,3.78,0,0,1,3.78,3.78Z"/><path class="h" d="M862.73,1445.46a3.78,3.78,0,1,1-3.78-3.78,3.78,3.78,0,0,1,3.78,3.78Z"/><path class="g" d="M872.27,1454.64a3.78,3.78,0,1,1-3.78-3.78,3.78,3.78,0,0,1,3.78,3.78Z"/><path class="h" d="M872.27,1454.64a3.78,3.78,0,1,1-3.78-3.78,3.78,3.78,0,0,1,3.78,3.78Z"/><path class="g" d="M881.81,1463.1a3.78,3.78,0,1,1-3.78-3.78,3.78,3.78,0,0,1,3.78,3.78Z"/><path class="h" d="M881.81,1463.1a3.78,3.78,0,1,1-3.78-3.78,3.78,3.78,0,0,1,3.78,3.78Z"/><path class="g" d="M891.35,1469.4a3.78,3.78,0,1,1-3.78-3.78,3.78,3.78,0,0,1,3.78,3.78Z"/><path class="h" d="M891.35,1469.4a3.78,3.78,0,1,1-3.78-3.78,3.78,3.78,0,0,1,3.78,3.78Z"/><path class="g" d="M900.89,1475.34a3.78,3.78,0,1,1-3.78-3.78,3.78,3.78,0,0,1,3.78,3.78Z"/><path class="h" d="M900.89,1475.34a3.78,3.78,0,1,1-3.78-3.78,3.78,3.78,0,0,1,3.78,3.78Z"/><path class="g" d="M910.43,1482.36a3.78,3.78,0,1,1-3.78-3.78,3.78,3.78,0,0,1,3.78,3.78Z"/><path class="h" d="M910.43,1482.36a3.78,3.78,0,1,1-3.78-3.78,3.78,3.78,0,0,1,3.78,3.78Z"/><path class="g" d="M919.97,1489.92a3.78,3.78,0,1,1-3.78-3.78,3.779,3.779,0,0,1,3.78,3.78Z"/><path class="h" d="M919.97,1489.92a3.78,3.78,0,1,1-3.78-3.78,3.779,3.779,0,0,1,3.78,3.78Z"/><path class="g" d="M929.51,1497.12a3.78,3.78,0,1,1-3.78-3.78,3.78,3.78,0,0,1,3.78,3.78Z"/><path class="h" d="M929.51,1497.12a3.78,3.78,0,1,1-3.78-3.78,3.78,3.78,0,0,1,3.78,3.78Z"/><path class="g" d="M939.05,1502.88a3.78,3.78,0,1,1-3.78-3.78,3.78,3.78,0,0,1,3.78,3.78Z"/><path class="h" d="M939.05,1502.88a3.78,3.78,0,1,1-3.78-3.78,3.78,3.78,0,0,1,3.78,3.78Z"/><path class="g" d="M948.59,1507.38a3.78,3.78,0,1,1-3.78-3.78,3.78,3.78,0,0,1,3.78,3.78Z"/><path class="h" d="M948.59,1507.38a3.78,3.78,0,1,1-3.78-3.78,3.78,3.78,0,0,1,3.78,3.78Z"/><path class="g" d="M958.13,1511.52a3.78,3.78,0,1,1-3.78-3.78,3.78,3.78,0,0,1,3.78,3.78Z"/><path class="h" d="M958.13,1511.52a3.78,3.78,0,1,1-3.78-3.78,3.78,3.78,0,0,1,3.78,3.78Z"/><path class="g" d="M967.49,1515.48a3.78,3.78,0,1,1-3.78-3.78,3.78,3.78,0,0,1,3.78,3.78Z"/><path class="h" d="M967.49,1515.48a3.78,3.78,0,1,1-3.78-3.78,3.78,3.78,0,0,1,3.78,3.78Z"/><path class="g" d="M977.03,1519.26a3.78,3.78,0,1,1-3.78-3.78,3.78,3.78,0,0,1,3.78,3.78Z"/><path class="h" d="M977.03,1519.26a3.78,3.78,0,1,1-3.78-3.78,3.78,3.78,0,0,1,3.78,3.78Z"/><path class="g" d="M986.57,1522.68a3.78,3.78,0,1,1-3.78-3.78,3.78,3.78,0,0,1,3.78,3.78Z"/><path class="h" d="M986.57,1522.68a3.78,3.78,0,1,1-3.78-3.78,3.78,3.78,0,0,1,3.78,3.78Z"/><path class="g" d="M996.11,1526.1a3.78,3.78,0,1,1-3.78-3.78,3.78,3.78,0,0,1,3.78,3.78Z"/><path class="h" d="M996.11,1526.1a3.78,3.78,0,1,1-3.78-3.78,3.78,3.78,0,0,1,3.78,3.78Z"/><path class="g" d="M1005.65,1528.98a3.78,3.78,0,1,1-3.78-3.78,3.78,3.78,0,0,1,3.78,3.78Z"/><path class="h" d="M1005.65,1528.98a3.78,3.78,0,1,1-3.78-3.78,3.78,3.78,0,0,1,3.78,3.78Z"/><path class="g" d="M1015.19,1531.32a3.78,3.78,0,1,1-3.78-3.78,3.78,3.78,0,0,1,3.78,3.78Z"/><path class="h" d="M1015.19,1531.32a3.78,3.78,0,1,1-3.78-3.78,3.78,3.78,0,0,1,3.78,3.78Z"/><path class="g" d="M1024.73,1532.94a3.78,3.78,0,1,1-3.78-3.78,3.78,3.78,0,0,1,3.78,3.78Z"/><path class="h" d="M1024.73,1532.94a3.78,3.78,0,1,1-3.78-3.78,3.78,3.78,0,0,1,3.78,3.78Z"/><path class="g" d="M1034.27,1534.56a3.78,3.78,0,1,1-3.78-3.78,3.78,3.78,0,0,1,3.78,3.78Z"/><path class="h" d="M1034.27,1534.56a3.78,3.78,0,1,1-3.78-3.78,3.78,3.78,0,0,1,3.78,3.78Z"/><path class="g" d="M1043.81,1536.18a3.78,3.78,0,1,1-3.78-3.78,3.78,3.78,0,0,1,3.78,3.78Z"/><path class="h" d="M1043.81,1536.18a3.78,3.78,0,1,1-3.78-3.78,3.78,3.78,0,0,1,3.78,3.78Z"/><path class="g" d="M1053.35,1537.98a3.78,3.78,0,1,1-3.78-3.78,3.78,3.78,0,0,1,3.78,3.78Z"/><path class="h" d="M1053.35,1537.98a3.78,3.78,0,1,1-3.78-3.78,3.78,3.78,0,0,1,3.78,3.78Z"/><path class="g" d="M1062.89,1539.96a3.78,3.78,0,1,1-3.78-3.78,3.78,3.78,0,0,1,3.78,3.78Z"/><path class="h" d="M1062.89,1539.96a3.78,3.78,0,1,1-3.78-3.78,3.78,3.78,0,0,1,3.78,3.78Z"/><path class="g" d="M1072.43,1541.94a3.78,3.78,0,1,1-3.78-3.78,3.78,3.78,0,0,1,3.78,3.78Z"/><path class="h" d="M1072.43,1541.94a3.78,3.78,0,1,1-3.78-3.78,3.78,3.78,0,0,1,3.78,3.78Z"/><path class="g" d="M1081.97,1543.74a3.78,3.78,0,1,1-3.78-3.78,3.78,3.78,0,0,1,3.78,3.78Z"/><path class="h" d="M1081.97,1543.74a3.78,3.78,0,1,1-3.78-3.78,3.78,3.78,0,0,1,3.78,3.78Z"/><path class="g" d="M1091.51,1545.36a3.78,3.78,0,1,1-3.78-3.78,3.78,3.78,0,0,1,3.78,3.78Z"/><path class="h" d="M1091.51,1545.36a3.78,3.78,0,1,1-3.78-3.78,3.78,3.78,0,0,1,3.78,3.78Z"/><path class="g" d="M1101.05,1546.98a3.78,3.78,0,1,1-3.78-3.78,3.78,3.78,0,0,1,3.78,3.78Z"/><path class="h" d="M1101.05,1546.98a3.78,3.78,0,1,1-3.78-3.78,3.78,3.78,0,0,1,3.78,3.78Z"/><path class="g" d="M1110.59,1548.6a3.78,3.78,0,1,1-3.78-3.78,3.78,3.78,0,0,1,3.78,3.78Z"/><path class="h" d="M1110.59,1548.6a3.78,3.78,0,1,1-3.78-3.78,3.78,3.78,0,0,1,3.78,3.78Z"/><path class="g" d="M1120.13,1550.4a3.78,3.78,0,1,1-3.78-3.78,3.78,3.78,0,0,1,3.78,3.78Z"/><path class="h" d="M1120.13,1550.4a3.78,3.78,0,1,1-3.78-3.78,3.78,3.78,0,0,1,3.78,3.78Z"/><path class="g" d="M1129.67,1552.38a3.78,3.78,0,1,1-3.78-3.78,3.78,3.78,0,0,1,3.78,3.78Z"/><path class="h" d="M1129.67,1552.38a3.78,3.78,0,1,1-3.78-3.78,3.78,3.78,0,0,1,3.78,3.78Z"/><path class="g" d="M1139.21,1554.54a3.78,3.78,0,1,1-3.78-3.78,3.779,3.779,0,0,1,3.78,3.78Z"/><path class="h" d="M1139.21,1554.54a3.78,3.78,0,1,1-3.78-3.78,3.779,3.779,0,0,1,3.78,3.78Z"/><path class="g" d="M1148.75,1556.7a3.78,3.78,0,1,1-3.78-3.78,3.78,3.78,0,0,1,3.78,3.78Z"/><path class="h" d="M1148.75,1556.7a3.78,3.78,0,1,1-3.78-3.78,3.78,3.78,0,0,1,3.78,3.78Z"/><path class="g" d="M1158.29,1558.32a3.78,3.78,0,1,1-3.78-3.78,3.78,3.78,0,0,1,3.78,3.78Z"/><path class="h" d="M1158.29,1558.32a3.78,3.78,0,1,1-3.78-3.78,3.78,3.78,0,0,1,3.78,3.78Z"/><path class="g" d="M1167.83,1559.22a3.78,3.78,0,1,1-3.78-3.78,3.78,3.78,0,0,1,3.78,3.78Z"/><path class="h" d="M1167.83,1559.22a3.78,3.78,0,1,1-3.78-3.78,3.78,3.78,0,0,1,3.78,3.78Z"/><path class="g" d="M1177.37,1559.94a3.78,3.78,0,1,1-3.78-3.78,3.78,3.78,0,0,1,3.78,3.78Z"/><path class="h" d="M1177.37,1559.94a3.78,3.78,0,1,1-3.78-3.78,3.78,3.78,0,0,1,3.78,3.78Z"/><path class="g" d="M1186.91,1560.48a3.78,3.78,0,1,1-3.78-3.78,3.78,3.78,0,0,1,3.78,3.78Z"/><path class="h" d="M1186.91,1560.48a3.78,3.78,0,1,1-3.78-3.78,3.78,3.78,0,0,1,3.78,3.78Z"/><path class="g" d="M1196.27,1560.84a3.78,3.78,0,1,1-3.78-3.78,3.78,3.78,0,0,1,3.78,3.78Z"/><path class="h" d="M1196.27,1560.84a3.78,3.78,0,1,1-3.78-3.78,3.78,3.78,0,0,1,3.78,3.78Z"/><path class="g" d="M1205.81,1561.2a3.78,3.78,0,1,1-3.78-3.78,3.78,3.78,0,0,1,3.78,3.78Z"/><path class="h" d="M1205.81,1561.2a3.78,3.78,0,1,1-3.78-3.78,3.78,3.78,0,0,1,3.78,3.78Z"/><path class="g" d="M1215.35,1562.1a3.78,3.78,0,1,1-3.78-3.78,3.78,3.78,0,0,1,3.78,3.78Z"/><path class="h" d="M1215.35,1562.1a3.78,3.78,0,1,1-3.78-3.78,3.78,3.78,0,0,1,3.78,3.78Z"/><path class="g" d="M1224.89,1563a3.78,3.78,0,1,1-3.78-3.78,3.78,3.78,0,0,1,3.78,3.78Z"/><path class="h" d="M1224.89,1563a3.78,3.78,0,1,1-3.78-3.78,3.78,3.78,0,0,1,3.78,3.78Z"/><path class="g" d="M1234.43,1563.72a3.78,3.78,0,1,1-3.78-3.78,3.78,3.78,0,0,1,3.78,3.78Z"/><path class="h" d="M1234.43,1563.72a3.78,3.78,0,1,1-3.78-3.78,3.78,3.78,0,0,1,3.78,3.78Z"/><path class="g" d="M1243.97,1564.44a3.78,3.78,0,1,1-3.78-3.78,3.78,3.78,0,0,1,3.78,3.78Z"/><path class="h" d="M1243.97,1564.44a3.78,3.78,0,1,1-3.78-3.78,3.78,3.78,0,0,1,3.78,3.78Z"/><path class="g" d="M1253.51,1565.16a3.78,3.78,0,1,1-3.78-3.78,3.779,3.779,0,0,1,3.78,3.78Z"/><path class="h" d="M1253.51,1565.16a3.78,3.78,0,1,1-3.78-3.78,3.779,3.779,0,0,1,3.78,3.78Z"/><path class="g" d="M1263.05,1565.7a3.78,3.78,0,1,1-3.78-3.78,3.78,3.78,0,0,1,3.78,3.78Z"/><path class="h" d="M1263.05,1565.7a3.78,3.78,0,1,1-3.78-3.78,3.78,3.78,0,0,1,3.78,3.78Z"/><path class="g" d="M1272.59,1566.6a3.78,3.78,0,1,1-3.78-3.78,3.78,3.78,0,0,1,3.78,3.78Z"/><path class="h" d="M1272.59,1566.6a3.78,3.78,0,1,1-3.78-3.78,3.78,3.78,0,0,1,3.78,3.78Z"/><path class="g" d="M1282.13,1566.186a3.78,3.78,0,1,1-3.78-3.78,3.779,3.779,0,0,1,3.78,3.78Z"/><path class="h" d="M1282.13,1566.186a3.78,3.78,0,1,1-3.78-3.78,3.779,3.779,0,0,1,3.78,3.78Z"/><path class="g" d="M1291.67,1567.086a3.78,3.78,0,1,1-3.78-3.78,3.78,3.78,0,0,1,3.78,3.78Z"/><path class="h" d="M1291.67,1567.086a3.78,3.78,0,1,1-3.78-3.78,3.78,3.78,0,0,1,3.78,3.78Z"/><path class="g" d="M1301.21,1567.806a3.78,3.78,0,1,1-3.78-3.78,3.78,3.78,0,0,1,3.78,3.78Z"/><path class="h" d="M1301.21,1567.806a3.78,3.78,0,1,1-3.78-3.78,3.78,3.78,0,0,1,3.78,3.78Z"/><path class="g" d="M1310.75,1568.526a3.78,3.78,0,1,1-3.78-3.78,3.78,3.78,0,0,1,3.78,3.78Z"/><path class="h" d="M1310.75,1568.526a3.78,3.78,0,1,1-3.78-3.78,3.78,3.78,0,0,1,3.78,3.78Z"/><path class="g" d="M1320.29,1569.426a3.78,3.78,0,1,1-3.78-3.78,3.78,3.78,0,0,1,3.78,3.78Z"/><path class="h" d="M1320.29,1569.426a3.78,3.78,0,1,1-3.78-3.78,3.78,3.78,0,0,1,3.78,3.78Z"/><path class="g" d="M1329.83,1570.146a3.78,3.78,0,1,1-3.78-3.78,3.78,3.78,0,0,1,3.78,3.78Z"/><path class="h" d="M1329.83,1570.146a3.78,3.78,0,1,1-3.78-3.78,3.78,3.78,0,0,1,3.78,3.78Z"/><path class="g" d="M1339.37,1571.046a3.78,3.78,0,1,1-3.78-3.78,3.78,3.78,0,0,1,3.78,3.78Z"/><path class="h" d="M1339.37,1571.046a3.78,3.78,0,1,1-3.78-3.78,3.78,3.78,0,0,1,3.78,3.78Z"/><path class="g" d="M1348.91,1571.946a3.78,3.78,0,1,1-3.78-3.78,3.779,3.779,0,0,1,3.78,3.78Z"/><path class="h" d="M1348.91,1571.946a3.78,3.78,0,1,1-3.78-3.78,3.779,3.779,0,0,1,3.78,3.78Z"/><path class="g" d="M1358.45,1573.026a3.78,3.78,0,1,1-3.78-3.78,3.779,3.779,0,0,1,3.78,3.78Z"/><path class="h" d="M1358.45,1573.026a3.78,3.78,0,1,1-3.78-3.78,3.779,3.779,0,0,1,3.78,3.78Z"/><path class="g" d="M1367.99,1573.926a3.78,3.78,0,1,1-3.78-3.78,3.78,3.78,0,0,1,3.78,3.78Z"/><path class="h" d="M1367.99,1573.926a3.78,3.78,0,1,1-3.78-3.78,3.78,3.78,0,0,1,3.78,3.78Z"/><path class="g" d="M1377.53,1574.826a3.78,3.78,0,1,1-3.78-3.78,3.78,3.78,0,0,1,3.78,3.78Z"/><path class="h" d="M1377.53,1574.826a3.78,3.78,0,1,1-3.78-3.78,3.78,3.78,0,0,1,3.78,3.78Z"/><text class="i" transform="translate(374.52 1591.867)"><tspan x="0" y="0">0</tspan></text><text class="i" transform="translate(365.889 1548.789)"><tspan x="0" y="0">20</tspan></text><text class="i" transform="translate(365.889 1505.71)"><tspan x="0" y="0">40</tspan></text><text class="i" transform="translate(365.889 1462.632)"><tspan x="0" y="0">60</tspan></text><text class="i" transform="translate(365.889 1419.531)"><tspan x="0" y="0">80</tspan></text><text class="i" transform="translate(357.387 1376.453)"><tspan x="0" y="0">100</tspan></text><text class="i" transform="translate(357.387 1333.375)"><tspan x="0" y="0">120</tspan></text><text class="i" transform="translate(357.387 1290.285)"><tspan x="0" y="0">140</tspan></text><text class="i" transform="translate(357.387 1247.207)"><tspan x="0" y="0">160</tspan></text><text class="i" transform="translate(357.387 1204.117)"><tspan x="0" y="0">180</tspan></text><text class="i" transform="translate(365.789 1612.878)"><tspan x="0" y="0">19/2/2020</tspan></text><text class="i" transform="translate(556.441 1612.878)"><tspan x="0" y="0">10/3/2020</tspan></text><text class="i" transform="translate(747.094 1612.878)"><tspan x="0" y="0">30/3/2020</tspan></text><text class="i" transform="translate(937.734 1612.878)"><tspan x="0" y="0">19/4/2020</tspan></text><text class="i" transform="translate(1132.57 1612.878)"><tspan x="0" y="0">9/5/2020</tspan></text><text class="i" transform="translate(1319.039 1611.745)"><tspan x="0" y="0">29/5/2020</tspan></text><text class="i" transform="translate(1509.691 1611.745)"><tspan x="0" y="0">18/6/2020</tspan></text><line class="j" y2="109.463" transform="translate(501.354 1474.948)"/><path class="k" d="M505.854,1582.912l-4.5,9-4.5-9Z"/><line class="j" x1="0.275" y2="235.547" transform="translate(800.162 1340.848)"/><path class="k" d="M795.664,1574.89l4.49,9.005,4.51-8.995-9-.01Z"/><line class="l" y1="334.39" x2="0.333" transform="translate(595.943 1259.038)"/><line class="m" y1="333.569" x2="0.333" transform="translate(712.224 1259.038)"/><path class="n" d="M466.507,1441.171H536.2v36.54H466.507v-36.54Z"/><path class="n" d="M765.591,1308.717h69.693v36.54H765.591v-36.54Z"/><path class="n" d="M671.1,1223.043H754.01v36.54H671.1v-36.54Z"/><path class="n" d="M554.657,1223.043h82.906v36.54H554.657v-36.54Z"/><text class="o" transform="translate(501.354 1463.549)"><tspan x="-26.044" y="0">Rt = 2.0</tspan></text><text class="o" transform="translate(800.438 1331.095)"><tspan x="-21.22" y="0">Rt &lt; 1 </tspan></text><text class="o" transform="translate(712.557 1245.421)"><tspan x="-36.514" y="0">Lock Down</tspan></text><text class="o" transform="translate(596.11 1237.066)"><tspan x="-20.49" y="0">Social</tspan><tspan x="-37.316" y="16">Distancing </tspan></text></g></svg>