<svg xmlns="http://www.w3.org/2000/svg" width="1041.109" height="425.859" viewBox="0 0 1041.109 425.859"><defs><style>.a{fill:#fff;stroke-width:1.426px;}.a,.b{stroke:#a7a9ac;stroke-miterlimit:10;}.b,.d{fill:none;}.b{stroke-width:0.283px;}.c{fill:#91bce8;}.d{fill-rule:evenodd;}.e{fill:#222b3e;}.f{fill:#606060;font-size:14.314px;font-family:IBMPlexSans, IBM Plex Sans;}</style></defs><g transform="translate(-439.445 -5354.983)"><rect class="a" width="1039.683" height="424.433" transform="translate(440.158 5355.696)"/><path class="b" d="M528.472,5698.859h929.34m-929.34-31.5h929.34m-929.34-31.5h929.34m-929.34-31.68h929.34m-929.34-31.5h929.34m-929.34-31.5h929.34m-929.34-31.68h929.34M528.472,5478h929.34m-929.34-31.5h929.34m-929.34-31.68h929.34"/><line class="b" x2="929.34" transform="translate(528.472 5730.358)"/><path class="b" d="M528.472,5730.358v4.32m104.76-4.32v4.32m101.34-4.32v4.32m104.76-4.32v4.32m101.34-4.32v4.32m104.76-4.32v4.32m104.76-4.32v4.32m101.34-4.32v4.32m104.94-4.32v4.32m101.34-4.32v4.32"/><path class="c" d="M543.681,5729.9a.709.709,0,0,1-.189-1.392l3.24-.9,6.785-2.5,3.451-1.091,3.2-1.245,6.852-2.524,3.484-.921,3.277-1.21,2.935-1.957,3.357-14.843,3.411-22.093,3.417-26.8,3.238-36.333,3.419-53.263,3.423-29.377a.679.679,0,0,1,.04-.165l3.393-9.109,3.23-22.066a.7.7,0,0,1,.035-.141l3.42-9.359a.694.694,0,0,1,.093-.175l3.315-4.536,3.395-24.843a.712.712,0,0,1,.246-.445l3.42-2.88,3.043-2.033,3.373-22.371a.708.708,0,0,1,.7-.6H742.941a.708.708,0,0,1,.7.6l3.37,21.1,3.149,1.988,3.413,2.513,3.185,1.593a.708.708,0,0,1,.384.528l3.387,22.459,3.223,3.393,3.37,2.483a.753.753,0,0,1,.094.083l3.1,3.274,3.225.849,6.905,2.54a.7.7,0,0,1,.133.066l3.42,2.159,3.277,2.365a.719.719,0,0,1,.238.3l3.236,7.667h40.031a.708.708,0,0,1,.667.469l3.294,9.189,3.059.805a.708.708,0,0,1,.345.21l3.42,3.78,3.395,3.4a.7.7,0,0,1,.183.312l3.24,11.7,3.438,24.39,3.42,23.4,3.416,30.207,3.082,11.127h23.22a.709.709,0,0,1,.7.594l3.42,20.88,3.217,10.345,3.4,12.888,3.365,5.492a.681.681,0,0,1,.095.25l3.409,19.917,3.4,9.3,2.91,7.113,2.706-1.708,3.258-2.753,3.362-5.308a.809.809,0,0,1,.084-.108l3.176-3.352,3.376-6.219a.708.708,0,0,1,.622-.37H932.3a.709.709,0,0,1,.63.385l3.189,6.2,3.341,3.342a.64.64,0,0,1,.1.121l3.212,5.071h6.048l3.034-5.056a.692.692,0,0,1,.106-.136l3.348-3.348,3.371-6.21a.723.723,0,0,1,.166-.2l3.3-2.777,3.173-7.052a.711.711,0,0,1,.647-.418h13.157l3.086-9.942a.684.684,0,0,1,.091-.188l3.347-4.933,3.389-14.094,3.446-9.262,3.212-8.033L999.1,5613.9l3.417-37.233a.709.709,0,0,1,.706-.644h40.5a.708.708,0,0,1,.7.642l3.42,36,3.409,27.444,3.394,9.647,3.242,9.364,3.391,13.911,3.28,3.279a.711.711,0,0,1,.172.281l3.26,9.952h15.884l3.086-9.942a.657.657,0,0,1,.091-.188l3.346-4.933,3.39-14.094,3.445-9.262,3.222-6.274,3.4-22.206,3.415-32.547a.708.708,0,0,1,1.125-.5l3.312,2.44,3.289.865a.726.726,0,0,1,.188.081l3.241,1.98a.706.706,0,0,1,.3.384l3.26,9.952h49.659l3.311-17.424,3.238-18.708,3.418-21.948a.687.687,0,0,1,.082-.237l3.419-6.12,3.435-5.6,3.255-4.882a.7.7,0,0,1,.344-.272l3.42-1.261a.711.711,0,0,1,.759.177l3.42,3.6a.7.7,0,0,1,.1.135l3.42,5.94,3.416,5.751a.7.7,0,0,1,.092.259L1210,5563.5l3.322,4.722a.688.688,0,0,1,.122.307l3.42,23.94,3.4,22.547,3.048,5.419,3.174,1.17a.717.717,0,0,1,.409.389l3.236,7.667h13.03a.707.707,0,0,1,.684.523l3.325,12.247,3.077,1.134a.7.7,0,0,1,.17.09l3.239,2.34a.7.7,0,0,1,.219.258l3.344,6.688,3.283,2.418a.7.7,0,0,1,.159.163l3.42,4.86,3.068,5.279h19.4l3.27-11.19,3.437-9.229,3.219-7.158,3.406-20.789,3.415-31.462,3.427-18.592,3.428-14.079a.708.708,0,0,1,.689-.541h46.649l3.259-9.776a.7.7,0,0,1,.158-.264l3.42-3.6a.66.66,0,0,1,.093-.082l3.42-2.521,3.387-2.141,3.089-3.261,3.37-8.158a.691.691,0,0,1,.154-.23l3.261-3.261,3.381-19.758a.706.706,0,0,1,.085-.236l3.241-5.58a.69.69,0,0,1,.112-.145l3.42-3.42,3.286-3.46,3.372-12.07a.709.709,0,0,1,.683-.518h57.42a.708.708,0,1,1,0,1.417H1399.22l-3.276,11.722a.7.7,0,0,1-.169.3l-3.42,3.6-3.367,3.368-3.13,5.389-3.4,19.854a.707.707,0,0,1-.2.382l-3.321,3.32-3.365,8.149a.722.722,0,0,1-.14.217l-3.241,3.42a.766.766,0,0,1-.135.112l-3.421,2.16-3.327,2.454-3.269,3.44-3.37,10.111a.708.708,0,0,1-.672.484h-46.6l-3.288,13.5-3.411,18.5-3.413,31.449-3.426,20.917a.677.677,0,0,1-.052.176l-3.24,7.2-3.4,9.137-3.4,11.651a.709.709,0,0,1-.68.51h-20.341a.708.708,0,0,1-.613-.353l-3.239-5.579-3.32-4.714-3.328-2.451a.708.708,0,0,1-.214-.254l-3.341-6.685-3.02-2.181-3.329-1.226a.707.707,0,0,1-.439-.48l-3.279-12.077h-12.958a.708.708,0,0,1-.652-.433l-3.3-7.817-3.132-1.153a.712.712,0,0,1-.373-.318l-3.239-5.76a.743.743,0,0,1-.083-.242l-3.421-22.68-3.4-23.777-3.321-4.721a.709.709,0,0,1-.122-.3l-3.219-21.822-3.349-5.64-3.383-5.875-3.04-3.2-2.766,1.019-3.112,4.668-3.405,5.557-3.344,5.985-3.4,21.834-3.243,18.732-3.421,18.011a.709.709,0,0,1-.7.576h-50.76a.708.708,0,0,1-.673-.488l-3.338-10.192-2.929-1.789-3.32-.874a.715.715,0,0,1-.24-.115l-2.424-1.786-3.29,31.349-3.425,22.354a.7.7,0,0,1-.071.217l-3.24,6.3-3.385,9.1-3.4,14.138a.733.733,0,0,1-.1.233l-3.361,4.952-3.209,10.34a.709.709,0,0,1-.677.5h-16.92a.709.709,0,0,1-.673-.488l-3.368-10.279-3.3-3.3a.7.7,0,0,1-.188-.333l-3.42-14.04-6.64-19.012a.693.693,0,0,1-.035-.148l-3.42-27.54-3.361-35.379h-39.209l-3.36,36.616-3.423,26.307a.729.729,0,0,1-.045.172l-3.24,8.1-3.414,9.164-3.395,14.138a.711.711,0,0,1-.1.233l-3.362,4.952-3.209,10.34a.707.707,0,0,1-.676.5H966.42l-3.052,6.782a.7.7,0,0,1-.19.251l-3.318,2.795-3.355,6.181a.7.7,0,0,1-.122.164l-3.359,3.358-3.194,5.325a.71.71,0,0,1-.608.344h-6.84a.709.709,0,0,1-.6-.329l-3.378-5.334-3.364-3.364a.7.7,0,0,1-.13-.177l-3.042-5.916h-5.986l-3.218,5.929a.71.71,0,0,1-.109.15l-3.193,3.37-3.383,5.342a.672.672,0,0,1-.142.162l-3.42,2.881-3.5,2.217a.709.709,0,0,1-1.034-.331l-3.24-7.92-3.43-9.385a.666.666,0,0,1-.032-.124l-3.4-19.845-3.349-5.464a.728.728,0,0,1-.081-.19l-3.419-12.96-3.232-10.41-3.346-20.382H861.2a.709.709,0,0,1-.683-.52l-3.241-11.7a1.008,1.008,0,0,1-.021-.11l-3.42-30.24-3.417-23.377-3.42-24.3-3.171-11.429-3.288-3.288-3.3-3.649-3.216-.848a.7.7,0,0,1-.486-.445l-3.252-9.071h-40a.71.71,0,0,1-.653-.433l-3.343-7.917-3.079-2.224-3.32-2.095-6.77-2.494-3.356-.88a.718.718,0,0,1-.334-.2l-3.2-3.374L762.861,5490a.918.918,0,0,1-.093-.082l-3.42-3.6a.71.71,0,0,1-.187-.382l-3.366-22.317-2.91-1.456a.752.752,0,0,1-.1-.063l-3.42-2.52-3.378-2.131a.709.709,0,0,1-.321-.487l-3.325-20.824H625.292l-3.33,22.077a.7.7,0,0,1-.307.484l-3.24,2.161-3.148,2.655-3.383,24.751a.715.715,0,0,1-.13.322l-3.361,4.6-3.36,9.2-3.23,22.068a.8.8,0,0,1-.037.145l-3.391,9.1-3.409,29.254-3.417,53.244-3.241,36.377-3.423,26.848-3.423,22.158-3.429,15.168a.711.711,0,0,1-.3.433l-3.24,2.161a.778.778,0,0,1-.148.075l-3.42,1.26-3.485.92-6.775,2.5-3.229,1.256-3.463,1.095-6.808,2.51-3.3.917A.689.689,0,0,1,543.681,5729.9Z"/><path class="d" d="M528.292,5731.438h930.6v-316.62h-930.6v316.62Z"/><path class="e" d="M742.941,5729h-6.659a.707.707,0,0,1-.514-.22l-3.21-3.38h-3.117a.709.709,0,0,1-.5-.208l-3.338-3.338-3.137-1.569-6.9-4.355a.7.7,0,0,1-.321-.487l-3.42-21.42-3.229-22.062-3.386-8.2-2.655-7.542-2.844,11.225-3.409,19.211-3.24,17.465a.741.741,0,0,1-.046.152l-3.421,7.919a.708.708,0,0,1-.651.428H682.1a.709.709,0,0,1-.656-.44l-3.24-7.92-3.435-10.121-3.441-15.373-3.387-11.225-3.388-6.418-3.233-7-3.349-4.935-3.372-3.374-3.483-4.572-3.215-3.747-3.356-4.063-3.324-2.1a.709.709,0,0,1-.315-.454l-3.42-16.38-3.431-31.749-3.233-34.3-3.388-9.274a.917.917,0,0,1-.031-.111l-3.42-18-3.414-14.914-3.232-11.487-3.379-11.205-3.342-4.4-3.443-5.071-3.38-4.086a.758.758,0,0,1-.115-.2l-3.066-8.005h-5.977l-3.209,4.729a.717.717,0,0,1-.595.311.709.709,0,0,1-.587-.325l-3.241-5.04-3.31-4.353-3.312-2.092a.7.7,0,0,1-.3-.394l-3.268-10.836H574.1a.708.708,0,1,1,0-1.417h3.24a.709.709,0,0,1,.678.5l3.344,11.086,3.2,2.019a.721.721,0,0,1,.186.171l3.42,4.5,2.691,4.183,2.818-4.153a.71.71,0,0,1,.587-.31h6.84a.708.708,0,0,1,.661.455l3.2,8.352,3.346,4.05,3.46,5.093,3.4,4.469a.7.7,0,0,1,.114.225l3.42,11.34,3.244,11.533,3.429,14.973,3.414,17.969,3.4,9.307a.705.705,0,0,1,.04.176l3.24,34.38,3.419,31.671,3.348,16.017,3.166,2a.716.716,0,0,1,.168.148l3.42,4.14,3.232,3.77,3.446,4.533,3.356,3.348a.634.634,0,0,1,.086.1l3.42,5.039a.816.816,0,0,1,.057.1l3.24,7.021,3.4,6.446a.635.635,0,0,1,.052.126l3.42,11.34,3.433,15.35,3.4,10.007,3.044,7.439h5.9l3.2-7.419,3.225-17.382,3.419-19.255,3.43-13.55a.709.709,0,0,1,.656-.534.719.719,0,0,1,.7.473l3.42,9.72,3.407,8.245a.681.681,0,0,1,.046.168l3.24,22.14,3.368,21.094,6.569,4.149,3.178,1.585a.7.7,0,0,1,.184.133l3.213,3.213h3.127a.7.7,0,0,1,.513.22l3.211,3.38h6.051l3.211-3.38a.694.694,0,0,1,.135-.111l3.42-2.16,3.342-2.822,3.3-2.208,3.369-2.127,3.268-3.269,3.366-7.795,3.216-10.016,3.452-7.461,3.412-7.9,3.437-6.877a.653.653,0,0,1,.07-.111l3.419-4.5a.709.709,0,0,1,1.246.233l3.24,11.341,3.389,7.834,3.413,7.363,2.758,8.12,2.584-8.039a.709.709,0,0,1,.675-.492h2.852l3.3-14.746a.708.708,0,0,1,1.342-.126l2.77,6.413,2.769-6.413,3.209-11.255a.742.742,0,0,1,.055-.135l3.394-6.432,3.4-9.849a.706.706,0,0,1,.291-.368l3.269-2.064,3.152-5.6a.8.8,0,0,1,.062-.093l3.42-4.319,3.373-4.084,3.326-7,3.41-44.509L847,5548.222l3.422-27.382,3.424-20.548,3.424-17.3a.718.718,0,0,1,.058-.172l6.66-13.68a.709.709,0,0,1,1.325.139l3.42,13.679,3.411,11.308,3.421,11.523,3.21,7.3a.783.783,0,0,1,.041.124l3.293,14.212h2.409l3.228-6.8a.707.707,0,0,1,.64-.4h2.675l3.294-14.39a.719.719,0,0,1,.716-.55.71.71,0,0,1,.675.6l3.42,22.14,3.413,15.8,3.409,12.2,3.232,10.054,3.439,16.452,3.312,17.256h2.243l3.134-17.238,3.424-16.4a.708.708,0,0,1,.693-.564h2.913l3.257-9.6,3.255-7.96,3.41-9.336a.712.712,0,0,1,.056-.118l3.373-5.68,3.394-12.15a.761.761,0,0,1,.037-.1l3.42-7.56a.709.709,0,0,1,.646-.416h2.787l3.208-6.923,3.406-11.47a.707.707,0,0,1,.679-.507h2.987l3.043-5.916a.709.709,0,0,1,.63-.384h3.42a.708.708,0,0,1,.623.371l3.42,6.3a.714.714,0,0,1,.056.136l3.42,11.52,3.431,14.983,3.21,12.122,3.369,5.675a.717.717,0,0,1,.057.118l3.42,9.361,3.4,7.882,3.106,9.652h5.816l3.257-9.6,3.4-17.19,3.257-10.867,3.408-14.716,3.425-12.98,3.41-17.238,3.265-9.629,10.246-37.755,3.44-9.245a.713.713,0,0,1,.249-.327l3.241-2.34,3.457-2.185,3.341-2.822a.708.708,0,0,1,.457-.167h3.138l3.035-2.867a.709.709,0,0,1,.487-.193h6.84a.708.708,0,0,1,.472.18l3.42,3.06,3.4,2.867,3.178,2.111,3.427,2.346,3.35,1.757a.712.712,0,0,1,.312.33l3.42,7.38,3.244,7.206,3.431,8.486,3.429,9.566,3.411,8.434,6.652,18.7,3.393,6.252a.713.713,0,0,1,.057.136l3.42,11.52,3.431,14.983,3.21,12.122,3.369,5.675a.708.708,0,0,1,.056.118l3.42,9.361,3.405,7.882,3.264,10.144,3.439,16.452,3.406,27.047,3.257,4.286,3.359,2.83a.673.673,0,0,1,.112.116l3.027,4.037h9.9a.71.71,0,0,1,.618.361l3.037,5.4h6.022l3.214-5.413,3.389-7.142a.7.7,0,0,1,.065-.11l3.184-4.421,3.366-9.215,3.409-17.764a.708.708,0,0,1,.7-.575h3.42a.708.708,0,0,1,.7.582l3.135,17.238h2.242l3.31-17.245a.708.708,0,0,1,.7-.575h2.844l3.3-15.816a.756.756,0,0,1,.7-.564.707.707,0,0,1,.691.571l3.126,15.809h16.338a.71.71,0,0,1,.7.575l3.309,17.245h2.835a.708.708,0,0,1,.666.465l3.249,8.9h2.249l3.249-8.9a.709.709,0,0,1,.666-.465h6.249l3.134-17.238a.708.708,0,0,1,.7-.582h3.42a.709.709,0,0,1,.7.575l3.311,17.245h2.242l3.134-17.238,3.424-16.4a.707.707,0,0,1,.693-.564h2.913l3.257-9.6a.709.709,0,0,1,.671-.481h2.944l3.059-7.479a.7.7,0,0,1,.1-.172l3.421-4.321,3.331-4.912,3.389-10.7,3.223-14.7,3.427-12.989a.755.755,0,0,1,.072-.172l3.379-5.869,3.4-11.262a.676.676,0,0,1,.048-.12l3.421-6.659,3.226-6.993,3.407-8.429,3.446-6.718,3.441-5.8a.711.711,0,0,1,.61-.347h2.844l3.211-5.242a.712.712,0,0,1,.6-.338h3.044l3.209-4.73,3.389-6.067a.7.7,0,0,1,.618-.363h13.5a.708.708,0,0,1,.626.377l3.24,6.12,3.169,4.663h3.045a.708.708,0,0,1,.657.443l3.354,8.3,3.285,2.766a.711.711,0,0,1,.226.353l3.226,11.647,3.4,7.511,3.442,9.592,3.431,11.375,3.229,11.478,3.4,7.328a.687.687,0,0,1,.048.138l3.42,14.76,3.405,10.747,3.44,17.356,3.248,26.512,3.406,27.068,3.338,7.2,3.368,4.254a.688.688,0,0,1,.113.2l3.158,8.948,3.212,2.028,6.919,5.818,3.175,2.111,3.406,2.151,3.442,2.354,3.35,1.759a.7.7,0,0,1,.195.151l3.42,3.78,3.185,2.825,3.244,3.242h3.126a.708.708,0,1,1,0,1.417h-3.42a.707.707,0,0,1-.5-.208l-3.42-3.42-3.21-2.851-3.39-3.741-3.309-1.742-3.491-2.382-3.4-2.146-3.254-2.169-6.9-5.808-3.342-2.1a.707.707,0,0,1-.29-.363l-3.2-9.069-3.347-4.227a.79.79,0,0,1-.087-.142l-3.42-7.38a.676.676,0,0,1-.06-.21l-3.42-27.18-3.241-26.462-3.412-17.229-3.4-10.724-3.418-14.742-3.389-7.314a.806.806,0,0,1-.04-.106l-3.24-11.52-3.416-11.327-3.408-9.5-3.4-7.508a.682.682,0,0,1-.037-.1l-3.181-11.488-3.252-2.739a.712.712,0,0,1-.2-.276l-3.24-8.017h-2.942a.706.706,0,0,1-.586-.311l-3.42-5.04-3.081-5.809h-12.657l-3.217,5.757-3.453,5.092a.707.707,0,0,1-.586.311H1331.4l-3.211,5.242a.711.711,0,0,1-.6.338h-2.837l-3.214,5.413-3.4,6.622-3.394,8.4-3.254,7.051-3.4,6.629-3.4,11.279a.668.668,0,0,1-.065.149l-3.373,5.858-3.4,12.869-3.233,14.731-3.436,10.862a.689.689,0,0,1-.09.184l-3.42,5.04-3.389,4.284-3.2,7.827a.709.709,0,0,1-.656.44h-2.912l-3.257,9.6a.708.708,0,0,1-.671.481h-2.845l-3.3,15.817-3.236,17.8a.708.708,0,0,1-.7.582h-3.42a.708.708,0,0,1-.7-.575l-3.311-17.245h-2.242l-3.134,17.238a.708.708,0,0,1-.7.582h-6.346l-3.249,8.9a.707.707,0,0,1-.666.465H1236.5a.707.707,0,0,1-.666-.465l-3.249-8.9h-2.926a.708.708,0,0,1-.7-.575l-3.31-17.245h-16.334a.707.707,0,0,1-.7-.571l-2.563-12.96-2.709,12.968a.707.707,0,0,1-.693.563h-2.834l-3.309,17.245a.71.71,0,0,1-.7.575h-3.42a.709.709,0,0,1-.7-.582l-3.135-17.238h-2.242l-3.309,17.245a.855.855,0,0,1-.031.11l-3.42,9.36a.705.705,0,0,1-.09.171l-3.2,4.448-3.392,7.142-3.45,5.817a.711.711,0,0,1-.61.347h-6.84a.707.707,0,0,1-.617-.362l-3.037-5.4h-9.846a.71.71,0,0,1-.566-.283l-3.192-4.255-3.358-2.828a.776.776,0,0,1-.108-.113l-3.42-4.5a.718.718,0,0,1-.139-.341l-3.42-27.18-3.41-16.323-3.222-10.009-3.4-7.856-3.412-9.335-3.387-5.7a.764.764,0,0,1-.076-.18l-3.24-12.24-3.425-14.963-3.388-11.406-3.385-6.234a.72.72,0,0,1-.043-.1l-6.662-18.724-3.409-8.43-3.429-9.566-3.411-8.434-3.229-7.174-3.316-7.156-3.208-1.688-6.722-4.538-3.484-2.927-3.234-2.894H1057.5l-3.035,2.867a.709.709,0,0,1-.487.193h-3.161l-3.222,2.714-3.5,2.216-3.031,2.19-3.344,8.979-3.4,12.716-6.841,25.022-3.253,9.582-3.4,17.19-3.43,13-3.415,14.739-3.252,10.844-3.4,17.214-3.444,10.17a.709.709,0,0,1-.671.481h-6.84a.709.709,0,0,1-.675-.491l-3.24-10.081-3.4-7.856-3.412-9.335-3.387-5.7a.722.722,0,0,1-.075-.18l-3.24-12.24-3.426-14.963-3.387-11.4-3.184-5.865H966.4l-3.043,5.916a.711.711,0,0,1-.63.384h-2.891l-3.27,11.013a.789.789,0,0,1-.036.1l-3.421,7.38a.708.708,0,0,1-.643.411h-2.782l-3.209,7.095-3.406,12.188a.7.7,0,0,1-.073.17l-3.387,5.7-3.4,9.3-3.249,7.945-3.405,10.039a.707.707,0,0,1-.671.481h-2.844l-3.3,15.817-3.236,17.8a.709.709,0,0,1-.7.582h-3.42a.708.708,0,0,1-.7-.575l-3.42-17.82-3.418-16.368-3.221-10.009-3.428-12.266-3.43-15.881-2.863-18.523-2.594,11.332a.707.707,0,0,1-.69.55H888.83l-3.228,6.795a.71.71,0,0,1-.641.4h-3.419a.709.709,0,0,1-.691-.549l-3.405-14.7-3.213-7.32-6.87-22.94-2.957-11.825-5.767,11.848-3.4,17.19-3.416,20.5-3.416,27.332-3.238,34.358-3.419,44.627a.713.713,0,0,1-.066.25l-3.42,7.2a.726.726,0,0,1-.094.147l-3.42,4.14-3.376,4.265-3.213,5.711a.7.7,0,0,1-.239.252l-3.21,2.027-3.338,9.665a.751.751,0,0,1-.044.1l-3.385,6.414-3.22,11.269-3.451,8.006a.737.737,0,0,1-1.3,0l-2.554-5.915-2.944,13.169a.707.707,0,0,1-.691.554h-2.9l-3.082,9.588a.709.709,0,0,1-.669.492.733.733,0,0,1-.676-.481l-3.42-10.08-3.392-7.31-3.428-7.937-2.881-10.066-2.524,3.321-3.39,6.781-3.4,7.884-3.429,7.4-3.208,10-3.444,7.984a.692.692,0,0,1-.149.22l-3.42,3.42a.635.635,0,0,1-.123.1l-3.42,2.161-3.225,2.15-3.357,2.832-3.423,2.17-3.36,3.537A.707.707,0,0,1,742.941,5729Z"/><path class="d" d="M528.292,5731.438h930.6v-316.62h-930.6v316.62Z"/><text class="f" transform="translate(493.999 5734.228)"><tspan x="0" y="0">0,0</tspan></text><text class="f" transform="translate(493.999 5702.681)"><tspan x="0" y="0">0,1</tspan></text><text class="f" transform="translate(493.999 5671.134)"><tspan x="0" y="0">0,2</tspan></text><text class="f" transform="translate(493.999 5639.563)"><tspan x="0" y="0">0,3</tspan></text><text class="f" transform="translate(493.999 5608.005)"><tspan x="0" y="0">0,4</tspan></text><text class="f" transform="translate(493.999 5576.458)"><tspan x="0" y="0">0,5</tspan></text><text class="f" transform="translate(493.999 5544.899)"><tspan x="0" y="0">0,6</tspan></text><text class="f" transform="translate(493.999 5513.329)"><tspan x="0" y="0">0,7</tspan></text><text class="f" transform="translate(493.999 5481.782)"><tspan x="0" y="0">0,8</tspan></text><text class="f" transform="translate(493.999 5450.235)"><tspan x="0" y="0">0,9</tspan></text><text class="f" transform="translate(493.999 5418.677)"><tspan x="0" y="0">1,0</tspan></text><text class="f" transform="translate(504.337 5758.585)"><tspan x="0" y="0">1/3/2020</tspan></text><text class="f" transform="translate(609.115 5758.585)"><tspan x="0" y="0">1/4/2020</tspan></text><text class="f" transform="translate(710.494 5758.585)"><tspan x="0" y="0">1/5/2020</tspan></text><text class="f" transform="translate(815.259 5758.585)"><tspan x="0" y="0">1/6/2020</tspan></text><text class="f" transform="translate(916.65 5758.585)"><tspan x="0" y="0">1/7/2020</tspan></text><text class="f" transform="translate(1021.416 5758.585)"><tspan x="0" y="0">1/8/2020</tspan></text><text class="f" transform="translate(1126.181 5758.585)"><tspan x="0" y="0">1/9/2020</tspan></text><text class="f" transform="translate(1224.15 5758.585)"><tspan x="0" y="0">1/10/2020</tspan></text><text class="f" transform="translate(1328.916 5758.585)"><tspan x="0" y="0">1/11/2020</tspan></text></g></svg>