<svg xmlns="http://www.w3.org/2000/svg" width="741.997" height="437.017" viewBox="0 0 741.997 437.017"><defs><style>.a{fill:#fff;}.a,.b{stroke:#a7a9ac;stroke-miterlimit:10;stroke-width:1.417px;}.b{fill:none;}.c{fill:#789ac4;}.d,.e{fill:#606060;font-size:14.314px;}.d{font-family:IBMPlexSans-Bold, IBM Plex Sans;font-weight:700;}.e{font-family:IBMPlexSans, IBM Plex Sans;}</style></defs><g transform="translate(-186.013 -6010.691)"><rect class="a" width="740.58" height="435.6" transform="translate(186.721 6011.4)"/><path class="b" d="M889.747,6090.46V6400.6m-105.94-310.14V6400.6m-105.6-310.14V6400.6m-105.84-310.14V6400.6m-105.84-310.14V6400.6"/><rect class="c" width="9.807" height="77.536" transform="translate(360.627 6284.304)"/><rect class="c" width="440.4" height="77.536" transform="translate(360.627 6129.224)"/><line class="b" y1="310.14" transform="translate(360.627 6090.46)"/><text class="d" transform="translate(382.328 6329.26)"><tspan x="0" y="0">0,5%</tspan></text><text class="d" transform="translate(813.047 6174.16)"><tspan x="0" y="0">20,8%</tspan></text><text class="e" transform="translate(349.687 6429.24)"><tspan x="0" y="0">0%</tspan></text><text class="e" transform="translate(455.527 6429.24)"><tspan x="0" y="0">5%</tspan></text><text class="e" transform="translate(556.807 6429.24)"><tspan x="0" y="0">10%</tspan></text><text class="e" transform="translate(662.647 6429.24)"><tspan x="0" y="0">15%</tspan></text><text class="e" transform="translate(768.489 6429.24)"><tspan x="0" y="0">20%</tspan></text><text class="e" transform="translate(874.328 6429.24)"><tspan x="0" y="0">25%</tspan></text><text class="e" transform="translate(254.602 6328.301)"><tspan x="0" y="0">Est. Mortality</tspan></text><text class="e" transform="translate(210.316 6173.16)"><tspan x="0" y="0">Est. Cases Reported</tspan></text></g></svg>