<svg xmlns="http://www.w3.org/2000/svg" width="1048.469" height="443.917" viewBox="0 0 1048.469 443.917"><defs><style>.a{fill:#f6f6f6;}.a,.d{stroke:#a7a9ac;stroke-miterlimit:10;stroke-width:1.417px;}.b{fill:#789ac4;fill-rule:evenodd;}.c{fill:#222b3e;}.d{fill:none;}.e,.f{fill:#606060;font-size:14.314px;font-family:IBMPlexSans, IBM Plex Sans;}.f{letter-spacing:-0.075em;}</style></defs><g transform="translate(-435.766 -1199.158)"><rect class="a" width="1047.052" height="442.5" transform="translate(436.474 1199.867)"/><path class="b" d="M1368.7,1463.241h9.72v40.86h-9.72v-40.86Z"/><path class="c" d="M512.442,1273.521h9.54V1504.1h-9.54v-230.58Zm30.6,61.919h9.54V1504.1h-9.54V1335.44Zm30.6,20.34h9.54V1504.1h-9.54V1355.78Zm30.6,2.7h9.54V1504.1h-9.54V1358.48Zm30.6,37.44h9.54V1504.1h-9.54V1395.92Zm30.6,2.7h9.54V1504.1h-9.54V1398.62Zm30.6,5.4h9.54V1504.1h-9.54v-100.08Zm30.42.72h9.72v99.36h-9.72v-99.36Zm30.6,5.4h9.72V1504.1h-9.72V1410.14Zm30.6,8.821h9.72v85.14h-9.72v-85.14Zm30.6,2.159h9.54V1504.1h-9.54V1421.12Zm30.6,3.96h9.54V1504.1h-9.54V1425.08Zm30.6,0H889V1504.1h-9.54V1425.08Zm30.6,1.441h9.54v77.58h-9.54v-77.58Zm30.6,2.7h9.54V1504.1h-9.54V1429.22Zm30.6,8.821h9.54v66.06h-9.54v-66.06Zm30.6,0h9.54v66.06h-9.54v-66.06Zm30.42,3.42H1042v62.64h-9.72v-62.64Zm30.6.72h9.72v61.92h-9.72v-61.92Zm30.6,5.4h9.72V1504.1h-9.72V1447.58Zm30.6,1.98h9.54V1504.1h-9.54V1449.56Zm30.6,7.56h9.54V1504.1h-9.54V1457.12Zm30.6,1.261h9.54v45.72h-9.54v-45.72Zm30.6.72h9.54v45h-9.54v-45Zm30.6.72h9.54v44.28h-9.54v-44.28Zm30.6.72h9.54v43.56h-9.54v-43.56Zm30.6,0h9.54v43.56h-9.54v-43.56Zm30.42,1.98h9.72v41.58h-9.72v-41.58Zm61.2,1.979h9.54v39.6h-9.54v-39.6Zm30.6,10.98h9.54V1504.1h-9.54V1475.48Z"/><line class="d" x2="948.06" transform="translate(502.002 1504.101)"/><text class="e" transform="translate(502.366 1270.162)"><tspan x="0" y="0">33,9</tspan></text><text class="e" transform="translate(533.79 1332.037)"><tspan x="0" y="0">24,8</tspan></text><text class="f" transform="translate(564.931 1352.427)"><tspan x="0" y="0">21,8</tspan></text><text class="f" transform="translate(595.517 1355.158)"><tspan x="0" y="0">21,4</tspan></text><text class="f" transform="translate(626.103 1391.135)"><tspan x="0" y="0">15,9</tspan></text><text class="f" transform="translate(658.106 1395.26)"><tspan x="0" y="0">15,5</tspan></text><text class="f" transform="translate(688.681 1399.292)"><tspan x="0" y="0">14,7</tspan></text><text class="f" transform="translate(719.267 1401.388)"><tspan x="0" y="0">14,6</tspan></text><text class="f" transform="translate(749.853 1405.397)"><tspan x="0" y="0">13,8</tspan></text><text class="f" transform="translate(780.427 1415.674)"><tspan x="0" y="0">12,5</tspan></text><text class="f" transform="translate(811.013 1417.701)"><tspan x="0" y="0">12,2</tspan></text><text class="f" transform="translate(841.587 1421.791)"><tspan x="0" y="0">11,6</tspan></text><text class="f" transform="translate(872.173 1421.791)"><tspan x="0" y="0">11,6</tspan></text><text class="f" transform="translate(902.759 1423.138)"><tspan x="0" y="0">11,4</tspan></text><text class="f" transform="translate(937.142 1425.869)"><tspan x="0" y="0">11</tspan></text><text class="e" transform="translate(965.924 1434.705)"><tspan x="0" y="0">9,7</tspan></text><text class="e" transform="translate(996.498 1434.705)"><tspan x="0" y="0">9,7</tspan></text><text class="e" transform="translate(1027.084 1438.103)"><tspan x="0" y="0">9,2</tspan></text><text class="e" transform="translate(1057.67 1438.783)"><tspan x="0" y="0">9,1</tspan></text><text class="e" transform="translate(1088.244 1444.22)"><tspan x="0" y="0">8,3</tspan></text><text class="e" transform="translate(1125.473 1439.185)"><tspan x="0" y="0">8</tspan></text><text class="e" transform="translate(1150.833 1446.649)"><tspan x="0" y="0">6,9</tspan></text><text class="e" transform="translate(1181.418 1448.009)"><tspan x="0" y="0">6,7</tspan></text><text class="e" transform="translate(1211.993 1448.688)"><tspan x="0" y="0">6,6</tspan></text><text class="e" transform="translate(1242.567 1449.38)"><tspan x="0" y="0">6,5</tspan></text><text class="e" transform="translate(1273.153 1450.048)"><tspan x="0" y="0">6,4</tspan></text><text class="e" transform="translate(1303.739 1450.048)"><tspan x="0" y="0">6,4</tspan></text><text class="e" transform="translate(1334.313 1452.099)"><tspan x="0" y="0">6,1</tspan></text><text class="e" transform="translate(1370.125 1452.778)"><tspan x="0" y="0">6</tspan></text><text class="e" transform="translate(1395.473 1454.138)"><tspan x="0" y="0">5,8</tspan></text><text class="e" transform="translate(1426.059 1465.024)"><tspan x="0" y="0">4,2</tspan></text><text class="e" transform="translate(478.441 1508.688)"><tspan x="0" y="0">0</tspan></text><text class="e" transform="translate(478.441 1474.692)"><tspan x="0" y="0">5</tspan></text><text class="e" transform="translate(469.939 1440.696)"><tspan x="0" y="0">10</tspan></text><text class="e" transform="translate(469.939 1406.712)"><tspan x="0" y="0">15</tspan></text><text class="e" transform="translate(469.939 1372.704)"><tspan x="0" y="0">20</tspan></text><text class="e" transform="translate(469.939 1338.708)"><tspan x="0" y="0">25</tspan></text><text class="e" transform="translate(469.939 1304.712)"><tspan x="0" y="0">30</tspan></text><text class="e" transform="translate(469.939 1270.704)"><tspan x="0" y="0">35</tspan></text><text class="e" transform="translate(469.939 1236.708)"><tspan x="0" y="0">40</tspan></text><text class="e" transform="translate(523.386 1573.005) rotate(-90)"><tspan x="0" y="0">Germany</tspan></text><text class="e" transform="translate(553.972 1594.675) rotate(-90)"><tspan x="0" y="0">Luxembourg</tspan></text><text class="e" transform="translate(584.558 1560.337) rotate(-90)"><tspan x="0" y="0">Austria</tspan></text><text class="e" transform="translate(615.144 1571.158) rotate(-90)"><tspan x="0" y="0">Romania</tspan></text><text class="e" transform="translate(645.706 1567.451) rotate(-90)"><tspan x="0" y="0">Belgium</tspan></text><text class="e" transform="translate(676.292 1573.563) rotate(-90)"><tspan x="0" y="0">Lithuania</tspan></text><text class="e" transform="translate(706.878 1560.538) rotate(-90)"><tspan x="0" y="0">Croatia</tspan></text><text class="e" transform="translate(737.464 1562.284) rotate(-90)"><tspan x="0" y="0">Estonia</tspan></text><text class="e" transform="translate(768.038 1568.482) rotate(-90)"><tspan x="0" y="0">Hungary</tspan></text><text class="e" transform="translate(798.624 1544.034) rotate(-90)"><tspan x="0" y="0">Italy</tspan></text><text class="e" transform="translate(829.198 1567.623) rotate(-90)"><tspan x="0" y="0">Bulgaria</tspan></text><text class="e" transform="translate(859.784 1558.677) rotate(-90)"><tspan x="0" y="0">France</tspan></text><text class="e" transform="translate(890.37 1564.431) rotate(-90)"><tspan x="0" y="0">Czechia</tspan></text><text class="e" transform="translate(920.956 1559.292) rotate(-90)"><tspan x="0" y="0">Cyprus</tspan></text><text class="e" transform="translate(951.519 1590.095) rotate(-90)"><tspan x="0" y="0">Switzerland</tspan></text><text class="e" transform="translate(982.104 1550.447) rotate(-90)"><tspan x="0" y="0">Spain</tspan></text><text class="e" transform="translate(1012.69 1552.708) rotate(-90)"><tspan x="0" y="0">Latvia</tspan></text><text class="e" transform="translate(1043.276 1568.181) rotate(-90)"><tspan x="0" y="0">Slovakia</tspan></text><text class="e" transform="translate(1073.851 1563.343) rotate(-90)"><tspan x="0" y="0">Iceland</tspan></text><text class="e" transform="translate(1104.437 1557.002) rotate(-90)"><tspan x="0" y="0">Russia</tspan></text><text class="e" transform="translate(1135.022 1563.758) rotate(-90)"><tspan x="0" y="0">Norway</tspan></text><text class="e" transform="translate(1165.596 1559.206) rotate(-90)"><tspan x="0" y="0">Poland</tspan></text><text class="e" transform="translate(1196.182 1573.119) rotate(-90)"><tspan x="0" y="0">Denmark</tspan></text><text class="e" transform="translate(1226.768 1617.677) rotate(-90)"><tspan x="0" y="0">United Kingdom</tspan></text><text class="e" transform="translate(1257.342 1561.31) rotate(-90)"><tspan x="0" y="0">Ireland</tspan></text><text class="e" transform="translate(1287.928 1593.716) rotate(-90)"><tspan x="0" y="0">Netherlands</tspan></text><text class="e" transform="translate(1318.514 1568.997) rotate(-90)"><tspan x="0" y="0">Slovenia</tspan></text><text class="e" transform="translate(1349.088 1562.212) rotate(-90)"><tspan x="0" y="0">Finland</tspan></text><text class="e" transform="translate(1379.674 1560.566) rotate(-90)"><tspan x="0" y="0">Greece</tspan></text><text class="e" transform="translate(1410.26 1566.063) rotate(-90)"><tspan x="0" y="0">Sweden</tspan></text><text class="e" transform="translate(1440.834 1568.696) rotate(-90)"><tspan x="0" y="0">Portugal</tspan></text></g></svg>