<svg xmlns="http://www.w3.org/2000/svg" width="740.41" height="19" viewBox="0 0 740.41 19"><defs><style>.a,.d{fill:#606060;}.a{font-size:14.314px;font-family:IBMPlexSans, IBM Plex Sans;}.b{fill:#313e59;}.c{fill:#a5a5a5;}.e{fill:#91bce8;}.f{fill:#3a4c68;}.g{fill:#789ac4;}.h{fill:#d1d3d4;}.i{fill:#231f20;}.j{fill:#58595b;}</style></defs><g transform="translate(-589.73 -2363.015)"><text class="a" transform="translate(603.099 2378.015)"><tspan x="0" y="0">Belgium</tspan></text><rect class="b" width="9.763" height="9.763" transform="translate(589.73 2367.961)"/><text class="a" transform="translate(683.564 2378.015)"><tspan x="0" y="0">France</tspan></text><rect class="c" width="9.763" height="9.763" transform="translate(670.197 2367.961)"/><text class="a" transform="translate(756.231 2378.015)"><tspan x="0" y="0">Germany</tspan></text><rect class="d" width="9.763" height="9.763" transform="translate(742.864 2367.961)"/><text class="a" transform="translate(843.231 2378.015)"><tspan x="0" y="0">Greece</tspan></text><rect class="e" width="9.763" height="9.763" transform="translate(829.864 2367.961)"/><text class="a" transform="translate(918.231 2378.015)"><tspan x="0" y="0">Italy</tspan></text><rect class="f" width="9.763" height="9.763" transform="translate(904.864 2367.961)"/><text class="a" transform="translate(976.231 2378.015)"><tspan x="0" y="0">Netherlands</tspan></text><rect class="g" width="9.763" height="9.763" transform="translate(962.864 2367.961)"/><text class="a" transform="translate(1083.898 2378.015)"><tspan x="0" y="0">Spain</tspan></text><rect class="h" width="9.763" height="9.763" transform="translate(1070.531 2367.961)"/><text class="a" transform="translate(1147.723 2378.015)"><tspan x="0" y="0">Sweden</tspan></text><rect class="i" width="9.763" height="9.763" transform="translate(1134.355 2367.961)"/><text class="a" transform="translate(1227.141 2378.015)"><tspan x="0" y="0">United Kingdom</tspan></text><rect class="j" width="9.763" height="9.763" transform="translate(1213.773 2367.961)"/></g></svg>