<svg xmlns="http://www.w3.org/2000/svg" width="742.217" height="437.017" viewBox="0 0 742.217 437.017"><defs><style>.a{fill:#fff;}.a,.b{stroke:#a7a9ac;stroke-miterlimit:10;stroke-width:1.417px;}.b{fill:none;}.c{fill:#789ac4;}.d,.e{fill:#606060;font-size:14.314px;}.d{font-family:IBMPlexSans-Bold, IBM Plex Sans;font-weight:700;}.e{font-family:IBMPlexSans, IBM Plex Sans;}</style></defs><g transform="translate(-991.77 -6010.642)"><rect class="a" width="740.8" height="435.6" transform="translate(992.479 6011.35)"/><path class="b" d="M1700.279,6090.41v310.14m-66.52-310.14v310.14m-66.24-310.14v310.14m-66.48-310.14v310.14m-66.48-310.14v310.14m-66.48-310.14v310.14m-66.48-310.14v310.14m-66.48-310.14v310.14"/><rect class="c" width="225.9" height="77.536" transform="translate(1168.759 6284.254)"/><rect class="c" width="445.14" height="77.536" transform="translate(1168.759 6129.174)"/><line class="b" y1="310.14" transform="translate(1168.759 6090.41)"/><text class="d" transform="translate(1406.619 6329.109)"><tspan x="0" y="0">3,4%</tspan></text><text class="d" transform="translate(1625.879 6174.029)"><tspan x="0" y="0">6,7%</tspan></text><text class="e" transform="translate(1157.799 6429.089)"><tspan x="0" y="0">0%</tspan></text><text class="e" transform="translate(1224.279 6429.089)"><tspan x="0" y="0">1%</tspan></text><text class="e" transform="translate(1290.698 6429.089)"><tspan x="0" y="0">2%</tspan></text><text class="e" transform="translate(1357.179 6429.089)"><tspan x="0" y="0">3%</tspan></text><text class="e" transform="translate(1423.619 6429.089)"><tspan x="0" y="0">4%</tspan></text><text class="e" transform="translate(1490.099 6429.089)"><tspan x="0" y="0">5%</tspan></text><text class="e" transform="translate(1556.519 6429.089)"><tspan x="0" y="0">6%</tspan></text><text class="e" transform="translate(1623 6429.089)"><tspan x="0" y="0">7%</tspan></text><text class="e" transform="translate(1689.439 6429.089)"><tspan x="0" y="0">8%</tspan></text><text class="e" transform="translate(1092.313 6328.149)"><tspan x="0" y="0">Est. ICUs</tspan></text><text class="e" transform="translate(1020.474 6173.069)"><tspan x="0" y="0">Est. Hospitalizations</tspan></text></g></svg>