<svg xmlns="http://www.w3.org/2000/svg" width="871.02" height="580.86" viewBox="0 0 871.02 580.86"><defs><style>.a{fill:#fff;}.a,.b{stroke:#a7a9ac;stroke-miterlimit:10;stroke-width:1.417px;}.a,.c{fill-rule:evenodd;}.b,.c,.e,.h{fill:none;}.d{fill:#606060;font-size:14.314px;font-family:IBMPlexSans, IBM Plex Sans;}.f{fill:#789ac4;}.g{fill:#222b3e;}.h{stroke:#d9d9d9;stroke-linejoin:round;stroke-width:1.5px;}</style></defs><g transform="translate(-524.49 -5093.641)"><path class="a" d="M525.24,5094.391h869.52v579.36H525.24v-579.36Z"/><path class="b" d="M600.6,5522.55h728.64M600.6,5463.51h728.64M600.6,5404.47h728.64M600.6,5345.43h728.64m-728.64-58.8h728.64M600.6,5227.59h728.64M600.6,5168.55h728.64"/><path class="c" d="M525.24,5673.511h869.52v-579.36H525.24v579.36Z"/><line class="b" y1="413.04" transform="translate(600.6 5168.55)"/><path class="c" d="M525.24,5673.511h869.52v-579.36H525.24v579.36Z"/><line class="b" x2="728.64" transform="translate(600.6 5581.59)"/><path class="c" d="M525.24,5673.511h869.52v-579.36H525.24v579.36Z"/><path class="c" d="M525.24,5673.511h869.52v-579.36H525.24v579.36Z"/><path class="c" d="M525.24,5673.511h869.52v-579.36H525.24v579.36Z"/><text class="d" transform="translate(579.106 5586.593)"><tspan x="0" y="0">0</tspan></text><rect class="e" width="869.52" height="579.36" transform="translate(525.24 5094.15)"/><path class="c" d="M525.24,5673.511h869.52v-579.36H525.24v579.36Z"/><text class="d" transform="translate(553.341 5527.593)"><tspan x="0" y="0">2000</tspan></text><rect class="e" width="869.52" height="579.36" transform="translate(525.24 5094.15)"/><path class="c" d="M525.24,5673.511h869.52v-579.36H525.24v579.36Z"/><text class="d" transform="translate(553.341 5468.593)"><tspan x="0" y="0">4000</tspan></text><rect class="e" width="869.52" height="579.36" transform="translate(525.24 5094.15)"/><path class="c" d="M525.24,5673.511h869.52v-579.36H525.24v579.36Z"/><text class="d" transform="translate(553.341 5409.577)"><tspan x="0" y="0">6000</tspan></text><rect class="e" width="869.52" height="579.36" transform="translate(525.24 5094.15)"/><path class="c" d="M525.24,5673.511h869.52v-579.36H525.24v579.36Z"/><text class="d" transform="translate(553.341 5350.577)"><tspan x="0" y="0">8000</tspan></text><rect class="e" width="869.52" height="579.36" transform="translate(525.24 5094.15)"/><path class="c" d="M525.24,5673.511h869.52v-579.36H525.24v579.36Z"/><text class="d" transform="translate(544.753 5291.593)"><tspan x="0" y="0">10000</tspan></text><rect class="e" width="869.52" height="579.36" transform="translate(525.24 5094.15)"/><path class="c" d="M525.24,5673.511h869.52v-579.36H525.24v579.36Z"/><text class="d" transform="translate(544.753 5232.593)"><tspan x="0" y="0">12000</tspan></text><rect class="e" width="869.52" height="579.36" transform="translate(525.24 5094.15)"/><path class="c" d="M525.24,5673.511h869.52v-579.36H525.24v579.36Z"/><text class="d" transform="translate(544.753 5173.593)"><tspan x="0" y="0">14000</tspan></text><rect class="e" width="869.52" height="579.36" transform="translate(525.24 5094.15)"/><path class="c" d="M525.24,5673.511h869.52v-579.36H525.24v579.36Z"/><text class="d" transform="translate(567.638 5609.999)"><tspan x="0" y="0">19/2/2020</tspan></text><rect class="e" width="869.52" height="579.36" transform="translate(525.24 5094.15)"/><path class="c" d="M525.24,5673.511h869.52v-579.36H525.24v579.36Z"/><text class="d" transform="translate(693.669 5609.999)"><tspan x="0" y="0">9/4/2020</tspan></text><rect class="e" width="869.52" height="579.36" transform="translate(525.24 5094.15)"/><path class="c" d="M525.24,5673.511h869.52v-579.36H525.24v579.36Z"/><text class="d" transform="translate(810.575 5609.999)"><tspan x="0" y="0">29/5/2020</tspan></text><rect class="e" width="869.52" height="579.36" transform="translate(525.24 5094.15)"/><path class="c" d="M525.24,5673.511h869.52v-579.36H525.24v579.36Z"/><text class="d" transform="translate(932.029 5609.999)"><tspan x="0" y="0">18/7/2020</tspan></text><rect class="e" width="869.52" height="579.36" transform="translate(525.24 5094.15)"/><path class="c" d="M525.24,5673.511h869.52v-579.36H525.24v579.36Z"/><text class="d" transform="translate(1058.044 5609.999)"><tspan x="0" y="0">6/9/2020</tspan></text><rect class="e" width="869.52" height="579.36" transform="translate(525.24 5094.15)"/><path class="c" d="M525.24,5673.511h869.52v-579.36H525.24v579.36Z"/><text class="d" transform="translate(1170.388 5609.999)"><tspan x="0" y="0">26/10/2020</tspan></text><rect class="e" width="869.52" height="579.36" transform="translate(525.24 5094.15)"/><path class="c" d="M525.24,5673.511h869.52v-579.36H525.24v579.36Z"/><text class="d" transform="translate(1291.841 5609.999)"><tspan x="0" y="0">15/12/2020</tspan></text><rect class="e" width="869.52" height="579.36" transform="translate(525.24 5094.15)"/><path class="c" d="M525.24,5673.511h869.52v-579.36H525.24v579.36Z"/><rect class="e" width="869.52" height="579.36" transform="translate(525.24 5094.15)"/><path class="c" d="M525.24,5673.511h869.52v-579.36H525.24v579.36Z"/><path class="f" d="M625.114,5581.538a5.04,5.04,0,1,1-5.04-5.04,5.04,5.04,0,0,1,5.04,5.04Z"/><path class="f" d="M627.514,5581.538a5.04,5.04,0,1,1-5.04-5.04,5.04,5.04,0,0,1,5.04,5.04Z"/><path class="f" d="M629.914,5581.538a5.04,5.04,0,1,1-5.04-5.04,5.04,5.04,0,0,1,5.04,5.04Z"/><path class="f" d="M632.314,5581.3a5.04,5.04,0,1,1-5.04-5.04,5.04,5.04,0,0,1,5.04,5.04Z"/><path class="f" d="M634.714,5581.538a5.04,5.04,0,1,1-5.04-5.04,5.04,5.04,0,0,1,5.04,5.04Z"/><path class="f" d="M642.154,5581.3a5.04,5.04,0,1,1-5.04-5.04,5.04,5.04,0,0,1,5.04,5.04Z"/><path class="f" d="M644.554,5580.819a5.04,5.04,0,1,1-5.04-5.04,5.04,5.04,0,0,1,5.04,5.04Z"/><path class="f" d="M646.954,5581.058a5.04,5.04,0,1,1-5.04-5.04,5.04,5.04,0,0,1,5.04,5.04Z"/><path class="f" d="M649.354,5580.819a5.04,5.04,0,1,1-5.04-5.04,5.04,5.04,0,0,1,5.04,5.04Z"/><path class="f" d="M651.754,5581.3a5.04,5.04,0,1,1-5.04-5.04,5.04,5.04,0,0,1,5.04,5.04Z"/><path class="f" d="M654.154,5581.058a5.04,5.04,0,1,1-5.04-5.04,5.04,5.04,0,0,1,5.04,5.04Z"/><path class="f" d="M656.554,5581.3a5.04,5.04,0,1,1-5.04-5.04,5.04,5.04,0,0,1,5.04,5.04Z"/><path class="f" d="M659.194,5581.3a5.04,5.04,0,1,1-5.04-5.04,5.04,5.04,0,0,1,5.04,5.04Z"/><path class="f" d="M661.594,5580.579a5.04,5.04,0,1,1-5.04-5.041,5.04,5.04,0,0,1,5.04,5.041Z"/><path class="f" d="M663.994,5579.859a5.04,5.04,0,1,1-5.04-5.04,5.04,5.04,0,0,1,5.04,5.04Z"/><path class="f" d="M666.394,5580.339a5.04,5.04,0,1,1-5.04-5.04,5.04,5.04,0,0,1,5.04,5.04Z"/><path class="f" d="M668.794,5578.419a5.04,5.04,0,1,1-5.04-5.04,5.039,5.039,0,0,1,5.04,5.04Z"/><path class="f" d="M671.194,5580.819a5.04,5.04,0,1,1-5.04-5.04,5.04,5.04,0,0,1,5.04,5.04Z"/><path class="f" d="M673.594,5580.339a5.04,5.04,0,1,1-5.04-5.04,5.04,5.04,0,0,1,5.04,5.04Z"/><path class="f" d="M675.994,5580.579a5.04,5.04,0,1,1-5.04-5.041,5.04,5.04,0,0,1,5.04,5.041Z"/><path class="f" d="M678.634,5580.1a5.04,5.04,0,1,1-5.04-5.041,5.04,5.04,0,0,1,5.04,5.041Z"/><path class="f" d="M681.034,5580.579a5.04,5.04,0,1,1-5.04-5.041,5.04,5.04,0,0,1,5.04,5.041Z"/><path class="f" d="M683.434,5580.339a5.04,5.04,0,1,1-5.04-5.04,5.04,5.04,0,0,1,5.04,5.04Z"/><path class="f" d="M685.834,5578.659a5.04,5.04,0,1,1-5.04-5.04,5.04,5.04,0,0,1,5.04,5.04Z"/><path class="f" d="M688.234,5579.379a5.04,5.04,0,1,1-5.04-5.04,5.04,5.04,0,0,1,5.04,5.04Z"/><path class="f" d="M690.634,5580.1a5.04,5.04,0,1,1-5.04-5.041,5.04,5.04,0,0,1,5.04,5.041Z"/><path class="f" d="M693.034,5579.139a5.04,5.04,0,1,1-5.04-5.04,5.04,5.04,0,0,1,5.04,5.04Z"/><path class="f" d="M695.434,5579.379a5.04,5.04,0,1,1-5.04-5.04,5.04,5.04,0,0,1,5.04,5.04Z"/><path class="f" d="M698.074,5579.379a5.04,5.04,0,1,1-5.04-5.04,5.04,5.04,0,0,1,5.04,5.04Z"/><path class="f" d="M700.474,5578.659a5.04,5.04,0,1,1-5.04-5.04,5.04,5.04,0,0,1,5.04,5.04Z"/><path class="f" d="M702.874,5578.659a5.04,5.04,0,1,1-5.04-5.04,5.04,5.04,0,0,1,5.04,5.04Z"/><path class="f" d="M705.274,5579.859a5.04,5.04,0,1,1-5.04-5.04,5.04,5.04,0,0,1,5.04,5.04Z"/><path class="f" d="M707.674,5578.419a5.04,5.04,0,1,1-5.04-5.04,5.039,5.039,0,0,1,5.04,5.04Z"/><path class="f" d="M710.074,5579.619a5.04,5.04,0,1,1-5.04-5.04,5.04,5.04,0,0,1,5.04,5.04Z"/><path class="f" d="M712.474,5577.459a5.04,5.04,0,1,1-5.04-5.04,5.039,5.039,0,0,1,5.04,5.04Z"/><path class="f" d="M714.874,5578.659a5.04,5.04,0,1,1-5.04-5.04,5.04,5.04,0,0,1,5.04,5.04Z"/><path class="f" d="M717.274,5579.619a5.04,5.04,0,1,1-5.04-5.04,5.04,5.04,0,0,1,5.04,5.04Z"/><path class="f" d="M719.914,5579.619a5.04,5.04,0,1,1-5.04-5.04,5.04,5.04,0,0,1,5.04,5.04Z"/><path class="f" d="M722.314,5580.819a5.04,5.04,0,1,1-5.04-5.04,5.04,5.04,0,0,1,5.04,5.04Z"/><path class="f" d="M724.714,5579.139a5.04,5.04,0,1,1-5.04-5.04,5.04,5.04,0,0,1,5.04,5.04Z"/><path class="f" d="M727.114,5579.859a5.04,5.04,0,1,1-5.04-5.04,5.04,5.04,0,0,1,5.04,5.04Z"/><path class="f" d="M729.514,5579.379a5.04,5.04,0,1,1-5.04-5.04,5.04,5.04,0,0,1,5.04,5.04Z"/><path class="f" d="M731.914,5579.859a5.04,5.04,0,1,1-5.04-5.04,5.04,5.04,0,0,1,5.04,5.04Z"/><path class="f" d="M734.314,5579.379a5.04,5.04,0,1,1-5.04-5.04,5.04,5.04,0,0,1,5.04,5.04Z"/><path class="f" d="M736.714,5580.579a5.04,5.04,0,1,1-5.04-5.041,5.04,5.04,0,0,1,5.04,5.041Z"/><path class="f" d="M739.354,5580.579a5.04,5.04,0,1,1-5.04-5.041,5.04,5.04,0,0,1,5.04,5.041Z"/><path class="f" d="M741.754,5580.819a5.04,5.04,0,1,1-5.04-5.04,5.04,5.04,0,0,1,5.04,5.04Z"/><path class="f" d="M744.154,5580.819a5.04,5.04,0,1,1-5.04-5.04,5.04,5.04,0,0,1,5.04,5.04Z"/><path class="f" d="M746.554,5581.058a5.04,5.04,0,1,1-5.04-5.04,5.04,5.04,0,0,1,5.04,5.04Z"/><path class="f" d="M748.954,5581.538a5.04,5.04,0,1,1-5.04-5.04,5.04,5.04,0,0,1,5.04,5.04Z"/><path class="f" d="M751.354,5581.538a5.04,5.04,0,1,1-5.04-5.04,5.04,5.04,0,0,1,5.04,5.04Z"/><path class="f" d="M753.754,5580.579a5.04,5.04,0,1,1-5.04-5.041,5.04,5.04,0,0,1,5.04,5.041Z"/><path class="f" d="M756.154,5581.3a5.04,5.04,0,1,1-5.04-5.04,5.04,5.04,0,0,1,5.04,5.04Z"/><path class="f" d="M758.794,5576.979a5.04,5.04,0,1,1-5.04-5.04,5.039,5.039,0,0,1,5.04,5.04Z"/><path class="f" d="M761.194,5581.3a5.04,5.04,0,1,1-5.04-5.04,5.04,5.04,0,0,1,5.04,5.04Z"/><path class="f" d="M763.594,5579.859a5.04,5.04,0,1,1-5.04-5.04,5.04,5.04,0,0,1,5.04,5.04Z"/><path class="f" d="M765.994,5580.579a5.04,5.04,0,1,1-5.04-5.041,5.04,5.04,0,0,1,5.04,5.041Z"/><path class="f" d="M768.394,5581.058a5.04,5.04,0,1,1-5.04-5.04,5.04,5.04,0,0,1,5.04,5.04Z"/><path class="f" d="M770.794,5581.538a5.04,5.04,0,1,1-5.04-5.04,5.04,5.04,0,0,1,5.04,5.04Z"/><path class="f" d="M773.194,5580.579a5.04,5.04,0,1,1-5.04-5.041,5.04,5.04,0,0,1,5.04,5.041Z"/><path class="f" d="M775.594,5581.538a5.04,5.04,0,1,1-5.04-5.04,5.04,5.04,0,0,1,5.04,5.04Z"/><path class="f" d="M778.234,5580.339a5.04,5.04,0,1,1-5.04-5.04,5.04,5.04,0,0,1,5.04,5.04Z"/><path class="f" d="M780.634,5581.058a5.04,5.04,0,1,1-5.04-5.04,5.04,5.04,0,0,1,5.04,5.04Z"/><path class="f" d="M783.034,5581.538a5.04,5.04,0,1,1-5.04-5.04,5.04,5.04,0,0,1,5.04,5.04Z"/><path class="f" d="M785.434,5580.579a5.04,5.04,0,1,1-5.04-5.041,5.04,5.04,0,0,1,5.04,5.041Z"/><path class="f" d="M787.834,5581.3a5.04,5.04,0,1,1-5.04-5.04,5.04,5.04,0,0,1,5.04,5.04Z"/><path class="f" d="M790.234,5581.3a5.04,5.04,0,1,1-5.04-5.04,5.04,5.04,0,0,1,5.04,5.04Z"/><path class="f" d="M792.634,5581.3a5.04,5.04,0,1,1-5.04-5.04,5.04,5.04,0,0,1,5.04,5.04Z"/><path class="f" d="M795.034,5580.819a5.04,5.04,0,1,1-5.04-5.04,5.04,5.04,0,0,1,5.04,5.04Z"/><path class="f" d="M797.434,5581.058a5.04,5.04,0,1,1-5.04-5.04,5.04,5.04,0,0,1,5.04,5.04Z"/><path class="f" d="M800.074,5581.058a5.04,5.04,0,1,1-5.04-5.04,5.04,5.04,0,0,1,5.04,5.04Z"/><path class="f" d="M802.474,5580.819a5.04,5.04,0,1,1-5.04-5.04,5.04,5.04,0,0,1,5.04,5.04Z"/><path class="f" d="M804.874,5581.3a5.04,5.04,0,1,1-5.04-5.04,5.04,5.04,0,0,1,5.04,5.04Z"/><path class="f" d="M807.274,5581.3a5.04,5.04,0,1,1-5.04-5.04,5.04,5.04,0,0,1,5.04,5.04Z"/><path class="f" d="M809.674,5581.058a5.04,5.04,0,1,1-5.04-5.04,5.04,5.04,0,0,1,5.04,5.04Z"/><path class="f" d="M812.074,5581.058a5.04,5.04,0,1,1-5.04-5.04,5.04,5.04,0,0,1,5.04,5.04Z"/><path class="f" d="M814.474,5581.3a5.04,5.04,0,1,1-5.04-5.04,5.04,5.04,0,0,1,5.04,5.04Z"/><path class="f" d="M816.874,5580.339a5.04,5.04,0,1,1-5.04-5.04,5.04,5.04,0,0,1,5.04,5.04Z"/><path class="f" d="M819.514,5581.3a5.04,5.04,0,1,1-5.04-5.04,5.04,5.04,0,0,1,5.04,5.04Z"/><path class="f" d="M821.914,5581.058a5.04,5.04,0,1,1-5.04-5.04,5.04,5.04,0,0,1,5.04,5.04Z"/><path class="f" d="M824.314,5581.538a5.04,5.04,0,1,1-5.04-5.04,5.04,5.04,0,0,1,5.04,5.04Z"/><path class="f" d="M826.714,5581.3a5.04,5.04,0,1,1-5.04-5.04,5.04,5.04,0,0,1,5.04,5.04Z"/><path class="f" d="M829.114,5581.3a5.04,5.04,0,1,1-5.04-5.04,5.04,5.04,0,0,1,5.04,5.04Z"/><path class="f" d="M831.514,5581.3a5.04,5.04,0,1,1-5.04-5.04,5.04,5.04,0,0,1,5.04,5.04Z"/><path class="f" d="M833.914,5580.819a5.04,5.04,0,1,1-5.04-5.04,5.04,5.04,0,0,1,5.04,5.04Z"/><path class="f" d="M836.314,5581.3a5.04,5.04,0,1,1-5.04-5.04,5.04,5.04,0,0,1,5.04,5.04Z"/><path class="f" d="M838.954,5581.538a5.04,5.04,0,1,1-5.04-5.04,5.04,5.04,0,0,1,5.04,5.04Z"/><path class="f" d="M841.354,5581.3a5.04,5.04,0,1,1-5.04-5.04,5.04,5.04,0,0,1,5.04,5.04Z"/><path class="f" d="M843.754,5581.3a5.04,5.04,0,1,1-5.04-5.04,5.04,5.04,0,0,1,5.04,5.04Z"/><path class="f" d="M846.154,5581.058a5.04,5.04,0,1,1-5.04-5.04,5.04,5.04,0,0,1,5.04,5.04Z"/><path class="f" d="M848.554,5581.3a5.04,5.04,0,1,1-5.04-5.04,5.04,5.04,0,0,1,5.04,5.04Z"/><path class="f" d="M850.954,5581.3a5.04,5.04,0,1,1-5.04-5.04,5.04,5.04,0,0,1,5.04,5.04Z"/><path class="f" d="M853.354,5581.3a5.04,5.04,0,1,1-5.04-5.04,5.04,5.04,0,0,1,5.04,5.04Z"/><path class="f" d="M855.754,5581.538a5.04,5.04,0,1,1-5.04-5.04,5.04,5.04,0,0,1,5.04,5.04Z"/><path class="f" d="M858.394,5581.538a5.04,5.04,0,1,1-5.04-5.04,5.04,5.04,0,0,1,5.04,5.04Z"/><path class="f" d="M860.794,5580.819a5.04,5.04,0,1,1-5.04-5.04,5.04,5.04,0,0,1,5.04,5.04Z"/><path class="f" d="M863.194,5581.538a5.04,5.04,0,1,1-5.04-5.04,5.04,5.04,0,0,1,5.04,5.04Z"/><path class="f" d="M865.594,5581.058a5.04,5.04,0,1,1-5.04-5.04,5.04,5.04,0,0,1,5.04,5.04Z"/><path class="f" d="M867.994,5581.058a5.04,5.04,0,1,1-5.04-5.04,5.04,5.04,0,0,1,5.04,5.04Z"/><path class="f" d="M870.394,5581.058a5.04,5.04,0,1,1-5.04-5.04,5.04,5.04,0,0,1,5.04,5.04Z"/><path class="f" d="M872.794,5581.058a5.04,5.04,0,1,1-5.04-5.04,5.04,5.04,0,0,1,5.04,5.04Z"/><path class="f" d="M875.194,5579.859a5.04,5.04,0,1,1-5.04-5.04,5.04,5.04,0,0,1,5.04,5.04Z"/><path class="f" d="M877.834,5581.3a5.04,5.04,0,1,1-5.04-5.04,5.04,5.04,0,0,1,5.04,5.04Z"/><path class="f" d="M880.234,5581.3a5.04,5.04,0,1,1-5.04-5.04,5.04,5.04,0,0,1,5.04,5.04Z"/><path class="f" d="M882.634,5580.819a5.04,5.04,0,1,1-5.04-5.04,5.04,5.04,0,0,1,5.04,5.04Z"/><path class="f" d="M885.034,5580.819a5.04,5.04,0,1,1-5.04-5.04,5.04,5.04,0,0,1,5.04,5.04Z"/><path class="f" d="M887.434,5581.3a5.04,5.04,0,1,1-5.04-5.04,5.04,5.04,0,0,1,5.04,5.04Z"/><path class="f" d="M889.834,5581.3a5.04,5.04,0,1,1-5.04-5.04,5.04,5.04,0,0,1,5.04,5.04Z"/><path class="f" d="M892.234,5581.058a5.04,5.04,0,1,1-5.04-5.04,5.04,5.04,0,0,1,5.04,5.04Z"/><path class="f" d="M894.634,5581.058a5.04,5.04,0,1,1-5.04-5.04,5.04,5.04,0,0,1,5.04,5.04Z"/><path class="f" d="M897.034,5579.859a5.04,5.04,0,1,1-5.04-5.04,5.04,5.04,0,0,1,5.04,5.04Z"/><path class="f" d="M899.674,5580.819a5.04,5.04,0,1,1-5.04-5.04,5.04,5.04,0,0,1,5.04,5.04Z"/><path class="f" d="M902.074,5581.3a5.04,5.04,0,1,1-5.04-5.04,5.04,5.04,0,0,1,5.04,5.04Z"/><path class="f" d="M904.474,5580.819a5.04,5.04,0,1,1-5.04-5.04,5.04,5.04,0,0,1,5.04,5.04Z"/><path class="f" d="M906.874,5581.3a5.04,5.04,0,1,1-5.04-5.04,5.04,5.04,0,0,1,5.04,5.04Z"/><path class="f" d="M909.274,5580.819a5.04,5.04,0,1,1-5.04-5.04,5.04,5.04,0,0,1,5.04,5.04Z"/><path class="f" d="M911.674,5581.058a5.04,5.04,0,1,1-5.04-5.04,5.04,5.04,0,0,1,5.04,5.04Z"/><path class="f" d="M914.074,5581.3a5.04,5.04,0,1,1-5.04-5.04,5.04,5.04,0,0,1,5.04,5.04Z"/><path class="f" d="M916.474,5581.058a5.04,5.04,0,1,1-5.04-5.04,5.04,5.04,0,0,1,5.04,5.04Z"/><path class="f" d="M919.114,5580.819a5.04,5.04,0,1,1-5.04-5.04,5.04,5.04,0,0,1,5.04,5.04Z"/><path class="f" d="M921.514,5580.819a5.04,5.04,0,1,1-5.04-5.04,5.04,5.04,0,0,1,5.04,5.04Z"/><path class="f" d="M923.914,5581.3a5.04,5.04,0,1,1-5.04-5.04,5.04,5.04,0,0,1,5.04,5.04Z"/><path class="f" d="M926.314,5581.058a5.04,5.04,0,1,1-5.04-5.04,5.04,5.04,0,0,1,5.04,5.04Z"/><path class="f" d="M928.714,5580.819a5.04,5.04,0,1,1-5.04-5.04,5.04,5.04,0,0,1,5.04,5.04Z"/><path class="f" d="M931.114,5580.819a5.04,5.04,0,1,1-5.04-5.04,5.04,5.04,0,0,1,5.04,5.04Z"/><path class="f" d="M933.514,5580.819a5.04,5.04,0,1,1-5.04-5.04,5.04,5.04,0,0,1,5.04,5.04Z"/><path class="f" d="M935.914,5580.579a5.04,5.04,0,1,1-5.04-5.041,5.04,5.04,0,0,1,5.04,5.041Z"/><path class="f" d="M938.554,5580.819a5.04,5.04,0,1,1-5.04-5.04,5.04,5.04,0,0,1,5.04,5.04Z"/><path class="f" d="M940.954,5581.3a5.04,5.04,0,1,1-5.04-5.04,5.04,5.04,0,0,1,5.04,5.04Z"/><path class="f" d="M943.354,5580.1a5.04,5.04,0,1,1-5.04-5.041,5.04,5.04,0,0,1,5.04,5.041Z"/><path class="f" d="M945.754,5580.579a5.04,5.04,0,1,1-5.04-5.041,5.04,5.04,0,0,1,5.04,5.041Z"/><path class="f" d="M948.154,5580.579a5.04,5.04,0,1,1-5.04-5.041,5.04,5.04,0,0,1,5.04,5.041Z"/><path class="f" d="M950.554,5580.1a5.04,5.04,0,1,1-5.04-5.041,5.04,5.04,0,0,1,5.04,5.041Z"/><path class="f" d="M952.954,5579.619a5.04,5.04,0,1,1-5.04-5.04,5.04,5.04,0,0,1,5.04,5.04Z"/><path class="f" d="M955.354,5580.339a5.04,5.04,0,1,1-5.04-5.04,5.04,5.04,0,0,1,5.04,5.04Z"/><path class="f" d="M957.994,5580.579a5.04,5.04,0,1,1-5.04-5.041,5.04,5.04,0,0,1,5.04,5.041Z"/><path class="f" d="M960.394,5580.819a5.04,5.04,0,1,1-5.04-5.04,5.04,5.04,0,0,1,5.04,5.04Z"/><path class="f" d="M962.794,5579.859a5.04,5.04,0,1,1-5.04-5.04,5.04,5.04,0,0,1,5.04,5.04Z"/><path class="f" d="M965.194,5580.579a5.04,5.04,0,1,1-5.04-5.041,5.04,5.04,0,0,1,5.04,5.041Z"/><path class="f" d="M967.594,5580.579a5.04,5.04,0,1,1-5.04-5.041,5.04,5.04,0,0,1,5.04,5.041Z"/><path class="f" d="M969.994,5580.819a5.04,5.04,0,1,1-5.04-5.04,5.04,5.04,0,0,1,5.04,5.04Z"/><path class="f" d="M972.394,5580.819a5.04,5.04,0,1,1-5.04-5.04,5.04,5.04,0,0,1,5.04,5.04Z"/><path class="f" d="M974.794,5580.819a5.04,5.04,0,1,1-5.04-5.04,5.04,5.04,0,0,1,5.04,5.04Z"/><path class="f" d="M977.194,5581.3a5.04,5.04,0,1,1-5.04-5.04,5.04,5.04,0,0,1,5.04,5.04Z"/><path class="f" d="M979.834,5580.339a5.04,5.04,0,1,1-5.04-5.04,5.04,5.04,0,0,1,5.04,5.04Z"/><path class="f" d="M982.234,5580.579a5.04,5.04,0,1,1-5.04-5.041,5.04,5.04,0,0,1,5.04,5.041Z"/><path class="f" d="M984.634,5580.579a5.04,5.04,0,1,1-5.04-5.041,5.04,5.04,0,0,1,5.04,5.041Z"/><path class="f" d="M987.034,5580.819a5.04,5.04,0,1,1-5.04-5.04,5.04,5.04,0,0,1,5.04,5.04Z"/><path class="f" d="M989.434,5580.579a5.04,5.04,0,1,1-5.04-5.041,5.04,5.04,0,0,1,5.04,5.041Z"/><path class="f" d="M991.834,5580.579a5.04,5.04,0,1,1-5.04-5.041,5.04,5.04,0,0,1,5.04,5.041Z"/><path class="f" d="M994.234,5580.579a5.04,5.04,0,1,1-5.04-5.041,5.04,5.04,0,0,1,5.04,5.041Z"/><path class="f" d="M996.634,5579.859a5.04,5.04,0,1,1-5.04-5.04,5.04,5.04,0,0,1,5.04,5.04Z"/><path class="f" d="M999.274,5579.859a5.04,5.04,0,1,1-5.04-5.04,5.04,5.04,0,0,1,5.04,5.04Z"/><path class="f" d="M1001.674,5579.619a5.04,5.04,0,1,1-5.04-5.04,5.04,5.04,0,0,1,5.04,5.04Z"/><path class="f" d="M1004.074,5579.139a5.04,5.04,0,1,1-5.04-5.04,5.04,5.04,0,0,1,5.04,5.04Z"/><path class="f" d="M1006.474,5578.179a5.04,5.04,0,1,1-5.04-5.04,5.04,5.04,0,0,1,5.04,5.04Z"/><path class="f" d="M1008.874,5579.379a5.04,5.04,0,1,1-5.04-5.04,5.04,5.04,0,0,1,5.04,5.04Z"/><path class="f" d="M1011.274,5579.379a5.04,5.04,0,1,1-5.04-5.04,5.04,5.04,0,0,1,5.04,5.04Z"/><path class="f" d="M1013.674,5577.939a5.04,5.04,0,1,1-5.04-5.04,5.039,5.039,0,0,1,5.04,5.04Z"/><path class="f" d="M1016.074,5577.939a5.04,5.04,0,1,1-5.04-5.04,5.039,5.039,0,0,1,5.04,5.04Z"/><path class="f" d="M1018.714,5576.979a5.04,5.04,0,1,1-5.04-5.04,5.039,5.039,0,0,1,5.04,5.04Z"/><path class="f" d="M1021.114,5577.219a5.04,5.04,0,1,1-5.04-5.04,5.04,5.04,0,0,1,5.04,5.04Z"/><path class="f" d="M1023.514,5576.979a5.04,5.04,0,1,1-5.04-5.04,5.039,5.039,0,0,1,5.04,5.04Z"/><path class="f" d="M1025.914,5575.538a5.04,5.04,0,1,1-5.04-5.04,5.04,5.04,0,0,1,5.04,5.04Z"/><path class="f" d="M1028.314,5577.7a5.04,5.04,0,1,1-5.04-5.04,5.04,5.04,0,0,1,5.04,5.04Z"/><path class="f" d="M1030.714,5575.779a5.04,5.04,0,1,1-5.04-5.04,5.04,5.04,0,0,1,5.04,5.04Z"/><path class="f" d="M1033.114,5574.579a5.04,5.04,0,1,1-5.04-5.041,5.04,5.04,0,0,1,5.04,5.041Z"/><path class="f" d="M1035.514,5575.538a5.04,5.04,0,1,1-5.04-5.04,5.04,5.04,0,0,1,5.04,5.04Z"/><path class="f" d="M1038.154,5574.1a5.04,5.04,0,1,1-5.04-5.041,5.04,5.04,0,0,1,5.04,5.041Z"/><path class="f" d="M1040.554,5574.819a5.04,5.04,0,1,1-5.04-5.04,5.04,5.04,0,0,1,5.04,5.04Z"/><path class="f" d="M1042.954,5575.058a5.04,5.04,0,1,1-5.04-5.04,5.04,5.04,0,0,1,5.04,5.04Z"/><path class="f" d="M1045.354,5577.219a5.04,5.04,0,1,1-5.04-5.04,5.04,5.04,0,0,1,5.04,5.04Z"/><path class="f" d="M1047.754,5574.1a5.04,5.04,0,1,1-5.04-5.041,5.04,5.04,0,0,1,5.04,5.041Z"/><path class="f" d="M1050.154,5575.3a5.04,5.04,0,1,1-5.04-5.04,5.04,5.04,0,0,1,5.04,5.04Z"/><path class="f" d="M1052.554,5574.1a5.04,5.04,0,1,1-5.04-5.041,5.04,5.04,0,0,1,5.04,5.041Z"/><path class="f" d="M1054.954,5575.538a5.04,5.04,0,1,1-5.04-5.04,5.04,5.04,0,0,1,5.04,5.04Z"/><path class="f" d="M1057.594,5574.339a5.04,5.04,0,1,1-5.04-5.04,5.04,5.04,0,0,1,5.04,5.04Z"/><path class="f" d="M1059.994,5573.139a5.04,5.04,0,1,1-5.04-5.04,5.04,5.04,0,0,1,5.04,5.04Z"/><path class="f" d="M1062.394,5576.979a5.04,5.04,0,1,1-5.04-5.04,5.039,5.039,0,0,1,5.04,5.04Z"/><path class="f" d="M1064.794,5576.5a5.04,5.04,0,1,1-5.04-5.04,5.039,5.039,0,0,1,5.04,5.04Z"/><path class="f" d="M1067.194,5572.9a5.04,5.04,0,1,1-5.04-5.04,5.039,5.039,0,0,1,5.04,5.04Z"/><path class="f" d="M1069.594,5574.1a5.04,5.04,0,1,1-5.04-5.041,5.04,5.04,0,0,1,5.04,5.041Z"/><path class="f" d="M1071.994,5573.619a5.04,5.04,0,1,1-5.04-5.04,5.04,5.04,0,0,1,5.04,5.04Z"/><path class="f" d="M1074.394,5576.259a5.04,5.04,0,1,1-5.04-5.04,5.04,5.04,0,0,1,5.04,5.04Z"/><path class="f" d="M1076.794,5576.739a5.04,5.04,0,1,1-5.04-5.04,5.04,5.04,0,0,1,5.04,5.04Z"/><path class="f" d="M1079.434,5576.019a5.04,5.04,0,1,1-5.04-5.04,5.039,5.039,0,0,1,5.04,5.04Z"/><path class="f" d="M1081.834,5575.3a5.04,5.04,0,1,1-5.04-5.04,5.04,5.04,0,0,1,5.04,5.04Z"/><path class="f" d="M1084.234,5574.579a5.04,5.04,0,1,1-5.04-5.041,5.04,5.04,0,0,1,5.04,5.041Z"/><path class="f" d="M1086.634,5574.339a5.04,5.04,0,1,1-5.04-5.04,5.04,5.04,0,0,1,5.04,5.04Z"/><path class="f" d="M1089.034,5575.538a5.04,5.04,0,1,1-5.04-5.04,5.041,5.041,0,0,1,5.04,5.04Z"/><path class="f" d="M1091.434,5576.019a5.04,5.04,0,1,1-5.04-5.04,5.039,5.039,0,0,1,5.04,5.04Z"/><path class="f" d="M1093.834,5577.459a5.04,5.04,0,1,1-5.04-5.04,5.039,5.039,0,0,1,5.04,5.04Z"/><path class="f" d="M1096.234,5577.459a5.04,5.04,0,1,1-5.04-5.04,5.039,5.039,0,0,1,5.04,5.04Z"/><path class="f" d="M1098.874,5576.5a5.04,5.04,0,1,1-5.04-5.04,5.039,5.039,0,0,1,5.04,5.04Z"/><path class="f" d="M1101.274,5574.1a5.04,5.04,0,1,1-5.04-5.041,5.04,5.04,0,0,1,5.04,5.041Z"/><path class="f" d="M1103.674,5570.5a5.04,5.04,0,1,1-5.04-5.04,5.039,5.039,0,0,1,5.04,5.04Z"/><path class="f" d="M1106.074,5573.139a5.04,5.04,0,1,1-5.04-5.04,5.04,5.04,0,0,1,5.04,5.04Z"/><path class="f" d="M1108.474,5572.659a5.04,5.04,0,1,1-5.04-5.04,5.04,5.04,0,0,1,5.04,5.04Z"/><path class="f" d="M1110.874,5575.538a5.04,5.04,0,1,1-5.04-5.04,5.04,5.04,0,0,1,5.04,5.04Z"/><path class="f" d="M1113.274,5576.259a5.04,5.04,0,1,1-5.04-5.04,5.04,5.04,0,0,1,5.04,5.04Z"/><path class="f" d="M1115.674,5572.419a5.04,5.04,0,1,1-5.04-5.04,5.039,5.039,0,0,1,5.04,5.04Z"/><path class="f" d="M1118.314,5572.419a5.04,5.04,0,1,1-5.04-5.04,5.039,5.039,0,0,1,5.04,5.04Z"/><path class="f" d="M1120.714,5570.979a5.04,5.04,0,1,1-5.04-5.04,5.039,5.039,0,0,1,5.04,5.04Z"/><path class="f" d="M1123.114,5571.459a5.04,5.04,0,1,1-5.04-5.04,5.039,5.039,0,0,1,5.04,5.04Z"/><path class="f" d="M1125.514,5574.339a5.04,5.04,0,1,1-5.04-5.04,5.04,5.04,0,0,1,5.04,5.04Z"/><path class="f" d="M1127.914,5576.739a5.04,5.04,0,1,1-5.04-5.04,5.04,5.04,0,0,1,5.04,5.04Z"/><path class="f" d="M1130.314,5568.1a5.04,5.04,0,1,1-5.04-5.041,5.04,5.04,0,0,1,5.04,5.041Z"/><path class="f" d="M1132.714,5571.7a5.04,5.04,0,1,1-5.04-5.04,5.04,5.04,0,0,1,5.04,5.04Z"/><path class="f" d="M1135.114,5570.979a5.04,5.04,0,1,1-5.04-5.04,5.039,5.039,0,0,1,5.04,5.04Z"/><path class="f" d="M1137.754,5571.459a5.04,5.04,0,1,1-5.04-5.04,5.039,5.039,0,0,1,5.04,5.04Z"/><path class="f" d="M1140.154,5573.139a5.04,5.04,0,1,1-5.04-5.04,5.04,5.04,0,0,1,5.04,5.04Z"/><path class="f" d="M1142.554,5572.179a5.04,5.04,0,1,1-5.04-5.04,5.04,5.04,0,0,1,5.04,5.04Z"/><path class="f" d="M1144.954,5575.058a5.04,5.04,0,1,1-5.04-5.04,5.04,5.04,0,0,1,5.04,5.04Z"/><path class="f" d="M1147.354,5573.619a5.04,5.04,0,1,1-5.04-5.04,5.04,5.04,0,0,1,5.04,5.04Z"/><path class="f" d="M1149.754,5569.3a5.04,5.04,0,1,1-5.04-5.04,5.04,5.04,0,0,1,5.04,5.04Z"/><path class="f" d="M1152.154,5571.219a5.04,5.04,0,1,1-5.04-5.04,5.04,5.04,0,0,1,5.04,5.04Z"/><path class="f" d="M1154.554,5569.3a5.04,5.04,0,1,1-5.04-5.04,5.04,5.04,0,0,1,5.04,5.04Z"/><path class="f" d="M1156.954,5567.859a5.04,5.04,0,1,1-5.04-5.04,5.04,5.04,0,0,1,5.04,5.04Z"/><path class="f" d="M1159.594,5573.619a5.04,5.04,0,1,1-5.04-5.04,5.04,5.04,0,0,1,5.04,5.04Z"/><path class="f" d="M1161.994,5574.819a5.04,5.04,0,1,1-5.04-5.04,5.04,5.04,0,0,1,5.04,5.04Z"/><path class="f" d="M1164.394,5572.659a5.04,5.04,0,1,1-5.04-5.04,5.04,5.04,0,0,1,5.04,5.04Z"/><path class="f" d="M1166.794,5569.779a5.04,5.04,0,1,1-5.04-5.04,5.04,5.04,0,0,1,5.04,5.04Z"/><path class="f" d="M1169.194,5569.538a5.04,5.04,0,1,1-5.04-5.04,5.04,5.04,0,0,1,5.04,5.04Z"/><path class="f" d="M1171.594,5568.579a5.04,5.04,0,1,1-5.04-5.041,5.04,5.04,0,0,1,5.04,5.041Z"/><path class="f" d="M1173.994,5570.019a5.04,5.04,0,1,1-5.04-5.04,5.039,5.039,0,0,1,5.04,5.04Z"/><path class="f" d="M1176.394,5572.419a5.04,5.04,0,1,1-5.04-5.04,5.039,5.039,0,0,1,5.04,5.04Z"/><path class="f" d="M1179.034,5573.139a5.04,5.04,0,1,1-5.04-5.04,5.04,5.04,0,0,1,5.04,5.04Z"/><path class="f" d="M1181.434,5572.9a5.04,5.04,0,1,1-5.04-5.04,5.039,5.039,0,0,1,5.04,5.04Z"/><path class="f" d="M1183.834,5569.538a5.04,5.04,0,1,1-5.04-5.04,5.04,5.04,0,0,1,5.04,5.04Z"/><path class="f" d="M1186.234,5568.579a5.04,5.04,0,1,1-5.04-5.041,5.04,5.04,0,0,1,5.04,5.041Z"/><path class="f" d="M1188.634,5568.1a5.04,5.04,0,1,1-5.04-5.041,5.04,5.04,0,0,1,5.04,5.041Z"/><path class="f" d="M1191.034,5566.659a5.04,5.04,0,1,1-5.04-5.04,5.04,5.04,0,0,1,5.04,5.04Z"/><path class="f" d="M1193.434,5567.379a5.04,5.04,0,1,1-5.04-5.04,5.04,5.04,0,0,1,5.04,5.04Z"/><path class="f" d="M1195.834,5568.579a5.04,5.04,0,1,1-5.04-5.041,5.04,5.04,0,0,1,5.04,5.041Z"/><path class="f" d="M1198.474,5568.819a5.04,5.04,0,1,1-5.04-5.04,5.04,5.04,0,0,1,5.04,5.04Z"/><path class="f" d="M1200.874,5561.859a5.04,5.04,0,1,1-5.04-5.04,5.04,5.04,0,0,1,5.04,5.04Z"/><path class="f" d="M1203.274,5555.859a5.04,5.04,0,1,1-5.04-5.04,5.04,5.04,0,0,1,5.04,5.04Z"/><path class="f" d="M1205.674,5555.379a5.04,5.04,0,1,1-5.04-5.04,5.04,5.04,0,0,1,5.04,5.04Z"/><path class="f" d="M1208.074,5556.579a5.04,5.04,0,1,1-5.04-5.041,5.04,5.04,0,0,1,5.04,5.041Z"/><path class="f" d="M1210.474,5553.939a5.04,5.04,0,1,1-5.04-5.04,5.039,5.039,0,0,1,5.04,5.04Z"/><path class="f" d="M1212.874,5558.259a5.04,5.04,0,1,1-5.04-5.04,5.04,5.04,0,0,1,5.04,5.04Z"/><path class="f" d="M1215.274,5560.419a5.04,5.04,0,1,1-5.04-5.04,5.039,5.039,0,0,1,5.04,5.04Z"/><path class="f" d="M1217.914,5544.339a5.04,5.04,0,1,1-5.04-5.04,5.04,5.04,0,0,1,5.04,5.04Z"/><path class="f" d="M1220.314,5535.939a5.04,5.04,0,1,1-5.04-5.04,5.039,5.039,0,0,1,5.04,5.04Z"/><path class="f" d="M1222.714,5545.779a5.04,5.04,0,1,1-5.04-5.04,5.04,5.04,0,0,1,5.04,5.04Z"/><path class="f" d="M1225.114,5531.859a5.04,5.04,0,1,1-5.04-5.04,5.04,5.04,0,0,1,5.04,5.04Z"/><path class="f" d="M1227.514,5520.819a5.04,5.04,0,1,1-5.04-5.04,5.04,5.04,0,0,1,5.04,5.04Z"/><path class="f" d="M1229.914,5532.1a5.04,5.04,0,1,1-5.04-5.041,5.04,5.04,0,0,1,5.04,5.041Z"/><path class="f" d="M1232.314,5547.459a5.04,5.04,0,1,1-5.04-5.04,5.039,5.039,0,0,1,5.04,5.04Z"/><path class="f" d="M1234.714,5517.7a5.04,5.04,0,1,1-5.04-5.04,5.04,5.04,0,0,1,5.04,5.04Z"/><path class="f" d="M1237.354,5503.538a5.04,5.04,0,1,1-5.04-5.04,5.04,5.04,0,0,1,5.04,5.04Z"/><path class="f" d="M1239.754,5495.379a5.04,5.04,0,1,1-5.04-5.04,5.04,5.04,0,0,1,5.04,5.04Z"/><path class="f" d="M1242.154,5509.3a5.04,5.04,0,1,1-5.04-5.04,5.04,5.04,0,0,1,5.04,5.04Z"/><path class="f" d="M1244.554,5506.179a5.04,5.04,0,1,1-5.04-5.04,5.04,5.04,0,0,1,5.04,5.04Z"/><path class="f" d="M1246.954,5525.859a5.04,5.04,0,1,1-5.04-5.04,5.04,5.04,0,0,1,5.04,5.04Z"/><path class="f" d="M1249.354,5537.619a5.04,5.04,0,1,1-5.04-5.04,5.04,5.04,0,0,1,5.04,5.04Z"/><path class="f" d="M1251.754,5511.219a5.04,5.04,0,1,1-5.04-5.04,5.04,5.04,0,0,1,5.04,5.04Z"/><path class="f" d="M1254.154,5500.419a5.04,5.04,0,1,1-5.04-5.04,5.039,5.039,0,0,1,5.04,5.04Z"/><path class="f" d="M1256.554,5483.619a5.04,5.04,0,1,1-5.04-5.04,5.04,5.04,0,0,1,5.04,5.04Z"/><path class="f" d="M1259.194,5491.779a5.04,5.04,0,1,1-5.04-5.04,5.04,5.04,0,0,1,5.04,5.04Z"/><path class="f" d="M1261.594,5497.779a5.04,5.04,0,1,1-5.04-5.04,5.04,5.04,0,0,1,5.04,5.04Z"/><path class="f" d="M1263.994,5531.379a5.04,5.04,0,1,1-5.04-5.04,5.04,5.04,0,0,1,5.04,5.04Z"/><path class="f" d="M1266.394,5516.739a5.04,5.04,0,1,1-5.04-5.04,5.04,5.04,0,0,1,5.04,5.04Z"/><path class="f" d="M1268.794,5510.019a5.04,5.04,0,1,1-5.04-5.04,5.039,5.039,0,0,1,5.04,5.04Z"/><path class="f" d="M1271.194,5486.739a5.04,5.04,0,1,1-5.04-5.04,5.04,5.04,0,0,1,5.04,5.04Z"/><path class="f" d="M1273.594,5486.259a5.04,5.04,0,1,1-5.04-5.04,5.04,5.04,0,0,1,5.04,5.04Z"/><path class="f" d="M1275.994,5506.179a5.04,5.04,0,1,1-5.04-5.04,5.04,5.04,0,0,1,5.04,5.04Z"/><path class="f" d="M1278.634,5513.379a5.04,5.04,0,1,1-5.04-5.04,5.04,5.04,0,0,1,5.04,5.04Z"/><path class="f" d="M1281.034,5537.379a5.04,5.04,0,1,1-5.04-5.04,5.04,5.04,0,0,1,5.04,5.04Z"/><path class="f" d="M1283.434,5540.5a5.04,5.04,0,1,1-5.04-5.04,5.039,5.039,0,0,1,5.04,5.04Z"/><path class="f" d="M1285.834,5518.659a5.04,5.04,0,1,1-5.04-5.04,5.04,5.04,0,0,1,5.04,5.04Z"/><path class="f" d="M1288.234,5517.939a5.04,5.04,0,1,1-5.04-5.04,5.039,5.039,0,0,1,5.04,5.04Z"/><path class="f" d="M1290.634,5522.019a5.04,5.04,0,1,1-5.04-5.04,5.039,5.039,0,0,1,5.04,5.04Z"/><path class="f" d="M1293.034,5522.979a5.04,5.04,0,1,1-5.04-5.04,5.039,5.039,0,0,1,5.04,5.04Z"/><path class="f" d="M1295.434,5529.939a5.04,5.04,0,1,1-5.04-5.04,5.039,5.039,0,0,1,5.04,5.04Z"/><path class="f" d="M1298.074,5546.259a5.04,5.04,0,1,1-5.04-5.04,5.04,5.04,0,0,1,5.04,5.04Z"/><path class="c" d="M525.24,5673.511h869.52v-579.36H525.24v579.36Z"/><rect class="e" width="869.52" height="579.36" transform="translate(525.24 5094.15)"/><path class="c" d="M525.24,5673.511h869.52v-579.36H525.24v579.36Z"/><path class="g" d="M625.114,5579.379a5.04,5.04,0,1,1-5.04-5.04,5.04,5.04,0,0,1,5.04,5.04Z"/><path class="g" d="M627.514,5578.9a5.04,5.04,0,1,1-5.04-5.04,5.039,5.039,0,0,1,5.04,5.04Z"/><path class="g" d="M629.914,5578.179a5.04,5.04,0,1,1-5.04-5.04,5.04,5.04,0,0,1,5.04,5.04Z"/><path class="g" d="M632.314,5577.459a5.04,5.04,0,1,1-5.04-5.04,5.039,5.039,0,0,1,5.04,5.04Z"/><path class="g" d="M634.714,5576.739a5.04,5.04,0,1,1-5.04-5.04,5.04,5.04,0,0,1,5.04,5.04Z"/><path class="g" d="M642.154,5573.859a5.04,5.04,0,1,1-5.04-5.04,5.04,5.04,0,0,1,5.04,5.04Z"/><path class="g" d="M644.554,5572.9a5.04,5.04,0,1,1-5.04-5.04,5.039,5.039,0,0,1,5.04,5.04Z"/><path class="g" d="M646.954,5571.939a5.04,5.04,0,1,1-5.04-5.04,5.039,5.039,0,0,1,5.04,5.04Z"/><path class="g" d="M649.354,5571.219a5.04,5.04,0,1,1-5.04-5.04,5.04,5.04,0,0,1,5.04,5.04Z"/><path class="g" d="M651.754,5570.259a5.04,5.04,0,1,1-5.04-5.04,5.04,5.04,0,0,1,5.04,5.04Z"/><path class="g" d="M654.154,5569.779a5.04,5.04,0,1,1-5.04-5.04,5.04,5.04,0,0,1,5.04,5.04Z"/><path class="g" d="M656.554,5569.058a5.04,5.04,0,1,1-5.04-5.04,5.04,5.04,0,0,1,5.04,5.04Z"/><path class="g" d="M659.194,5568.819a5.04,5.04,0,1,1-5.04-5.04,5.04,5.04,0,0,1,5.04,5.04Z"/><path class="g" d="M661.594,5568.579a5.04,5.04,0,1,1-5.04-5.041,5.04,5.04,0,0,1,5.04,5.041Z"/><path class="g" d="M663.994,5568.339a5.04,5.04,0,1,1-5.04-5.04,5.04,5.04,0,0,1,5.04,5.04Z"/><path class="g" d="M666.394,5568.339a5.04,5.04,0,1,1-5.04-5.04,5.04,5.04,0,0,1,5.04,5.04Z"/><path class="g" d="M668.794,5568.579a5.04,5.04,0,1,1-5.04-5.041,5.04,5.04,0,0,1,5.04,5.041Z"/><path class="g" d="M671.194,5568.819a5.04,5.04,0,1,1-5.04-5.04,5.04,5.04,0,0,1,5.04,5.04Z"/><path class="g" d="M673.594,5569.058a5.04,5.04,0,1,1-5.04-5.04,5.04,5.04,0,0,1,5.04,5.04Z"/><path class="g" d="M675.994,5569.3a5.04,5.04,0,1,1-5.04-5.04,5.04,5.04,0,0,1,5.04,5.04Z"/><path class="g" d="M678.634,5569.779a5.04,5.04,0,1,1-5.04-5.04,5.04,5.04,0,0,1,5.04,5.04Z"/><path class="g" d="M681.034,5570.019a5.04,5.04,0,1,1-5.04-5.04,5.039,5.039,0,0,1,5.04,5.04Z"/><path class="g" d="M683.434,5570.5a5.04,5.04,0,1,1-5.04-5.04,5.039,5.039,0,0,1,5.04,5.04Z"/><path class="g" d="M685.834,5570.979a5.04,5.04,0,1,1-5.04-5.04,5.039,5.039,0,0,1,5.04,5.04Z"/><path class="g" d="M688.234,5571.459a5.04,5.04,0,1,1-5.04-5.04,5.039,5.039,0,0,1,5.04,5.04Z"/><path class="g" d="M690.634,5571.939a5.04,5.04,0,1,1-5.04-5.04,5.039,5.039,0,0,1,5.04,5.04Z"/><path class="g" d="M693.034,5572.179a5.04,5.04,0,1,1-5.04-5.04,5.04,5.04,0,0,1,5.04,5.04Z"/><path class="g" d="M695.434,5572.659a5.04,5.04,0,1,1-5.04-5.04,5.04,5.04,0,0,1,5.04,5.04Z"/><path class="g" d="M698.074,5573.139a5.04,5.04,0,1,1-5.04-5.04,5.04,5.04,0,0,1,5.04,5.04Z"/><path class="g" d="M700.474,5573.379a5.04,5.04,0,1,1-5.04-5.04,5.04,5.04,0,0,1,5.04,5.04Z"/><path class="g" d="M702.874,5573.859a5.04,5.04,0,1,1-5.04-5.04,5.04,5.04,0,0,1,5.04,5.04Z"/><path class="g" d="M705.274,5574.1a5.04,5.04,0,1,1-5.04-5.041,5.04,5.04,0,0,1,5.04,5.041Z"/><path class="g" d="M707.674,5574.579a5.04,5.04,0,1,1-5.04-5.041,5.04,5.04,0,0,1,5.04,5.041Z"/><path class="g" d="M710.074,5574.819a5.04,5.04,0,1,1-5.04-5.04,5.04,5.04,0,0,1,5.04,5.04Z"/><path class="g" d="M712.474,5575.058a5.04,5.04,0,1,1-5.04-5.04,5.04,5.04,0,0,1,5.04,5.04Z"/><path class="g" d="M714.874,5575.3a5.04,5.04,0,1,1-5.04-5.04,5.04,5.04,0,0,1,5.04,5.04Z"/><path class="g" d="M717.274,5575.538a5.04,5.04,0,1,1-5.04-5.04,5.04,5.04,0,0,1,5.04,5.04Z"/><path class="g" d="M719.914,5575.779a5.04,5.04,0,1,1-5.04-5.04,5.04,5.04,0,0,1,5.04,5.04Z"/><path class="g" d="M722.314,5576.019a5.04,5.04,0,1,1-5.04-5.04,5.039,5.039,0,0,1,5.04,5.04Z"/><path class="g" d="M724.714,5576.259a5.04,5.04,0,1,1-5.04-5.04,5.04,5.04,0,0,1,5.04,5.04Z"/><path class="g" d="M727.114,5576.5a5.04,5.04,0,1,1-5.04-5.04,5.039,5.039,0,0,1,5.04,5.04Z"/><path class="g" d="M729.514,5576.5a5.04,5.04,0,1,1-5.04-5.04,5.039,5.039,0,0,1,5.04,5.04Z"/><path class="g" d="M731.914,5576.739a5.04,5.04,0,1,1-5.04-5.04,5.04,5.04,0,0,1,5.04,5.04Z"/><path class="g" d="M734.314,5576.979a5.04,5.04,0,1,1-5.04-5.04,5.039,5.039,0,0,1,5.04,5.04Z"/><path class="g" d="M736.714,5576.979a5.04,5.04,0,1,1-5.04-5.04,5.039,5.039,0,0,1,5.04,5.04Z"/><path class="g" d="M739.354,5576.979a5.04,5.04,0,1,1-5.04-5.04,5.039,5.039,0,0,1,5.04,5.04Z"/><path class="g" d="M741.754,5577.219a5.04,5.04,0,1,1-5.04-5.04,5.04,5.04,0,0,1,5.04,5.04Z"/><path class="g" d="M744.154,5577.219a5.04,5.04,0,1,1-5.04-5.04,5.04,5.04,0,0,1,5.04,5.04Z"/><path class="g" d="M746.554,5577.459a5.04,5.04,0,1,1-5.04-5.04,5.039,5.039,0,0,1,5.04,5.04Z"/><path class="g" d="M748.954,5577.459a5.04,5.04,0,1,1-5.04-5.04,5.039,5.039,0,0,1,5.04,5.04Z"/><path class="g" d="M751.354,5577.459a5.04,5.04,0,1,1-5.04-5.04,5.039,5.039,0,0,1,5.04,5.04Z"/><path class="g" d="M753.754,5577.459a5.04,5.04,0,1,1-5.04-5.04,5.039,5.039,0,0,1,5.04,5.04Z"/><path class="g" d="M756.154,5577.7a5.04,5.04,0,1,1-5.04-5.04,5.04,5.04,0,0,1,5.04,5.04Z"/><path class="g" d="M758.794,5577.7a5.04,5.04,0,1,1-5.04-5.04,5.04,5.04,0,0,1,5.04,5.04Z"/><path class="g" d="M761.194,5577.7a5.04,5.04,0,1,1-5.04-5.04,5.04,5.04,0,0,1,5.04,5.04Z"/><path class="g" d="M763.594,5577.7a5.04,5.04,0,1,1-5.04-5.04,5.04,5.04,0,0,1,5.04,5.04Z"/><path class="g" d="M765.994,5577.939a5.04,5.04,0,1,1-5.04-5.04,5.039,5.039,0,0,1,5.04,5.04Z"/><path class="g" d="M768.394,5577.939a5.04,5.04,0,1,1-5.04-5.04,5.039,5.039,0,0,1,5.04,5.04Z"/><path class="g" d="M770.794,5577.939a5.04,5.04,0,1,1-5.04-5.04,5.039,5.039,0,0,1,5.04,5.04Z"/><path class="g" d="M773.194,5578.179a5.04,5.04,0,1,1-5.04-5.04,5.04,5.04,0,0,1,5.04,5.04Z"/><path class="g" d="M775.594,5578.179a5.04,5.04,0,1,1-5.04-5.04,5.04,5.04,0,0,1,5.04,5.04Z"/><path class="g" d="M778.234,5578.179a5.04,5.04,0,1,1-5.04-5.04,5.04,5.04,0,0,1,5.04,5.04Z"/><path class="g" d="M780.634,5578.419a5.04,5.04,0,1,1-5.04-5.04,5.039,5.039,0,0,1,5.04,5.04Z"/><path class="g" d="M783.034,5578.419a5.04,5.04,0,1,1-5.04-5.04,5.039,5.039,0,0,1,5.04,5.04Z"/><path class="g" d="M785.434,5578.419a5.04,5.04,0,1,1-5.04-5.04,5.039,5.039,0,0,1,5.04,5.04Z"/><path class="g" d="M787.834,5578.659a5.04,5.04,0,1,1-5.04-5.04,5.04,5.04,0,0,1,5.04,5.04Z"/><path class="g" d="M790.234,5578.659a5.04,5.04,0,1,1-5.04-5.04,5.04,5.04,0,0,1,5.04,5.04Z"/><path class="g" d="M792.634,5578.659a5.04,5.04,0,1,1-5.04-5.04,5.04,5.04,0,0,1,5.04,5.04Z"/><path class="g" d="M795.034,5578.9a5.04,5.04,0,1,1-5.04-5.04,5.039,5.039,0,0,1,5.04,5.04Z"/><path class="g" d="M797.434,5578.9a5.04,5.04,0,1,1-5.04-5.04,5.039,5.039,0,0,1,5.04,5.04Z"/><path class="g" d="M800.074,5579.139a5.04,5.04,0,1,1-5.04-5.04,5.04,5.04,0,0,1,5.04,5.04Z"/><path class="g" d="M802.474,5579.139a5.04,5.04,0,1,1-5.04-5.04,5.04,5.04,0,0,1,5.04,5.04Z"/><path class="g" d="M804.874,5579.139a5.04,5.04,0,1,1-5.04-5.04,5.04,5.04,0,0,1,5.04,5.04Z"/><path class="g" d="M807.274,5579.139a5.04,5.04,0,1,1-5.04-5.04,5.04,5.04,0,0,1,5.04,5.04Z"/><path class="g" d="M809.674,5579.379a5.04,5.04,0,1,1-5.04-5.04,5.04,5.04,0,0,1,5.04,5.04Z"/><path class="g" d="M812.074,5579.379a5.04,5.04,0,1,1-5.04-5.04,5.04,5.04,0,0,1,5.04,5.04Z"/><path class="g" d="M814.474,5579.379a5.04,5.04,0,1,1-5.04-5.04,5.04,5.04,0,0,1,5.04,5.04Z"/><path class="g" d="M816.874,5579.379a5.04,5.04,0,1,1-5.04-5.04,5.04,5.04,0,0,1,5.04,5.04Z"/><path class="g" d="M819.514,5579.379a5.04,5.04,0,1,1-5.04-5.04,5.04,5.04,0,0,1,5.04,5.04Z"/><path class="g" d="M821.914,5579.379a5.04,5.04,0,1,1-5.04-5.04,5.04,5.04,0,0,1,5.04,5.04Z"/><path class="g" d="M824.314,5579.619a5.04,5.04,0,1,1-5.04-5.04,5.04,5.04,0,0,1,5.04,5.04Z"/><path class="g" d="M826.714,5579.619a5.04,5.04,0,1,1-5.04-5.04,5.04,5.04,0,0,1,5.04,5.04Z"/><path class="g" d="M829.114,5579.619a5.04,5.04,0,1,1-5.04-5.04,5.04,5.04,0,0,1,5.04,5.04Z"/><path class="g" d="M831.514,5579.619a5.04,5.04,0,1,1-5.04-5.04,5.04,5.04,0,0,1,5.04,5.04Z"/><path class="g" d="M833.914,5579.619a5.04,5.04,0,1,1-5.04-5.04,5.04,5.04,0,0,1,5.04,5.04Z"/><path class="g" d="M836.314,5579.619a5.04,5.04,0,1,1-5.04-5.04,5.04,5.04,0,0,1,5.04,5.04Z"/><path class="g" d="M838.954,5579.619a5.04,5.04,0,1,1-5.04-5.04,5.04,5.04,0,0,1,5.04,5.04Z"/><path class="g" d="M841.354,5579.859a5.04,5.04,0,1,1-5.04-5.04,5.04,5.04,0,0,1,5.04,5.04Z"/><path class="g" d="M843.754,5579.859a5.04,5.04,0,1,1-5.04-5.04,5.04,5.04,0,0,1,5.04,5.04Z"/><path class="g" d="M846.154,5579.859a5.04,5.04,0,1,1-5.04-5.04,5.04,5.04,0,0,1,5.04,5.04Z"/><path class="g" d="M848.554,5579.859a5.04,5.04,0,1,1-5.04-5.04,5.04,5.04,0,0,1,5.04,5.04Z"/><path class="g" d="M850.954,5579.859a5.04,5.04,0,1,1-5.04-5.04,5.04,5.04,0,0,1,5.04,5.04Z"/><path class="g" d="M853.354,5580.1a5.04,5.04,0,1,1-5.04-5.041,5.04,5.04,0,0,1,5.04,5.041Z"/><path class="g" d="M855.754,5580.1a5.04,5.04,0,1,1-5.04-5.041,5.04,5.04,0,0,1,5.04,5.041Z"/><path class="g" d="M858.394,5580.1a5.04,5.04,0,1,1-5.04-5.041,5.04,5.04,0,0,1,5.04,5.041Z"/><path class="g" d="M860.794,5580.1a5.04,5.04,0,1,1-5.04-5.041,5.04,5.04,0,0,1,5.04,5.041Z"/><path class="g" d="M863.194,5580.339a5.04,5.04,0,1,1-5.04-5.04,5.04,5.04,0,0,1,5.04,5.04Z"/><path class="g" d="M865.594,5580.339a5.04,5.04,0,1,1-5.04-5.04,5.04,5.04,0,0,1,5.04,5.04Z"/><path class="g" d="M867.994,5580.339a5.04,5.04,0,1,1-5.04-5.04,5.04,5.04,0,0,1,5.04,5.04Z"/><path class="g" d="M870.394,5580.339a5.04,5.04,0,1,1-5.04-5.04,5.04,5.04,0,0,1,5.04,5.04Z"/><path class="g" d="M872.794,5580.339a5.04,5.04,0,1,1-5.04-5.04,5.04,5.04,0,0,1,5.04,5.04Z"/><path class="g" d="M875.194,5580.339a5.04,5.04,0,1,1-5.04-5.04,5.04,5.04,0,0,1,5.04,5.04Z"/><path class="g" d="M877.834,5580.579a5.04,5.04,0,1,1-5.04-5.041,5.04,5.04,0,0,1,5.04,5.041Z"/><path class="g" d="M880.234,5580.579a5.04,5.04,0,1,1-5.04-5.041,5.04,5.04,0,0,1,5.04,5.041Z"/><path class="g" d="M882.634,5580.579a5.04,5.04,0,1,1-5.04-5.041,5.04,5.04,0,0,1,5.04,5.041Z"/><path class="g" d="M885.034,5580.579a5.04,5.04,0,1,1-5.04-5.041,5.04,5.04,0,0,1,5.04,5.041Z"/><path class="g" d="M887.434,5580.579a5.04,5.04,0,1,1-5.04-5.041,5.04,5.04,0,0,1,5.04,5.041Z"/><path class="g" d="M889.834,5580.579a5.04,5.04,0,1,1-5.04-5.041,5.04,5.04,0,0,1,5.04,5.041Z"/><path class="g" d="M892.234,5580.579a5.04,5.04,0,1,1-5.04-5.041,5.04,5.04,0,0,1,5.04,5.041Z"/><path class="g" d="M894.634,5580.579a5.04,5.04,0,1,1-5.04-5.041,5.04,5.04,0,0,1,5.04,5.041Z"/><path class="g" d="M897.034,5580.579a5.04,5.04,0,1,1-5.04-5.041,5.04,5.04,0,0,1,5.04,5.041Z"/><path class="g" d="M899.674,5580.579a5.04,5.04,0,1,1-5.04-5.041,5.04,5.04,0,0,1,5.04,5.041Z"/><path class="g" d="M902.074,5580.579a5.04,5.04,0,1,1-5.04-5.041,5.04,5.04,0,0,1,5.04,5.041Z"/><path class="g" d="M904.474,5580.579a5.04,5.04,0,1,1-5.04-5.041,5.04,5.04,0,0,1,5.04,5.041Z"/><path class="g" d="M906.874,5580.579a5.04,5.04,0,1,1-5.04-5.041,5.04,5.04,0,0,1,5.04,5.041Z"/><path class="g" d="M909.274,5580.579a5.04,5.04,0,1,1-5.04-5.041,5.04,5.04,0,0,1,5.04,5.041Z"/><path class="g" d="M911.674,5580.579a5.04,5.04,0,1,1-5.04-5.041,5.04,5.04,0,0,1,5.04,5.041Z"/><path class="g" d="M914.074,5580.339a5.04,5.04,0,1,1-5.04-5.04,5.04,5.04,0,0,1,5.04,5.04Z"/><path class="g" d="M916.474,5580.339a5.04,5.04,0,1,1-5.04-5.04,5.04,5.04,0,0,1,5.04,5.04Z"/><path class="g" d="M919.114,5580.339a5.04,5.04,0,1,1-5.04-5.04,5.04,5.04,0,0,1,5.04,5.04Z"/><path class="g" d="M921.514,5580.339a5.04,5.04,0,1,1-5.04-5.04,5.04,5.04,0,0,1,5.04,5.04Z"/><path class="g" d="M923.914,5580.1a5.04,5.04,0,1,1-5.04-5.041,5.04,5.04,0,0,1,5.04,5.041Z"/><path class="g" d="M926.314,5580.1a5.04,5.04,0,1,1-5.04-5.041,5.04,5.04,0,0,1,5.04,5.041Z"/><path class="g" d="M928.714,5579.859a5.04,5.04,0,1,1-5.04-5.04,5.04,5.04,0,0,1,5.04,5.04Z"/><path class="g" d="M931.114,5579.859a5.04,5.04,0,1,1-5.04-5.04,5.04,5.04,0,0,1,5.04,5.04Z"/><path class="g" d="M933.514,5579.619a5.04,5.04,0,1,1-5.04-5.04,5.04,5.04,0,0,1,5.04,5.04Z"/><path class="g" d="M935.914,5579.619a5.04,5.04,0,1,1-5.04-5.04,5.04,5.04,0,0,1,5.04,5.04Z"/><path class="g" d="M938.554,5579.379a5.04,5.04,0,1,1-5.04-5.04,5.04,5.04,0,0,1,5.04,5.04Z"/><path class="g" d="M940.954,5579.139a5.04,5.04,0,1,1-5.04-5.04,5.04,5.04,0,0,1,5.04,5.04Z"/><path class="g" d="M943.354,5579.139a5.04,5.04,0,1,1-5.04-5.04,5.04,5.04,0,0,1,5.04,5.04Z"/><path class="g" d="M945.754,5578.9a5.04,5.04,0,1,1-5.04-5.04,5.039,5.039,0,0,1,5.04,5.04Z"/><path class="g" d="M948.154,5578.659a5.04,5.04,0,1,1-5.04-5.04,5.04,5.04,0,0,1,5.04,5.04Z"/><path class="g" d="M950.554,5578.419a5.04,5.04,0,1,1-5.04-5.04,5.039,5.039,0,0,1,5.04,5.04Z"/><path class="g" d="M952.954,5578.419a5.04,5.04,0,1,1-5.04-5.04,5.039,5.039,0,0,1,5.04,5.04Z"/><path class="g" d="M955.354,5578.179a5.04,5.04,0,1,1-5.04-5.04,5.04,5.04,0,0,1,5.04,5.04Z"/><path class="g" d="M957.994,5577.939a5.04,5.04,0,1,1-5.04-5.04,5.039,5.039,0,0,1,5.04,5.04Z"/><path class="g" d="M960.394,5577.7a5.04,5.04,0,1,1-5.04-5.04,5.04,5.04,0,0,1,5.04,5.04Z"/><path class="g" d="M962.794,5577.7a5.04,5.04,0,1,1-5.04-5.04,5.04,5.04,0,0,1,5.04,5.04Z"/><path class="g" d="M965.194,5577.459a5.04,5.04,0,1,1-5.04-5.04,5.039,5.039,0,0,1,5.04,5.04Z"/><path class="g" d="M967.594,5577.219a5.04,5.04,0,1,1-5.04-5.04,5.04,5.04,0,0,1,5.04,5.04Z"/><path class="g" d="M969.994,5577.219a5.04,5.04,0,1,1-5.04-5.04,5.04,5.04,0,0,1,5.04,5.04Z"/><path class="g" d="M972.394,5576.979a5.04,5.04,0,1,1-5.04-5.04,5.039,5.039,0,0,1,5.04,5.04Z"/><path class="g" d="M974.794,5576.739a5.04,5.04,0,1,1-5.04-5.04,5.04,5.04,0,0,1,5.04,5.04Z"/><path class="g" d="M977.194,5576.5a5.04,5.04,0,1,1-5.04-5.04,5.039,5.039,0,0,1,5.04,5.04Z"/><path class="g" d="M979.834,5576.5a5.04,5.04,0,1,1-5.04-5.04,5.039,5.039,0,0,1,5.04,5.04Z"/><path class="g" d="M982.234,5576.259a5.04,5.04,0,1,1-5.04-5.04,5.04,5.04,0,0,1,5.04,5.04Z"/><path class="g" d="M984.634,5576.019a5.04,5.04,0,1,1-5.04-5.04,5.039,5.039,0,0,1,5.04,5.04Z"/><path class="g" d="M987.034,5575.779a5.04,5.04,0,1,1-5.04-5.04,5.04,5.04,0,0,1,5.04,5.04Z"/><path class="g" d="M989.434,5575.538a5.04,5.04,0,1,1-5.04-5.04,5.04,5.04,0,0,1,5.04,5.04Z"/><path class="g" d="M991.834,5575.3a5.04,5.04,0,1,1-5.04-5.04,5.04,5.04,0,0,1,5.04,5.04Z"/><path class="g" d="M994.234,5575.058a5.04,5.04,0,1,1-5.04-5.04,5.04,5.04,0,0,1,5.04,5.04Z"/><path class="g" d="M996.634,5574.819a5.04,5.04,0,1,1-5.04-5.04,5.04,5.04,0,0,1,5.04,5.04Z"/><path class="g" d="M999.274,5574.339a5.04,5.04,0,1,1-5.04-5.04,5.04,5.04,0,0,1,5.04,5.04Z"/><path class="g" d="M1001.674,5574.1a5.04,5.04,0,1,1-5.04-5.041,5.04,5.04,0,0,1,5.04,5.041Z"/><path class="g" d="M1004.074,5573.859a5.04,5.04,0,1,1-5.04-5.04,5.04,5.04,0,0,1,5.04,5.04Z"/><path class="g" d="M1006.474,5573.379a5.04,5.04,0,1,1-5.04-5.04,5.04,5.04,0,0,1,5.04,5.04Z"/><path class="g" d="M1008.874,5573.139a5.04,5.04,0,1,1-5.04-5.04,5.04,5.04,0,0,1,5.04,5.04Z"/><path class="g" d="M1011.274,5572.659a5.04,5.04,0,1,1-5.04-5.04,5.04,5.04,0,0,1,5.04,5.04Z"/><path class="g" d="M1013.674,5572.419a5.04,5.04,0,1,1-5.04-5.04,5.039,5.039,0,0,1,5.04,5.04Z"/><path class="g" d="M1016.074,5571.939a5.04,5.04,0,1,1-5.04-5.04,5.039,5.039,0,0,1,5.04,5.04Z"/><path class="g" d="M1018.714,5571.7a5.04,5.04,0,1,1-5.04-5.04,5.04,5.04,0,0,1,5.04,5.04Z"/><path class="g" d="M1021.114,5571.459a5.04,5.04,0,1,1-5.04-5.04,5.039,5.039,0,0,1,5.04,5.04Z"/><path class="g" d="M1023.514,5570.979a5.04,5.04,0,1,1-5.04-5.04,5.039,5.039,0,0,1,5.04,5.04Z"/><path class="g" d="M1025.914,5570.739a5.04,5.04,0,1,1-5.04-5.04,5.04,5.04,0,0,1,5.04,5.04Z"/><path class="g" d="M1028.314,5570.5a5.04,5.04,0,1,1-5.04-5.04,5.039,5.039,0,0,1,5.04,5.04Z"/><path class="g" d="M1030.714,5570.019a5.04,5.04,0,1,1-5.04-5.04,5.039,5.039,0,0,1,5.04,5.04Z"/><path class="g" d="M1033.114,5569.779a5.04,5.04,0,1,1-5.04-5.04,5.04,5.04,0,0,1,5.04,5.04Z"/><path class="g" d="M1035.514,5569.538a5.04,5.04,0,1,1-5.04-5.04,5.04,5.04,0,0,1,5.04,5.04Z"/><path class="g" d="M1038.154,5569.3a5.04,5.04,0,1,1-5.04-5.04,5.04,5.04,0,0,1,5.04,5.04Z"/><path class="g" d="M1040.554,5569.3a5.04,5.04,0,1,1-5.04-5.04,5.04,5.04,0,0,1,5.04,5.04Z"/><path class="g" d="M1042.954,5569.058a5.04,5.04,0,1,1-5.04-5.04,5.04,5.04,0,0,1,5.04,5.04Z"/><path class="g" d="M1045.354,5568.819a5.04,5.04,0,1,1-5.04-5.04,5.04,5.04,0,0,1,5.04,5.04Z"/><path class="g" d="M1047.754,5568.819a5.04,5.04,0,1,1-5.04-5.04,5.04,5.04,0,0,1,5.04,5.04Z"/><path class="g" d="M1050.154,5568.579a5.04,5.04,0,1,1-5.04-5.041,5.04,5.04,0,0,1,5.04,5.041Z"/><path class="g" d="M1052.554,5568.339a5.04,5.04,0,1,1-5.04-5.04,5.04,5.04,0,0,1,5.04,5.04Z"/><path class="g" d="M1054.954,5568.339a5.04,5.04,0,1,1-5.04-5.04,5.04,5.04,0,0,1,5.04,5.04Z"/><path class="g" d="M1057.594,5568.1a5.04,5.04,0,1,1-5.04-5.041,5.04,5.04,0,0,1,5.04,5.041Z"/><path class="g" d="M1059.994,5567.859a5.04,5.04,0,1,1-5.04-5.04,5.04,5.04,0,0,1,5.04,5.04Z"/><path class="g" d="M1062.394,5567.859a5.04,5.04,0,1,1-5.04-5.04,5.04,5.04,0,0,1,5.04,5.04Z"/><path class="g" d="M1064.794,5567.619a5.04,5.04,0,1,1-5.04-5.04,5.04,5.04,0,0,1,5.04,5.04Z"/><path class="g" d="M1067.194,5567.379a5.04,5.04,0,1,1-5.04-5.04,5.04,5.04,0,0,1,5.04,5.04Z"/><path class="g" d="M1069.594,5567.139a5.04,5.04,0,1,1-5.04-5.04,5.04,5.04,0,0,1,5.04,5.04Z"/><path class="g" d="M1071.994,5566.9a5.04,5.04,0,1,1-5.04-5.04,5.039,5.039,0,0,1,5.04,5.04Z"/><path class="g" d="M1074.394,5566.659a5.04,5.04,0,1,1-5.04-5.04,5.04,5.04,0,0,1,5.04,5.04Z"/><path class="g" d="M1076.794,5566.179a5.04,5.04,0,1,1-5.04-5.04,5.04,5.04,0,0,1,5.04,5.04Z"/><path class="g" d="M1079.434,5565.939a5.04,5.04,0,1,1-5.04-5.04,5.039,5.039,0,0,1,5.04,5.04Z"/><path class="g" d="M1081.834,5565.459a5.04,5.04,0,1,1-5.04-5.04,5.039,5.039,0,0,1,5.04,5.04Z"/><path class="g" d="M1084.234,5565.219a5.04,5.04,0,1,1-5.04-5.04,5.04,5.04,0,0,1,5.04,5.04Z"/><path class="g" d="M1086.634,5564.739a5.04,5.04,0,1,1-5.04-5.04,5.04,5.04,0,0,1,5.04,5.04Z"/><path class="g" d="M1089.034,5564.259a5.04,5.04,0,1,1-5.04-5.04,5.04,5.04,0,0,1,5.04,5.04Z"/><path class="g" d="M1091.434,5563.779a5.04,5.04,0,1,1-5.04-5.04,5.04,5.04,0,0,1,5.04,5.04Z"/><path class="g" d="M1093.834,5563.3a5.04,5.04,0,1,1-5.04-5.04,5.04,5.04,0,0,1,5.04,5.04Z"/><path class="g" d="M1096.234,5562.819a5.04,5.04,0,1,1-5.04-5.04,5.04,5.04,0,0,1,5.04,5.04Z"/><path class="g" d="M1098.874,5562.339a5.04,5.04,0,1,1-5.04-5.04,5.04,5.04,0,0,1,5.04,5.04Z"/><path class="g" d="M1101.274,5561.859a5.04,5.04,0,1,1-5.04-5.04,5.04,5.04,0,0,1,5.04,5.04Z"/><path class="g" d="M1103.674,5561.379a5.04,5.04,0,1,1-5.04-5.04,5.04,5.04,0,0,1,5.04,5.04Z"/><path class="g" d="M1106.074,5560.9a5.04,5.04,0,1,1-5.04-5.04,5.039,5.039,0,0,1,5.04,5.04Z"/><path class="g" d="M1108.474,5560.419a5.04,5.04,0,1,1-5.04-5.04,5.039,5.039,0,0,1,5.04,5.04Z"/><path class="g" d="M1110.874,5559.939a5.04,5.04,0,1,1-5.04-5.04,5.039,5.039,0,0,1,5.04,5.04Z"/><path class="g" d="M1113.274,5559.219a5.04,5.04,0,1,1-5.04-5.04,5.04,5.04,0,0,1,5.04,5.04Z"/><path class="g" d="M1115.674,5558.739a5.04,5.04,0,1,1-5.04-5.04,5.04,5.04,0,0,1,5.04,5.04Z"/><path class="g" d="M1118.314,5558.259a5.04,5.04,0,1,1-5.04-5.04,5.04,5.04,0,0,1,5.04,5.04Z"/><path class="g" d="M1120.714,5558.019a5.04,5.04,0,1,1-5.04-5.04,5.039,5.039,0,0,1,5.04,5.04Z"/><path class="g" d="M1123.114,5557.538a5.04,5.04,0,1,1-5.04-5.04,5.04,5.04,0,0,1,5.04,5.04Z"/><path class="g" d="M1125.514,5557.058a5.04,5.04,0,1,1-5.04-5.04,5.04,5.04,0,0,1,5.04,5.04Z"/><path class="g" d="M1127.914,5556.819a5.04,5.04,0,1,1-5.04-5.04,5.04,5.04,0,0,1,5.04,5.04Z"/><path class="g" d="M1130.314,5556.339a5.04,5.04,0,1,1-5.04-5.04,5.04,5.04,0,0,1,5.04,5.04Z"/><path class="g" d="M1132.714,5556.1a5.04,5.04,0,1,1-5.04-5.041,5.04,5.04,0,0,1,5.04,5.041Z"/><path class="g" d="M1135.114,5555.619a5.04,5.04,0,1,1-5.04-5.04,5.04,5.04,0,0,1,5.04,5.04Z"/><path class="g" d="M1137.754,5555.379a5.04,5.04,0,1,1-5.04-5.04,5.04,5.04,0,0,1,5.04,5.04Z"/><path class="g" d="M1140.154,5555.139a5.04,5.04,0,1,1-5.04-5.04,5.04,5.04,0,0,1,5.04,5.04Z"/><path class="g" d="M1142.554,5554.659a5.04,5.04,0,1,1-5.04-5.04,5.04,5.04,0,0,1,5.04,5.04Z"/><path class="g" d="M1144.954,5554.419a5.04,5.04,0,1,1-5.04-5.04,5.039,5.039,0,0,1,5.04,5.04Z"/><path class="g" d="M1147.354,5553.939a5.04,5.04,0,1,1-5.04-5.04,5.039,5.039,0,0,1,5.04,5.04Z"/><path class="g" d="M1149.754,5553.7a5.04,5.04,0,1,1-5.04-5.04,5.04,5.04,0,0,1,5.04,5.04Z"/><path class="g" d="M1152.154,5553.219a5.04,5.04,0,1,1-5.04-5.04,5.04,5.04,0,0,1,5.04,5.04Z"/><path class="g" d="M1154.554,5552.739a5.04,5.04,0,1,1-5.04-5.04,5.04,5.04,0,0,1,5.04,5.04Z"/><path class="g" d="M1156.954,5552.019a5.04,5.04,0,1,1-5.04-5.04,5.039,5.039,0,0,1,5.04,5.04Z"/><path class="g" d="M1159.594,5551.3a5.04,5.04,0,1,1-5.04-5.04,5.04,5.04,0,0,1,5.04,5.04Z"/><path class="g" d="M1161.994,5550.339a5.04,5.04,0,1,1-5.04-5.04,5.04,5.04,0,0,1,5.04,5.04Z"/><path class="g" d="M1164.394,5549.139a5.04,5.04,0,1,1-5.04-5.04,5.04,5.04,0,0,1,5.04,5.04Z"/><path class="g" d="M1166.794,5547.939a5.04,5.04,0,1,1-5.04-5.04,5.039,5.039,0,0,1,5.04,5.04Z"/><path class="g" d="M1169.194,5546.259a5.04,5.04,0,1,1-5.04-5.04,5.04,5.04,0,0,1,5.04,5.04Z"/><path class="g" d="M1171.594,5544.579a5.04,5.04,0,1,1-5.04-5.041,5.04,5.04,0,0,1,5.04,5.041Z"/><path class="g" d="M1173.994,5542.179a5.04,5.04,0,1,1-5.04-5.04,5.04,5.04,0,0,1,5.04,5.04Z"/><path class="g" d="M1176.394,5539.538a5.04,5.04,0,1,1-5.04-5.04,5.041,5.041,0,0,1,5.04,5.04Z"/><path class="g" d="M1179.034,5536.419a5.04,5.04,0,1,1-5.04-5.04,5.039,5.039,0,0,1,5.04,5.04Z"/><path class="g" d="M1181.434,5532.819a5.04,5.04,0,1,1-5.04-5.04,5.04,5.04,0,0,1,5.04,5.04Z"/><path class="g" d="M1183.834,5528.5a5.04,5.04,0,1,1-5.04-5.04,5.039,5.039,0,0,1,5.04,5.04Z"/><path class="g" d="M1186.234,5523.7a5.04,5.04,0,1,1-5.04-5.04,5.04,5.04,0,0,1,5.04,5.04Z"/><path class="g" d="M1188.634,5517.939a5.04,5.04,0,1,1-5.04-5.04,5.039,5.039,0,0,1,5.04,5.04Z"/><path class="g" d="M1191.034,5511.219a5.04,5.04,0,1,1-5.04-5.04,5.04,5.04,0,0,1,5.04,5.04Z"/><path class="g" d="M1193.434,5503.779a5.04,5.04,0,1,1-5.04-5.04,5.04,5.04,0,0,1,5.04,5.04Z"/><path class="g" d="M1195.834,5495.139a5.04,5.04,0,1,1-5.04-5.04,5.04,5.04,0,0,1,5.04,5.04Z"/><path class="g" d="M1198.474,5485.538a5.04,5.04,0,1,1-5.04-5.04,5.04,5.04,0,0,1,5.04,5.04Z"/><path class="g" d="M1200.874,5474.739a5.04,5.04,0,1,1-5.04-5.04,5.04,5.04,0,0,1,5.04,5.04Z"/><path class="g" d="M1203.274,5462.739a5.04,5.04,0,1,1-5.04-5.04,5.04,5.04,0,0,1,5.04,5.04Z"/><path class="g" d="M1205.674,5449.538a5.04,5.04,0,1,1-5.04-5.04,5.04,5.04,0,0,1,5.04,5.04Z"/><path class="g" d="M1208.074,5435.139a5.04,5.04,0,1,1-5.04-5.04,5.04,5.04,0,0,1,5.04,5.04Z"/><path class="g" d="M1210.474,5419.779a5.04,5.04,0,1,1-5.04-5.04,5.04,5.04,0,0,1,5.04,5.04Z"/><path class="g" d="M1212.874,5403.459a5.04,5.04,0,1,1-5.04-5.04,5.039,5.039,0,0,1,5.04,5.04Z"/><path class="g" d="M1215.274,5386.419a5.04,5.04,0,1,1-5.04-5.04,5.039,5.039,0,0,1,5.04,5.04Z"/><path class="g" d="M1217.914,5368.659a5.04,5.04,0,1,1-5.04-5.04,5.04,5.04,0,0,1,5.04,5.04Z"/><path class="g" d="M1220.314,5350.659a5.04,5.04,0,1,1-5.04-5.04,5.04,5.04,0,0,1,5.04,5.04Z"/><path class="g" d="M1222.714,5332.659a5.04,5.04,0,1,1-5.04-5.04,5.04,5.04,0,0,1,5.04,5.04Z"/><path class="g" d="M1225.114,5314.9a5.04,5.04,0,1,1-5.04-5.04,5.039,5.039,0,0,1,5.04,5.04Z"/><path class="g" d="M1227.514,5297.379a5.04,5.04,0,1,1-5.04-5.04,5.04,5.04,0,0,1,5.04,5.04Z"/><path class="g" d="M1229.914,5280.819a5.04,5.04,0,1,1-5.04-5.04,5.04,5.04,0,0,1,5.04,5.04Z"/><path class="g" d="M1232.314,5265.219a5.04,5.04,0,1,1-5.04-5.04,5.04,5.04,0,0,1,5.04,5.04Z"/><path class="g" d="M1234.714,5250.819a5.04,5.04,0,1,1-5.04-5.04,5.04,5.04,0,0,1,5.04,5.04Z"/><path class="g" d="M1237.354,5237.859a5.04,5.04,0,1,1-5.04-5.04,5.04,5.04,0,0,1,5.04,5.04Z"/><path class="g" d="M1239.754,5226.819a5.04,5.04,0,1,1-5.04-5.04,5.04,5.04,0,0,1,5.04,5.04Z"/><path class="g" d="M1242.154,5217.459a5.04,5.04,0,1,1-5.04-5.04,5.039,5.039,0,0,1,5.04,5.04Z"/><path class="g" d="M1244.554,5210.259a5.04,5.04,0,1,1-5.04-5.04,5.04,5.04,0,0,1,5.04,5.04Z"/><path class="g" d="M1246.954,5204.739a5.04,5.04,0,1,1-5.04-5.04,5.04,5.04,0,0,1,5.04,5.04Z"/><path class="g" d="M1249.354,5201.619a5.04,5.04,0,1,1-5.04-5.04,5.04,5.04,0,0,1,5.04,5.04Z"/><path class="g" d="M1251.754,5200.179a5.04,5.04,0,1,1-5.04-5.04,5.04,5.04,0,0,1,5.04,5.04Z"/><path class="g" d="M1254.154,5200.9a5.04,5.04,0,1,1-5.04-5.04,5.039,5.039,0,0,1,5.04,5.04Z"/><path class="g" d="M1256.554,5203.058a5.04,5.04,0,1,1-5.04-5.04,5.04,5.04,0,0,1,5.04,5.04Z"/><path class="g" d="M1259.194,5206.659a5.04,5.04,0,1,1-5.04-5.04,5.04,5.04,0,0,1,5.04,5.04Z"/><path class="g" d="M1261.594,5211.7a5.04,5.04,0,1,1-5.04-5.04,5.04,5.04,0,0,1,5.04,5.04Z"/><path class="g" d="M1263.994,5217.459a5.04,5.04,0,1,1-5.04-5.04,5.039,5.039,0,0,1,5.04,5.04Z"/><path class="g" d="M1266.394,5224.179a5.04,5.04,0,1,1-5.04-5.04,5.04,5.04,0,0,1,5.04,5.04Z"/><path class="g" d="M1268.794,5231.139a5.04,5.04,0,1,1-5.04-5.04,5.04,5.04,0,0,1,5.04,5.04Z"/><path class="g" d="M1271.194,5238.339a5.04,5.04,0,1,1-5.04-5.04,5.04,5.04,0,0,1,5.04,5.04Z"/><path class="g" d="M1273.594,5245.538a5.04,5.04,0,1,1-5.04-5.04,5.04,5.04,0,0,1,5.04,5.04Z"/><path class="g" d="M1275.994,5252.5a5.04,5.04,0,1,1-5.04-5.04,5.039,5.039,0,0,1,5.04,5.04Z"/><path class="g" d="M1278.634,5259.219a5.04,5.04,0,1,1-5.04-5.04,5.04,5.04,0,0,1,5.04,5.04Z"/><path class="g" d="M1281.034,5265.219a5.04,5.04,0,1,1-5.04-5.04,5.04,5.04,0,0,1,5.04,5.04Z"/><path class="g" d="M1283.434,5270.5a5.04,5.04,0,1,1-5.04-5.04,5.039,5.039,0,0,1,5.04,5.04Z"/><path class="g" d="M1285.834,5275.3a5.04,5.04,0,1,1-5.04-5.04,5.04,5.04,0,0,1,5.04,5.04Z"/><path class="g" d="M1288.234,5279.379a5.04,5.04,0,1,1-5.04-5.04,5.04,5.04,0,0,1,5.04,5.04Z"/><path class="g" d="M1290.634,5283.219a5.04,5.04,0,1,1-5.04-5.04,5.04,5.04,0,0,1,5.04,5.04Z"/><path class="g" d="M1293.034,5286.579a5.04,5.04,0,1,1-5.04-5.041,5.04,5.04,0,0,1,5.04,5.041Z"/><path class="g" d="M1295.434,5289.7a5.04,5.04,0,1,1-5.04-5.04,5.04,5.04,0,0,1,5.04,5.04Z"/><path class="g" d="M1298.074,5292.819a5.04,5.04,0,1,1-5.04-5.04,5.04,5.04,0,0,1,5.04,5.04Z"/><path class="c" d="M525.24,5673.511h869.52v-579.36H525.24v579.36Z"/><rect class="e" width="869.52" height="579.36" transform="translate(525.24 5094.15)"/><path class="c" d="M525.24,5673.511h869.52v-579.36H525.24v579.36Z"/><path class="h" d="M525.24,5094.391h869.52v579.36H525.24v-579.36Z"/><path class="c" d="M524.52,5674.47h870.96v-580.8H524.52v580.8Z"/></g></svg>