<svg id="Layer_2" data-name="Layer 2" xmlns="http://www.w3.org/2000/svg" viewBox="0 0 545.78 548.57"><defs><style>.cls-1{fill:#222b3e;}.cls-2,.cls-3,.cls-4{fill:none;stroke-miterlimit:10;}.cls-2,.cls-3{stroke:#222b3e;stroke-width:6px;}.cls-3{stroke-dasharray:20.55 20.55;}.cls-4{stroke:#d8383c;stroke-width:11px;}.cls-5{font-size:31.67px;}.cls-18,.cls-5{fill:#fff;font-family:IBMPlexSans-SemiBold, IBM Plex Sans;font-weight:600;}.cls-6{letter-spacing:-0.01em;}.cls-7{letter-spacing:0em;}.cls-8{letter-spacing:-0.01em;}.cls-9{letter-spacing:-0.01em;}.cls-10{letter-spacing:0em;}.cls-11{letter-spacing:0em;}.cls-12{letter-spacing:-0.01em;}.cls-13{letter-spacing:0em;}.cls-14{letter-spacing:-0.08em;}.cls-15{letter-spacing:-0.01em;}.cls-16{letter-spacing:0em;}.cls-17{letter-spacing:-0.02em;}.cls-18{font-size:59px;}.cls-19{letter-spacing:0em;}</style></defs><circle class="cls-1" cx="275.53" cy="273.03" r="256.72"/><path class="cls-2" d="M383.07,181.61q4.6-1.92,9.29-3.68" transform="translate(-211.68 -157.68)"/><path class="cls-3" d="M411.86,171.46a270,270,0,0,1,339,201" transform="translate(-211.68 -157.68)"/><path class="cls-2" d="M752.88,382.58q.89,4.92,1.61,9.87" transform="translate(-211.68 -157.68)"/><path class="cls-4" d="M490.35,700.73a268.77,268.77,0,0,1-133-33.33c-130.71-71.73-178.53-235.85-106.8-366.57" transform="translate(-211.68 -157.68)"/><text class="cls-5" transform="translate(37.07 288.73)">This <tspan class="cls-6" x="69.02" y="0">w</tspan><tspan x="94.67" y="0">ebsi</tspan><tspan class="cls-7" x="155.9" y="0">t</tspan><tspan x="167.61" y="0">e is be</tspan><tspan class="cls-8" x="261.46" y="0">s</tspan><tspan x="277.01" y="0">t </tspan><tspan class="cls-9" x="296.33" y="0">e</tspan><tspan x="313.53" y="0">xperien</tspan><tspan class="cls-10" x="424.93" y="0">c</tspan><tspan x="441.02" y="0">ed</tspan><tspan x="36.3" y="38.01">when vi</tspan><tspan class="cls-10" x="149.97" y="38.01">e</tspan><tspan class="cls-6" x="167.49" y="38.01">w</tspan><tspan x="193.14" y="38.01">ed on a b</tspan><tspan class="cls-11" x="325.41" y="38.01">r</tspan><tspan class="cls-12" x="337.7" y="38.01">o</tspan><tspan class="cls-13" x="355.25" y="38.01">w</tspan><tspan x="381.09" y="38.01">se</tspan><tspan class="cls-14" x="414.57" y="38.01">r</tspan><tspan x="424.49" y="38.01">. </tspan><tspan x="48.33" y="76.02">Please </tspan><tspan class="cls-10" x="154.28" y="76.02">c</tspan><tspan x="170.37" y="76.02">onsider </tspan><tspan class="cls-15" x="287.97" y="76.02">s</tspan><tspan x="303.46" y="76.02">wi</tspan><tspan class="cls-7" x="338.14" y="76.02">t</tspan><tspan class="cls-16" x="349.86" y="76.02">ching</tspan><tspan x="145.63" y="114.03">f</tspan><tspan class="cls-11" x="156.72" y="114.03">r</tspan><tspan x="169.01" y="114.03">om mobil</tspan><tspan class="cls-17" x="305.46" y="114.03">e</tspan><tspan x="322.62" y="114.03">.</tspan></text><text class="cls-18" transform="translate(166.15 149.66)">Vi<tspan class="cls-19" x="53.93" y="0">e</tspan><tspan x="86.55" y="0">wing</tspan><tspan x="-38.11" y="70.8">on Mobile?</tspan></text></svg>