<?xml version="1.0" encoding="utf-8"?>
<!-- Generator: Adobe Illustrator 25.2.1, SVG Export Plug-In . SVG Version: 6.00 Build 0)  -->
<svg version="1.1" id="Layer_2_1_" xmlns="http://www.w3.org/2000/svg" xmlns:xlink="http://www.w3.org/1999/xlink" x="0px" y="0px"
	 viewBox="0 0 545.8 548.6" style="enable-background:new 0 0 545.8 548.6;" xml:space="preserve">
<style type="text/css">
	.st0{fill:#222B3E;}
	.st1{fill:none;stroke:#222B3E;stroke-width:6;stroke-miterlimit:10;}
	.st2{fill:none;stroke:#222B3E;stroke-width:6;stroke-miterlimit:10;stroke-dasharray:20.55,20.55;}
	.st3{fill:none;stroke:#D8383C;stroke-width:11;stroke-miterlimit:10;}
	.st4{enable-background:new    ;}
	.st5{fill:#FFFFFF;}
</style>
<circle class="st0" cx="275.5" cy="273" r="256.7"/>
<path class="st1" d="M171.4,23.9c3.1-1.3,6.2-2.5,9.3-3.7"/>
<path class="st2" d="M200.2,13.8c143.2-41.6,293,40.7,334.6,183.9c1.6,5.6,3.1,11.3,4.4,17.1"/>
<path class="st1" d="M541.2,224.9c0.6,3.3,1.1,6.6,1.6,9.9"/>
<path class="st3" d="M278.7,543c-46.5,0.6-92.3-10.9-133-33.3C15,438-32.9,273.9,38.9,143.1"/>
<g class="st4">
	<path class="st5" d="M48.3,270.3v18.4h-4.2v-18.4h-6.3v-3.7h16.7v3.7H48.3z"/>
	<path class="st5" d="M57.8,265.3h4.1v9.7H62c0.7-1.8,2.1-3.1,4.6-3.1c3.4,0,5.3,2.3,5.3,6.5v10.5h-4.1v-10c0-2.3-0.8-3.5-2.7-3.5
		c-1.7,0-3.3,0.9-3.3,2.7v10.9h-4.1V265.3z"/>
	<path class="st5" d="M76.1,267.8v-0.6c0-1.2,0.7-2,2.4-2c1.6,0,2.4,0.9,2.4,2v0.6c0,1.2-0.7,2-2.4,2
		C76.8,269.8,76.1,268.9,76.1,267.8z M76.4,272.2h4.1v16.5h-4.1V272.2z"/>
	<path class="st5" d="M83.7,286.1l2.5-2.4c1.2,1.4,2.7,2.2,4.5,2.2c1.9,0,2.8-0.7,2.8-1.9c0-1-0.6-1.6-2-1.7l-1.6-0.2
		c-3.5-0.4-5.5-2-5.5-5c0-3.2,2.5-5.2,6.3-5.2c3.2,0,4.9,1,6.5,2.6l-2.4,2.4c-1-1-2.3-1.8-4-1.8c-1.7,0-2.5,0.7-2.5,1.7
		c0,1.1,0.6,1.6,2.2,1.9l1.7,0.2c3.6,0.5,5.4,2.1,5.4,4.9c0,3.2-2.7,5.4-6.8,5.4C87.4,289.1,85.4,288,83.7,286.1z"/>
</g>
<g class="st4">
	<path class="st5" d="M106.8,272.2h3.9l1.7,6.8l1.3,5.7h0.1l1.5-5.7l1.9-6.8h3.7l2,6.8l1.6,5.7h0.1l1.3-5.7l1.6-6.8h3.8l-4.5,16.5
		h-4.4l-2.1-7.3l-1.2-4.5H119l-1.2,4.5l-2.1,7.3h-4.3L106.8,272.2z"/>
</g>
<g class="st4">
	<path class="st5" d="M133,280.4c0-5.2,2.8-8.6,7.7-8.6c5.2,0,7.5,3.8,7.5,8.3v1.3h-11v0.4c0,2.4,1.4,4,4,4c2,0,3.2-1,4.2-2.2
		l2.2,2.4c-1.4,1.9-3.8,3-6.8,3C135.9,289.1,133,285.7,133,280.4z M137.2,278.7v0.3h6.8v-0.3c0-2.3-1.2-3.8-3.3-3.8
		C138.6,274.9,137.2,276.4,137.2,278.7z"/>
	<path class="st5" d="M151.8,265.3h4.1v9.6h0.1c0.6-1.9,2.4-3.1,4.6-3.1c4.2,0,6.5,3.1,6.5,8.6c0,5.5-2.3,8.7-6.5,8.7
		c-2.2,0-3.9-1.3-4.6-3.1h-0.1v2.8h-4.1V265.3z M162.7,281.9V279c0-2.3-1.5-3.9-3.5-3.9c-1.9,0-3.4,1-3.4,2.7v5.3
		c0,1.7,1.5,2.7,3.4,2.7C161.3,285.8,162.7,284.2,162.7,281.9z"/>
	<path class="st5" d="M169.3,286.1l2.5-2.4c1.2,1.4,2.7,2.2,4.5,2.2c1.9,0,2.8-0.7,2.8-1.9c0-1-0.6-1.6-2-1.7l-1.6-0.2
		c-3.5-0.4-5.5-2-5.5-5c0-3.2,2.5-5.2,6.3-5.2c3.2,0,4.9,1,6.5,2.6l-2.4,2.4c-1-1-2.3-1.8-4-1.8c-1.7,0-2.5,0.7-2.5,1.7
		c0,1.1,0.6,1.6,2.2,1.9l1.7,0.2c3.6,0.5,5.4,2.1,5.4,4.9c0,3.2-2.7,5.4-6.8,5.4C173,289.1,171,288,169.3,286.1z"/>
	<path class="st5" d="M186.2,267.8v-0.6c0-1.2,0.7-2,2.4-2c1.6,0,2.4,0.9,2.4,2v0.6c0,1.2-0.7,2-2.4,2
		C186.9,269.8,186.2,268.9,186.2,267.8z M186.6,272.2h4.1v16.5h-4.1V272.2z"/>
</g>
<g class="st4">
	<path class="st5" d="M196.2,284.5v-9.1h-2.4v-3.2h1.3c1.2,0,1.6-0.6,1.6-1.7v-2.8h3.6v4.5h3.4v3.2h-3.4v10.1h3.1v3.2h-2.9
		C197.7,288.7,196.2,287.2,196.2,284.5z"/>
</g>
<g class="st4">
	<path class="st5" d="M205.9,280.4c0-5.2,2.8-8.6,7.7-8.6c5.2,0,7.5,3.8,7.5,8.3v1.3h-11v0.4c0,2.4,1.4,4,4,4c2,0,3.2-1,4.2-2.2
		l2.2,2.4c-1.4,1.9-3.8,3-6.8,3C208.8,289.1,205.9,285.7,205.9,280.4z M210.1,278.7v0.3h6.8v-0.3c0-2.3-1.2-3.8-3.3-3.8
		C211.5,274.9,210.1,276.4,210.1,278.7z"/>
	<path class="st5" d="M231.8,267.8v-0.6c0-1.2,0.7-2,2.4-2c1.6,0,2.4,0.9,2.4,2v0.6c0,1.2-0.7,2-2.4,2
		C232.5,269.8,231.8,268.9,231.8,267.8z M232.2,272.2h4.1v16.5h-4.1V272.2z"/>
	<path class="st5" d="M239.5,286.1l2.5-2.4c1.2,1.4,2.7,2.2,4.5,2.2c1.9,0,2.8-0.7,2.8-1.9c0-1-0.6-1.6-2-1.7l-1.6-0.2
		c-3.5-0.4-5.5-2-5.5-5c0-3.2,2.5-5.2,6.3-5.2c3.2,0,4.9,1,6.5,2.6l-2.4,2.4c-1-1-2.3-1.8-4-1.8c-1.7,0-2.5,0.7-2.5,1.7
		c0,1.1,0.6,1.6,2.2,1.9l1.7,0.2c3.6,0.5,5.4,2.1,5.4,4.9c0,3.2-2.7,5.4-6.8,5.4C243.2,289.1,241.1,288,239.5,286.1z"/>
	<path class="st5" d="M264.2,265.3h4.1v9.6h0.1c0.6-1.9,2.4-3.1,4.6-3.1c4.2,0,6.5,3.1,6.5,8.6c0,5.5-2.3,8.7-6.5,8.7
		c-2.2,0-3.9-1.3-4.6-3.1h-0.1v2.8h-4.1V265.3z M275.2,281.9V279c0-2.3-1.5-3.9-3.5-3.9c-1.9,0-3.4,1-3.4,2.7v5.3
		c0,1.7,1.5,2.7,3.4,2.7C273.7,285.8,275.2,284.2,275.2,281.9z"/>
	<path class="st5" d="M282.1,280.4c0-5.2,2.8-8.6,7.7-8.6c5.2,0,7.5,3.8,7.5,8.3v1.3h-11v0.4c0,2.4,1.4,4,4,4c2,0,3.2-1,4.2-2.2
		l2.2,2.4c-1.4,1.9-3.8,3-6.8,3C285,289.1,282.1,285.7,282.1,280.4z M286.3,278.7v0.3h6.8v-0.3c0-2.3-1.2-3.8-3.3-3.8
		C287.7,274.9,286.3,276.4,286.3,278.7z"/>
</g>
<g class="st4">
	<path class="st5" d="M299.4,286.1l2.5-2.4c1.2,1.4,2.7,2.2,4.5,2.2c1.9,0,2.8-0.7,2.8-1.9c0-1-0.6-1.6-2-1.7l-1.6-0.2
		c-3.5-0.4-5.5-2-5.5-5c0-3.2,2.5-5.2,6.3-5.2c3.2,0,4.9,1,6.5,2.6l-2.4,2.4c-1-1-2.3-1.8-4-1.8c-1.7,0-2.5,0.7-2.5,1.7
		c0,1.1,0.6,1.6,2.2,1.9l1.7,0.2c3.6,0.5,5.4,2.1,5.4,4.9c0,3.2-2.7,5.4-6.8,5.4C303.2,289.1,301.1,288,299.4,286.1z"/>
</g>
<g class="st4">
	<path class="st5" d="M317.3,284.5v-9.1h-2.4v-3.2h1.3c1.2,0,1.6-0.6,1.6-1.7v-2.8h3.6v4.5h3.4v3.2h-3.4v10.1h3.1v3.2h-2.9
		C318.8,288.7,317.3,287.2,317.3,284.5z"/>
</g>
<g class="st4">
	<path class="st5" d="M334.6,280.4c0-5.2,2.8-8.6,7.7-8.6c5.2,0,7.5,3.8,7.5,8.3v1.3h-11v0.4c0,2.4,1.4,4,4,4c2,0,3.2-1,4.2-2.2
		l2.2,2.4c-1.4,1.9-3.8,3-6.8,3C337.5,289.1,334.6,285.7,334.6,280.4z M338.8,278.7v0.3h6.8v-0.3c0-2.3-1.2-3.8-3.3-3.8
		C340.2,274.9,338.8,276.4,338.8,278.7z"/>
</g>
<g class="st4">
	<path class="st5" d="M356.8,280.3l-5.5-8.1h4.6l3.4,5.5h0.1l3.4-5.5h4.3l-5.6,8.2l5.6,8.3h-4.6l-3.5-5.7H359l-3.5,5.7h-4.3
		L356.8,280.3z"/>
	<path class="st5" d="M370.2,272.2h4.1v2.7h0.1c0.6-1.9,2.4-3.1,4.6-3.1c4.2,0,6.5,3.1,6.5,8.6c0,5.5-2.3,8.7-6.5,8.7
		c-2.2,0-3.9-1.3-4.6-3.1h-0.1v9.1h-4.1V272.2z M381.2,281.9V279c0-2.3-1.5-3.9-3.5-3.9c-1.9,0-3.4,1-3.4,2.7v5.3
		c0,1.7,1.5,2.7,3.4,2.7C379.7,285.8,381.2,284.2,381.2,281.9z"/>
	<path class="st5" d="M388.1,280.4c0-5.2,2.8-8.6,7.7-8.6c5.2,0,7.5,3.8,7.5,8.3v1.3h-11v0.4c0,2.4,1.4,4,4,4c2,0,3.2-1,4.2-2.2
		l2.2,2.4c-1.4,1.9-3.8,3-6.8,3C391,289.1,388.1,285.7,388.1,280.4z M392.3,278.7v0.3h6.8v-0.3c0-2.3-1.2-3.8-3.3-3.8
		C393.7,274.9,392.3,276.4,392.3,278.7z"/>
	<path class="st5" d="M406.8,288.7v-16.5h4.1v3.4h0.2c0.4-1.7,1.7-3.4,4.4-3.4h0.9v3.8H415c-2.7,0-4.1,0.8-4.1,2.6v10.1H406.8z"/>
	<path class="st5" d="M418.9,267.8v-0.6c0-1.2,0.7-2,2.4-2c1.6,0,2.4,0.9,2.4,2v0.6c0,1.2-0.7,2-2.4,2
		C419.6,269.8,418.9,268.9,418.9,267.8z M419.3,272.2h4.1v16.5h-4.1V272.2z"/>
	<path class="st5" d="M426.9,280.4c0-5.2,2.8-8.6,7.7-8.6c5.2,0,7.5,3.8,7.5,8.3v1.3h-11v0.4c0,2.4,1.4,4,4,4c2,0,3.2-1,4.2-2.2
		l2.2,2.4c-1.4,1.9-3.8,3-6.8,3C429.8,289.1,426.9,285.7,426.9,280.4z M431.1,278.7v0.3h6.8v-0.3c0-2.3-1.2-3.8-3.3-3.8
		C432.5,274.9,431.1,276.4,431.1,278.7z"/>
	<path class="st5" d="M445.7,288.7v-16.5h4.1v2.8h0.2c0.7-1.8,2.1-3.1,4.6-3.1c3.4,0,5.3,2.3,5.3,6.5v10.5h-4.1v-10
		c0-2.3-0.8-3.5-2.7-3.5c-1.7,0-3.3,0.9-3.3,2.7v10.9H445.7z"/>
</g>
<g class="st4">
	<path class="st5" d="M463.2,280.4c0-5.3,2.8-8.6,7.6-8.6c3.3,0,5.5,1.6,6.5,4.2l-3.3,1.5c-0.4-1.4-1.4-2.4-3.2-2.4
		c-2.2,0-3.4,1.6-3.4,3.9v3c0,2.3,1.1,3.9,3.4,3.9c1.9,0,2.9-1.1,3.5-2.6l3.1,1.5c-1.1,2.9-3.4,4.4-6.6,4.4
		C466,289.1,463.2,285.8,463.2,280.4z"/>
</g>
<g class="st4">
	<path class="st5" d="M479.3,280.4c0-5.2,2.8-8.6,7.7-8.6c5.2,0,7.5,3.8,7.5,8.3v1.3h-11v0.4c0,2.4,1.4,4,4,4c2,0,3.2-1,4.2-2.2
		l2.2,2.4c-1.4,1.9-3.8,3-6.8,3C482.2,289.1,479.3,285.7,479.3,280.4z M483.5,278.7v0.3h6.8v-0.3c0-2.3-1.2-3.8-3.3-3.8
		C484.9,274.9,483.5,276.4,483.5,278.7z"/>
	<path class="st5" d="M508.4,286h-0.2c-0.6,1.9-2.4,3.1-4.6,3.1c-4.1,0-6.5-3.1-6.5-8.7c0-5.5,2.3-8.6,6.5-8.6c2.2,0,4,1.2,4.6,3.1
		h0.2v-9.6h4.1v23.4h-4.1V286z M508.4,283.1v-5.3c0-1.6-1.5-2.7-3.4-2.7c-2.1,0-3.5,1.6-3.5,3.9v2.9c0,2.3,1.4,3.9,3.5,3.9
		C506.9,285.8,508.4,284.8,508.4,283.1z"/>
</g>
<g class="st4">
	<path class="st5" d="M74.1,310.2H78l1.7,6.8l1.3,5.7h0.1l1.5-5.7l1.9-6.8h3.7l2,6.8l1.6,5.7h0.1l1.3-5.7l1.6-6.8h3.8l-4.5,16.5
		h-4.4l-2.1-7.3l-1.2-4.5h-0.1l-1.2,4.5l-2.1,7.3h-4.3L74.1,310.2z"/>
	<path class="st5" d="M101.7,303.3h4.1v9.7h0.2c0.7-1.8,2.1-3.1,4.6-3.1c3.4,0,5.3,2.3,5.3,6.5v10.5h-4.1v-10c0-2.3-0.8-3.5-2.7-3.5
		c-1.7,0-3.3,0.9-3.3,2.7v10.9h-4.1V303.3z"/>
	<path class="st5" d="M119.2,318.4c0-5.2,2.8-8.6,7.7-8.6c5.2,0,7.5,3.8,7.5,8.3v1.3h-11v0.4c0,2.4,1.4,4,4,4c2,0,3.2-1,4.2-2.2
		l2.2,2.4c-1.4,1.9-3.8,3-6.8,3C122.1,327.1,119.2,323.7,119.2,318.4z M123.4,316.7v0.3h6.8v-0.3c0-2.3-1.2-3.8-3.3-3.8
		C124.8,312.9,123.4,314.4,123.4,316.7z"/>
	<path class="st5" d="M137.9,326.7v-16.5h4.1v2.8h0.2c0.7-1.8,2.1-3.1,4.6-3.1c3.4,0,5.3,2.3,5.3,6.5v10.5H148v-10
		c0-2.3-0.8-3.5-2.7-3.5c-1.7,0-3.3,0.9-3.3,2.7v10.9H137.9z"/>
	<path class="st5" d="M167.6,326.7l-5.5-16.5h4l2.3,7.1l1.6,5.9h0.2l1.6-5.9l2.2-7.1h3.9l-5.5,16.5H167.6z"/>
	<path class="st5" d="M180.3,305.8v-0.6c0-1.2,0.7-2,2.4-2c1.6,0,2.4,0.9,2.4,2v0.6c0,1.2-0.7,2-2.4,2
		C181,307.8,180.3,306.9,180.3,305.8z M180.6,310.2h4.1v16.5h-4.1V310.2z"/>
</g>
<g class="st4">
	<path class="st5" d="M188.3,318.4c0-5.2,2.8-8.6,7.7-8.6c5.2,0,7.5,3.8,7.5,8.3v1.3h-11v0.4c0,2.4,1.4,4,4,4c2,0,3.2-1,4.2-2.2
		l2.2,2.4c-1.4,1.9-3.8,3-6.8,3C191.2,327.1,188.3,323.7,188.3,318.4z M192.5,316.7v0.3h6.8v-0.3c0-2.3-1.2-3.8-3.3-3.8
		C193.9,312.9,192.5,314.4,192.5,316.7z"/>
</g>
<g class="st4">
	<path class="st5" d="M205.3,310.2h3.9l1.7,6.8l1.3,5.7h0.1l1.5-5.7l1.9-6.8h3.7l2,6.8l1.6,5.7h0.1l1.3-5.7l1.6-6.8h3.8l-4.5,16.5
		h-4.4l-2.1-7.3l-1.2-4.5h-0.1l-1.2,4.5l-2.1,7.3h-4.3L205.3,310.2z"/>
</g>
<g class="st4">
	<path class="st5" d="M231.4,318.4c0-5.2,2.8-8.6,7.7-8.6c5.2,0,7.5,3.8,7.5,8.3v1.3h-11v0.4c0,2.4,1.4,4,4,4c2,0,3.2-1,4.2-2.2
		l2.2,2.4c-1.4,1.9-3.8,3-6.8,3C234.4,327.1,231.4,323.7,231.4,318.4z M235.7,316.7v0.3h6.8v-0.3c0-2.3-1.2-3.8-3.3-3.8
		C237.1,312.9,235.7,314.4,235.7,316.7z"/>
	<path class="st5" d="M260.5,324h-0.2c-0.6,1.9-2.4,3.1-4.6,3.1c-4.1,0-6.5-3.1-6.5-8.7c0-5.5,2.3-8.6,6.5-8.6c2.2,0,4,1.2,4.6,3.1
		h0.2v-9.6h4.1v23.4h-4.1V324z M260.5,321.1v-5.3c0-1.6-1.5-2.7-3.4-2.7c-2.1,0-3.5,1.6-3.5,3.9v2.9c0,2.3,1.4,3.9,3.5,3.9
		C259,323.8,260.5,322.8,260.5,321.1z"/>
	<path class="st5" d="M275.6,318.4c0-5.3,2.9-8.6,7.7-8.6c4.8,0,7.7,3.3,7.7,8.6c0,5.3-2.9,8.7-7.7,8.7
		C278.5,327.1,275.6,323.8,275.6,318.4z M286.7,320v-3.1c0-2.5-1.3-3.8-3.5-3.8c-2.1,0-3.4,1.4-3.4,3.8v3.1c0,2.5,1.3,3.9,3.4,3.9
		C285.4,323.9,286.7,322.5,286.7,320z"/>
	<path class="st5" d="M294.5,326.7v-16.5h4.1v2.8h0.2c0.7-1.8,2.1-3.1,4.6-3.1c3.4,0,5.3,2.3,5.3,6.5v10.5h-4.1v-10
		c0-2.3-0.8-3.5-2.7-3.5c-1.7,0-3.3,0.9-3.3,2.7v10.9H294.5z"/>
	<path class="st5" d="M319.5,322.2c0-3.4,2.6-5.1,7.1-5.1h2.8V316c0-1.8-0.9-2.9-3.1-2.9c-1.9,0-3,1-3.8,2.1l-2.4-2.2
		c1.2-1.9,3.1-3.2,6.5-3.2c4.5,0,6.8,2.1,6.8,5.9v7.8h1.6v3.2h-2.2c-1.7,0-2.8-1.1-3.1-2.9h-0.2c-0.5,2.1-2.3,3.2-4.8,3.2
		C321.4,327.1,319.5,325.2,319.5,322.2z M329.3,321.8v-2.2h-2.6c-2.1,0-3.2,0.7-3.2,2v0.5c0,1.3,0.9,2,2.5,2
		C327.9,324.2,329.3,323.4,329.3,321.8z"/>
	<path class="st5" d="M345.8,303.3h4.1v9.6h0.1c0.6-1.9,2.4-3.1,4.6-3.1c4.2,0,6.5,3.1,6.5,8.6c0,5.5-2.3,8.7-6.5,8.7
		c-2.2,0-3.9-1.3-4.6-3.1h-0.1v2.8h-4.1V303.3z M356.8,319.9V317c0-2.3-1.5-3.9-3.5-3.9c-1.9,0-3.4,1-3.4,2.7v5.3
		c0,1.7,1.5,2.7,3.4,2.7C355.3,323.8,356.8,322.2,356.8,319.9z"/>
</g>
<g class="st4">
	<path class="st5" d="M364.8,326.7v-16.5h4.1v3.4h0.2c0.4-1.7,1.7-3.4,4.4-3.4h0.9v3.8H373c-2.7,0-4.1,0.8-4.1,2.6v10.1H364.8z"/>
</g>
<g class="st4">
	<path class="st5" d="M376,318.4c0-5.3,2.9-8.6,7.7-8.6c4.8,0,7.7,3.3,7.7,8.6c0,5.3-2.9,8.7-7.7,8.7C379,327.1,376,323.8,376,318.4
		z M387.1,320v-3.1c0-2.5-1.3-3.8-3.5-3.8c-2.1,0-3.4,1.4-3.4,3.8v3.1c0,2.5,1.3,3.9,3.4,3.9C385.8,323.9,387.1,322.5,387.1,320z"/>
</g>
<g class="st4">
	<path class="st5" d="M393,310.2h3.9l1.7,6.8l1.3,5.7h0.1l1.5-5.7l1.9-6.8h3.7l2,6.8l1.6,5.7h0.1l1.3-5.7l1.6-6.8h3.8l-4.5,16.5
		h-4.4l-2.1-7.3l-1.2-4.5h-0.1l-1.2,4.5l-2.1,7.3h-4.3L393,310.2z"/>
</g>
<g class="st4">
	<path class="st5" d="M419.1,324.1l2.5-2.4c1.2,1.4,2.7,2.2,4.5,2.2c1.9,0,2.8-0.7,2.8-1.9c0-1-0.6-1.6-2-1.7l-1.6-0.2
		c-3.5-0.4-5.5-2-5.5-5c0-3.2,2.5-5.2,6.3-5.2c3.2,0,4.9,1,6.5,2.6l-2.4,2.4c-1-1-2.3-1.8-4-1.8c-1.7,0-2.5,0.7-2.5,1.7
		c0,1.1,0.6,1.6,2.2,1.9l1.7,0.2c3.6,0.5,5.4,2.1,5.4,4.9c0,3.2-2.7,5.4-6.8,5.4C422.8,327.1,420.7,326,419.1,324.1z"/>
	<path class="st5" d="M435.2,318.4c0-5.2,2.8-8.6,7.7-8.6c5.2,0,7.5,3.8,7.5,8.3v1.3h-11v0.4c0,2.4,1.4,4,4,4c2,0,3.2-1,4.2-2.2
		l2.2,2.4c-1.4,1.9-3.8,3-6.8,3C438.1,327.1,435.2,323.7,435.2,318.4z M439.4,316.7v0.3h6.8v-0.3c0-2.3-1.2-3.8-3.3-3.8
		C440.8,312.9,439.4,314.4,439.4,316.7z"/>
</g>
<g class="st4">
	<path class="st5" d="M454,326.7v-16.5h4.1v3.4h0.2c0.4-1.7,1.7-3.4,4.4-3.4h0.9v3.8h-1.3c-2.7,0-4.1,0.8-4.1,2.6v10.1H454z"/>
</g>
<g class="st4">
	<path class="st5" d="M463.7,324.8v-0.6c0-1.4,0.8-2.3,2.5-2.3c1.7,0,2.5,1,2.5,2.3v0.6c0,1.3-0.8,2.3-2.5,2.3
		C464.6,327.1,463.7,326.1,463.7,324.8z"/>
</g>
<g class="st4">
	<path class="st5" d="M88,364.8v-22.1h9.9c4.1,0,6.6,2.8,6.6,6.8c0,4.1-2.5,6.8-6.6,6.8h-5.8v8.4H88z M92.2,352.7h5.4
		c1.6,0,2.6-0.9,2.6-2.5v-1.5c0-1.6-1-2.5-2.6-2.5h-5.4V352.7z"/>
	<path class="st5" d="M112.1,364.8c-2.8,0-4.1-1.5-4.1-4v-19.5h4.1v20.2h2.2v3.2H112.1z"/>
	<path class="st5" d="M116.2,356.5c0-5.2,2.8-8.6,7.7-8.6c5.2,0,7.5,3.8,7.5,8.3v1.3h-11v0.4c0,2.4,1.4,4,4,4c2,0,3.2-1,4.2-2.2
		l2.2,2.4c-1.4,1.9-3.8,3-6.8,3C119.2,365.1,116.2,361.7,116.2,356.5z M120.5,354.7v0.3h6.8v-0.3c0-2.3-1.2-3.8-3.3-3.8
		C121.9,350.9,120.5,352.5,120.5,354.7z"/>
	<path class="st5" d="M133.9,360.3c0-3.4,2.6-5.1,7.1-5.1h2.8V354c0-1.8-0.9-2.9-3.1-2.9c-1.9,0-3,1-3.8,2.1l-2.4-2.2
		c1.2-1.9,3.1-3.2,6.5-3.2c4.5,0,6.8,2.1,6.8,5.9v7.8h1.6v3.2h-2.2c-1.7,0-2.8-1.1-3.1-2.9h-0.2c-0.5,2.1-2.3,3.2-4.8,3.2
		C135.8,365.1,133.9,363.2,133.9,360.3z M143.7,359.8v-2.2h-2.6c-2.1,0-3.2,0.7-3.2,2v0.5c0,1.3,0.9,2,2.5,2
		C142.3,362.2,143.7,361.4,143.7,359.8z"/>
	<path class="st5" d="M151.3,362.1l2.5-2.4c1.2,1.4,2.7,2.2,4.5,2.2c1.9,0,2.8-0.7,2.8-1.9c0-1-0.6-1.6-2-1.7l-1.6-0.2
		c-3.5-0.4-5.5-2-5.5-5c0-3.2,2.5-5.2,6.3-5.2c3.2,0,4.9,1,6.5,2.6l-2.4,2.4c-1-1-2.3-1.8-4-1.8c-1.7,0-2.5,0.7-2.5,1.7
		c0,1.1,0.6,1.6,2.2,1.9l1.7,0.2c3.6,0.5,5.4,2.1,5.4,4.9c0,3.2-2.7,5.4-6.8,5.4C155,365.1,153,364,151.3,362.1z"/>
	<path class="st5" d="M167.4,356.5c0-5.2,2.8-8.6,7.7-8.6c5.2,0,7.5,3.8,7.5,8.3v1.3h-11v0.4c0,2.4,1.4,4,4,4c2,0,3.2-1,4.2-2.2
		l2.2,2.4c-1.4,1.9-3.8,3-6.8,3C170.3,365.1,167.4,361.7,167.4,356.5z M171.6,354.7v0.3h6.8v-0.3c0-2.3-1.2-3.8-3.3-3.8
		C173,350.9,171.6,352.5,171.6,354.7z"/>
</g>
<g class="st4">
	<path class="st5" d="M192.6,356.5c0-5.3,2.8-8.6,7.6-8.6c3.3,0,5.5,1.6,6.5,4.2l-3.3,1.5c-0.4-1.4-1.4-2.4-3.2-2.4
		c-2.2,0-3.4,1.6-3.4,3.9v3c0,2.3,1.1,3.9,3.4,3.9c1.9,0,2.9-1.1,3.5-2.6l3.1,1.5c-1.1,2.9-3.4,4.4-6.6,4.4
		C195.3,365.1,192.6,361.8,192.6,356.5z"/>
</g>
<g class="st4">
	<path class="st5" d="M208.7,356.5c0-5.3,2.9-8.6,7.7-8.6c4.8,0,7.7,3.3,7.7,8.6c0,5.3-2.9,8.7-7.7,8.7
		C211.6,365.1,208.7,361.8,208.7,356.5z M219.8,358v-3.1c0-2.5-1.3-3.8-3.5-3.8c-2.1,0-3.4,1.4-3.4,3.8v3.1c0,2.5,1.3,3.9,3.4,3.9
		C218.5,361.9,219.8,360.5,219.8,358z"/>
	<path class="st5" d="M227.6,364.8v-16.5h4.1v2.8h0.2c0.7-1.8,2.1-3.1,4.6-3.1c3.4,0,5.3,2.3,5.3,6.5v10.5h-4.1v-10
		c0-2.3-0.8-3.5-2.7-3.5c-1.7,0-3.3,0.9-3.3,2.7v10.9H227.6z"/>
	<path class="st5" d="M244.8,362.1l2.5-2.4c1.2,1.4,2.7,2.2,4.5,2.2c1.9,0,2.8-0.7,2.8-1.9c0-1-0.6-1.6-2-1.7l-1.6-0.2
		c-3.5-0.4-5.5-2-5.5-5c0-3.2,2.5-5.2,6.3-5.2c3.2,0,4.9,1,6.5,2.6l-2.4,2.4c-1-1-2.3-1.8-4-1.8c-1.7,0-2.5,0.7-2.5,1.7
		c0,1.1,0.6,1.6,2.2,1.9l1.7,0.2c3.6,0.5,5.4,2.1,5.4,4.9c0,3.2-2.7,5.4-6.8,5.4C248.5,365.1,246.5,364,244.8,362.1z"/>
	<path class="st5" d="M261.7,343.8v-0.6c0-1.2,0.7-2,2.4-2c1.6,0,2.4,0.9,2.4,2v0.6c0,1.2-0.7,2-2.4,2
		C262.4,345.8,261.7,345,261.7,343.8z M262,348.2h4.1v16.5H262V348.2z"/>
	<path class="st5" d="M281,362h-0.2c-0.6,1.9-2.4,3.1-4.6,3.1c-4.2,0-6.5-3.1-6.5-8.7c0-5.5,2.3-8.6,6.5-8.6c2.2,0,4,1.2,4.6,3.1
		h0.2v-9.6h4.1v23.4H281V362z M281,359.1v-5.3c0-1.6-1.5-2.7-3.4-2.7c-2.1,0-3.5,1.6-3.5,3.9v2.9c0,2.3,1.4,3.9,3.5,3.9
		C279.6,361.8,281,360.8,281,359.1z"/>
	<path class="st5" d="M288.7,356.5c0-5.2,2.8-8.6,7.7-8.6c5.2,0,7.5,3.8,7.5,8.3v1.3h-11v0.4c0,2.4,1.4,4,4,4c2,0,3.2-1,4.2-2.2
		l2.2,2.4c-1.4,1.9-3.8,3-6.8,3C291.6,365.1,288.7,361.7,288.7,356.5z M292.9,354.7v0.3h6.8v-0.3c0-2.3-1.2-3.8-3.3-3.8
		C294.3,350.9,292.9,352.5,292.9,354.7z"/>
	<path class="st5" d="M307.5,364.8v-16.5h4.1v3.4h0.2c0.4-1.7,1.7-3.4,4.4-3.4h0.9v3.8h-1.3c-2.7,0-4.1,0.8-4.1,2.6v10.1H307.5z"/>
</g>
<g class="st4">
	<path class="st5" d="M326,362.1l2.5-2.4c1.2,1.4,2.7,2.2,4.5,2.2c1.9,0,2.8-0.7,2.8-1.9c0-1-0.6-1.6-2-1.7l-1.6-0.2
		c-3.5-0.4-5.5-2-5.5-5c0-3.2,2.5-5.2,6.3-5.2c3.2,0,4.9,1,6.5,2.6l-2.4,2.4c-1-1-2.3-1.8-4-1.8c-1.7,0-2.5,0.7-2.5,1.7
		c0,1.1,0.6,1.6,2.2,1.9l1.7,0.2c3.6,0.5,5.4,2.1,5.4,4.9c0,3.2-2.7,5.4-6.8,5.4C329.7,365.1,327.6,364,326,362.1z"/>
</g>
<g class="st4">
	<path class="st5" d="M341.3,348.2h3.9l1.7,6.8l1.3,5.7h0.1l1.5-5.7l1.9-6.8h3.7l2,6.8l1.6,5.7h0.1l1.3-5.7l1.6-6.8h3.8l-4.5,16.5
		h-4.4l-2.1-7.3l-1.2-4.5h-0.1l-1.2,4.5l-2.1,7.3h-4.3L341.3,348.2z"/>
	<path class="st5" d="M368.5,343.8v-0.6c0-1.2,0.7-2,2.4-2c1.6,0,2.4,0.9,2.4,2v0.6c0,1.2-0.7,2-2.4,2
		C369.2,345.8,368.5,345,368.5,343.8z M368.8,348.2h4.1v16.5h-4.1V348.2z"/>
</g>
<g class="st4">
	<path class="st5" d="M378.4,360.5v-9.1H376v-3.2h1.3c1.2,0,1.6-0.6,1.6-1.7v-2.8h3.6v4.5h3.4v3.2h-3.4v10.1h3.1v3.2h-2.9
		C379.9,364.8,378.4,363.2,378.4,360.5z"/>
</g>
<g class="st4">
	<path class="st5" d="M388.2,356.5c0-5.3,2.8-8.6,7.6-8.6c3.3,0,5.5,1.6,6.5,4.2l-3.3,1.5c-0.4-1.4-1.4-2.4-3.2-2.4
		c-2.2,0-3.4,1.6-3.4,3.9v3c0,2.3,1.1,3.9,3.4,3.9c1.9,0,2.9-1.1,3.5-2.6l3.1,1.5c-1.1,2.9-3.4,4.4-6.6,4.4
		C390.9,365.1,388.2,361.8,388.2,356.5z"/>
	<path class="st5" d="M405.5,341.3h4.1v9.7h0.2c0.7-1.8,2.1-3.1,4.6-3.1c3.4,0,5.3,2.3,5.3,6.5v10.5h-4.1v-10c0-2.3-0.8-3.5-2.7-3.5
		c-1.7,0-3.3,0.9-3.3,2.7v10.9h-4.1V341.3z"/>
	<path class="st5" d="M423.8,343.8v-0.6c0-1.2,0.7-2,2.4-2c1.6,0,2.4,0.9,2.4,2v0.6c0,1.2-0.7,2-2.4,2
		C424.5,345.8,423.8,345,423.8,343.8z M424.1,348.2h4.1v16.5h-4.1V348.2z"/>
	<path class="st5" d="M432.9,364.8v-16.5h4.1v2.8h0.2c0.7-1.8,2.1-3.1,4.6-3.1c3.4,0,5.3,2.3,5.3,6.5v10.5H443v-10
		c0-2.3-0.8-3.5-2.7-3.5c-1.7,0-3.3,0.9-3.3,2.7v10.9H432.9z"/>
	<path class="st5" d="M457.7,371.5c-5.6,0-7.7-1.5-7.7-3.9c0-1.8,1.1-2.9,2.9-3.2v-0.3c-1.4-0.3-2.1-1.4-2.1-2.8
		c0-1.7,1.5-2.6,3-2.9v-0.1c-2-0.9-3-2.6-3-4.8c0-3.4,2.4-5.6,6.8-5.6c1,0,2.1,0.1,2.9,0.4v-0.5c0-1.6,0.8-2.4,2.3-2.4h2.6v3.1H462
		v0.4c1.7,1,2.6,2.6,2.6,4.6c0,3.3-2.3,5.5-6.8,5.5c-1,0-1.8-0.1-2.5-0.3c-0.6,0.3-1.2,0.8-1.2,1.5c0,0.8,0.7,1.2,2.2,1.2h4.4
		c4.1,0,5.8,1.7,5.8,4.7C466.4,369.6,464.1,371.5,457.7,371.5z M459.8,364.9h-5.6c-0.6,0.4-0.9,1-0.9,1.7c0,1.3,1,2,3.5,2h2
		c2.6,0,3.8-0.7,3.8-2.1C462.6,365.6,461.9,364.9,459.8,364.9z M460.7,353.7v-0.5c0-1.7-1-2.5-3-2.5c-1.9,0-3,0.9-3,2.5v0.5
		c0,1.6,1,2.5,3,2.5C459.7,356.2,460.7,355.3,460.7,353.7z"/>
</g>
<g class="st4">
	<path class="st5" d="M185.9,389.4h-2.4v-3.2h2.4v-2.4c0-2.9,1.6-4.5,4.6-4.5h2.9v3.2h-3.4v3.7h3.4v3.2h-3.4v13.3h-4.1V389.4z"/>
</g>
<g class="st4">
	<path class="st5" d="M196.1,402.8v-16.5h4.1v3.4h0.2c0.4-1.7,1.7-3.4,4.4-3.4h0.9v3.8h-1.3c-2.7,0-4.1,0.8-4.1,2.6v10.1H196.1z"/>
</g>
<g class="st4">
	<path class="st5" d="M207.3,394.5c0-5.3,2.9-8.6,7.7-8.6c4.8,0,7.7,3.3,7.7,8.6c0,5.3-2.9,8.7-7.7,8.7
		C210.3,403.1,207.3,399.8,207.3,394.5z M218.4,396v-3.1c0-2.5-1.3-3.8-3.5-3.8c-2.1,0-3.4,1.4-3.4,3.8v3.1c0,2.5,1.3,3.9,3.4,3.9
		C217.1,399.9,218.4,398.5,218.4,396z"/>
	<path class="st5" d="M226.3,402.8v-16.5h4.1v2.8h0.2c0.6-1.7,2-3.1,4.4-3.1c2.2,0,4,1.1,4.8,3.3h0.1c0.6-1.8,2.4-3.3,5.1-3.3
		c3.2,0,5.1,2.3,5.1,6.5v10.5h-4.1v-10c0-2.4-0.9-3.5-2.7-3.5c-1.6,0-3.1,0.9-3.1,2.7v10.9H236v-10c0-2.4-0.9-3.5-2.7-3.5
		c-1.6,0-3.1,0.9-3.1,2.7v10.9H226.3z"/>
	<path class="st5" d="M261.9,402.8v-16.5h4.1v2.8h0.2c0.6-1.7,2-3.1,4.4-3.1c2.2,0,4,1.1,4.8,3.3h0.1c0.6-1.8,2.4-3.3,5.1-3.3
		c3.2,0,5.1,2.3,5.1,6.5v10.5h-4.1v-10c0-2.4-0.9-3.5-2.7-3.5c-1.6,0-3.1,0.9-3.1,2.7v10.9h-4.1v-10c0-2.4-0.9-3.5-2.7-3.5
		c-1.6,0-3.1,0.9-3.1,2.7v10.9H261.9z"/>
	<path class="st5" d="M288.9,394.5c0-5.3,2.9-8.6,7.7-8.6c4.8,0,7.7,3.3,7.7,8.6c0,5.3-2.9,8.7-7.7,8.7
		C291.8,403.1,288.9,399.8,288.9,394.5z M300,396v-3.1c0-2.5-1.3-3.8-3.5-3.8c-2.1,0-3.4,1.4-3.4,3.8v3.1c0,2.5,1.3,3.9,3.4,3.9
		C298.7,399.9,300,398.5,300,396z"/>
	<path class="st5" d="M307.8,379.3h4.1v9.6h0.1c0.6-1.9,2.4-3.1,4.6-3.1c4.2,0,6.5,3.1,6.5,8.6c0,5.5-2.3,8.7-6.5,8.7
		c-2.2,0-3.9-1.3-4.6-3.1h-0.1v2.8h-4.1V379.3z M318.8,395.9v-2.9c0-2.3-1.5-3.9-3.5-3.9c-1.9,0-3.4,1-3.4,2.7v5.3
		c0,1.7,1.5,2.7,3.4,2.7C317.3,399.8,318.8,398.3,318.8,395.9z"/>
	<path class="st5" d="M326.5,381.8v-0.6c0-1.2,0.7-2,2.4-2c1.6,0,2.4,0.9,2.4,2v0.6c0,1.2-0.7,2-2.4,2
		C327.2,383.8,326.5,383,326.5,381.8z M326.8,386.2h4.1v16.5h-4.1V386.2z"/>
	<path class="st5" d="M339.6,402.8c-2.8,0-4.1-1.5-4.1-4v-19.5h4.1v20.2h2.2v3.2H339.6z"/>
</g>
<g class="st4">
	<path class="st5" d="M343.8,394.5c0-5.2,2.8-8.6,7.7-8.6c5.2,0,7.5,3.8,7.5,8.3v1.3h-11v0.4c0,2.4,1.4,4,4,4c2,0,3.2-1,4.2-2.2
		l2.2,2.4c-1.4,1.9-3.8,3-6.8,3C346.7,403.1,343.8,399.8,343.8,394.5z M348,392.8v0.3h6.8v-0.3c0-2.3-1.2-3.8-3.3-3.8
		C349.4,388.9,348,390.5,348,392.8z"/>
</g>
<g class="st4">
	<path class="st5" d="M361.9,400.8v-0.6c0-1.4,0.8-2.3,2.5-2.3c1.7,0,2.5,1,2.5,2.3v0.6c0,1.3-0.8,2.3-2.5,2.3
		C362.7,403.1,361.9,402.1,361.9,400.8z"/>
</g>
<g class="st4">
	<path class="st5" d="M180.5,149.7l-13.5-41.2h8l6.3,20.1l3.7,13.7h0.2l3.6-13.7l6.3-20.1h7.7l-13.5,41.2H180.5z"/>
	<path class="st5" d="M207.5,110.6v-1.2c0-2.2,1.3-3.8,4.4-3.8c3.1,0,4.4,1.6,4.4,3.8v1.2c0,2.2-1.4,3.8-4.4,3.8
		C208.8,114.4,207.5,112.8,207.5,110.6z M208.2,118.9h7.6v30.8h-7.6V118.9z"/>
</g>
<g class="st4">
	<path class="st5" d="M222.4,134.2c0-9.7,5.3-16,14.3-16c9.6,0,14,7.1,14,15.5v2.5h-20.5v0.8c0,4.4,2.5,7.4,7.5,7.4
		c3.7,0,6-1.8,7.8-4.2l4.1,4.5c-2.5,3.5-7,5.7-12.7,5.7C227.8,150.4,222.4,144.1,222.4,134.2z M230.2,131v0.5h12.6V131
		c0-4.2-2.2-7.1-6.1-7.1C232.8,123.8,230.2,126.8,230.2,131z"/>
</g>
<g class="st4">
	<path class="st5" d="M254.1,118.9h7.3l3.1,12.7l2.4,10.6h0.2l2.8-10.6l3.6-12.7h6.8l3.7,12.7l2.9,10.6h0.2l2.4-10.6l3.1-12.7h7
		l-8.4,30.8h-8.1l-4-13.6l-2.3-8.4h-0.2l-2.2,8.4l-3.9,13.6h-8L254.1,118.9z"/>
	<path class="st5" d="M304.7,110.6v-1.2c0-2.2,1.3-3.8,4.4-3.8c3.1,0,4.4,1.6,4.4,3.8v1.2c0,2.2-1.4,3.8-4.4,3.8
		C306,114.4,304.7,112.8,304.7,110.6z M305.4,118.9h7.6v30.8h-7.6V118.9z"/>
	<path class="st5" d="M321.7,149.7v-30.8h7.6v5.1h0.3c1.2-3.3,3.8-5.8,8.6-5.8c6.3,0,9.9,4.4,9.9,12v19.5h-7.6V131
		c0-4.4-1.5-6.6-5.1-6.6c-3.1,0-6.1,1.7-6.1,5v20.4H321.7z"/>
	<path class="st5" d="M368,162.2c-10.4,0-14.3-2.7-14.3-7.3c0-3.4,2.1-5.4,5.5-5.9v-0.6c-2.5-0.6-4-2.7-4-5.1c0-3.2,2.7-4.8,5.7-5.4
		v-0.2c-3.7-1.7-5.6-4.9-5.6-9c0-6.3,4.4-10.4,12.7-10.4c1.9,0,3.8,0.2,5.4,0.8v-1c0-3,1.5-4.5,4.4-4.5h4.8v5.8H376v0.8
		c3.2,1.8,4.8,4.8,4.8,8.6c0,6.2-4.4,10.3-12.7,10.3c-1.8,0-3.4-0.2-4.7-0.5c-1.2,0.5-2.2,1.4-2.2,2.8c0,1.5,1.3,2.3,4,2.3h8.3
		c7.6,0,10.8,3.2,10.8,8.8C384.2,158.7,379.8,162.2,368,162.2z M371.8,150h-10.5c-1.1,0.8-1.6,1.9-1.6,3.2c0,2.4,1.8,3.8,6.5,3.8
		h3.8c4.9,0,7.1-1.2,7.1-3.8C377.1,151.2,375.7,150,371.8,150z M373.5,129.1v-1c0-3.1-1.9-4.7-5.5-4.7s-5.5,1.6-5.5,4.7v1
		c0,3.1,1.9,4.7,5.5,4.7S373.5,132.1,373.5,129.1z"/>
</g>
<g class="st4">
	<path class="st5" d="M130.3,205c0-9.9,5.5-16,14.3-16c8.9,0,14.3,6.2,14.3,16c0,9.9-5.5,16.2-14.3,16.2
		C135.8,221.2,130.3,214.9,130.3,205z M151.1,207.9v-5.7c0-4.6-2.5-7.1-6.4-7.1c-3.9,0-6.4,2.5-6.4,7.1v5.7c0,4.7,2.5,7.2,6.4,7.2
		C148.6,215.1,151.1,212.6,151.1,207.9z"/>
	<path class="st5" d="M165.6,220.5v-30.8h7.6v5.1h0.3c1.2-3.3,3.8-5.8,8.6-5.8c6.3,0,9.9,4.4,9.9,12v19.5h-7.6v-18.7
		c0-4.4-1.5-6.6-5.1-6.6c-3.1,0-6.1,1.7-6.1,5v20.4H165.6z"/>
	<path class="st5" d="M214.7,179.3h8.8l10.6,20.1h0.2l10.4-20.1h8.4v41.2h-7.4v-29.6h-0.2l-3.2,6.5l-8.4,15.6l-8.4-15.6l-3.2-6.5
		h-0.2v29.6h-7.4V179.3z"/>
	<path class="st5" d="M260.3,205c0-9.9,5.5-16,14.3-16c8.9,0,14.3,6.2,14.3,16c0,9.9-5.5,16.2-14.3,16.2
		C265.8,221.2,260.3,214.9,260.3,205z M281,207.9v-5.7c0-4.6-2.5-7.1-6.4-7.1c-3.9,0-6.4,2.5-6.4,7.1v5.7c0,4.7,2.5,7.2,6.4,7.2
		C278.5,215.1,281,212.6,281,207.9z"/>
	<path class="st5" d="M295.6,176.8h7.6v17.9h0.2c1.1-3.5,4.4-5.8,8.5-5.8c7.8,0,12.1,5.8,12.1,16c0,10.3-4.3,16.2-12.1,16.2
		c-4.1,0-7.3-2.4-8.5-5.8h-0.2v5.1h-7.6V176.8z M316.1,207.7v-5.3c0-4.4-2.7-7.3-6.6-7.3c-3.6,0-6.3,1.9-6.3,5v9.8
		c0,3.2,2.7,5,6.3,5C313.4,214.9,316.1,212.1,316.1,207.7z"/>
	<path class="st5" d="M330.3,181.4v-1.2c0-2.2,1.3-3.8,4.4-3.8c3.1,0,4.4,1.6,4.4,3.8v1.2c0,2.2-1.4,3.8-4.4,3.8
		C331.6,185.2,330.3,183.6,330.3,181.4z M331,189.7h7.6v30.8H331V189.7z"/>
	<path class="st5" d="M354.8,220.5c-5.1,0-7.6-2.7-7.6-7.4v-36.2h7.6v37.6h4.1v6H354.8z"/>
	<path class="st5" d="M362.6,205c0-9.7,5.3-16,14.3-16c9.6,0,14,7.1,14,15.5v2.5h-20.5v0.8c0,4.4,2.5,7.4,7.5,7.4
		c3.7,0,6-1.8,7.8-4.2l4.1,4.5c-2.5,3.5-7,5.7-12.7,5.7C368,221.2,362.6,214.9,362.6,205z M370.4,201.8v0.5H383v-0.5
		c0-4.2-2.2-7.1-6.1-7.1C373,194.6,370.4,197.6,370.4,201.8z"/>
	<path class="st5" d="M402.9,207.1v-9.2c6.3-0.2,9.6-2.3,9.6-6.8v-0.8c0-3.3-2.2-5.2-5.4-5.2c-3.5,0-5.7,2.4-6.5,5.6l-6.3-2.6
		c1.4-4.8,5.3-9.5,13.2-9.5c8,0,13.2,4.8,13.2,11.9c0,6.9-5,10.9-10.4,11.9v4.8H402.9z M401.8,217v-1.2c0-2.4,1.4-4.2,4.7-4.2
		c3.4,0,4.8,1.8,4.8,4.2v1.2c0,2.4-1.4,4.2-4.8,4.2C403.2,221.2,401.8,219.4,401.8,217z"/>
</g>
</svg>
