<svg xmlns="http://www.w3.org/2000/svg" width="150px" height="100%" viewBox="0 0 117.135 56.252">
  <g id="Group_146" data-name="Group 146" transform="translate(-192.271 -8276.831)">
    <rect id="Rectangle_27" data-name="Rectangle 27" width="117.135" height="38.401" transform="translate(192.271 8276.831)" fill="#d8383c"/>
    <rect id="Rectangle_28" data-name="Rectangle 28" width="117.135" height="16.255" transform="translate(192.271 8316.828)" fill="#f9a431"/>
    <g id="Group_143" data-name="Group 143">
      <g id="Group_142" data-name="Group 142">
        <path id="Path_527" data-name="Path 527" d="M199.478,8329.3a.118.118,0,0,1-.13-.12c-.09-.549-.183-1.088-.264-1.627h-1.548c-.026.132-.182,1.1-.259,1.627a.117.117,0,0,1-.126.12h-.6c-.088,0-.149-.082-.114-.223l1.287-7.709c.015-.091.059-.17.155-.17h.867c.085,0,.13.026.157.16l1.32,7.691c.026.1.01.25-.095.25Zm-1.417-5.082-.349,2.259h1.2l-.352-2.22-.248-1.639h-.024C198.218,8323.151,198.134,8323.676,198.061,8324.216Z" fill="#fff"/>
        <path id="Path_528" data-name="Path 528" d="M204.369,8329.3h-.384c-.127,0-.2-.043-.253-.2-.479-1.325-1.451-3.872-1.931-5.2l-.028.013v5.2c0,.13-.032.184-.12.184h-.57c-.087,0-.13-.054-.13-.173v-7.611c0-.212.026-.317.193-.317h.376c.147,0,.2.079.259.224l1.935,5.238.016-.012v-5.28c0-.117.036-.17.132-.17h.55c.09,0,.143.053.143.17v7.669C204.557,8329.244,204.459,8329.3,204.369,8329.3Z" fill="#fff"/>
        <path id="Path_529" data-name="Path 529" d="M208.31,8329.3a.124.124,0,0,1-.132-.12c-.085-.549-.18-1.088-.262-1.627h-1.547c-.025.132-.181,1.1-.262,1.627-.01.091-.061.12-.121.12h-.607c-.085,0-.146-.082-.112-.223l1.287-7.709c.017-.091.058-.17.158-.17h.862c.09,0,.135.026.161.16l1.322,7.691c.024.1,0,.25-.1.25Zm-1.416-5.082-.349,2.259h1.2l-.353-2.22-.244-1.639h-.026C207.052,8323.151,206.965,8323.676,206.894,8324.216Z" fill="#fff"/>
        <path id="Path_530" data-name="Path 530" d="M212.8,8329.3h-2.852c-.085,0-.129-.064-.129-.184v-7.748c0-.117.024-.17.119-.17h.6c.089,0,.125.053.125.16v6.813H212.8c.07,0,.111.053.111.169v.762C212.915,8329.233,212.881,8329.3,212.8,8329.3Z" fill="#fff"/>
        <path id="Path_531" data-name="Path 531" d="M214.163,8321.38l.893,3.429h.035c.236-.894.647-2.522.874-3.4.053-.159.09-.212.237-.212h.569c.146,0,.155.12.12.239l-1.346,4.673a.863.863,0,0,0-.052.327v2.664c0,.134-.043.2-.132.2h-.595c-.085,0-.131-.064-.131-.184v-2.706a.694.694,0,0,0-.043-.275l-1.345-4.685c-.034-.132-.026-.252.105-.252h.594C214.06,8321.2,214.122,8321.223,214.163,8321.38Z" fill="#fff"/>
        <path id="Path_532" data-name="Path 532" d="M220.56,8322.327h-1.208v6.787c0,.13-.031.184-.128.184h-.6c-.079,0-.13-.054-.13-.173l.009-6.8h-1.167c-.085,0-.12-.053-.12-.2v-.749c0-.118.035-.184.12-.184h3.227c.077,0,.116.065.116.17v.763C220.676,8322.247,220.65,8322.327,220.56,8322.327Z" fill="#fff"/>
        <path id="Path_533" data-name="Path 533" d="M222.237,8329.3h-.609c-.081,0-.133-.054-.133-.173v-7.745c0-.118.045-.184.133-.184h.609c.071,0,.132.053.132.17v7.748C222.369,8329.244,222.326,8329.3,222.237,8329.3Z" fill="#fff"/>
        <path id="Path_534" data-name="Path 534" d="M223.573,8327.105v-3.74c0-1.394.691-2.285,1.644-2.285a1.638,1.638,0,0,1,1.556,1.087.259.259,0,0,1-.034.315l-.4.474c-.07.079-.168.027-.21-.077a1.041,1.041,0,0,0-.883-.657c-.524,0-.8.513-.8,1.168v3.7c0,.646.3,1.144.827,1.144a1.145,1.145,0,0,0,.851-.617c.059-.107.113-.226.217-.119l.437.461a.273.273,0,0,1,.044.263,1.728,1.728,0,0,1-1.554,1.154C224.281,8329.376,223.573,8328.536,223.573,8327.105Z" fill="#fff"/>
        <path id="Path_535" data-name="Path 535" d="M228.992,8329.363a1.9,1.9,0,0,1-1.67-1,.254.254,0,0,1,.007-.339l.337-.517c.085-.13.138-.063.232.052a1.422,1.422,0,0,0,1.075.673c.649,0,1.016-.449,1.016-1.184,0-.8-.516-1.089-1.069-1.377a2.349,2.349,0,0,1-1.493-2.309c0-1.42.736-2.272,1.634-2.272a2,2,0,0,1,1.5.63c.114.133.07.223.018.354l-.218.567c-.053.13-.158.115-.245.049a1.63,1.63,0,0,0-.987-.471c-.455,0-.847.286-.847,1.154,0,.671.533.96.97,1.207a2.41,2.41,0,0,1,1.6,2.429C230.856,8328.481,230.068,8329.363,228.992,8329.363Z" fill="#fff"/>
        <path id="Path_536" data-name="Path 536" d="M236.647,8322.327h-2.064v2.256h1.748c.08,0,.121.051.121.186v.763c0,.119-.021.183-.121.183h-1.748c0,1.129.009,2.256.009,3.386,0,.134-.044.2-.125.2h-.6c-.079,0-.134-.064-.134-.184v-7.734c0-.118.044-.184.134-.184h2.778c.077,0,.133.065.133.17v.775C236.78,8322.261,236.734,8322.327,236.647,8322.327Z" fill="#fff"/>
        <path id="Path_537" data-name="Path 537" d="M239.16,8329.376c-.978,0-1.739-.829-1.739-2.309V8323.4c0-1.444.754-2.324,1.733-2.324.953,0,1.732.839,1.732,2.324v3.663C240.886,8328.509,240.151,8329.376,239.16,8329.376Zm.858-5.959c0-.669-.323-1.2-.858-1.2s-.873.526-.873,1.2v3.623c0,.7.315,1.194.867,1.194.535,0,.864-.484.864-1.194Z" fill="#fff"/>
        <path id="Path_538" data-name="Path 538" d="M244.607,8325.779c-.037.052-.037.144.01.277l.925,2.951c.053.17.007.29-.1.29h-.562c-.208,0-.252-.106-.306-.276l-.891-2.94h-.837c0,1.01.007,2.021.007,3.033,0,.13-.044.184-.132.184h-.6c-.087,0-.139-.054-.139-.173v-7.745c0-.118.045-.184.131-.184h1.637c1.065,0,1.634.88,1.634,2.312A3.754,3.754,0,0,1,244.607,8325.779Zm-1.765-3.452v2.636h.961c.391,0,.715-.812.715-1.506,0-.555-.207-1.13-.866-1.13Z" fill="#fff"/>
        <path id="Path_539" data-name="Path 539" d="M250.2,8329.3h-1.678c-.079,0-.131-.064-.131-.184v-7.734c0-.118.045-.184.131-.184h1.668c1.069,0,1.629.894,1.629,2.392v3.265C251.816,8328.416,251.245,8329.3,250.2,8329.3Zm.76-5.762c0-.855-.341-1.209-.854-1.209h-.85v5.842h.9c.542,0,.8-.472.8-1.236Z" fill="#fff"/>
        <path id="Path_540" data-name="Path 540" d="M255.9,8329.3h-2.909c-.078,0-.13-.064-.13-.184v-7.734c0-.118.042-.184.13-.184h2.871c.067,0,.12.065.12.184v.749c0,.118-.035.2-.12.2h-2.137v2.2H255.5c.087,0,.132.066.132.2v.744c0,.122-.045.2-.123.2h-1.784v2.5H255.9c.073,0,.125.053.125.184v.747C256.026,8329.233,255.983,8329.3,255.9,8329.3Z" fill="#fff"/>
        <path id="Path_541" data-name="Path 541" d="M256.845,8327.105v-3.74c0-1.394.7-2.285,1.644-2.285a1.639,1.639,0,0,1,1.557,1.087.257.257,0,0,1-.035.315l-.4.474c-.07.079-.171.027-.214-.077a1.033,1.033,0,0,0-.882-.657c-.524,0-.8.513-.8,1.168v3.7c0,.646.307,1.144.832,1.144a1.135,1.135,0,0,0,.847-.617c.063-.107.113-.226.221-.119l.435.461a.268.268,0,0,1,.043.263,1.729,1.729,0,0,1-1.555,1.154C257.553,8329.376,256.845,8328.536,256.845,8327.105Z" fill="#fff"/>
        <path id="Path_542" data-name="Path 542" d="M261.694,8329.3h-.609c-.081,0-.133-.054-.133-.173v-7.745c0-.118.042-.184.133-.184h.609c.073,0,.133.053.133.17v7.748C261.827,8329.244,261.784,8329.3,261.694,8329.3Z" fill="#fff"/>
        <path id="Path_543" data-name="Path 543" d="M264.475,8329.363a1.9,1.9,0,0,1-1.67-1,.252.252,0,0,1,.009-.339l.333-.517c.085-.13.138-.063.237.052a1.409,1.409,0,0,0,1.072.673c.649,0,1.015-.449,1.015-1.184,0-.8-.515-1.089-1.065-1.377a2.346,2.346,0,0,1-1.5-2.309c0-1.42.735-2.272,1.635-2.272a2,2,0,0,1,1.5.63c.118.133.075.223.019.354l-.219.567c-.054.13-.156.115-.245.049a1.625,1.625,0,0,0-.988-.471c-.455,0-.846.286-.846,1.154,0,.671.532.96.97,1.207a2.407,2.407,0,0,1,1.6,2.429C266.335,8328.481,265.549,8329.363,264.475,8329.363Z" fill="#fff"/>
        <path id="Path_544" data-name="Path 544" d="M268.045,8329.3h-.609c-.082,0-.129-.054-.129-.173v-7.745c0-.118.041-.184.129-.184h.609c.075,0,.136.053.136.17v7.748C268.181,8329.244,268.133,8329.3,268.045,8329.3Z" fill="#fff"/>
        <path id="Path_545" data-name="Path 545" d="M271.126,8329.376c-.981,0-1.742-.829-1.742-2.309V8323.4c0-1.444.751-2.324,1.729-2.324.957,0,1.734.839,1.734,2.324v3.663C272.847,8328.509,272.112,8329.376,271.126,8329.376Zm.855-5.959c0-.669-.326-1.2-.855-1.2s-.875.526-.875,1.2v3.623c0,.7.312,1.194.862,1.194s.868-.484.868-1.194Z" fill="#fff"/>
        <path id="Path_546" data-name="Path 546" d="M277.352,8329.3h-.384c-.131,0-.2-.043-.252-.2-.482-1.325-1.453-3.872-1.932-5.2l-.027.013v5.2c0,.13-.034.184-.123.184h-.567c-.087,0-.13-.054-.13-.173v-7.611c0-.212.025-.317.191-.317h.376c.15,0,.2.079.262.224l1.931,5.238.019-.012v-5.28c0-.117.037-.17.13-.17h.553c.087,0,.136.053.136.17v7.669C277.535,8329.244,277.442,8329.3,277.352,8329.3Z" fill="#fff"/>
        <path id="Path_547" data-name="Path 547" d="M285.175,8329.3h-.569c-.086,0-.123-.054-.123-.173v-4.66h-.025l-.377,1.5-.741,2.876c-.034.091-.079.21-.192.21h-.368c-.106,0-.155-.013-.211-.182l-.707-2.81-.37-1.562h-.025v4.631c0,.119-.034.173-.128.173h-.561c-.079,0-.133-.064-.133-.184v-7.654c0-.171.054-.264.168-.264h.447c.144,0,.181.015.243.212s1.005,3.989,1.066,4.188l.387,1.613H283l.4-1.64,1.059-4.162c.053-.159.113-.212.235-.212h.437c.126,0,.177.093.177.252v7.666C285.307,8329.233,285.256,8329.3,285.175,8329.3Z" fill="#fff"/>
        <path id="Path_548" data-name="Path 548" d="M288.99,8329.3a.119.119,0,0,1-.129-.12c-.084-.549-.185-1.088-.26-1.627H287.05c-.024.132-.181,1.1-.259,1.627-.013.091-.06.12-.124.12h-.6c-.089,0-.15-.082-.114-.223l1.285-7.709c.018-.091.06-.17.158-.17h.865c.088,0,.134.026.156.16l1.322,7.691c.024.1.008.25-.1.25Zm-1.417-5.082-.347,2.259h1.2l-.35-2.22-.245-1.639H287.8C287.733,8323.151,287.646,8323.676,287.573,8324.216Z" fill="#fff"/>
        <path id="Path_549" data-name="Path 549" d="M291.351,8326.83c0,.772-.008,1.535-.008,2.295,0,.119-.026.173-.1.173h-.655c-.085,0-.114-.054-.114-.159v-7.772c0-.117.039-.17.125-.17h.637c.069,0,.106.053.106.16v3.138c.008,0,.027.011.032.011l1.733-3.178c.05-.1.08-.131.173-.131h.675c.078,0,.105.053.105.12a.158.158,0,0,1-.02.092l-1.626,3.018.02.056a.4.4,0,0,1,.139-.017c.876,0,1.294.814,1.355,2.182.034.839.081,1.653.123,2.479,0,.119-.035.173-.105.173h-.612c-.072,0-.113-.054-.113-.159l-.124-2.65c-.051-.538-.253-1.064-.832-1.064S291.351,8326.029,291.351,8326.83Z" fill="#fff"/>
        <path id="Path_550" data-name="Path 550" d="M295.849,8329.3h-.613c-.078,0-.129-.054-.129-.173v-7.745c0-.118.044-.184.129-.184h.613c.071,0,.133.053.133.17v7.748C295.982,8329.244,295.939,8329.3,295.849,8329.3Z" fill="#fff"/>
        <path id="Path_551" data-name="Path 551" d="M300.641,8329.3h-.384c-.132,0-.2-.043-.257-.2-.481-1.325-1.449-3.872-1.93-5.2l-.031.013v5.2c0,.13-.031.184-.12.184h-.566c-.089,0-.131-.054-.131-.173v-7.611c0-.212.025-.317.191-.317h.379c.146,0,.2.079.26.224l1.931,5.238.017-.012v-5.28c0-.117.036-.17.131-.17h.553c.086,0,.139.053.139.17v7.669C300.823,8329.244,300.728,8329.3,300.641,8329.3Z" fill="#fff"/>
        <path id="Path_552" data-name="Path 552" d="M305.148,8322.235a.251.251,0,0,1-.043.287l-.423.474c-.075.067-.145,0-.209-.105a.965.965,0,0,0-.875-.655c-.55,0-.845.538-.845,1.222v3.634c0,.672.332,1.144.845,1.144.457,0,.79-.42.79-1.156v-1.128h-.633c-.083,0-.127-.053-.127-.184V8325c0-.13.044-.184.127-.184h1.357c.08,0,.14.054.14.184v2.13c0,1.365-.7,2.244-1.661,2.244s-1.7-.829-1.7-2.258v-3.768c0-1.391.736-2.271,1.69-2.271A1.62,1.62,0,0,1,305.148,8322.235Z" fill="#fff"/>
      </g>
    </g>
    <g id="Group_145" data-name="Group 145">
      <g id="Group_144" data-name="Group 144">
        <path id="Path_553" data-name="Path 553" d="M202.842,8299.267H199.8l.031,11.233c0,.469-.158.655-.472.655H197.2c-.281,0-.47-.187-.47-.609v-27.773c0-.422.156-.61.47-.61h5.61c3.7,0,5.957,3.666,5.957,8.645C208.765,8295.556,206.258,8299.267,202.842,8299.267Zm-.034-13.063H199.8v9.071h3.006c1.724,0,2.885-1.788,2.885-4.512C205.693,8288.506,204.721,8286.2,202.808,8286.2Z" fill="#fff"/>
        <path id="Path_554" data-name="Path 554" d="M220.927,8298.562a1.185,1.185,0,0,0,.034.987l3.322,10.572c.188.611.031,1.034-.377,1.034h-2c-.754,0-.91-.374-1.1-.985l-3.2-10.525H214.6c0,3.616.034,7.236.034,10.855,0,.469-.161.655-.472.655h-2.135c-.312,0-.5-.187-.5-.609V8282.82c0-.424.158-.658.47-.658h5.865c3.824,0,5.862,3.147,5.862,8.27A13.424,13.424,0,0,1,220.927,8298.562ZM214.6,8286.2v9.446h3.449c1.408,0,2.571-2.915,2.571-5.4,0-1.974-.752-4.043-3.106-4.043Z" fill="#fff"/>
        <path id="Path_555" data-name="Path 555" d="M237.953,8311.155h-10.44c-.283,0-.471-.235-.471-.655v-27.68c0-.424.158-.658.471-.658h10.282c.25,0,.438.234.438.658v2.677c0,.423-.126.706-.438.706h-7.652v7.894h6.367c.313,0,.468.237.468.706v2.681c0,.42-.155.7-.437.7h-6.4v8.932h7.81c.249,0,.439.187.439.656v2.68C238.392,8310.92,238.233,8311.155,237.953,8311.155Z" fill="#fff"/>
        <path id="Path_556" data-name="Path 556" d="M247.827,8311.155H241.81c-.286,0-.472-.235-.472-.655v-27.68c0-.424.158-.658.472-.658h5.985c3.825,0,5.831,3.2,5.831,8.552v11.7C253.626,8308.008,251.586,8311.155,247.827,8311.155Zm2.727-20.63c0-3.055-1.222-4.322-3.073-4.322h-3.042v20.913h3.231c1.944,0,2.884-1.691,2.884-4.418Z" fill="#fff"/>
        <path id="Path_557" data-name="Path 557" d="M260.334,8311.155h-2.2c-.281,0-.467-.187-.467-.609V8282.82c0-.424.155-.658.467-.658h2.2c.251,0,.468.188.468.61V8310.5C260.8,8310.969,260.646,8311.155,260.334,8311.155Z" fill="#fff"/>
        <path id="Path_558" data-name="Path 558" d="M265,8303.309v-13.392c0-4.982,2.479-8.179,5.895-8.179,2.068,0,4.009.8,5.58,3.9a.917.917,0,0,1-.125,1.128l-1.446,1.692c-.251.28-.594.092-.748-.282a3.747,3.747,0,0,0-3.167-2.349c-1.882,0-2.887,1.834-2.887,4.183v13.25c0,2.3,1.1,4.091,2.98,4.091,1.22,0,2.351-1.082,3.041-2.211.218-.376.408-.8.781-.421l1.571,1.645a.972.972,0,0,1,.157.938c-1.35,2.867-3.388,4.136-5.583,4.136C267.545,8311.438,265,8308.431,265,8303.309Z" fill="#fff"/>
        <path id="Path_559" data-name="Path 559" d="M289.834,8286.2h-4.327v24.3c0,.469-.125.655-.471.655h-2.16c-.284,0-.473-.187-.473-.609l.03-24.343h-4.169c-.314,0-.437-.188-.437-.706v-2.677c0-.424.123-.658.437-.658h11.57c.282,0,.4.234.4.61v2.725C290.238,8285.92,290.145,8286.2,289.834,8286.2Z" fill="#fff"/>
        <path id="Path_560" data-name="Path 560" d="M302.245,8311.155a.423.423,0,0,1-.468-.423c-.314-1.971-.659-3.9-.94-5.826h-5.552c-.093.469-.658,3.946-.939,5.826a.4.4,0,0,1-.439.423h-2.162c-.314,0-.535-.279-.409-.8l4.609-27.587c.062-.328.216-.61.565-.61h3.1c.312,0,.468.094.562.563l4.736,27.537c.093.377.028.894-.343.894Zm-5.076-18.186-1.257,8.082h4.3l-1.255-7.939-.876-5.875h-.092C297.734,8289.164,297.422,8291.044,297.169,8292.97Z" fill="#fff"/>
      </g>
    </g>
  </g>
</svg>
