<svg xmlns="http://www.w3.org/2000/svg" xmlns:xlink="http://www.w3.org/1999/xlink" width="100%" height="100%" viewBox="0 0 474.801 137.803">
  <defs>
    <linearGradient id="linear-gradient" x1="0.256" y1="0.171" x2="1.581" y2="1.3" gradientUnits="objectBoundingBox">
      <stop offset="0" stop-color="#5a9fd4"/>
      <stop offset="1" stop-color="#306998"/>
    </linearGradient>
    <linearGradient id="linear-gradient-2" x1="1.415" y1="1.879" x2="0.943" y2="1.221" gradientUnits="objectBoundingBox">
      <stop offset="0" stop-color="#ffd43b"/>
      <stop offset="1" stop-color="#ffe873"/>
    </linearGradient>
    <radialGradient id="radial-gradient" cx="0.5" cy="0.5" r="0.5" gradientTransform="translate(0.074 1) rotate(-90) scale(1 0.852)" gradientUnits="objectBoundingBox">
      <stop offset="0" stop-color="#b8b8b8" stop-opacity="0.498"/>
      <stop offset="1" stop-color="#7f7f7f" stop-opacity="0"/>
    </radialGradient>
  </defs>
  <g id="g2303" transform="translate(-5.591 -3.262)">
    <path id="path46" d="M184.613,61.929q0-21.843-12.457-22.448a23.4,23.4,0,0,0-9.669,1.589,14.2,14.2,0,0,0-5.078,2.68V78.509q7.968,5,14.143,4.64Q184.609,82.286,184.613,61.929Zm10.244.6q0,11.1-5.224,18.422a19.265,19.265,0,0,1-16.17,8.529q-7.793.249-16.053-4.874V116.2l-8.909-3.178V42.9a19.9,19.9,0,0,1,5.624-4.64q7.954-4.635,19.328-4.757l.127.127A17.732,17.732,0,0,1,189.6,42.162Q194.853,50.1,194.858,62.534Z" fill="#646464"/>
    <path id="path48" d="M249.3,83.266q0,14.884-2.983,20.615t-11.414,9.143a43.7,43.7,0,0,1-14.757,2.934l-1.472-5.614a70.906,70.906,0,0,0,11.346-2.193q6.477-2.193,8.909-6.706,1.959-3.67,1.949-14.026V85.1a45.772,45.772,0,0,1-19.153,4.143A17.607,17.607,0,0,1,210.141,85.1a14.1,14.1,0,0,1-5.614-11.463V36.558l8.909-3.051V70.828q0,5.98,3.86,9.211a14.587,14.587,0,0,0,9.991,3.109q6.126-.132,13.11-4.757V34.852H249.3Z" fill="#646464"/>
    <path id="path50" d="M284.082,89c-1.062.088-2.037.127-2.934.127q-7.559,0-11.775-3.606-4.2-3.611-4.2-9.971V40.457h-6.1v-5.6h6.1V19.968l8.9-3.168V34.852h10.01v5.6h-10.01V75.3q0,5.015,2.69,7.1c1.54,1.14,3.987,1.793,7.32,1.959Z" fill="#646464"/>
    <path id="path52" d="M338.023,88.266h-8.909V53.878a16.257,16.257,0,0,0-2.447-9.026,8.9,8.9,0,0,0-7.846-4.269q-6.126,0-15.322,6.462v41.22H294.59V6.069L303.5,3.262V40.7a31.042,31.042,0,0,1,18.666-6.219,14.877,14.877,0,0,1,11.463,4.757,16.752,16.752,0,0,1,4.4,11.833V88.266Z" fill="#646464"/>
    <path id="path54" d="M385.374,60.526q0-8.392-3.178-13.87a13.3,13.3,0,0,0-11.706-7.047q-14.65.848-14.64,20.976,0,9.226,3.061,15.41,3.918,7.881,11.755,7.759Q385.374,83.636,385.374,60.526Zm9.757.058q0,11.945-6.1,19.884-6.711,8.889-18.539,8.9-11.726,0-18.305-8.9-5.98-7.939-5.975-19.884,0-11.229,6.462-18.909a22.267,22.267,0,0,1,17.935-8.168,22.639,22.639,0,0,1,18.061,8.168Q395.131,49.365,395.131,60.584Z" fill="#646464"/>
    <path id="path56" d="M446.206,88.266H437.3V51.929q0-5.98-3.6-9.338t-9.581-3.226a21.414,21.414,0,0,0-12.077,4.143V88.266h-8.909V42.406q7.69-5.6,14.153-7.31a43.177,43.177,0,0,1,10.741-1.589,27.892,27.892,0,0,1,5.975.614,17.194,17.194,0,0,1,8.538,4.513,11.942,11.942,0,0,1,3.665,8.782Z" fill="#646464"/>
    <path id="path1948" d="M60.51,6.4A76.56,76.56,0,0,0,47.7,7.492c-11.346,2-13.406,6.2-13.406,13.937V31.648H61.1v3.406H24.229c-7.792,0-14.616,4.684-16.75,13.594-2.462,10.213-2.571,16.586,0,27.25,1.906,7.938,6.458,13.594,14.25,13.594h9.219V77.242A17.039,17.039,0,0,1,47.7,60.585H74.479A13.508,13.508,0,0,0,87.885,46.96V21.429c0-7.266-6.13-12.725-13.406-13.937A83.629,83.629,0,0,0,60.51,6.4Zm-14.5,8.219a5.11,5.11,0,1,1-5.031,5.125A5.087,5.087,0,0,1,46.01,14.617Z" fill="url(#linear-gradient)"/>
    <path id="path1950" d="M91.229,35.054V46.96c0,9.231-7.826,17-16.75,17H47.7A13.678,13.678,0,0,0,34.291,77.585v25.531c0,7.266,6.319,11.54,13.406,13.625a44.859,44.859,0,0,0,26.781,0c6.75-1.954,13.406-5.888,13.406-13.625V92.9H61.1V89.492h40.188c7.792,0,10.7-5.435,13.406-13.594,2.8-8.4,2.68-16.476,0-27.25-1.926-7.757-5.6-13.594-13.406-13.594ZM76.166,99.71a5.11,5.11,0,1,1-5.031,5.094A5.06,5.06,0,0,1,76.166,99.71Z" fill="url(#linear-gradient-2)"/>
    <path id="text3004" d="M463.554,26.909h1.562v-9.8h3.7V15.945h-8.962v1.168h3.7v9.8m6.647,0h1.334V17.962l2.9,8.946h1.486l3.018-8.916v8.917h1.456V15.945h-1.926l-3.3,9.393-2.813-9.393H470.2V26.909" fill="#646464"/>
    <path id="path1894" d="M81.09,107.088c0,3.848-16.087,6.967-35.931,6.967s-35.931-3.119-35.931-6.967,16.087-6.967,35.931-6.967,35.931,3.119,35.931,6.967Z" transform="translate(16.25 27.009)" opacity="0.444" fill="url(#radial-gradient)"/>
  </g>
</svg>
