<svg xmlns="http://www.w3.org/2000/svg" width="100%" height="100%" viewBox="0 0 652.531 416.701">
  <g id="Group_533" data-name="Group 533" transform="translate(-1069.717 -4395.915)">
    <g id="Group_359" data-name="Group 359">
      <text id="Athens" transform="translate(1318.41 4410.915)" fill="#606060" font-size="14.314" font-family="IBMPlexSans, IBM Plex Sans"><tspan x="0" y="0">Athens</tspan></text>
      <text id="Thessaloniki" transform="translate(1390.79 4410.915)" fill="#606060" font-size="14.314" font-family="IBMPlexSans, IBM Plex Sans"><tspan x="0" y="0">Thessaloniki</tspan></text>
      <rect id="Rectangle_591" data-name="Rectangle 591" width="9.763" height="9.763" transform="translate(1305.042 4400.86)" fill="#789ac4"/>
      <rect id="Rectangle_592" data-name="Rectangle 592" width="9.763" height="9.763" transform="translate(1377.238 4400.86)" fill="#222b3e"/>
    </g>
    <g id="Group_386" data-name="Group 386">
      <g id="Group_382" data-name="Group 382">
        <line id="Line_114" data-name="Line 114" y1="350.28" transform="translate(1112.384 4437.013)" fill="none" stroke="#a7a9ac" stroke-miterlimit="10" stroke-width="1.417"/>
        <path id="Path_1179" data-name="Path 1179" d="M1112.384,4787.293h594.18m-594.18-35.1h594.18m-594.18-34.92h594.18m-594.18-35.1h594.18m-594.18-34.92h594.18m-594.18-35.1h594.18m-594.18-35.1h594.18m-594.18-34.92h594.18m-594.18-35.1h594.18m-594.18-34.92h594.18m-594.18-35.1h594.18" fill="none" stroke="#a7a9ac" stroke-miterlimit="10" stroke-width="1.417"/>
        <path id="Path_1180" data-name="Path 1180" d="M1171.784,4437.013v350.28m59.4-350.28v350.28m59.4-350.28v350.28m59.4-350.28v350.28m59.4-350.28v350.28m59.58-350.28v350.28m59.4-350.28v350.28m59.4-350.28v350.28m59.4-350.28v350.28m59.4-350.28v350.28" fill="none" stroke="#a7a9ac" stroke-miterlimit="10" stroke-width="1.417"/>
      </g>
      <circle id="Ellipse_181" data-name="Ellipse 181" cx="3.9" cy="3.9" r="3.9" transform="translate(1110.824 4777.796)" fill="#789ac4"/>
      <circle id="Ellipse_182" data-name="Ellipse 182" cx="3.9" cy="3.9" r="3.9" transform="translate(1113.254 4772.734)" fill="#789ac4"/>
      <circle id="Ellipse_183" data-name="Ellipse 183" cx="3.9" cy="3.9" r="3.9" transform="translate(1120.274 4758.284)" fill="#789ac4"/>
      <circle id="Ellipse_184" data-name="Ellipse 184" cx="3.9" cy="3.9" r="3.9" transform="translate(1167.794 4674.943)" fill="#789ac4"/>
      <circle id="Ellipse_185" data-name="Ellipse 185" cx="3.9" cy="3.9" r="3.9" transform="translate(1197.494 4634.083)" fill="#789ac4"/>
      <circle id="Ellipse_186" data-name="Ellipse 186" cx="3.9" cy="3.9" r="3.9" transform="translate(1227.284 4600.243)" fill="#789ac4"/>
      <circle id="Ellipse_187" data-name="Ellipse 187" cx="3.9" cy="3.9" r="3.9" transform="translate(1113.254 4751.443)" fill="#222b3e"/>
      <circle id="Ellipse_188" data-name="Ellipse 188" cx="3.9" cy="3.9" r="3.9" transform="translate(1120.274 4709.144)" fill="#222b3e"/>
      <circle id="Ellipse_189" data-name="Ellipse 189" cx="3.9" cy="3.9" r="3.9" transform="translate(1167.794 4539.763)" fill="#222b3e"/>
      <circle id="Ellipse_190" data-name="Ellipse 190" cx="3.9" cy="3.9" r="3.9" transform="translate(1197.494 4492.063)" fill="#222b3e"/>
      <circle id="Ellipse_191" data-name="Ellipse 191" cx="3.9" cy="3.9" r="3.9" transform="translate(1227.194 4465.604)" fill="#222b3e"/>
      <circle id="Ellipse_192" data-name="Ellipse 192" cx="3.9" cy="3.9" r="3.9" transform="translate(1345.994 4436.083)" fill="#222b3e"/>
      <circle id="Ellipse_193" data-name="Ellipse 193" cx="3.9" cy="3.9" r="3.9" transform="translate(1465.064 4433.383)" fill="#222b3e"/>
      <circle id="Ellipse_194" data-name="Ellipse 194" cx="3.9" cy="3.9" r="3.9" transform="translate(1583.864 4433.203)" fill="#222b3e"/>
      <circle id="Ellipse_195" data-name="Ellipse 195" cx="3.9" cy="3.9" r="3.9" transform="translate(1702.574 4433.023)" fill="#222b3e"/>
      <circle id="Ellipse_196" data-name="Ellipse 196" cx="3.9" cy="3.9" r="3.9" transform="translate(1702.664 4441.843)" fill="#789ac4"/>
      <circle id="Ellipse_197" data-name="Ellipse 197" cx="3.9" cy="3.9" r="3.9" transform="translate(1583.864 4451.204)" fill="#789ac4"/>
      <circle id="Ellipse_198" data-name="Ellipse 198" cx="3.9" cy="3.9" r="3.9" transform="translate(1464.974 4471.183)" fill="#789ac4"/>
      <circle id="Ellipse_199" data-name="Ellipse 199" cx="3.9" cy="3.9" r="3.9" transform="translate(1345.994 4512.808)" fill="#789ac4"/>
      <g id="Group_384" data-name="Group 384">
        <g id="Group_383" data-name="Group 383">
          <path id="Path_1181" data-name="Path 1181" d="M1114.813,4783.476a1.312,1.312,0,0,1-1.189-1.866l2.339-5.04,7.211-14.782,47.559-83.415a1.418,1.418,0,0,1,.079-.122l29.7-40.86c.023-.031.047-.062.073-.091l29.7-34.02a1.276,1.276,0,0,1,.211-.195l118.8-87.3a1.315,1.315,0,0,1,.342-.181l118.8-41.76a1.211,1.211,0,0,1,.22-.056l118.8-19.8a1.057,1.057,0,0,1,.11-.014l118.8-9.54a1.312,1.312,0,1,1,.211,2.616l-118.747,9.536L1469.2,4476.359l-118.508,41.658-118.527,87.1-29.566,33.866-29.623,40.755-47.483,83.278-7.162,14.685-2.329,5.017A1.312,1.312,0,0,1,1114.813,4783.476Z" fill="#789ac4"/>
        </g>
      </g>
      <g id="Group_385" data-name="Group 385">
        <path id="Path_1182" data-name="Path 1182" d="M1114.816,4772.316a1.286,1.286,0,0,1-.2-.015,1.312,1.312,0,0,1-1.1-1.494l2.34-15.48,7.2-42.324c.008-.045.018-.09.03-.134l47.52-169.38a1.307,1.307,0,0,1,.148-.338l29.7-47.88a1.373,1.373,0,0,1,.246-.291l29.7-26.28a1.311,1.311,0,0,1,.554-.291l118.8-29.519a1.3,1.3,0,0,1,.285-.038l118.8-2.88,118.83-.181h118.8a1.313,1.313,0,1,1,0,2.625h-118.8l-118.8.18-118.625,2.876L1231.9,4470.879l-29.316,25.94-29.5,47.558-47.451,169.135-7.188,42.232-2.336,15.456A1.313,1.313,0,0,1,1114.816,4772.316Z" fill="#222b3e"/>
      </g>
      <text id="_0_" data-name="0%" transform="translate(1083.405 4791.049)" fill="#606060" font-size="14.314" font-family="IBMPlexSans, IBM Plex Sans"><tspan x="0" y="0">0%</tspan></text>
      <text id="_10_" data-name="10%" transform="translate(1076.561 4756.045)" fill="#606060" font-size="14.314" font-family="IBMPlexSans, IBM Plex Sans"><tspan x="0" y="0">10%</tspan></text>
      <text id="_20_" data-name="20%" transform="translate(1076.561 4721.018)" fill="#606060" font-size="14.314" font-family="IBMPlexSans, IBM Plex Sans"><tspan x="0" y="0">20%</tspan></text>
      <text id="_30_" data-name="30%" transform="translate(1076.561 4685.991)" fill="#606060" font-size="14.314" font-family="IBMPlexSans, IBM Plex Sans"><tspan x="0" y="0">30%</tspan></text>
      <text id="_40_" data-name="40%" transform="translate(1076.561 4650.963)" fill="#606060" font-size="14.314" font-family="IBMPlexSans, IBM Plex Sans"><tspan x="0" y="0">40%</tspan></text>
      <text id="_50_" data-name="50%" transform="translate(1076.561 4615.959)" fill="#606060" font-size="14.314" font-family="IBMPlexSans, IBM Plex Sans"><tspan x="0" y="0">50%</tspan></text>
      <text id="_60_" data-name="60%" transform="translate(1076.561 4580.932)" fill="#606060" font-size="14.314" font-family="IBMPlexSans, IBM Plex Sans"><tspan x="0" y="0">60%</tspan></text>
      <text id="_70_" data-name="70%" transform="translate(1076.561 4545.905)" fill="#606060" font-size="14.314" font-family="IBMPlexSans, IBM Plex Sans"><tspan x="0" y="0">70%</tspan></text>
      <text id="_80_" data-name="80%" transform="translate(1076.561 4510.889)" fill="#606060" font-size="14.314" font-family="IBMPlexSans, IBM Plex Sans"><tspan x="0" y="0">80%</tspan></text>
      <text id="_90_" data-name="90%" transform="translate(1076.561 4475.874)" fill="#606060" font-size="14.314" font-family="IBMPlexSans, IBM Plex Sans"><tspan x="0" y="0">90%</tspan></text>
      <text id="_100_" data-name="100%" transform="translate(1069.717 4440.846)" fill="#606060" font-size="14.314" font-family="IBMPlexSans, IBM Plex Sans"><tspan x="0" y="0">100%</tspan></text>
      <text id="_0" data-name="0" transform="translate(1108.999 4808.616)" fill="#606060" font-size="14.314" font-family="IBMPlexSans, IBM Plex Sans"><tspan x="0" y="0">0</tspan></text>
      <text id="_50" data-name="50" transform="translate(1164.991 4808.616)" fill="#606060" font-size="14.314" font-family="IBMPlexSans, IBM Plex Sans"><tspan x="0" y="0">50</tspan></text>
      <text id="_100" data-name="100" transform="translate(1220.971 4808.616)" fill="#606060" font-size="14.314" font-family="IBMPlexSans, IBM Plex Sans"><tspan x="0" y="0">100</tspan></text>
      <text id="_150" data-name="150" transform="translate(1280.385 4808.616)" fill="#606060" font-size="14.314" font-family="IBMPlexSans, IBM Plex Sans"><tspan x="0" y="0">150</tspan></text>
      <text id="_200" data-name="200" transform="translate(1339.799 4808.616)" fill="#606060" font-size="14.314" font-family="IBMPlexSans, IBM Plex Sans"><tspan x="0" y="0">200</tspan></text>
      <text id="_250" data-name="250" transform="translate(1399.202 4808.616)" fill="#606060" font-size="14.314" font-family="IBMPlexSans, IBM Plex Sans"><tspan x="0" y="0">250</tspan></text>
      <text id="_300" data-name="300" transform="translate(1458.604 4808.616)" fill="#606060" font-size="14.314" font-family="IBMPlexSans, IBM Plex Sans"><tspan x="0" y="0">300</tspan></text>
      <text id="_350" data-name="350" transform="translate(1518.018 4808.616)" fill="#606060" font-size="14.314" font-family="IBMPlexSans, IBM Plex Sans"><tspan x="0" y="0">350</tspan></text>
      <text id="_400" data-name="400" transform="translate(1577.432 4808.616)" fill="#606060" font-size="14.314" font-family="IBMPlexSans, IBM Plex Sans"><tspan x="0" y="0">400</tspan></text>
      <text id="_450" data-name="450" transform="translate(1636.834 4808.616)" fill="#606060" font-size="14.314" font-family="IBMPlexSans, IBM Plex Sans"><tspan x="0" y="0">450</tspan></text>
      <text id="_500" data-name="500" transform="translate(1696.249 4808.616)" fill="#606060" font-size="14.314" font-family="IBMPlexSans, IBM Plex Sans"><tspan x="0" y="0">500</tspan></text>
      <circle id="Ellipse_200" data-name="Ellipse 200" cx="3.9" cy="3.9" r="3.9" transform="translate(1110.659 4767.104)" fill="#222b3e"/>
    </g>
  </g>
</svg>
