<svg xmlns="http://www.w3.org/2000/svg" width="100%" height="100%" viewBox="0 0 628.168 385.281">
  <g id="Group_531" data-name="Group 531" transform="translate(-236.256 -2387.742)">
    <g id="Group_392" data-name="Group 392">
      <text id="No_Mask" data-name="No Mask" transform="translate(426.91 2402.742)" fill="#606060" font-size="14.314" font-family="IBMPlexSans, IBM Plex Sans"><tspan x="0" y="0">No Mask</tspan></text>
      <text id="Mask" transform="translate(507.839 2402.742)" fill="#606060" font-size="14.314" font-family="IBMPlexSans, IBM Plex Sans"><tspan x="0" y="0">Mask</tspan></text>
      <rect id="Rectangle_668" data-name="Rectangle 668" width="9.763" height="9.763" transform="translate(413.542 2392.687)" fill="#789ac4"/>
      <rect id="Rectangle_669" data-name="Rectangle 669" width="9.763" height="9.763" transform="translate(494.542 2392.687)" fill="#91bce8"/>
      <text id="Mask_Ventilation" data-name="Mask &amp; Ventilation" transform="translate(566.429 2402.742)" fill="#606060" font-size="14.314" font-family="IBMPlexSans, IBM Plex Sans"><tspan x="0" y="0">Mask &amp; Ventilation</tspan></text>
      <rect id="Rectangle_670" data-name="Rectangle 670" width="9.763" height="9.763" transform="translate(553.825 2392.687)" fill="#222b3e"/>
    </g>
    <g id="Group_401" data-name="Group 401">
      <g id="Group_395" data-name="Group 395">
        <g id="Group_394" data-name="Group 394">
          <path id="Path_1184" data-name="Path 1184" d="M278.975,2715.81h564.12m-564.12-31.86h564.12m-564.12-31.86h564.12m-564.12-31.86h564.12m-564.12-32.04h564.12m-564.12-31.86h564.12m-564.12-31.86h564.12m-564.12-31.86h564.12m-564.12-31.86h564.12m-564.12-31.86h564.12" fill="none" stroke="#a7a9ac" stroke-miterlimit="10" stroke-width="1.417"/>
          <path id="Path_1185" data-name="Path 1185" d="M335.315,2428.89v318.78m56.52-318.78v318.78m56.34-318.78v318.78m56.52-318.78v318.78m56.34-318.78v318.78m56.34-318.78v318.78m56.52-318.78v318.78m56.34-318.78v318.78m56.52-318.78v318.78m56.34-318.78v318.78" fill="none" stroke="#a7a9ac" stroke-miterlimit="10" stroke-width="1.417"/>
        </g>
        <line id="Line_116" data-name="Line 116" y1="318.78" transform="translate(278.975 2428.89)" fill="none" stroke="#a7a9ac" stroke-miterlimit="10" stroke-width="1.417"/>
        <line id="Line_117" data-name="Line 117" x2="564.12" transform="translate(278.975 2747.67)" fill="none" stroke="#a7a9ac" stroke-miterlimit="10" stroke-width="1.417"/>
      </g>
      <g id="Group_400" data-name="Group 400">
        <circle id="Ellipse_201" data-name="Ellipse 201" cx="3.9" cy="3.9" r="3.9" transform="translate(387.845 2496)" fill="#789ac4"/>
        <circle id="Ellipse_202" data-name="Ellipse 202" cx="3.9" cy="3.9" r="3.9" transform="translate(276.289 2738.91)" fill="#789ac4"/>
        <circle id="Ellipse_203" data-name="Ellipse 203" cx="3.9" cy="3.9" r="3.9" transform="translate(280.565 2720.64)" fill="#789ac4"/>
        <circle id="Ellipse_204" data-name="Ellipse 204" cx="3.9" cy="3.9" r="3.9" transform="translate(275.165 2743.5)" fill="#222b3e"/>
        <circle id="Ellipse_205" data-name="Ellipse 205" cx="3.9" cy="3.9" r="3.9" transform="translate(286.325 2699.22)" fill="#789ac4"/>
        <circle id="Ellipse_206" data-name="Ellipse 206" cx="3.9" cy="3.9" r="3.9" transform="translate(331.325 2575.38)" fill="#789ac4"/>
        <g id="Group_397" data-name="Group 397">
          <g id="Group_396" data-name="Group 396">
            <path id="Path_1186" data-name="Path 1186" d="M279.246,2747.993a1.346,1.346,0,0,1-.257-.026,1.314,1.314,0,0,1-1.031-1.544l.18-.9.733-2.942,4.5-18.354,5.585-21.261c.011-.039.023-.078.037-.116l45.179-123.84a1.316,1.316,0,0,1,.162-.308l56.341-79.561a1.32,1.32,0,0,1,.494-.42l112.86-55.26a1.3,1.3,0,0,1,.435-.126l112.861-12.24c.037,0,.073-.006.11-.007l112.859-2.7,112.883-.721a1.288,1.288,0,0,1,1.321,1.3,1.312,1.312,0,0,1-1.3,1.32l-112.861.721-112.781,2.7-112.577,12.21-112.352,55.012-56.046,79.143-45.1,123.617-5.565,21.181-5.381,22.064A1.314,1.314,0,0,1,279.246,2747.993Z" fill="#789ac4"/>
          </g>
        </g>
        <circle id="Ellipse_207" data-name="Ellipse 207" cx="3.9" cy="3.9" r="3.9" transform="translate(839.195 2424.99)" fill="#789ac4"/>
        <circle id="Ellipse_208" data-name="Ellipse 208" cx="3.9" cy="3.9" r="3.9" transform="translate(726.245 2425.62)" fill="#789ac4"/>
        <circle id="Ellipse_209" data-name="Ellipse 209" cx="3.9" cy="3.9" r="3.9" transform="translate(613.385 2428.32)" fill="#789ac4"/>
        <circle id="Ellipse_210" data-name="Ellipse 210" cx="3.9" cy="3.9" r="3.9" transform="translate(500.705 2440.74)" fill="#789ac4"/>
        <g id="Group_398" data-name="Group 398">
          <path id="Path_1187" data-name="Path 1187" d="M279.245,2748.533a1.314,1.314,0,0,1-1.245-1.727l.18-.54a1.289,1.289,0,0,1,.071-.172l.72-1.44,4.491-9.343,5.589-11.178,45.222-76.938a1.331,1.331,0,0,1,.119-.169l56.341-68.4a1.266,1.266,0,0,1,.257-.238l112.859-79.559a1.26,1.26,0,0,1,.343-.173l112.86-37.44a1.242,1.242,0,0,1,.208-.051l112.859-17.82c.037-.006.073-.01.11-.013l112.86-8.28a1.312,1.312,0,1,1,.192,2.618l-112.8,8.276-112.7,17.795L505.2,2501.085l-112.556,79.346-56.162,68.184-45.127,76.77-5.538,11.082-5.178,10.717-.15.451A1.314,1.314,0,0,1,279.245,2748.533Z" fill="#91bce8"/>
        </g>
        <circle id="Ellipse_211" data-name="Ellipse 211" cx="3.9" cy="3.9" r="3.9" transform="translate(286.325 2734.32)" fill="#222b3e"/>
        <circle id="Ellipse_212" data-name="Ellipse 212" cx="3.9" cy="3.9" r="3.9" transform="translate(331.415 2699.22)" fill="#222b3e"/>
        <circle id="Ellipse_213" data-name="Ellipse 213" cx="3.9" cy="3.9" r="3.9" transform="translate(387.845 2661.06)" fill="#222b3e"/>
        <circle id="Ellipse_214" data-name="Ellipse 214" cx="3.9" cy="3.9" r="3.9" transform="translate(500.795 2599.86)" fill="#222b3e"/>
        <circle id="Ellipse_215" data-name="Ellipse 215" cx="3.9" cy="3.9" r="3.9" transform="translate(613.385 2554.5)" fill="#222b3e"/>
        <circle id="Ellipse_216" data-name="Ellipse 216" cx="3.9" cy="3.9" r="3.9" transform="translate(726.335 2520.84)" fill="#222b3e"/>
        <circle id="Ellipse_217" data-name="Ellipse 217" cx="3.9" cy="3.9" r="3.9" transform="translate(275.075 2742.78)" fill="#91bce8"/>
        <circle id="Ellipse_218" data-name="Ellipse 218" cx="3.9" cy="3.9" r="3.9" transform="translate(276.065 2740.791)" fill="#91bce8"/>
        <circle id="Ellipse_219" data-name="Ellipse 219" cx="3.9" cy="3.9" r="3.9" transform="translate(280.565 2731.98)" fill="#91bce8"/>
        <circle id="Ellipse_220" data-name="Ellipse 220" cx="3.9" cy="3.9" r="3.9" transform="translate(286.325 2720.669)" fill="#91bce8"/>
        <circle id="Ellipse_221" data-name="Ellipse 221" cx="3.9" cy="3.9" r="3.9" transform="translate(331.415 2643.96)" fill="#91bce8"/>
        <circle id="Ellipse_222" data-name="Ellipse 222" cx="3.9" cy="3.9" r="3.9" transform="translate(387.845 2575.38)" fill="#91bce8"/>
        <circle id="Ellipse_223" data-name="Ellipse 223" cx="3.9" cy="3.9" r="3.9" transform="translate(500.705 2496)" fill="#91bce8"/>
        <circle id="Ellipse_224" data-name="Ellipse 224" cx="3.9" cy="3.9" r="3.9" transform="translate(613.385 2458.38)" fill="#91bce8"/>
        <circle id="Ellipse_225" data-name="Ellipse 225" cx="3.9" cy="3.9" r="3.9" transform="translate(726.335 2440.74)" fill="#91bce8"/>
        <circle id="Ellipse_226" data-name="Ellipse 226" cx="3.9" cy="3.9" r="3.9" transform="translate(839.195 2432.28)" fill="#91bce8"/>
        <g id="Group_399" data-name="Group 399">
          <path id="Path_1188" data-name="Path 1188" d="M279.245,2748.712a1.312,1.312,0,0,1-.927-2.24l.179-.18a1.364,1.364,0,0,1,.14-.122l.72-.54,10.024-8.416,45.221-34.952,56.4-38.387c.036-.025.074-.048.112-.069l112.86-61.2a1.445,1.445,0,0,1,.137-.064l112.86-45.36c.038-.015.076-.029.116-.041l112.86-33.48L842.9,2498.619a1.312,1.312,0,0,1,.568,2.562l-112.86,25.02L617.9,2559.64l-112.733,45.31-112.735,61.132-56.286,38.3-45.115,34.874-10.855,9.069A1.308,1.308,0,0,1,279.245,2748.712Z" fill="#222b3e"/>
        </g>
        <text id="_0_" data-name="0%" transform="translate(249.944 2751.48)" fill="#606060" font-size="14.314" font-family="IBMPlexSans, IBM Plex Sans"><tspan x="0" y="0">0%</tspan></text>
        <text id="_10_" data-name="10%" transform="translate(243.1 2719.581)" fill="#606060" font-size="14.314" font-family="IBMPlexSans, IBM Plex Sans"><tspan x="0" y="0">10%</tspan></text>
        <text id="_20_" data-name="20%" transform="translate(243.1 2687.956)" fill="#606060" font-size="14.314" font-family="IBMPlexSans, IBM Plex Sans"><tspan x="0" y="0">20%</tspan></text>
        <text id="_30_" data-name="30%" transform="translate(243.1 2655.82)" fill="#606060" font-size="14.314" font-family="IBMPlexSans, IBM Plex Sans"><tspan x="0" y="0">30%</tspan></text>
        <text id="_40_" data-name="40%" transform="translate(243.1 2623.945)" fill="#606060" font-size="14.314" font-family="IBMPlexSans, IBM Plex Sans"><tspan x="0" y="0">40%</tspan></text>
        <text id="_50_" data-name="50%" transform="translate(243.1 2592.058)" fill="#606060" font-size="14.314" font-family="IBMPlexSans, IBM Plex Sans"><tspan x="0" y="0">50%</tspan></text>
        <text id="_60_" data-name="60%" transform="translate(243.1 2560.183)" fill="#606060" font-size="14.314" font-family="IBMPlexSans, IBM Plex Sans"><tspan x="0" y="0">60%</tspan></text>
        <text id="_70_" data-name="70%" transform="translate(243.1 2528.296)" fill="#606060" font-size="14.314" font-family="IBMPlexSans, IBM Plex Sans"><tspan x="0" y="0">70%</tspan></text>
        <text id="_80_" data-name="80%" transform="translate(243.1 2496.421)" fill="#606060" font-size="14.314" font-family="IBMPlexSans, IBM Plex Sans"><tspan x="0" y="0">80%</tspan></text>
        <circle id="Ellipse_227" data-name="Ellipse 227" cx="3.9" cy="3.9" r="3.9" transform="translate(275.165 2743.124)" fill="#222b3e"/>
        <text id="_90_" data-name="90%" transform="translate(243.1 2464.534)" fill="#606060" font-size="14.314" font-family="IBMPlexSans, IBM Plex Sans"><tspan x="0" y="0">90%</tspan></text>
        <text id="_100_" data-name="100%" transform="translate(236.256 2432.659)" fill="#606060" font-size="14.314" font-family="IBMPlexSans, IBM Plex Sans"><tspan x="0" y="0">100%</tspan></text>
        <text id="_0" data-name="0" transform="translate(275.537 2769.023)" fill="#606060" font-size="14.314" font-family="IBMPlexSans, IBM Plex Sans"><tspan x="0" y="0">0</tspan></text>
        <text id="_500" data-name="500" transform="translate(325.108 2769.023)" fill="#606060" font-size="14.314" font-family="IBMPlexSans, IBM Plex Sans"><tspan x="0" y="0">500</tspan></text>
        <text id="_1000" data-name="1000" transform="translate(378.1 2769.023)" fill="#606060" font-size="14.314" font-family="IBMPlexSans, IBM Plex Sans"><tspan x="0" y="0">1000</tspan></text>
        <text id="_1500" data-name="1500" transform="translate(434.514 2769.023)" fill="#606060" font-size="14.314" font-family="IBMPlexSans, IBM Plex Sans"><tspan x="0" y="0">1500</tspan></text>
        <text id="_2000" data-name="2000" transform="translate(490.94 2769.023)" fill="#606060" font-size="14.314" font-family="IBMPlexSans, IBM Plex Sans"><tspan x="0" y="0">2000</tspan></text>
        <text id="_2500" data-name="2500" transform="translate(547.342 2769.023)" fill="#606060" font-size="14.314" font-family="IBMPlexSans, IBM Plex Sans"><tspan x="0" y="0">2500</tspan></text>
        <text id="_3000" data-name="3000" transform="translate(603.768 2769.023)" fill="#606060" font-size="14.314" font-family="IBMPlexSans, IBM Plex Sans"><tspan x="0" y="0">3000</tspan></text>
        <text id="_3500" data-name="3500" transform="translate(660.17 2769.023)" fill="#606060" font-size="14.314" font-family="IBMPlexSans, IBM Plex Sans"><tspan x="0" y="0">3500</tspan></text>
        <text id="_4000" data-name="4000" transform="translate(716.584 2769.023)" fill="#606060" font-size="14.314" font-family="IBMPlexSans, IBM Plex Sans"><tspan x="0" y="0">4000</tspan></text>
        <text id="_4500" data-name="4500" transform="translate(773.01 2769.023)" fill="#606060" font-size="14.314" font-family="IBMPlexSans, IBM Plex Sans"><tspan x="0" y="0">4500</tspan></text>
        <text id="_5000" data-name="5000" transform="translate(829.424 2769.023)" fill="#606060" font-size="14.314" font-family="IBMPlexSans, IBM Plex Sans"><tspan x="0" y="0">5000</tspan></text>
        <circle id="Ellipse_228" data-name="Ellipse 228" cx="3.9" cy="3.9" r="3.9" transform="translate(280.565 2738.91)" fill="#222b3e"/>
        <circle id="Ellipse_229" data-name="Ellipse 229" cx="3.9" cy="3.9" r="3.9" transform="translate(839.195 2496)" fill="#222b3e"/>
      </g>
    </g>
  </g>
</svg>
