<svg xmlns="http://www.w3.org/2000/svg" width="100%" height="100%" viewBox="0 0 630.512 389.664">
  <g id="Group_530" data-name="Group 530" transform="translate(-645.067 -1439.876)">
    <g id="Group_520" data-name="Group 520">
      <circle id="Ellipse_92" data-name="Ellipse 92" cx="2.708" cy="2.708" r="2.708" transform="translate(1251.501 1478.902)" fill="#789ac4"/>
      <g id="Group_362" data-name="Group 362">
        <g id="Group_361" data-name="Group 361">
          <path id="Path_1162" data-name="Path 1162" d="M687.841,1771.914H1254.3m-566.46-32.4H1254.3m-566.46-32.4H1254.3m-566.46-32.22H1254.3m-566.46-32.4H1254.3m-566.46-32.4H1254.3m-566.46-32.22H1254.3m-566.46-32.4H1254.3m-566.46-32.22H1254.3m-566.46-32.4H1254.3" fill="none" stroke="#a7a9ac" stroke-miterlimit="10" stroke-width="1.417"/>
          <path id="Path_1163" data-name="Path 1163" d="M744.361,1480.854v323.28m56.7-323.28v323.28m56.7-323.28v323.28m56.7-323.28v323.28m56.52-323.28v323.28m56.7-323.28v323.28m56.7-323.28v323.28m56.52-323.28v323.28m56.7-323.28v323.28m56.7-323.28v323.28" fill="none" stroke="#a7a9ac" stroke-miterlimit="10" stroke-width="1.417"/>
        </g>
        <line id="Line_109" data-name="Line 109" y1="323.28" transform="translate(687.841 1480.854)" fill="none" stroke="#a7a9ac" stroke-miterlimit="10" stroke-width="1.417"/>
        <line id="Line_110" data-name="Line 110" x2="566.46" transform="translate(687.841 1804.134)" fill="none" stroke="#a7a9ac" stroke-miterlimit="10" stroke-width="1.417"/>
      </g>
      <g id="Group_364" data-name="Group 364">
        <g id="Group_363" data-name="Group 363">
          <path id="Path_1164" data-name="Path 1164" d="M687.93,1804.456a1.313,1.313,0,0,1-1.218-1.8l.312-.781.517-2.754,4.7-18.619,5.581-21.784c.011-.041.023-.081.037-.12l45.36-125.64a1.3,1.3,0,0,1,.162-.311l56.7-80.459a1.314,1.314,0,0,1,.491-.421l113.22-55.98a1.309,1.309,0,0,1,.437-.128l113.219-12.6c.038,0,.076-.007.114-.008l113.4-2.7,113.243-.72h.008a1.313,1.313,0,0,1,.009,2.625l-113.219.72-113.321,2.7-112.933,12.568-112.714,55.73-56.407,80.042L700.347,1759.43l-5.565,21.719-4.679,18.535-.522,2.8a1.3,1.3,0,0,1-.072.245l-.36.9A1.314,1.314,0,0,1,687.93,1804.456Z" fill="#789ac4"/>
        </g>
      </g>
      <circle id="Ellipse_93" data-name="Ellipse 93" cx="3.9" cy="3.9" r="3.9" transform="translate(689.431 1776.923)" fill="#789ac4"/>
      <circle id="Ellipse_94" data-name="Ellipse 94" cx="2.708" cy="2.708" r="2.708" transform="translate(685.402 1797.465)" fill="#789ac4"/>
      <circle id="Ellipse_95" data-name="Ellipse 95" cx="3.9" cy="3.9" r="3.9" transform="translate(695.19 1755.144)" fill="#789ac4"/>
      <circle id="Ellipse_96" data-name="Ellipse 96" cx="3.9" cy="3.9" r="3.9" transform="translate(684.03 1799.333)" fill="#91bce8"/>
      <circle id="Ellipse_97" data-name="Ellipse 97" cx="3.9" cy="3.9" r="3.9" transform="translate(684.931 1796.903)" fill="#91bce8"/>
      <circle id="Ellipse_98" data-name="Ellipse 98" cx="3.9" cy="3.9" r="3.9" transform="translate(689.723 1784.483)" fill="#91bce8"/>
      <circle id="Ellipse_99" data-name="Ellipse 99" cx="3.9" cy="3.9" r="3.9" transform="translate(695.19 1769.363)" fill="#91bce8"/>
      <circle id="Ellipse_100" data-name="Ellipse 100" cx="3.9" cy="3.9" r="3.9" transform="translate(740.739 1672.968)" fill="#91bce8"/>
      <circle id="Ellipse_101" data-name="Ellipse 101" cx="3.9" cy="3.9" r="3.9" transform="translate(797.204 1595.82)" fill="#91bce8"/>
      <circle id="Ellipse_102" data-name="Ellipse 102" cx="3.9" cy="3.9" r="3.9" transform="translate(910.471 1520.802)" fill="#91bce8"/>
      <circle id="Ellipse_103" data-name="Ellipse 103" cx="3.9" cy="3.9" r="3.9" transform="translate(1023.719 1493.139)" fill="#91bce8"/>
      <circle id="Ellipse_104" data-name="Ellipse 104" cx="3.9" cy="3.9" r="3.9" transform="translate(1136.91 1482.917)" fill="#91bce8"/>
      <circle id="Ellipse_105" data-name="Ellipse 105" cx="3.9" cy="3.9" r="3.9" transform="translate(1250.31 1479.007)" fill="#91bce8"/>
      <circle id="Ellipse_106" data-name="Ellipse 106" cx="3.9" cy="3.9" r="3.9" transform="translate(740.371 1629.503)" fill="#789ac4"/>
      <circle id="Ellipse_107" data-name="Ellipse 107" cx="3.9" cy="3.9" r="3.9" transform="translate(797.07 1549.301)" fill="#789ac4"/>
      <circle id="Ellipse_108" data-name="Ellipse 108" cx="3.9" cy="3.9" r="3.9" transform="translate(910.471 1493.224)" fill="#789ac4"/>
      <circle id="Ellipse_109" data-name="Ellipse 109" cx="3.9" cy="3.9" r="3.9" transform="translate(1023.719 1480.56)" fill="#789ac4"/>
      <circle id="Ellipse_110" data-name="Ellipse 110" cx="3.9" cy="3.9" r="3.9" transform="translate(1136.91 1476.954)" fill="#789ac4"/>
      <g id="Group_365" data-name="Group 365">
        <path id="Path_1165" data-name="Path 1165" d="M687.93,1804.816a1.314,1.314,0,0,1-1.092-2.04l.242-.363.484-1.776c.011-.037.022-.074.036-.111l10.261-27.542q.02-.051.042-.1l45.36-96.48a1.265,1.265,0,0,1,.13-.218l56.7-77.22a1.329,1.329,0,0,1,.331-.317l113.22-75.24a1.318,1.318,0,0,1,.417-.182l113.219-27.54a1.391,1.391,0,0,1,.192-.032l113.4-10.26,113.294-3.784a1.312,1.312,0,1,1,.087,2.623l-113.219,3.78-113.229,10.247-112.9,27.462-112.834,74.984-56.487,76.929L700.3,1773.953l-10.221,27.432-.524,1.924a1.309,1.309,0,0,1-.174.382l-.36.54A1.31,1.31,0,0,1,687.93,1804.816Z" fill="#91bce8"/>
      </g>
      <g id="Group_366" data-name="Group 366">
        <path id="Path_1166" data-name="Path 1166" d="M687.932,1799.056l-.076,0a1.313,1.313,0,0,1-1.236-1.385l.36-6.3.539-18.145,4.681-96.864,5.582-77.251a1.3,1.3,0,0,1,.086-.383l45.36-116.279a1.312,1.312,0,0,1,1.173-.835l56.7-2.16H1254.21a1.313,1.313,0,1,1,0,2.625H801.151l-55.79,2.126L700.386,1599.5l-5.566,77.022-4.678,96.809-.539,18.156-.362,6.336A1.312,1.312,0,0,1,687.932,1799.056Z" fill="#222b3e"/>
      </g>
      <text id="_0_" data-name="0%" transform="translate(658.755 1807.974)" fill="#606060" font-size="14.314" font-family="IBMPlexSans, IBM Plex Sans"><tspan x="0" y="0">0%</tspan></text>
      <text id="_10_" data-name="10%" transform="translate(651.911 1775.642)" fill="#606060" font-size="14.314" font-family="IBMPlexSans, IBM Plex Sans"><tspan x="0" y="0">10%</tspan></text>
      <text id="_20_" data-name="20%" transform="translate(651.911 1743.298)" fill="#606060" font-size="14.314" font-family="IBMPlexSans, IBM Plex Sans"><tspan x="0" y="0">20%</tspan></text>
      <text id="_30_" data-name="30%" transform="translate(651.911 1710.978)" fill="#606060" font-size="14.314" font-family="IBMPlexSans, IBM Plex Sans"><tspan x="0" y="0">30%</tspan></text>
      <text id="_40_" data-name="40%" transform="translate(651.911 1678.646)" fill="#606060" font-size="14.314" font-family="IBMPlexSans, IBM Plex Sans"><tspan x="0" y="0">40%</tspan></text>
      <text id="_50_" data-name="50%" transform="translate(651.911 1646.302)" fill="#606060" font-size="14.314" font-family="IBMPlexSans, IBM Plex Sans"><tspan x="0" y="0">50%</tspan></text>
      <text id="_60_" data-name="60%" transform="translate(651.911 1613.97)" fill="#606060" font-size="14.314" font-family="IBMPlexSans, IBM Plex Sans"><tspan x="0" y="0">60%</tspan></text>
      <text id="_70_" data-name="70%" transform="translate(651.911 1581.626)" fill="#606060" font-size="14.314" font-family="IBMPlexSans, IBM Plex Sans"><tspan x="0" y="0">70%</tspan></text>
      <text id="_80_" data-name="80%" transform="translate(651.911 1549.306)" fill="#606060" font-size="14.314" font-family="IBMPlexSans, IBM Plex Sans"><tspan x="0" y="0">80%</tspan></text>
      <text id="_90_" data-name="90%" transform="translate(651.911 1516.962)" fill="#606060" font-size="14.314" font-family="IBMPlexSans, IBM Plex Sans"><tspan x="0" y="0">90%</tspan></text>
      <text id="_100_" data-name="100%" transform="translate(645.067 1484.63)" fill="#606060" font-size="14.314" font-family="IBMPlexSans, IBM Plex Sans"><tspan x="0" y="0">100%</tspan></text>
      <text id="_0" data-name="0" transform="translate(684.349 1825.54)" fill="#606060" font-size="14.314" font-family="IBMPlexSans, IBM Plex Sans"><tspan x="0" y="0">0</tspan></text>
      <text id="_500" data-name="500" transform="translate(734.153 1825.54)" fill="#606060" font-size="14.314" font-family="IBMPlexSans, IBM Plex Sans"><tspan x="0" y="0">500</tspan></text>
      <text id="_1000" data-name="1000" transform="translate(787.392 1825.54)" fill="#606060" font-size="14.314" font-family="IBMPlexSans, IBM Plex Sans"><tspan x="0" y="0">1000</tspan></text>
      <text id="_1500" data-name="1500" transform="translate(844.04 1825.54)" fill="#606060" font-size="14.314" font-family="IBMPlexSans, IBM Plex Sans"><tspan x="0" y="0">1500</tspan></text>
      <text id="_2000" data-name="2000" transform="translate(900.688 1825.54)" fill="#606060" font-size="14.314" font-family="IBMPlexSans, IBM Plex Sans"><tspan x="0" y="0">2000</tspan></text>
      <text id="_2500" data-name="2500" transform="translate(957.337 1825.54)" fill="#606060" font-size="14.314" font-family="IBMPlexSans, IBM Plex Sans"><tspan x="0" y="0">2500</tspan></text>
      <text id="_3000" data-name="3000" transform="translate(1013.985 1825.54)" fill="#606060" font-size="14.314" font-family="IBMPlexSans, IBM Plex Sans"><tspan x="0" y="0">3000</tspan></text>
      <text id="_3500" data-name="3500" transform="translate(1070.646 1825.54)" fill="#606060" font-size="14.314" font-family="IBMPlexSans, IBM Plex Sans"><tspan x="0" y="0">3500</tspan></text>
      <text id="_4000" data-name="4000" transform="translate(1127.282 1825.54)" fill="#606060" font-size="14.314" font-family="IBMPlexSans, IBM Plex Sans"><tspan x="0" y="0">4000</tspan></text>
      <text id="_4500" data-name="4500" transform="translate(1183.942 1825.54)" fill="#606060" font-size="14.314" font-family="IBMPlexSans, IBM Plex Sans"><tspan x="0" y="0">4500</tspan></text>
      <text id="_5000" data-name="5000" transform="translate(1240.579 1825.54)" fill="#606060" font-size="14.314" font-family="IBMPlexSans, IBM Plex Sans"><tspan x="0" y="0">5000</tspan></text>
      <circle id="Ellipse_111" data-name="Ellipse 111" cx="3.9" cy="3.9" r="3.9" transform="translate(684.03 1793.844)" fill="#222b3e"/>
      <circle id="Ellipse_112" data-name="Ellipse 112" cx="3.9" cy="3.9" r="3.9" transform="translate(684.229 1787.543)" fill="#222b3e"/>
      <circle id="Ellipse_113" data-name="Ellipse 113" cx="3.9" cy="3.9" r="3.9" transform="translate(684.881 1769.363)" fill="#222b3e"/>
      <circle id="Ellipse_114" data-name="Ellipse 114" cx="3.9" cy="3.9" r="3.9" transform="translate(689.544 1672.523)" fill="#222b3e"/>
      <circle id="Ellipse_115" data-name="Ellipse 115" cx="3.9" cy="3.9" r="3.9" transform="translate(695.271 1595.152)" fill="#222b3e"/>
      <circle id="Ellipse_116" data-name="Ellipse 116" cx="3.9" cy="3.9" r="3.9" transform="translate(740.371 1479.023)" fill="#222b3e"/>
      <circle id="Ellipse_117" data-name="Ellipse 117" cx="3.9" cy="3.9" r="3.9" transform="translate(797.07 1476.863)" fill="#222b3e"/>
      <circle id="Ellipse_118" data-name="Ellipse 118" cx="3.9" cy="3.9" r="3.9" transform="translate(910.471 1476.863)" fill="#222b3e"/>
      <circle id="Ellipse_119" data-name="Ellipse 119" cx="3.9" cy="3.9" r="3.9" transform="translate(1023.719 1476.863)" fill="#222b3e"/>
      <circle id="Ellipse_120" data-name="Ellipse 120" cx="3.9" cy="3.9" r="3.9" transform="translate(1136.91 1476.863)" fill="#222b3e"/>
      <circle id="Ellipse_121" data-name="Ellipse 121" cx="3.9" cy="3.9" r="3.9" transform="translate(1250.311 1476.863)" fill="#222b3e"/>
    </g>
    <g id="Group_521" data-name="Group 521">
      <text id="Spring" transform="translate(868.133 1454.876)" fill="#606060" font-size="14.314" font-family="IBMPlexSans, IBM Plex Sans"><tspan x="0" y="0">Spring</tspan></text>
      <text id="Summer" transform="translate(949.063 1454.876)" fill="#606060" font-size="14.314" font-family="IBMPlexSans, IBM Plex Sans"><tspan x="0" y="0">Summer</tspan></text>
      <rect id="Rectangle_584" data-name="Rectangle 584" width="9.763" height="9.763" transform="translate(854.766 1444.821)" fill="#789ac4"/>
      <rect id="Rectangle_585" data-name="Rectangle 585" width="9.763" height="9.763" transform="translate(935.766 1444.821)" fill="#91bce8"/>
      <text id="Fall" transform="translate(1041.746 1454.876)" fill="#606060" font-size="14.314" font-family="IBMPlexSans, IBM Plex Sans"><tspan x="0" y="0">Fall</tspan></text>
      <rect id="Rectangle_586" data-name="Rectangle 586" width="9.763" height="9.763" transform="translate(1029.142 1444.821)" fill="#222b3e"/>
    </g>
  </g>
</svg>
