<svg xmlns="http://www.w3.org/2000/svg" width="100%" height="100%" viewBox="0 0 623.938 414.837">
  <g id="Group_532" data-name="Group 532" transform="translate(-236.256 -4395.915)">
    <g id="Group_358" data-name="Group 358">
      <text id="Athens" transform="translate(480.26 4410.915)" fill="#606060" font-size="14.314" font-family="IBMPlexSans, IBM Plex Sans"><tspan x="0" y="0">Athens</tspan></text>
      <text id="Thessaloniki" transform="translate(552.641 4410.915)" fill="#606060" font-size="14.314" font-family="IBMPlexSans, IBM Plex Sans"><tspan x="0" y="0">Thessaloniki</tspan></text>
      <rect id="Rectangle_589" data-name="Rectangle 589" width="9.763" height="9.763" transform="translate(466.893 4400.86)" fill="#789ac4"/>
      <rect id="Rectangle_590" data-name="Rectangle 590" width="9.763" height="9.763" transform="translate(539.088 4400.86)" fill="#222b3e"/>
    </g>
    <g id="Group_381" data-name="Group 381">
      <g id="Group_377" data-name="Group 377">
        <path id="Path_1175" data-name="Path 1175" d="M279.029,4785.363h565.38m-565.38-34.739h565.38m-565.38-34.92h565.38m-565.38-34.74h565.38m-565.38-34.92h565.38M279.029,4611.3h565.38m-565.38-34.919h565.38m-565.38-34.741h565.38m-565.38-34.92h565.38m-565.38-34.92h565.38m-565.38-34.739h565.38" fill="none" stroke="#a7a9ac" stroke-miterlimit="10" stroke-width="1.417"/>
        <path id="Path_1176" data-name="Path 1176" d="M335.549,4437.064v348.3m56.52-348.3v348.3m56.52-348.3v348.3m56.52-348.3v348.3m56.521-348.3v348.3m56.7-348.3v348.3m56.52-348.3v348.3m56.52-348.3v348.3m56.52-348.3v348.3m56.52-348.3v348.3" fill="none" stroke="#a7a9ac" stroke-miterlimit="10" stroke-width="1.417"/>
        <line id="Line_113" data-name="Line 113" y1="348.3" transform="translate(279.029 4437.063)" fill="none" stroke="#a7a9ac" stroke-miterlimit="10" stroke-width="1.417"/>
      </g>
      <g id="Group_379" data-name="Group 379">
        <g id="Group_378" data-name="Group 378">
          <path id="Path_1177" data-name="Path 1177" d="M281.28,4785.506a1.313,1.313,0,0,1-.588-2.487l2.161-1.08,6.815-3.588,45.207-22.513,28.291-13.155,28.272-12.786,113.268-45.921,113.108-38.725,113.1-32.778,113.274-27.556a1.313,1.313,0,0,1,.622,2.551l-113.22,27.541L618.6,4647.754l-112.98,38.68-113.151,45.875-28.212,12.76L336.014,4758.2l-45.15,22.485-6.813,3.587-2.185,1.092A1.31,1.31,0,0,1,281.28,4785.506Z" fill="#789ac4"/>
        </g>
      </g>
      <circle id="Ellipse_161" data-name="Ellipse 161" cx="3.9" cy="3.9" r="3.9" transform="translate(840.419 4582.293)" fill="#789ac4"/>
      <circle id="Ellipse_162" data-name="Ellipse 162" cx="3.9" cy="3.9" r="3.9" transform="translate(727.379 4609.833)" fill="#789ac4"/>
      <circle id="Ellipse_163" data-name="Ellipse 163" cx="3.9" cy="3.9" r="3.9" transform="translate(614.339 4642.414)" fill="#789ac4"/>
      <circle id="Ellipse_164" data-name="Ellipse 164" cx="3.9" cy="3.9" r="3.9" transform="translate(501.119 4681.113)" fill="#789ac4"/>
      <circle id="Ellipse_165" data-name="Ellipse 165" cx="3.9" cy="3.9" r="3.9" transform="translate(388.079 4727.013)" fill="#789ac4"/>
      <circle id="Ellipse_166" data-name="Ellipse 166" cx="3.9" cy="3.9" r="3.9" transform="translate(359.819 4739.793)" fill="#789ac4"/>
      <circle id="Ellipse_167" data-name="Ellipse 167" cx="3.9" cy="3.9" r="3.9" transform="translate(331.56 4753.113)" fill="#789ac4"/>
      <circle id="Ellipse_168" data-name="Ellipse 168" cx="3.9" cy="3.9" r="3.9" transform="translate(286.288 4775.54)" fill="#789ac4"/>
      <circle id="Ellipse_169" data-name="Ellipse 169" cx="3.9" cy="3.9" r="3.9" transform="translate(277.199 4780.413)" fill="#789ac4"/>
      <circle id="Ellipse_170" data-name="Ellipse 170" cx="3.9" cy="3.9" r="3.9" transform="translate(279.539 4779.033)" fill="#789ac4"/>
      <g id="Group_380" data-name="Group 380">
        <path id="Path_1178" data-name="Path 1178" d="M281.28,4785.686a1.312,1.312,0,0,1-.662-2.446l2.16-1.261c.033-.019.066-.036.1-.052l6.84-3.24,45.183-21.242,28.285-12.61,28.278-12.068,113.263-43.758,113.1-37.462,113.1-31.877,113.269-27.193a1.313,1.313,0,0,1,.614,2.553l-113.22,27.18L618.6,4654.057l-112.984,37.422L392.452,4735.2l-28.218,12.043-28.24,12.591-45.156,21.229-6.786,3.214-2.112,1.232A1.308,1.308,0,0,1,281.28,4785.686Z" fill="#222b3e"/>
      </g>
      <circle id="Ellipse_171" data-name="Ellipse 171" cx="3.9" cy="3.9" r="3.9" transform="translate(277.455 4780.293)" fill="#222b3e"/>
      <circle id="Ellipse_172" data-name="Ellipse 172" cx="3.9" cy="3.9" r="3.9" transform="translate(279.629 4779.213)" fill="#222b3e"/>
      <circle id="Ellipse_173" data-name="Ellipse 173" cx="3.9" cy="3.9" r="3.9" transform="translate(286.199 4775.974)" fill="#222b3e"/>
      <circle id="Ellipse_174" data-name="Ellipse 174" cx="3.9" cy="3.9" r="3.9" transform="translate(331.649 4754.733)" fill="#222b3e"/>
      <circle id="Ellipse_175" data-name="Ellipse 175" cx="3.9" cy="3.9" r="3.9" transform="translate(359.819 4741.941)" fill="#222b3e"/>
      <circle id="Ellipse_176" data-name="Ellipse 176" cx="3.9" cy="3.9" r="3.9" transform="translate(388.169 4730.073)" fill="#222b3e"/>
      <circle id="Ellipse_177" data-name="Ellipse 177" cx="3.9" cy="3.9" r="3.9" transform="translate(501.119 4686.153)" fill="#222b3e"/>
      <circle id="Ellipse_178" data-name="Ellipse 178" cx="3.9" cy="3.9" r="3.9" transform="translate(614.339 4648.893)" fill="#222b3e"/>
      <circle id="Ellipse_179" data-name="Ellipse 179" cx="3.9" cy="3.9" r="3.9" transform="translate(727.379 4617.033)" fill="#222b3e"/>
      <circle id="Ellipse_180" data-name="Ellipse 180" cx="3.9" cy="3.9" r="3.9" transform="translate(840.51 4589.854)" fill="#222b3e"/>
      <text id="_0_" data-name="0%" transform="translate(249.943 4789.209)" fill="#606060" font-size="14.314" font-family="IBMPlexSans, IBM Plex Sans"><tspan x="0" y="0">0%</tspan></text>
      <text id="_10_" data-name="10%" transform="translate(243.1 4754.37)" fill="#606060" font-size="14.314" font-family="IBMPlexSans, IBM Plex Sans"><tspan x="0" y="0">10%</tspan></text>
      <text id="_20_" data-name="20%" transform="translate(243.1 4719.53)" fill="#606060" font-size="14.314" font-family="IBMPlexSans, IBM Plex Sans"><tspan x="0" y="0">20%</tspan></text>
      <text id="_30_" data-name="30%" transform="translate(243.1 4684.702)" fill="#606060" font-size="14.314" font-family="IBMPlexSans, IBM Plex Sans"><tspan x="0" y="0">30%</tspan></text>
      <text id="_40_" data-name="40%" transform="translate(243.1 4649.874)" fill="#606060" font-size="14.314" font-family="IBMPlexSans, IBM Plex Sans"><tspan x="0" y="0">40%</tspan></text>
      <text id="_50_" data-name="50%" transform="translate(243.1 4615.034)" fill="#606060" font-size="14.314" font-family="IBMPlexSans, IBM Plex Sans"><tspan x="0" y="0">50%</tspan></text>
      <text id="_60_" data-name="60%" transform="translate(243.1 4580.182)" fill="#606060" font-size="14.314" font-family="IBMPlexSans, IBM Plex Sans"><tspan x="0" y="0">60%</tspan></text>
      <text id="_70_" data-name="70%" transform="translate(243.1 4545.354)" fill="#606060" font-size="14.314" font-family="IBMPlexSans, IBM Plex Sans"><tspan x="0" y="0">70%</tspan></text>
      <text id="_80_" data-name="80%" transform="translate(243.1 4510.514)" fill="#606060" font-size="14.314" font-family="IBMPlexSans, IBM Plex Sans"><tspan x="0" y="0">80%</tspan></text>
      <text id="_90_" data-name="90%" transform="translate(243.1 4475.686)" fill="#606060" font-size="14.314" font-family="IBMPlexSans, IBM Plex Sans"><tspan x="0" y="0">90%</tspan></text>
      <text id="_100_" data-name="100%" transform="translate(236.256 4440.846)" fill="#606060" font-size="14.314" font-family="IBMPlexSans, IBM Plex Sans"><tspan x="0" y="0">100%</tspan></text>
      <text id="_0" data-name="0" transform="translate(275.537 4806.752)" fill="#606060" font-size="14.314" font-family="IBMPlexSans, IBM Plex Sans"><tspan x="0" y="0">0</tspan></text>
      <text id="_50" data-name="50" transform="translate(328.67 4806.752)" fill="#606060" font-size="14.314" font-family="IBMPlexSans, IBM Plex Sans"><tspan x="0" y="0">50</tspan></text>
      <text id="_100" data-name="100" transform="translate(381.803 4806.752)" fill="#606060" font-size="14.314" font-family="IBMPlexSans, IBM Plex Sans"><tspan x="0" y="0">100</tspan></text>
      <text id="_150" data-name="150" transform="translate(438.346 4806.752)" fill="#606060" font-size="14.314" font-family="IBMPlexSans, IBM Plex Sans"><tspan x="0" y="0">150</tspan></text>
      <text id="_200" data-name="200" transform="translate(494.889 4806.752)" fill="#606060" font-size="14.314" font-family="IBMPlexSans, IBM Plex Sans"><tspan x="0" y="0">200</tspan></text>
      <text id="_250" data-name="250" transform="translate(551.443 4806.752)" fill="#606060" font-size="14.314" font-family="IBMPlexSans, IBM Plex Sans"><tspan x="0" y="0">250</tspan></text>
      <text id="_300" data-name="300" transform="translate(607.986 4806.752)" fill="#606060" font-size="14.314" font-family="IBMPlexSans, IBM Plex Sans"><tspan x="0" y="0">300</tspan></text>
      <text id="_350" data-name="350" transform="translate(664.541 4806.752)" fill="#606060" font-size="14.314" font-family="IBMPlexSans, IBM Plex Sans"><tspan x="0" y="0">350</tspan></text>
      <text id="_400" data-name="400" transform="translate(721.084 4806.752)" fill="#606060" font-size="14.314" font-family="IBMPlexSans, IBM Plex Sans"><tspan x="0" y="0">400</tspan></text>
      <text id="_450" data-name="450" transform="translate(777.639 4806.752)" fill="#606060" font-size="14.314" font-family="IBMPlexSans, IBM Plex Sans"><tspan x="0" y="0">450</tspan></text>
      <text id="_500" data-name="500" transform="translate(834.193 4806.752)" fill="#606060" font-size="14.314" font-family="IBMPlexSans, IBM Plex Sans"><tspan x="0" y="0">500</tspan></text>
    </g>
  </g>
</svg>
