<svg xmlns="http://www.w3.org/2000/svg" width="719.348" height="386.792" viewBox="0 0 719.348 386.792"><defs><style>.a,.c{fill:none;}.a{stroke:#a7a9ac;stroke-miterlimit:10;stroke-width:1.417px;}.b{fill:#222b3e;}.d{fill:#789ac4;}.e{fill:#606060;font-size:14.314px;font-family:IBMPlexSans, IBM Plex Sans;}</style></defs><g transform="translate(-600.57 -5470.143)"><path class="a" d="M1288.067,5470.143v361.35m-82.26-361.35v361.35m-82.44-361.35v361.35m-82.26-361.35v361.35m-82.44-361.35v361.35m-82.44-361.35v361.35m-82.26-361.35v361.35"/><line class="a" y1="361.35" transform="translate(711.593 5470.143)"/><rect class="b" width="587.634" height="9.807" transform="translate(711.593 5816.048)"/><rect class="c" width="587.634" height="9.807" transform="translate(711.593 5816.048)"/><rect class="b" width="490.642" height="9.805" transform="translate(711.593 5783.198)"/><rect class="c" width="490.642" height="9.805" transform="translate(711.593 5783.198)"/><rect class="b" width="468.972" height="9.805" transform="translate(711.593 5750.348)"/><rect class="c" width="468.972" height="9.805" transform="translate(711.593 5750.348)"/><rect class="b" width="329.152" height="9.805" transform="translate(711.593 5717.498)"/><rect class="c" width="329.152" height="9.805" transform="translate(711.593 5717.498)"/><rect class="b" width="226.444" height="9.805" transform="translate(711.593 5684.648)"/><rect class="c" width="226.444" height="9.805" transform="translate(711.593 5684.648)"/><rect class="b" width="182.512" height="9.805" transform="translate(711.593 5651.798)"/><rect class="c" width="182.512" height="9.805" transform="translate(711.593 5651.798)"/><rect class="b" width="164.662" height="9.805" transform="translate(711.594 5618.948)"/><rect class="c" width="164.662" height="9.805" transform="translate(711.593 5618.948)"/><rect class="b" width="86.793" height="9.805" transform="translate(711.593 5586.098)"/><rect class="c" width="86.793" height="9.805" transform="translate(711.593 5586.098)"/><rect class="b" width="44.274" height="9.805" transform="translate(711.593 5553.248)"/><rect class="b" width="9.221" height="9.805" transform="translate(711.593 5520.398)"/><rect class="c" width="9.221" height="9.805" transform="translate(711.593 5520.398)"/><rect class="b" width="5.352" height="9.805" transform="translate(711.593 5487.548)"/><rect class="c" width="5.352" height="9.805" transform="translate(711.593 5487.548)"/><rect class="d" width="232.368" height="9.805" transform="translate(711.593 5804.282)"/><rect class="c" width="232.368" height="9.805" transform="translate(711.593 5804.282)"/><rect class="d" width="173.593" height="9.805" transform="translate(711.594 5771.432)"/><rect class="c" width="173.594" height="9.805" transform="translate(711.593 5771.432)"/><rect class="d" width="166.418" height="9.805" transform="translate(711.593 5738.582)"/><rect class="c" width="166.418" height="9.805" transform="translate(711.593 5738.582)"/><rect class="d" width="118.984" height="9.805" transform="translate(711.593 5705.73)"/><rect class="c" width="118.984" height="9.805" transform="translate(711.593 5705.73)"/><rect class="d" width="113.378" height="9.805" transform="translate(711.594 5672.882)"/><rect class="c" width="113.379" height="9.805" transform="translate(711.593 5672.882)"/><rect class="d" width="91.357" height="9.805" transform="translate(711.593 5640.031)"/><rect class="c" width="91.357" height="9.805" transform="translate(711.593 5640.031)"/><rect class="d" width="58.103" height="9.805" transform="translate(711.593 5607.181)"/><rect class="c" width="58.103" height="9.805" transform="translate(711.593 5607.181)"/><rect class="d" width="30.399" height="9.805" transform="translate(711.593 5574.331)"/><rect class="c" width="30.399" height="9.805" transform="translate(711.593 5574.331)"/><rect class="d" width="15.515" height="9.805" transform="translate(711.593 5541.48)"/><rect class="c" width="15.515" height="9.805" transform="translate(711.593 5541.48)"/><rect class="d" width="3.228" height="9.805" transform="translate(711.593 5508.631)"/><rect class="c" width="3.228" height="9.805" transform="translate(711.593 5508.631)"/><rect class="d" width="2.676" height="9.805" transform="translate(711.593 5475.781)"/><text class="e" transform="translate(1211.177 5792.643)"><tspan x="0" y="0">1,191%</tspan></text><text class="e" transform="translate(1189.509 5759.798)"><tspan x="0" y="0">1,139%</tspan></text><text class="e" transform="translate(1049.689 5726.952)"><tspan x="0" y="0">0,799%</tspan></text><text class="e" transform="translate(946.981 5694.106)"><tspan x="0" y="0">0,550%</tspan></text><text class="e" transform="translate(903.052 5661.262)"><tspan x="0" y="0">0,443%</tspan></text><text class="e" transform="translate(885.204 5628.416)"><tspan x="0" y="0">0,400%</tspan></text><text class="e" transform="translate(807.337 5595.57)"><tspan x="0" y="0">0,211%</tspan></text><text class="e" transform="translate(764.812 5562.725)"><tspan x="0" y="0">0,108%</tspan></text><text class="e" transform="translate(729.752 5529.879)"><tspan x="0" y="0">0,022%</tspan></text><text class="e" transform="translate(725.877 5497.034)"><tspan x="0" y="0">0,013%</tspan></text><text class="e" transform="translate(952.894 5813.771)"><tspan x="0" y="0">0,564%</tspan></text><text class="e" transform="translate(894.115 5780.926)"><tspan x="0" y="0">0,422%</tspan></text><text class="e" transform="translate(886.947 5748.08)"><tspan x="0" y="0">0,404%</tspan></text><text class="e" transform="translate(839.507 5715.234)"><tspan x="0" y="0">0,289%</tspan></text><text class="e" transform="translate(833.905 5682.39)"><tspan x="0" y="0">0,275%</tspan></text><text class="e" transform="translate(811.886 5649.544)"><tspan x="0" y="0">0,222%</tspan></text><text class="e" transform="translate(778.636 5616.698)"><tspan x="0" y="0">0,141%</tspan></text><text class="e" transform="translate(750.934 5583.854)"><tspan x="0" y="0">0,074%</tspan></text><text class="e" transform="translate(736.057 5551.008)"><tspan x="0" y="0">0,038%</tspan></text><text class="e" transform="translate(723.772 5518.162)"><tspan x="0" y="0">0,008%</tspan></text><text class="e" transform="translate(723.218 5485.316)"><tspan x="0" y="0">0,006%</tspan></text><text class="e" transform="translate(691.412 5852.936)"><tspan x="0" y="0">0,000%</tspan></text><text class="e" transform="translate(773.776 5852.936)"><tspan x="0" y="0">0,200%</tspan></text><text class="e" transform="translate(856.14 5852.936)"><tspan x="0" y="0">0,400%</tspan></text><text class="e" transform="translate(938.502 5852.936)"><tspan x="0" y="0">0,600%</tspan></text><text class="e" transform="translate(1020.865 5852.936)"><tspan x="0" y="0">0,800%</tspan></text><text class="e" transform="translate(1103.23 5852.936)"><tspan x="0" y="0">1,000%</tspan></text><text class="e" transform="translate(1185.593 5852.936)"><tspan x="0" y="0">1,200%</tspan></text><text class="e" transform="translate(1267.917 5852.843)"><tspan x="0" y="0">1,400%</tspan></text><text class="e" transform="translate(680.997 5818.865)"><tspan x="0" y="0">Bar</tspan></text><text class="e" transform="translate(632.403 5786.02)"><tspan x="0" y="0">Restaurant</tspan></text><text class="e" transform="translate(673.655 5753.174)"><tspan x="0" y="0">Gym</tspan></text><text class="e" transform="translate(662.146 5720.329)"><tspan x="0" y="0">House</tspan></text><text class="e" transform="translate(600.57 5687.483)"><tspan x="0" y="0">Protest/Concert</tspan></text><text class="e" transform="translate(678.792 5654.638)"><tspan x="0" y="0">Bus</tspan></text><text class="e" transform="translate(659.67 5621.793)"><tspan x="0" y="0">School</tspan></text><text class="e" transform="translate(649.751 5588.947)"><tspan x="0" y="0">Stadium</tspan></text><text class="e" transform="translate(652.714 5556.102)"><tspan x="0" y="0">Subway</tspan></text><text class="e" transform="translate(619.564 5523.256)"><tspan x="0" y="0">Supermarket</tspan></text><text class="e" transform="translate(674.127 5490.41)"><tspan x="0" y="0">Park</tspan></text></g></svg>