<svg xmlns="http://www.w3.org/2000/svg" width="878.711" height="430.112" viewBox="0 0 878.711 430.112"><defs><style>.a{fill:#606060;font-size:14.314px;font-family:IBMPlexSans, IBM Plex Sans;}.b{fill:#789ac4;}.c{fill:#222b3e;}</style></defs><g transform="translate(-521.679 -6558.767)"><text class="a" transform="translate(643.697 6573.767)"><tspan x="0" y="0">1</tspan></text><text class="a" transform="translate(644.447 6613.455)"><tspan x="0" y="0">1</tspan></text><text class="a" transform="translate(647.072 6587.768)"><tspan x="0" y="0">2</tspan></text><text class="a" transform="translate(651.027 6627.519)"><tspan x="0" y="0">4</tspan></text><text class="a" transform="translate(658.328 6653.145)"><tspan x="0" y="0">6</tspan></text><text class="a" transform="translate(690.759 6667.228)"><tspan x="0" y="0">18</tspan></text><text class="a" transform="translate(675.134 6692.835)"><tspan x="0" y="0">12</tspan></text><text class="a" transform="translate(738.539 6706.894)"><tspan x="0" y="0">35</tspan></text><text class="a" transform="translate(706.269 6732.569)"><tspan x="0" y="0">24</tspan></text><text class="a" transform="translate(826.152 6746.56)"><tspan x="0" y="0">67</tspan></text><text class="a" transform="translate(846.163 6786.311)"><tspan x="0" y="0">74</tspan></text><text class="a" transform="translate(768.121 6812.052)"><tspan x="0" y="0">46</tspan></text><text class="a" transform="translate(895.646 6826.043)"><tspan x="0" y="0">92</tspan></text><text class="a" transform="translate(1011.088 6865.708)"><tspan x="0" y="0">133</tspan></text><text class="a" transform="translate(1168.421 6905.396)"><tspan x="0" y="0">190</tspan></text><text class="a" transform="translate(1192.839 6945.067)"><tspan x="0" y="0">199</tspan></text><text class="a" transform="translate(1374.39 6984.879)"><tspan x="0" y="0">264</tspan></text><text class="a" transform="translate(774.487 6851.717)"><tspan x="0" y="0">48</tspan></text><text class="a" transform="translate(828.079 6891.342)"><tspan x="0" y="0">67</tspan></text><text class="a" transform="translate(836.112 6931.117)"><tspan x="0" y="0">70</tspan></text><text class="a" transform="translate(902.425 6970.804)"><tspan x="0" y="0">94</tspan></text><text class="a" transform="translate(743.644 6772.319)"><tspan x="0" y="0">37</tspan></text><text class="a" transform="translate(602.178 6978.803)"><tspan x="0" y="0">Bar</tspan></text><text class="a" transform="translate(553.684 6939.112)"><tspan x="0" y="0">Restaurant</tspan></text><text class="a" transform="translate(594.921 6899.432)"><tspan x="0" y="0">Gym</tspan></text><text class="a" transform="translate(583.369 6859.74)"><tspan x="0" y="0">House</tspan></text><text class="a" transform="translate(521.679 6820.049)"><tspan x="0" y="0">Protest/Concert</tspan></text><text class="a" transform="translate(600.045 6780.369)"><tspan x="0" y="0">Bus</tspan></text><text class="a" transform="translate(580.851 6740.678)"><tspan x="0" y="0">School</tspan></text><text class="a" transform="translate(570.889 6700.986)"><tspan x="0" y="0">Stadium</tspan></text><text class="a" transform="translate(573.908 6661.307)"><tspan x="0" y="0">Subway</tspan></text><text class="a" transform="translate(540.787 6621.615)"><tspan x="0" y="0">Supermarket</tspan></text><text class="a" transform="translate(595.308 6581.924)"><tspan x="0" y="0">Park</tspan></text><rect class="b" width="1.625" height="12.667" transform="translate(633.373 6563.111)"/><rect class="b" width="2.313" height="12.667" transform="translate(633.373 6602.799)"/><rect class="b" width="15.958" height="12.667" transform="translate(633.373 6642.489)"/><rect class="b" width="32.75" height="12.667" transform="translate(633.373 6682.179)"/><rect class="b" width="63.917" height="12.667" transform="translate(633.373 6721.913)"/><rect class="c" width="4.625" height="12.583" transform="translate(633.373 6577.153)"/><rect class="c" width="9.118" height="12.583" transform="translate(633.373 6616.904)"/><rect class="c" width="48.375" height="12.583" transform="translate(633.373 6656.613)"/><rect class="c" width="96.208" height="12.583" transform="translate(633.373 6696.279)"/><rect class="c" width="183.792" height="12.583" transform="translate(633.373 6735.946)"/><rect class="b" width="101.208" height="12.667" transform="translate(633.373 6761.663)"/><rect class="c" width="203.958" height="12.583" transform="translate(633.373 6775.696)"/><rect class="b" width="126.083" height="12.667" transform="translate(633.373 6801.396)"/><rect class="c" width="253.333" height="12.583" transform="translate(633.373 6815.43)"/><rect class="b" width="132.396" height="12.667" transform="translate(633.373 6841.061)"/><rect class="b" width="185.708" height="12.667" transform="translate(633.373 6880.686)"/><rect class="b" width="193.641" height="12.667" transform="translate(633.373 6920.461)"/><rect class="b" width="259.896" height="12.667" transform="translate(633.373 6960.148)"/><rect class="c" width="368.771" height="12.583" transform="translate(633.373 6855.094)"/><rect class="c" width="526.021" height="12.583" transform="translate(633.373 6894.782)"/><rect class="c" width="550.458" height="12.583" transform="translate(633.373 6934.453)"/><rect class="c" width="732.083" height="12.583" transform="translate(633.373 6974.265)"/></g></svg>