<svg xmlns="http://www.w3.org/2000/svg" width="100%" height="100%" viewBox="0 0 1255.549 438.438"><defs><style>.a{fill:#fff;stroke:#a6a8ab;stroke-miterlimit:10;stroke-width:1.417px;}.b{fill:none;stroke:#cf2f34;stroke-linecap:round;stroke-linejoin:round;stroke-width:4.601px;}.c{fill:#606060;font-size:14.314px;font-family:IBMPlexSans, IBM Plex Sans;}</style></defs><g transform="translate(-332.225 -1467.956)"><rect class="a" width="1254.132" height="437.02" transform="translate(332.934 1468.664)"/><line class="a" x2="1125.632" transform="translate(405.488 1854.004)"/><path class="a" d="M1514.924,1854v4.859M1445.28,1854v4.859M1375.637,1854v4.859M1310.852,1854v4.859M1241.209,1854v4.859M1169.946,1854v4.859M1101.922,1854v4.859M1030.659,1854v4.859M962.635,1854v4.859M891.372,1854v4.859M820.109,1854v4.859M752.085,1854v4.859M680.822,1854v4.859M612.8,1854v4.859M541.535,1854v4.859M476.751,1854v4.859M405.488,1854v4.859"/><path class="b" d="M422.494,1854.814H497l3.239-9.718h4.859l1.62,8.1,3.239-8.1,1.62,1.62,1.62-4.859,3.239-8.1h4.859l1.62-4.859,1.62-3.239,3.239-8.1,1.62-6.478,3.239,3.239,1.62-1.62,1.62-22.675,3.239,4.859,1.62,1.62h3.239l1.62,4.859,1.62-6.478,3.239-4.859,1.62,8.1,3.239-14.577,1.62-9.718,3.239-11.337,1.62-8.1,1.62-14.577,3.239-16.2,1.62-4.859,3.239,3.239,1.62-3.239,1.62-3.239,3.239-3.239,1.62,8.1,3.239,4.859,1.62-1.62,1.62,1.62,3.239,3.239,1.62,4.859,3.239-1.62,1.62-11.337,1.62,1.62,3.239,3.239,1.62,3.239,3.239-3.239h4.859l1.62,14.577h1.62l3.239,1.62,1.62-1.62,3.239,9.718,1.62,3.239,1.62,9.718,3.239,3.239,1.62,6.478,3.239,8.1,1.62,3.239,1.62,1.62,3.239,6.478,1.62,3.239,3.239,3.239,1.62,4.859h1.62l3.239,4.859,1.62,1.62,3.239,1.62h1.62l3.239,3.239h3.239l3.239,1.62,1.62,1.62,3.239,1.62,1.62,1.62h1.62l3.239,3.239h1.62l3.239,4.859h1.62l1.62,3.239h3.239l1.62,1.62h3.239l1.62,3.239,1.62-3.239h4.859l3.239,1.62h1.62l1.62,1.62H712.4"/><path class="b" d="M712.4,1837h4.859l1.62,1.62H733.46l1.62-1.62,1.62,1.62,3.239-3.239,1.62-1.62h6.478l3.239,1.62h1.62l3.239,3.239h1.62l1.62,1.62,3.239-1.62h17.816l3.239-1.62h6.478l1.62-1.62,3.239,1.62h3.239l3.239,1.62h8.1l3.239-1.62h4.859l1.62-1.62h4.859l1.62,1.62,3.239-1.62,1.62,1.62H835.5l1.62-1.62h3.239l1.62-1.62,3.239,1.62,1.62-3.239,1.62,1.62h9.718l1.62-1.62,3.239,1.62,1.62-1.62h8.1l1.62,1.62h4.859l1.62,1.62h9.718l1.62,1.62,3.239-1.62h3.239L901.9,1837h1.62l3.239-1.62h16.2l1.62,1.62h16.2l1.62-1.62h3.239l1.62-1.62,1.62-1.62,3.239-1.62h6.478l1.62-1.62h9.718l3.239-1.62,1.62,1.62h6.478l3.239-1.62h1.62l1.62-1.62,3.239-1.62,1.62-1.62,3.239-1.62,1.62-1.62,1.62-1.62,3.239-1.62"/><path class="b" d="M1002.316,1815.943l1.62-4.859h3.239l1.62-3.239,1.62-1.62,3.239-1.62h1.62l3.239-3.239,1.62-1.62,3.239-4.859,1.62-1.62,1.62-3.239,3.239-11.337,1.62-4.859,3.239-3.239,1.62-4.859,1.62-3.239,3.239-6.478,1.62-6.479,3.239-4.859,1.62-6.478,1.62-4.859,3.239-1.62,1.62-14.577,3.239-8.1,1.62-4.859h1.62l3.239-3.239,1.62-3.239,3.239-8.1,1.62-4.859,3.239-6.479,1.62-3.239,1.62-9.718,3.239-3.239,1.62-1.62,3.239-12.957,1.62-4.859,1.62-6.479,3.239-3.239,1.62-6.478h3.239l1.62-3.239h1.62l3.239-11.337h1.62l3.239-4.859,1.62-1.62,1.62-4.859,3.239-3.239,1.62,3.239,3.239,11.337,1.62-3.239h3.239l1.62-1.62,1.62-3.239,3.239,3.239,1.62,1.62,3.239,1.62,1.62,1.62,1.62,3.239h3.239l1.62,1.62h4.859l1.62-11.337,3.239-6.478,1.62-8.1,3.239-3.239,1.62-6.479h1.62l3.239-4.859,1.62,1.62,3.239,1.62,1.62,11.337,3.239,21.055,1.62,12.957,1.62,1.62,3.239-4.859,1.62-11.337,3.239,4.859,1.62,1.62,1.62,3.239,3.239,1.62,1.62-27.533,3.239-4.859,1.62,11.337,1.62-4.859,3.239-9.718,1.62-8.1,3.239-11.337,1.62,24.294,1.62,3.239,3.239-1.62,1.62-1.62,3.239-11.337,1.62-11.337,3.239-12.957,1.62-6.479,1.62,3.239,3.239-8.1,1.62-4.859,3.239,12.957,1.62,1.62,1.62,24.294,3.239,3.239h1.62l3.239,12.957,1.62,16.2,1.62-3.239,3.239,6.479,1.62-12.957,3.239-1.62,1.62,3.239,1.62,1.62,3.239,9.718,1.62,3.239,3.239,4.859,1.62,11.337,1.62,8.1,3.239,9.718,1.62,11.337,3.239-1.62,1.62,1.62,3.239,6.479,1.62,11.337,1.62-11.337,3.239,11.337"/><path class="b" d="M1292.227,1679.9l1.62-3.239,3.239,1.62,1.62,11.337,1.62,3.239,3.239-6.478,1.62,11.337,3.239-8.1,1.62,6.479,1.62,3.239,3.239-1.62,1.62-8.1,3.239,6.479,1.62,4.859,1.62,11.337,3.239-3.239,1.62-6.479,3.239-3.239,1.62,1.62,3.239-3.239,1.62-1.62,1.62-3.239,3.239,1.62,1.62,4.859,3.239,1.62,1.62-3.239,1.62-1.62,3.239-3.239,1.62-3.239,3.239-1.62,1.62-1.62,1.62-3.239h4.859l3.239,1.62h1.62l1.62-4.859,3.239-9.718,1.62-6.479,3.239,4.859,1.62-3.239,3.239-1.62,1.62-6.478h1.62l3.239,8.1,1.62,1.62,3.239-3.239,1.62-1.62,1.62-4.859,3.239,3.239h1.62l3.239-6.478,1.62-3.239h1.62l3.239-3.239,1.62,6.479,3.239-4.859,1.62,3.239,1.62,4.859,3.239,4.859h1.62l3.239,6.479,1.62-4.859,3.239,8.1,1.62,3.239,1.62,3.239,3.239-1.62,1.62,6.479,3.239,3.239,1.62,1.62,1.62,1.62,3.239,4.859,1.62,1.62,3.239,9.718h3.239l3.239,4.859,1.62,4.859,3.239,3.239,1.62,3.239,1.62,3.239,3.239,4.859,1.62,3.239,3.239,8.1,1.62,3.239,3.239,3.239,1.62,4.859,1.62,3.239,3.239,3.239,1.62,4.859,3.239,1.62,1.62,1.62,1.62,6.478,3.239,1.62,1.62,3.239,3.239,3.239,1.62,3.239,1.62,3.239,3.239,3.239h1.62l3.239,3.239,1.62,3.239,1.62,3.239,3.239,1.62h1.62"/><text class="c" transform="translate(384.432 1859.672)"><tspan x="0" y="0">0</tspan></text><text class="c" transform="translate(384.432 1820.801)"><tspan x="0" y="0">1</tspan></text><text class="c" transform="translate(384.432 1783.55)"><tspan x="0" y="0">2</tspan></text><text class="c" transform="translate(384.432 1744.68)"><tspan x="0" y="0">3</tspan></text><text class="c" transform="translate(384.432 1705.809)"><tspan x="0" y="0">4</tspan></text><text class="c" transform="translate(384.432 1668.558)"><tspan x="0" y="0">5</tspan></text><text class="c" transform="translate(384.432 1629.687)"><tspan x="0" y="0">6</tspan></text><text class="c" transform="translate(384.432 1592.436)"><tspan x="0" y="0">7</tspan></text><text class="c" transform="translate(384.432 1553.565)"><tspan x="0" y="0">8</tspan></text><text class="c" transform="translate(384.432 1516.314)"><tspan x="0" y="0">9</tspan></text><text class="c" transform="translate(382.389 1879.108)"><tspan x="0" y="0">25/1/20</tspan></text><text class="c" transform="translate(453.128 1879.108)"><tspan x="0" y="0">25/2/20</tspan></text><text class="c" transform="translate(519.302 1879.108)"><tspan x="0" y="0">25/3/20</tspan></text><text class="c" transform="translate(590.041 1879.108)"><tspan x="0" y="0">25/4/20</tspan></text><text class="c" transform="translate(658.497 1879.108)"><tspan x="0" y="0">25/5/20</tspan></text><text class="c" transform="translate(729.236 1879.108)"><tspan x="0" y="0">25/6/20</tspan></text><text class="c" transform="translate(797.693 1879.108)"><tspan x="0" y="0">25/7/20</tspan></text><text class="c" transform="translate(868.431 1879.108)"><tspan x="0" y="0">25/8/20</tspan></text><text class="c" transform="translate(939.169 1879.108)"><tspan x="0" y="0">25/9/20</tspan></text><text class="c" transform="translate(1003.933 1879.108)"><tspan x="0" y="0">25/10/20</tspan></text><text class="c" transform="translate(1074.672 1879.108)"><tspan x="0" y="0">25/11/20</tspan></text><text class="c" transform="translate(1143.128 1879.108)"><tspan x="0" y="0">25/12/20</tspan></text><text class="c" transform="translate(1217.559 1879.108)"><tspan x="0" y="0">25/1/21</tspan></text><text class="c" transform="translate(1288.298 1879.108)"><tspan x="0" y="0">25/2/21</tspan></text><text class="c" transform="translate(1352.19 1879.108)"><tspan x="0" y="0">25/3/21</tspan></text><text class="c" transform="translate(1422.928 1879.108)"><tspan x="0" y="0">25/4/21</tspan></text><text class="c" transform="translate(1491.385 1879.108)"><tspan x="0" y="0">25/5/21</tspan></text></g></svg>