<svg xmlns="http://www.w3.org/2000/svg" width="100%" height="100%" viewBox="0 0 1255.549 438.438">
  <g id="Group_2" data-name="Group 2" transform="translate(-332.225 -1427.227)">
    <rect id="Rectangle_28" data-name="Rectangle 28" width="100%" height="100%" transform="translate(332.934 1427.935)" fill="#fff" stroke="#a7a9ac" stroke-miterlimit="10" stroke-width="1.417"/>
    <line id="Line_1" data-name="Line 1" x2="1080.183" transform="translate(418.133 1786.688)" fill="#fff" stroke="#a7a9ac" stroke-miterlimit="10" stroke-width="1.417"/>
    <path id="Path_2" data-name="Path 2" d="M418.133,1786.688v5.643m3.926-5.643v5.643m3.681-5.643v5.643m3.926-5.643v5.643m3.926-5.643v5.643m3.926-5.643v5.643m3.681-5.643v5.643m3.926-5.643v5.643m3.927-5.643v5.643m3.68-5.643v5.643m3.926-5.643v5.643m3.927-5.643v5.643m3.926-5.643v5.643m3.681-5.643v5.643m3.926-5.643v5.643m3.926-5.643v5.643m3.926-5.643v5.643m3.681-5.643v5.643m3.926-5.643v5.643m3.926-5.643v5.643m3.681-5.643v5.643m3.926-5.643v5.643m3.926-5.643v5.643m3.926-5.643v5.643m3.681-5.643v5.643m3.926-5.643v5.643m3.926-5.643v5.643m3.681-5.643v5.643m3.926-5.643v5.643m3.926-5.643v5.643m3.927-5.643v5.643m3.68-5.643v5.643m3.927-5.643v5.643m3.926-5.643v5.643m3.926-5.643v5.643m3.681-5.643v5.643m3.926-5.643v5.643m3.926-5.643v5.643m3.681-5.643v5.643m3.926-5.643v5.643m3.926-5.643v5.643m3.926-5.643v5.643m3.681-5.643v5.643m3.926-5.643v5.643m3.926-5.643v5.643m3.681-5.643v5.643m3.926-5.643v5.643m3.926-5.643v5.643m3.926-5.643v5.643m3.681-5.643v5.643m3.926-5.643v5.643m3.926-5.643v5.643m3.927-5.643v5.643m3.68-5.643v5.643m3.927-5.643v5.643m3.926-5.643v5.643m3.68-5.643v5.643m3.927-5.643v5.643m3.926-5.643v5.643m3.926-5.643v5.643m3.681-5.643v5.643m3.926-5.643v5.643m3.926-5.643v5.643m3.681-5.643v5.643m3.926-5.643v5.643m3.926-5.643v5.643m3.926-5.643v5.643m3.681-5.643v5.643m3.926-5.643v5.643m3.926-5.643v5.643m3.926-5.643v5.643m3.681-5.643v5.643m3.926-5.643v5.643m3.927-5.643v5.643m3.68-5.643v5.643m3.926-5.643v5.643m3.927-5.643v5.643m3.926-5.643v5.643m3.681-5.643v5.643m3.926-5.643v5.643m3.926-5.643v5.643m3.681-5.643v5.643m3.926-5.643v5.643m3.926-5.643v5.643m3.926-5.643v5.643m3.681-5.643v5.643m3.926-5.643v5.643m3.926-5.643v5.643m3.681-5.643v5.643m3.926-5.643v5.643m3.926-5.643v5.643m3.926-5.643v5.643m3.681-5.643v5.643m3.926-5.643v5.643m3.926-5.643v5.643m3.927-5.643v5.643m3.68-5.643v5.643m3.927-5.643v5.643m3.926-5.643v5.643m3.68-5.643v5.643m3.927-5.643v5.643m3.926-5.643v5.643m3.926-5.643v5.643m3.681-5.643v5.643m3.926-5.643v5.643m3.926-5.643v5.643m3.681-5.643v5.643m3.926-5.643v5.643m3.926-5.643v5.643m3.926-5.643v5.643m3.681-5.643v5.643m3.926-5.643v5.643m3.926-5.643v5.643m3.926-5.643v5.643m3.681-5.643v5.643m3.926-5.643v5.643m3.926-5.643v5.643m3.681-5.643v5.643m3.926-5.643v5.643m3.927-5.643v5.643m3.926-5.643v5.643m3.68-5.643v5.643m3.927-5.643v5.643m3.926-5.643v5.643m3.681-5.643v5.643m3.926-5.643v5.643m3.926-5.643v5.643m3.926-5.643v5.643m3.681-5.643v5.643m3.926-5.643v5.643m3.926-5.643v5.643m3.926-5.643v5.643m3.681-5.643v5.643m3.926-5.643v5.643m3.926-5.643v5.643m3.681-5.643v5.643m3.926-5.643v5.643m3.926-5.643v5.643m3.926-5.643v5.643m3.681-5.643v5.643m3.926-5.643v5.643m3.927-5.643v5.643m3.68-5.643v5.643m3.927-5.643v5.643m3.926-5.643v5.643m3.926-5.643v5.643m3.681-5.643v5.643m3.926-5.643v5.643m3.926-5.643v5.643m3.926-5.643v5.643m3.681-5.643v5.643m3.926-5.643v5.643m3.926-5.643v5.643m3.681-5.643v5.643m3.926-5.643v5.643m3.926-5.643v5.643m3.926-5.643v5.643m3.681-5.643v5.643m3.926-5.643v5.643m3.926-5.643v5.643m3.681-5.643v5.643m3.926-5.643v5.643m3.927-5.643v5.643m3.926-5.643v5.643m3.68-5.643v5.643m3.927-5.643v5.643m3.926-5.643v5.643m3.926-5.643v5.643m3.681-5.643v5.643m3.926-5.643v5.643m3.926-5.643v5.643m3.681-5.643v5.643m3.926-5.643v5.643m3.926-5.643v5.643m3.926-5.643v5.643m3.681-5.643v5.643m3.926-5.643v5.643m3.926-5.643v5.643m3.681-5.643v5.643m3.926-5.643v5.643m3.926-5.643v5.643m3.927-5.643v5.643m3.68-5.643v5.643m3.926-5.643v5.643m3.927-5.643v5.643m3.68-5.643v5.643m3.927-5.643v5.643m3.926-5.643v5.643m3.926-5.643v5.643m3.681-5.643v5.643m3.926-5.643v5.643m3.926-5.643v5.643m3.926-5.643v5.643m3.681-5.643v5.643m3.926-5.643v5.643m3.926-5.643v5.643m3.681-5.643v5.643m3.926-5.643v5.643m3.926-5.643v5.643m3.926-5.643v5.643m3.681-5.643v5.643m3.926-5.643v5.643m3.926-5.643v5.643m3.681-5.643v5.643m3.926-5.643v5.643m3.927-5.643v5.643m3.926-5.643v5.643m3.68-5.643v5.643m3.926-5.643v5.643m3.927-5.643v5.643m3.926-5.643v5.643m3.681-5.643v5.643m3.926-5.643v5.643m3.926-5.643v5.643m3.681-5.643v5.643m3.926-5.643v5.643m3.926-5.643v5.643m3.926-5.643v5.643m3.681-5.643v5.643m3.926-5.643v5.643m3.926-5.643v5.643m3.681-5.643v5.643m3.926-5.643v5.643m3.926-5.643v5.643m3.926-5.643v5.643m3.681-5.643v5.643m3.926-5.643v5.643m3.926-5.643v5.643m3.927-5.643v5.643m3.68-5.643v5.643m3.927-5.643v5.643m3.926-5.643v5.643m3.681-5.643v5.643m3.926-5.643v5.643m3.926-5.643v5.643m3.926-5.643v5.643m3.681-5.643v5.643m3.926-5.643v5.643m3.926-5.643v5.643m3.681-5.643v5.643m3.926-5.643v5.643m3.926-5.643v5.643m3.926-5.643v5.643m3.681-5.643v5.643m3.926-5.643v5.643m3.926-5.643v5.643m3.926-5.643v5.643m3.681-5.643v5.643m3.926-5.643v5.643m3.927-5.643v5.643m3.68-5.643v5.643m3.927-5.643v5.643m3.926-5.643v5.643m3.926-5.643v5.643m3.681-5.643v5.643m3.926-5.643v5.643m3.926-5.643v5.643m3.681-5.643v5.643m3.926-5.643v5.643m3.926-5.643v5.643m3.926-5.643v5.643m3.681-5.643v5.643m3.926-5.643v5.643m3.926-5.643v5.643m3.926-5.643v5.643m3.681-5.643v5.643m3.926-5.643v5.643m3.926-5.643v5.643m3.681-5.643v5.643m3.926-5.643v5.643m3.926-5.643v5.643m3.927-5.643v5.643m3.68-5.643v5.643m3.927-5.643v5.643m3.926-5.643v5.643m3.68-5.643v5.643m3.927-5.643v5.643m3.926-5.643v5.643m3.926-5.643v5.643m3.681-5.643v5.643m3.926-5.643v5.643" fill="#fff" stroke="#a7a9ac" stroke-miterlimit="10" stroke-width="1.417"/>
    <path id="Path_3" data-name="Path 3" d="M419.973,1786.565l3.926-.245,3.926.245,3.926-.245,3.681.245,3.926-.245h3.926l3.681-.491,3.926-.491h3.926l3.926-.736,3.681-.245,3.926.736,3.926-4.417,3.681.245,3.926-1.963,3.926-2.208,3.926-.491,3.681-2.945,3.926,2.945,3.926-14.478,3.926,6.625,3.681-7.607,3.926-5.153,3.926-5.889,3.681-7.853,3.926-14.968,3.926,3.435,3.926-8.1,3.681-14.968,3.926-11.288,3.926-3.926,3.681-22.084,3.926-.245,3.926,7.361,3.926-15.459,3.681-17.177,3.926-3.926,3.926-6.625,3.681-67.726,3.926,43.924,3.926,48.586,3.926-16.932,3.681-66.254,3.926,45.151,3.926-34.109,3.926,23.8,3.681,29.692,3.926,17.668,3.926-5.153,3.681-46.132,3.926-17.177L620.7,1619.7l3.926,8.834,3.681,9.815,3.926,48.341,3.926-16.931,3.681-41.47,3.926,24.784,3.926,10.306,3.926-4.417,3.681,8.343,3.926,56.684,3.926-36.317,3.926-24.293,3.681,13.742,3.926,15.214,3.926,7.607,3.681,6.871,3.926,27.238,3.926-10.552,3.926-27.974,3.681,3.19,3.926,16.686,3.926-7.362,3.681,29.692,3.926,8.1,3.926-12.515,3.926-24.293,3.681,18.4,3.926-6.871,3.926,13.5,3.926,5.153,3.681,19.631,3.926-7.361,3.926-20.367,3.681,10.306,3.926-20.858,3.926,27.483,3.926,4.662h3.681l3.926-.736,3.926,4.172,3.681-11.042,3.926,3.19,3.926,2.945,3.926,6.625,3.681,10.306,3.926-2.7,3.926-10.061,3.926-.736,3.681,7.116,3.926-5.4,3.926,5.644,3.681,9.079,3.926-2.7,3.926-11.042,3.926,1.472,3.681,8.589,3.926-3.19,3.926,3.681,3.681,5.644,3.926-1.227,3.926-11.533,3.926,2.945,3.681-53.249,3.926,56.929,3.926,7.361,3.926.736,3.681-.245,3.926-8.343,3.926,4.662,3.681-.736,3.926-2.208,3.926,2.944,3.926,3.435,3.681-.491,3.926-5.153,3.926-2.209,3.681,3.435,3.926-.981,3.926,3.19,3.926,1.963,3.681-.491,3.926-6.871,3.926,1.718,3.681,2.208,3.926.245,3.926.736,3.926,4.172,3.681-.736,3.926-4.172,3.926-1.963,3.926,2.454,3.681-.245,3.926,4.172,3.926,2.208,3.681-.982,3.926-4.172,3.926-.981,3.926,1.227,3.681-.245,3.926,2.209,3.926,3.926,3.681-2.7,3.926-3.19,3.926-1.472,3.926.736,3.681-.245,3.926,4.417,3.926-.491,3.926.245,3.681-5.644,3.926.245,3.926,3.435,3.681-1.718,3.926,1.473,3.926-.736,3.926-.982,3.681,2.7,3.926-3.681,3.926.245,3.681,2.945,3.926-6.871,3.926,8.1h3.926l3.681-7.607,3.926,3.926h3.926l3.926,2.454,3.681-.736,3.926,2.208,3.926-1.963,3.681-4.417,3.926-.491,3.926,3.926,3.926.982,3.681.245,3.926.245,3.926-2.945,3.681-2.454,3.926.736,3.926-4.908,3.926,10.061,3.681-3.435,3.926,3.681,3.926-4.662,3.926-3.926,3.681,2.209,3.926-.245,3.926,4.662,3.681,1.227,3.926-4.908,3.926-1.472,3.926-14.969,3.681,11.042h3.926l3.926-1.718,3.681,7.116,3.926-1.963,3.926-4.908,3.926-4.172,3.681,1.963,3.926-.736,3.926,2.7,3.926.981,3.681.491,3.926-2.208,3.926-9.325,3.681.982,3.926,3.435,3.926.245,3.926,4.172,3.681,4.907,3.926-15.95,3.926-1.472,3.681-2.454,3.926-1.963,3.926,11.778,3.926-7.361,3.681,2.454,3.926,3.435,3.926-23.066,3.681,1.718,3.926-3.926,3.926,6.625,3.926,4.662,3.681-3.926,3.926-5.153,3.926-14.232,3.926-5.644,3.681-4.171,3.926,3.926,3.926,6.38h3.681l3.926-8.834,3.926-35.335,3.926,4.662,3.681-2.454,3.926-7.116,3.926,13.742,3.681,7.852,3.926-12.76,3.926-114.84,3.926,59.383,3.681,8.343,3.926-13.005,3.926,35.826,3.926,12.024,3.681-30.182,3.926-70.671,3.926,29.2,3.681,9.079,3.926-2.7,3.926,31.164,3.926,14.478,3.681-49.568,3.926-47.359,3.926,27.974,3.681,3.436,3.926-31.409,3.926,88.829,3.926,12.515,3.681-70.916,3.926-48.1,3.926,27.974,3.926,5.4,3.681-16.2,3.926,78.278,3.926,8.588" fill="none" stroke="#d02f34" stroke-linecap="round" stroke-linejoin="round" stroke-width="4.601"/>
    <text id="_0" data-name="0" transform="translate(382.389 1791.789)" fill="#606060" font-size="14.314" font-family="IBMPlexSans, IBM Plex Sans"><tspan x="0" y="0">0</tspan></text>
    <text id="_1" data-name="1" transform="translate(382.389 1760.35)" fill="#606060" font-size="14.314" font-family="IBMPlexSans, IBM Plex Sans"><tspan x="0" y="0">1</tspan></text>
    <text id="_2" data-name="2" transform="translate(382.389 1728.926)" fill="#606060" font-size="14.314" font-family="IBMPlexSans, IBM Plex Sans"><tspan x="0" y="0">2</tspan></text>
    <text id="_3" data-name="3" transform="translate(382.389 1697.502)" fill="#606060" font-size="14.314" font-family="IBMPlexSans, IBM Plex Sans"><tspan x="0" y="0">3</tspan></text>
    <text id="_4" data-name="4" transform="translate(382.389 1666.077)" fill="#606060" font-size="14.314" font-family="IBMPlexSans, IBM Plex Sans"><tspan x="0" y="0">4</tspan></text>
    <text id="_5" data-name="5" transform="translate(382.389 1634.653)" fill="#606060" font-size="14.314" font-family="IBMPlexSans, IBM Plex Sans"><tspan x="0" y="0">5</tspan></text>
    <text id="_6" data-name="6" transform="translate(382.389 1603.229)" fill="#606060" font-size="14.314" font-family="IBMPlexSans, IBM Plex Sans"><tspan x="0" y="0">6</tspan></text>
    <text id="_7" data-name="7" transform="translate(382.389 1571.806)" fill="#606060" font-size="14.314" font-family="IBMPlexSans, IBM Plex Sans"><tspan x="0" y="0">7</tspan></text>
    <text id="_8" data-name="8" transform="translate(382.389 1540.366)" fill="#606060" font-size="14.314" font-family="IBMPlexSans, IBM Plex Sans"><tspan x="0" y="0">8</tspan></text>
    <text id="_9" data-name="9" transform="translate(382.389 1508.958)" fill="#606060" font-size="14.314" font-family="IBMPlexSans, IBM Plex Sans"><tspan x="0" y="0">9</tspan></text>
    <text id="FEB" transform="translate(406.329 1815.704)" fill="#606060" font-size="14.314" font-family="IBMPlexSans, IBM Plex Sans"><tspan x="0" y="0">FEB</tspan></text>
    <text id="MAR" transform="translate(517.599 1815.704)" fill="#606060" font-size="14.314" font-family="IBMPlexSans, IBM Plex Sans"><tspan x="0" y="0">MAR</tspan></text>
    <text id="APR" transform="translate(636.457 1815.704)" fill="#606060" font-size="14.314" font-family="IBMPlexSans, IBM Plex Sans"><tspan x="0" y="0">APR</tspan></text>
    <text id="MAY" transform="translate(749.597 1815.704)" fill="#606060" font-size="14.314" font-family="IBMPlexSans, IBM Plex Sans"><tspan x="0" y="0">MAY</tspan></text>
    <text id="JUN" transform="translate(868.214 1815.704)" fill="#606060" font-size="14.314" font-family="IBMPlexSans, IBM Plex Sans"><tspan x="0" y="0">JUN</tspan></text>
    <text id="JUL" transform="translate(986.035 1815.704)" fill="#606060" font-size="14.314" font-family="IBMPlexSans, IBM Plex Sans"><tspan x="0" y="0">JUL</tspan></text>
    <text id="AUG" transform="translate(1097.432 1815.704)" fill="#606060" font-size="14.314" font-family="IBMPlexSans, IBM Plex Sans"><tspan x="0" y="0">AUG</tspan></text>
    <text id="SEP" transform="translate(1216.739 1815.704)" fill="#606060" font-size="14.314" font-family="IBMPlexSans, IBM Plex Sans"><tspan x="0" y="0">SEP</tspan></text>
    <text id="OCT" transform="translate(1330.468 1815.704)" fill="#606060" font-size="14.314" font-family="IBMPlexSans, IBM Plex Sans"><tspan x="0" y="0">OCT</tspan></text>
    <text id="NOV" transform="translate(1444.42 1815.704)" fill="#606060" font-size="14.314" font-family="IBMPlexSans, IBM Plex Sans"><tspan x="0" y="0">NOV</tspan></text>
  </g>
</svg>
