<svg xmlns="http://www.w3.org/2000/svg" width="100%" height="100%" viewBox="0 0 1255.549 456.448">
  <g id="Group_706" data-name="Group 706" transform="translate(-332.225 -2418.344)">
    <line id="Line_2" data-name="Line 2" y1="290.207" transform="translate(531.428 2526.421)" fill="none" stroke="#a7a9ac" stroke-miterlimit="10" stroke-width="1.417"/>
    <line id="Line_3" data-name="Line 3" x2="860.584" transform="translate(531.428 2816.628)" fill="none" stroke="#a7a9ac" stroke-miterlimit="10" stroke-width="1.417"/>
    <path id="Path_42" data-name="Path 42" d="M536.64,2804.133l2.673-.131,2.643-.075,2.549-.15,2.49-.318,1.137-.281,1.178-.375,2.612-1.012,1.4-.543,1.48-.449,1.583-.338,1.657-.093,1.012.093.963.263.867.356.811.412,1.43.861,1.292.843,1.188.656.464.206.4.131.311.056h.266l.221-.056.227-.112.337-.244.465-.506.539-.73.592-.937.626-1.1.648-1.18,1.309-2.6,1.351-2.641.693-1.255.714-1.2.755-1.124.824-.993.931-.862,1.144-.693,1.315-.3,1.3.113,1.122.393.955.581.834.656.8.73,1.392,1.517,1.328,1.48.6.637.554.525.476.393.4.244.221.093h.112l.244-.018.375-.113.412-.187.449-.262,1.162-.881,1.217-1.1,1.312-1.274,1.367-1.33,1.424-1.274,1.517-1.1,1.443-.862,1.386-.768,2.716-1.348,2.66-1.256,2.6-1.33,2.622-1.423,2.623-1.424,2.6-1.5,2.6-1.648,2.641-1.723,2.6-1.724,1.236-.918,1.237-1.03,1.217-1.143,1.218-1.292.581-.731.6-.843.618-.955.618-1.068,1.312-2.36,1.33-2.473,1.367-2.417.693-1.161.712-1.087.749-1.03.787-.918.862-.824.993-.693,1.124-.487,1.161-.169,1.1.075,1.031.281.9.412.862.469,1.442,1.011,1.293.974,1.161.768.431.206.374.132.244.037h.187l.974-.262,1.068-.469,1.124-.655,1.18-.843,1.237-1.012,1.236-1.161,1.274-1.274,1.255-1.367,1.255-1.5,1.255-1.761,1.293-1.967,1.311-2.1,1.33-2.154,1.33-2.154,1.386-2.08,1.368-1.91,2.679-3.485,1.367-1.7,1.349-1.63,1.386-1.574,1.386-1.461,1.424-1.33,1.461-1.218.88-.58.918-.431.918-.319.881-.187,1.5-.169,1.33-.093,1.124-.131.431-.094.431-.169.412-.206.45-.3.449-.412.506-.562.543-.787.6-1.031.6-1.236.637-1.424.637-1.573.674-1.649,1.312-3.484,1.348-3.484.675-1.686.674-1.611.712-1.5.731-1.348.749-1.2.843-1.049.862-.825.9-.655.918-.525.974-.337.955-.206,1.012-.056,1.686.168,1.648.487,1.443.6,1.367.618,1.368.6.843.431.9.637.8.731.749.749,1.387,1.592,1.311,1.536,1.236,1.33.525.488.468.355.337.188.225.075h.075l.075-.019.225-.112.412-.338.506-.524.543-.693.6-.862.619-.993.637-1.068.636-1.18,1.312-2.51,1.33-2.6,1.367-2.529.693-1.217.675-1.106,1.33-2.135,1.311-2.229,1.311-2.3,1.349-2.3,1.349-2.23,1.405-2.079,1.4-1.892.768-.862.749-.768.787-.712.88-.636,1.574-.881,1.592-.581,1.5-.393,2.66-.468,1.161-.3,1.255-.468.525-.15.655-.15.675-.094.674-.075,1.443-.206,1.442-.3,1.405-.506.543-.281.506-.356.45-.412.356-.469.318-.562.262-.749.3-1.18.318-1.5.338-1.761.318-1.91.319-2.136.337-2.285.318-2.435L771,2644.4l.338-2.679.318-2.753.674-5.77.675-5.938.655-5.976.656-5.882.337-2.866.337-2.791.319-2.679.356-2.585.318-2.473.337-2.323.338-2.154.337-2,.337-1.8.356-1.63.337-1.4.394-1.237.43-1.049.637-1.011,1.049-.843,1.48-.244,1.33.543.806.843.506.843.43.9.356.993.375,1.124.356,1.237.337,1.367.337,1.461.356,1.592.319,1.668.337,1.761.674,3.746.656,3.971.674,4.122.675,4.2.655,4.158.675,4.084.655,3.9.337,1.854.319,1.761.318,1.667.338,1.592.674,3.26.674,3.54.656,3.747.674,3.859.656,3.953.674,3.971.656,3.971.674,3.878.656,3.746.656,3.541.655,3.334.319,1.536.337,1.443.337,1.367.3,1.274.337,1.143.319,1.049.3.88.3.768.262.581.206.393.038.057-.094-.094-.206-.112-.375-.075-.243.037.131-.075.431-.431.562-.73.655-1.049.712-1.255.712-1.443.712-1.592.693-1.742.674-1.817,1.274-3.841,1.068-3.858.318-1.368.319-1.592.318-1.78.338-1.948.318-2.1.337-2.248.319-2.342.337-2.491.337-2.548.319-2.6.674-5.432.656-5.545.674-5.507.656-5.433.337-2.622.337-2.529.318-2.473.338-2.342.337-2.248.337-2.1.337-1.967.337-1.8.356-1.648.337-1.443.356-1.274.394-1.1.468-1.011.768-1.049,1.611-.787,1.724.6.88,1.012.506.993.393,1.049.375,1.18.337,1.386.356,1.5.337,1.667.337,1.8.337,1.911.338,2.023.337,2.079.337,2.155.656,4.458.655,4.5.675,4.4.318,2.117.337,2.023.319,1.948.337,1.8.337,1.686.3,1.517.337,1.33.3,1.143.281.861.243.544.075.131-.412-.356-1.011-.131-.619.337-.018.037.15-.262.243-.562.3-.768.3-.955.318-1.143.318-1.218.319-1.367.337-1.461.337-1.555.656-3.278.674-3.447.656-3.484.656-3.447.674-3.279.337-1.554.356-1.5.337-1.367.337-1.293.356-1.18.356-1.068.394-.955.449-.862.562-.843.843-.712,1.012-.374,1.011-.038.9.262.769.412.6.562.487.544.431.618.431.693.73,1.461.712,1.686.693,1.873.675,2.023.674,2.136.674,2.229,1.33,4.534.656,2.229.674,2.154.637,2.042.656,1.873.656,1.873.693,2,1.33,4.158,1.33,4.346,1.33,4.384,1.33,4.327,1.311,4.14.656,1.948.655,1.874.656,1.742.637,1.648,1.33,3.185,1.311,3.109,1.312,2.923,1.292,2.678.618,1.2.637,1.106.618,1.011.6.881.562.749.543.581.487.449.375.262.131.057.131.018.768.019,1.012-.243,1.2-.506,1.236-.806,1.18-1.086,1.087-1.424.43-.73.413-.9.3-.786.3-.918.318-1.012.319-1.124.656-2.491.655-2.773.656-3,.655-3.185L889.9,2663l.655-3.391,1.331-6.837.674-3.335.674-3.222.656-3.053.674-2.848.675-2.6.356-1.2.337-1.087,1.292-3.9,1.349-3.765.674-1.8.712-1.742.712-1.611.693-1.517.731-1.405.768-1.274.768-1.1.862-.993,1.011-.824,1.237-.581,1.461-.169,1.386.469.787.543.562.618.449.637.431.693.375.768.393.806.693,1.817.693,2.023.675,2.21.674,2.361.675,2.435,1.33,5,.655,2.435.656,2.3.637,2.154.655,1.93.637,1.667.281.655.281.6.581,1.011.581.9.562.768.58.674.581.6.562.524,1.218.937,1.274.843,1.367.861,1.442,1.012,1.33,1.124.918.73,1.162.712,1.48.843,1.667,1.087,1.667,1.348.881.843.843.937.768,1.049.73,1.18.637,1.293.543,1.405.375,1.161.337,1.255.356,1.387.356,1.479.318,1.593.338,1.686.337,1.761.337,1.854.656,3.859.674,4.065.674,4.159.656,4.177.656,4.1.674,3.952.656,3.728.318,1.742.337,1.63.338,1.555.3,1.442.337,1.274.319,1.18.3.993.3.805.244.619.206.355.168.225.038.038-.075-.056-.243-.075h-.281l-.206.056-.094.056.037-.037.431-.525.543-.862.581-1.2.618-1.461.637-1.686.675-1.835.636-1.967.656-2.061,1.349-4.159.656-2.06.674-1.948.318-.956.3-1.03.337-1.162.319-1.217.655-2.679.656-2.922.656-3.091.674-3.2.656-3.26.655-3.222.675-3.166.674-3.016.674-2.81.338-1.311.337-1.255.356-1.161.337-1.087.375-1.03.355-.9.394-.843.431-.75.506-.73.749-.675.918-.468,1.086-.131,1.068.262.806.506.6.562.506.637.412.655.412.731.712,1.592.712,1.836.693,2.023.655,2.136.675,2.229.674,2.267.656,2.229.655,2.154.637,1.986.656,1.8.618,1.536.281.6.281.524,1.293,2.192,1.292,2.023,1.274,1.836,1.236,1.592,1.2,1.349,1.143,1.011,1.087.75.43.206.375.15.169.018.168-.018.281-.075.394-.206.487-.338.562-.43,1.255-1.106,1.367-1.217.75-.618.786-.581.9-.525.992-.393,1.087-.225,1.086.019.656.131.674.15,1.424.468,1.7.712,1.817,1.03,1.8,1.368.9.862.843.955.787,1.049.712,1.18.618,1.274.506,1.367.375,1.293.337,1.405.337,1.536.356,1.7.318,1.835.356,1.949.319,2.06.337,2.136.337,2.266.337,2.286.675,4.758.655,4.889.656,4.889.656,4.8.674,4.571.318,2.191.338,2.08.318,1.967.337,1.854.337,1.724.319,1.554.318,1.368.319,1.218.281.974.281.712.187.393-.431-.281-.787-.075-.505.225-.094.093.131-.206.244-.449.262-.637.3-.862.318-.955.3-1.1.337-1.218.318-1.311.656-2.9.656-3.147.655-3.334.675-3.41.655-3.428.675-3.353.674-3.2.674-2.979.338-1.386.337-1.293.356-1.217.356-1.068,1.33-3.99,1.33-4.028,1.33-3.933.674-1.892.675-1.8.693-1.723.693-1.611.693-1.461.73-1.368.768-1.2.843-1.049.956-.9,1.217-.712,1.537-.225,1.442.413,1.124.749.918.937.787,1.049.749,1.161.712,1.274.693,1.349,1.349,2.828,1.33,2.866.637,1.33.655,1.274.618,1.162.619,1.03,1.348,2.117,1.33,2.248,2.642,4.5,1.311,2.117,1.274,1.93,1.255,1.723,1.2,1.386,1.161,1.087,1.124.862,1.18.693,1.18.58,1.256.525,1.311.524,1.405.581,1.292.618,1.012.394,1.086.243,1.349.244,1.555.3,1.667.525.9.412.862.506.862.637.824.768.787.918.712,1.049.412.712.374.768.712,1.648.693,1.892.693,2.061.656,2.191.693,2.3,1.312,4.683.655,2.323.675,2.21.655,2.1.637,1.911.618,1.63.618,1.367.263.525.262.393.206.281.094.131.3.206.113.056h.037l.15-.018.262-.113.375-.243.506-.412.543-.562.581-.712.6-.806,1.293-1.948,1.274-2.173,1.236-2.285.618-1.274.637-1.518.618-1.76.656-1.986.656-2.1.655-2.229,1.33-4.59.656-2.3.693-2.229.656-2.136.693-2.023.693-1.854.712-1.668.73-1.4.412-.694.487-.618.843-.918,1.012-.768,1.068-.5,1.124-.263h1.124l1.067.225.974.375.881.487.787.543.8.637,1.424,1.33,1.349,1.367,1.367,1.368.749.843.787,1.03.712,1.124.731,1.2,1.348,2.566,1.349,2.623,1.293,2.491.637,1.106.618,1.011.581.824.505.637.431.412.206.132-.093-.019-.113.019.15-.075.393-.319.525-.543.6-.674,1.293-1.649.712-.9.768-.843.824-.787.993-.73,1.236-.506,1.518-.056,1.367.562.674.524.525.543.487.619.412.693.375.693.393.8.712,1.705.693,1.929.674,2.1.675,2.247.674,2.361.656,2.416,1.33,4.815.656,2.341.655,2.192.656,2.042.637,1.817.618,1.555.581,1.217,1.124,1.836,1.2,1.592,1.181,1.274,1.161.956,1.1.655,1.031.394.337.075.374.037.356-.019.263-.056.356-.15.43-.225.469-.337.524-.468.562-.581.581-.655,1.236-1.63,1.274-1.93,1.293-2.154,1.311-2.3,1.293-2.342.618-1.236.637-1.442.637-1.649.636-1.817.656-1.948.674-1.986,1.33-4.046.675-1.967.674-1.873.693-1.761.712-1.63.731-1.424.787-1.217.487-.581.543-.524.637-.487.843-.338.955-.131.918.169.768.356.693.487.937,1.049.805,1.255.731,1.367.712,1.536.674,1.649.674,1.686,1.33,3.372.656,1.573.618,1.443.6,1.217.562.937.506.637.074.075-.074-.038h0l.112-.037.337-.187.468-.413.562-.524,1.255-1.443,1.349-1.592.75-.787.8-.73.918-.693,1.086-.525,1.293-.262,1.349.206,1.142.525.956.693.843.8.768.9.73.956.731,1.03,1.349,2.173,1.349,2.21,1.292,2.117.618.918.6.843.58.712.544.562.505.45.487.355,1.124.619,1.143.487,1.311.468,1.462.543,1.536.806.824.543.805.637.825.768.786.9.768,1.049.769,1.237.711,1.348.675,1.443.674,1.48.693,1.554,1.33,3.129.637,1.5.656,1.424.637,1.33.618,1.162.562.955.543.712.412.449.225.15.15.038.15.018.206-.037.281-.094.393-.225.487-.374.525-.468.562-.581,1.236-1.5,1.274-1.7,1.33-1.873,1.292-1.836.6-.918.618-1.067.618-1.237.637-1.386,1.311-3.053,1.331-3.166.674-1.555.693-1.536.693-1.405.712-1.33.749-1.2.824-1.086.975-.937,1.18-.693.936-.187.956.037,1.33.525,1.086.9.862,1.049.731,1.1.73,1.2.693,1.255.675,1.274.637,1.217.655,1.143.6.993.543.768.431.487.281.206-.113-.056-.187-.019-.244.019-.168.056-.075.056.094-.093.206-.263.224-.374.263-.525.3-.6.619-1.518.637-1.742.674-1.948.637-2.061.674-2.1.656-2.1.693-2,.693-1.873.693-1.686.375-.768.393-.731.45-.693.468-.6.618-.6.787-.468.993-.3,1.161.131.918.469.656.561.524.637.45.675.393.73.394.806.712,1.742.674,1.986.693,2.191.674,2.361.675,2.416,1.33,4.927.656,2.379.655,2.248.637,2.042.637,1.8.3.749.3.675.281.562.244.431.468.674.469.506.449.412.487.356.487.281.431.187,1.143.3,1.2.168,1.292.075,1.368.075,1.311.169,2.548.356,2.454.075,2.491-.131,2.454-.3,1.087-.244,1.124-.43,1.236-.581,1.367-.675,1.48-.618,1.611-.506,1.705-.206,1.049.057,1.012.224,1.011.431.955.618.843.712.787.806,1.4,1.667,1.33,1.686,1.274,1.536.562.6.506.469.412.3.281.131.131.018-.037.019.093-.037.319-.244.449-.487.544-.73.618-.9.618-1.03,1.311-2.323,1.33-2.416.693-1.18.712-1.143.768-1.068.824-.937.9-.843,1.086-.636,1.124-.338,1.087-.093,1.03.093.974.263.862.356.88.449,1.48.993,1.405,1.086,1.292,1.049,1.218.881,1.124.656,2.529,1.142,2.641,1.1,2.7,1.181,2.716,1.255,2.735,1.423,2.679,1.462,5.32,3-.693,1.236-5.32-2.978-2.66-1.462-2.7-1.386-2.679-1.255-2.66-1.142-2.66-1.124-2.6-1.181-1.255-.73-1.292-.937-1.312-1.068-1.367-1.049-1.367-.918-.75-.393-.73-.281-.75-.225-.786-.056-.825.056-.805.244-.806.487-.749.674-.712.843-.693.956-.674,1.086-.675,1.162-1.348,2.4-1.312,2.361-.655,1.067-.637.975-.618.824-.6.618-.562.412-.468.206-.431.019-.468-.113-.562-.243-.562-.431-.619-.543-.618-.693-1.33-1.574-1.311-1.686-1.368-1.611-.693-.712-.73-.618-.768-.487-.768-.337-.787-.169-.787-.037-1.461.168-1.424.45-1.367.581-1.349.655-1.311.6-1.255.487-1.237.3-2.585.3-2.6.131-2.6-.074-2.6-.356-1.255-.169-1.33-.075-1.33-.075-1.349-.187-1.33-.356-.6-.262-.637-.356-.6-.431-.581-.525-.562-.637-.543-.786-.318-.525-.3-.618-.319-.731-.318-.8-.674-1.855-.656-2.079-.656-2.267-.655-2.4-1.33-4.927-.656-2.417-.674-2.323-.675-2.154-.674-1.929-.675-1.667-.355-.731-.338-.637-.393-.562-.393-.487-.431-.375-.525-.262-.618-.075-.543.15-.487.3-.431.412-.375.487-.374.562-.338.656-.356.73-.674,1.611-.674,1.836-.675,1.967-.655,2.079-.675,2.1-.655,2.08-.675,1.967-.637,1.8-.655,1.573-.319.656-.318.6-.3.487-.281.374-.243.263-.206.131-.169.056-.15.019-.15-.038-.187-.075-.525-.393-.6-.656-.618-.88-.637-1.068-.675-1.161-.655-1.256-.656-1.255-.674-1.217-.693-1.143-.693-1.03-.731-.881-.787-.655-.9-.356-.525-.019-.543.112-.843.487-.749.731-.731.937-.693,1.1-.674,1.274-.674,1.367-.675,1.5-.674,1.536-1.311,3.166-1.331,3.072-.655,1.424-.656,1.292-.655,1.143-.637.974-1.312,1.854-1.33,1.892-1.311,1.761-1.293,1.555-.636.656-.619.543-.6.468-.581.319-.524.206-.506.075-.506-.038-.487-.168-.524-.356-.562-.618-.637-.843-.637-1.049-.637-1.218-.656-1.349-.674-1.461-.656-1.517-1.311-3.11-.674-1.555-.675-1.461-.674-1.405-.675-1.274-.693-1.142-.693-.956-.712-.805-.73-.675-.693-.562-.731-.468-1.4-.73-1.349-.525-1.33-.468-1.273-.525-1.256-.712-.618-.43-.6-.544-.618-.655-.637-.787-.656-.881-.656-.974-1.311-2.135-1.33-2.211-1.33-2.116-.693-.993-.674-.9-.712-.806-.712-.693-.768-.562-.824-.375-.881-.15-.88.188-.806.393-.749.562-.712.637-.693.731-1.33,1.573-1.311,1.48-.637.618-.6.506-.543.337-.468.169h-.45l-.449-.15-.206-.131-.244-.244-.6-.768-.637-1.068-.637-1.311-.656-1.48-.656-1.592-1.33-3.391-.655-1.667-.675-1.611-.693-1.48-.674-1.292-.712-1.087-.749-.843-.469-.337-.468-.225-.524-.075-.544.057-.505.206-.431.318-.412.393-.375.469-.712,1.086-.674,1.33-.675,1.555-.674,1.724-.674,1.835-.675,1.948-1.311,4.047-.674,2-.656,1.948-.656,1.836-.655,1.705-.656,1.5-.656,1.312-1.33,2.379-1.311,2.323-1.311,2.191-1.33,1.986-1.274,1.723-.656.712-.618.656-.618.543-.6.431-.6.318-.562.207-.487.112-.525.019-.562-.038-.561-.112-1.237-.487-1.311-.768-1.311-1.087-1.312-1.405-1.274-1.7-1.2-1.967-.637-1.312-.637-1.629-.675-1.874-.655-2.06-.656-2.229-.656-2.342-1.33-4.833-.674-2.4-.656-2.341-.674-2.23-.674-2.079-.675-1.873-.674-1.63-.356-.731-.337-.636-.356-.581-.394-.506-.393-.412-.45-.337-.9-.375-.936.038-.862.356-.768.561-.712.675-.712.787-.674.843-1.311,1.667-.656.749-.618.637-.562.45-.487.262-.412.056-.413-.112-.505-.338-.6-.543-.618-.768-.618-.918-.656-1.049-.655-1.142-1.312-2.529-1.348-2.623-1.33-2.51-.694-1.162-.674-1.049-.712-.955-.693-.768-1.33-1.33-1.349-1.349-1.348-1.274-.712-.562-.712-.487-.731-.412-.768-.3-.8-.169h-.806l-.824.187-.787.375-.787.618-.73.768-.375.506-.356.581-.693,1.33-.674,1.573-.675,1.8-.674,1.985-.656,2.117-.674,2.229-.674,2.286-1.312,4.589-.674,2.248-.656,2.117-.655,2.023-.656,1.8-.656,1.611-.655,1.33-1.274,2.342-1.293,2.229-1.33,2-.655.88-.637.768-.637.656-.618.524-.581.356-.524.225-.488.075-.468-.038-.468-.206-.525-.393-.262-.281-.281-.393-.3-.506-.318-.6-.656-1.423-.637-1.724-.655-1.948-.656-2.1-.674-2.248-.656-2.323-1.33-4.683-.674-2.285-.656-2.173-.674-2.024-.675-1.835-.693-1.574-.337-.693-.356-.637-.637-.937-.674-.786-.712-.656-.731-.543-.749-.431-.749-.356-1.5-.45-1.461-.3-1.368-.244-1.236-.262-1.143-.45-1.311-.637-1.367-.562-1.312-.524-1.311-.562-1.274-.618-1.274-.768-1.255-.937-1.292-1.2-1.274-1.48-1.311-1.8-1.293-1.986-1.33-2.154-2.66-4.5-1.311-2.229-1.349-2.117-.637-1.068-.656-1.2-.655-1.312-.656-1.367-1.33-2.866-1.33-2.792-.674-1.311-.675-1.217-.712-1.068-.693-.937-.749-.768-.824-.524-.918-.281-.955.149-.843.488-.769.711-.73.9-.693,1.1-.675,1.274-.674,1.423-.693,1.555-.656,1.705-.674,1.779-.656,1.855-1.348,3.915-1.312,4.028-1.349,3.99-.337,1.049-.337,1.18-.337,1.255-.337,1.367-.656,2.941-.674,3.185-.675,3.353-.655,3.41-.675,3.428-.655,3.334-.656,3.166-.656,2.922-.337,1.349-.337,1.255-.318,1.124-.319,1.012-.337.9-.3.749-.3.562-.262.412-.206.169-.056.037h.056l-.075-.056-.225-.3-.281-.562-.318-.843-.319-1.03-.318-1.274-.337-1.405-.319-1.592-.337-1.723-.337-1.874-.318-1.985-.338-2.1-.318-2.192-.674-4.59-.675-4.795-.655-4.889-.656-4.871-.675-4.758-.318-2.286-.337-2.247-.337-2.136-.338-2.042-.337-1.929-.318-1.817-.337-1.686-.356-1.518-.319-1.367-.356-1.2-.449-1.255-.562-1.162-.637-1.049-.712-.955-.768-.862-.806-.768-1.648-1.255-1.667-.936-1.555-.675-1.33-.412-.581-.15-.506-.093-.805-.019-.806.168-.768.319-.749.431-.693.524-.693.562-1.349,1.2-1.292,1.143-.637.506-.619.393-.562.3-.543.168-.506.038-.487-.075-.562-.225-.6-.281-1.236-.862L990.121,2694l-1.274-1.442-1.311-1.649-1.293-1.91-1.33-2.061-1.311-2.229-.319-.6-.318-.675-.656-1.573-.655-1.855-.656-2.023-.656-2.173-.655-2.229-.675-2.267-.674-2.21-.656-2.117-.674-1.986-.674-1.761-.694-1.5-.355-.656-.356-.562-.394-.487-.412-.393-.487-.319-.581-.15-.58.075-.544.281-.468.431-.375.543-.374.637-.337.768-.356.824-.338.975-.337,1.049-.337,1.142-.337,1.237-.337,1.292-.656,2.791-.674,2.979-.675,3.147-.655,3.222-.656,3.26-.674,3.222-.656,3.09-.656,2.941-.674,2.717-.319,1.255-.337,1.161-.318,1.068-.337.993-.656,1.929-.674,2.061-1.33,4.159-.656,2.06-.656,1.986-.674,1.854-.656,1.724-.637,1.536-.637,1.292-.636,1.012-.581.693-.244.206-.187.094-.15.056h-.112l-.15-.056-.206-.131-.225-.225-.281-.375-.281-.506-.3-.73-.337-.862-.318-1.068-.319-1.2-.337-1.312-.318-1.461-.338-1.573-.337-1.668-.318-1.742-.656-3.746-.674-3.972-.656-4.1-.674-4.178-.656-4.158-.674-4.046-.656-3.859-.337-1.836-.337-1.761-.338-1.649-.318-1.573-.337-1.461-.356-1.349-.319-1.218-.355-1.086-.506-1.311-.581-1.181-.656-1.067-.711-.956-.75-.843-.787-.768-1.573-1.255-1.574-1.011-1.461-.862-1.236-.749-1.012-.806-1.292-1.1-1.368-.937-1.348-.861-1.349-.881-1.293-1.011-.637-.581-.655-.656-.637-.749-.618-.843-.637-.974-.619-1.1-.318-.656-.3-.731-.655-1.7-.675-1.986-.655-2.173-.656-2.342-.656-2.435-1.33-5-.655-2.436-.675-2.323-.674-2.191-.675-1.967-.674-1.742-.356-.75-.337-.693-.356-.6-.393-.525-.394-.431-.487-.337-.88-.3-.918.094-.862.412-.768.637-.73.843-.712,1.012-.712,1.2-.693,1.33-.693,1.461-.693,1.592-.675,1.705-.693,1.779L898.593,2632l-1.293,3.859-.337,1.068-.337,1.18-.675,2.566-.655,2.81-.675,3.035-.655,3.2-.675,3.335-1.33,6.818-.655,3.41-.675,3.315-.655,3.2-.656,3.016-.674,2.791-.656,2.529-.337,1.161-.319,1.049-.318.956-.337.843-.45,1.011-.506.881-1.217,1.592-1.368,1.255-1.442.937-1.424.6-1.311.3h-1.1l-.412-.113-.356-.149-.581-.394-.6-.562-.619-.674-.637-.843-.636-.937L873.36,2684l-.656-1.143-.655-1.255-1.312-2.716-1.311-2.941-1.33-3.128-1.33-3.2-.656-1.686-.655-1.76-.675-1.911-.655-1.967-1.312-4.14-1.33-4.346-1.33-4.383-1.33-4.328-1.33-4.14-.674-1.985-.656-1.874-.655-1.892-.656-2.06-.674-2.173-.656-2.229-1.33-4.534-.674-2.21-.656-2.136-.674-1.985-.675-1.817-.693-1.611-.674-1.368-.375-.6-.356-.506-.375-.45-.43-.374-.469-.263-.524-.15-.562.019-.562.206-.506.431-.393.6-.375.73-.356.862-.337.993-.356,1.142-.319,1.256-.337,1.348-.337,1.461-.337,1.537-.674,3.278-.656,3.428-.656,3.5-.674,3.447-.656,3.3-.337,1.554-.337,1.48-.319,1.387-.337,1.273-.337,1.162-.318,1.011-.319.843-.3.693-.281.45-.206.244h-.018l.112.018-.075-.075-.243-.412-.3-.693-.319-.955-.318-1.18-.337-1.387-.319-1.554-.337-1.705-.337-1.817-.319-1.948-.337-2.042-.318-2.136-.675-4.4-.674-4.5-.656-4.439-.337-2.155-.318-2.079-.337-2.005-.338-1.91-.337-1.78-.337-1.63-.337-1.461-.337-1.33-.338-1.124-.356-.918-.393-.768-.506-.6-.8-.281-.75.393-.487.637-.374.824-.356.993-.337,1.218-.338,1.386-.337,1.611-.318,1.78-.337,1.929-.356,2.1-.319,2.229-.337,2.342-.318,2.454-.338,2.529-.337,2.623-.655,5.413-.675,5.508-.655,5.545-.675,5.432-.318,2.623-.337,2.547-.338,2.492-.318,2.36-.337,2.248-.319,2.117-.337,1.967-.337,1.817-.319,1.611-.337,1.423-1.086,3.916-1.293,3.9-.693,1.855-.693,1.779-.749,1.649-.731,1.5-.749,1.33-.712,1.124-.674.881-.6.6-.506.3-.318.075-.075-.019-.131-.056-.131-.131-.188-.244-.3-.524-.3-.675-.319-.843-.318-.936-.337-1.087-.337-1.161-.319-1.293-.337-1.386-.318-1.48-.338-1.555-.655-3.334-.675-3.559-.655-3.766-.656-3.877-.656-3.99-.674-3.972-.674-3.952-.656-3.84-.656-3.728-.674-3.522-.674-3.241-.338-1.611-.318-1.686-.337-1.779-.337-1.855-.656-3.915-.674-4.084-.656-4.158-.656-4.2-.674-4.121-.674-3.952-.656-3.728-.337-1.742-.319-1.667-.337-1.555-.356-1.443-.318-1.33-.338-1.2-.355-1.067-.338-.9-.374-.786-.375-.637-.487-.506-.674-.281-.712.112-.581.469-.431.693-.356.88-.356,1.143-.337,1.349-.337,1.573-.337,1.78-.319,1.967-.337,2.135-.337,2.323-.337,2.454-.337,2.566-.319,2.7-.337,2.772-.337,2.867-.656,5.863-.656,5.976-.674,5.938-.674,5.77-.319,2.791-.337,2.678-.337,2.567-.319,2.454-.337,2.285-.318,2.155L770.78,2656l-.338,1.779-.318,1.536-.319,1.274-.337.937-.431.768-.505.656-.6.543-.674.468-.693.356-1.593.581-1.592.337-1.5.206-.675.075-.618.094-.543.112-.412.131-1.312.468-1.273.338-2.642.468-1.386.356L751.6,2668l-1.4.768-.749.544-.693.637-.693.711-.712.806-1.349,1.8-1.349,2.023-1.33,2.192-1.348,2.286-1.312,2.3-1.33,2.248-1.33,2.154-.674,1.086-.656,1.18-1.348,2.492-1.33,2.6-1.33,2.529-.656,1.2-.637,1.124-.656,1.049-.637.917-.637.787-.6.637-.581.468-.524.281-.469.094-.468-.019-.524-.168-.544-.319-.6-.449-.618-.562L723.217,2700l-1.33-1.555-1.349-1.555-.693-.693-.693-.637-.749-.524-.731-.375-1.33-.581-1.348-.618-1.368-.562-1.442-.412-1.443-.169-.787.057-.749.168-.768.263-.749.412-.749.562-.731.693-.712.9-.693,1.1-.693,1.274-.675,1.442-.674,1.555-.656,1.667-1.348,3.466-1.312,3.5-.674,1.667-.656,1.592-.655,1.462-.637,1.311-.656,1.124-.618.9-.6.693-.6.525-.6.412-.581.3-.581.207-.58.149-1.256.15-1.348.075-1.387.169-.73.15-.749.262-.75.356-.73.487-1.368,1.124-1.367,1.292-1.349,1.405-1.349,1.518-1.33,1.629-1.349,1.668-2.66,3.465-1.33,1.855-1.348,2.042-1.33,2.135-1.33,2.173-1.312,2.1-1.33,2.005-1.292,1.835-1.312,1.555-1.292,1.424-1.33,1.311-1.293,1.2-1.292,1.068-1.274.936-1.274.731-1.236.543-1.2.319-.506.018-.524-.074-.581-.207-.581-.3-1.274-.824-1.311-.993-1.367-.956-.731-.412-.749-.337-.768-.206-.825-.056-.824.131-.824.337-.768.543-.731.712-.712.806-.693.955-.674,1.049-.674,1.1-1.349,2.4-1.33,2.454-1.311,2.4-.656,1.105-.637,1.012-.656.9-.637.8-1.292,1.368-1.293,1.217-1.292,1.068-1.293.956-2.641,1.76-2.66,1.724-2.642,1.686-2.622,1.517-2.641,1.443-2.66,1.423-2.642,1.33-2.641,1.274-2.679,1.33-1.349.749-1.367.806-1.386,1.03-1.368,1.2L596,2792.256l-1.311,1.293-1.292,1.161-1.274.956-.6.356-.58.262-.562.169-.525.056-.479-.038-.516-.225-.582-.337-.6-.487-.625-.6-.641-.693-1.334-1.48-1.343-1.461-.717-.656-.718-.562-.758-.45-.815-.3-.881-.075-.878.206-.823.487-.751.712-.723.861-.693,1.031-.678,1.142-.671,1.218-1.339,2.6-1.317,2.622-.667,1.218-.648,1.162-.637.992-.62.843-.605.656-.553.412-.515.244-.515.112h-.538l-.543-.075-.575-.187-.6-.263-1.285-.73-1.311-.843-1.366-.824-.712-.356-.728-.3-.77-.206-.778-.094-1.433.094-1.418.3-1.373.431-1.358.505-2.641,1.031-1.272.412-1.27.3-2.61.337-2.619.15-2.652.093-2.66.131Z" fill="#d1d3d4"/>
    <path id="Path_43" data-name="Path 43" d="M536.683,2814.473l10.574-.3h53.336l10.49.3H621.63l10.734-.8,10.584.787,10.677-1.668,10.547,1.031,10.528-1.012,10.808-.337,10.809.506,10.472,1.2L717,2812.825l10.6-1.368,10.94-2.116,10.677,1.386,10.378-1.686,10.528-1.368,11.146-1.442,10.49,3.54,10.1-2.922,10.734-2.248,10.7-2.248,10.978-1.8,11.277,2.9,9.647,4.364,10.434-8.073,11.727,2.641,9.8,3.053,10.565-4.777,10.922,2.473,10.64-2.06,10.771,2.247,10.565-.861,10.434,3.034,10.453-3.2,11.109,1.068,9.947,1.274,10.378-6.369,11.633.281,11.127,3.952,9.872,5.245,9.872-4.458,11.3-2.735,10.771,1.948,10.959.356,10.6,5.114,10.04-.318,10.453-1.18,10.7-2.454,10.94,1.049,10.34.337,10.7-2.248,11.352.918,10.21,4.683,10.471-2.023,10.359,2.847,10.378-5.02h11.24l10.472,1.011,11.071-.168,10.415,5.207,10.322-2.491,10.809,1.742,10.49-1.011,10.715.168,10.434,1.18,10.7-2.06,11.09,1.611,10.153,2.117,10.21-3.354,11.408-.543L1354.9,2812l10.453-3.2,10.865,1.93,10.265-1.012.15,1.424-10.472,1.03-10.733-1.91-10.584,3.259-10.566-4.1-10.9.524-10.4,3.409-10.49-2.191-10.79-1.574-10.678,2.061-10.584-1.18-10.546-.188-10.622,1.031-10.7-1.724-10.547,2.548-10.584-5.283-10.79.169-10.471-1.031h-10.865l-10.565,5.115-10.547-2.9-10.6,2.061-10.4-4.777-10.884-.881-10.678,2.248-10.546-.337-10.753-1.049-10.546,2.416-10.6,1.2-10.453.338-10.621-5.133-10.772-.356-10.565-1.911-10.883,2.641-10.4,4.684-10.4-5.527-10.809-3.84-10.977-.262-10.453,6.425-10.415-1.348-10.809-1.049-10.6,3.24-10.565-3.072-10.528.862-10.7-2.229-10.64,2.06-10.753-2.435-10.621,4.8-10.247-3.185-11.015-2.491-10.584,8.2-10.322-4.664-10.864-2.81-10.659,1.742-10.659,2.248-10.7,2.229-10.471,3.054-10.584-3.6-10.828,1.386-10.509,1.387-10.565,1.7-10.659-1.386-10.753,2.1-10.64,1.368-10.4,1.367-10.584-1.2-10.715-.524-10.716.356-10.6,1.011-10.509-1.03L643,2815.9l-10.64-.8-10.678.8H611.065l-10.491-.281h-53.3l-10.556.281Z" fill="#222b3e"/>
    <path id="Path_44" data-name="Path 44" d="M536.87,2813.836l10.481.637h10.563l10.687-.3,10.687.3h10.59l10.621-.3,10.566-.338,10.677.338h21.187l10.509-1.012L664,2811.776l10.921-.356,10.528,1.367,10.209-1.648,10.884-3.334,10.715.693,10.865-1.049,9.816,2.7,11.034-11.408,11.483,7.961,8.9-1.161,11.483-12.233,11.689,9.236,9.835.637,10.116-.656,10.752-5.208,11.539.375,10.435,5.9,10.059-1.78,10.809-.356,10.921-.337,9.76,2.079,10.64-8.242,11.933,2.3,10.359,5.526,10.153-.974,10.228.319,11.258-3.991,10.416,6.557,10.041-5.976h11.651l10.191,3.99,10.172-2.941,10.79-.712,10.79-1.723,10.9.693,10.434.674,9.779-1.442,11.445-7.624,11.559,7.7,10.527,2.885,9.854,4.926,10.209-5.526,10.547,2.379,11.2-7.4,10.846,8.729,9.8-4.589,11-.712,11.109.356,10.284,3.653,10.79-3.484,10.472,5.226,10.7-5.432,10.453,7.586,10.453-7.586,11.708,5.863,9.666,3.428,10.34-5.152,11.221.356,10.94,2.3,10.453,3.372h10.115l10.322-2,10.771-3.353,11.3.9,10.341,3,10.453-2.36,11.033,1.068,10.584,1.386-.187,1.424-10.565-1.387-10.79-1.03-10.584,2.379-10.547-3.053-10.865-.881-10.584,3.3-10.546,2.042h-10.472l-10.584-3.409-10.771-2.267-10.715-.337-10.547,5.264-10.34-3.672-11-5.489-10.6,7.681-10.584-7.681-10.547,5.358-10.6-5.3-10.7,3.446-10.546-3.727-10.809-.356-10.64.712-10.378,4.851-10.715-8.654-10.846,7.174-10.622-2.4-10.4,5.62-10.377-5.189-10.622-2.923-10.959-7.306-10.921,7.288-10.246,1.517-10.584-.693-10.734-.693-10.7,1.742-10.715.674-10.49,3.054-10.378-4.084h-11l-10.453,6.238-10.584-6.65-10.846,3.84-10.4-.337-10.49,1.011-10.565-5.619-11.071-2.136-10.659,8.242-10.247-2.191-10.734.356-10.715.337-10.453,1.854-10.584-5.975-10.846-.356-10.7,5.17-10.472.693-10.378-.674-11-8.692-10.94,11.633L760.1,2808.2l-10.94-7.587-10.79,11.127-10.359-2.847-10.734,1.049-10.565-.693-10.734,3.3-10.509,1.686-10.6-1.368-10.752.338-10.509,1.386-10.6,1.03H621.723l-10.658-.356-10.509.356-10.659.281H579.268l-10.667-.281-10.666.281H547.308l-10.524-.618Z" fill="#313e59"/>
    <path id="Path_45" data-name="Path 45" d="M537.076,2812.825l10.38,1.648h10.155l10.827-3.446,11.157,1.8,10.32,1.611,10.659-1.649,10.659,1.686h10l10.341-4.964,11.614-3.746,11,5.32H664l10.828-1.742,10.49,1.686,10.827-3.485,10.641,3.428,9.853-3.222,11.127-3.409,10.828,1.574,11.258-1.649,10.49,8.28,9.254-3.035,10.528-4.926,11.727-5.639,11,6.894,10.659-1.555,10.79,6.8H834l10.491-1.686,11-1.78,10.49,1.705,11.146-3.6,10.64,6.969,10.172-1.63,10.49,1.686,10.978-3.54,11,5.263h9.235l10.528-8.429,11.558-1.686,11.539,1.686,9.891,7.924,9.573-6.22,12.045-1.948,10.809,8.673h9.047l11.521-10.9,11.052,10.472,9.929-4.833,11.314,3.652,9.835,1.536,10.827-5.188,10.978,3.54,10.471-1.723,10.678,3.39,10.322-1.611h10.64l10.846-1.742,10.809,1.761,10.49,1.648h10.322l10.322-1.611,11.164-3.6,10.322,3.372,10.659-5.152,11.315,3.653,10.153,1.63,10.827-1.742,10.659,3.39,9.985-1.592,11-1.761,10.659,1.705,10.808-1.742,10.659,3.39,10.153-1.611h11l10.321,1.611,10.828-3.428,11,3.484h10.209v1.424h-10.434l-10.771-3.409-10.715,3.39-10.547-1.648h-10.771l-10.378,1.648-10.659-3.372-10.7,1.724-10.659-1.724-10.772,1.743-10.321,1.629-10.659-3.372-10.715,1.724-10.491-1.686-10.865-3.522-10.659,5.17-10.434-3.428-10.827,3.485-10.547,1.648h-10.546l-10.6-1.648-10.6-1.743-10.715,1.724h-10.64l-10.546,1.648-10.659-3.372-10.491,1.7-10.771-3.465-10.715,5.132-10.378-1.629-10.865-3.5-10.3,5.02-10.79-10.228-10.94,10.359h-10.134l-10.7-8.58-11.127,1.8-10.172,6.613-10.415-8.337-10.94-1.592-10.959,1.592-10.621,8.5h-10.06l-10.771-5.151-10.771,3.465-10.6-1.7-10.49,1.7L876.9,2807.3l-10.808,3.484-10.6-1.705-10.771,1.724-10.6,1.723H823.887l-10.7-6.744-10.658,1.555-10.772-6.762-11.015,5.32-10.6,4.964-10.079,3.3-10.6-8.374-10.865,1.574-10.715-1.555-10.809,3.316-10.266,3.372-10.659-3.447-10.715,3.465-10.6-1.723-10.715,1.742H653.85l-10.771-5.208-10.978,3.541-10.546,5.039H611.121l-10.547-1.667-10.659,1.667-10.544-1.648-10.824-1.743-10.713,3.391H547.343l-10.49-1.648Z" fill="#91bce8"/>
    <path id="Path_46" data-name="Path 46" d="M536.743,2814.473h53.135l5.3.038,5.264-.038,2.566-.131,2.642-.206,2.7-.187,2.773-.075,2.772.094,2.7.224,2.622.188,2.529.093,2.529-.093,2.623-.188,2.7-.224,2.773-.094,2.772.075,2.7.187,2.641.206,2.585.131,5.245.038,5.32-.038,5.3.038,5.3-.038,5.264-.075,5.226-.224,2.585-.225,2.642-.3,2.735-.281,2.81-.112,2.809.131,2.754.281,2.623.318,2.547.188,5.227.131,2.585-.019,2.566-.112,2.529-.244,2.623-.393,2.735-.375,2.81-.206,2.791.037,2.754.169,2.66.244,2.585.15,5.264.224,5.264.094,5.282-.038,2.567-.074,2.547-.188,2.548-.356,2.585-.468,2.679-.525,2.7-.468,2.66-.412,2.7-.431,2.772-.318,1.443-.075h1.461l1.5.093,1.462.207,2.735.58,2.622.581,1.236.225,1.2.15,2.548.168,2.566.075,2.548-.056,2.548-.187,1.2-.169,1.2-.244,2.623-.674,2.735-.637,1.461-.262,1.5-.169,1.5-.037,1.462.094,2.735.3,2.641.337,2.529.225,2.566.056,2.6-.018,2.66-.038h2.716l10.7.3,2.753.225,2.642.3,2.566.169,1.161.019,1.162-.075,1.143-.187,1.161-.281,2.6-.825,2.716-.861,1.5-.356,1.517-.244,1.517-.075h1.462l2.772.262,2.641.281,1.237.094,1.217.038,2.529-.075,2.6-.188,2.7-.224,2.735-.132,5.432.057,5.414.262,1.423.15,1.424.206,2.66.487,1.274.206,1.218.15,1.142.056,1.124-.037,1.068-.169,1.143-.3,1.236-.449,1.293-.487,1.367-.544,1.443-.487,1.536-.412,1.592-.206h1.592l1.518.169,1.461.281,1.386.318,2.623.656,1.236.262,1.161.15,2.511.15,2.6.018,2.7.019,2.772.131,1.443.169,1.405.206,2.678.525,2.567.43,1.18.132,1.18.037,1.18-.037,1.18-.132,2.567-.449,2.679-.525,1.423-.206,1.461-.168,2.81-.057,2.7.113,2.6.056,1.236-.019,1.2-.075,1.18-.168,1.2-.263,2.623-.636,2.735-.675,1.479-.262,1.5-.15,1.48-.019,1.442.057,2.754.281,2.66.355,2.548.244,2.547.075H988.3l2.735.037,2.81.206,1.461.225,1.423.281,2.679.656,2.585.618,1.218.206,1.161.131,2.454.056,2.529-.168,2.642-.244,2.66-.243,2.641-.225,2.641-.262,2.7-.263,2.753-.168h2.773l2.7.131,2.548.056,1.2-.037,1.161-.131,1.143-.225,1.162-.356,2.585-.974,1.386-.506,1.442-.468,1.555-.356,1.574-.188,1.611.038,1.536.206,1.461.318,1.367.375,2.642.731,1.217.3,1.143.188,2.51.187,2.567.056h2.66l2.716.056,5.357.263,5.339.337,2.7.225,2.679.281,2.622.243,2.6.169,2.6.112,2.6.056,2.566-.018,2.548-.15,1.217-.15,1.218-.206,2.623-.543,2.7-.544,1.442-.243,1.462-.15,2.809-.075,2.754.112,2.66.169,2.6.112,5.245.057,5.264-.057,5.264-.206,2.585-.168,2.567-.244,2.528-.393,2.623-.543,2.716-.525,1.424-.225,1.442-.15,2.792-.093,2.753.037,2.716.169,2.735.206,2.754.356,2.7.487,2.6.412,1.236.169,1.2.093h2.491l2.567-.168,2.641-.244,2.7-.187,5.32-.375,2.7-.168,2.735-.094,2.716.037,2.7.075,2.641.113,2.641.093,5.264.075h2.6l2.6-.075,2.566-.187,2.623-.262,2.679-.281,2.753-.188,5.414-.112,5.433.112,2.772.244,2.679.356,2.566.281,1.2.056,1.143-.019,1.124-.131,1.161-.243,2.585-.75,1.368-.374,1.461-.356,1.555-.244,1.611-.037,1.611.187,1.517.356,1.48.468,1.349.506,2.6.974,1.161.356,1.1.225,2.454.206,2.51.019,2.6-.113,2.623-.131,1.274-.093,1.236-.15,2.679-.375,2.772-.318,1.5-.038,1.517.056,1.555.244,1.5.393,1.423.469,1.349.5,1.274.45,1.2.356,1.086.243,1.012.075,1.011-.093,1.087-.244,1.218-.375,1.273-.468,1.349-.487,1.443-.506,1.536-.356,1.592-.206,1.573.019,1.48.131,1.443.225,1.405.3,2.66.637,2.622.562,1.387.281,1.367.356,2.66.711,1.2.281,1.161.169,1.068.075,1.012-.075.993-.262,1.067-.45,1.2-.637,1.293-.787,1.367-.824,1.443-.787,1.573-.693,1.667-.431,1.649-.149,1.555.075,1.517.206,1.424.3,2.66.637,1.255.263,1.2.187,2.566.262,2.642.206,5.376.45,2.753.393,2.642.45,2.51.337,1.18.056,1.143-.037,1.161-.132,1.18-.224,2.529-.675,2.642-.843,2.66-.786.412,1.367-2.66.787-2.642.843-2.622.712-1.274.243-1.274.15-1.274.019-1.273-.056-2.6-.338-2.66-.468-2.679-.375-5.339-.449-2.66-.206-2.623-.262-1.273-.207-1.312-.281-2.66-.618-1.348-.3-1.405-.188-1.387-.056-1.442.112-1.442.394-1.405.6-1.368.768-1.349.806-1.311.787-1.293.693-1.236.524-1.217.319-1.218.075-1.236-.075-1.293-.188-1.274-.3-2.66-.712-1.349-.337-1.348-.281-2.642-.562-2.66-.637-1.349-.281-1.367-.225-1.367-.131-1.424-.019-1.405.187-1.405.338-1.368.468-1.33.487-1.311.468-1.292.412-1.237.281-1.236.094-1.218-.075-1.255-.281-1.274-.393-1.311-.45-1.33-.487-1.367-.45-1.368-.374-1.424-.225-1.386-.056-1.386.056-2.7.3-2.66.374-1.292.15-1.312.094-2.66.15-2.622.112-2.623-.019-2.585-.243-1.236-.244-1.293-.393-2.622-.974-1.349-.506-1.368-.449-1.386-.319-1.442-.168-1.405.056-1.4.206-1.368.337-1.348.375-2.642.749-1.255.262-1.274.15-1.255.038-1.292-.075-2.623-.281-2.66-.356-2.7-.225-5.358-.113-5.357.113-2.679.168-2.66.281-2.642.281-2.641.169-2.622.075-2.642.019-5.3-.094-2.641-.075-2.661-.112-2.66-.094-2.678-.019-2.7.075-2.66.169-5.32.375-2.679.187-2.641.243-2.623.169h-2.6l-1.274-.094-1.312-.168-2.641-.431-2.66-.487-2.7-.337-2.679-.206-2.679-.15-2.679-.057-2.7.113-1.368.131-1.367.206-2.679.525-2.641.543-2.623.412-2.622.262-2.623.169-5.3.187-5.3.056-5.282-.056-2.642-.112-2.66-.15-2.679-.113-2.716.075-1.367.132-1.368.224-2.679.544-2.641.543-1.292.225-1.293.149-2.6.15-2.641.019-2.641-.056-2.623-.113-2.641-.168-2.642-.244-2.678-.281-2.66-.224-5.339-.338-5.32-.262-2.679-.056h-2.641l-2.642-.056-2.6-.188-1.255-.206-1.292-.318-2.66-.731-1.33-.356-1.387-.318-1.386-.187-1.423-.038-1.405.169-1.4.337-1.368.45-1.349.487-2.641.974-1.255.393-1.274.262-1.274.131-1.292.057-2.623-.075-2.66-.131h-2.7l-2.7.168-2.66.262-2.66.263-2.641.224-2.66.244-2.66.244-2.6.168-2.585-.056-1.274-.15-1.293-.206-2.641-.637-2.66-.637-1.349-.281-1.386-.206-2.7-.187-2.679-.056h-2.66l-2.623-.057-2.622-.262-2.661-.356-2.678-.281-1.368-.056-1.386.038-1.367.131-1.387.243-2.678.656-2.661.655-1.273.281-1.293.169-1.274.075-1.292.037-2.642-.074-2.678-.094-2.7.056-1.367.15-1.368.187-2.66.525-2.622.468-1.274.131-1.293.056-1.274-.056-1.274-.131-2.641-.45-2.66-.505-1.349-.225-1.367-.15-2.7-.131-2.678-.019H921.9l-2.6-.168-1.255-.169-1.311-.281-2.641-.656-1.349-.3-1.367-.263-1.387-.149h-1.423l-1.405.168-1.4.375-1.368.468-1.349.525-1.311.5-1.292.469-1.255.337-1.256.206-1.255.037-1.273-.075-1.293-.168-1.311-.206-2.66-.468-1.349-.207-1.368-.149-5.357-.263-5.339-.037-2.679.131-2.679.206-2.641.187-2.6.094-1.292-.037-1.293-.113-2.66-.281-2.7-.243-1.368-.019-1.386.075-1.386.225-1.387.337-2.678.843-2.642.843-1.273.3-1.256.206-1.292.075h-1.255l-2.623-.188-2.679-.3-2.678-.206-10.64-.318h-2.679l-2.66.056h-2.642l-2.622-.056-2.623-.225-2.641-.337-2.679-.3-1.367-.075-1.387.038-1.386.131-1.386.262-2.679.637-2.641.656-1.274.262-1.292.187-2.623.188-2.623.056-2.622-.075-2.623-.169-1.292-.15-1.293-.243-2.641-.581-2.679-.562-1.367-.206-1.387-.094H769.15l-1.386.094-2.679.3-2.679.412-2.66.431-2.66.449-2.66.525-2.641.487-2.623.356-2.623.187-2.622.094-5.3.019-5.3-.094-5.3-.206-2.623-.169-2.66-.243-2.679-.169-2.716-.037-2.7.206-2.679.374-2.641.394-2.623.243-2.623.113-2.641.037-5.283-.15-2.622-.187-2.641-.318-2.7-.281-2.7-.132-2.717.113-2.678.281-2.642.3-2.641.224-5.283.225-5.3.094-5.3.019-5.3-.019-5.32.037-5.282-.037-2.642-.15-2.66-.187-2.66-.188-2.7-.093-2.7.112-2.66.206-2.641.187-2.623.094-2.622-.094-2.642-.187-2.66-.206-2.7-.112-2.7.093-2.66.188-2.66.187-2.622.15-5.3.037-5.32-.037H536.743Z" fill="#a5a5a5"/>
    <path id="Path_47" data-name="Path 47" d="M536.482,2814.492l2.645-.318,2.666-.356,2.752-.3,2.845-.131,2.836.15,2.739.356,2.623.337,2.542.243,5.179.15,5.2-.15,2.57-.187L573.7,2814l5.314-.6,10.586-1.087,2.6-.375,2.66-.43,1.4-.206,1.461-.132,1.48-.037,1.555.094,1.629.3,1.536.525,1.443.618,1.33.637,1.236.543,1.124.394,1.049.224.375.019.412-.019.393-.056.431-.131,1.068-.468,1.18-.693,1.255-.862,1.349-.937,1.442-.918,1.536-.768.881-.337.918-.225,1.611-.206,1.592.019,1.5.206,1.4.244,2.622.543,1.18.168,1.106.057,1.124-.057,1.161-.168,2.623-.543,1.405-.244,1.5-.206,1.611-.019,1.649.206.974.281.9.394.843.487.787.562,1.405,1.086,1.292,1.087,1.237.918.505.318.45.225.393.15.281.056h.188l.187-.056.243-.131.413-.3.487-.487.562-.675.6-.842.637-.918,1.293-2.061,1.348-2.173.693-1.049.694-1.03.749-.974.8-.881.862-.787.955-.618.956-.412.974-.281.937-.112.936-.019,1.667.225,1.574.468,1.461.581,1.349.6,1.274.544,1.255.468,1.442.524,1.461.712,2.679,1.461,1.236.619,1.143.487,1.03.318.918.094.974-.094,1.049-.243,1.143-.394,1.2-.562,1.255-.637,1.311-.712,2.66-1.442,1.274-.693,1.237-.787,2.641-1.761,2.7-1.8,1.443-.824,1.386-.712,2.66-1.33,1.386-.693,1.424-.637,1.536-.543,1.611-.375,1.724-.113,1.76.244.993.356.918.468.843.562.787.618,1.442,1.349,1.368,1.424,1.311,1.386,1.255,1.236.543.469.562.431.487.318.431.206,1.143.412,1.1.3,1.124.15,1.1.075,1.124-.075,1.106-.15,1.124-.3,1.124-.412.468-.225.468-.281,1.162-.936,1.217-1.143,1.312-1.349,1.348-1.405,1.443-1.33,1.517-1.161.9-.506.918-.431,1.012-.262,1.011-.075.956.056.918.187,1.536.469,1.367.543,1.162.431,1.011.225.281.018.337-.056.3-.075.281-.15.375-.281.487-.505.543-.712.6-.918.619-1.049.655-1.143,1.312-2.416.674-1.255.712-1.181.693-1.142.749-1.068.824-.955.918-.862,1.124-.674,1.443-.375,1.48.281,1.236.712.937.936.8,1.031.731,1.124.73,1.2,1.349,2.492,1.311,2.416.6,1.031.58.861.506.637.375.338.075.056-.225-.038-.112.038.206-.15.43-.468.544-.731.6-.974.618-1.1.637-1.218.656-1.311,1.349-2.679.693-1.293.693-1.255.768-1.161.787-1.049.936-.937,1.031-.674,1.03-.394.937-.224.955-.094.955.038.918.149.956.281,1.611.768,1.573,1.049,1.5,1.293,1.442,1.5,1.443,1.686.786,1.142.768,1.368.712,1.536.675,1.667.674,1.742.693,1.817,1.311,3.616.637,1.686.656,1.592.618,1.386.6,1.143.505.805.431.469-.131-.057-.262-.056-.262.019-.244.112-.056.038.15-.169.206-.262.225-.412.281-.525.618-1.348.618-1.668.656-1.873.655-2.061.656-2.173,1.33-4.439.674-2.154.675-2.061.693-1.911.712-1.7.356-.787.393-.712.412-.693.487-.618.862-.881.955-.712,1.03-.5,1.049-.263,1.05-.093,1.011.112.918.206.862.3,1.48.656,1.348.711,1.218.562.487.188.468.112,2.6.506,2.754.6,1.461.431,1.48.525,1.48.655,1.5.825.806.543.8.637,1.424,1.348,1.405,1.462,1.33,1.5,1.293,1.424,1.236,1.217,1.18.993.468.319.431.243,1.087.394,1.049.243,1.086.131H860.7l1.142-.112,1.2-.206,2.492-.562,1.1-.375,1.124-.543,1.236-.712,1.293-.787,1.348-.843,1.405-.824,1.5-.768,1.555-.6,1.611-.375,1.536-.15,1.461-.056,1.349.019h1.274l1.161-.056,1.1-.15,1.031-.281.412-.206.468-.244,1.143-.88,1.255-1.124,1.349-1.218,1.423-1.2.825-.581.824-.505.918-.431,1.03-.281,1.1-.094,1.162.15,1.086.45.993.618.862.768.768.824.73.881.731.955,1.367,1.986,1.312,1.948,1.273,1.761.562.711.581.6.487.45.412.281.412.206.431.149.993.225,1.012.038,1.1-.094,1.236-.187,1.312-.263,1.423-.224,1.461-.15,1.462-.019H921.9l2.585.019,1.181-.056,1.124-.169,1.1-.262,1.03-.394.412-.243.506-.356.524-.468.581-.581,1.274-1.443,1.33-1.573,1.424-1.536.768-.731.787-.655.9-.6.993-.468,1.161-.3,1.236.038,1.143.337,1.012.524.9.675.8.786.75.806.749.918,1.367,1.892,1.349,1.967,1.311,1.873.619.824.6.75.581.655.6.562.618.618.675.75.655.824.693.843,1.387,1.779.655.787.675.712.618.618.524.412.375.225.15.038h-.094l-.112.056.131-.131.094-.113.168-.3.263-.581.262-.806.318-1.03.319-1.18.318-1.33.337-1.48.319-1.592.318-1.686.337-1.8.319-1.854.674-3.953.656-4.083.656-4.14.674-4.1.674-3.952.319-1.911.356-1.817.318-1.724.337-1.667.356-1.536.337-1.424.356-1.311.356-1.161.356-1.031.431-.955.506-.88.8-.825,1.255-.6,1.443.187,1.011.693.656.787.45.787.412.862.374.955.356,1.03.356,1.143.337,1.236.338,1.274.356,1.386.655,2.9.675,3.035.655,3.091.675,3.034.655,2.9.656,2.622.318,1.2.3,1.087.319.955.318.843.262.656.244.468.131.187-.075-.056-.281-.15-.393-.037-.319.056-.131.075.019-.019.15-.187.243-.337.262-.412.581-1.162.618-1.423.656-1.63.656-1.724.655-1.779.675-1.78.711-1.686.694-1.555.749-1.405.449-.636.431-.581.562-.543.712-.544.955-.318.993-.038.918.263.712.412.581.468.524.562.806,1.124.768,1.349.693,1.48.712,1.611.674,1.7.675,1.761,1.33,3.522.636,1.667.656,1.555.6,1.349.618,1.142.524.843.412.469.244.187.169.075h.093l.225-.019.356-.112.449-.187,1.237-.712,1.4-.806.862-.393.955-.319,1.086-.149,1.2.093,1.2.431,1.068.749.9.937.824,1.1.731,1.218.712,1.311.674,1.405.712,1.48,1.33,3.072,1.311,3.016.656,1.424.637,1.311.6,1.161.6.975.543.768.487.524.45.375.468.3.412.206.412.149.412.094.394.038.993-.057,1.049-.224,1.18-.356,2.547-.974,1.181-.506,1.142-.656,1.218-.843,1.255-.955,2.622-2.173,2.642-2.136,1.255-1.086,1.236-1.255,1.312-1.405,1.367-1.443,1.442-1.367,1.48-1.2.862-.562.937-.45.955-.3,1.068-.169,1.1.075,1.087.3.936.449.843.525.787.618.768.674,1.386,1.33,1.33,1.33,1.255,1.218.544.45.505.374.45.244.375.15.374.093.412.057,1.012-.038,1.086-.169,1.218-.318,1.368-.356,1.461-.337,1.629-.206,1.705.093.937.225.918.3,1.536.768,1.442.88,1.311.881,1.2.712,1.106.506.393.112.356.075h.318l.244-.038.318-.131.394-.225.468-.355.524-.488,1.237-1.33,1.274-1.592,1.367-1.648,1.4-1.593.806-.749.843-.674.9-.562.993-.412.955-.225.974-.131,1.723.112,1.649.394,1.517.58,1.443.693,1.348.675,1.293.655,1.274.6,2.716,1.217,2.716,1.443,2.66,1.442,2.642,1.405,1.386.731,1.349.8,2.641,1.555,1.274.693,1.217.618,1.162.487,1.124.356,2.473.487,1.161.15,1.18.057,1.162-.038,1.18-.112,1.142-.206,1.143-.3.45-.169.468-.243,1.124-.75,1.236-.992,1.312-1.124,1.423-1.143,1.48-1.03.881-.469.9-.374.974-.263,1.03-.093,1.049.093.974.263.9.374.861.469,1.5,1.03,1.405,1.143,1.33,1.124,1.217.992,1.162.768.449.225.45.169,1.18.318,1.162.263,1.161.131,1.18.075,1.143-.038,1.1-.131,1.162-.244,1.1-.337.449-.206.469-.262,1.142-.843,1.237-1.086,1.292-1.237,1.405-1.292,1.443-1.181.861-.562.843-.449.918-.393,1.012-.225,1.03-.075.993.112.937.244.9.337,1.517.787,1.405.88,1.311.843,1.18.693.488.225.468.169.393.093.319.019.356-.019.356-.075,1.011-.412,1.162-.655,1.292-.825,1.405-.861,1.5-.787.88-.337.9-.244.956-.15,1.011.019.937.169.936.262,1.593.73,1.536.974,1.405,1.031,1.349,1.049,1.292,1.011,1.218.862,1.2.731,2.6,1.386,2.586,1.33,1.2.524,1.162.413,1.1.281,1.03.131h.394l.412-.057,1.068-.3,1.142-.45,1.255-.6,1.387-.675,1.517-.618,1.592-.431.937-.131.955-.019,1.7.263,1.592.524,1.48.656,1.405.73,1.349.712,1.255.675,1.161.524,1.087.356,2.435.487,2.51.281,2.585.131,2.661.131,2.66.15,2.566.131,2.548-.037,1.2-.075,1.181-.15,1.2-.243,1.2-.319,2.567-.843,2.679-.974,2.735-.824,1.273-.394,1.255-.449,1.349-.487,1.386-.487,1.518-.431,1.611-.262,1.7-.019,1.743.337.955.375.88.468.825.562.786.618,1.424,1.312,1.368,1.386,1.33,1.367,1.217,1.2,1.2.974.487.337.431.244,1.124.431,1.1.3,1.143.187,1.161.112,1.218.019,1.236-.019,2.585-.15,1.2-.112,1.162-.206,2.585-.637,2.7-.712,1.443-.281,1.461-.225,1.5-.093h1.423l2.717.093,2.6.094,1.218-.019,1.18-.075,1.2-.168,1.2-.244,2.622-.674,2.735-.674,1.48-.281,1.518-.132h1.517l1.461.094,2.754.393,2.623.413,1.2.131,1.162.056,1.161-.056,1.18-.15,2.6-.45,1.386-.225,1.443-.187,1.517-.094,1.574.075,1.63.3,1.536.525,1.442.6,1.33.581,1.255.562,1.143.412,1.03.225.918.056.993-.131,1.086-.3,1.162-.468,1.236-.581,2.623-1.367,1.367-.712,1.405-.6.581,1.312-1.368.58-1.33.693-2.641,1.387-1.311.6-1.274.506-1.236.356-1.218.168-1.2-.075-1.236-.281-1.255-.449-1.312-.581-1.33-.581-1.367-.58-1.386-.45-1.424-.281-1.405-.056-1.4.075-1.367.168-1.349.225-2.642.469-1.273.168-1.274.038-1.255-.038-1.293-.15-2.66-.412-2.679-.393-1.367-.094h-1.405l-1.368.131-1.386.244-2.7.674-2.642.675-1.273.262-1.293.187-1.274.094-1.292.018-2.642-.112-2.678-.094-1.368.019-1.386.075-1.368.206-1.367.281-2.66.693-2.641.656-1.256.225-1.292.131-2.641.131-1.293.037-1.293-.037-1.273-.112-1.255-.206-1.256-.356-1.273-.487-.581-.319-.6-.393-1.292-1.068-1.293-1.255-1.33-1.368-1.33-1.367-1.367-1.255-.693-.562-.731-.487-.73-.375-.769-.318-1.461-.281-1.442.018-1.424.225-1.405.412-1.33.469-1.349.487-1.292.468-1.311.393-2.7.825-2.66.955-2.623.88-1.292.338-1.274.243-1.274.169-1.292.093-2.623.019-2.622-.131-2.66-.15-2.661-.131-2.641-.131-2.6-.3-2.585-.506-1.236-.393-1.274-.581-1.293-.693-1.348-.73-1.349-.694-1.386-.618-1.4-.468-1.461-.206-.75.019-.768.093-1.405.394-1.405.562-1.33.655-1.311.618-1.274.506-1.236.337-.6.075-.561.019-1.218-.168-1.274-.319-1.255-.45-1.293-.562-2.622-1.367-2.641-1.405-1.293-.768-1.293-.9-1.311-1.03-1.33-1.05-1.349-.992-1.4-.881-1.405-.655-.768-.225-.749-.113-.787-.018-.749.112-.749.206-.75.281-1.367.731-1.368.824-1.311.843-1.274.712-1.217.487-.562.112-.562.056-.544-.056-.58-.131-.6-.206-.6-.281-1.274-.731-1.33-.861-1.349-.862-1.405-.712-.73-.281-.75-.187-.786-.094-.787.056-.768.169-.768.318-.712.394-.731.487-1.367,1.1-1.349,1.255-1.33,1.237-1.292,1.161-1.256.918-.618.337-.58.262-1.256.394-1.273.262-1.255.169-1.274.018-1.255-.056-1.293-.168-1.255-.263-1.293-.356-.58-.224-.6-.3-1.274-.843-1.292-1.049-1.33-1.124-1.349-1.1-1.386-.956-.731-.393-.73-.3-.787-.206-.787-.075-.787.075-.749.206-.768.3-.73.393-1.368.956-1.367,1.1-1.312,1.124-1.311,1.049-1.255.843-.6.3-.58.224-1.274.338-1.274.224-1.274.113-1.274.037-1.273-.056-1.274-.15-2.6-.524-1.255-.394-1.274-.524-1.293-.656-1.311-.731-2.641-1.554-1.349-.787-1.349-.731-2.641-1.405-2.66-1.442-2.679-1.405-2.679-1.218-1.292-.6-1.33-.656-1.33-.693-1.368-.637-1.386-.543-1.442-.337-1.443-.094-.786.094-.75.187-.768.319-.749.449-.731.581-.712.674-1.348,1.536-1.349,1.63-1.293,1.611-1.311,1.405-.618.581-.581.449-.6.338-.544.206-.524.075h-.543l-.562-.094-.581-.187-1.255-.562-1.274-.787-1.33-.862-1.367-.843-1.387-.693-.768-.243-.749-.188-1.442-.075-1.443.188-1.367.3-1.33.356-1.293.337-1.255.206-1.218.019-.58-.075-.581-.131-.562-.225-.581-.337-.618-.431-.618-.543-1.311-1.236-1.33-1.349-1.33-1.293-.712-.618-.712-.543-.712-.45-.749-.356-.824-.224-.806-.057-.787.113-.768.243-.749.375-.731.468-1.386,1.106-1.367,1.311-1.33,1.424-1.33,1.4-1.293,1.311-1.311,1.124-2.642,2.154-2.66,2.192-1.292.993-1.293.88-1.255.731-1.292.562-2.623.992-1.274.394-1.236.262-1.218.075-.581-.056-.58-.131-.581-.206-.581-.281-.6-.413-.581-.487-.6-.655-.637-.881-.637-1.049-.656-1.217-.637-1.368-.655-1.423-1.33-3.054-1.33-3.035-.693-1.461-.656-1.367-.674-1.255-.694-1.124-.711-.974-.75-.768-.787-.562-.842-.3-.862-.075-.787.112-.768.244-.731.337-1.348.787-1.293.73-.6.263-.562.168-.525.056-.468-.056-.506-.206-.524-.393-.562-.675-.619-.974-.655-1.217-.656-1.424-.656-1.592-.655-1.686-1.33-3.522-.656-1.742-.674-1.686-.675-1.555-.674-1.424-.693-1.236-.712-.974-.412-.431-.412-.337-.45-.262-.524-.15-.562.019-.543.187-.45.337-.412.412-.356.469-.375.543-.693,1.292-.674,1.5-.693,1.648-.656,1.743-.656,1.779-.655,1.742-.675,1.649-.655,1.5-.637,1.237-.3.506-.318.43-.263.319-.224.187-.188.113-.112.018-.075-.018-.131-.057-.206-.187-.263-.393-.3-.6-.319-.73-.318-.9-.337-.992-.319-1.124-.318-1.218-.675-2.679-.655-2.9-.675-3.054-.655-3.091-.656-3.016-.674-2.884-.338-1.368-.337-1.255-.318-1.2-.356-1.1-.337-.993-.337-.88-.356-.75-.375-.637-.45-.543-.562-.375-.693-.093-.637.3-.505.5-.375.675-.375.824-.337.955-.337,1.124-.337,1.255-.337,1.387-.338,1.517-.337,1.648-.318,1.705-.338,1.817-.337,1.892-.674,3.934-.656,4.1-.655,4.14-.656,4.1-.674,3.952-.338,1.874-.337,1.8-.318,1.7-.337,1.611-.338,1.5-.318,1.368-.319,1.236-.337,1.068-.3.88-.319.712-.225.412-.224.3-.431.412-.394.15H959.4l-.524-.168-.581-.356-.674-.525-.694-.674-.711-.787-.712-.824-1.386-1.78-.694-.843-.636-.787-.619-.712-.562-.561-.637-.6-.636-.712-.656-.8-.637-.881-1.33-1.892-1.33-1.948-1.349-1.836-.693-.861-.693-.75-.712-.693-.73-.543-.787-.412-.824-.244-.843-.018-.843.206-.768.374-.75.487-.693.6-.712.655-1.367,1.48-1.311,1.555-1.33,1.48-.619.637-.618.562-.618.449-.581.319-1.217.468-1.255.319-1.256.168-1.292.075-2.623-.019-1.33-.018-1.386.037-1.367.131-1.368.225-1.311.244-1.311.206-1.237.112-1.236-.056-1.218-.262-.581-.206-.58-.3-.581-.394-.6-.562-.637-.674-.637-.768-1.293-1.817-1.33-1.967-1.349-1.948-.693-.9-.674-.843-.693-.731-.731-.656-.787-.487-.8-.318-.824-.112-.806.075-.787.206-.749.356-.712.43-.73.506-1.349,1.162-1.349,1.2-1.292,1.162-1.274.974-.6.337-.58.262-1.237.338-1.255.187-1.255.056h-1.33l-1.33-.019-1.367.038-1.387.15-1.423.337-1.405.524-1.386.712-1.349.806-1.349.824-1.311.806-1.293.749-1.255.6-1.274.412-2.585.6-1.292.225-1.274.112h-1.237l-1.255-.131-1.236-.281-1.236-.487-.6-.3-.6-.412-1.274-1.086-1.293-1.274-1.311-1.461-1.33-1.48-1.367-1.424-1.349-1.274-.712-.562-.712-.487-1.386-.768-1.386-.6-1.387-.506-1.348-.394-2.717-.58-2.622-.506-.6-.15-.6-.243-1.274-.6-1.349-.693-1.386-.618-.73-.244-.75-.187-.786-.075-.806.075-.787.187-.787.394-.768.562-.711.73-.394.506-.337.581-.356.655-.337.712-.693,1.63-.675,1.873-.655,2.023-.675,2.155-1.33,4.421-.655,2.191-.656,2.08-.674,1.91-.656,1.724-.637,1.442-.318.6-.3.5-.281.375-.281.3-.187.15-.15.075h-.131l-.132-.019-.187-.094-.206-.168-.6-.656-.619-.955-.636-1.237-.637-1.442-.675-1.63-.655-1.705-1.312-3.634-.674-1.779-.674-1.724-.656-1.629-.693-1.48-.693-1.255-.712-1.031-1.349-1.592-1.367-1.405-1.387-1.2-1.423-.955-1.4-.656-.768-.225-.75-.131-.768-.037-.749.093-.768.169-.787.3-.786.524-.75.75-.712.936-.693,1.087-.674,1.18-.674,1.274-1.331,2.66-.674,1.311-.637,1.274-.674,1.142-.637,1.05-.618.843-.581.618-.525.374-.393.131-.375-.037-.468-.281-.562-.525-.618-.768-.618-.955-.656-1.068-1.33-2.435-1.311-2.473-.693-1.161-.693-1.049-.712-.9-.75-.731-.861-.506-.937-.187-.918.244-.805.505-.768.693-.712.843-.693.975-.675,1.1-.674,1.142-.674,1.218-1.312,2.435-.674,1.162-.637,1.1-.656.974-.618.806-.6.636-.562.45-.543.281-.544.15-.562.056-.524-.019-1.218-.262-1.292-.468-1.33-.543-1.405-.431-.731-.15-.768-.038-.787.057-.768.206-.749.337-.749.431-1.387,1.049-1.367,1.274-1.349,1.367-1.311,1.368-1.293,1.217-1.274,1.03-.618.356-.58.3-1.256.45-1.273.337-1.255.187-1.256.056-1.255-.056-1.255-.187-1.255-.337-1.274-.45-.58-.3-.6-.393-.637-.468-.618-.544-1.292-1.292-1.33-1.386-1.349-1.405-1.368-1.274-.693-.543-.73-.487-.75-.375-.768-.281-1.48-.206-1.461.094-1.423.337-1.387.487-1.367.618-1.349.656-2.66,1.348-1.33.675-1.367.786-2.679,1.78-2.66,1.761-1.293.824-1.311.712-2.66,1.442-1.311.731-1.312.656-1.292.6-1.255.45-1.237.281-1.217.112-1.181-.131-1.236-.375-1.255-.524-1.311-.656-2.66-1.461-1.368-.656-1.367-.5-1.312-.487-1.311-.562-1.33-.581-1.367-.562-1.4-.412-1.443-.206-.768.018-.749.094-.768.225-.749.318-.769.506-.73.656-.712.787-.693.9-.674.974-.675,1.03-1.33,2.154-1.311,2.1-.675.956-.636.9-.619.749-.6.6-.6.449-.506.281-.506.113h-.506l-.543-.113-.581-.206-.581-.3-.618-.374-1.292-.974-1.312-1.106-1.367-1.049-.693-.487-.731-.412-.749-.337-.749-.225-1.443-.187-1.442.037-1.368.169-1.367.244-2.641.543-1.274.187-1.255.075-1.255-.075-1.274-.187-2.642-.543-1.348-.244-1.387-.169-1.423-.037-1.424.187-.749.188-.731.281-1.4.711-1.349.862-1.348.918-1.293.881-1.292.768-1.237.543-.58.168-.581.113-.581.019-.562-.038-1.236-.281-1.255-.431-1.312-.58-1.311-.619-1.367-.58-1.4-.487-1.424-.263-1.424-.075-1.367.019-1.368.131-1.348.188-2.679.43-2.623.394-10.619,1.086-5.311.6-2.641.281-2.629.206-5.275.131-5.265-.131-2.619-.262-2.644-.338-2.684-.356-2.714-.131-2.73.113-2.686.3-2.66.356-2.651.319Z" fill="#231f20"/>
    <path id="Path_48" data-name="Path 48" d="M537.123,2810.97l2.671.487,2.645.506,2.578.431,2.559.319,2.547.168,2.567.056,2.564-.056,2.531-.168,2.518-.338,2.594-.524,2.716-.525,2.793-.374,2.78-.188,2.745-.056,2.746.056,2.8.188,1.542.243,1.487.394,2.674.88,1.182.318,1.037.188h.995l.362-.038.414-.131.444-.168.43-.244,1.124-.8,1.2-1.087,1.274-1.255,1.349-1.386,1.386-1.349,1.461-1.293,1.536-1.067,1.518-.787,1.442-.674,1.461-.544,1.424-.431,2.716-.73,2.679-.637,2.679-.637,2.753-.6,2.81-.431,2.9-.169,1.611.113,1.517.3,1.424.394,1.33.393,1.255.337,1.143.244,1.03.093.918-.075.974-.262,1.087-.468,1.2-.693,1.274-.806,1.349-.861,1.424-.862,1.536-.749,1.63-.581.992-.169.993-.019,1.611.207,1.5.393,1.274.375,1.142.243.431.038h.412l.338-.057.337-.093.337-.188.412-.281.45-.449.543-.656.562-.862.618-1.011.637-1.162.637-1.236,1.311-2.679,1.349-2.735.674-1.33.693-1.292.712-1.218.75-1.124.768-1.011.843-.918.936-.731.993-.524.974-.338.974-.187.937-.019.862.057,1.442.224,1.274.206.487.057h.412l.356-.038.337-.112.337-.169.394-.262.468-.45.543-.637.581-.786.6-.937,1.293-2.154,1.311-2.379,1.349-2.454,1.367-2.3.712-1.106.75-1.03.786-.9.843-.806.862-.655.9-.506.881-.375.936-.281,1.63-.224h1.536l1.405.056,1.218.075,1.03-.057,1.012-.224,1.124-.412,1.217-.544,2.567-1.311,2.641-1.461,2.716-1.461,1.443-.656,1.367-.581,2.641-1.03,1.218-.543,1.2-.618,1.18-.731,1.143-.862,1.18-1.124,1.217-1.386,1.293-1.611,1.311-1.742,1.33-1.78,1.387-1.742,1.423-1.629,1.5-1.405,1.536-1.143,1.5-.862,1.479-.693,1.4-.543,1.33-.506,1.237-.487,1.18-.562,1.236-.731,1.33-.786,1.349-.712,1.311-.712,1.255-.712,1.2-.88.562-.487.562-.562.581-.656.562-.731.562-.842.562-.956.618-1.218.637-1.423.618-1.611.656-1.78.656-1.892.655-2,1.311-4.2,1.349-4.309,1.311-4.2.675-2,.693-1.911.674-1.8.693-1.611,1.331-3.054,1.33-3.11,1.348-3.015.675-1.443.693-1.367.693-1.33.73-1.2.731-1.106.768-1.03.862-.88.974-.75,1.124-.562,1.33-.224.993.168.824.394.637.5.543.562.824,1.162.768,1.4.693,1.536.694,1.63.674,1.723.674,1.742.656,1.686.656,1.592.618,1.443.581,1.161.543.862.187.225.15.15-.019-.019-.206-.075-.337-.038-.3.075-.15.075.075-.056.169-.187.206-.3.543-.993.6-1.311.637-1.592.655-1.836.637-1.948.656-2.117,1.33-4.327.674-2.136.675-2.1.693-1.967.674-1.8.731-1.668.749-1.4,1.4-2.211,1.424-1.948,1.442-1.705,1.5-1.442,1.592-1.18,1.667-.862,1.78-.506,1.854-.075.881.188.8.449.956.862.843,1.086.749,1.218L807.5,2660l.712,1.348,1.367,2.66.637,1.162.618.993.525.693.356.356-.019-.019-.169-.075-.337-.019-.281.075-.169.094v.019l.113-.169.206-.356.243-.618.281-.881.319-1.161.318-1.33.319-1.536.337-1.705.318-1.836.338-1.967.318-2.079.337-2.173.656-4.571.674-4.739.656-4.8.656-4.72.674-4.534.337-2.154.337-2.06.319-1.949.356-1.835.337-1.668.337-1.554.356-1.4.375-1.2.374-1.068.469-.974.711-.993,1.462-.787,1.742.356.955.974.562.9.431,1.012.356,1.1.356,1.255.337,1.424.356,1.536.337,1.705.337,1.779.337,1.911.338,2.023.674,4.234.656,4.458.655,4.515.675,4.514.655,4.346.319,2.061.337,1.967.337,1.911.319,1.742.337,1.63.318,1.5.319,1.293.318,1.1.281.88.262.619.169.318.094.15.187.168-.094-.037h-.093l.112-.037.356-.188.506-.393.6-.562.637-.712.675-.805,1.348-1.836,1.293-1.874.6-.861.544-.731.58-.88.6-1.068.618-1.255.637-1.443.655-1.554.656-1.63,1.33-3.353.656-1.686.693-1.63.693-1.555.693-1.442.731-1.33.786-1.2.881-1.03,1.03-.843,1.124-.506,1.18-.244,1.143.056,1.068.281.974.45.9.562.824.693.768.731.731.786.749.881,1.386,1.855,1.368,1.966,1.367,2.061.731,1.236.731,1.443.693,1.611.693,1.723.655,1.78.693,1.873,1.312,3.709.655,1.8.656,1.685.637,1.555.618,1.368.581,1.1.543.8.431.506.037.019-.074-.037h.056l.15-.057.337-.187.468-.375.543-.543.581-.693.618-.843.656-.974.637-1.087.655-1.2.637-1.256,1.274-2.772,1.218-2.96.3-.843.318-.936.318-1.068.319-1.1.656-2.492.674-2.716.637-2.9.674-3.053,1.33-6.257.656-3.109.674-3.035.675-2.885.674-2.679.674-2.472.356-1.106.337-1.049.356-.974.375-.9.393-.824.45-.806.768-.955,1.03-.712,1.143-.412,1.2-.112,1.143.168,1.067.337,1.012.506.974.6.918.73.9.806.862.918.843,1.03,1.405,2.154.637,1.236.524,1.237.375,1.068.337,1.142.337,1.237.356,1.367.337,1.443.338,1.536.674,3.278.656,3.54.674,3.709.674,3.822.656,3.878.656,3.821.674,3.728.656,3.559.655,3.316.337,1.517.319,1.443.318,1.33.338,1.255.3,1.086.319.974.281.806.281.618.131.243.056.075.094.094-.169-.056h-.056l.225-.075.431-.244.562-.43.618-.544,1.442-1.461,1.424-1.517.712-.731.749-.674.8-.637.862-.412,2.885-.9,2.829-.656,1.442-.244,1.48-.149,1.48-.038,1.367.056h.937l1.255-.075,1.555-.037,1.779.075,1.836.374,1.031.375.936.487.937.637.862.824.749.974.618,1.106.412.918.356.974.356,1.067.356,1.2.337,1.255.337,1.349.675,2.885.674,3.128.674,3.279.656,3.39.656,3.372.655,3.316.675,3.166.655,2.941.319,1.348.318,1.256.338,1.18.3,1.067.319.9.3.8.263.6.224.43.132.169-.094-.075-.337-.169-.506-.018-.3.112-.131.075.075-.075.206-.281.244-.393.281-.543.3-.637.281-.731.656-1.742.637-1.967.656-2.173.655-2.3.675-2.36.655-2.361.656-2.341.674-2.248.712-2.061.674-1.854.356-.881.394-.787,1.349-2.622,1.348-2.473,1.386-2.3,1.349-2.136,1.386-1.985,1.387-1.817,1.405-1.668,1.367-1.461,1.33-1.386,1.33-1.461,1.386-1.461.75-.693.768-.656.843-.6.918-.506,1.011-.356,1.105-.187,1.2.093,1.124.394,1.068.618.937.88.487.6.449.655.75,1.405.73,1.667.693,1.855.675,2,.693,2.155.655,2.229.675,2.267.655,2.247.656,2.211.656,2.117.655,1.967.619,1.742.636,1.48.6,1.2.225.393.206.281.393.431.281.187.206.094.206.037h.225l.375-.093.468-.15.487-.244,1.274-.73,1.4-.843,1.536-.768.937-.3.992-.187,1.7.037,1.555.262,1.4.337,1.236.3,1.068.169.955-.019.356-.056.412-.131.394-.188.393-.262.45-.412.524-.581.562-.749.618-.937.619-1.049.655-1.124,1.311-2.435,1.331-2.473.693-1.236.693-1.161.73-1.087.768-1.03.825-.918.843-.749.843-.581.917-.506,1.649-.618,1.723-.319,1.668.019,1.611.244,1.517.393,1.461.506,1.442.581.825.412.861.543,1.5,1.2,1.442,1.349,1.349,1.405,1.293,1.33,1.217,1.18,1.181.918.468.3.431.206.393.15.375.075.974.038,1.086-.131,1.255-.244,1.405-.262,1.555-.206,1.705.075.955.206.937.318.88.45.862.543.787.637.749.674,1.424,1.405,1.33,1.443,1.292,1.367,1.2,1.162.525.393.506.337.412.225.337.112,1.03.188,1.012.037,1.011-.131,1.068-.262,1.068-.45,1.124-.6,1.143-.806,1.161-.974.487-.543.543-.749.581-.975.618-1.161.637-1.293.674-1.367,1.33-2.829.675-1.405.712-1.33.711-1.236.769-1.143.842-1.03,1.05-.88,1.236-.562.9-.113.862.113.824.3.712.506.955.955.824,1.237.75,1.386.693,1.517.712,1.649.674,1.742.674,1.8,1.33,3.6.637,1.686.637,1.592.619,1.368.6,1.142.543.843.431.506.393.337.431.244.394.187.337.094.337.037.356-.018.937-.188,1.03-.412,1.143-.637,1.255-.786,1.2-.787.43-.394.487-.58.562-.825.6-1.03.637-1.18.674-1.255,1.33-2.585.693-1.274.75-1.18.786-1.068.881-.955,1.161-.843,1.461-.394.956.113.8.281.693.449.6.562.543.693.431.731.393.805.375.9.375,1.011.337,1.068.356,1.1.356,1.236.674,2.586.656,2.791.674,2.922.674,2.96.656,2.96.656,2.884.655,2.7.656,2.491.319,1.124.318,1.031.318.918.3.824.281.674.262.506.188.318.131.15.037.038-.075-.038-.187-.056h-.356l.206-.15.45-.543.562-.806.6-1.011.618-1.2.656-1.33.656-1.386,1.348-2.81.694-1.368.73-1.273.749-1.162.75-.955,1.348-1.518,1.312-1.592,1.367-1.63,1.386-1.573,1.48-1.386.825-.656.861-.525.937-.468,1.068-.281,1.067-.093,1.162.149,1.124.45,1.011.674.862.806.787.9.73.974.731,1.068,1.368,2.21,1.348,2.286,1.293,2.191.618.975.618.9.581.749.543.6.525.487.505.394,1.143.73,1.18.562,1.312.581,1.461.675,1.48.88.824.581.787.674.805.787.768.9.731,1.012.749,1.124.712,1.217.693,1.293,1.349,2.7,1.33,2.829,1.33,2.791,1.292,2.6.619,1.143.636,1.067.6.937.6.8,1.312,1.649,1.273,1.592,1.256,1.405,1.2,1.162.488.393.468.3.431.224.318.094.244.038.224-.019.207-.056.3-.169.075-.056.113-.112.524-.75.562-1.03.6-1.349.636-1.555.656-1.7,1.33-3.672.656-1.854.693-1.818.674-1.685.712-1.574.749-1.442.806-1.2.506-.581.6-.525.674-.412.9-.3h.974l.843.224.73.394.637.506.881,1.011.8,1.236.712,1.349.712,1.5.693,1.573.674,1.63,1.312,3.2.655,1.48.618,1.33.581,1.106.543.824.45.524.019.019-.056-.037.149.037h.113l.187-.056.356-.169.431-.281.524-.431.562-.543.581-.618,1.274-1.536,1.33-1.667,1.367-1.63.75-.824.674-.656.581-.6.562-.712.6-.843.618-.993,1.33-2.192,1.349-2.191.731-1.068.768-.993.843-.881.955-.768,1.2-.58,1.48-.188,1.386.412.712.469.562.487.562.637.45.73.393.768.393.862.356.918.356,1.012.675,2.154.674,2.435.693,2.585.656,2.679.674,2.735.656,2.7.655,2.586.656,2.435.656,2.192.318.974.3.861.3.75.3.655.244.506.206.319.112.131-.075-.075-.3-.113-.319-.018-.243.056-.113.056.038-.037.15-.15.505-.712.562-1.068.637-1.33.618-1.536.656-1.667,1.33-3.578.674-1.8.675-1.7.693-1.63.73-1.48.75-1.274.468-.637.487-.543.862-.749.9-.6.9-.468.937-.318.918-.188.918-.093,1.517.037,1.442.15,1.181.131,1.067-.019.431-.056.394-.093,1.1-.45,1.18-.637,1.255-.768,1.33-.824,1.386-.843,1.461-.787,1.574-.674,1.555-.412,2.791-.488,1.5-.187,1.592-.037,1.686.224,1.667.525.88.431.862.524.824.637.825.768.805.918.768,1.087.731,1.2.712,1.292.674,1.368.693,1.442,1.349,2.941,1.311,2.922.656,1.368.637,1.311.618,1.162.618,1.03.581.862.506.618.374.374.337.206.338.15.337.094.412.037h.506l1.33-.093,1.517-.038.918.075.974.206.993.375.974.581.918.787.843.992.8,1.255.75,1.48.712,1.686.674,1.817.674,1.949.675,2.041,1.33,4.122.674,2,.637,1.892.656,1.742.618,1.536.6,1.237.544.917.187.244.15.15.037.037-.15-.075-.243-.056-.206.019-.113.037-.056.038.337-.319.487-.637.562-.955.619-1.18.636-1.349.637-1.48,1.33-3.147.675-1.573.674-1.536.712-1.462.731-1.348.768-1.2.824-.993.843-.787.824-.637.806-.524.861-.469,1.593-.618,1.536-.374,1.479-.225,1.349-.15,1.237-.15,1.18-.243,2.622-.675,2.735-.655,1.443-.281,1.461-.188,1.517-.075,1.536.057.918.131.956.281,1.554.693,1.443.824,1.311.787,1.161.618,1.012.393.337.075.356.019.263-.037.28-.075.394-.206.468-.319.525-.45.562-.5,1.217-1.405,1.255-1.63,1.312-1.817,1.33-1.873,1.367-1.874,1.368-1.7,1.105.9-1.349,1.667-1.33,1.855-1.33,1.873-1.311,1.836-1.311,1.686-1.293,1.48-.637.58-.618.525-.6.412-.562.3-.543.168-.524.056-.562-.037-.562-.112-1.218-.469-1.274-.674-1.311-.806-1.386-.786-1.387-.619-.768-.224-.749-.113-1.405-.037-1.386.075-1.367.168-1.368.262-2.679.637-2.641.675-1.274.262-1.311.169-1.33.15-1.386.206-1.387.337-1.423.562-.731.393-.712.468-.712.544-.73.674-.712.881-.693,1.067-.693,1.274-.675,1.405-.674,1.5-.656,1.573-1.33,3.147-.655,1.518-.656,1.386-.656,1.255-.636,1.049-.6.787-.543.524-.206.113-.188.075h-.149l-.15-.019-.169-.075-.225-.187-.281-.281-.281-.375-.618-1.049-.656-1.33-.636-1.592-.675-1.78-.655-1.929-.675-2.024-1.311-4.1-.674-2.023-.675-1.93-.655-1.779-.694-1.611-.693-1.386-.712-1.106-.693-.824-.73-.618-.768-.468-.768-.3-.787-.15-.749-.075-1.424.056-1.349.075h-.618l-.581-.056-.562-.15-.543-.225-.543-.356-.543-.505-.619-.75-.637-.955-.655-1.087-.637-1.217-.656-1.349-.655-1.386-1.33-2.922-1.33-2.942-.675-1.423L1305,2722.8l-.675-1.256-.674-1.124-.712-.974-.712-.824-.711-.655-.712-.562-.75-.45-.73-.356-1.424-.45-1.461-.187-1.405.038-1.386.168-2.716.468-1.387.375-1.423.6-1.368.73-1.349.824-1.33.843-1.311.787-1.274.675-1.255.5-.562.15-.6.094h-1.237l-1.292-.131-1.349-.131-1.386-.038-.768.056-.75.169-.749.243-.73.394-.75.487-.73.656-.394.43-.374.506-.675,1.162-.693,1.405-.674,1.573-.675,1.686-.655,1.78-1.349,3.578-.656,1.7-.636,1.574-.656,1.4-.637,1.161-.618.862-.262.3-.225.187-.188.094-.149.037h-.113l-.131-.056-.187-.15-.263-.318-.281-.45-.3-.6-.337-.712-.319-.806-.318-.918-.338-1.011-.637-2.211-.674-2.454-.656-2.6-.674-2.716-.656-2.716-.655-2.679-.675-2.566-.674-2.4-.674-2.117-.338-.955-.337-.881-.356-.768-.356-.693-.355-.6-.413-.469-.412-.355-.449-.3-.918-.262-.937.112-.843.412-.749.618-.731.75-.693.9-.693,1.011-1.33,2.155-1.33,2.191-.656,1.031-.636.917-.637.806-.619.656-.674.655-.693.75-1.349,1.611-1.33,1.648-1.311,1.574-.618.693-.637.6-.618.525-.581.374-.581.281-.506.131h-.487l-.487-.149-.206-.113-.206-.168-.6-.694-.637-.955-.637-1.2-.637-1.386-.656-1.517-1.33-3.2-.674-1.611-.656-1.554-.693-1.424-.674-1.274-.712-1.1-.731-.843-.449-.337-.469-.263-.487-.131h-.543l-.524.188-.45.262-.431.374-.374.45-.712,1.068-.693,1.311-.675,1.517-.674,1.649-.674,1.78-.656,1.854-1.33,3.672-.675,1.742-.636,1.592-.656,1.424-.618,1.161-.637.881-.244.281-.243.187-.544.3-.505.15-.525.037-.524-.075-.544-.187-.58-.281-.618-.394-.6-.487-1.274-1.236-1.311-1.461-1.311-1.63-1.33-1.667-.637-.862-.637-1.011-.656-1.106-.655-1.2-1.312-2.642-1.33-2.81-1.33-2.791-1.33-2.679-.674-1.255-.675-1.161-.693-1.068-.693-.937-.693-.8-.712-.712-.712-.581-.73-.524-1.368-.806-1.367-.655-1.33-.562-1.274-.618-1.274-.806-.618-.487-.6-.581-.637-.674-.619-.824-.655-.937-.656-1.03-1.311-2.211-1.33-2.266-1.349-2.173-.693-1.012-.674-.918-.712-.8-.731-.675-.787-.524-.805-.337-.824-.094-.806.056-.8.225-.75.375-.73.449-.712.562-1.386,1.311-1.349,1.5-1.33,1.592-1.33,1.611-1.33,1.518-.693.88-.693,1.068-.693,1.217-.675,1.312-1.33,2.791-.655,1.405-.656,1.33-.656,1.255-.637,1.087-.637.917-.6.693-.506.394-.431.15h-.112l-.169-.038-.187-.112-.243-.206-.263-.319-.281-.449-.3-.618-.319-.75-.318-.861-.338-.974-.337-1.05-.318-1.161-.656-2.51-.674-2.735-.656-2.885-.655-2.96-.656-2.959-.674-2.9-.675-2.772-.656-2.567-.337-1.2-.356-1.086-.318-1.031-.356-.955-.337-.824-.375-.712-.356-.637-.393-.506-.431-.393-.45-.3-.487-.168-.543-.057-.937.244-.824.6-.73.806-.693.955-.712,1.1-.675,1.218-1.311,2.566-.674,1.274-.656,1.218-.637,1.086-.637.937-.6.712-.6.506-1.274.861-1.311.825-1.255.693-1.236.506-1.2.243h-.562l-.562-.056-.543-.15-.562-.262-.6-.356-.581-.468-.58-.675-.618-.993-.656-1.217-.637-1.443-.656-1.629-.655-1.7-1.33-3.6-.675-1.8-.655-1.705-.693-1.611-.656-1.461-.693-1.293-.731-1.049-.749-.786-.468-.319-.487-.187-.525-.056-.506.075-.861.374-.787.675-.731.861-.693,1.049-.674,1.18-.693,1.293-.656,1.368-1.33,2.828-.674,1.386-.656,1.312-.637,1.217-.637,1.049-.637.881-.6.655-1.274,1.068-1.255.9-1.274.693-1.236.488-1.237.337-1.236.131-1.218-.038-1.236-.206-.543-.187-.581-.318-.618-.413-.618-.487-1.274-1.217-1.33-1.386-1.33-1.443-1.349-1.367-.693-.619-.712-.543-.731-.487-.73-.375-.749-.243-.768-.169-1.462-.056-1.386.169-1.367.262-1.293.244-1.255.168-1.2-.056-.581-.112-.58-.207-.581-.281-.6-.374-1.274-1.012-1.293-1.236-1.311-1.349-1.33-1.386-1.368-1.311-1.386-1.087-.73-.468-.731-.356-1.349-.543-1.386-.487-1.386-.356-1.424-.206-1.424-.019-1.479.262-1.424.525-.749.43-.731.488-.712.655-.73.787-.694.955-.693,1.031-.674,1.124-.674,1.2-1.33,2.453-1.312,2.454-.674,1.162-.656,1.086-.637.975-.618.861-.637.693-.58.525-.581.374-.562.263-.6.187-.562.112h-1.18l-1.255-.187-1.292-.3-1.368-.337-1.386-.225-1.461-.037-.75.131-.749.244-1.386.693-1.368.824-1.33.768-.618.281-.618.225-.562.131-.524.019-.525-.094-.506-.206-.524-.393-.543-.6-.3-.393-.3-.506-.637-1.274-.656-1.555-.655-1.8-.656-2-.655-2.117-.675-2.229-.655-2.267-.656-2.267-.656-2.21-.693-2.117-.655-1.986-.675-1.779-.674-1.574-.712-1.292-.356-.562-.393-.469-.75-.693-.8-.468-.824-.281-.825-.075-.824.131-.787.281-.749.412-.712.506-.693.6-.712.637-1.33,1.424-1.33,1.461-1.349,1.386-1.33,1.424-1.348,1.63-1.349,1.761-1.349,1.929-1.33,2.1-1.349,2.267-1.33,2.435-1.348,2.585-.356.731-.338.824-.655,1.8-.693,2.024-.656,2.21-.674,2.323-.656,2.36-.674,2.379-.656,2.323-.656,2.192-.655,2-.656,1.8-.318.768-.319.693-.318.618-.3.506-.3.393-.243.244-.169.131-.131.037h-.056l-.094-.037-.206-.188-.262-.374-.3-.544-.3-.693-.318-.861-.337-.956-.319-1.1-.337-1.2-.318-1.292-.319-1.368-.674-2.96-.675-3.184-.655-3.316-.656-3.372-.655-3.39-.675-3.279-.674-3.091-.656-2.866-.337-1.311-.337-1.236-.337-1.162-.338-1.03-.337-.918-.375-.8-.524-.937-.618-.824-.712-.675-.749-.5-.787-.413-.843-.3-1.63-.337-1.611-.075-1.48.056-1.274.056H940.5l-1.349-.056-1.367.056-1.387.131-1.367.225-2.716.637-2.735.843-.637.318-.637.487-.674.618-.675.694-1.424,1.517-1.479,1.5-.712.636-.675.506-.637.356-.543.188-.431.018-.356-.131-.412-.375-.206-.281-.206-.393-.318-.712-.319-.861-.318-1.031-.319-1.124-.337-1.274-.337-1.348-.319-1.48-.337-1.536-.655-3.335-.656-3.578-.674-3.727-.656-3.822-.674-3.878-.656-3.821-.674-3.69-.656-3.522-.674-3.26-.338-1.517-.318-1.424-.337-1.33-.356-1.2-.319-1.1-.356-.993-.487-1.161-.562-1.1-1.33-2.042-.749-.918-.805-.843-.806-.749-.824-.637-.843-.525-.862-.431-.862-.262-.842-.131-.862.075-.768.3-.712.487-.562.693-.375.655-.356.75-.337.843-.356.918-.318,1.011-.356,1.087-.656,2.416-.674,2.66-.675,2.866-.655,3.016-.656,3.11-1.349,6.257-.655,3.053-.656,2.941-.674,2.735-.656,2.529-.337,1.124-.319,1.086-.318.975-.337.88-1.218,3.016-1.311,2.847-.674,1.293-.675,1.236-.674,1.124-.675,1.031-.674.917-.637.787-.656.637-.618.487-.543.319-.487.168-.431.019-.412-.094-.206-.112-.225-.187-.581-.656-.636-.955-.637-1.2-.637-1.443-.656-1.573-.674-1.724-.656-1.817-1.311-3.709-.675-1.854-.674-1.761-.656-1.686-.674-1.555-.693-1.368-.693-1.161-1.33-2.023-1.349-1.948-1.349-1.8-.693-.8-.674-.749-.712-.656-.712-.6-.749-.468-.768-.356-.787-.206-.824-.037-.843.168-.806.375-.787.637-.73.862-.712,1.067-.693,1.255-.674,1.387-.675,1.536-.674,1.592-.656,1.667-1.33,3.372-.674,1.63-.656,1.573-.637,1.48-.655,1.312-.656,1.161-.637.955-.543.731-.581.862-1.311,1.873-1.387,1.892-.711.862-.693.768-.694.655-.655.506-.6.337-.505.131-.413-.018-.393-.188-.45-.449-.224-.337-.225-.431-.319-.731-.318-.955-.318-1.18-.319-1.33-.337-1.518-.337-1.648-.319-1.78-.337-1.911-.337-1.985-.319-2.08-.655-4.346-.675-4.514-.674-4.515-.656-4.439-.655-4.234-.337-2-.338-1.892L827.3,2621l-.337-1.667-.337-1.518-.337-1.367-.338-1.2-.337-1.03-.374-.862-.394-.674-.543-.544-.806-.168-.711.393-.45.637-.393.768-.338.974-.337,1.143-.356,1.349-.318,1.5-.337,1.668-.338,1.8-.337,1.948-.337,2.042-.318,2.154-.675,4.515-.655,4.7-.675,4.795-.655,4.758-.675,4.571-.318,2.192-.337,2.079-.338,1.986-.318,1.854-.337,1.724-.319,1.573-.337,1.368-.318,1.2-.319.993-.3.73-.281.487-.243.356-.206.206-.169.094-.112.019h-.113l-.168-.057-.206-.131-.581-.543-.618-.843-.674-1.068-.675-1.217-1.367-2.679-.693-1.33-.694-1.255-.693-1.1-.711-.937-.75-.674-.468-.244-.506-.112-1.5.056-1.48.412-1.443.749-1.4,1.049-1.386,1.349-1.367,1.592-1.349,1.874-1.368,2.135-.693,1.293-.693,1.573-.656,1.78-.693,1.929-.655,2.061-.675,2.135-1.33,4.328-.655,2.117-.656,1.985-.674,1.873-.637,1.649-.637,1.405-.637,1.1-.281.412-.281.319-.244.206-.187.112-.112.019h-.113l-.15-.075-.206-.15-.281-.281-.281-.356-.618-.993-.637-1.255-.655-1.48-.656-1.629-.674-1.7-.656-1.724-.656-1.7-.693-1.592-.674-1.48-.693-1.274-.712-1.012-.412-.412-.431-.356-.487-.225-.562-.093-.881.15-.824.393-.768.6-.73.75-.694.918-.674,1.049-.693,1.142-.674,1.274-.675,1.349-.655,1.405-1.349,3-1.33,3.091-1.33,3.053-.675,1.593-.655,1.761-.675,1.873-.674,1.986-1.311,4.177-1.349,4.309-1.311,4.2-.675,2.041-.655,1.911-.656,1.8-.656,1.648-.655,1.5-.637,1.292-.618,1.031-.619.917-.618.806-.637.731-.637.618-.636.562-1.312.955-1.33.768-1.349.712-1.33.712-1.292.768-1.293.768-1.274.6-1.311.525-1.33.487-1.349.524-1.367.656-1.386.787-1.405,1.03-1.386,1.311-1.368,1.555-1.33,1.705-1.349,1.761-1.311,1.742-1.311,1.667-1.293,1.461L716.9,2748.7l-1.273.955-1.274.806-1.274.655-1.311.581-2.642,1.03-1.349.562-1.367.637-2.679,1.424-2.641,1.48-2.623,1.33-1.292.581-1.255.449-1.237.281-1.217.056-1.293-.056-1.367-.075h-1.387l-1.442.206-.749.225-.731.319-.749.412-.731.543-.712.693-.711.824-.694.956-.674,1.03-1.349,2.267-1.33,2.416-1.311,2.417-1.33,2.21-.637.974-.637.881-.637.73-.6.562-.562.394-.562.281-.562.168-.543.075h-.581l-.6-.075-1.33-.225-1.348-.206-.731-.056-.768.019-.768.15-.749.262-.787.412-.749.6-.731.768-.693.917-.693,1.05-.675,1.161-.674,1.255-.674,1.311-1.33,2.735-1.312,2.679-.674,1.274-.656,1.2-.637,1.068-.636.936-.619.768-.6.581-.581.431-.543.281-.562.168-.562.094h-.581l-.58-.056-1.255-.281-1.312-.375-1.386-.374-1.424-.169-.786.019-.769.131-1.423.487-1.405.693-1.349.824-1.349.843-1.311.843-1.293.731-1.236.543-1.217.337-1.181.094-1.236-.113-1.255-.281-1.311-.355-1.33-.394-1.368-.356-1.386-.281-1.424-.112-2.735.168-2.7.413-2.7.58-2.66.656-2.66.637-2.679.693-1.348.431-1.387.506-1.367.618-1.386.73-1.405.974-1.368,1.218L596,2808.872l-1.33,1.368-1.311,1.311-1.292,1.162-1.256.9-.6.318-.581.244-.578.168-.562.075-1.222-.019-1.225-.206-1.285-.356-2.66-.88-1.377-.356-1.4-.225-2.705-.168-2.686-.056-2.685.056-2.7.168-2.7.375-2.675.506-2.636.524-2.61.356-2.613.169-2.624.056-2.627-.056-2.618-.169-2.634-.318-2.628-.45-2.653-.506-2.66-.487Z" fill="#808285"/>
    <text id="_0" data-name="0" transform="translate(510.414 2820.357)" fill="#606060" font-size="14.314" font-family="IBMPlexSans, IBM Plex Sans"><tspan x="0" y="0">0</tspan></text>
    <text id="_2" data-name="2" transform="translate(510.414 2784.09)" fill="#606060" font-size="14.314" font-family="IBMPlexSans, IBM Plex Sans"><tspan x="0" y="0">2</tspan></text>
    <text id="_4" data-name="4" transform="translate(510.414 2747.804)" fill="#606060" font-size="14.314" font-family="IBMPlexSans, IBM Plex Sans"><tspan x="0" y="0">4</tspan></text>
    <text id="_6" data-name="6" transform="translate(510.414 2711.518)" fill="#606060" font-size="14.314" font-family="IBMPlexSans, IBM Plex Sans"><tspan x="0" y="0">6</tspan></text>
    <text id="_8" data-name="8" transform="translate(510.414 2675.29)" fill="#606060" font-size="14.314" font-family="IBMPlexSans, IBM Plex Sans"><tspan x="0" y="0">8</tspan></text>
    <text id="_10" data-name="10" transform="translate(503.849 2639.004)" fill="#606060" font-size="14.314" font-family="IBMPlexSans, IBM Plex Sans"><tspan x="0" y="0">10</tspan></text>
    <text id="_12" data-name="12" transform="translate(503.849 2602.719)" fill="#606060" font-size="14.314" font-family="IBMPlexSans, IBM Plex Sans"><tspan x="0" y="0">12</tspan></text>
    <text id="_14" data-name="14" transform="translate(503.849 2566.435)" fill="#606060" font-size="14.314" font-family="IBMPlexSans, IBM Plex Sans"><tspan x="0" y="0">14</tspan></text>
    <text id="_16" data-name="16" transform="translate(503.849 2530.149)" fill="#606060" font-size="14.314" font-family="IBMPlexSans, IBM Plex Sans"><tspan x="0" y="0">16</tspan></text>
    <text id="_12-Mar" data-name="12-Mar" transform="translate(517.416 2841.393)" fill="#606060" font-size="14.314" font-family="IBMPlexSans, IBM Plex Sans"><tspan x="0" y="0">12-Mar</tspan></text>
    <text id="_22-Mar" data-name="22-Mar" transform="translate(623.653 2841.393)" fill="#606060" font-size="14.314" font-family="IBMPlexSans, IBM Plex Sans"><tspan x="0" y="0">22-Mar</tspan></text>
    <text id="_1-Apr" data-name="1-Apr" transform="translate(734.7 2841.393)" fill="#606060" font-size="14.314" font-family="IBMPlexSans, IBM Plex Sans"><tspan x="0" y="0">1-Apr</tspan></text>
    <text id="_11-Apr" data-name="11-Apr" transform="translate(837.693 2841.393)" fill="#606060" font-size="14.314" font-family="IBMPlexSans, IBM Plex Sans"><tspan x="0" y="0">11-Apr</tspan></text>
    <text id="_21-Apr" data-name="21-Apr" transform="translate(943.945 2841.393)" fill="#606060" font-size="14.314" font-family="IBMPlexSans, IBM Plex Sans"><tspan x="0" y="0">21-Apr</tspan></text>
    <text id="_1-May" data-name="1-May" transform="translate(1051.339 2841.393)" fill="#606060" font-size="14.314" font-family="IBMPlexSans, IBM Plex Sans"><tspan x="0" y="0">1-May</tspan></text>
    <text id="_11-May" data-name="11-May" transform="translate(1154.351 2841.393)" fill="#606060" font-size="14.314" font-family="IBMPlexSans, IBM Plex Sans"><tspan x="0" y="0">11-May</tspan></text>
    <text id="_21-May" data-name="21-May" transform="translate(1260.621 2841.393)" fill="#606060" font-size="14.314" font-family="IBMPlexSans, IBM Plex Sans"><tspan x="0" y="0">21-May</tspan></text>
    <text id="_31-May" data-name="31-May" transform="translate(1366.855 2841.393)" fill="#606060" font-size="14.314" font-family="IBMPlexSans, IBM Plex Sans"><tspan x="0" y="0">31-May</tspan></text>
    <rect id="Rectangle_39" data-name="Rectangle 39" width="1254.132" height="455.031" transform="translate(332.934 2419.053)" fill="none" stroke="#a7a9ac" stroke-miterlimit="10" stroke-width="1.417"/>
    <g id="Group_25" data-name="Group 25">
      <g id="Group_18" data-name="Group 18">
        <rect id="Rectangle_40" data-name="Rectangle 40" width="9.763" height="9.763" transform="translate(884.656 2454.79)" fill="#313e59"/>
        <text id="Balkans" transform="translate(897.823 2464.553)" fill="#606060" font-size="14.314" font-family="IBMPlexSans, IBM Plex Sans"><tspan x="0" y="0">Balkans</tspan></text>
      </g>
      <g id="Group_19" data-name="Group 19">
        <rect id="Rectangle_41" data-name="Rectangle 41" width="9.763" height="9.763" transform="translate(1048.442 2454.79)" fill="#a5a5a5"/>
        <text id="Baltic" transform="translate(1061.737 2464.553)" fill="#606060" font-size="14.314" font-family="IBMPlexSans, IBM Plex Sans"><tspan x="0" y="0">Baltic</tspan></text>
      </g>
      <g id="Group_20" data-name="Group 20">
        <rect id="Rectangle_42" data-name="Rectangle 42" width="9.763" height="9.763" transform="translate(968.781 2454.79)" fill="#91bce8"/>
        <text id="Greece" transform="translate(982.599 2464.553)" fill="#606060" font-size="14.314" font-family="IBMPlexSans, IBM Plex Sans"><tspan x="0" y="0">Greece</tspan></text>
      </g>
      <g id="Group_21" data-name="Group 21">
        <rect id="Rectangle_43" data-name="Rectangle 43" width="9.763" height="9.763" transform="translate(1236.851 2454.79)" fill="#808285"/>
        <text id="Sweden" transform="translate(1250.537 2464.553)" fill="#606060" font-size="14.314" font-family="IBMPlexSans, IBM Plex Sans"><tspan x="0" y="0">Sweden</tspan></text>
      </g>
      <g id="Group_22" data-name="Group 22">
        <rect id="Rectangle_44" data-name="Rectangle 44" width="9.763" height="9.763" transform="translate(1118.567 2454.79)" fill="#231f20"/>
        <text id="Scandinavian" transform="translate(1132.152 2464.553)" fill="#606060" font-size="14.314" font-family="IBMPlexSans, IBM Plex Sans"><tspan x="0" y="0">Scandinavian</tspan></text>
      </g>
      <g id="Group_23" data-name="Group 23">
        <rect id="Rectangle_45" data-name="Rectangle 45" width="9.763" height="9.763" transform="translate(618.006 2454.79)" fill="#d1d3d4"/>
        <text id="Western_Europe" data-name="Western Europe" transform="translate(631.985 2464.553)" fill="#606060" font-size="14.314" font-family="IBMPlexSans, IBM Plex Sans"><tspan x="0" y="0">Western Europe</tspan></text>
      </g>
      <g id="Group_24" data-name="Group 24">
        <rect id="Rectangle_46" data-name="Rectangle 46" width="9.763" height="9.763" transform="translate(755.178 2454.79)" fill="#222b3e"/>
        <text id="Central_Europe" data-name="Central Europe" transform="translate(769.006 2464.553)" fill="#606060" font-size="14.314" font-family="IBMPlexSans, IBM Plex Sans"><tspan x="0" y="0">Central Europe</tspan></text>
      </g>
    </g>
  </g>
</svg>
