<svg xmlns="http://www.w3.org/2000/svg" width="100%" height="auto" viewBox="0 0 1255.549 456.448"><defs><style>.a,.j,.k{fill:none;stroke:#a6a8ab;stroke-miterlimit:10;}.a{stroke-width:1.417px;}.spbg{fill:#313e59;}.c{fill:#606060;font-size:14.314px;font-family:IBMPlexSans, IBM Plex Sans;}.d{fill:#a4a4a4;}.e{fill:#90bbe7;}.f{fill:#808184;}.g{fill:#231f20;}.h{fill:#d0d2d3;}.i{fill:#222b3e;}.j,.k{stroke-width:0.9px;}.j{opacity:0.322;}</style></defs><g transform="translate(-332.225 -2592.312)"><rect class="a" width="1254.132" height="455.031" transform="translate(332.934 2593.02)"/><rect class="spbg" width="9.763" height="9.763" transform="translate(884.656 2628.758)"/><text class="c" transform="translate(897.823 2638.521)"><tspan x="0" y="0">Balkans</tspan></text><rect class="d" width="9.763" height="9.763" transform="translate(1048.442 2628.758)"/><text class="c" transform="translate(1061.737 2638.521)"><tspan x="0" y="0">Baltic</tspan></text><rect class="e" width="9.763" height="9.763" transform="translate(968.781 2628.758)"/><text class="c" transform="translate(982.599 2638.521)"><tspan x="0" y="0">Greece</tspan></text><rect class="f" width="9.763" height="9.763" transform="translate(1236.851 2628.758)"/><text class="c" transform="translate(1250.537 2638.521)"><tspan x="0" y="0">Sweden</tspan></text><rect class="g" width="9.763" height="9.763" transform="translate(1118.567 2628.758)"/><text class="c" transform="translate(1132.152 2638.521)"><tspan x="0" y="0">Scandinavian</tspan></text><rect class="h" width="9.763" height="9.763" transform="translate(618.006 2628.758)"/><text class="c" transform="translate(631.985 2638.521)"><tspan x="0" y="0">Western Europe</tspan></text><rect class="i" width="9.763" height="9.763" transform="translate(755.178 2628.758)"/><text class="c" transform="translate(769.006 2638.521)"><tspan x="0" y="0">Central Europe</tspan></text><text class="c" transform="translate(449.286 3012.145)"><tspan x="0" y="0">25/1/20</tspan></text><text class="c" transform="translate(510.641 3012.145)"><tspan x="0" y="0">25/2/20</tspan></text><text class="c" transform="translate(571.997 3012.145)"><tspan x="0" y="0">25/3/20</tspan></text><text class="c" transform="translate(633.352 3012.145)"><tspan x="0" y="0">25/4/20</tspan></text><text class="c" transform="translate(694.708 3012.145)"><tspan x="0" y="0">25/5/20</tspan></text><text class="c" transform="translate(756.063 3012.145)"><tspan x="0" y="0">25/6/20</tspan></text><text class="c" transform="translate(817.419 3012.145)"><tspan x="0" y="0">25/7/20</tspan></text><text class="c" transform="translate(878.774 3012.145)"><tspan x="0" y="0">25/8/20</tspan></text><text class="c" transform="translate(940.129 3012.145)"><tspan x="0" y="0">25/9/20</tspan></text><text class="c" transform="translate(997.19 3012.145)"><tspan x="0" y="0">25/10/20</tspan></text><text class="c" transform="translate(1058.546 3012.145)"><tspan x="0" y="0">25/11/20</tspan></text><text class="c" transform="translate(1119.901 3012.145)"><tspan x="0" y="0">25/12/20</tspan></text><text class="c" transform="translate(1185.551 3012.145)"><tspan x="0" y="0">25/1/21</tspan></text><text class="c" transform="translate(1246.906 3012.145)"><tspan x="0" y="0">25/2/21</tspan></text><text class="c" transform="translate(1308.261 3012.145)"><tspan x="0" y="0">25/3/21</tspan></text><text class="c" transform="translate(1369.617 3012.145)"><tspan x="0" y="0">25/4/21</tspan></text><text class="c" transform="translate(1430.972 3012.145)"><tspan x="0" y="0">25/5/21</tspan></text><path class="j" d="M474.844,2696.69h995.067m-995.067,28.718h995.067m-995.067,28.717h995.067m-995.067,28.718h995.067M474.844,2813h995.067m-995.067,28.718h995.067m-995.067,28.718h995.067m-995.067,28.717h995.067m-995.067,28.718h995.067m-995.067,30.154h995.067"/><line class="k" y1="290.048" transform="translate(474.844 2696.69)"/><line class="k" x2="995.067" transform="translate(474.844 2986.738)"/><path class="k" d="M1455.552,2986.738v4.308m-60.307-4.308v4.308m-63.179-4.308v4.308m-56-4.308v4.308m-63.179-4.308v4.308m-61.743-4.308v4.308m-60.307-4.308v4.308m-63.179-4.308v4.308m-60.307-4.308v4.308m-63.179-4.308v4.308m-61.743-4.308v4.308m-61.743-4.308v4.308m-61.743-4.308v4.308m-60.307-4.308v4.308m-63.179-4.308v4.308m-58.871-4.308v4.308m-61.743-4.308v4.308"/><path class="h" d="M489.2,2987.456h68.075l1.436-7.179,3.132,1.227,1.806,5.418,3.473-5.209h1.569l1.569-4.708,2.779-4.168,4.267-1.175,1.546-4.638,4.358-7.317,1.147-4.59,2.483,2.483,2.11-2.11,2.456-15.963.512,1.538,1.78,3.56,2.774-1.387,1.436,4.308,3.826-1.913,2.213,6.817,3.693-12.927,1.429-7.143,2.865-7.163,1.457-5.827,1.434-10.039,2.84-9.94.961-1.921,2.675,2.675,1.944-1.944,3.28-2.317,1.294,6.471,3.533,3.533,1.436-1.436,3.718,3.718,1.705,3.41,3.828-1.914,1.241-6.209,3.277,3.277,1.829,3.659,3.576-3.576,3.178-1.226,1.381,9.672,1.816,1.815h3.466l3.4,5.429,2.822,8.566,2.885,2.885,1.417,5.671,2.916,4.374,1.615,3.229H678.3l2.725,5.45,1.6,1.6,2.762,1.381,1.381,2.762,1.518,1.518,2.872,2.872,1.646,1.646h2.872l2.871,2.872h7.477l2.447,1.308,3.127,1.564h1.436l2.872,1.436,4.093,4.307h1.523l1.435,1.436h2.872l1.436,1.436h2.872l1.733,1.733,1.733-1.733h6.713l2.744,1.436h7.179l1.436,1.436h16.262l3.127-1.564,2.447-1.308h2.871l4.139,1.436h1.436l2.615,1.308,1.564,1.564h34.461l1.592,1.591,3.183-1.591h5.277l1.591,1.591,3.183-1.591,2.405,1.436H880.06l1.436-1.436H895.26l1.592,1.591,2.872-1.436,3.013,1.281h47.682l1.436-1.436h8.615l1.436-1.436h18.666l1.436-1.436h12.923l1.564-1.564,2.616-1.308h1.564l1.564-1.564,2.615-1.308h1.564l2.872-2.871,2.433,1.591,3.183-1.591h4.435l1.646-1.647,4.417-2.885,1.468-5.871,2.731-2.731,1.435-1.436,4.226-2.789,1.518-1.518,2.662-2.662h1.656l1.505-4.516,2.143-1.072,1.774,1.775,3.317-6.635,1.384-2.767,1.968-1.968,1.232,3.7h2.251l3.165-3.164,1.381-2.762,2.871-1.436,1.491-2.982,4.015-4.015,4.627-1.659,1.5-5.987,1.293-2.588,2.506-1.253h1.564l2.872-2.871h1.436l4.53.344,1.436-7.179,1.926.963,1.862,1.861,1.861-1.861,2.305-1.152,3.772,3.772,1.6,11.236,2.241-2.241h2.277l1.592,1.592,3.183-1.592,3.712,1.308,2.872,2.872,3.618,1.809,1.559-3.117h4.308l1.634-3.269,2.872-5.743,1.384-2.768,2.789-2.789,1.518-1.519,1.381-2.761,2.872-1.436,1.222-2.444,2.871,1.436.889-1.778.972,3.887,2.872,8.616,1.477,5.909,3.961,3.961,1.7-8.478,1.038-4.152,2.457,3.686,1.69-1.69,2.195,1.1,2.488,4.976,1.583-20.588h1.91l1.845,1.845,3.426-5.14,1.436-5.744,2.888-4.332.575-3.45,1,10.032,3.34-1.671,1.578,1.578,3.542-3.542,1.475-8.851,1.432-10.023,2.863-11.451,1.219-4.875,2.871,1.436,1.647-6.585.693-2.08,2.285,8,4.339,19.008h1.747l3.909,8.092,1.722,10.33,3.064-4.6,1.934,5.8,1.778-12.446h2.546l3.375-.232,1.386,6.929,1.5,3,2.828,4.241,1.417,5.67,2.866,7.164,1.435,7.179,3.077,7.692h1.625l3.935,3.935,1.873,11.239,3.006-9.018,1.309,5.234,2.1-4.21h1.82l1.374,8.242,3.738,3.739,1.014-2.027,1.272,5.091,2.947-2.947,1.163,3.487,3.034,1.517,2.25,2.25,1.35-5.4,1.946,2.92,1.393,2.786,3.02,9.058h2.47l1.506-4.516,1.964-.982,1.313,2.626h3.018l1.93,1.93,1.436-2.871,2.026,2.026,1.436,5.744,3.223,3.223h1.9l3.127-1.564,2.447-1.308h4.477l2.872-1.436h2.4l2.661,2.661,1.944,1.944,3.533-3.533,1.459-7.3.948-1.9,2.675,2.675,1.733-1.733h3.018l.993-1.985.77,1.542,2.872,8.615,1.657,3.315h3.613l1.729-1.729,1.289-2.579h2.131l1.733,1.733,3.38-3.379,2.066.21h2.726l1.558,3.117,3.618-1.809,3.585,1.564h1.734l4.727,1.73,1.33-3.991,2.05,2.051,1.647,1.646h1.9l2.561-1.281,4.28,2.717h5.913l4.138,1.435h1.6l4.139,1.436h4.179l2.872,2.872h3.169l3.924,4.308h1.522l1.436,1.436h3.169l4.139,1.436h4.179l1.436,1.435h1.564l2.872,1.436h5.913l4.138,1.436h4.477l2.574,1.436h4.6v1.436h-5.2l-1.436-1.436h-5.36l-2.872-1.436h-7.179l-2.872-1.436h-1.82l-1.435-1.436h-3.925l-2.871-1.435h-4.692l-1.435-1.436h-1.7l-2.872-4.308h-4.047l-2.067-2.067-2.784-.805h-1.945l-2.871-1.436h-2.872l-2.872-1.436h-7.179l-3.639-1.819-2.524.384h-2.836l-2.067-2.067-1.527,2.95-4.638-2.319h-3.255l-1.98-1.98-5.271,2.716-1.8-3.608H1364.2l-4.852,3.764-2.328-2.328-1.645,1.994-2.314,2.313h-5.1l-2.1-4.2-2.871-8.615-2.857,1.327-2.328,2.328-2.282-2.281-1.478,7.477-4.855,4.856-2.959-2.959-2.241-2.241h-1.471l-2.872,1.436h-4.816l-1.6,1.052-3.639,1.819h-2.837l-3.924-3.924-1.436-5.743-1.773,2.534-2.918-2.918H1293.4l-1.068-2.136-1.792,5.008H1286l-3.315-9.943-1.307-2.615-1.274,4.566-3.879-3.879-3.357-1.678-.616-1.848-3.1,3.1-.947-3.785-5.641-5.136-1.25-7.5-3.16,6.889-1.054-4.216-3.275,9.825-2.748-16.488-2.384-2.384-2.807-.805-3.487-8.717-1.436-7.179-2.852-7.132-1.381-5.523-2.739-4.109-1.625-3.25-1.286-6.429-1.51.7h-1.9l-2.462,17.234-2.928-8.785-3.451,5.175-2.293-13.758-2.621-6.553-2.86-.492-3.059-18.35-2.455-5.236.792-2.375-2.067,8.268-2.872-1.436-.784,3.139-2.845,11.379-1.424,9.966-1.553,9.321-4.883,4.883-1.861-1.862-4.279,2.14,1.009-8.258-2.921,4.382-1.436,5.744-4.536,6.8-2.663-2.663-1.864,24.431-4.593-9.185-3.037,1.775-1.628-2.442-2.458,12.046-6.139-6.14-1.561-6.242-2.871-8.615-2.711-2.021-.794,1.588-2.872,1.436-1.271,2.542-1.683,1.683-2.624,2.625-1.28,2.559-2.872,5.743-2.031,4.063h-4.308l-1.8,3.607-5.111-2.555-1.683-1.683-3.293-2.241-4.225,1.9-1.9-1.9-4.938,3.851-1.944-13.6-2.364-2.364-1.509.247-2.711,2.712-2.712-2.712-1.473,7.161-4.005-2-2.405.969-2.872,2.872h-1.82l-1.775.888-1.009,2.018-1.618,6.475-4.213,2.106-3.293,2.241-2.789,4.39-2.872,1.436-1.271,2.542-3.75,3.75h-3.88l-.825-2.474-1.44,2.719-4.208,8.417-2.452-2.451-2.33,5.276h-2.1l-2.241,2.241-1.683,1.683-2.871,1.436-2.625,2.625-2.45,2.45-1.531,6.125-3.446,1.723-3.255,3.255h-3.764l-4.733,1.9-1.9-1.9-2.523,2.872h-1.82l-2.1,1.052-1.82,1.82H999.45l-2.105,1.052-1.819,1.82H982.6l-1.436,1.436H962.5l-1.436,1.436h-8.616l-1.435,1.435h-50.6l-3.841.467-1.9-1.9H882.635l-1.98,1.435H837.23l-1.436-1.435-3.84,1.9-1.9-1.9h-3.416l-4.733,1.9-1.9-1.9H785.539l-1.82-1.82-2.1-1.052h-1.436l-2.872-1.436h-3.8l-1.6,1.052-3.639,1.82h-17.2l-1.436-1.436h-7.179l-1.436-1.436-2.99-.969-3.841.969-2.328,2.328-2.328-2.328h-2.872l-1.436-1.436H722.36l-1.436-1.436h-1.7l-2.871-4.308-3.664-1.435h-1.436l-3.639-1.82-1.6-1.052H697.95l-2.067-2.067-3.677-.8-2.067-2.067-2.871-2.871-1.683-1.684-1.272-2.542-2.542-1.271-1.93-1.93-2.433-4.866h-1.436L674,2944.745l-3-4.507-1.382-5.526L666.7,2931.8l-1.436-7.18-3.11-5.844-4.413-.243-2.575-2.575-1.273-8.912-5.9,5.79-2.616-5.232-2.625-2.625.557,5.676-5.741,2.87-2.242-4.485-2.625-2.625-1.349,1.523-4.856-4.856-1.01-5.054L621.3,2902.2l-2.282-2.281-2.786,9.737-1.431,10.015-1.5,5.994-2.853,7.131-1.414,7.071-5.336,18.677-1.947-9.735,1.05-2.1-5.735,2.868-1.436-4.308-2.577,1.288-2.468-4.935,1.334,4-1.625,10.557-3.457,3.458-1.705-1.705-.571,2.282-3.133,6.268-3.09,6.621h-3.532l-3.248,4.545-1.835,5.507h-1.836l-4.675,7.012-2.546-7.639-1.619-.809-.6,7.179H489.2Z"/><path class="i" d="M563.869,2987.456h29.015l1.436-1.436h14.231l2.871-1.435h2.872l2.872-1.436H621.6l1.647-1.647,4.1-1.225,1.436-1.436h4.307l4.152.156,1.592-1.592h22.379l1.436,1.436h8.913l4.138,1.436h15.964l4.139,1.436h10.22l2.575,1.436h17.528l4.138,1.436h70.23l1.436,1.435h73.825l1.436-1.435h2.277l1.436,1.435h11.953l2.872-1.435h14.19l4.138,1.435h10.518l1.436-1.435h20.1l1.436-1.436h2.872l1.436-1.436h4.307l1.436-1.436h7.18l1.435-1.436h4.308l1.564-1.564,2.616-1.308h5.871l1.564-1.564,2.616-1.308h4.436l1.728-1.728,1.381-2.762,2.762-1.381,4.443-1.308,1.524-6.094,3.8.506,1.8-1.8,2.954-2.954,1.435-2.872,4.253-2.762,1.523-3.045,2.916-4.374,1.447-5.788,1.4-2.8,2.907-5.814,1.425-5.7,2.856-4.284,1.466-4.4,1.4-4.216,2.844-4.265,1.469-2.938,2.891-7.227,1.451-4.354,1.412-5.65,2.856-4.284,1.46-4.379,2.9-7.239,1.425-9.976,2.86-4.29,1.445-7.224,1.194-2.389h2.946l1.506-4.517,2.819-1.41,1.345-2.689,4.005,1.592,1.72-1.719,2.3-1.153,2.426,5.379,3.034,1.517,1.861,1.861,2.872-2.871,2.871,1.138h3.169l4.49.325,1.6-6.419,4.167-4.167,4.244-1.226,1.634-3.269,1.384-2.767,2.085-2.085,1.1,2.2,2.872,1.436,1.381,2.761,2.954,2.955,1.436,1.436,4.257,5.693,1.569,1.568,3.776,1.889,1.346-5.382,4.362.749,1.635-3.268,2.894-5.789,1.47-4.41,1.285-7.712,2.743,1.371,1.534-4.6h1.911l1.214,2.43,1.4,4.21,2.856,15.711,1.449,17.38,3.46,5.191,2.209-2.209,1.436-7.18,2.871-2.871,1.364-6.816h2.871l1.559-7.794,1.427-15.7,2.366-4.731,3.489,4.892,2.284,4.568,3.323-13.294,1.715,6.988,3.351-3.351,1.633,1.633,3.34-6.681,1.084-3.254,3.318,4.7,1.524,7.617h3.9l.766-1.533,1.013,4.054,3.013,3.013,1.943,1.943,2.431-2.431,1.7,8.515,2.029-6.087,2.027,1.014,4.349,5.871,3.256,3.759,2.454-4.907,1.189,9.516,3.956,1.978,1.534-4.6,3.79-2.575,1.436,1.436,3.5-3.5,1.4-4.186,2.819-1.41,1.491-2.982,3.548.293h4.18l2.662,2.661,3.082,3.082h1.9l2.872-1.436h1.564l1.564-1.564,2.616-1.307h4.582l1.657-3.315,1.445-4.336,2.872-7.179,1.389-4.167,2.892-2.893,1.465-5.86,1.349-2.7,1.968-1.968,1.532,4.6,3.711-5.567,1.492-2.982,1.406-5.627,2.885-2.885,1.436-7.179,2.872-2.872,1.215-6.077,2.134,2.133,2.582,4.1,2.923,1.462,1.775,3.549,3.576-3.576,2.533-1.226,3.319-1.659,1.468-5.871,2.814-2.814,1.289-2.579,3.567,2.872h1.563l2.616,1.308,2.3,2.3,1.583-7.918h2.727l1.527-3.054,2.506-1.254h1.564l3.691,24.051,2.406-7.22,2.843-4.265,1.479-2.957,1.288-3.865h2.872l1.621-4.863,2.248-16.86.662,3.969,2.876,7.19,1.426,7.132,1.47,5.881,2.888,4.331,1.421,4.265,2.847,5.692,1.422,8.537,1.455,5.819,2.882,7.2,1.483,4.448,2.838,2.838,1.393,6.967,1.455,7.273,2.892,5.784,1.436,4.308,2.871,5.743,1.406,4.217,1.455,7.275,2.865,4.3,1.42,8.519,2.89,8.668,1.435,4.308,1.49,4.468,2.991,2.992,1.519,1.518,3.127,1.564,2.391,3.908,2.856,4.284,1.425,5.7,2.907,5.814,1.422,2.846,2.853,7.132,1.429,4.287,1.443,4.328,2.861,7.154,1.444,5.772,2.884,5.769,1.436,4.307,1.478,2.958,2.872,4.308,1.436,2.871,3.11,4.665,2.721,2.689,3.548,1.774,1.8-1.8-1.518,3.549-4.9-2.451-1.161-2.323-4.843-5.379-1.436-2.871-2.872-4.308-1.564-3.129-1.436-4.307-2.909-5.818-1.458-5.831-2.841-7.1-1.456-4.368-1.416-4.247-2.815-7.038-1.4-2.791-2.978-5.955-1.4-5.611-2.825-4.238-1.036-3.108-4.031-1.82L1421,2877.7l-3.231-3.231-1.6-4.79-1.436-4.308-2.925-8.775-1.387-8.326-2.852-4.278-1.493-7.466-1.345-4.035-2.872-5.743-1.436-4.308-2.932-5.865-1.493-7.462-1.308-6.54-2.77-2.77-1.577-4.73-2.9-7.256-1.492-5.969-1.4-8.381-2.8-5.591-1.393-4.179-2.918-4.378-1.539-6.155-1.407-7.036-2.885-7.212.887,5.323-1,7.5-1.991,5.974h-2.872l-.993,2.98-1.564,3.129L1361.3,2768l-4.347,13.042-3.5-28.026-2.548-.16-1.71,3.42h-2.437l-1.879,9.394-4.034-4.034-2.1-1.052h-1.819l-2.872-2.872-.209,1.994-2.7,2.7-1.532,6.126-4.213,2.106-1.857.805-4.985,4.985-2.451-4.9-3.027-1.513-1.227-3.682-2.208,3.216-2.871,2.872-1.436,7.179-2.911,2.911-1.349,5.394-1.6,3.2-5.389,8.084-1.727-5.18-1.334,2.508-1.523,6.094-2.934,2.934-1.295,3.885-2.872,7.179-1.464,4.393-2.1,4.2h-4.2l-3.032,1.053-1.819,1.819h-1.82l-2.872,1.436h-2.836l-3.5-3.5-1.436-1.436-2.784-.8h-1.945l-1.938-.97-1.691,3.293-2.716,1.358-1.315,3.944-4.754,4.754-1.436-1.436-1.98,1.979-2.506,5.191-6.124-3.062-.7-5.572-1.617,3.234-2.767-5.534-4.65-5.089-4.591,8.439-2.238-11.186-1.549,1.549-2.959-2.959-3.293-3.294.4-1.819H1198.2l-1.7-8.493-2.517-3.776.8,2.326-4.277,8.553-2.026-2.025-4.308,4.308-1.035-6.211,1.632-3.263-4.227,16.906-3.98-7.96-2.679-4.018-.525,3.535-1.41,15.5-1.805,9.024h-2.871l-1.218,6.088-2.872,2.871-1.435,7.18-3.755,3.755-4.638-6.956-1.473-17.681-2.826-15.541-1.339-4.017-.772-1.545-1.718,5.191-2.485-1.242-.984,5.9-1.538,4.613-2.94,5.881-2.031,4.062h-5.095l-.542,5.281-5.586-2.793-1.834-1.834-2.871-4.307-2.721-2.721-3.119-3.119-1.271-2.542-2.872-1.436-2.212,2.229-2.031,4.063h-3.311l-3.676,3.677-2.957,8.783-3.885-1.942-4.733.969H1084.2l-3.415,2.328-2.712-2.712-3.357-1.678-1.557-4.672-3.436,2.893-3.8-1.9-.758,2.324-2.716,1.358-1.645,4.934h-3.093l-2.175,8.737-2.837,4.256-1.4,9.823-2.944,7.36-1.507,4.522-2.825,4.237-1.365,5.462-1.483,4.446-2.928,7.321-1.536,3.072-2.786,4.179-1.345,4.034-1.527,4.582-2.825,4.237-1.4,5.611-2.978,5.955-1.33,2.66-1.469,5.876-3,4.507-1.7,3.394-3.2,1.6-2.377,3.814-3.119,3.119-2.534,2.533-2.871-1.436-1.616,6.713h-3.661l-3.595,2.323-1.271,2.542-2.314,2.314h-3.764l-3.031,1.053-1.82,1.819h-5.2l-3.032,1.052-1.819,1.82h-3.764l-1.98,1.436h-7.179l-1.436,1.436h-4.308l-1.435,1.436h-2.872l-1.436,1.435H927.147l-1.979,1.436H913.716l-2.872-1.436h-13.85l-3.8,1.436H880.307l-1.436-1.436-2.523,1.436H801.333l-1.436-1.436H729.923l-2.872-1.435H708l-1.436-1.436h-11.1l-2.872-1.436H681.1l-1.938-.969-3.806.969-2.872-1.436H662.053l-1.436-1.436h-21.19l-1.9,1.9-2.872-1.436-3.3.969h-1.979l-1.436,1.436h-2.872l-2.872,2.872h-3.764l-3.8,1.435h-1.944l-3.8,1.436H594.914l-1.436,1.436H563.869Z"/><path class="e" d="M556.689,2987.456h17.4l2.872-1.436h11.487l2.872-1.435H598.5l2.872-1.436h5.872l1.435-1.436h8.616l1.436-1.436h8.318l4.138,1.436h1.605l4.138,1.436h4.477l2.575,1.436h7.774l1.436-1.436H657.5l1.435-1.436h2.277l1.436,1.436h2.872l1.733,1.733,1.578-1.578,2.561,1.281h9.923l1.436,1.435h16.261l2.872-1.435h9.882l4.138,1.435h44.682l2.574,1.436h3.467l1.436-1.436H784.7l1.436,1.436h49.415l1.436-1.436h14.061l4.45,1.592,1.591-1.592H881.5l1.436-1.435h8.616l1.435-1.436h2.277l1.436,1.436h13.518l1.436-1.436h8.615l1.436-1.436h2.277l1.436,1.436h26.313l2.871-1.436h2.872l2.872-1.436h4.436l1.435-1.436h8.021l1.436,1.436h3.169l2.574,1.436h7.775l1.435-1.436h8.021l1.93,1.93,1.56-3.121,2.693,1.346,1.591-1.591h2.872l1.646-1.646,3.658-2.506,1.436,1.436,3.183-1.592h9.882l2.73,1.592,3.183-1.592h3.841l1.733,1.734,1.578-1.578,2.56,1.28h1.775l3.128-1.564,1.518-1.518,2.872-2.872,1.576-1.576,1.454-5.816,2.882-4.322,1.445-7.225,2.851-5.7,1.452-4.356,1.406-4.216,2.779-4.169,1.489-1.49,2.916-7.288,1.445-2.891,1.4-4.195,2.751-2.752,1.541-1.54,2.962-7.407,1.444-12.989,1.4-7.009,2.872-4.308,1.445-7.224,2.872-5.744,1.451-7.257,1.384-5.534,2.223-2.223,4.752,1.138,1.435-2.872h3.864l3.924,4.308h1.989l2.382-1.191,1.56,3.121,1.633-1.633,2.574,2.575,3.963,5.346,1.4,2.8,1.553,6.211h2.989l1.436,2.871h3.018l2.661,2.662,3.693,3.693,1.436-4.308,1.931,1.931,1.382,4.147,1.436,4.307,2.888,8.664,1.511,3.022,2.834,2.834,1.382,4.147,1.53,4.59,3.034,1.516,4.225,4.226,1.646,1.646,4.015,5.451,1.6,1.6,3.127,1.564h1.436l2.872,1.436,2.506,2.689,2.82,1.41,1.4,4.186,2.91,2.909,1.383,2.768,1.543,3.086,2.82,1.41,1.6,4.811,3.46-1.731,2.277,1.308,3.439,1.72,1.436-1.436,2.872,1.436,2.432-.156h2.872l1.436,1.436h2.726l1.289,2.579,1.884,1.884,3.439-1.719,4.024.283,2.73.142,3.38-3.379,3.63.21,4.18,2.872H1257.7l1.436-1.436h4.307l1.436-1.436h4.011l4.628,1.681,1.7-3.41,2.579-2.579h1.436l1.564-1.563,2.982-1.491,1.435-2.872,2.195-1.1,3.183,1.28,2.872-1.436h1.436l3.237-1.619,1.543-3.086,1.416-2.831,2.634-3.951,4.551-3.2,1.395-4.186,2.454-1.227h1.564l1.647-1.647,2.871-2.871,4.244-1.226,1.582-3.164,4.032,2.339,1.541-4.624,2.773,1.387,1.705-3.41,3.915,2.223,1.774-3.549,2.506-1.253h1.784l1.505-4.517,2.82-1.41,1.523-3.045,2.361-3.542,1.638,1.638,1.75-5.249,2.752-2.752,3.942.366,1.8-1.8,3.32-2.337,1.436,5.744,3.776-1.889,1.436-1.435,3.063-1.532,1.5-5.987,1.08-2.159,2.871,1.435,1.559-3.117h2.131l1.733,1.734,3.665,3.613,1.99,3.978,3.072-4.608,2.76,1.027h2.354l1.436,4.308h3.092l2.492,3.84,3.741,14.966,1.814-12.693,2.781,1.39,1.634-6.535,1.079-2.159,2.382,1.191h2.147l1.989-6.963,1.067,10.676,1.468,5.87,2.884,5.769,1.514,4.541,2.842,1.421,1.492,5.967h5.166l3.713,1.436h4.307l2.634,4.125,2.982,1.491,4.143,4.143,1.384,2.767,1.543,3.086,2.981,1.491.338,2.369-4.39-2.79-1.757-3.514-1.279-2.559-2.625-2.624-4.39-2.79-1.6-3.2-2.538-.558h-2.328l-1.98-1.98-2.871.544h-4.554l-1.6-6.414-2.784-1.392-1.67-5.008-2.909-5.818-1.531-6.125-.331-3.31-3.793.785-1.767.034-2.03,8.119-2.6-1.3-2.568,17.978-5.481-21.925-1.174-2.348-4.09-.558-1.436-4.307h-3.647l-3.682,5-3.1-6.192-1.535-3.071-3.174-1.482-2.452,3.608-2.872-1.436-1.986,7.209-3.445,1.723-1.436,1.435-5.586,2.793-1.436-5.743-3.88,3.8-2.871-1.436-2.851,2.851-2.377,7.131-2.042-2.042-1.34,2.01-1.7,3.394-2.716,1.358-1.644,4.934h-2.48l-1.775.887-2.451,4.9-3.462-3.462-1.908,4.151-2.577-1.288-1.753,5.257-3.813-3.813-1.541,3.416h-3.31l-3.677,3.677-2.067,2.066h-1.819l-1.62.81-1.314,3.944-3.862,3.862-3.333,3.237-1.376,2.752-1.757,3.513-3.969,1.985h-1.436l-2.872,1.436H1288.1l-1.81-.549-1.436,2.872-3.2,1.6-1.82,1.819H1278.4l-1.994,1.994-2.243,4.486-4.343-2.172h-4.343l-1.436,1.436h-3.764l-1.979,1.436h-11.836l-2.872-2.872-2.99-.969-4.733,4.733-1.436-1.436-3.882-.425-5.158,2.871-2.781-2.78-1-1.994h-2.433l-1.435-1.436h-2.872l-1.555.467-2.871-1.436-1.436,1.436-4.573-2.287-5.726,1.267-1.939-5.817-2.716-1.358-1.757-3.514-1.279-2.559-2.985-2.984-1.314-3.944-2.716-1.358-1.162-2.323-3.485-1.436h-1.436l-3.639-1.82-1.93-1.93-2.433-4.865-3.063-2.067-2.872-2.872-4.546-2.867-1.718-5.154-1.275-3.825-2.759-2.76-1.661-3.321-2.92-8.761-1.436-4.307-1.275-3.825-1.484,4.259-5.336-5.336-1.436-1.436-4.116-.8-1.436-2.872h-3.222l-1.786-7.145-1.33-2.66-2.277-4.553-2.976-1.98-2.026,2.026-1.809-3.618-4.5.7-2.871-4.308h-3.155l-1.541,2.872H1100l-1.471.383-1.278,5.115-1.483,7.412-2.872,5.744-1.462,7.314-2.872,4.308-1.334,6.67-1.458,13.12-3.145,7.862-1.748,1.748-2.512,2.512-1.324,3.971-1.464,2.929-3,7.506-1.6,1.6-2.594,3.89-1.345,4.034-1.484,4.453-2.811,5.622-1.463,7.315-2.9,4.352-1.49,5.96-1.858,1.858-2.872,2.871-1.683,1.684-3.639,1.819h-2.453l-1.938-.969-1.861,1.861-2.328-2.328h-1.98l-4.733,1.9-1.9-1.9h-9.159l-4.733,1.9-1.436-1.436-2.359,1.774-2.067,2.067h-2.872l-1.9,1.9-2.334-1.167-1.809,3.618-2.918-2.918h-6.287l-1.98,1.436h-8.963l-1.436-1.436h-4.308l-1.436-1.436h-6.287l-1.98,1.436h-3.764l-3.8,1.436h-1.944l-3.8,1.436H924.819l-1.436-1.436-2.523,1.436h-8.615l-1.436,1.435H896.1l-1.436-1.435-2.524,1.435h-8.615l-1.436,1.436h-24.41l-1.9,1.9-3.8-1.9H838.122l-1.979,1.436h-50.6l-1.436-1.436H768.656l-1.436,1.436h-4.656l-1.435-1.436H715.564l-2.872-1.436h-9.543l-3.8,1.436H682.155l-1.436-1.436h-9.667l-1.938-.969-1.862,1.862-2.328-2.328h-2.871l-1.436-1.436-2.524,1.436h-4.307l-1.436,1.435h-8.964l-1.436-1.435h-5.36l-2.871-1.436h-2.872l-2.872-1.436h-8.651l-1.436,1.436h-8.615l-1.436,1.436h-5.2l-3.8,1.435h-6.252l-3.8,1.436H578.228l-3.8,1.436H556.689Z"/><path class="spbg" d="M558.125,2987.456h33.323l1.436-1.436H601.5l1.436-1.435,4.18-1.436h4.435l1.436-1.436,4.18-1.436,4.563-1.564,2.616-1.308,2.872-1.436,3.969,1.436h1.605L637.24,2979l1.592-1.592h16.636l1.436,1.436h6.21l2.872-1.436h2.872l2.871-1.436H677.3l4.139,1.436h1.436l2.871,1.436h15.965l4.138,1.436h9.923l1.436,1.436h13.518l2.432.155,2.872-1.436,4.449,1.281h11.785l1.436-1.436h4.179l2.872-1.436h2.872l2.872-1.436h5.871l1.436-1.436h14.231l2.872-1.436h1.436l2.871-1.436h1.564l1.436-1.435h7.18l1.646-1.647,3.8-1.225h1.6l3.128-1.564,2.149.128h2.871l1.436,1.436h4.6l4.45,1.591,1.719-1.719,2.616-1.308h1.564l1.564-1.564,2.616-1.308h3.841l1.733,1.733,3.169-3.169,2.433,1.592,3.438-1.72,4.326-1.308.993-1.984,1.347,2.694,3.345-5.017h9.964l4.01,1.733,1.436-1.436,4.449,2.73,1.436-1.436,2.3,1.153,2.872,2.871,3.127,1.564h1.775l2.561-1.28,3.013,1.28h3.169l1.564-1.564,2.616-1.308h3.841l1.733,1.734,1.861-1.862,2.3-1.152,4.449,1.28h5.447l4.435,2.872h1.606l4.138,1.436h4.774l2.433.156,3.183-1.592h1.436l3.237-1.619,1.1-2.194,4.111.941h1.605l2.872-1.436,2.277,1.308,3.127,1.564h4.775l3.713,1.436h1.733l4.449,1.592,1.72-1.72,2.616-1.308h1.563l1.436-1.436h4.18l3.128-1.563,2.616-1.308,2.56-1.281,1.436,1.436,3.549-1.774,1.49-2.982,4.162-1.143,1.436-2.872h2.725l1.646-1.646,3.8-1.225h1.734l3.082-3.083,1.436-1.435,4.388-1.226,1.509-7.543,2.838-2.838,1.436-4.308,4.346-5.837,1.454-5.816,2.8-7,4.324-4.323,1.489-4.469,1.272-3.816h2.872l1.506-4.517,2.819-1.41,1.566-3.131,1.457-4.371,2.825-9.887,4.285-2.754,1.516-6.063,1.387-5.551L1080,2855l1.4-5.616,2.425-1.212h1.71l1.436-2.872h4.248l3.171-4.756,1.231-7.391,4.491-2.576,1.436-7.179,2.507-2.508h1.582l1.082-2.162,3.192,4.789,1.709-10.255,1.972-2.958,1.135,3.406h3.833l1.436-2.871,3.194,2.5,1.436,8.616,3.245,3.244,2.972,3.366,3.366-3.366h4.308l2.149-.128,3.127,1.564,3.795,3.86,1.419,8.519,1.485,4.452,2.871,4.308,1.569,4.707h2.829l1.319,5.276,1.578,3.157,2.791,1.4,1.367,5.47,2.9,7.253,1.648,3.3h2.177l2.095-2.1,1.232,7.391,3.772,5.657,1.638-4.915,1.917.959,1.329,2.657,1.436,2.872,2.924,5.848,1.6,1.6,2.68,1.34,1.375,5.5,1.523,3.046,3.659,3.659,1.436-2.872,2.378,2.377h2.177l1.582-3.164,2.281-2.282,3.773,2.392,1.971,3.942,1.757-3.514,2.015,1.008,1.528,3.054h5.049l1.435-1.436h2.131l1.436,2.872h2.872l1.289,2.579,1.729,1.729h2.872l1.436,1.436h3.612l1.436-2.872h2.726l1.646-1.646,3.8,1.943,1.577-1.577,2.195,1.1,1.381,2.762,2.026,2.026,2.872-2.872,4.843-.48,1.344-2.689,4.4-1.619,1.345-2.689h4.161l3.626,2.872h1.99l2.871-1.436,2.7,1.734,3.52-3.52,1.4-5.617,2.79-1.4,1.345-2.689,4.53-4.731,1.33-5.32h2.609l1.646-1.646,2.661-2.662h1.728l1.523-7.617,2.754-4.13,4.193-1.176,1.582-3.164,4.143-2.707,3.882,1.861,2.026-2.026,1.381-2.762,2.872-1.436,1.491-2.981,2.872-2.872,1.523-3.046,1.436-5.744,2.836-5.673,1.416-2.832,2.033-3.049,1.751,5.254,1.954-7.815,2.425-1.212h1.436l3.237-1.619,1.1-2.2,1.436,1.436,2.449-4.9.995,3.982,2.98,4.47,1.486,1.486,2.79,2.79,1.436,2.871,1.468,1.468,2.872,4.308,1.568,1.569,2.872,1.435,3,3h2.652l1.326,3.978,3.2,3.2h1.733l3.718,2.579,1.361,2.722,3.536,10.61,2.064-6.19,3.014,2.778,1.454,5.816,3.012,3.012,1.436,1.436,4.134,9.771,1.489,4.468,2.872,2.872,1.436,4.308,1.474,1.473,2.819,5.639,1.543,3.086,2.872,1.436,1.381,2.762,2.954,2.954,2.763,7.166,2.953,1.477,1.381,2.762,2.954,2.954,2.844,4.335,3.238,1.619,3.887,2.579,1.582,3.164h1.582l2.872,2.872h1.733V2953h-2.328l-2.871-2.872H1461.4l-1.875-3.749-1.994-1.994-5.021-1.985-1.6-3.2-4.308-4.308-1.271-2.542-3.116-1.558-1.531-6.125-4.133-4.133-1.271-2.543-2.872-1.435-1.757-3.514-2.716-5.431-1.548-1.549-1.436-4.307-2.872-2.872-1.6-4.79-2.711-8.133-2.513-2.512-3.293-3.294-1.49-5.96-1.208-1.811-2.537,9.173-4.866-14.6-1.211-2.422-1.994-1.994h-2.872l-3.862-3.862-1.106-3.317h-2.211l-2.067-2.067-4.061-2.624-1.833-1.834-2.872-4.308-1.532-1.532-1.436-2.872-2.625-2.624-1.587-1.587-3.2-4.8-1.718,2.752-1.436-1.436-4.389,2.826h-1.436l-1.531.765-2.99,11.958-2.382-7.147-1.73,3.284-2.766,5.532-1.436,5.744-1.7,3.4-2.872,2.871-1.6,3.2-2.872,1.436-1.271,2.542-3.206,3.206-2.871-2.872-3.032,1.6-2.817,4.691h-3.31l-3.172,4.43-1.7,8.493h-2.31l-2.241,2.241-2.067,2.067h-2.082l-1.118,4.474-3.718,5.577-2.419,2.323-2.628,1.314-1.341,5.362-4.816,4.816-2.328-2.328-2.907,1.436h-3.1l-2.054-3.081-2.537.209h-1.541l-1.162,2.324-3.968,1.984-1.775,2.323-4.9,2.451-3.883,1.862-3.206-3.206-1.271-2.543-2.7,1.441-2.872-2.872-1.98,1.98h-2.432l-1.436,2.872h-5.1l-1.436-1.436h-2.872l-2.314-2.314-1-1.994h-2.871l-1.436-2.872-2.085,1.436h-6.531l-1.71-3.42-2.7,4.647-3.041-6.083-2.542-1.271-3.137,4.691h-3.659l-2.826,1.483-5.232-5.232-1.7-3.4-1.253-5.012-2.3-1.149-1.93-1.93-3.028-6.057-1.436-2.871-1.115-2.23-2.051,6.125-5.571-8.356-.824-4.943-4.2.543-2.072-4.143-2.959-7.4-1.231-4.924-2.628-1.314-1.863-3.726-1.085-4.341H1153.9l-1.835-5.507-2.872-4.307-1.58-4.742-1.388-8.326-1.976-2.964-4.431-1.819-4.468.383-4.9,4.354-2.177-4.354-4.988-3.99-1.436-8.616-1.753-1.753-.648,2.872H1113.7l-.534-1.6-2.428,13.79-3.835-5.751-2.246.743-1.78,1.779-1.436,7.18-4.855,4.856-.824,4.943-3.767,5.652h-4.129l-1.436,2.871h-2.259l-1.531.766-1.34,5.361-2.872,2.872-1.291,5.165-1.676,6.7-3.446,1.723-3.525,10.354-1.5,4.5-1.825,3.651-2.716,1.358L1060.8,2897h-2.872l-.945,2.835-1.6,4.79-3.232,3.231-3.776,7.756-1.491,5.964-3.2,4.8-2.663,5.534-2.77,2.771-1.655,8.271h-3.745l-2.241,2.241-3.5,3.5h-4.307l-2.872,2.872H1017.5l-1.436,2.872h-3.31l-2.159,3.759-4.9,2.451-1.436-1.436-1.938.969-2.105,1.053-3.639,1.819h-3.924l-1.436,1.436H989.4l-2.1,1.052-2.286,2.287-3.806-1.9h-3.255l-1.98-1.98-4.307.544h-1.945l-3.639-1.819-3.959.383h-5.708l-4.343,2.872H950.63l-3.806,1.9-1.554-.467h-5.708l-2.872-1.436h-2.872l-3.639-1.82-3.032-1.052h-6.635l-2.14-.383-2.712,2.711-2.328-2.328h-1.979l-3.032,1.052-1.82,1.82H895.049l-3.639-1.82-1.683-1.683-2.359-1.774-1.436,1.436-4.573-2.286-1.6,1.276-2.872-2.872-4.307.544H866.84l-4.574,6.436-1.169-2.338-3.416.209-5.625,3.339-1.9-1.9-3.415,3.764-2.328-2.328h-1.98l-3.032,1.052-1.819,1.82h-1.82l-2.1,1.052-2.287,2.286-3.8-1.9h-6.127L820,2968.79h-2.872l-4.343,1.436h-3.924l-2.872,2.871H798.81l-1.436,1.436h-1.82l-2.871,1.436h-1.436l-2.872,1.436H774.4l-1.436,1.436h-5.2l-3.8,1.436h-1.944l-3.8,1.436H754.3l-1.435,1.436H736.718l-3.84.466-1.555-.466H716.616l-1.436-1.436h-9.667l-2.872-1.436H685.41l-2.871-1.436H681.1l-2.872-1.436H673l-3.8,1.436h-1.945l-3.8,1.436h-7.144l-1.436-1.436h-3.924l-1.938-.969-4.733.969h-4.851l-1.9,1.9-3.8-1.9h-2.872l-2.872-1.436-3.291,1.436-2.1,1.052-3.639,1.82h-1.436l-2.872,1.436-2.488,1.436h-3.764l-3.8,1.435-2.488,1.436h-8.072l-1.979,1.436H558.125Z"/><path class="d" d="M566.74,2987.456h30.451l1.436-1.436h5.616l2.872-1.435h5.871l1.436-1.436h4.18l3.127-1.564,1.519-1.518,3.5-1.226,1.436,1.436H638.7l2.872-1.436h5.574l4.449,1.591,1.436-1.435,2.561,1.28h9.923l1.436,1.436H677.3l4.139,1.436h6.21l1.436-1.436h12.328l1.436,1.436h3.467l1.435-1.436,3.841,1.436h24.58l4.138,1.436h11.954l1.436-1.436h22.379l1.592,1.591,2.871-1.436,4.45,1.281h23.143l2.872-1.436,3.969,1.436h82.184l2.872-1.436h7.179l2.561-1.281,4.449,1.281h17.4l2.872-1.436h5.574l4.45,1.591,1.591-1.591h14.062l4.449,1.591,1.591-1.591h8.616l1.436-1.436h8.615l1.436-1.436h5.615l2.872-1.436,3.969,1.436h1.9l1.436-1.436h14.23l2.872-1.436h1.564l1.436-1.436h2.872l1.564-1.563,2.615-1.308h1.564l1.436-1.436h7.18l1.435-1.436h8.762l1.436-2.872h2.725l1.436-1.436,4.18-1.436h1.436l2.872-1.436h1.563l1.564-1.563,2.872-1.436,4.18-1.308,1.646-1.646,1.436-1.436,2.954-2.954,1.381-2.762,2.506-1.253,2.814,1.844,3.318-4.977,3.919-2.611h2.872l3.237-1.619,1.345-2.689h2.725l2.575.3,2.871-2.872,4.733-.425,1.519-1.519,2.954-2.954,1.436-2.872,4.252-2.761,1.436-2.872,2.872-1.436.768-1.536.982,2.946,3.978,1.989,1.505-7.524h2.727l1.634-3.269.991-1.98,2.871,2.871,1.862-3.722,2.807-4.212,2.145-1.175,2.454,1.227,1.961,5.885,3.589-8.971,1.466-2.931,1.426-7.135,2.58-3.87h1.436l3.138-4.707.919-2.755,1.375,2.752,2.569-6.422,1.005,5.025,3.236,3.236h1.435l3.17,3.169,1.733-1.734,3.9,4.717,1.435-1.436,2.6,3.9h1.82l3.72,1.227,1.709,5.128,2.872-2.872,1.617,4.85,2.012-4.026h2.726l3.585-.127,2.68,7.083,2.9,1.451,1.372,4.117,2.872,4.307,1.459,4.378,1.766,1.766h4.9l3.2-3.2,1.473-4.42,1.306-2.612,2.2-1.1,4.747,1.28,3.42,1.144,1.384,2.767,1.488,2.976,2.954,2.954,1.8,1.8,3.183-1.591,2.2,1.225,2.789,2.79,1.582,3.164h3.018l2.973,4.8,3.068-3.069,4.138,2.575h1.9l1.436-1.436h2.872l4.01,5.2,2.078-4.156,1.329-2.658,2.762-1.381,1.436-1.436,2.872-1.436,1.856,1.271,3.462,3.462,1.577-1.577,2.872,1.436,1.72-1.72,2.615-1.308h1.784l1.506-4.516,2.454-1.227h3.841l1.733,1.733,1.578-1.578L1327.9,2923l1.853-1.852,2.7-4.047h2.1l2.634,3.951,2.131,4.261,3.285-8.212,1.8,2.579,3.659,3.659,1.881-3.763,2.82-5.639,1.762,6.38,3.817-1.908,1.568-1.569,2.872-4.307,1.468-1.468,1.289-2.579h2.726l1.564-1.564,2.3-1.152,3.889,1.28,1.348,5.392,2.085,2.085,2.675-2.676,1.042,2.086,3.462,3.461,1.733-1.733h3.567l1.344,2.689,2.872,1.436,1.774,3.549,1.633-1.633,2.244,2.244,1.477,4.429,3.033,1.517,1.564,1.564h1.9l2.56-1.28,4.28,2.716h1.9l1.436-1.436h2.871l3.476-.183,1.381,2.762,1.728,1.728h2.872l4.1,4.1,1.944,1.943,3.379-3.379,1.436-1.436,1.436-1.436,1.975-1.975,1.209,4.834,3.318,1.659,2.534,1.226,3.082,3.082,4.221,4.307h1.82l3.882,1.308.338,2.369-3.293-2.241h-3.516l-2.871-4.307-4.679-3.5-1.857-.8-4.212-2.106-.754-3.014-1.617,1.617-1.436,1.436-4.4,4.4-2.959-2.959-2.872-2.872-3.677-.8-2.314-2.314-1.271-2.542-1.81.549h-2.872l-1.435,1.436h-2.837l-3.639-1.82-2.523.384h-2.837l-1.819-1.82-3.358-1.678-1.557-4.672-3.015,1.037-2.451-4.9-2.872-1.436-1.162-2.323h-1.54l-2.872,2.328-4.642-4.642-2.537,1.77-3.381-3.38-1.173-4.691h-2.082l-2.14-.384-1.819,1.82h-2.433l-1,1.993-1.532,1.533-2.872,4.307-1.834,1.834-5.706,2.853-1.2-6,1.657-1.657-2.715,5.431-2.773,5.545-5.232-5.232-1-1.994-2.758,10.279-3.521-7.042-2.157-3.237-2.918,3.526-2.684,2.684-2.872-1.436-1.861,1.862-2.328-2.328h-1.98l-2.546.809-1.645,4.934h-2.479l-2.1,1.052-2.286,2.287-2.872-1.436-1.861,1.861-4.642-4.642-2.7.494-1.435,1.436-2.543,1.271-1.115,2.23-3.362,6.725-3.462-6.924-2.825-.046-1.436,1.436h-2.837l-3.639-1.82-3.622,3.3-2.616-5.232-3.868-.558-1.875-3.75-2.625-2.624-4.646,1.1-2.533-2.533-3.119-3.119-1.592-3.185-1.28-2.559-1.645-.558h-4.656l-1.81-.548-1.047,2.093-1.548,4.644-3.862,3.863h-6.092l-2.426-2.427-1.506-4.516-2.872-4.308-1.244-3.735-2.96-1.48-1.532-6.125-1.937-1.353-3.4.969-3.166,6.332-1.978-5.934-2.872,2.872-2.256-6.768-1.619-.809h-3.516l-2.054-3.081-1.436,1.436-3.689-5.535-1.719,2.328-3.764-3.764h-1.436l-3.964-3.963-2.105,4.191-1.255-2.511-3.554,5.155h-1.436l-2,2.994-1.409,7.045-1.525,3.049-5.022,12.556-3.013-9.04-1.619-.809-3.369,4.673-2.712,5.424-2.872-2.871-2.131,4.261h-2.437l-1.643,8.213-6.191-3.1-2.377.078-1.436,2.872-3.2,1.6-2.377,3.814-3.119,3.119-1.683,1.683-4.573,2.286-3.882,1.861-1.436-1.436-2.977.544-1.161,2.324-3.969,1.984h-1.944l-3.032,1.052-5.249,7.354-2.663-2.663-1.81.888-1.271,2.542-3.119,3.119-1.436,1.436-2.066,2.067h-2.872l-3.924,2.488-1.82,1.819h-1.819l-2.872,1.436h-1.436l-2.872,1.436-2.488,1.436h-2.433l-1.435,2.872h-8.511l-1.98,1.436h-7.179l-1.436,1.435h-1.82l-2.1,1.053-1.82,1.819h-2.871l-1.436,1.436h-1.82l-2.872,1.436h-13.975l-1.436,1.436h-2.836l-2.872-1.436-3.291,1.436h-5.359l-1.436,1.436h-8.616l-1.435,1.436h-8.072l-2.446,1.9-3.806-1.9H947.25l-2.447,1.9-3.8-1.9h-5.235l-3.8,1.436H901.3l-3.8,1.435H814.64l-2.872-1.435-3.291,1.435H781.231l-3.841.467-1.9-1.9H754.3l-1.435,1.435H739.974l-2.872-1.435H711.256l-2.872-1.436-1.471,1.436h-4.656l-1.436-1.436H689.683l-1.436,1.436H681.1l-2.872-1.436H666.36l-1.436-1.436h-9.667l-1.938-.969-1.436,1.436-3.806-1.9h-5.235l-3.8,1.436H627.591l-1.436-1.436-1.892.8-1.683,1.683-3.639,1.82h-3.924l-1.436,1.435h-5.2l-3.8,1.436h-5.36l-1.436,1.436H566.74Z"/><path class="g" d="M1466.9,2983.3l-2.561,1.28h-12.923l-2.872,1.436h-4.774l-2.574-1.436h-14.528l-4.138-1.436h-4.6l-1.436-1.436h-12.923l-1.564-1.564-3.882-1.308H1389.8l-1.436,1.436h-11.615l-3.183,1.592-1.436-1.436-2.561,1.281h-7.646l-3.869-1.281-4.152-1.592-1.592,1.592-4.152-1.592-2.661,2.662-1.646,1.646h-8.615l-1.436,1.436h-4.9l-1.436-1.436h-4.308l-1.436-1.436h-6.585l-1.733,1.733-1.578-1.578-2.561,1.281h-4.774l-1.436-1.436h-2.872l-2.574-1.436h-6.882l-1.733,1.733-1.578-1.578-2.872,1.436-1.591-1.592h-8.615l-1.564-1.563-3.882-1.308h-5.913l-2.872-1.436h-1.784l-1.232-3.7-2.261,2.261h-1.9l-4.138-1.436h-3.864l-1.791,3.581-4.822-6.581-2.872-1.436-2.616-1.308-2.872-1.436h-1.436l-4.138-1.436h-1.733l-3.082-3.082-1.436-1.436-2.954-2.954-2.14-.988-3.183-1.592h-1.564l-2.378-2.377-1.189,2.377h-5.049l-1.436-1.436h-3.493L1193,2958.2l-3-4.5-1.2,2.407-4.331-.245h-1.733l-3.882,1.308-2.872,1.436-1.719,1.719-3.942-.366-1.646,1.646H1163.9l-3.548-.293-1.582,3.164h-3.018l-1.436,1.436-4.408-.942-1.189,2.377-4.326,1.308-3.128,1.563h-3.211l-3.713-.128-3.128,1.564h-6.965l-3.144,4.717-3.125-3.125-2.561,1.28h-8.341l-1.436,2.872h-8.762l-1.436,1.436h-1.564l-2.872,1.436h-1.436l-2.872,1.436h-9.923l-1.436,1.436h-14.359l-1.436,1.436h-13.518l-1.436-1.436h-3.713l-1.436,1.436h-30.282l-2.872,1.436h-7.518l-4.138-1.436h-2.574l-1.733,1.733-1.578-1.578-2.561,1.281h-4.774l-2.574-1.436H966.214l-1.436,1.436H930.188l-2.872,1.436H919.8l-4.138-1.436H862.83l-1.436,1.436h-4.9l-1.436-1.436h-2.277l-1.436,1.436H835.081l-4.138-1.436h-2.574l-1.436,1.436h-4.9l-1.436-1.436h-8.021l-1.591,1.592-4.449-1.592H763.457l-3.013-1.281-2.872,1.436-1.592-1.592H721.518l-1.436-1.436h-2.872l-1.436-1.436H711.6l-3.128-1.564-2.744-2.744h-4.18l-3.841-1.436-1.436,1.436h-4.774l-3.128-1.564-2.616-1.308-4.436-2.872-3.5,1.226-1.8,1.8-3.439-1.72-1.518-1.518-2.661-2.662h-1.7l-1.492-5.967-3.989-2.648h-3.567l-1.344,2.689-2.872,1.436-1.65,3.3-4.629-1.681h-2.574l-1.733,1.733-1.861-1.861-3.713-1.308-2.872,1.436h-1.9l-1.436-1.436h-3.841l-2.616,1.308-1.564,1.564H621.6l-2.661,2.662-1.646,1.646h-2.726l-1.29,2.579-1.6,1.6-3.128,1.564h-1.436l-3.969,2.662-1.646,1.646h-2.872l-1.436,1.436H594.32l-1.436,1.436H591.32l-2.872,1.436h-8.487l-1.436,1.436H499.254v1.436H579.12l1.436-1.436h8.232l2.872-1.436h1.82l1.436-1.436h2.872l1.436-1.436h2.872l3.255-3.256,2.1-1.052h1.436l3.639-1.819,1.93-1.93,1-1.993h2.433l2.067-2.067,2.241-2.241h1.436l1.82-1.819,3.032-1.052h1.98l1.436,1.436h2.836l3.291-1.436,2.1,1.052,2.712,2.712,2.328-2.328h2.907l4.343,2.172,2.078-4.156,2.872-1.436,1.266-2.323,3.032,1.052,2.3,1.149,1.6,6.414H667.8l2.241,2.241,1.683,1.683,4.573,2.286,3.339-3.338,2.14,1.052,3.639,1.82,2.1,1.052,3.639,1.819h5.708l1.471-1.436,2.872,1.436h1.944l2.785.805,1.683,1.683,3.639,1.82h3.924l1.436,1.436h2.872l1.436,1.436h19.559l3.3-.969,1.938.969h9.667l1.9,1.9,3.841-.467H807.46l3.806,1.9,1.9-1.9H820l1.436,1.436h6.092l1.436-1.436h2.907l2.872,1.436h17.2l2.523-1.436,1.436,1.436h6.092l1.436-1.436h53.163l2.872,1.436h8.2l3.8-1.436h33.917l1.98-1.436h12.031l1.436,1.436h5.708l1.938-.969,1.861,1.861,2.328-2.328h2.907l2.872,1.436h8.2l3.8-1.436h29.61l1.98-1.436H1044l1.436,1.436h14.707l1.436-1.436h14.359l1.436-1.436h9.667l2.872-1.436h1.436l2.872-1.436h1.82l1.436-1.436h9.054l1.436-2.872h7.793l2.276-.631,3.294,3.293,3.973-5.534h6.252l4.224-2.405,1.938.969h3.889l4.691-2.872h3.311l.649-1.436h4.656l1.436-1.436h3.311l1.966-3.841,1.938.969h5.708l2.4-2.4,2.872,1.436,2.286-2.287,3.924-2.488h1.98l3.3-.969,3.41,1.705.739-1.479,3.256,4.884,2.221-7.013h1.98l1.436,1.436h10.435l4.482,1.994,3.119,3.119,1.436,1.436,3.5,3.5h3.255l2.872,1.436h1.436l2.872,1.436,2.1,1.052,3.91,2.474,4.812,7.218,2.5-5h3.9l2.872,1.436,3.875-1.038.825,2.474h2.48l2.872,1.436h7.179l2.1,1.052,1.82,1.82h8.615l1.9,1.9,2.872-1.436,1.861,1.861,2.328-2.328h6.831l1.436,1.436h2.872l1.436,1.436h5.708l1.938-.969,1.861,1.861,2.328-2.328h5.4l1.436,1.436h4.308l1.436,1.436h6.092l1.436-1.436h8.615l2.067-2.067,2.276-2.241,3.806,1.9,1.938-1.9,4.816.892,1.98,1.98h8.58l1.938-.969,1.436,1.436,4.733-1.9h10.943l1.436-1.436h8.651l2.1,1.052,1.819,1.82h12.923l1.436,1.436h6.127l2.872,1.436,3.806-.969,1.938.969h9.668l1.436,1.436h5.708l3.8-1.436h1.436l4.733-.969,1.938.969h3.889l2.276-.631Z"/><path class="f" d="M512.177,2987.456h56.517l1.436-4.307h6.959l1.436-1.436h3.566l1.559,3.117,3.618-1.809,1.436-1.436,2.872-1.436,1.6-1.6,1.436-2.871,2.909-2.91,1.46-4.377,2.871-4.308,1.475-4.425,1.424-5.693,2.879-5.759,1.436-7.18,2.864-5.728,1.459-5.836,1.434-7.168,2.872-10.051,1.436-7.18L622.005,2895l1.441-8.644,1.432-7.161,2.851-12.829,1.344-2.688,2.931-2.93,1.465-5.86,1.079-2.16,2.692,1.347,1.592-1.592h3.135l1.264-5.057,3.361,4.8,1.7,1.7H650.9l1.312,5.247,2.872,7.18,1.731,6.926,1.825-1.825,2.282,2.282,1.491,2.981,3.826,1.914,1.534-4.6,3.365,1.308,1.563,1.564h4.9l3.475-.183,1.65,3.3,2.774-1.386,1.227,3.683,1.766,1.766h2.652l1.366,4.1,2.872,1.435,1.328,3.984,1.542,7.712H701.2l1.3,3.908,2.964,4.447,3.011,6.3,3.716-1.858,4.024.284,1.436-1.436,2.195,1.1,1.329,2.658,1.488,2.976,2.872,2.872,1.435,2.872,2.872,2.871,1.582,3.165h1.711l3.362,1.681,1.311-2.623,2.675,2.675,1.436-1.436,3.773,2.392,1.527,3.054h3.018l1.93,1.93,1.56-3.12,2.126,1.062,1.564,1.564h2.871l2.872,2.872h2.726l1.435,2.872h3.316l2.446,1.308,2.872,1.436,1.564,1.563h2.725l1.345,2.689,2.872,1.436,1.329,2.658,1.634,3.269h3.018l4.18,2.743,3,3h3.169l4.011,2.872h1.436l4.435,2.872h1.775l2.561-1.281,3.013,1.281h2.574l4.18,2.744,3,3h3.169l4.138,1.436h5.913l3.8,2.662,1.646,1.646h3.17l2.574,1.436h2.872l1.591,1.591,3.183-1.591,2.4,1.436h4.775l2.871-1.436h5.277l1.592,1.591,3.183-1.591h5.574l4.449,1.591,1.592-1.591,3.84,1.436H901.6l1.436-1.436h2.277l1.436,1.436h27.281l1.436,1.435h4.9l1.435-1.435h44.385l2.872-1.436h25.379l1.591,1.591,3.183-1.591h2.872l3.128-1.564,4.179-1.308,1.646-1.646,4.226-2.79,3.882-1.308h1.733l1.647-1.646,2.871-2.872,4.336-2.844,1.49-2.982,2.872-2.871,1.488-2.976,1.237-2.475h2.872l1.583-3.165,2.789-2.789,1.436-1.436,4.335-2.844,1.491-2.982,2.579-2.579h1.436l1.7-1.7,2.965-4.447,1.412-4.238,2.835-2.835,1.488-2.975,1.415-2.832,2.917-4.374,1.417-5.671,2.731-2.732,1.436-1.435,3.265.027,1.527,3.055h2.872l1.238,2.474,1.543,3.086,2.871,1.436,1.349,2.7,3.11,4.664,4.007,6.683,1.42,5.68,1.438,7.191,2.872,10.051,1.473,7.364,3.236,3.236h3.745l3.009-13.541,1.437-24.429,2.871-17.227,1.391-19.469h5.459l2.184-3.277,1.029,4.113,1.432,17.193,2.963,20.74h6.927l1.583-6.334,2.807-25.255h7.213l2.912-49.5.178,46.725,4.127-16.511,1.41-33.846h3.619l3.926,53.833,2.534-87.47,2.109-7.382.922,3.686h9.826l1.5-15,.006,45.976,3.027,12.1h7l1.456-50.953,1.44,60.392,1.5,6,3.223,3.223h5.523l1.268,3.8,2.918,10.215,2.272,2.272,1.683-3.366h6.051l1.481,31.091,3-3,1.238,8.666,1.581,6.323h7.3l1.182,2.365,1.452,11.61,3.045,3.046,1.647,1.646h6.21l2.872-1.436,3.473,5.3,1.583,4.75h5.343l.918-2.755,2.168,6.5,1.82,14.558,2.175-6.525,2.774,1.386,1.7-3.409,2.281-2.282,2.575,2.574h7.179l1.592,1.592,3.438-1.72,1.519-1.518,3.63.21h4.477l2.73,1.592,2.872-1.436,4.28,2.716h6.357l1.313-2.626,2.381,1.19h1.9l1.436-1.436h2.872l1.563-1.563,2.616-1.308h2.533l2.872,1.436h4.18l1.436,1.435h4.307l1.436,1.436h4.774l2.872-1.436h1.564l4.152.156,1.592-1.591h2.277l1.733,1.733,1.733-1.733h2.131l1.558,3.117,3.051-1.526,3.014,1.28h2.574l4.747,3.028,1.592-1.592h3.713l1.591,1.592,2.693-1.346,1.313,2.626h1.582l2.872,2.872h1.9l2.872-1.436h7.18l3.127-1.564h3.457l2.854,4.436h2.871l1.345,2.689,2.872,1.436,1.381,2.761,1.518,1.519,2.872,2.871,1.646,1.647H1461l2.871,2.871h2.872l.21,2.241-3.676-.8-2.067-2.066-3.677-.8-2.067-2.067-2.872-2.872-1.682-1.683-1.272-2.542-2.871-1.436-1.162-2.323h-2.872l-1.875-3.75-2.112-1.527-4.224,2.405h-2.453l-1.938-.969-2.789.969-2.872,1.436h-2.836l-2.872-2.872h-1.875l-1.068-2.136-2.334,1.167-1.9-1.9h-1.98l-2.446,1.9-4.573-2.287-3.032-1.052h-2.328l-4.379.736-1.8-3.608-2.976,2.329-2.328-2.329-2.99,1.9-2.872-1.436-2.789.969-2.871,1.436h-5.709l-1.436-1.436h-4.307l-1.436-1.436H1357.4l-2.872-1.435h-1.855l-2.1,1.052-1.82,1.819h-2.872l-1.435,1.436h-2.837l-2.468,1.436h-7.583l-3.639-1.819-3.457.85-1.9-1.9h-5.36l-1.938-.969-2.021,2.022-4.573,2.286-1.9-1.9h-7.179l-2.067-2.066-3.257,5.674-2.577-1.289-3.654,10.96-2.587-20.7-.761-2.283-4.307-.35h-2.989l-1.878-5.635-2.208-4.416-2.468,1.436h-7.144l-2.067-2.067-3.394-3.394-1.482-11.855-2.216-1.351h-5.99l-1.87-7.483-.843-5.9-3.268,3.268-1.57-32.965h-3.8l-2.176,4.354-3.944-3.944-3.012-10.543-.931-2.79h-5.083l-3.924-3.925-1.633-6.529-2.882-60.52,4.3-.041-1.5,52.348H1206.9l-3.336-13.342-1.443-46.179,4.3.147-1.63,16.3H1192.54l-.478,2.474-1.73,98.656-3,.061-3.757-63.858h-1.646l-1.359,32.616-6.64,26.558-1.963-56.946,4.3.052-2.991,50.847H1165.5l-2.183,24.074-1.879,7.516h-9.293L1149,2908.007l-1.427-17.12-3.611.365h-2.872l-.731,18.2-2.869,17.217-1.439,24.468-3.284,14.778h-5.492l-3.964-3.964-1.547-7.733-2.871-10.051-1.443-7.215-1.388-5.552-2.276-5.69-4.716-5.378-1.175-2.35-2.872-1.435-1.757-3.514-.84-1.682h-2.872l-1.71-3.42-2.615,1.354-2.45,2.45-1.382,5.526-3,4.507-1.376,2.752-1.592,3.184-2.76,2.759-1.366,4.1-3.15,4.725-2.218,2.218H1074.5l-1.994,1.994-1.6,3.2-3.2,1.6-2.625,2.624-2.624,2.625-1.875,3.75h-2.872l-.841,1.681-1.592,3.184-2.872,2.872-1.6,3.2-3.2,1.6-4.06,4.06-2.067,2.067h-4.307l-3.924,2.488-3.256,3.256h-2.872l-4.691,2.872h-1.944l-4.733,1.9-1.9-1.9H990.326l-3.8,1.435H942.4l-1.436,1.436H934.87l-1.435-1.436H906.153l-1.436-1.435-2.524,1.435h-7.144l-2.871-1.435-1.938,1.9-3.806-1.9H881.2l-4.733,1.9-1.9-1.9h-3.415l-3.8,1.435H861.64l-1.436-1.435-3.84,1.9-1.9-1.9h-2.872l-1.436-1.436h-4.307l-2.067-2.067-2.241-2.241h-6.8l-2.872-1.436h-4.691l-2.067-2.067-4.06-2.624-3.032-1.052h-7.688l-3.639-1.82-2.488-1.052-2.872-2.872h-4.307l-2.067-2.067-4.061-2.624-4.363-1.053-2.031-4.062-1.115-2.23-2.871-1.435-1.162-2.324h-2.433L775.1,2948.3l-2.872-1.436-1.6-1.052h-4.2L765,2942.944h-2.433l-2.066-2.067-3.677-.8-1.82-1.819-2.442,3.3-2.918-2.918h-3.31l-1.71-3.42-2.543-1.271-1.6,1.276-2.281-2.282-1.063,2.125-4.343-2.171h-2.259l-1.875-3.75-2.872-2.872-1.436-2.872-2.871-2.871-1.592-3.185-1.115-2.229-2.277,1.015-2.872-1.436-5.991,3.288-2.06-6.181-4.378-5.952-1.036-3.109h-3.085l-1.756-8.779-1.111-3.334-2.872-1.436-1.227-3.681H687.9l-2.426-2.427-.811-2.434-2.577,1.289-2.078-4.156-1.81.548H672.1l-1.82-1.819-2.1-1.053-1.106,5.191-5.735-2.867-1.6-3.2-3.705,1.5-2.323-9.293-2.872-7.179-1.063-4.254h-2.082l-2.218-2.218-2.872-4.307.484,5.089h-3.661l-1.9,1.9-2.334-1.167-1.89,6.827-3.046,3.046-1.161,2.322-2.81,12.642-1.424,7.123-1.451,8.7-2.881,10.085-1.436,7.179-2.871,10.051-1.429,7.145-1.506,6.022-2.848,5.7-1.436,7.18-2.895,5.79-1.4,5.594-1.553,4.66-2.872,4.308-1.506,4.516-2.984,2.984-1.435,2.872-1.931,1.93-2.872,1.436-1.435,1.436-5.111,2.555-1.8-3.607h-1.541l-1.979,1.436h-5.2l-2.755,4.307H512.177Z"/><text class="c" transform="translate(455.833 2990.328)"><tspan x="0" y="0">0</tspan></text><text class="c" transform="translate(455.833 2961.611)"><tspan x="0" y="0">2</tspan></text><text class="c" transform="translate(455.833 2932.893)"><tspan x="0" y="0">4</tspan></text><text class="c" transform="translate(455.833 2902.739)"><tspan x="0" y="0">6</tspan></text><text class="c" transform="translate(455.833 2874.021)"><tspan x="0" y="0">8</tspan></text><text class="c" transform="translate(449.285 2845.304)"><tspan x="0" y="0">10</tspan></text><text class="c" transform="translate(449.285 2816.587)"><tspan x="0" y="0">12</tspan></text><text class="c" transform="translate(449.285 2787.869)"><tspan x="0" y="0">14</tspan></text><text class="c" transform="translate(449.285 2757.715)"><tspan x="0" y="0">16</tspan></text><text class="c" transform="translate(449.285 2728.997)"><tspan x="0" y="0">18</tspan></text><text class="c" transform="translate(449.285 2700.28)"><tspan x="0" y="0">20</tspan></text></g></svg>