<?xml version="1.0" encoding="utf-8"?>
<!-- Generator: Adobe Illustrator 22.0.1, SVG Export Plug-In . SVG Version: 6.00 Build 0)  -->
<svg version="1.1" id="Слой_1" xmlns="http://www.w3.org/2000/svg" xmlns:xlink="http://www.w3.org/1999/xlink" x="0px" y="0px"
	 viewBox="0 0 360 136" style="enable-background:new 0 0 360 136;" xml:space="preserve">
<style type="text/css">
	.st0{fill:none;stroke:#A6A8AB;stroke-width:0.5;stroke-miterlimit:10;}
	.st1{fill:#606060;}
	.st2{font-family:'ArialMT';}
	.st3{font-size:3.7206px;}
	.st4{fill:#A4A4A4;}
	.st5{font-size:3.6987px;}
	.st6{fill:#90BBE7;}
	.st7{fill:#808184;}
	.st8{fill:#231F20;}
	.st9{fill:#D0D2D3;}
	.st10{fill:#222B3E;}
	.st11{font-size:3.4407px;}
	.st12{opacity:0.322;fill:none;stroke:#A6A8AB;stroke-width:0.9;stroke-miterlimit:10;enable-background:new    ;}
	.st13{fill:none;stroke:#A6A8AB;stroke-width:0.9;stroke-miterlimit:10;}
</style>
<rect x="0.2" y="20.3" class="st0" width="359.6" height="107.9"/>
<rect x="156.9" y="9.1" class="st1" width="3" height="3"/>
<text transform="matrix(1 0 0 1 161.0781 11.8667)" class="st2 st3">Balkans</text>
<rect x="207.4" y="9.1" class="st4" width="3" height="3"/>
<text transform="matrix(1 0 0 1 211.4463 12.0518)" class="st2 st5">Baltic</text>
<rect x="182.8" y="9.1" class="st6" width="3" height="3"/>
<text transform="matrix(1 0 0 1 187.0537 12.0518)" class="st2 st5">Greece</text>
<rect x="265.4" y="9.1" class="st7" width="3" height="3"/>
<text transform="matrix(1 0 0 1 269.6396 12.0518)" class="st2 st5">Sweden</text>
<rect x="229" y="9.1" class="st8" width="3" height="3"/>
<text transform="matrix(1 0 0 1 233.1494 12.0518)" class="st2 st5">Scandinavian</text>
<rect x="74.6" y="9.1" class="st9" width="3" height="3"/>
<text transform="matrix(1 0 0 1 78.9854 12.0518)" class="st2 st5">Western Europe</text>
<rect x="117" y="9.1" class="st10" width="3" height="3"/>
<text transform="matrix(1 0 0 1 121.2192 12.0518)" class="st2 st5">Central Europe</text>
<text transform="matrix(1 0 0 1 33.5645 120.1038)" class="st2 st11">25/1/20</text>
<text transform="matrix(1 0 0 1 51.1572 120.1038)" class="st2 st11">25/2/20</text>
<text transform="matrix(1 0 0 1 68.749 120.1038)" class="st2 st11">25/3/20</text>
<text transform="matrix(1 0 0 1 86.3418 120.1038)" class="st2 st11">25/4/20</text>
<text transform="matrix(1 0 0 1 103.9336 120.1038)" class="st2 st11">25/5/20</text>
<text transform="matrix(1 0 0 1 121.5264 120.1038)" class="st2 st11">25/6/20</text>
<text transform="matrix(1 0 0 1 139.1182 120.1038)" class="st2 st11">25/7/20</text>
<text transform="matrix(1 0 0 1 156.7109 120.1038)" class="st2 st11">25/8/20</text>
<text transform="matrix(1 0 0 1 174.3027 120.1038)" class="st2 st11">25/9/20</text>
<text transform="matrix(1 0 0 1 190.6631 120.1038)" class="st2 st11">25/10/20</text>
<text transform="matrix(1 0 0 1 208.2559 120.1038)" class="st2 st11">25/11/20</text>
<text transform="matrix(1 0 0 1 225.8486 120.1038)" class="st2 st11">25/12/20</text>
<text transform="matrix(1 0 0 1 244.6719 120.1038)" class="st2 st11">25/1/21</text>
<text transform="matrix(1 0 0 1 262.2637 120.1038)" class="st2 st11">25/2/21</text>
<text transform="matrix(1 0 0 1 279.8564 120.1038)" class="st2 st11">25/3/21</text>
<text transform="matrix(1 0 0 1 297.4482 120.1038)" class="st2 st11">25/4/21</text>
<text transform="matrix(1 0 0 1 315.041 120.1038)" class="st2 st11">25/5/21</text>
<path class="st12" d="M40.9,29.7h285.3 M40.9,37.9h285.3 M40.9,46.1h285.3 M40.9,54.4h285.3 M40.9,63h285.3 M40.9,71.2h285.3
	 M40.9,79.5h285.3 M40.9,87.7h285.3 M40.9,95.9h285.3 M40.9,104.6h285.3"/>
<line class="st13" x1="40.9" y1="112.8" x2="40.9" y2="29.7"/>
<line class="st13" x1="40.9" y1="112.8" x2="326.2" y2="112.8"/>
<path class="st13" d="M322.1,112.8v1.2 M304.8,112.8v1.2 M286.7,112.8v1.2 M270.6,112.8v1.2 M252.5,112.8v1.2 M234.8,112.8v1.2
	 M217.5,112.8v1.2 M199.4,112.8v1.2 M182.1,112.8v1.2 M164,112.8v1.2 M146.3,112.8v1.2 M128.6,112.8v1.2 M110.9,112.8v1.2
	 M93.6,112.8v1.2 M75.5,112.8v1.2 M58.6,112.8v1.2 M40.9,112.8v1.2"/>
<path class="st9" d="M45,113h19.5l0.4-2.1l0.9,0.4l0.5,1.6l1-1.5h0.4l0.4-1.3l0.8-1.2l1.2-0.3l0.4-1.3l1.2-2.1l0.3-1.3l0.7,0.7
	l0.6-0.6l0.7-4.6l0.1,0.4l0.5,1l0.8-0.4l0.4,1.2l1.1-0.5l0.6,2l1.1-3.7l0.4-2l0.8-2.1l0.4-1.7l0.4-2.9l0.8-2.9l0.3-0.6l0.8,0.8
	l0.6-0.6l0.9-0.7l0.4,1.9l1,1l0.4-0.4l1.1,1.1l0.5,1l1.1-0.5l0.4-1.8l0.9,0.9l0.5,1l1-1l0.9-0.4l0.4,2.8l0.5,0.5h1l1,1.6l0.8,2.5
	l0.8,0.8l0.4,1.6l0.8,1.3l0.5,0.9h0.4l0.8,1.6l0.5,0.5l0.8,0.4l0.4,0.8l0.4,0.4l0.8,0.8l0.5,0.5h0.8l0.8,0.8h2.1l0.7,0.4l0.9,0.4
	h0.4l0.8,0.4l1.2,1.2h0.4l0.4,0.4h0.8l0.4,0.4h0.8l0.5,0.5l0.5-0.5h1.9l0.8,0.4h2.1l0.4,0.4h4.7l0.9-0.4l0.7-0.4h0.8l1.2,0.4h0.4
	l0.7,0.4l0.4,0.4h9.9l0.5,0.5l0.9-0.5h1.5l0.5,0.5l0.9-0.5l0.7,0.4h12.1l0.4-0.4h3.9l0.5,0.5l0.8-0.4l0.9,0.4h13.7l0.4-0.4h2.5
	l0.4-0.4h5.4l0.4-0.4h3.7l0.4-0.4l0.8-0.4h0.4l0.4-0.4l0.7-0.4h0.4l0.8-0.8l0.7,0.5l0.9-0.5h1.3l0.5-0.5l1.3-0.8l0.4-1.7l0.8-0.8
	l0.4-0.4l1.2-0.8l0.4-0.4l0.8-0.8h0.5l0.4-1.3l0.6-0.3l0.5,0.5l1-1.9l0.4-0.8l0.6-0.6l0.4,1.1h0.6l0.9-0.9l0.4-0.8l0.8-0.4l0.4-0.9
	l1.2-1.2l1.3-0.5l0.4-1.7l0.4-0.7l0.7-0.4h0.4l0.8-0.8h0.4l1.3,0.1l0.4-2.1l0.6,0.3l0.5,0.5l0.5-0.5l0.7-0.3l1.1,1.1l0.5,3.2
	l0.6-0.6h0.7l0.5,0.5l0.9-0.5l1.1,0.4l0.8,0.8l1,0.5l0.4-0.9h1.2l0.5-0.9l0.8-1.6l0.4-0.8l0.8-0.8l0.4-0.4l0.4-0.8l0.8-0.4l0.4-0.7
	l0.8,0.4l0.3-0.5l0.3,1.1l0.8,2.5l0.4,1.7l1.1,1.1l0.5-2.4l0.3-1.2l0.7,1.1L239,90l0.6,0.3l0.7,1.4l0.5-5.9h0.5l0.5,0.5l1-1.5
	l0.4-1.6L244,82l0.2-1l0.3,2.9l1-0.5l0.5,0.5l1-1l0.4-2.5l0.4-2.9l0.8-3.3l0.3-1.4l0.8,0.4l0.5-1.9l0.2-0.6l0.7,2.3l1.2,5.5h0.5
	l1.1,2.3l0.5,3l0.9-1.3l0.6,1.7l0.5-3.6h0.7l1-0.1l0.4,2l0.4,0.9l0.8,1.2l0.4,1.6l0.8,2.1l0.4,2.1l0.9,2.2h0.5l1.1,1.1l0.5,3.2
	l0.9-2.6l0.4,1.5l0.6-1.2h0.5l0.4,2.4l1.1,1.1l0.3-0.6l0.4,1.5l0.8-0.8l0.3,1l0.9,0.4l0.6,0.6l0.4-1.5l0.6,0.8l0.4,0.8l0.9,2.6h0.7
	l0.4-1.3l0.6-0.3l0.4,0.8h0.9l0.6,0.6l0.4-0.8l0.6,0.6l0.4,1.6l0.9,0.9h0.5l0.9-0.4l0.7-0.4h1.3l0.8-0.4h0.7l0.8,0.8l0.6,0.6l1-1
	l0.4-2.1l0.3-0.5l0.8,0.8l0.5-0.5h0.9l0.3-0.6l0.2,0.4l0.8,2.5l0.5,1h1l0.5-0.5l0.4-0.7h0.6l0.5,0.5l1-1l0.6,0.1h0.8l0.4,0.9l1-0.5
	l1,0.4h0.5l1.4,0.5l0.4-1.1l0.6,0.6l0.5,0.5h0.5l0.7-0.4l1.2,0.8h1.7l1.2,0.4h0.5l1.2,0.4h1.2l0.8,0.8h0.9l1.1,1.2h0.4l0.4,0.4h0.9
	l1.2,0.4h1.2l0.4,0.4h0.4l0.8,0.4h1.7l1.2,0.4h1.3l0.7,0.4h1.3v0.4h-1.5l-0.4-0.4h-1.5l-0.8-0.4h-2.1l-0.8-0.4h-0.5l-0.4-0.4h-1.1
	l-0.8-0.4h-1.3l-0.4-0.4h-0.5l-0.8-1.2h-1.2l-0.6-0.6l-0.8-0.2h-0.6l-0.8-0.4h-0.8l-0.8-0.4h-2.1l-1-0.5l-0.7,0.1h-0.8l-0.6-0.6
	l-0.4,0.8l-1.3-0.7h-0.9l-0.6-0.6l-1.5,0.8l-0.5-1h-0.7l-1.4,1.1l-0.7-0.7l-0.5,0.6l-0.7,0.7h-1.5l-0.6-1.2L290,102l-0.8,0.4
	l-0.7,0.7l-0.7-0.7l-0.4,2.1l-1.4,1.4l-0.8-0.8l-0.6-0.6h-0.4l-0.8,0.4H282l-0.5,0.3l-1,0.5h-0.8l-1.1-1.1l-0.4-1.6l-0.5,0.7
	l-0.8-0.8H276l-0.3-0.6l-0.5,1.4h-1.3l-1-2.9l-0.4-0.7l-0.4,1.3l-1.1-1.1l-1-0.5l-0.2-0.5l-0.9,0.9l-0.3-1.1l-1.6-1.5l-0.4-2.2
	l-0.9,2l-0.3-1.2l-0.9,2.8l-0.8-4.7l-0.7-0.7l-0.8-0.2l-1-2.5l-0.4-2.1l-0.8-2l-0.4-1.6l-0.8-1.2l-0.5-0.9l-0.4-1.8l-0.4,0.2H257
	l-0.7,4.9l-0.8-2.5l-1,1.5l-0.7-3.9l-0.8-1.9l-0.8-0.1l-0.9-5.3l-0.7-1.5l0.2-0.7l-0.6,2.4l-0.8-0.4l-0.2,0.9l-0.8,3.3l-0.4,2.9
	l-0.4,2.7l-1.4,1.4l-0.5-0.5l-1.2,0.6l0.3-2.4l-0.8,1.3l-0.4,1.6l-1.3,1.9l-0.8-0.8l-0.5,7l-1.3-2.6l-0.9,0.5l-0.5-0.7l-0.7,3.5
	l-1.8-1.8l-0.4-1.8l-0.8-2.5l-0.8-0.6l-0.2,0.5l-0.8,0.4l-0.4,0.7l-0.5,0.5l-0.8,0.8l-0.4,0.7l-0.8,1.6l-0.6,1.2h-1.2l-0.5,1
	l-1.5-0.7l-0.5-0.5l-0.9-0.6l-1.2,0.5l-0.5-0.5l-1.4,1.1l-0.6-3.9l-0.7-0.7l-0.4,0.1l-0.8,0.8l-0.8-0.8l-0.4,2.1l-1.1-0.6l-0.7,0.3
	l-0.8,0.8h-0.5l-0.5,0.3l-0.3,0.6l-0.5,1.9l-1.2,0.6L211,96l-0.8,1.3l-0.8,0.4l-0.4,0.7l-1.1,1.1h-1.1l-0.2-0.7l-0.4,0.8L205,102
	l-0.7-0.7l-0.7,1.5H203l-0.6,0.6l-0.5,0.5l-0.8,0.4l-0.8,0.8l-0.7,0.7l-0.4,1.8l-1,0.5l-0.9,0.9h-1.1l-1.4,0.5l-0.5-0.5l-0.7,0.8
	H193l-0.6,0.3l-0.5,0.5h-0.5l-0.6,0.3l-0.5,0.5h-3.7l-0.4,0.4h-5.4l-0.4,0.4h-2.5l-0.4,0.4H163l-1.1,0.1l-0.5-0.5h-3.5l-0.6,0.4
	h-12.5l-0.4-0.4l-1.1,0.5l-0.5-0.5h-1l-1.4,0.5l-0.5-0.5H130l-0.5-0.5l-0.6-0.3h-0.4l-0.8-0.4h-1.1l-0.5,0.3l-1,0.5h-4.9l-0.4-0.4
	h-2.1l-0.4-0.4l-0.9-0.3l-1.1,0.3l-0.7,0.7l-0.7-0.7h-0.8l-0.4-0.4h-0.8l-0.4-0.4H111l-0.8-1.2l-1.1-0.4h-0.4l-1-0.5l-0.5-0.3h-2.3
	l-0.6-0.6l-1.1-0.2l-0.6-0.6l-0.8-0.8l-0.5-0.5l-0.4-0.7l-0.7-0.4l-0.6-0.6l-0.7-1.4h-0.4l-0.6-1.1L97,99.6L96.6,98l-0.8-0.8
	L95.5,95l-0.9-1.7l-1.3-0.1l-0.7-0.7L92.2,90l-1.7,1.7l-0.8-1.5L89,89.4l0.2,1.6l-1.6,0.8L87,90.5l-0.8-0.8l-0.4,0.4l-1.4-1.4
	l-0.3-1.4l-1.2,1.2l-0.7-0.7l-0.8,2.8l-0.4,3l-0.4,1.7l-0.8,2l-0.4,2l-1.5,5.4l-0.6-2.8l0.3-0.6l-1.6,0.8l-0.4-1.2l-0.7,0.4
	l-0.7-1.4l0.4,1.1l-0.5,3l-1,1l-0.5-0.5l-0.2,0.7l-0.9,1.8l-0.9,1.9h-1l-0.9,1.3l-0.5,1.6h-0.5l-1.3,2l-0.7-2.2l-0.5-0.2l-0.2,2.1
	H45V113z"/>
<path class="st10" d="M66.4,113h8.3l0.4-0.4h4.1l0.8-0.4h0.8l0.8-0.4H83l0.5-0.5l1.2-0.4l0.4-0.4h1.2h1.2L88,110h6.4l0.4,0.4h2.6
	l1.2,0.4h4.6l1.2,0.4h2.9l0.7,0.4h5l1.2,0.4h20.1l0.4,0.4h21.2l0.4-0.4h0.7l0.4,0.4h3.4l0.8-0.4h4.1l1.2,0.4h3l0.4-0.4h5.8l0.4-0.4
	h0.8l0.4-0.4h1.2l0.4-0.4h2.1l0.4-0.4h1.2l0.4-0.4l0.8-0.4h1.7l0.4-0.4l0.8-0.4h1.3l0.5-0.5l0.4-0.8l0.8-0.4l1.3-0.4l0.4-1.7
	l1.1,0.1l0.5-0.5l0.8-0.8l0.4-0.8l1.2-0.8l0.4-0.9l0.8-1.3l0.4-1.7l0.4-0.8l0.8-1.7l0.4-1.6l0.8-1.2l0.4-1.3l0.4-1.2l0.8-1.2
	l0.4-0.8l0.8-2.1l0.4-1.2l0.4-1.6l0.8-1.2l0.4-1.3l0.8-2.1l0.4-2.9L207,75l0.4-2.1l0.3-0.7h0.8L209,71l0.8-0.4l0.4-0.8l1.1,0.5
	l0.5-0.5l0.7-0.3l0.7,1.5l0.9,0.4l0.5,0.5l0.8-0.8l0.8,0.3h0.9l1.3,0.1l0.5-1.8l1.2-1.2l1.2-0.4l0.5-0.9l0.4-0.8l0.6-0.6l0.3,0.6
	l0.8,0.4l0.4,0.8l0.8,0.8l0.4,0.4l1.2,1.6l0.4,0.4l1.1,0.5l0.4-1.5l1.3,0.2l0.5-0.9l0.8-1.7l0.4-1.3l0.4-2.2l0.8,0.4l0.4-1.3h0.5
	l0.3,0.7l0.4,1.2l0.8,4.5l0.4,5l1,1.5l0.6-0.6l0.4-2.1l0.8-0.8l0.4-2h0.8l0.4-2.2l0.4-4.5l0.7-1.4l1,1.4l0.7,1.3l1-3.8l0.5,2l1-1
	l0.5,0.5l1-1.9l0.3-0.9l1,1.3l0.4,2.2h1.1l0.2-0.4l0.3,1.2l0.9,0.9l0.6,0.6l0.7-0.7l0.5,2.4l0.6-1.7L254,66l1.2,1.7l0.9,1.1l0.7-1.4
	l0.3,2.7l1.1,0.6l0.4-1.3l1.1-0.7l0.4,0.4l1-1l0.4-1.2l0.8-0.4l0.4-0.9l1,0.1h1.2l0.8,0.8l0.9,0.9h0.5l0.8-0.4h0.4l0.4-0.4l0.8-0.4
	h1.3l0.5-1l0.4-1.2l0.8-2.1l0.4-1.2l0.8-0.8l0.4-1.7l0.4-0.8l0.6-0.6l0.4,1.3l1.1-1.6l0.4-0.9l0.4-1.6l0.8-0.8l0.4-2.1l0.8-0.8
	l0.3-1.7l0.6,0.6l0.7,1.2l0.8,0.4l0.5,1l1-1l0.7-0.4l1-0.5l0.4-1.7l0.8-0.8l0.4-0.7l1,0.8h0.4l0.8,0.4l0.7,0.7l0.5-2.3h0.8l0.4-0.9
	l0.7-0.4h0.4l1.7,7l0.7-2.1l0.8-1.2l0.4-0.8l0.4-1.1h0.8l0.5-1.4l0.6-4.8l0.2,1.1l0.8,2.1l0.4,2l0.4,1.7l0.8,1.2l0.4,1.2l0.8,1.6
	l0.4,2.4l0.4,1.7l0.8,2.1L304,59l0.8,0.8l0.4,2l0.4,2.1l0.8,1.7l0.4,1.2l0.8,1.6l0.4,1.2l0.4,2.1l0.8,1.2l0.4,2.4l0.8,2.5l0.4,1.2
	l0.4,1.3l0.9,0.9l0.4,0.4l0.9,0.4l0.7,1.1l0.8,1.2l0.4,1.6l0.8,1.7l0.4,0.8l0.8,2l0.4,1.2l0.4,1.2l0.8,2.1l0.4,1.7l0.8,1.7l0.4,1.2
	l0.4,0.8l0.8,1.2l0.4,0.8l0.9,1.3l0.8,0.8l1,0.5l0.5-0.5l-0.4,1l-1.4-0.7l-0.3-0.7l-1.4-1.5l0.2-0.5l-0.8-1.2l-0.4-0.9l-0.4-1.2
	l-0.8-1.7l-0.4-1.7l-0.8-2L318,92l-0.4-1.2l-0.8-2l-0.4-0.8l-0.9-1.7l-0.4-1.6l-0.8-1.2l-0.3-0.9l-1.2-0.5l-0.5-0.5l-0.9-0.9
	l-0.5-1.4l-0.4-1.2l-0.8-2.5l-0.4-2.4l-0.8-1.2l-0.4-2.1l-0.4-1.2l-0.8-1.6l-0.4-1.2l-0.8-1.7l-0.4-2.1l-0.4-1.9l-0.8-0.8l-0.5-1.4
	l-0.8-2.1l-0.4-1.7l-0.4-2.4l-0.8-1.6l-0.4-1.2l-0.8-1.3l-0.4-1.8l-0.4-2l-0.8-2.1l0.3,1.5l-0.3,2.2l-0.6,1.7H297l-0.3,0.9l-0.4,0.9
	l-0.8,1.2l-1.2,3.7l-1-8h-0.7l-0.5,1h-0.7l-0.5,2.7l-1.2-1.2l-0.6-0.3h-0.5l-0.8-0.8l-0.1,0.6l-0.8,0.8l-0.4,1.8l-1.2,0.6l-0.5,0.2
	l-1.4,1.4l-0.7-1.4l-0.9-0.4l-0.4-1.1l-0.6,0.9l-0.8,0.8l-0.4,2.1l-0.8,0.8l-0.4,1.5l-0.5,0.9l-1.5,2.3l-0.5-1.5l-0.4,0.7l-0.4,1.7
	l-0.8,0.8l-0.4,1.1l-0.8,2.1l-0.4,1.3l-0.6,1.2h-1.2l-0.9,0.3l-0.5,0.5H269l-0.8,0.4h-0.8l-1-1l-0.4-0.4l-0.8-0.2h-0.6l-0.6-0.3
	l-0.5,0.9l-0.8,0.4l-0.4,1.1l-1.4,1.4l-0.4-0.4l-0.6,0.6l-0.7,1.5l-1.8-0.9l-0.2-1.6l-0.5,0.9l-0.8-1.6l-1.3-1.5l-1.3,2.4l-0.6-3.2
	l-0.4,0.4l-0.8-0.8l-0.9-0.9L250,64h-1.7l-0.5-2.4l-0.7-1.1l0.2,0.7l-1.2,2.5l-0.6-0.6l-1.2,1.2l-0.3-1.8l0.5-0.9l-1.2,4.8l-1.1-2.3
	l-0.8-1.2l-0.2,1l-0.4,4.4l-0.5,2.6h-0.8l-0.3,1.7l-0.8,0.8l-0.4,2.1l-1.1,1.1l-1.3-2l-0.4-5.1l-0.8-4.5l-0.4-1.2l-0.2-0.4l-0.5,1.5
	l-0.7-0.4l-0.3,1.7l-0.4,1.3l-0.8,1.7l-0.6,1.2H229l-0.2,1.5l-1.6-0.8l-0.5-0.5l-0.8-1.2l-0.8-0.8l-0.9-0.9l-0.4-0.7l-0.8-0.4
	l-0.6,0.6l-0.6,1.2h-0.9l-1.1,1.1L219,72l-1.1-0.6l-1.4,0.3h-0.7l-1,0.7l-0.8-0.8l-1-0.5l-0.4-1.3l-1,0.8l-1.1-0.5l-0.2,0.7
	l-0.8,0.4l-0.5,1.4h-1l-0.6,2.5l-0.8,1.2l-0.4,2.8l-0.8,2.1l-0.4,1.3l-0.8,1.2l-0.4,1.6l-0.4,1.3l-0.8,2.1l-0.4,0.9l-0.8,1.2L201,92
	l-0.4,1.3l-0.8,1.2l-0.4,1.6l-0.9,1.7l-0.4,0.8l-0.4,1.7l-0.9,1.3l-0.5,1l-0.9,0.5l-0.7,1.1l-0.9,0.9l-0.7,0.7l-0.8-0.4l-0.5,1.9h-1
	l-1,0.7l-0.4,0.7l-0.7,0.7h-1.1l-0.9,0.3l-0.5,0.5h-1.5l-0.9,0.3l-0.5,0.5h-1.1l-0.6,0.4h-2.1l-0.4,0.4h-1.2l-0.4,0.4h-0.8l-0.4,0.4
	h-5.6L170,113h-3.3l-0.8-0.4h-4l-1.1,0.4h-3.7l-0.4-0.4L156,113h-21.5l-0.4-0.4H114l-0.8-0.4h-5.5l-0.4-0.4h-3.2l-0.8-0.4H100
	l-0.6-0.3l-1.1,0.3l-0.8-0.4h-3l-0.4-0.4H88l-0.5,0.5l-0.8-0.4l-0.9,0.3h-0.6l-0.4,0.4H84l-0.8,0.8h-1.1l-1.1,0.4h-0.6l-1.1,0.4h-4
	l-0.4,0.4h-8.5V113z"/>
<path class="st6" d="M64.4,113h5l0.8-0.4h3.3l0.8-0.4h2.1l0.8-0.4h1.7l0.4-0.4h2.5l0.4-0.4h2.4l1.2,0.4h0.5l1.2,0.4h1.3l0.7,0.4h2.2
	l0.4-0.4h1.2l0.4-0.4h0.7l0.4,0.4h0.8l0.5,0.5l0.5-0.5l0.7,0.4h2.8l0.4,0.4h4.7l0.8-0.4h2.8l1.2,0.4h12.8l0.7,0.4h1l0.4-0.4h4.8
	l0.4,0.4h14.2l0.4-0.4h4l1.3,0.5l0.5-0.5h7l0.4-0.4h2.5l0.4-0.4h0.7l0.4,0.4h3.9l0.4-0.4h2.5l0.4-0.4h0.7l0.4,0.4h7.5l0.8-0.4h0.8
	l0.8-0.4h1.3l0.4-0.4h2.3l0.4,0.4h0.9l0.7,0.4h2.2l0.4-0.4h2.3l0.6,0.6l0.4-0.9l0.8,0.4l0.5-0.5h0.8l0.5-0.5l1-0.7l0.4,0.4l0.9-0.5
	h2.8l0.8,0.5l0.9-0.5h1.1l0.5,0.5l0.5-0.5l0.7,0.4h0.5l0.9-0.4l0.4-0.4l0.8-0.8l0.5-0.5l0.4-1.7l0.8-1.2l0.4-2.1l0.8-1.6l0.4-1.2
	l0.4-1.2l0.8-1.2l0.4-0.4l0.8-2.1l0.4-0.8l0.4-1.2l0.8-0.8l0.4-0.4l0.8-2.1l0.4-3.7l0.4-2l0.8-1.2l0.4-2.1l0.8-1.6l0.4-2.1l0.4-1.6
	l0.6-0.6l1.4,0.3l0.4-0.8h1.1l1.1,1.2h0.6l0.7-0.3l0.4,0.9l0.5-0.5l0.7,0.7l1.1,1.5l0.4,0.8l0.4,1.8h0.9l0.4,0.8h0.9l0.8,0.8
	l1.1,1.1l0.4-1.2l0.6,0.6l0.4,1.2l0.4,1.2l0.8,2.5l0.4,0.9l0.8,0.8l0.4,1.2l0.4,1.3l0.9,0.4l1.2,1.2l0.5,0.5l1.2,1.6l0.5,0.5
	l0.9,0.4h0.4l0.8,0.4l0.7,0.8l0.8,0.4l0.4,1.2l0.8,0.8l0.4,0.8l0.4,0.9l0.8,0.4l0.5,1.4l1-0.5l0.7,0.4l1,0.5l0.4-0.4l0.8,0.4h0.7
	h0.8l0.4,0.4h0.8l0.4,0.7l0.5,0.5l1-0.5l1.2,0.1h0.8l1-1l1,0.1l1.2,0.8h3.1l0.4-0.4h1.2l0.4-0.4h1.2l1.3,0.5l0.5-1l0.7-0.7h0.4
	l0.4-0.4l0.9-0.4l0.4-0.8l0.6-0.3l0.9,0.4l0.8-0.4h0.4l0.9-0.5l0.4-0.9l0.4-0.8l0.8-1.1l1.3-0.9l0.4-1.2l0.7-0.4h0.4l0.5-0.5
	l0.8-0.8l1.2-0.4l0.5-0.9l1.2,0.7l0.4-1.3l0.8,0.4l0.5-1l1.1,0.6l0.5-1l0.7-0.4h0.5l0.4-1.3l0.8-0.4l0.4-0.9l0.7-1l0.5,0.5l0.5-1.5
	l0.8-0.8l1.1,0.1l0.5-0.5l1-0.7l0.4,1.6l1.1-0.5l0.4-0.4l0.9-0.4l1-2.2l0.3-0.6l0.8,0.4l0.4-0.9h0.6l0.5,0.5l1.1,1l0.6,1.1l0.9-1.3
	l0.8,0.3h0.7l0.4,1.2h0.9l0.7,1.1l1.1,4.3l0.5-3.6l0.8,0.4l0.5-1.9l0.3-0.6l0.7,0.3h0.6l0.6-2l0.3,3.1l0.4,1.7l0.8,1.7l0.4,1.3
	l0.8,0.4l0.4,1.7h1.5l1.1,0.4h1.2l0.8,1.2l0.9,0.4l1.2,1.2l0.4,0.8l0.4,0.9l0.9,0.4l0.1,0.7l-1.3-0.8l-0.5-1l-0.4-0.7l-0.8-0.8
	l-1.3-0.8l-0.5-0.9l-0.7-0.2h-0.7l-0.6-0.6L318,92h-1.3l-0.5-1.8l-0.8-0.4l-0.5-1.4l-0.8-1.7l-0.4-1.8l-0.1-0.9l-1.1,0.2H312
	l-0.6,2.3l-0.7-0.4l-0.7,5.2l-1.6-6.3l-0.3-0.7l-1.2-0.2l-0.4-1.2h-1l-1.1,1.4l-0.9-1.8l-0.4-0.9l-0.9-0.4l-0.7,1l-0.8-0.4L300,84
	l-1,0.5l-0.4,0.4l-1.6,0.8l-0.4-1.6l-1.1,1.1l-0.8-0.4l-0.8,0.8l-0.7,2l-0.6-0.6l-0.4,0.6l-0.5,1l-0.8,0.4l-0.5,1.4h-0.7l-0.5,0.3
	l-0.7,1.4l-1-1l-0.5,1.2l-0.7-0.4l-0.5,1.5l-1.1-1.1l-0.4,1h-0.9l-1.1,1.1l-0.6,0.6h-0.5l-0.5,0.2l-0.4,1.1l-1.1,1.1l-1,0.9
	l-0.4,0.8l-0.5,1l-1.1,0.6h-0.4l-0.8,0.4h-0.8l-0.5-0.2l-0.4,0.8l-0.9,0.5l-0.5,0.5h-0.4l-0.6,0.6l-0.6,1.3l-1.2-0.6h-1.2l-0.4,0.4
	h-1.1l-0.6,0.4h-3.4l-0.8-0.8l-0.9-0.3l-1.4,1.4l-0.4-0.4l-1.1-0.1l-1.5,0.8l-0.8-0.8L255,104h-0.7l-0.4-0.4h-0.8l-0.4,0.1l-0.8-0.4
	l-0.4,0.4l-1.3-0.7l-1.6,0.4l-0.6-1.7l-0.8-0.4l-0.5-1l-0.4-0.7l-0.9-0.9l-0.4-1.1l-0.8-0.4l-0.3-0.7l-1-0.4h-0.4l-1-0.5l-0.6-0.6
	l-0.7-1.4l-0.9-0.6l-0.8-0.8l-1.3-0.8l-0.5-1.5l-0.4-1.1l-0.8-0.8l-0.5-1l-0.8-2.5l-0.4-1.2l-0.4-1.1l-0.4,1.2l-1.5-1.5l-0.4-0.4
	l-1.2-0.2l-0.4-0.8h-0.9l-0.5-2l-0.4-0.8l-0.7-1.3l-0.9-0.6l-0.6,0.6l-0.5-1l-1.3,0.2l-0.8-1.2H222l-0.4,0.8h-1.5l-0.4,0.1l-0.4,1.5
	l-0.4,2.1l-0.8,1.6l-0.4,2.1l-0.8,1.2l-0.4,1.9l-0.4,3.8l-0.9,2.3l-0.5,0.5L214,93l-0.4,1.1l-0.4,0.8l-0.9,2.2l-0.5,0.5l-0.7,1.1
	l-0.4,1.2l-0.4,1.3l-0.8,1.6l-0.4,2.1l-0.8,1.2l-0.4,1.7l-0.5,0.5l-0.8,0.8l-0.5,0.5l-1,0.5h-0.7l-0.6-0.3l-0.5,0.5l-0.7-0.7H202
	l-1.4,0.5l-0.5-0.5h-2.6l-1.4,0.5l-0.4-0.4l-0.7,0.5l-0.6,0.6h-0.8l-0.5,0.5l-0.7-0.3l-0.5,1l-0.8-0.8h-1.8l-0.6,0.4H186l-0.4-0.4
	h-1.2l-0.4-0.4h-1.8l-0.6,0.4h-1.1l-1.1,0.4h-0.6l-1.1,0.4h-7.8l-0.4-0.4l-0.7,0.4h-2.5l-0.4,0.4h-4.2l-0.4-0.4l-0.7,0.4h-2.5
	l-0.4,0.4h-7l-0.5,0.5L149,113h-4l-0.6,0.4H130l-0.4-0.4h-4.4l-0.4,0.4h-1.3L123,113h-13.1l-0.8-0.4h-2.7l-1.1,0.4h-4.9l-0.4-0.4
	h-2.8l-0.6-0.3l-0.5,0.5l-0.7-0.7h-0.8l-0.4-0.4l-0.7,0.4h-1.2l-0.4,0.4h-2.6l-0.4-0.4h-1.5l-0.8-0.4h-0.8l-0.8-0.4h-2.5l-0.4,0.4
	h-2.5l-0.4,0.4h-1.5l-1.1,0.4h-1.8l-1.1,0.4h-3l-1.1,0.4h-5.1L64.4,113L64.4,113z"/>
<path d="M64.8,113h9.6l0.4-0.4h2.5l0.4-0.4l1.2-0.4h1.3l0.4-0.4l1.2-0.4l1.3-0.4l0.8-0.4l0.8-0.4l1.1,0.4h0.5l1.3,0.5l0.5-0.5h4.8
	l0.4,0.4h1.8l0.8-0.4h0.8l0.8-0.4h1.6l1.2,0.4h0.4l0.8,0.4h4.6l1.2,0.4h2.8l0.4,0.4h3.9h0.7l0.8-0.4l1.3,0.4h3.4l0.4-0.4h1.2
	l0.8-0.4h0.8l0.8-0.4h1.7l0.4-0.4h4.1l0.8-0.4h0.4l0.8-0.4h0.4l0.4-0.4h2.1l0.5-0.5l1.1-0.4h0.5l0.9-0.4h0.6h0.8l0.4,0.4h1.3
	l1.3,0.5l0.5-0.5l0.8-0.4h0.4l0.4-0.4l0.8-0.4h1.1l0.5,0.5l0.9-0.9l0.7,0.5l1-0.5l1.2-0.4l0.3-0.6l0.4,0.8l1-1.4h2.9l1.1,0.5
	l0.4-0.4l1.3,0.8l0.4-0.4l0.7,0.3l0.8,0.8l0.9,0.4h0.5l0.7-0.4l0.9,0.4h0.9l0.4-0.4l0.8-0.4h1.1l0.5,0.5l0.5-0.5l0.7-0.3l1.3,0.4
	h1.6l1.3,0.8h0.5l1.2,0.4h1.4h0.7l0.9-0.5h0.4l0.9-0.5l0.3-0.6l1.2,0.3h0.5l0.8-0.4l0.7,0.4l0.9,0.4h1.4l1.1,0.4h0.5l1.3,0.5
	l0.5-0.5l0.8-0.4h0.4l0.4-0.4h1.2l0.9-0.4l0.8-0.4l0.7-0.4l0.4,0.4l1-0.5l0.4-0.9l1.2-0.3l0.4-0.8h0.8l0.5-0.5l1.1-0.4h0.5l0.9-0.9
	l0.4-0.4l1.3-0.4l0.4-2.2l0.8-0.8l0.4-1.2l1.2-1.7l0.4-1.7l0.8-2l1.2-1.2l0.4-1.3l0.4-1.1h0.8l0.4-1.3l0.8-0.4l0.4-0.9l0.4-1.3
	l0.8-2.8l1.2-0.8l0.4-1.7l0.4-1.6l0.8-0.8l0.4-1.6l0.7-0.3h0.5l0.4-0.8h1.2l0.9-1.4l0.4-2.1l1.3-0.7l0.4-2.1l0.7-0.7h0.5l0.3-0.6
	L223,66l0.5-2.9l0.6-0.8l0.3,1h1.1l0.4-0.8l0.9,0.7l0.4,2.5l0.9,0.9l0.9,1l1-1h1.2h0.6l0.9,0.4l1.1,1.1l0.4,2.4l0.4,1.3l0.8,1.2
	l0.4,1.3h0.8l0.4,1.5l0.5,0.9l0.8,0.4l0.4,1.6l0.8,2.1l0.5,0.9h0.6l0.6-0.6l0.4,2.1l1.1,1.6l0.5-1.4l0.5,0.3l0.4,0.8l0.4,0.8
	l0.8,1.7l0.5,0.5l0.8,0.4l0.4,1.6l0.4,0.9l1,1l0.4-0.8l0.7,0.7h0.6l0.5-0.9l0.7-0.7l1.1,0.7l0.6,1.1l0.5-1l0.6,0.3l0.4,0.9h1.4
	l0.4-0.4h0.6l0.4,0.8h0.8l0.4,0.7l0.5,0.5h0.8l0.4,0.4h1l0.4-0.8h0.8l0.5-0.5L264,93l0.5-0.5l0.6,0.3l0.4,0.8l0.6,0.6l0.8-0.8
	l1.4-0.1l0.4-0.8L270,92l0.4-0.8h1.2l1,0.8h0.6l0.8-0.4l0.8,0.5l1-1l0.4-1.6l0.8-0.4l0.4-0.8l1.3-1.4l0.4-1.5h0.7l0.5-0.5l0.8-0.8
	h0.5l0.4-2.2l0.8-1.2l1.2-0.3l0.5-0.9l1.2-0.8l1.1,0.5l0.6-0.6l0.4-0.8l0.8-0.4l0.4-0.9l0.8-0.8l0.4-0.9l0.4-1.6l0.8-1.6l0.4-0.8
	l0.6-0.9l0.5,1.5l0.6-2.2l0.7-0.3h0.4l0.9-0.5l0.3-0.6l0.4,0.4l0.7-1.4l0.3,1.1l0.9,1.3l0.4,0.4l0.8,0.8l0.4,0.8l0.4,0.4l0.8,1.2
	l0.4,0.4l0.8,0.4l0.9,0.9h0.8l0.4,1.1l0.9,0.9h0.5l1.1,0.7l0.4,0.8l1,3l0.6-1.8l0.9,0.8l0.4,2l0.9,0.9l0.4,0.4l1.2,2.8l0.4,1.3
	l0.8,0.8l0.4,1.2l0.4,0.4l0.8,1.6l0.4,0.9l0.8,0.4l0.4,0.8l0.8,0.8l0.8,2.1l0.8,0.4l0.4,0.8l0.8,0.8l0.8,1.2l0.9,0.5l1.1,0.7
	l0.5,0.9h0.5l0.8,0.8h0.5v0.4h-0.7l-0.8-0.8h-0.5l-0.5-1.1l-0.6-0.6l-1.4-0.6l-0.5-0.9l-1.2-1.2L319,97l-0.9-0.4l-0.4-1.8l-1.2-1.2
	l-0.4-0.7l-0.8-0.4l-0.5-1l-0.8-1.6l-0.4-0.4l-0.4-1.2l-0.8-0.8l-0.5-1.4l-0.8-2.3l-0.7-0.7l-0.9-0.9l-0.4-1.7l-0.3-0.5l-0.7,2.6
	l-1.4-4.2l-0.3-0.7l-0.6-0.6H305l-1.1-1.1l-0.3-1H303l-0.6-0.6l-1.2-0.8l-0.5-0.5l-0.8-1.2l-0.4-0.4l-0.4-0.8l-0.8-0.8l-0.5-0.5
	l-0.9-1.4l-0.5,0.8l-0.4-0.4l-1.3,0.8h-0.4l-0.4,0.2l-0.9,3.4l-0.7-2l-0.5,0.9l-0.8,1.6l-0.4,1.6l-0.5,1l-0.8,0.8l-0.5,0.9L288,78
	l-0.4,0.7l-0.9,0.9l-0.8-0.8l-0.9,0.5l-0.8,1.3h-0.9l-0.9,1.3l-0.5,2.4h-0.7l-0.6,0.6l-0.6,0.6h-0.6l-0.3,1.3l-1.1,1.6l-0.7,0.7
	l-0.8,0.4l-0.4,1.5l-1.4,1.4l-0.7-0.7l-0.8,0.4h-0.9l-0.6-0.9l-0.7,0.1h-0.4l-0.3,0.7l-1.1,0.6l-0.5,0.7l-1.4,0.7l-1.1,0.5l-0.9-0.9
	l-0.4-0.7l-0.8,0.4l-0.8-0.8l-0.6,0.6H262l-0.4,0.8h-1.5l-0.4-0.4h-0.8l-0.7-0.7l-0.3-0.6h-0.8l-0.4-0.8l-0.6,0.4h-1.9l-0.5-1
	l-0.8,1.3l-0.9-1.7l-0.7-0.4l-0.9,1.3h-1l-0.8,0.4l-1.5-1.5l-0.5-1l-0.4-1.4l-0.7-0.3l-0.6-0.6l-0.9-1.7l-0.4-0.8l-0.3-0.6l-0.6,1.8
	l-1.6-2.4L241,82l-1.2,0.2l-0.6-1.2l-0.8-2.1l-0.4-1.4l-0.8-0.4l-0.5-1.1l-0.3-1.2h-0.8l-0.5-1.6l-0.8-1.2l-0.5-1.4l-0.4-2.4
	l-0.6-0.8l-1.3-0.5l-1.3,0.1l-1.4,1.2l-0.6-1.2l-1.4-1.1l-0.4-2.5l-0.5-0.5l-0.2,0.8h-1.6l-0.2-0.5l-0.7,4l-1.1-1.6l-0.6,0.2
	l-0.5,0.5l-0.4,2.1l-1.4,1.4l-0.2,1.4l-1.1,1.6h-1.2l-0.4,0.8h-0.6l-0.4,0.2l-0.4,1.5l-0.8,0.8l-0.4,1.5l-0.5,1.9l-1,0.5l-1,3
	l-0.4,1.3l-0.5,1l-0.8,0.4l-0.5,1.4h-0.8l-0.3,0.8l-0.5,1.4l-0.9,0.9l-1.1,2.2l-0.4,1.7l-0.9,1.4l-0.8,1.6l-0.8,0.8l-0.5,2.4h-1.1
	l-0.6,0.6l-1,1H198l-0.8,0.8h-0.7l-0.4,0.8h-0.9l-0.6,1.1l-1.4,0.7l-0.4-0.4l-0.6,0.3l-0.6,0.3l-1,0.5h-1.1l-0.4,0.4h-0.5l-0.6,0.3
	l-0.7,0.7l-1.1-0.5h-0.9l-0.6-0.6l-1.2,0.2h-0.6l-1-0.5l-1.1,0.1H179l-1.2,0.8h-0.4l-1.1,0.5l-0.4-0.1h-1.6l-0.8-0.4h-0.8l-1-0.5
	l-0.9-0.3h-1.9l-0.6-0.1l-0.8,0.8l-0.7-0.7h-0.6l-0.9,0.3l-0.5,0.5h-3.3l-1-0.5l-0.5-0.5l-0.7-0.5l-0.4,0.4l-1.3-0.7l-0.5,0.4
	l-0.8-0.8l-1.2,0.2h-1.6l-1.3,1.8l-0.3-0.7l-1,0.1l-1.6,1l-0.5-0.5l-1,1.1l-0.7-0.7h-0.6l-0.9,0.3l-0.5,0.5h-0.5l-0.6,0.3l-0.7,0.7
	l-1.1-0.5h-1.8l-0.4-0.4h-1l-1.2,0.4h-1.1l-0.8,0.8h-2.1l-0.4,0.4h-0.5l-0.8,0.4h-0.4l-0.8,0.4h-4l-0.4,0.4H125l-1.1,0.4h-0.6
	l-1.1,0.4H121l-0.4,0.4H116l-1.1,0.1l-0.4-0.1h-4.2l-0.4-0.4H107l-0.8-0.4h-4.9l-0.8-0.4H100l-0.8-0.4h-1.5l-1.1,0.4H96l-1,0.3h-2
	l-0.4-0.4h-1.1l-0.6-0.3l-1.4,0.3h-1.4l-0.5,0.5l-1.1-0.5h-0.8l-0.8-0.4l-0.9,0.4l-0.6,0.3l-1,0.5H82l-0.8,0.4l-0.7,0.4h-1.1
	l-1.1,0.4l-0.7,0.4h-2.3l-0.6,0.4H65V113H64.8z"/>
<path class="st4" d="M67.2,113H76l0.4-0.4H78l0.8-0.4h1.7l0.4-0.4h1.2l0.9-0.4l0.4-0.4l1-0.4l0.4,0.4h3l0.8-0.4h1.6l1.3,0.5l0.4-0.4
	l0.7,0.4h2.8l0.4,0.4h3l1.2,0.4h1.8l0.4-0.4h3.5l0.4,0.4h1l0.4-0.4l1.1,0.4h7l1.2,0.4h3.4l0.4-0.4h6.4l0.5,0.5l0.8-0.4l1.3,0.4h6.6
	l0.8-0.4l1.1,0.4H162l0.8-0.4h2.1l0.7-0.4l1.3,0.4h5l0.8-0.4h1.6l1.3,0.5l0.5-0.5h4l1.3,0.5l0.5-0.5h2.5l0.4-0.4h2.5l0.4-0.4h1.6
	l0.8-0.4l1.1,0.4h0.5l0.4-0.4h4.1l0.8-0.4h0.4l0.4-0.4h0.8l0.4-0.4l0.7-0.4h0.4l0.4-0.4h2.1l0.4-0.4h2.5l0.4-0.8h0.8l0.4-0.4
	l1.2-0.4h0.4l0.8-0.4h0.4l0.4-0.4l0.8-0.4l1.2-0.4l0.5-0.5l0.4-0.4l0.8-0.8l0.4-0.8l0.7-0.4l0.8,0.5l1-1.4l1.1-0.7h0.8l0.9-0.5
	l0.4-0.8h0.8l0.7,0.1l0.8-0.8l1.4-0.1l0.4-0.4L225,97l0.4-0.8l1.2-0.8l0.4-0.8l0.8-0.4l0.2-0.4l0.3,0.8l1.1,0.6l0.4-2.2h0.8l0.5-0.9
	l0.3-0.6l0.8,0.8l0.5-1.1l0.8-1.2l0.6-0.3l0.7,0.4l0.6,1.7l1-2.6l0.4-0.8l0.4-2l0.7-1.1h0.4l0.9-1.3l0.3-0.8l0.4,0.8l0.7-1.8
	l0.3,1.4l0.9,0.9h0.4l0.9,0.9l0.5-0.5l1.1,1.4l0.4-0.4l0.7,1.1h0.5l1.1,0.4l0.5,1.5l0.8-0.8l0.5,1.4l0.6-1.2h0.8h1l0.8,2l0.8,0.4
	l0.4,1.2l0.8,1.2l0.4,1.3l0.5,0.5h1.4l0.9-0.9l0.4-1.3l0.4-0.7l0.6-0.3l1.4,0.4l1,0.3l0.4,0.8l0.4,0.9l0.8,0.8l0.5,0.5l0.9-0.5
	l0.6,0.4l0.8,0.8l0.5,0.9h0.9l0.9,1.4l0.9-0.9l1.2,0.7h0.5l0.4-0.4h0.8l1.1,1.5l0.6-1.2l0.4-0.8l0.8-0.4l0.4-0.4l0.8-0.4l0.5,0.4
	l1,1L278,97l0.8,0.4l0.5-0.5l0.7-0.4h0.5l0.4-1.3l0.7-0.4h1.1l0.5,0.5l0.5-0.5l0.8,0.4L286,94l0.8-1.2h0.6l0.8,1.1l0.6,1.2l0.9-2.4
	l0.5,0.7l1,1l0.5-1.1l0.8-1.6l0.5,1.8l1.1-0.5l0.4-0.4l0.8-1.2l0.4-0.4l0.4-0.7h0.8l0.4-0.4l0.7-0.3l1.1,0.4l0.4,1.5l0.6,0.6
	l0.8-0.8l0.3,0.6l1,1l0.5-0.5h1l0.4,0.8l0.8,0.4l0.5,1l0.5-0.5l0.6,0.6l0.4,1.3l0.9,0.4l0.4,0.4h0.5l0.7-0.4l1.2,0.8h0.5l0.4-0.4
	h0.8l1-0.1l0.4,0.8l0.5,0.5h0.8l1.2,1.2l0.6,0.6l1-1l0.4-0.4l0.4-0.4l0.6-0.6l0.3,1.4l1,0.5l0.7,0.4l0.9,0.9l1.2,1.2h0.5l1.1,0.4
	l0.1,0.7l-0.9-0.6h-1l-0.8-1.2l-1.3-1l-0.5-0.2l-1.2-0.6l-0.2-0.9l-0.5,0.5l-0.4,0.4l-1.3,1.3l-0.8-0.8l-0.8-0.8l-1.1-0.2l-0.7-0.7
	l-0.4-0.7l-0.5,0.2H312l-0.4,0.4h-0.8l-1-0.5l-0.7,0.1h-0.8l-0.5-0.5l-1-0.5l-0.4-1.3l-0.9,0.3l-0.7-1.4l-0.8-0.4l-0.3-0.7h-0.4
	l-0.8,0.7l-1.3-1.3l-0.7,0.5l-1-1l-0.3-1.3h-0.6l-0.6-0.1l-0.5,0.5h-0.7l-0.3,0.6l-0.4,0.4L295,93l-0.5,0.5l-1.6,0.8l-0.3-1.7
	l0.5-0.5l-0.8,1.6l-0.8,1.6l-1.5-1.5l-0.3-0.6l-0.8,2.9l-1-2l-0.6-0.9l-0.8,1l-0.8,0.8l-0.8-0.4l-0.5,0.5l-0.7-0.7H283l-0.7,0.2
	l-0.5,1.4h-0.7l-0.6,0.3l-0.7,0.7l-0.8-0.4l-0.5,0.5l-1.3-1.3l-0.8,0.1l-0.4,0.4l-0.7,0.4l-0.3,0.6l-1,1.9l-1-2h-0.8l-0.4,0.4H271
	l-1-0.5l-1,0.9l-0.8-1.5l-1.1-0.2l-0.5-1.1l-0.8-0.8l-1.3,0.3l-0.7-0.7l-0.9-0.9l-0.5-0.9l-0.4-0.7l-0.5-0.2h-1.3l-0.5-0.2l-0.3,0.6
	L259,93l-1.1,1.1H256l-0.7-0.7l-0.4-1.3l-0.8-1.2l-0.4-1.1l-0.8-0.4l-0.4-1.8l-0.6-0.4l-1,0.3l-0.9,1.8l-0.6-1.7l-0.8,0.8l-0.6-1.9
	l-0.5-0.2h-1l-0.6-0.9l-0.4,0.4l-1.1-1.6l-0.5,0.7l-1.1-1.1h-0.4l-1.1-1.1l-0.6,1.2l-0.4-0.7l-1,1.5h-0.4l-0.6,0.9l-0.4,2l-0.4,0.9
	l-1.4,3.6l-0.9-2.6l-0.5-0.2l-1,1.3l-0.8,1.6l-0.8-0.8l-0.6,1.2h-0.7l-0.5,2.4l-1.8-0.9h-0.7l-0.4,0.8l-0.9,0.5l-0.7,1.1l-0.9,0.9
	l-0.5,0.5l-1.3,0.7l-1.1,0.5l-0.4-0.4l-0.9,0.2l-0.3,0.7l-1.1,0.6h-0.6l-0.9,0.3l-1.5,2.1l-0.8-0.8l-0.5,0.3l-0.4,0.7l-0.9,0.9
	l-0.4,0.4l-0.6,0.6H212l-1.1,0.7l-0.5,0.5h-0.5l-0.8,0.4h-0.4l-0.8,0.4l-0.7,0.4h-0.7l-0.4,0.8h-2.4l-0.6,0.4H201l-0.4,0.4H200
	l-0.6,0.3l-0.5,0.5H198l-0.4,0.4h-0.5l-0.8,0.4h-4l-0.4,0.4H191l-0.8-0.4l-0.9,0.4h-1.5l-0.4,0.4h-2.5l-0.4,0.4h-2.3l-0.7,0.5
	l-1.1-0.5h-4l-0.7,0.5l-1.1-0.5h-1.5l-1.1,0.4h-8.8l-1.1,0.4h-23.8l-0.8-0.4l-0.9,0.4h-7.8l-1.1,0.1l-0.5-0.5H121l-0.4,0.4h-3.7
	l-0.8-0.4h-7.4l-0.8-0.4l-0.4,0.4h-1.3l-0.4-0.4h-3.2l-0.4,0.4h-2l-0.8-0.4H96l-0.4-0.4h-2.8l-0.6-0.3l-0.4,0.4l-1.1-0.5h-1.5
	l-1.1,0.4h-3.3l-0.4-0.4l-0.5,0.2l-0.5,0.5l-1,0.5h-1.1l-0.4,0.4h-1.5l-1.1,0.4h-1.5l-0.4,0.4h-8.9V113H67.2z"/>
<path class="st8" d="M325.3,111.8l-0.7,0.4h-3.7l-0.8,0.4h-1.4l-0.7-0.4h-4.2l-1.2-0.4h-1.3l-0.4-0.4h-3.7l-0.4-0.4l-1.1-0.4h-2.4
	l-0.4,0.4h-3.3l-0.9,0.5l-0.4-0.4l-0.7,0.4h-2.2l-1.1-0.4l-1.2-0.5l-0.5,0.5l-1.2-0.5l-0.8,0.8l-0.5,0.5h-2.5l-0.4,0.4h-1.4
	l-0.4-0.4h-1.2l-0.4-0.4h-1.9l-0.5,0.5l-0.5-0.5l-0.7,0.4h-1.4l-0.4-0.4h-0.8l-0.7-0.4h-2l-0.5,0.5l-0.5-0.5l-0.8,0.4l-0.5-0.5h-2.5
	l-0.4-0.4l-1.1-0.4h-1.7l-0.8-0.4h-0.5l-0.4-1.1l-0.6,0.6H264l-1.2-0.4h-1.1l-0.5,1l-1.4-1.9l-0.8-0.4l-0.8-0.4l-0.8-0.4H257
	l-1.2-0.4h-0.5l-0.9-0.9l-0.4-0.4l-0.8-0.8l-0.6-0.3l-0.9-0.5h-0.4l-0.7-0.7l-0.3,0.7h-1.4l-0.4-0.4h-1l-0.5,1.5l-0.9-1.3l-0.3,0.7
	l-1.2-0.1h-0.5l-1.1,0.4l-0.8,0.4l-0.5,0.5l-1.1-0.1l-0.5,0.5h-1.4l-1-0.1l-0.5,0.9h-0.9l-0.4,0.4l-1.3-0.3l-0.3,0.7l-1.2,0.4
	l-0.9,0.4h-0.9h-1.1l-0.9,0.4h-2l-0.9,1.4l-0.9-0.9l-0.7,0.4h-2.4l-0.4,0.8h-2.5l-0.4,0.4h-0.4l-0.8,0.4h-0.4l-0.8,0.4h-2.8
	l-0.4,0.4H209l-0.4,0.4h-3.9l-0.4-0.4h-1.1l-0.4,0.4h-8.7l-0.8,0.4h-2.2l-1.2-0.4h-0.7l-0.5,0.5l-0.5-0.5l-0.7,0.4h-1.4l-0.7-0.4
	h-3.6l-0.4,0.4h-9.9l-0.8,0.4h-2.2l-1.2-0.4h-15.1l-0.4,0.4h-1.4l-0.4-0.4h-0.7l-0.4,0.4h-4.7l-1.2-0.4h-0.7l-0.4,0.4h-1.4l-0.4-0.4
	h-2.3l-0.5,0.5l-1.3-0.5h-12.4l-0.9-0.4l-0.8,0.4l-0.5-0.5h-9.9l-0.4-0.4h-0.8l-0.4-0.4h-1.2l-0.9-0.4L107,110h-1.2l-1.1-0.4
	l-0.4,0.4H103l-0.9-0.4l-0.8-0.4l-1.3-0.8l-1,0.4l-0.5,0.5l-1-0.5l-0.4-0.4l-0.8-0.8h-0.5l-0.4-1.7l-1.1-0.8h-1l-0.4,0.8l-0.8,0.4
	l-0.5,0.9l-1.3-0.5h-0.7l-0.5,0.5l-0.5-0.5l-1.1-0.4l-0.8,0.4h-0.5l-0.4-0.4h-1.1l-0.8,0.4l-0.4,0.4H83l-0.8,0.8l-0.5,0.5H81
	l-0.4,0.7l-0.5,0.5l-0.9,0.4h-0.4l-1.1,0.8l-0.5,0.5h-0.8l-0.4,0.4h-0.8l-0.4,0.4h-0.4l-0.8,0.4H71l-0.4,0.4H47.9v0.4h22.9l0.4-0.4
	h2.4l0.8-0.4h0.5l0.4-0.4h0.8l0.4-0.4h0.8l0.9-0.9l0.6-0.3h0.4l1-0.5l0.6-0.6l0.3-0.6h0.7l0.6-0.6l0.6-0.6h0.4l0.5-0.5l0.9-0.3h0.6
	l0.4,0.4h0.8l0.9-0.4l0.6,0.3l0.8,0.8l0.7-0.7h0.8l1.2,0.6l0.6-1.2l0.8-0.4l0.4-0.7l0.9,0.3l0.7,0.3l0.5,1.8h0.6l0.6,0.6l0.5,0.5
	l1.3,0.7l1-1l0.6,0.3l1,0.5l0.6,0.3l1,0.5h1.6l0.4-0.4l0.8,0.4h0.6l0.8,0.2l0.5,0.5l1,0.5h1.1l0.4,0.4h0.8l0.4,0.4h5.6l0.9-0.3
	l0.6,0.3h2.8l0.5,0.5l1.1-0.1h13.3l1.1,0.5l0.5-0.5h2l0.4,0.4h1.7l0.4-0.4h0.8l0.8,0.4h4.9l0.7-0.4l0.4,0.4h1.7l0.4-0.4h15.2
	l0.8,0.4h2.4l1.1-0.4h9.7l0.6-0.4h3.4l0.4,0.4h1.6l0.6-0.3l0.5,0.5l0.7-0.7h0.8l0.8,0.4h2.4l1.1-0.4h8.5l0.6-0.4h0.6l0.4,0.4h4.2
	l0.4-0.4h4.1l0.4-0.4h2.8l0.8-0.4h0.4l0.8-0.4h0.5l0.4-0.4h2.6l0.4-0.8h2.2l0.7-0.2l0.9,0.9l1.1-1.6h1.8l1.2-0.7l0.6,0.3h1.1
	l1.3-0.8h0.9l0.2-0.4h1.3l0.4-0.4h0.9l0.6-1.1l0.6,0.3h1.6l0.7-0.7l0.8,0.4l0.7-0.7l1.1-0.7h0.6l0.9-0.3l1,0.5l0.2-0.4l0.9,1.4
	l0.6-2h0.6l0.4,0.4h3l1.3,0.6l0.9,0.9l0.4,0.4l1,1h0.9l0.8,0.4h0.4l0.8,0.4l0.6,0.3l1.1,0.7l1.4,2.1l0.7-1.4h1.1l0.8,0.4l1.1-0.3
	l0.2,0.7h0.7l0.8,0.4h2.1l0.6,0.3l0.5,0.5h2.5l0.5,0.5l0.8-0.4l0.5,0.5l0.7-0.7h2l0.4,0.4h0.8l0.4,0.4h1.6l0.6-0.3l0.5,0.5l0.7-0.7
	h1.5l0.4,0.4h1.2l0.4,0.4h1.7l0.4-0.4h2.5l0.6-0.6l0.7-0.6l1.1,0.5l0.6-0.5l1.4,0.3l0.6,0.6h2.5l0.6-0.3l0.4,0.4l1.4-0.5h3.1
	l0.4-0.4h2.5l0.6,0.3l0.5,0.5h3.7l0.4,0.4h1.8l0.8,0.4l1.1-0.3l0.6,0.3h2.8l0.4,0.4h1.6l1.1-0.4h0.4l1.4-0.3l0.6,0.3h1.1l0.7-0.2
	L325.3,111.8z"/>
<path class="st7" d="M51.6,113h16.2l0.4-1.2h2l0.4-0.4h1l0.4,0.9l1-0.5l0.4-0.4l0.8-0.4l0.5-0.5l0.4-0.8l0.8-0.8l0.4-1.3l0.8-1.2
	l0.4-1.3l0.4-1.6l0.8-1.7l0.4-2.1l0.8-1.6l0.4-1.7l0.4-2.1l0.8-2.9l0.4-2.1l0.8-2.9l0.4-2.5l0.4-2.1l0.8-3.7l0.4-0.8l0.8-0.8
	l0.4-1.7l0.3-0.6l0.8,0.4l0.5-0.5h0.9l0.4-1.4l1,1.4l0.5,0.5H91l0.4,1.5l0.8,2.1l0.5,2l0.5-0.5l0.7,0.7l0.4,0.9l1.1,0.5l0.4-1.3
	l1,0.4l0.4,0.4H99l1-0.1l0.5,0.9l0.8-0.4l0.4,1.1l0.5,0.5h0.8l0.4,1.2l0.8,0.4l0.4,1.1l0.4,2.2h0.8l0.4,1.1l0.8,1.3l0.9,1.8l1.1-0.5
	l1.2,0.1l0.4-0.4l0.6,0.3l0.4,0.8l0.4,0.9l0.8,0.8l0.4,0.8L114,96l0.5,0.9h0.5l1,0.5l0.4-0.8l0.8,0.8l0.4-0.4l1.1,0.7l0.4,0.9h0.9
	l0.6,0.6l0.4-0.9l0.6,0.3L122,99h0.8l0.8,0.8h0.8l0.4,0.8h1l0.7,0.4l0.8,0.4l0.4,0.4h0.8l0.4,0.8l0.8,0.4l0.4,0.8l0.5,0.9h0.9
	l1.2,0.8l0.9,0.9h0.9l1.2,0.8h0.4l1.3,0.8h0.5l0.7-0.4l0.9,0.4h0.7l1.2,0.8l0.9,0.9h0.9l1.2,0.4h1.7l1.1,0.8l0.5,0.5h0.9l0.7,0.4
	h0.8l0.5,0.5l0.9-0.5l0.7,0.4h1.4l0.8-0.4h1.5l0.5,0.5l0.9-0.5h1.6l1.3,0.5l0.5-0.5l1.1,0.4h1.8l0.4-0.4h0.7l0.4,0.4h7.8l0.4,0.4
	h1.4l0.4-0.4h12.7l0.8-0.4h7.3l0.5,0.5l0.9-0.5h0.8l0.9-0.4l1.2-0.4l0.5-0.5l1.2-0.8l1.1-0.4h0.5l0.5-0.5l0.8-0.8l1.2-0.8l0.4-0.9
	l0.8-0.8l0.4-0.9l0.4-0.7h0.8l0.5-0.9l0.8-0.8l0.4-0.4l1.2-0.8l0.4-0.9l0.7-0.7h0.4l0.5-0.5l0.9-1.3l0.4-1.2l0.8-0.8l0.4-0.9
	l0.4-0.8l0.8-1.3l0.4-1.6l0.8-0.8l0.4-0.4h0.9l0.4,0.9h0.8l0.4,0.7l0.4,0.9l0.8,0.4l0.4,0.8l0.9,1.3l1.1,1.9l0.4,1.6l0.4,2.1
	l0.8,2.9l0.4,2.1l0.9,0.9h1.1l0.9-3.9l0.4-7l0.8-4.9l0.4-5.6h1.6l0.6-0.9l0.3,1.2l0.4,4.9l0.8,5.9h2l0.5-1.8l0.8-7.2h2.1l0.8-14.2
	l0.1,13.4l1.2-4.7l0.4-9.7h1l1.1,15.4l0.7-25.1l0.6-2.1l0.3,1.1h2.8l0.4-4.3V70l0.9,3.5h2l0.4-14.6l0.4,17.3l0.4,1.7l0.9,0.9h1.6
	l0.4,1.1l0.8,2.9l0.7,0.7l0.5-1h1.7l0.4,8.9l0.9-0.9l0.4,2.5l0.5,1.8h2.1l0.3,0.7l0.4,3.3l0.9,0.9l0.5,0.5h1.8l0.8-0.4l1,1.5
	l0.5,1.4h1.5l0.3-0.8l0.6,1.9l0.5,4.2l0.6-1.9l0.8,0.4l0.5-1l0.7-0.7l0.7,0.7h2.1l0.5,0.5l1-0.5l0.4-0.4l1,0.1h1.3l0.8,0.5l0.8-0.4
	l1.2,0.8h1.8l0.4-0.8l0.7,0.3h0.5l0.4-0.4h0.8l0.4-0.4l0.8-0.4h0.7l0.8,0.4h1.2l0.4,0.4h1.2l0.4,0.4h1.4l0.8-0.4h0.4h1.2l0.5-0.5
	h0.7l0.5,0.5l0.5-0.5h0.6l0.4,0.9l0.9-0.4l0.9,0.4h0.7l1.4,0.9l0.5-0.5h1.1l0.5,0.5l0.8-0.4l0.4,0.8h0.5l0.8,0.8h0.5l0.8-0.4h2.1
	l0.9-0.4h1l0.8,1.3h0.8l0.4,0.8l0.8,0.4l0.4,0.8l0.4,0.4l0.8,0.8l0.5,0.5h0.8l0.8,0.8h0.8l0.1,0.6l-1.1-0.2l-0.6-0.6l-1.1-0.2
	l-0.6-0.6l-0.8-0.8l-0.5-0.5l-0.4-0.7l-0.8-0.4l-0.3-0.7h-0.8l-0.5-1.1l-0.6-0.4l-1.2,0.7h-0.7l-0.6-0.3l-0.8,0.3l-0.8,0.4h-0.8
	l-0.8-0.8H311l-0.3-0.6L310,107l-0.5-0.5h-0.6l-0.7,0.5l-1.3-0.7L306,106h-0.7l-1.3,0.2l-0.5-1l-0.9,0.7l-0.7-0.7l-0.9,0.5l-0.8-0.4
	l-0.8,0.3l-0.8,0.4H297l-0.4-0.4h-1.2l-0.4-0.4h-1.1l-0.8-0.4h-0.5l-0.6,0.3l-0.5,0.5h-0.8l-0.4,0.4h-0.8l-0.7,0.4h-2.2l-1-0.5
	l-1,0.2l-0.5-0.5h-1.5l-0.6-0.3l-0.6,0.6l-1.3,0.7l-0.5-0.5h-2.1l-0.6-0.6l-0.9,1.6l-0.7-0.4l-1,3.1l-0.7-5.9l-0.2-0.7l-1.2-0.1H271
	l-0.5-1.6l-0.6-1.3l-0.7,0.4h-2l-0.6-0.6l-1-1l-0.4-3.4l-0.6-0.4h-1.7l-0.5-2.1l-0.2-1.7l-0.9,0.9l-0.5-9.5h-1.1l-0.6,1.2l-1.1-1.1
	l-0.9-3l-0.3-0.8h-1.5l-1.1-1.1l-0.5-1.9l-0.8-17.4h1.2l-0.4,15H251l-1-3.8l-0.4-13.2h1.2l-0.5,4.7h-3.5l-0.1,0.7L246,90.6h-0.9
	L244,72.3h-0.5l-0.4,9.4l-1.9,7.6L240.6,73h1.2l-0.9,14.6h-2.2l-0.6,6.9l-0.5,2.2h-2.7l-0.9-6.3l-0.4-4.9l-1,0.1h-0.8l-0.2,5.2
	l-0.8,4.9l-0.4,7l-0.9,4.2H228l-1.1-1.1l-0.4-2.2l-0.8-2.9l-0.4-2.1l-0.4-1.6l-0.7-1.6l-1.4-1.5l-0.3-0.7l-0.8-0.4l-0.5-1l-0.2-0.5
	h-1l-0.5-1l-0.7,0.4l-0.7,0.7l-0.4,1.6l-0.9,1.3l-0.4,0.8l-0.5,0.9l-0.8,0.8l-0.4,1.2l-0.9,1.4l-0.6,0.6h-0.4l-0.6,0.6l-0.5,0.9
	l-0.9,0.5l-0.8,0.8l-0.8,0.8l-0.5,1.1H208l-0.2,0.5l-0.5,0.9l-0.8,0.8l-0.5,0.9l-0.9,0.5l-1.2,1.2l-0.6,0.6h-1.2l-1.1,0.7l-0.9,0.9
	h-0.8l-1.3,0.8h-0.6L196,113l-0.5-0.5h-6.7l-1.1,0.4H175l-0.4,0.4h-1.7l-0.4-0.4h-7.8l-0.4-0.4l-0.7,0.4h-2l-0.8-0.4l-0.6,0.5
	l-1.1-0.5h-1.5l-1.4,0.5l-0.5-0.5h-1l-1.1,0.4H152l-0.4-0.4l-1.1,0.5l-0.5-0.5h-0.8l-0.4-0.4h-1.2l-0.6-0.6l-0.6-0.6h-1.9l-0.8-0.4
	h-1.3l-0.6-0.6l-1.2-0.8l-0.9-0.3h-2.2l-1-0.5l-0.7-0.3l-0.8-0.8h-1.2l-0.6-0.6l-1.2-0.8l-1.3-0.3l-0.6-1.2l-0.3-0.6l-0.8-0.4
	l-0.3-0.7H128l-0.5-0.5l-0.8-0.4l-0.5-0.3H125l-0.4-0.8h-0.7l-0.6-0.6l-1.1-0.2l-0.5-0.5l-0.7,0.9l-0.8-0.8h-0.9l-0.5-1l-0.7-0.4
	l-0.5,0.4l-0.7-0.7l-0.3,0.6l-1.2-0.6h-0.6l-0.5-1.1l-0.8-0.8l-0.4-0.8l-0.8-0.8l-0.5-0.9l-0.3-0.6l-0.7,0.3l-0.8-0.4l-1.7,0.9
	l-0.6-1.8l-1.3-1.7l-0.3-0.9h-0.9l-0.5-2.5l-0.3-1l-0.8-0.4l-0.4-1.1H102l-0.7-0.7l-0.2-0.7l-0.7,0.4l-0.6-1.2l-0.5,0.2h-1.7
	l-0.5-0.5l-0.6-0.3L96,82.4l-1.6-0.8l-0.5-0.9l-1.1,0.4l-0.7-2.7l-0.8-2.1L91,75.1h-0.6l-0.6-0.6L89,73.3l0.1,1.5h-1l-0.5,0.5
	L86.9,75l-0.5,2l-0.9,0.9l-0.3,0.7l-0.8,3.6l-0.4,2l-0.4,2.5l-0.8,2.9l-0.4,2.1l-0.8,2.9l-0.4,2l-0.4,1.7L80,99.9l-0.4,2.1l-0.8,1.7
	l-0.4,1.6l-0.4,1.3l-0.8,1.2l-0.4,1.3l-0.9,0.9l-0.4,0.8l-0.6,0.6l-0.8,0.4l-0.4,0.4l-1.5,0.7l-0.5-1h-0.4l-0.6,0.4h-1.5l-0.8,1.2
	H51.6V113z"/>
<text transform="matrix(1 0 0 1 35.4414 113.848)" class="st2 st11">0</text>
<text transform="matrix(1 0 0 1 35.4414 105.6146)" class="st2 st11">2</text>
<text transform="matrix(1 0 0 1 35.4414 97.3802)" class="st2 st11">4</text>
<text transform="matrix(1 0 0 1 35.4414 88.7337)" class="st2 st11">6</text>
<text transform="matrix(1 0 0 1 35.4414 80.5003)" class="st2 st11">8</text>
<text transform="matrix(1 0 0 1 33.5645 72.2659)" class="st2 st11">10</text>
<text transform="matrix(1 0 0 1 33.5645 64.0316)" class="st2 st11">12</text>
<text transform="matrix(1 0 0 1 33.5645 55.7982)" class="st2 st11">14</text>
<text transform="matrix(1 0 0 1 33.5645 47.1517)" class="st2 st11">16</text>
<text transform="matrix(1 0 0 1 33.5645 38.9173)" class="st2 st11">18</text>
<text transform="matrix(1 0 0 1 33.5645 30.6839)" class="st2 st11">20</text>
</svg>
