<svg xmlns="http://www.w3.org/2000/svg" viewBox="0 0 1255.55 456.45"><defs><style>.cls-1,.cls-20,.cls-21{fill:none;stroke:#a6a8ab;stroke-miterlimit:10;}.cls-1{stroke-width:1.42px;}.cls-2{fill:#313e59;}.cls-20,.cls-3,.cls-4{isolation:isolate;}.cls-4{font-size:14.31px;fill:#606060;font-family:IBMPlexSans, IBM Plex Sans;}.cls-5{letter-spacing:0em;}.cls-6{fill:#a4a4a4;}.cls-7{letter-spacing:0em;}.cls-8{fill:#90bbe7;}.cls-9{letter-spacing:-0.01em;}.cls-10{fill:#808184;}.cls-11{letter-spacing:-0.01em;}.cls-12{fill:#231f20;}.cls-13{letter-spacing:-0.01em;}.cls-14{fill:#d0d2d3;}.cls-15{letter-spacing:-0.01em;}.cls-16{letter-spacing:-0.01em;}.cls-17{letter-spacing:0em;}.cls-18{fill:#222b3e;}.cls-19{letter-spacing:0em;}.cls-20,.cls-21{stroke-width:0.9px;}.cls-20{opacity:0.32;}</style></defs><g id="Layer_2" data-name="Layer 2"><g id="Layer_1-2" data-name="Layer 1"><g id="Group_43" data-name="Group 43"><rect id="Rectangle_175" data-name="Rectangle 175" class="cls-1" x="0.71" y="0.71" width="1254.13" height="455.03"/><g id="Group_16" data-name="Group 16"><g id="Group_9" data-name="Group 9"><rect id="Rectangle_176" data-name="Rectangle 176" class="cls-2" x="552.43" y="36.45" width="9.76" height="9.76"/><g id="Balkans" class="cls-3"><text class="cls-4" transform="translate(565.6 46.21)">Bal<tspan class="cls-5" x="20.88" y="0">k</tspan><tspan x="28.36" y="0">ans</tspan></text></g></g><g id="Group_10" data-name="Group 10"><rect id="Rectangle_177" data-name="Rectangle 177" class="cls-6" x="716.22" y="36.45" width="9.76" height="9.76"/><g id="Baltic" class="cls-3"><text class="cls-4" transform="translate(729.51 46.21)">Ba<tspan class="cls-5" x="16.99" y="0">l</tspan><tspan class="cls-7" x="20.81" y="0">tic</tspan></text></g></g><g id="Group_11" data-name="Group 11"><rect id="Rectangle_178" data-name="Rectangle 178" class="cls-8" x="636.56" y="36.45" width="9.76" height="9.76"/><g id="Greece" class="cls-3"><text class="cls-4" transform="translate(650.37 46.21)">G<tspan class="cls-5" x="9.95" y="0">r</tspan><tspan x="15.13" y="0">ee</tspan><tspan class="cls-9" x="30.85" y="0">c</tspan><tspan x="37.96" y="0">e</tspan></text></g></g><g id="Group_12" data-name="Group 12"><rect id="Rectangle_179" data-name="Rectangle 179" class="cls-10" x="904.63" y="36.45" width="9.76" height="9.76"/><g id="Sweden" class="cls-3"><text class="cls-4" transform="translate(918.31 46.21)">S<tspan class="cls-11" x="8.32" y="0">w</tspan><tspan x="19.24" y="0">eden</tspan></text></g></g><g id="Group_13" data-name="Group 13"><rect id="Rectangle_180" data-name="Rectangle 180" class="cls-12" x="786.34" y="36.45" width="9.76" height="9.76"/><g id="Scandinavian" class="cls-3"><text class="cls-4" transform="translate(799.93 46.21)">Scandin<tspan class="cls-13" x="51.3" y="0">a</tspan><tspan x="58.83" y="0">vian</tspan></text></g></g><g id="Group_14" data-name="Group 14"><rect id="Rectangle_181" data-name="Rectangle 181" class="cls-14" x="285.78" y="36.45" width="9.76" height="9.76"/><g id="Western_Europe" data-name="Western Europe" class="cls-3"><text class="cls-4" transform="translate(299.76 46.21)"><tspan class="cls-15">W</tspan><tspan x="12.54" y="0">e</tspan><tspan class="cls-16" x="20.4" y="0">s</tspan><tspan class="cls-17" x="27.27" y="0">t</tspan><tspan x="32.23" y="0">ern Eu</tspan><tspan class="cls-5" x="73.33" y="0">r</tspan><tspan x="78.51" y="0">ope</tspan></text></g></g><g id="Group_15" data-name="Group 15"><rect id="Rectangle_182" data-name="Rectangle 182" class="cls-18" x="422.95" y="36.45" width="9.76" height="9.76"/><g id="Central_Europe" data-name="Central Europe" class="cls-3"><text class="cls-4" transform="translate(436.78 46.21)">Cent<tspan class="cls-17" x="29.9" y="0">r</tspan><tspan class="cls-19" x="35.1" y="0">al Eu</tspan><tspan class="cls-5" x="66.49" y="0">r</tspan><tspan class="cls-19" x="71.67" y="0">ope</tspan></text></g></g></g><g id="_25_1_20" data-name=" 25 1 20" class="cls-3"><text class="cls-4" transform="translate(117.06 419.83)">25/1/20</text></g><g id="_25_2_20" data-name=" 25 2 20" class="cls-3"><text class="cls-4" transform="translate(178.42 419.83)">25/2/20</text></g><g id="_25_3_20" data-name=" 25 3 20" class="cls-3"><text class="cls-4" transform="translate(239.77 419.83)">25/3/20</text></g><g id="_25_4_20" data-name=" 25 4 20" class="cls-3"><text class="cls-4" transform="translate(301.13 419.83)">25/4/20</text></g><g id="_25_5_20" data-name=" 25 5 20" class="cls-3"><text class="cls-4" transform="translate(362.48 419.83)">25/5/20</text></g><g id="_25_6_20" data-name=" 25 6 20" class="cls-3"><text class="cls-4" transform="translate(423.84 419.83)">25/6/20</text></g><g id="_25_7_20" data-name=" 25 7 20" class="cls-3"><text class="cls-4" transform="translate(485.19 419.83)">25/7/20</text></g><g id="_25_8_20" data-name=" 25 8 20" class="cls-3"><text class="cls-4" transform="translate(546.55 419.83)">25/8/20</text></g><g id="_25_9_20" data-name=" 25 9 20" class="cls-3"><text class="cls-4" transform="translate(607.9 419.83)">25/9/20</text></g><g id="_25_10_20" data-name=" 25 10 20" class="cls-3"><text class="cls-4" transform="translate(664.96 419.83)">25/10/20</text></g><g id="_25_11_20" data-name=" 25 11 20" class="cls-3"><text class="cls-4" transform="translate(726.32 419.83)">25/11/20</text></g><g id="_25_12_20" data-name=" 25 12 20" class="cls-3"><text class="cls-4" transform="translate(787.68 419.83)">25/12/20</text></g><g id="_25_1_21" data-name=" 25 1 21" class="cls-3"><text class="cls-4" transform="translate(853.33 419.83)">25/1/21</text></g><g id="_25_2_21" data-name=" 25 2 21" class="cls-3"><text class="cls-4" transform="translate(914.68 419.83)">25/2/21</text></g><g id="_25_3_21" data-name=" 25 3 21" class="cls-3"><text class="cls-4" transform="translate(976.04 419.83)">25/3/21</text></g><g id="_25_4_21" data-name=" 25 4 21" class="cls-3"><text class="cls-4" transform="translate(1037.39 419.83)">25/4/21</text></g><g id="_25_5_21" data-name=" 25 5 21" class="cls-3"><text class="cls-4" transform="translate(1098.75 419.83)">25/5/21</text></g><g id="Group_17" data-name="Group 17"><path id="Path_7" data-name="Path 7" class="cls-20" d="M142.62,104.38h995.07M142.62,133.1h995.07M142.62,161.81h995.07M142.62,190.53h995.07M142.62,220.69h995.07M142.62,249.41h995.07M142.62,278.12h995.07M142.62,306.84h995.07M142.62,335.56h995.07M142.62,365.71h995.07"/></g><g id="Group_18" data-name="Group 18"><line id="Line_2" data-name="Line 2" class="cls-21" x1="142.62" y1="394.43" x2="142.62" y2="104.38"/></g><g id="Group_19" data-name="Group 19"><line id="Line_3" data-name="Line 3" class="cls-21" x1="142.62" y1="394.43" x2="1137.69" y2="394.43"/></g><g id="Group_20" data-name="Group 20"><path id="Path_8" data-name="Path 8" class="cls-21" d="M1123.33,394.43v4.3m-60.31-4.3v4.3m-63.18-4.3v4.3m-56-4.3v4.3m-63.18-4.3v4.3m-61.74-4.3v4.3m-60.31-4.3v4.3m-63.18-4.3v4.3m-60.3-4.3v4.3M572,394.43v4.3m-61.75-4.3v4.3m-61.74-4.3v4.3m-61.74-4.3v4.3m-60.31-4.3v4.3m-63.18-4.3v4.3m-58.87-4.3v4.3m-61.74-4.3v4.3"/></g><path id="Path_9" data-name="Path 9" class="cls-14" d="M157,395.14h68.08l1.44-7.17,3.13,1.22,1.8,5.42,3.48-5.21h1.57l1.56-4.71,2.78-4.16,4.27-1.18,1.55-4.64L251,367.4l1.15-4.59,2.48,2.48,2.11-2.11,2.46-16,.51,1.53,1.78,3.56,2.78-1.38,1.43,4.3,3.83-1.91,2.21,6.82,3.69-12.93,1.43-7.14,2.87-7.16,1.46-5.83,1.43-10,2.84-9.94,1-1.92,2.68,2.67,1.94-1.94,3.28-2.32,1.29,6.47,3.54,3.54,1.43-1.44,3.72,3.72,1.71,3.41,3.82-1.92,1.24-6.2,3.28,3.27,1.83,3.66,3.58-3.57,3.17-1.23L324.3,323l1.81,1.82h3.47l3.4,5.43,2.82,8.56,2.88,2.89,1.42,5.67,2.92,4.37,1.61,3.23h1.44l2.73,5.45,1.6,1.6,2.76,1.38,1.38,2.76,1.52,1.52,2.87,2.87,1.65,1.65h2.87l2.87,2.87h7.48l2.45,1.31,3.12,1.56h1.44l2.87,1.44,4.09,4.31h1.53l1.43,1.43h2.87l1.44,1.44h2.87l1.73,1.73,1.74-1.73h6.71l2.74,1.43H418l1.44,1.44h16.26l3.13-1.56,2.45-1.31h2.87L448.3,388h1.43l2.62,1.31,1.56,1.57h34.46l1.59,1.59,3.19-1.59h5.27l1.59,1.59,3.19-1.59,2.4,1.43h42.23l1.44-1.43H563l1.6,1.59L567.5,391l3,1.28h47.68l1.44-1.43h8.61l1.44-1.44h18.67l1.43-1.44h12.93l1.56-1.56,2.62-1.31h1.56l1.56-1.56,2.62-1.31h1.56l2.87-2.87,2.44,1.59,3.18-1.59h4.44l1.64-1.65,4.42-2.88,1.47-5.87,2.73-2.73,1.43-1.44L703,362l1.52-1.52,2.66-2.66h1.65l1.51-4.52,2.14-1.07L714.3,354l3.31-6.64,1.39-2.77,2-2,1.23,3.7h2.25l3.16-3.17L729,340.4l2.88-1.44,1.49-3,4-4,4.63-1.66,1.5-6,1.29-2.59,2.51-1.25h1.56l2.87-2.87h1.44l4.53.34,1.44-7.17,1.92,1,1.86,1.86,1.86-1.86,2.31-1.15,3.77,3.77,1.6,11.23,2.24-2.24H777l1.59,1.6,3.18-1.6,3.72,1.31,2.87,2.87,3.62,1.81,1.56-3.11h4.3l1.64-3.27,2.87-5.75,1.38-2.76,2.79-2.79,1.52-1.52,1.38-2.76,2.87-1.44,1.23-2.44,2.87,1.43.89-1.78,1,3.89,2.87,8.62,1.48,5.91,4,4,1.7-8.48,1-4.15,2.45,3.68,1.69-1.69,2.2,1.1,2.49,5,1.58-20.59h1.91l1.84,1.85,3.43-5.14,1.44-5.75,2.88-4.33.58-3.45,1,10,3.34-1.67,1.58,1.58,3.54-3.54,1.47-8.85,1.44-10L867,259.63l1.22-4.87,2.87,1.43,1.65-6.58.69-2.08,2.28,8,4.34,19h1.75l3.91,8.09L887.43,293l3.06-4.6,1.94,5.8,1.78-12.45h2.54l3.38-.23,1.38,6.93,1.5,3,2.83,4.24,1.42,5.67,2.86,7.16,1.44,7.18,3.08,7.7h1.62l3.94,3.93,1.87,11.24,3-9,1.3,5.24,2.1-4.21h1.82l1.38,8.24,3.74,3.74,1-2,1.27,5.09,2.95-2.95,1.16,3.49,3,1.52,2.25,2.25,1.35-5.4,1.94,2.92,1.4,2.78,3,9.06h2.47l1.5-4.51,2-1,1.31,2.63h3l1.93,1.93,1.43-2.87,2,2,1.43,5.75,3.23,3.22H977l3.12-1.56,2.45-1.31h4.48l2.87-1.44h2.4l2.66,2.66,2,2,3.53-3.54,1.46-7.3.95-1.9,2.67,2.68,1.73-1.73h3l1-2,.77,1.54,2.88,8.62,1.65,3.31h3.62l1.73-1.73,1.28-2.57h2.14l1.73,1.73,3.38-3.38,2.06.21h2.73l1.56,3.12,3.62-1.81,3.58,1.56h1.74l4.72,1.73,1.33-4,2.05,2,1.65,1.65h1.9l2.56-1.28,4.28,2.71h5.91l4.14,1.44h1.6l4.14,1.43h4.18l2.87,2.88h3.17l3.92,4.3h1.53l1.43,1.44h3.17l4.14,1.44h4.18l1.44,1.43h1.56l2.87,1.44h5.91l4.14,1.43h4.48l2.57,1.44h4.6v1.44H1131l-1.43-1.44h-5.36l-2.88-1.44h-7.17l-2.88-1.43h-1.82l-1.43-1.44h-3.93l-2.87-1.43h-4.69l-1.43-1.44h-1.7l-2.88-4.31h-4l-2.07-2.06-2.78-.81h-2l-2.87-1.44H1074l-2.87-1.43h-7.18l-3.64-1.82-2.53.38h-2.83l-2.07-2.06-1.53,2.95-4.63-2.32h-3.26l-2-2-5.27,2.71-1.8-3.6H1032l-4.85,3.76-2.33-2.33-1.64,2-2.31,2.31h-5.1l-2.1-4.2-2.88-8.62-2.85,1.33-2.33,2.33-2.28-2.28-1.48,7.47L997,368.75l-3-3-2.25-2.24h-1.47L987.42,365h-4.81L981,366l-3.64,1.82h-2.84l-3.92-3.93-1.44-5.74-1.77,2.53-2.92-2.91h-3.31l-1.06-2.14-1.8,5h-4.54l-3.31-9.94-1.31-2.62-1.27,4.57L944,348.81l-3.36-1.68-.61-1.85-3.1,3.1L936,344.6l-5.64-5.14-1.25-7.5-3.16,6.89-1.06-4.22-3.27,9.83L918.85,328l-2.38-2.38-2.81-.81-3.49-8.72-1.43-7.17-2.85-7.14-1.39-5.52-2.73-4.11-1.63-3.25-1.29-6.43-1.51.7h-1.9L893,300.38l-2.93-8.79-3.45,5.18L884.31,283l-2.62-6.55-2.86-.5-3.06-18.35-2.45-5.23.79-2.38L872,258.27l-2.87-1.44-.79,3.14-2.84,11.38-1.42,10-1.56,9.32-4.88,4.88-1.86-1.86-4.28,2.14,1-8.26-2.92,4.38-1.44,5.75-4.53,6.8L841,301.81l-1.86,24.43-4.59-9.19-3,1.78-1.63-2.45-2.46,12.05-6.14-6.14-1.56-6.24-2.87-8.62-2.71-2-.79,1.59-2.88,1.44L809.19,311l-1.68,1.68-2.62,2.63-1.28,2.56-2.88,5.74-2,4.06h-4.3l-1.8,3.61-5.12-2.56L785.8,327l-3.29-2.24-4.23,1.9-1.9-1.9-4.93,3.85-2-13.6-2.36-2.36-1.51.24-2.71,2.72-2.71-2.72-1.48,7.16-4-2-2.41,1-2.87,2.88h-1.82l-1.77.88-1,2-1.62,6.48L739,333.4l-3.3,2.24L732.93,340l-2.87,1.44L728.79,344,725,347.76h-3.88l-.82-2.47L718.9,348l-4.21,8.41L712.24,354l-2.33,5.28h-2.1l-2.25,2.24-1.68,1.68L701,364.61l-2.62,2.62-2.45,2.45-1.54,6.13L691,377.53l-3.26,3.26h-3.76l-4.73,1.9-1.9-1.9-2.53,2.87H673l-2.1,1L669,386.53h-1.82l-2.1,1.05-1.82,1.82H650.37l-1.43,1.44H630.27l-1.43,1.43h-8.62l-1.43,1.44h-50.6l-3.84.47-1.9-1.9h-12l-2,1.43H505l-1.43-1.43-3.84,1.9-1.9-1.9h-3.42l-4.73,1.9-1.9-1.9H453.31l-1.82-1.82-2.1-1.06H448L445.09,388h-3.8l-1.6,1-3.64,1.82h-17.2l-1.44-1.44h-7.18L408.8,388l-3-1L402,388l-2.32,2.33L397.31,388h-2.87L393,386.53h-2.87l-1.43-1.43H387l-2.87-4.31-3.67-1.44H379l-3.64-1.82-1.6-1h-8.07l-2.06-2.07-3.68-.8-2.07-2.06L355,368.68,353.36,367l-1.27-2.54-2.54-1.27-1.93-1.93-2.44-4.87h-1.43l-2-3.95-3-4.5-1.38-5.53-2.92-2.91L333,332.31l-3.11-5.85-4.41-.24-2.58-2.57-1.27-8.92-5.9,5.79-2.62-5.23-2.62-2.62.55,5.67-5.74,2.87-2.24-4.48-2.62-2.63-1.35,1.53-4.86-4.86-1-5-4.19,4.17-2.28-2.28L284,317.34l-1.43,10-1.5,6-2.86,7.13-1.41,7.08-5.34,18.67-1.94-9.73,1.05-2.1-5.74,2.87L263.4,353l-2.57,1.29-2.47-4.94,1.33,4-1.62,10.56-3.46,3.45-1.7-1.7-.57,2.28-3.14,6.27-3.09,6.62h-3.53l-3.25,4.55-1.83,5.5h-1.84l-4.67,7-2.55-7.63-1.62-.81-.6,7.18H157Z"/><path id="Path_10" data-name="Path 10" class="cls-18" d="M231.64,395.14h29l1.43-1.43h14.24l2.87-1.44h2.87l2.87-1.43h4.43l1.65-1.65,4.1-1.22,1.44-1.44h4.3l4.16.16,1.59-1.6H329l1.43,1.44h8.92l4.13,1.44h16l4.14,1.43H373.8l2.57,1.44H393.9l4.14,1.43h70.23l1.43,1.44h73.83l1.44-1.44h2.27l1.44,1.44h12l2.87-1.44h14.19l4.14,1.44h10.52l1.44-1.44h20.1l1.43-1.43h2.87l1.44-1.44h4.31l1.43-1.43h7.18l1.44-1.44h4.31l1.56-1.56,2.62-1.31h5.87l1.56-1.57,2.62-1.3H657l1.73-1.73,1.38-2.76,2.76-1.39,4.45-1.3,1.52-6.1,3.8.51,1.8-1.8,3-3,1.44-2.87,4.25-2.76,1.53-3.05,2.91-4.37,1.45-5.79,1.4-2.8,2.91-5.81,1.42-5.7,2.86-4.29,1.46-4.39,1.4-4.22,2.85-4.27L704.7,310l2.89-7.23,1.45-4.35,1.41-5.65,2.86-4.29,1.46-4.38,2.9-7.24,1.42-10,2.86-4.29,1.45-7.23,1.19-2.39h2.95l1.5-4.51,2.82-1.41,1.35-2.69,4,1.59,1.72-1.72,2.3-1.15,2.43,5.38,3,1.51,1.86,1.87,2.87-2.88,2.87,1.14h3.17l4.49.33,1.6-6.42,4.17-4.17,4.24-1.22,1.64-3.27L775,232.6l2.09-2.09,1.1,2.2,2.87,1.44,1.38,2.76,3,3,1.44,1.43,4.26,5.7,1.57,1.56,3.77,1.89,1.35-5.38,4.36.75,1.63-3.27,2.9-5.79,1.47-4.41,1.28-7.71,2.75,1.37,1.53-4.6h1.91l1.22,2.43,1.4,4.21,2.85,15.71,1.45,17.38,3.46,5.19,2.21-2.21,1.44-7.18,2.87-2.87,1.36-6.81h2.87l1.56-7.8,1.43-15.7,2.36-4.73,3.49,4.89,2.29,4.57,3.32-13.29,1.71,7,3.36-3.35,1.63,1.63,3.34-6.68,1.08-3.26,3.32,4.7,1.52,7.62H871l.77-1.53,1,4.05,3,3,1.94,2,2.43-2.43,1.7,8.51,2-6.09,2,1,4.35,5.87,3.25,3.76,2.46-4.91,1.18,9.52,4,2,1.53-4.6,3.79-2.58,1.44,1.44,3.5-3.5,1.4-4.19,2.82-1.41,1.49-3,3.55.29h4.18l2.66,2.66,3.08,3.08h1.9l2.87-1.43h1.57l1.56-1.57,2.62-1.3h4.58l1.66-3.32,1.44-4.33,2.87-7.18,1.39-4.17,2.9-2.89,1.46-5.86,1.35-2.7,2-2,1.53,4.6,3.71-5.57,1.49-3,1.41-5.63,2.88-2.88,1.44-7.18,2.87-2.87,1.22-6.08,2.13,2.13,2.58,4.1,2.93,1.47,1.77,3.55,3.58-3.58,2.53-1.23,3.32-1.66,1.47-5.87,2.81-2.81,1.29-2.58,3.57,2.87h1.56l2.62,1.31,2.3,2.3,1.58-7.92h2.73l1.52-3,2.51-1.26h1.56l3.69,24.06,2.41-7.22,2.84-4.27,1.48-3,1.29-3.86h2.87l1.62-4.86,2.25-16.86.66,4,2.88,7.19,1.42,7.14,1.47,5.88,2.89,4.33,1.42,4.26,2.85,5.7,1.42,8.53,1.46,5.82,2.88,7.2,1.48,4.45,2.84,2.84,1.39,7,1.46,7.28,2.89,5.78,1.44,4.31,2.87,5.74,1.4,4.22,1.46,7.27,2.86,4.3,1.42,8.52,2.89,8.67,1.44,4.31,1.49,4.47,3,3,1.52,1.52,3.13,1.56,2.39,3.91,2.85,4.28,1.43,5.7,2.9,5.82,1.43,2.84,2.85,7.14,1.43,4.28,1.44,4.33,2.86,7.15,1.45,5.78,2.88,5.77,1.44,4.3,1.47,3,2.88,4.31,1.43,2.87,3.11,4.66,2.72,2.69,3.55,1.78,1.8-1.8-1.52,3.55-4.9-2.45-1.16-2.33-4.84-5.38-1.44-2.87-2.87-4.31-1.56-3.12L1117,345l-2.91-5.82-1.46-5.83-2.84-7.1-1.45-4.37-1.42-4.25-2.81-7-1.4-2.79-3-6-1.4-5.61L1095.5,292l-1-3.11-4-1.82-1.67-1.69-3.23-3.23-1.6-4.79-1.43-4.31-2.93-8.78L1078.2,256l-2.86-4.28-1.49-7.47-1.34-4-2.88-5.74-1.43-4.31-2.93-5.87-1.5-7.46-1.31-6.54-2.77-2.77-1.57-4.73-2.9-7.25-1.49-6-1.4-8.38-2.8-5.6-1.4-4.17-2.92-4.38-1.53-6.16-1.41-7-2.89-7.22.89,5.33-1,7.5-2,6h-2.87l-1,3-1.56,3.13-2.78,4.18-4.34,13-3.5-28-2.55-.16L1017,164h-2.44l-1.88,9.4-4-4-2.1-1h-1.82l-2.87-2.87-.21,2-2.7,2.7-1.53,6.13-4.22,2.11-1.85.8-5,5-2.45-4.9-3-1.52L979.63,174l-2.21,3.22-2.87,2.87-1.44,7.18-2.91,2.91-1.35,5.39-1.6,3.2-5.39,8.09-1.72-5.18-1.34,2.51-1.52,6.09-2.93,2.93-1.3,3.89-2.87,7.18-1.47,4.39-2.1,4.2h-4.2l-3,1.05-1.82,1.82h-1.82l-2.87,1.44H930l-3.5-3.5-1.44-1.44-2.78-.8h-2l-1.94-1-1.69,3.3L914,235.14l-1.32,4L908,243.84l-1.44-1.43-2,2-2.51,5.2-6.12-3.07-.7-5.57-1.62,3.24-2.76-5.54-4.65-5.09L881.59,242l-2.24-11.18-1.55,1.54-3-2.95-3.29-3.3.4-1.82h-6l-1.7-8.49L861.76,212l.8,2.33-4.28,8.55-2-2-4.3,4.31-1-6.22,1.63-3.26-4.22,16.91-4-8-2.68-4-.53,3.53-1.41,15.5-1.8,9h-2.87l-1.22,6.09L831,257.65l-1.44,7.18-3.75,3.75-4.64-6.95L819.66,244l-2.83-15.55-1.34-4-.77-1.55L813,228l-2.48-1.24-1,5.9L808,237.3l-2.94,5.89-2,4.06h-5.09l-.54,5.28-5.59-2.79L790,247.9l-2.88-4.31-2.72-2.72-3.12-3.12L780,235.21l-2.87-1.43L774.9,236l-2,4.06h-3.31l-3.68,3.68-3,8.78L759,250.59l-4.73,1H752l-3.41,2.32-2.71-2.71-3.36-1.68-1.56-4.67-3.43,2.89-3.8-1.9-.76,2.33-2.72,1.36-1.64,4.93h-3.09l-2.18,8.74-2.84,4.25-1.4,9.83-2.94,7.36-1.51,4.52-2.82,4.24-1.37,5.46L709,303.27,706,310.6l-1.53,3.07-2.79,4.18-1.35,4-1.52,4.58L696,330.7l-1.4,5.61-3,6-1.33,2.66-1.46,5.87-3,4.51-1.7,3.39-3.2,1.6-2.38,3.82-3.12,3.12-2.53,2.53L670,368.33l-1.61,6.72h-3.66l-3.6,2.32-1.27,2.54-2.31,2.31H653.8l-3,1.06L649,385.1h-5.2l-3,1L638.9,388h-3.76l-2,1.43H626l-1.44,1.44h-4.31l-1.43,1.44h-2.87l-1.44,1.43H594.92l-2,1.44H581.49l-2.87-1.44H564.77l-3.8,1.44H548.08l-1.43-1.44-2.53,1.44h-75l-1.44-1.44h-70l-2.87-1.43H375.77l-1.43-1.44h-11.1l-2.87-1.44h-11.5l-1.93-1-3.81,1L340.26,388H329.83l-1.44-1.44H307.2l-1.9,1.9L302.43,387l-3.3,1h-2l-1.44,1.43h-2.87L290,392.27h-3.76l-3.8,1.44h-2l-3.8,1.43h-14l-1.44,1.44H231.64Z"/><path id="Path_11" data-name="Path 11" class="cls-8" d="M224.46,395.14h17.4l2.88-1.43h11.48l2.87-1.44h7.18l2.88-1.43H275l1.43-1.44h8.62l1.44-1.43h8.31L299,389.4h1.61l4.13,1.44h4.48l2.58,1.43h7.77l1.44-1.43h4.3l1.44-1.44H329l1.43,1.44h2.87l1.74,1.73,1.58-1.58,2.56,1.28h9.92l1.44,1.44h16.26l2.87-1.44h9.88l4.14,1.44h44.68l2.57,1.43h3.47l1.44-1.43h16.63l1.44,1.43h49.42l1.43-1.43h14.06l4.45,1.59,1.59-1.59h24.41l1.44-1.44h8.62l1.43-1.43H563l1.43,1.43H578l1.44-1.43H588l1.44-1.44h2.28l1.43,1.44h26.32l2.87-1.44h2.87l2.87-1.43h4.44l1.43-1.44h8l1.44,1.44h3.17l2.57,1.43H657L658.4,388h8l1.93,1.93,1.56-3.13,2.7,1.35,1.59-1.59h2.87l1.64-1.65,3.66-2.5,1.44,1.43,3.18-1.59h9.88l2.73,1.59,3.19-1.59h3.84l1.73,1.73,1.58-1.57,2.56,1.28h1.77l3.13-1.57,1.52-1.52,2.87-2.87,1.58-1.57,1.45-5.82L727.7,366l1.45-7.23,2.85-5.7,1.45-4.35,1.41-4.22,2.78-4.17,1.49-1.49,2.91-7.29,1.45-2.89,1.4-4.19,2.75-2.75,1.54-1.54,3-7.41,1.44-13,1.4-7,2.88-4.31,1.44-7.22,2.87-5.74,1.45-7.26,1.39-5.54,2.22-2.22,4.75,1.14,1.44-2.87h3.86l3.93,4.31h2l2.38-1.2,1.56,3.13,1.63-1.64,2.57,2.58,4,5.34,1.4,2.8,1.55,6.21h3l1.44,2.88h3l2.66,2.66,3.7,3.69,1.43-4.31,1.93,1.93,1.39,4.15,1.43,4.31,2.89,8.66,1.51,3,2.84,2.84,1.38,4.14,1.53,4.59,3,1.52,4.23,4.23,1.64,1.64,4,5.45,1.6,1.6,3.12,1.57h1.44l2.87,1.43,2.51,2.69,2.82,1.41,1.4,4.19,2.91,2.91,1.38,2.77,1.54,3.08,2.82,1.41,1.6,4.81,3.46-1.73,2.28,1.31,3.44,1.72,1.44-1.44,2.87,1.44,2.43-.16h2.87l1.44,1.44h2.72l1.29,2.58,1.89,1.88,3.44-1.72,4,.29,2.73.14,3.38-3.38,3.63.21,4.18,2.87h10.64l1.44-1.43h4.31l1.43-1.44h4l4.63,1.68,1.7-3.41,2.58-2.58H947l1.56-1.56,3-1.49,1.44-2.87,2.19-1.1,3.19,1.28,2.87-1.44h1.43l3.24-1.62,1.54-3.08,1.42-2.84,2.63-3.95,4.56-3.2,1.39-4.18,2.45-1.23h1.57l1.65-1.65L986,326l4.24-1.22,1.58-3.17,4,2.34,1.55-4.62,2.77,1.38,1.7-3.41,3.92,2.23,1.77-3.55,2.51-1.26h1.78l1.51-4.51,2.82-1.41,1.52-3.05,2.36-3.54,1.64,1.64,1.75-5.25,2.75-2.75,3.94.36,1.8-1.8,3.32-2.33,1.44,5.74,3.78-1.89,1.43-1.43L1045,293l1.5-6,1.08-2.16,2.88,1.43,1.55-3.11h2.14l1.73,1.73,3.66,3.61,2,4,3.08-4.61,2.76,1h2.35l1.44,4.31h3.09l2.49,3.84,3.74,15,1.81-12.7,2.79,1.39,1.63-6.53,1.08-2.16,2.38,1.19h2.15l2-7,1.06,10.67,1.47,5.87,2.89,5.77,1.51,4.54,2.84,1.42,1.49,6h5.17l3.71,1.44h4.31l2.63,4.12,3,1.49,4.14,4.15,1.38,2.76,1.55,3.09,3,1.49.33,2.37-4.39-2.79-1.75-3.52-1.28-2.55-2.63-2.63-4.39-2.79-1.6-3.2-2.53-.56h-2.33l-2-2-2.87.55h-4.56l-1.6-6.42-2.78-1.39-1.67-5-2.91-5.82-1.53-6.12-.33-3.31-3.8.78-1.76,0-2,8.12-2.6-1.3-2.57,18-5.48-21.93-1.18-2.35-4.09-.56-1.43-4.3H1065l-3.68,5-3.1-6.19-1.54-3.08-3.17-1.48-2.45,3.61-2.87-1.44-2,7.21-3.44,1.73-1.44,1.43-5.59,2.79-1.43-5.74-3.88,3.8-2.87-1.43-2.85,2.85-2.38,7.13-2-2-1.34,2-1.7,3.39-2.72,1.36-1.64,4.93h-2.48l-1.78.89-2.45,4.9-3.46-3.46-1.91,4.15-2.58-1.29-1.75,5.26-3.81-3.82-1.54,3.42h-3.31l-3.68,3.68L982.06,332h-1.82l-1.62.81-1.31,4-3.86,3.86-3.34,3.24-1.37,2.75L967,350.08l-4,2h-1.43l-2.88,1.43h-2.83l-1.81-.55-1.43,2.87-3.2,1.61-1.82,1.81h-1.44l-2,2-2.24,4.48-4.35-2.17h-4.34L931.82,365h-3.77l-2,1.43H914.24l-2.88-2.87-3-1-4.73,4.74-1.43-1.44-3.89-.43-5.15,2.88-2.79-2.78-1-2H887l-1.43-1.43h-2.88l-1.55.46-2.87-1.43-1.44,1.43-4.57-2.28-5.73,1.26-1.94-5.81-2.71-1.36-1.76-3.52-1.28-2.55-3-3-1.32-3.94L851.78,340l-1.16-2.32-3.49-1.44h-1.44l-3.63-1.82-1.93-1.93-2.44-4.86-3.06-2.07-2.87-2.87-4.55-2.87-1.72-5.15-1.27-3.83-2.76-2.76-1.66-3.32L816.88,296l-1.44-4.31-1.27-3.82-1.49,4.26-5.33-5.34-1.44-1.44-4.11-.8-1.44-2.87h-3.22l-1.79-7.14L794,271.91l-2.28-4.56-3-2-2,2-1.81-3.62-4.5.7-2.87-4.31h-3.15l-1.54,2.88h-5.1l-1.47.38L765,268.54,763.54,276l-2.87,5.74L759.21,289l-2.87,4.31L755,300l-1.46,13.12L750.4,321l-1.75,1.75-2.51,2.51-1.32,4-1.47,2.93-3,7.51-1.6,1.6-2.59,3.89-1.35,4-1.48,4.46-2.81,5.62-1.47,7.31-2.9,4.36-1.49,6-1.85,1.85-2.88,2.87-1.68,1.69-3.64,1.82h-2.45l-1.94-1L708.36,386,706,383.66h-2l-4.73,1.9-1.9-1.9h-9.16l-4.73,1.9-1.44-1.43-2.36,1.77L677.67,388h-2.88l-1.9,1.9-2.33-1.17-1.81,3.62-2.92-2.92h-6.28l-2,1.44h-9l-1.43-1.44h-4.31L641.42,388h-6.28l-2,1.44h-3.77l-3.8,1.44h-1.94l-3.8,1.43H592.59l-1.43-1.43-2.53,1.43H580l-1.44,1.44H563.87l-1.43-1.44-2.53,1.44H551.3l-1.44,1.43H525.45l-1.9,1.9-3.8-1.9H505.9l-2,1.44h-50.6l-1.44-1.44H436.43L435,396.58h-4.65l-1.44-1.44H383.34l-2.87-1.43h-9.55l-3.8,1.43H349.93l-1.44-1.43h-9.66l-1.94-1L335,394.6l-2.33-2.33h-2.87l-1.44-1.43-2.52,1.43h-4.31l-1.44,1.44h-9l-1.44-1.44h-5.36l-2.87-1.43h-2.87l-2.87-1.44H287.1l-1.44,1.44h-8.61l-1.44,1.43h-5.2l-3.8,1.44h-6.25l-3.8,1.43H246l-3.8,1.44H224.46Z"/><path id="Path_12" data-name="Path 12" class="cls-2" d="M225.9,395.14h33.32l1.44-1.43h8.61l1.44-1.44,4.18-1.43h4.44l1.43-1.44,4.18-1.43,4.56-1.57,2.62-1.31,2.87-1.43,4,1.43h1.61l4.44,1.6,1.6-1.59h16.63l1.44,1.43h6.21l2.87-1.43h2.87l2.87-1.44h5.57l4.14,1.44h1.44l2.87,1.43h16l4.13,1.44h9.93L385,389.4H398.5l2.43.16,2.87-1.44,4.45,1.28H420l1.43-1.43h4.18l2.88-1.44h2.87l2.87-1.43h5.87l1.44-1.44h14.23l2.87-1.44h1.44l2.87-1.43h1.56l1.44-1.44h7.18l1.64-1.64,3.8-1.23h1.6l3.13-1.56,2.15.13h2.87l1.44,1.43h4.6l4.45,1.59,1.72-1.72,2.61-1.3h1.57l1.56-1.57,2.62-1.31h3.84l1.73,1.74,3.17-3.17,2.43,1.59,3.44-1.72,4.33-1.31,1-2,1.35,2.69,3.34-5h10l4,1.74,1.44-1.44,4.45,2.73,1.44-1.44,2.3,1.16,2.87,2.87,3.12,1.56h1.78l2.56-1.28,3,1.28h3.17l1.57-1.56,2.61-1.31h3.84l1.74,1.73,1.86-1.86,2.3-1.15L592,369.3h5.44l4.44,2.87h1.6l4.14,1.44h4.78l2.43.15,3.18-1.59h1.44l3.24-1.62,1.1-2.19,4.11.94h1.6l2.87-1.44,2.28,1.31,3.13,1.57h4.77l3.72,1.43H648l4.45,1.59L654.2,372l2.61-1.3h1.57l1.43-1.44H664l3.13-1.56,2.62-1.31,2.56-1.28,1.43,1.43,3.55-1.77,1.49-3,4.16-1.14,1.44-2.88h2.72l1.65-1.64,3.8-1.23h1.73l3.09-3.08,1.43-1.44,4.39-1.22,1.51-7.54,2.84-2.84,1.43-4.31,4.35-5.84,1.45-5.81,2.8-7,4.33-4.33,1.49-4.47,1.27-3.81h2.87l1.51-4.52,2.81-1.41,1.57-3.13,1.46-4.37,2.82-9.89,4.29-2.75,1.51-6.06,1.39-5.56,2.89-2.87,1.4-5.62,2.43-1.21h1.71l1.44-2.87H759l3.17-4.76,1.24-7.39,4.49-2.57,1.43-7.18,2.51-2.51h1.58l1.08-2.16,3.2,4.79,1.7-10.26,2-3,1.13,3.41h3.83l1.44-2.87L791,221l1.44,8.61,3.25,3.25,3,3.36,3.36-3.36h4.31l2.15-.13,3.13,1.56,3.79,3.86,1.42,8.52,1.49,4.45,2.87,4.31,1.57,4.71h2.83l1.31,5.28,1.58,3.15,2.79,1.4,1.37,5.47,2.9,7.26,1.65,3.3h2.18l2.09-2.1,1.23,7.39,3.77,5.65,1.64-4.91,1.92,1,1.33,2.65,1.43,2.88,2.93,5.84,1.6,1.6,2.68,1.34,1.37,5.5,1.53,3.05,3.66,3.66,1.43-2.87,2.38,2.37h2.18l1.58-3.16,2.28-2.28,3.77,2.39,2,3.94,1.76-3.51,2,1,1.52,3.05h5.05l1.44-1.44H896l1.43,2.88h2.88l1.29,2.58,1.72,1.72h2.88l1.43,1.44h3.61l1.44-2.87h2.73l1.64-1.65,3.8,1.95,1.58-1.58,2.19,1.1,1.39,2.76,2,2,2.87-2.88,4.85-.48,1.34-2.68,4.4-1.62,1.35-2.69H947l3.62,2.87h2l2.87-1.44,2.7,1.74,3.52-3.52,1.4-5.62,2.79-1.4,1.35-2.69,4.53-4.73,1.33-5.32h2.61l1.64-1.65,2.66-2.66h1.73l1.53-7.61,2.75-4.13,4.19-1.18,1.58-3.16,4.15-2.71,3.88,1.86,2-2,1.38-2.76,2.87-1.43,1.49-3,2.87-2.87,1.52-3,1.44-5.75,2.84-5.67,1.41-2.83,2-3.05,1.75,5.25,1.95-7.81,2.43-1.21h1.43l3.24-1.62,1.1-2.2,1.43,1.43,2.45-4.9,1,4,3,4.47,1.48,1.49,2.79,2.79,1.44,2.87,1.47,1.47,2.87,4.31,1.57,1.57,2.87,1.43,3,3h2.65l1.33,4,3.2,3.2h1.73l3.72,2.58,1.36,2.72,3.54,10.61,2.06-6.19,3,2.78,1.46,5.82,3,3,1.44,1.43,4.13,9.77,1.49,4.47,2.87,2.87,1.44,4.31,1.47,1.48,2.82,5.63,1.54,3.09,2.87,1.44,1.39,2.76,3,2.95,2.76,7.17,3,1.48,1.38,2.76,3,2.95,2.84,4.34,3.24,1.62,3.89,2.57,1.58,3.17h1.58l2.88,2.87h1.73v1.45h-2.33l-2.87-2.87h-1.87l-1.87-3.75-2-2-5-2-1.6-3.2-4.3-4.31-1.27-2.54-3.12-1.56-1.53-6.12-4.13-4.14-1.28-2.54-2.87-1.44-1.75-3.51-2.72-5.43-1.55-1.55-1.43-4.31-2.88-2.87-1.6-4.79-2.71-8.13-2.51-2.51-3.29-3.3-1.49-6-1.21-1.81-2.54,9.17-4.86-14.6-1.22-2.42-2-2h-2.87l-3.86-3.86-1.11-3.32h-2.21l-2.07-2.07-4.06-2.62-1.83-1.84-2.87-4.3-1.54-1.54-1.43-2.87-2.63-2.62-1.58-1.59-3.2-4.8-1.72,2.75-1.44-1.43-4.39,2.82h-1.43l-1.53.77-3,12-2.39-7.15-1.73,3.28-2.76,5.53-1.44,5.75-1.7,3.4-2.87,2.87-1.6,3.2-2.87,1.44-1.27,2.54-3.21,3.2L997,276.86l-3,1.6-2.82,4.69H987.8l-3.17,4.43-1.7,8.5h-2.31l-2.24,2.24-2.07,2.06h-2.08l-1.12,4.48-3.72,5.57L967,312.76l-2.62,1.31L963,319.43l-4.82,4.82-2.33-2.33L953,323.36h-3.1l-2.05-3.08-2.54.21h-1.54l-1.16,2.32-4,2-1.77,2.33-4.9,2.45L928,331.43l-3.2-3.21-1.27-2.54-2.7,1.44L918,324.25l-2,2h-2.44l-1.43,2.87H907l-1.44-1.43h-2.87l-2.31-2.32-1-2h-2.88l-1.43-2.87L893,321.92h-6.53l-1.71-3.42-2.7,4.65-3-6.08-2.54-1.28-3.14,4.7H869.7L866.88,322l-5.23-5.23-1.7-3.4-1.26-5-2.3-1.14-1.93-1.93-3-6.06L850,296.32l-1.12-2.23-2,6.12-5.57-8.35-.82-4.95-4.2.55-2.07-4.15-3-7.4L830,271l-2.63-1.31L825.48,266l-1.08-4.34h-2.73l-1.83-5.51L817,251.79l-1.58-4.74L814,238.73l-2-3-4.43-1.82-4.47.39-4.9,4.35-2.17-4.35-5-4-1.44-8.62L787.87,220l-.65,2.87h-5.75l-.53-1.6L778.51,235l-3.83-5.75-2.25.74-1.78,1.78L769.22,239l-4.86,4.86-.82,4.94-3.77,5.65h-4.13l-1.44,2.87H752l-1.54.77-1.34,5.36-2.87,2.87-1.29,5.17-1.67,6.7-3.45,1.72-3.53,10.35-1.5,4.5-1.82,3.65-2.72,1.36-1.65,4.94H725.7l-.94,2.83-1.6,4.79-3.23,3.23-3.78,7.76-1.49,6-3.2,4.8-2.66,5.54L706,342.37l-1.66,8.27h-3.74l-2.25,2.24-3.5,3.5h-4.3l-2.87,2.87h-2.44l-1.43,2.88h-3.31l-2.16,3.75-4.9,2.46L672,366.9l-1.93,1L668,368.92l-3.64,1.82h-3.92L659,372.18h-1.82l-2.1,1.05-2.28,2.29-3.81-1.9h-3.25l-2-2-4.31.54H637.5l-3.64-1.82-4,.38h-5.71l-4.34,2.88H618.4l-3.8,1.9-1.56-.47h-5.7l-2.88-1.44h-2.87L598,371.79l-3-1.05h-6.63l-2.14-.38-2.72,2.71-2.32-2.33h-2l-3,1.05-1.82,1.82H562.82l-3.64-1.82-1.68-1.68-2.36-1.77-1.43,1.43-4.58-2.28-1.6,1.27-2.87-2.87-4.31.54h-5.74L530,372.87l-1.17-2.34-3.41.21-5.63,3.34-1.9-1.9-3.41,3.76-2.33-2.32h-2l-3,1.05-1.82,1.82h-1.82l-2.1,1.05-2.29,2.29-3.8-1.9h-6.13l-1.45-1.45H484.9l-4.34,1.43h-3.92l-2.88,2.88h-7.18l-1.43,1.43h-1.82l-2.87,1.44H459l-2.87,1.43h-14l-1.43,1.44h-5.2l-3.8,1.44h-1.95L426,389.4h-3.92l-1.43,1.44H404.49l-3.84.46-1.55-.46H384.39L383,389.4h-9.66L370.42,388H353.18l-2.87-1.44h-1.44L346,385.09h-5.23l-3.8,1.44H335l-3.8,1.44h-7.14l-1.44-1.44h-3.92l-1.94-1-4.74,1H307.2l-1.9,1.9-3.8-1.9h-2.87l-2.87-1.44-3.29,1.44-2.1,1.05-3.64,1.82h-1.44l-2.87,1.44-2.49,1.43h-3.76l-3.8,1.44-2.49,1.44h-8.07l-2,1.43H225.9Z"/><path id="Path_13" data-name="Path 13" class="cls-6" d="M234.51,395.14H265l1.43-1.43H272l2.87-1.44h5.87l1.44-1.43h4.18l3.12-1.57,1.52-1.51,3.5-1.23L296,388h10.51l2.88-1.44h5.57l4.45,1.59,1.44-1.43,2.56,1.28h9.92l1.44,1.43h10.34l4.14,1.44h6.21l1.44-1.44h12.33l1.43,1.44h3.47l1.44-1.44,3.84,1.44H404l4.13,1.43h12l1.43-1.43h22.38l1.6,1.59,2.87-1.44,4.45,1.28h23.14l2.87-1.43,4,1.43h82.18l2.88-1.43H575l2.56-1.28,4.45,1.28h17.4l2.87-1.44h5.57l4.45,1.59,1.59-1.59h14.06l4.45,1.59L634,389.4h8.62L644,388h8.61l1.44-1.44h5.61l2.87-1.44,4,1.44h1.9l1.44-1.44h14.23l2.87-1.43h1.57l1.43-1.44h2.87l1.57-1.56,2.61-1.31h1.57l1.43-1.44h7.18l1.44-1.43h8.76l1.44-2.87h2.72l1.44-1.44,4.18-1.44h1.43l2.87-1.43h1.57l1.56-1.57,2.87-1.43,4.18-1.31,1.65-1.65,1.44-1.43,3-3,1.38-2.76,2.51-1.25,2.81,1.84,3.32-5,3.92-2.61h2.87l3.24-1.62,1.34-2.69h2.73l2.57.3,2.87-2.87,4.74-.43,1.51-1.52,3-2.95,1.43-2.87,4.26-2.77,1.43-2.87,2.87-1.43.77-1.54,1,2.95,4,2,1.51-7.53h2.72l1.64-3.27,1-2,2.87,2.87,1.86-3.72L816.6,313l2.14-1.18,2.46,1.23,2,5.89,3.59-9,1.46-2.94,1.43-7.13,2.58-3.87h1.44l3.13-4.71.92-2.75,1.38,2.75,2.57-6.42,1,5,3.24,3.24h1.43l3.17,3.17,1.74-1.74,3.9,4.72,1.43-1.44,2.6,3.9H862l3.72,1.23,1.71,5.13,2.87-2.87,1.62,4.85,2-4h2.73l3.58-.13,2.68,7.09,2.9,1.45,1.37,4.12,2.88,4.3,1.45,4.38,1.77,1.77h4.9l3.2-3.2,1.47-4.42,1.31-2.62,2.2-1.1,4.75,1.28,3.42,1.15,1.38,2.77,1.49,3,3,3,1.8,1.8,3.19-1.6,2.2,1.23,2.78,2.79,1.59,3.16h3l3,4.8L941,338l4.13,2.57H947l1.44-1.44h2.87l4,5.2,2.08-4.15,1.33-2.66,2.76-1.38,1.44-1.44,2.87-1.43,1.85,1.27,3.47,3.46,1.57-1.58,2.88,1.44,1.72-1.72,2.61-1.31h1.78l1.51-4.52,2.45-1.22h3.85l1.73,1.73,1.58-1.58,2.87,1.44,1.86-1.85,2.7-4h2.1l2.63,3.95,2.13,4.26,3.29-8.21,1.8,2.58,3.66,3.66,1.88-3.77,2.82-5.63,1.76,6.38,3.82-1.91,1.56-1.57,2.88-4.31,1.46-1.47,1.29-2.58H1036l1.56-1.56,2.3-1.15,3.89,1.28,1.35,5.39,2.09,2.09,2.67-2.68,1,2.09,3.46,3.46,1.74-1.74h3.56l1.35,2.69,2.87,1.44,1.77,3.55,1.64-1.64,2.24,2.25,1.48,4.43,3,1.51,1.57,1.57h1.9l2.56-1.28,4.28,2.71h1.9l1.43-1.43h2.87l3.48-.18,1.38,2.76,1.73,1.73h2.87l4.1,4.1,1.94,1.94,3.38-3.38,1.44-1.44,1.43-1.43,2-2,1.21,4.84,3.32,1.66,2.53,1.22,3.08,3.08,4.22,4.31h1.82l3.89,1.31.33,2.37-3.29-2.24h-3.52l-2.87-4.31-4.68-3.5-1.85-.8-4.21-2.11-.76-3-1.62,1.62-1.43,1.43-4.4,4.4-3-3-2.87-2.87-3.68-.8-2.31-2.31-1.27-2.54-1.81.54h-2.88l-1.43,1.44H1084l-3.64-1.82-2.52.38H1075l-1.82-1.82-3.35-1.67-1.56-4.68-3,1-2.45-4.9-2.87-1.43-1.16-2.33h-1.54l-2.87,2.33-4.65-4.64-2.53,1.77-3.38-3.38-1.18-4.69h-2.08l-2.14-.39-1.82,1.82h-2.43l-1,2-1.53,1.53-2.87,4.31L1027,327.3l-5.7,2.85-1.2-6,1.65-1.65-2.71,5.43-2.78,5.54-5.23-5.23-1-2-2.76,10.28-3.52-7-2.15-3.23-2.92,3.52-2.69,2.69L993.07,331l-1.86,1.86-2.33-2.33h-2l-2.54.81-1.65,4.94h-2.48l-2.1,1.05-2.28,2.29L973,338.2l-1.87,1.86-4.64-4.64-2.7.49-1.43,1.44-2.54,1.27-1.12,2.23-3.36,6.73-3.46-6.93-2.83,0L947.59,342h-2.83l-3.64-1.82-3.62,3.3-2.62-5.23-3.87-.56L929.14,334l-2.63-2.62-4.64,1.1-2.54-2.54-3.12-3.11-1.59-3.19-1.28-2.56-1.64-.56H907l-1.81-.54-1.05,2.09-1.54,4.64-3.87,3.87h-6.09l-2.42-2.43-1.51-4.52-2.87-4.31-1.25-3.73-3-1.48L880.14,308l-1.93-1.35-3.4,1-3.17,6.33-2-5.93-2.87,2.87-2.26-6.77-1.62-.81H859.4l-2.06-3.08-1.43,1.44-3.69-5.54-1.72,2.33-3.76-3.76H845.3l-4-4-2.11,4.2L838,292.37l-3.56,5.16H833l-2,3-1.41,7.05-1.53,3.05-5,12.55-3-9-1.62-.81L815,318l-2.71,5.42-2.87-2.87-2.14,4.26h-2.43L803.23,333l-6.19-3.1-2.37.08-1.44,2.87-3.2,1.6-2.38,3.82-3.12,3.12-1.68,1.68-4.57,2.29-3.88,1.86L773,345.8l-3,.54-1.16,2.33-4,2h-1.94l-3,1.05-5.25,7.36L752,356.4l-1.81.88-1.28,2.55-3.11,3.11-1.44,1.44-2.07,2.07h-2.87l-3.92,2.49-1.82,1.81h-1.82L729,372.19h-1.44l-2.87,1.44-2.49,1.43h-2.43l-1.44,2.87h-8.51l-2,1.44h-7.18l-1.43,1.44h-1.82l-2.1,1.05-1.82,1.82h-2.87l-1.44,1.43h-1.82l-2.87,1.44h-14L669,388H666.2l-2.87-1.44L660,388h-5.36l-1.44,1.43h-8.61l-1.44,1.44h-8.07l-2.45,1.9-3.8-1.9H615l-2.44,1.9-3.8-1.9h-5.24l-3.8,1.43H569.07l-3.8,1.44H482.41l-2.87-1.44-3.29,1.44H449l-3.85.47-1.9-1.9H422.07l-1.43,1.43H407.75l-2.87-1.43H379l-2.87-1.44-1.47,1.44H370l-1.43-1.44H357.46L356,392.3h-7.15L346,390.86H334.13l-1.43-1.44H323l-1.94-1-1.43,1.44-3.81-1.9h-5.23l-3.8,1.44H295.37L293.93,388l-1.89.8-1.69,1.68-3.63,1.82h-3.93l-1.43,1.44h-5.2l-3.8,1.44H267l-1.44,1.43H234.51Z"/><path id="Path_14" data-name="Path 14" class="cls-12" d="M1134.67,391l-2.56,1.28h-12.92l-2.87,1.43h-4.78l-2.57-1.43h-14.53l-4.14-1.44h-4.6l-1.43-1.43h-12.92l-1.57-1.57-3.88-1.31h-8.33l-1.43,1.44h-11.62l-3.18,1.59-1.44-1.43-2.56,1.28h-7.64l-3.87-1.28-4.15-1.6-1.6,1.6-4.15-1.6-2.66,2.67-1.64,1.64H1003l-1.44,1.44h-4.9l-1.43-1.44h-4.31l-1.44-1.43h-6.58l-1.73,1.73-1.58-1.58L977,390.83h-4.78l-1.43-1.43H968L965.38,388H958.5l-1.73,1.73-1.58-1.57-2.87,1.43L950.73,388h-8.62l-1.56-1.56-3.89-1.31h-5.91l-2.87-1.44H926.1l-1.24-3.7-2.26,2.26h-1.9l-4.14-1.43H912.7l-1.79,3.58-4.82-6.58-2.87-1.44L900.6,375l-2.87-1.43h-1.44l-4.14-1.44h-1.73l-3.08-3.08-1.44-1.44L883,364.69l-2.14-1-3.18-1.59h-1.57l-2.38-2.38-1.19,2.38h-5L866,360.67h-3.49l-1.75,5.22-3-4.5-1.2,2.41-4.33-.25h-1.73l-3.88,1.31-2.87,1.43L842,368l-3.94-.36-1.65,1.64h-4.78l-3.54-.29-1.59,3.16h-3l-1.44,1.44-4.41-.94L816.49,375l-4.32,1.3L809,377.91h-3.21l-3.71-.13L799,379.34h-7l-3.14,4.72-3.13-3.13-2.56,1.28h-8.34l-1.43,2.88h-8.77l-1.43,1.43h-1.57L758.78,388h-1.43l-2.88,1.44h-9.92l-1.44,1.43H728.76l-1.44,1.44H713.8l-1.43-1.44h-3.72l-1.43,1.44H676.93l-2.87,1.43h-7.52l-4.13-1.43h-2.58L658.1,394l-1.58-1.58L654,393.7h-4.77l-2.58-1.43H634l-1.44,1.43H598l-2.87,1.44h-7.52l-4.13-1.44H530.6l-1.43,1.44h-4.9l-1.44-1.44h-2.27l-1.44,1.44H502.86l-4.14-1.44h-2.58l-1.43,1.44h-4.9l-1.44-1.44h-8l-1.59,1.6-4.45-1.6H431.23l-3-1.28-2.87,1.44-1.6-1.59H389.29l-1.43-1.44H385l-1.43-1.44h-4.18l-3.12-1.56-2.75-2.74h-4.18l-3.84-1.44-1.43,1.44h-4.78l-3.13-1.57-2.61-1.31-4.44-2.87-3.5,1.23-1.8,1.8-3.44-1.72-1.52-1.52-2.66-2.66h-1.7l-1.49-6-4-2.65h-3.56l-1.35,2.69L321.21,372l-1.65,3.3-4.63-1.68h-2.57l-1.74,1.73-1.86-1.86-3.71-1.31-2.87,1.44h-1.9l-1.44-1.44H295l-2.62,1.31L290.82,375h-1.45l-2.66,2.67-1.64,1.64h-2.73l-1.29,2.58-1.6,1.6-3.13,1.56h-1.43l-4,2.67-1.65,1.64H266.4L265,390.83h-2.87l-1.43,1.43h-1.57l-2.87,1.44h-8.48l-1.44,1.44H167v1.43h79.86l1.44-1.43h8.23l2.87-1.44h1.82l1.44-1.44h2.87l1.44-1.43h2.87l3.26-3.26,2.1-1.05h1.43l3.64-1.82,1.93-1.93,1-2h2.43l2.07-2.07,2.24-2.24h1.44l1.82-1.82,3-1h2l1.44,1.44h2.83l3.29-1.44,2.1,1,2.71,2.71,2.33-2.32h2.91l4.34,2.17,2.08-4.16,2.87-1.43,1.27-2.33,3,1,2.3,1.15,1.6,6.42h2.23l2.25,2.24,1.68,1.68,4.57,2.29,3.34-3.34,2.14,1.05,3.64,1.82,2.1,1.05,3.64,1.82h5.71l1.47-1.43,2.87,1.43h1.94l2.79.81,1.68,1.68,3.64,1.82H383l1.44,1.44h2.87l1.44,1.43h19.56l3.3-1,1.94,1h9.66l1.9,1.9,3.84-.46h46.33L479,397l1.9-1.9h6.83l1.44,1.43h6.09l1.44-1.43h2.91l2.87,1.43h17.2l2.52-1.43,1.44,1.43h6.09l1.43-1.43h53.17l2.87,1.43h8.2l3.8-1.43h33.92l2-1.44h12l1.43,1.44h5.71l1.94-1,1.86,1.86,2.33-2.33h2.91l2.87,1.44h8.2l3.8-1.44h29.61l2-1.44h2l1.44,1.44h14.71l1.43-1.44h14.36l1.44-1.43h9.67l2.87-1.44h1.43L762,388h1.82l1.43-1.44h9.06l1.43-2.87h7.79l2.28-.63,3.29,3.29,4-5.53h6.25l4.22-2.41,1.94,1h3.89l4.69-2.87h3.31L818,375h4.66l1.43-1.43h3.31l2-3.85,1.94,1h5.71l2.4-2.4,2.87,1.44,2.28-2.29,3.93-2.49h2l3.3-1,3.41,1.7.74-1.48,3.25,4.89,2.22-7h2l1.44,1.44h10.44l4.48,2,3.12,3.12,1.43,1.44,3.5,3.5h3.26L896,375h1.44l2.87,1.44,2.1,1,3.91,2.48,4.81,7.21,2.5-5h3.9l2.87,1.44,3.88-1,.82,2.48h2.48l2.87,1.43h7.18l2.1,1.05,1.82,1.82h8.62l1.9,1.9,2.87-1.43,1.86,1.86,2.33-2.33h6.83l1.44,1.44h2.87l1.43,1.43h5.71l1.94-1,1.86,1.87,2.33-2.33h5.4l1.43,1.43h4.31l1.44,1.44h6.09l1.44-1.44h8.61l2.07-2.06,2.27-2.24,3.81,1.9,1.94-1.9,4.81.89,2,2h8.58l1.94-1,1.44,1.43,4.73-1.9h10.94l1.44-1.43h8.65l2.1,1.05,1.82,1.82h12.92l1.44,1.44h6.13l2.87,1.43,3.8-1,1.94,1h9.67l1.44,1.44h5.7l3.8-1.44h1.44l4.73-1,1.94,1h3.89l2.28-.63Z"/><path id="Path_15" data-name="Path 15" class="cls-10" d="M180,395.14h56.52l1.43-4.3h7l1.44-1.44h3.57l1.55,3.12,3.62-1.81,1.44-1.44,2.87-1.43,1.6-1.6,1.44-2.87,2.91-2.91,1.46-4.38,2.87-4.31,1.47-4.42,1.43-5.7,2.87-5.76,1.44-7.18L279.7,343l1.46-5.84L282.6,330l2.87-10.05,1.44-7.18,2.87-10.06,1.44-8.65,1.43-7.16,2.85-12.83,1.35-2.68,2.93-2.93,1.46-5.86,1.08-2.16,2.69,1.34,1.6-1.59h3.13l1.27-5.06,3.36,4.8,1.7,1.7h2.6l1.32,5.25,2.87,7.18,1.73,6.93,1.82-1.83,2.29,2.28,1.49,3,3.82,1.91,1.54-4.6,3.36,1.31,1.57,1.56h4.9l3.47-.18,1.65,3.3,2.77-1.39L354.5,290l1.77,1.76h2.65l1.37,4.1,2.87,1.44,1.33,4L366,309H369l1.3,3.91,3,4.45,3,6.3L380,321.8l4,.28,1.44-1.43,2.19,1.1,1.33,2.66,1.49,3,2.87,2.87,1.43,2.88,2.88,2.87,1.58,3.16h1.71l3.36,1.68,1.31-2.62,2.68,2.68,1.43-1.44,3.78,2.39,1.52,3.06h3l1.93,1.92,1.56-3.12,2.13,1.07,1.56,1.56h2.87l2.87,2.87h2.73l1.44,2.87h3.31l2.45,1.31,2.87,1.44,1.56,1.56H448l1.34,2.69,2.88,1.44,1.32,2.66,1.64,3.26h3l4.18,2.75,3,3h3.17l4,2.87H474l4.44,2.87h1.77l2.56-1.28,3,1.28h2.57l4.18,2.75,3,3h3.17l4.14,1.43h5.91l3.8,2.66,1.65,1.65h3.17l2.57,1.44h2.87l1.59,1.59,3.19-1.59,2.4,1.43h4.77l2.87-1.43h5.28l1.59,1.59,3.18-1.59h5.58l4.45,1.59,1.59-1.59,3.84,1.43h6.21l1.44-1.43h2.28l1.43,1.43H601.8l1.44,1.44h4.9l1.44-1.44H654l2.87-1.43h25.38l1.59,1.59,3.19-1.59h2.87l3.13-1.57,4.17-1.31,1.65-1.64,4.23-2.79,3.88-1.31h1.73l1.65-1.65,2.87-2.87,4.34-2.84,1.49-3,2.87-2.88,1.49-3,1.23-2.48h2.87l1.59-3.16,2.79-2.79,1.43-1.44,4.34-2.84,1.49-3,2.58-2.58h1.43l1.7-1.7,3-4.45,1.41-4.24,2.84-2.83,1.48-3,1.42-2.83,2.92-4.37,1.41-5.67L762,316l1.44-1.43,3.26,0,1.53,3.05h2.87l1.24,2.47,1.54,3.09,2.88,1.44,1.34,2.7L781.2,332l4,6.68,1.42,5.68,1.44,7.19,2.87,10.06,1.47,7.36,3.24,3.24h3.74l3-13.55,1.44-24.42L806.71,317l1.39-19.47h5.46l2.19-3.28,1,4.12,1.44,17.19,3,20.74h6.93l1.58-6.34,2.81-25.25h7.21l2.91-49.5.18,46.73,4.13-16.52,1.41-33.84H852l3.92,53.83,2.54-87.47,2.11-7.38.92,3.69h9.82l1.5-15v46l3,12.1h7l1.45-50.95,1.44,60.39,1.5,6,3.23,3.22h5.52l1.27,3.8L900.12,290l2.28,2.27,1.68-3.37h6l1.48,31.1,3-3,1.24,8.66,1.58,6.32h7.3l1.18,2.37L927.36,346l3,3.05,1.65,1.64h6.21l2.87-1.43,3.47,5.3,1.58,4.75h5.35l.92-2.76,2.16,6.5,1.82,14.56,2.18-6.53,2.77,1.39,1.7-3.41,2.28-2.28L968,369.3h7.18l1.59,1.6,3.44-1.72,1.52-1.52,3.63.21h4.47l2.73,1.59,2.87-1.44,4.29,2.72H1006l1.32-2.63,2.38,1.19h1.9l1.43-1.43h2.87l1.57-1.57,2.61-1.3h2.54l2.87,1.43h4.18l1.43,1.44h4.31l1.44,1.43h4.77l2.87-1.43h1.57l4.15.15,1.59-1.59h2.28l1.73,1.73,1.73-1.73h2.14l1.55,3.12,3-1.53,3,1.28h2.57l4.75,3,1.59-1.59h3.71l1.6,1.59,2.69-1.34,1.31,2.62h1.58l2.87,2.87h1.9l2.88-1.43H1102l3.12-1.57h3.46l2.85,4.44h2.88l1.34,2.69,2.87,1.43,1.38,2.77,1.52,1.51,2.87,2.88,1.65,1.64h2.88l2.88,2.87h2.87l.21,2.24-3.68-.8-2.07-2.06-3.67-.8-2.07-2.07-2.87-2.87-1.68-1.68-1.28-2.55-2.87-1.43-1.16-2.32h-2.87l-1.88-3.75-2.11-1.53-4.22,2.4h-2.45l-1.94-1-2.79,1-2.87,1.44h-2.84l-2.87-2.87h-1.88l-1.06-2.14-2.34,1.17-1.9-1.9h-2l-2.44,1.9-4.58-2.29-3-1.05H1065l-4.38.74-1.8-3.61-3,2.33-2.33-2.33-3,1.9-2.87-1.44-2.79,1-2.87,1.44h-5.71l-1.44-1.44h-4.3l-1.44-1.44h-3.94l-2.87-1.43h-1.85l-2.1,1.05-1.82,1.82h-2.87l-1.44,1.44h-2.84l-2.46,1.43h-7.59l-3.64-1.82-3.45.85-1.9-1.9H985l-1.94-1-2,2-4.58,2.28-1.9-1.9h-7.17l-2.07-2.06L962,374.36l-2.58-1.29-3.65,11-2.59-20.7-.76-2.28-4.3-.35h-3l-1.88-5.64-2.21-4.41-2.47,1.43h-7.14L929.4,350l-3.39-3.4-1.48-11.85-2.22-1.35h-6l-1.87-7.49-.84-5.9-3.27,3.27-1.57-33H905l-2.18,4.35-3.94-3.94-3-10.55-.93-2.79h-5.09l-3.92-3.92L884.27,267l-2.89-60.52,4.3,0-1.5,52.35h-9.51l-3.33-13.35-1.44-46.17,4.3.14-1.63,16.3H860.31l-.47,2.48-1.73,98.65-3,.06L851.35,253H849.7l-1.36,32.61-6.64,26.56-2-57,4.3.06-3,50.84h-7.78l-2.18,24.08-1.88,7.51h-9.29l-3.15-22-1.42-17.12-3.61.36h-2.88l-.73,18.2-2.87,17.22-1.43,24.47-3.29,14.77h-5.49l-4-4-1.55-7.73-2.87-10.05-1.45-7.22-1.38-5.55-2.28-5.69L776.84,328l-1.17-2.35-2.87-1.43L771,320.72,770.2,319h-2.87l-1.71-3.42L763,317l-2.45,2.45L759.17,325l-3,4.51-1.37,2.75-1.6,3.18-2.76,2.76-1.36,4.1L745.93,347l-2.22,2.21h-1.44l-2,2-1.6,3.2-3.2,1.6-2.62,2.62-2.63,2.63L728.36,365h-2.88l-.84,1.68-1.59,3.18-2.87,2.87-1.6,3.2-3.2,1.6-4.06,4.06-2.07,2.07H705L701,386.14l-3.25,3.26h-2.88l-4.69,2.87h-1.94l-4.73,1.9-1.9-1.9H658.1l-3.8,1.43H610.17l-1.43,1.44h-6.1l-1.43-1.44H573.93l-1.44-1.43L570,393.7h-7.15L560,392.27l-1.94,1.9-3.8-1.9H549l-4.73,1.9-1.9-1.9h-3.41l-3.8,1.43h-5.72L528,392.27l-3.84,1.9-1.9-1.9h-2.87l-1.44-1.44h-4.31l-2.06-2.06-2.24-2.25h-6.8l-2.88-1.43H495L492.89,383l-4.06-2.62-3-1h-7.68l-3.64-1.82L472,376.47l-2.87-2.87H464.8l-2.07-2.07-4.06-2.62-4.36-1.05-2-4.06-1.12-2.23-2.87-1.44-1.16-2.32H444.7L442.87,356,440,354.55l-1.6-1.05h-4.2l-1.43-2.87h-2.43l-2.06-2.06-3.68-.8L422.78,346l-2.44,3.3-2.92-2.92h-3.31l-1.71-3.42-2.54-1.27-1.6,1.27L406,340.63l-1.06,2.13-4.34-2.17h-2.26l-1.88-3.75L393.56,334l-1.43-2.87-2.87-2.87-1.6-3.18-1.11-2.23-2.28,1-2.87-1.43-6,3.28-2.06-6.18L369,313.54l-1-3.11h-3.08l-1.76-8.78L362,298.32l-2.87-1.44-1.23-3.68h-2.21l-2.42-2.43-.81-2.43-2.58,1.29-2.08-4.16L346,286h-6.1l-1.82-1.82-2.1-1.05-1.1,5.19-5.74-2.87-1.6-3.2-3.7,1.5-2.32-9.29-2.88-7.18-1.06-4.25h-2.08l-2.22-2.22-2.87-4.31.48,5.09H307.2l-1.9,1.9L303,262.34l-1.89,6.83L298,272.22l-1.16,2.32-2.81,12.64-1.42,7.12-1.45,8.7-2.89,10.09-1.43,7.18L284,330.32l-1.43,7.14-1.51,6-2.85,5.7-1.43,7.18-2.9,5.79-1.4,5.59-1.55,4.66-2.87,4.31-1.51,4.51-3,3-1.44,2.87L260.2,389l-2.87,1.44-1.43,1.43-5.12,2.56-1.8-3.61h-1.54l-2,1.44h-5.2l-2.75,4.3H180Z"/><g id="Group_22" data-name="Group 22"><g id="Group_21" data-name="Group 21"><g id="_0" data-name=" 0" class="cls-3"><text class="cls-4" transform="translate(123.61 398.02)">0</text></g></g></g><g id="Group_24" data-name="Group 24"><g id="Group_23" data-name="Group 23"><g id="_2" data-name=" 2" class="cls-3"><text class="cls-4" transform="translate(123.61 369.3)">2</text></g></g></g><g id="Group_26" data-name="Group 26"><g id="Group_25" data-name="Group 25"><g id="_4" data-name=" 4" class="cls-3"><text class="cls-4" transform="translate(123.61 340.58)">4</text></g></g></g><g id="Group_28" data-name="Group 28"><g id="Group_27" data-name="Group 27"><g id="_6" data-name=" 6" class="cls-3"><text class="cls-4" transform="translate(123.61 310.43)">6</text></g></g></g><g id="Group_30" data-name="Group 30"><g id="Group_29" data-name="Group 29"><g id="_8" data-name=" 8" class="cls-3"><text class="cls-4" transform="translate(123.61 281.71)">8</text></g></g></g><g id="Group_32" data-name="Group 32"><g id="Group_31" data-name="Group 31"><g id="_10" data-name=" 10" class="cls-3"><text class="cls-4" transform="translate(117.06 252.99)">10</text></g></g></g><g id="Group_34" data-name="Group 34"><g id="Group_33" data-name="Group 33"><g id="_12" data-name=" 12" class="cls-3"><text class="cls-4" transform="translate(117.06 224.28)">12</text></g></g></g><g id="Group_36" data-name="Group 36"><g id="Group_35" data-name="Group 35"><g id="_14" data-name=" 14" class="cls-3"><text class="cls-4" transform="translate(117.06 195.56)">14</text></g></g></g><g id="Group_38" data-name="Group 38"><g id="Group_37" data-name="Group 37"><g id="_16" data-name=" 16" class="cls-3"><text class="cls-4" transform="translate(117.06 165.4)">16</text></g></g></g><g id="Group_40" data-name="Group 40"><g id="Group_39" data-name="Group 39"><g id="_18" data-name=" 18" class="cls-3"><text class="cls-4" transform="translate(117.06 136.69)">18</text></g></g></g><g id="Group_42" data-name="Group 42"><g id="Group_41" data-name="Group 41"><g id="_20" data-name=" 20" class="cls-3"><text class="cls-4" transform="translate(117.06 107.97)">20</text></g></g></g></g></g></g></svg>