<?xml version="1.0" encoding="utf-8"?>
<!-- Generator: Adobe Illustrator 22.0.1, SVG Export Plug-In . SVG Version: 6.00 Build 0)  -->
<svg version="1.1" id="SVGDoc" xmlns:avocode="https://avocode.com/"
	 xmlns="http://www.w3.org/2000/svg" xmlns:xlink="http://www.w3.org/1999/xlink" x="0px" y="0px" viewBox="0 0 1128 487.7"
	 style="enable-background:new 0 0 1128 487.7;" xml:space="preserve">
<style type="text/css">
	.st0{fill:#FFFFFF;fill-opacity:0;stroke:#D9D9D9;stroke-width:1.3479;stroke-linejoin:round;stroke-miterlimit:20;}
	.st1{fill:#FFFFFF;fill-opacity:0;stroke:#BFBFBF;stroke-width:1.3479;stroke-linejoin:round;stroke-miterlimit:20;}
	.st2{fill:#D1D3D4;}
	.st3{fill:#222B3E;}
	.st4{fill:#313E59;}
	.st5{fill:#91BCE8;}
	.st6{fill:#808285;}
	.st7{fill:#231F20;}
	.st8{fill:#606060;}
	.st9{font-family:'ArialMT';}
	.st10{font-size:14.3137px;}
</style>
<desc>Generated with Avocode.</desc>
<title>Group 429</title>
<title>Group 423</title>
<title>Group 424</title>
<title>Group 425</title>
<title>Group 426</title>
<title>Group 427</title>
<title>Group 428</title>
<title>Group 431</title>
<g>
	<title>Group 430</title>
	<g>
		<title>Path 588</title>
		<path class="st0" d="M81.2,48.1h1005.4"/>
	</g>
	<g>
		<title>Path 589</title>
		<path class="st0" d="M81.2,93h1005.4"/>
	</g>
	<g>
		<title>Path 590</title>
		<path class="st0" d="M81.2,137h1005.4"/>
	</g>
	<g>
		<title>Path 591</title>
		<path class="st0" d="M81.2,181.9h1005.4"/>
	</g>
	<g>
		<title>Path 592</title>
		<path class="st0" d="M81.2,225.9h1005.4"/>
	</g>
	<g>
		<title>Path 593</title>
		<path class="st0" d="M81.2,270.9h1005.4"/>
	</g>
	<g>
		<title>Path 594</title>
		<path class="st0" d="M81.2,315.8h1005.4"/>
	</g>
	<g>
		<title>Path 595</title>
		<path class="st0" d="M81.2,359.5h1005.4"/>
	</g>
	<g>
		<title>Line 61</title>
		<path class="st1" d="M81.8,404.5V48.1"/>
	</g>
	<g>
		<title>Line 62</title>
		<path class="st1" d="M81.8,404.5h1004.8"/>
	</g>
	<g>
		<title>Path 596</title>
		<path class="st1" d="M0-19.3"/>
	</g>
</g>
<g>
	<title>Path 597</title>
	<path class="st2" d="M201,405.1L201,405.1h1.2l0,0h2.4l0,0h1.2l0,0h2.4l0,0h2.4l0,0h1.2l0,0h2.4l0,0h2.4l0,0h1.2l0,0h2.4l0,0h2.4
		l0,0h1.4l0,0l2.4-1.2l0,0h2.3l0,0h1.2l0,0h2.4l0,0h1.2l0,0h2.4l0,0h2.4l0,0h1.2l0,0h2.4l0,0h2.4l0,0h1.2l0,0h2.4l0,0h2.4l0,0h1.2
		l0,0h2.4l0,0h1.2l0,0h2.4l0,0h2.4l0,0h1.2l0,0h2.4l0,0h2.4l0,0h1.2l0,0h2.4l0,0h2.4l0,0h1.2l0,0h2.4l0,0h1.2l0,0h2.4l0,0h2.4l0,0
		h1.2l0,0h2.4l0,0h2.4l0,0h1.2l0,0h2.4l0,0h2.4l0,0h1.2l0,0h2.4l0,0h2.4l0,0h1.2l0,0h2.4l0,0h1.2l0,0h2.4l0,0h2.4l0,0h1.2l0,0h2.4
		l0,0h2.4l0,0h1.2l0,0h2.6l0,0l2.4-1.2l0,0h3.5l0,0h1.2l0,0h2.4l0,0h2.7l0,0l1.2-1.2l0,0h2.2l0,0h2.4l0,0h1.4l0,0l2.4-1.2l0,0h2.5
		l0,0l1.2-1.2l0,0h2.2l0,0h1.4l0,0l2.4-1.2l0,0h2.3l0,0h1.2l0,0h2.4l0,0h2.4l0,0h1.2l0,0h2.4l0,0h2.2l0,0l1.5,1.5l0,0l2.7-2.7l0,0
		h2.2l0,0h1.2l0,0h2.7l0,0l1.2-1.2l0,0h2.4l0,0l2.2-2.2l0,0l3.8-0.3l0,0h2.5l0,0l1.2-1.2l0,0h2.2l0,0h2.2l0,0l1.6,1.6l0,0l2.7-4l0,0
		h3.5l0,0l2.2-1.1l0,0l1.5,1.5l0,0l2.8-5.6l0,0l1.6-2.4l0,0l1.3,6.4l0,0l3-5.9l0,0l2.4,1.2l0,0l1.5-2.9l0,0l1.7-2.6l0,0l1,3.1l0,0
		l3.2-1.6l0,0l1.7-2.5l0,0l1.2,7.3l0,0l2.8-4.2l0,0l2.3,3.5l0,0l1.6-1.6l0,0h2.3l0,0l2.6-1.3l0,0l1.4-1.4l0,0l2.4-4.8l0,0l2.1-1.1
		l0,0h1.2l0,0l2.6-1.3l0,0l3.3-1.1l0,0h2.8l0,0l1.1-2.2l0,0l2.3,1.1l0,0l2.7-2.7l0,0l1.2-1.2l0,0l2.4-2.4l0,0l2.5-2.5l0,0l1.2-3.5
		l0,0l2.5-1.2l0,0l0.9-6.6l0,0l1.8,4.6l0,0l3.1-1.6l0,0l3.3,0.2l0,0l2.6-1.3l0,0l3.6,5.8l0,0l2.8-8.3l0,0l3.7-1.4l0,0l1.2-2.4l0,0
		l2.3-1.2l0,0l2.5-2.5l0,0l3.4,0.4l0,0l2.5-3.8l0,0l3.5-1.2l0,0h2l0,0l1.2,1.2l0,0h2.8l0,0l1.9-1l0,0l1.1,3.4l0,0h2.6l0,0l1.2,1.2
		l0,0h3l0,0l2.6-3.9l0,0l3.6-1l0,0l2.6-6.4l0,0l1.2-2.4l0,0l2.4-4.8l0,0l2.5-2.5l0,0l1.2-6l0,0l2.4-1.2l0,0l1.2-3.5l0,0h2.2l0,0
		l2.6-2.6l0,0l1.2-1.2l0,0l2.1-2.1l0,0l2.4,1.2l0,0l1.2-1.2l0,0l2.2,1.1l0,0h3l0,0l1.3-2.7l0,0l1.9-1.9l0,0l3.9-0.3l0,0l2.7-1.3l0,0
		l1.2-3.6l0,0l1.9-1l0,0l2.3,1.1l0,0h1.5l0,0l2.4-1.2l0,0h1.9l0,0l1.8,3.7l0,0l2.7-13.7l0,0l2.3-2.3l0,0l1.2-1.2l0,0l2.4-2.4l0,0
		l2.9,0.1l0,0l2.2,1.1l0,0l1.4,8.2l0,0l3.3-3.3l0,0l2.3-2.3l0,0h1.2l0,0l2.4-2.4l0,0h1.9l0,0l4.2,2.6l0,0l1.4-2.9l0,0l2.4-2.4l0,0
		l2.3-2.3l0,0h1.2l0,0l2.7-2.7l0,0l1.9-2.8l0,0l0.8,1.6l0,0l2.5,2.5l0,0l3,3l0,0l1.6-3.1l0,0l2.3-2.3l0,0l2.4-1.2l0,0l1.4-1.4l0,0
		l2.5-5l0,0l1.2-3.6l0,0l2.1-4.3l0,0l1.8,0.9l0,0l3.6,3.6l0,0l2.3,1.2l0,0l1.2,2.3l0,0l2.4,2.4l0,0l2.4,5.9l0,0l1.2,5l0,0l2.5,2.5
		l0,0l1.2,3.6l0,0l2.5,3.8l0,0l2.4,2.4l0,0l1.2,3.6l0,0l2.5,5l0,0l2.4,2.4l0,0l1.2,2.4l0,0l2.5,2.5l0,0l2.4,2.4l0,0l1.4,1.4l0,0h2.7
		l0,0h1.2l0,0h2.4l0,0h2.7l0,0l1.2-1.2l0,0h2l0,0l2.2,1.1l0,0l1.2,1.2l0,0l2.5,1.3l0,0l2.2,1.1l0,0l1.2,3.6l0,0l2.6,1.3l0,0l2.2,2.2
		l0,0l1.2,6l0,0l2.5,3.7l0,0l1.2,2.5l0,0l2.5,2.5l0,0l2.4,2.4l0,0l1.6,1.6l0,0l2.9-2.9l0,0l2.3-2.3l0,0l3.1,1.2l0,0l2.3,1.1l0,0
		l1.2,2.4l0,0l2.4,1.2l0,0l1.1,2.3l0,0l2.4,3.6l0,0l2.4,6l0,0l1.3,3.9l0,0l2.9,1.5l0,0l2.6-1.3l0,0h3.8l0,0l2.7-2.7l0,0l1.2-4.9l0,0
		l2.1-2.1l0,0h3.5l0,0l2.4-1.2l0,0h1.2l0,0l2.7-1.3l0,0l2.6-2.6l0,0l3,10.2l0,0l2.5-6.4l0,0l0.9,2.7l0,0l3.1-1.6l0,0l2.6-2.6l0,0
		l1.2-5l0,0l2.4-4.9l0,0l0.7-2.9l0,0l2.2,6.5l0,0l3.2-4.8l0,0l1.2-3.7l0,0l2.4-9.6l0,0l2.4-2.4l0,0l1.3-2.6l0,0l2.4-13.4l0,0
		l2.4-8.4l0,0l1.1-2.2l0,0l2.1-1.1l0,0l3.2,1.2l0,0l2.3,1.2l0,0l3.6,3.6l0,0l2.4,1.2l0,0l1.2,1.2l0,0l2.5,1.3l0,0l2.3,1.1l0,0
		l1.2,2.3l0,0l2.5,2.5l0,0l3.8,5l0,0h2.4l0,0l1.1,2.2l0,0l2.5,2.5l0,0l2.4,2.4l0,0l1.2,1.2l0,0l2.6,2.6l0,0h2.4l0,0l3.5,2.3l0,0
		l2.5,2.5l0,0h1.2l0,0l2.4,2.4l0,0h1.2l0,0l2.3,2.3l0,0l2.4,2.4l0,0l1.3,2.5l0,0l2.5,1.3l0,0l2.3,2.3l0,0l1.3,2.7l0,0h2.8l0,0h2.1
		l0,0l1,2.1l0,0l2.4,4.9l0,0l1.4,2.8l0,0h3l0,0l2.4-1.2l0,0l3.7,1.4l0,0l2.8-4.2l0,0l1.2-4.8l0,0l2.2-2.2l0,0l1.7-0.9l0,0l1.1,3.2
		l0,0l2.6,1.3l0,0l3.5,3.5l0,0l2.4,4.9l0,0l1.4,1.4l0,0l2.4,1.2l0,0l3.2,3.2l0,0l1.3-10.8l0,0l2-2l0,0l2.4,1.2l0,0l1.5-1.5l0,0
		l2.2-1.1l0,0h2.8l0,0l0.9-4.6l0,0l2.2,5.4l0,0l1.7-3.5l0,0l1.6-0.8l0,0l2.3,6.8l0,0l1.5,1.5l0,0h2.7l0,0h2.7l0,0l1.4-1.4l0,0
		l2.5-2.5l0,0l2.5-5l0,0l1.1-5.7l0,0h2.2l0,0l1.2-1.2l0,0h2.2l0,0h2.9l0,0l1.3-7.7l0,0l2.4-4.8l0,0l2.5-3.7l0,0l1.2-10.8l0,0
		l2.4-1.2l0,0l2.5-11.3l0,0l1-7.8l0,0l1.7,3.4l0,0h1.9l0,0l2.4-3.6l0,0h2.7l0,0l1.3-15.1l0,0l2.4-8.5l0,0l2.4-13.4l0,0l1.2-20.7l0,0
		l2.4-12.1l0,0l2.4-8.5l0,0l1.2-7.3l0,0l2.4-8.4l0,0l2.4-4.8l0,0l1.2-2.5l0,0l2.1-6.4l0,0l3.7-1.8l0,0l2.5-1.3l0,0l1.2-2.4l0,0
		l2.4-1.2l0,0l1.9-2.9l0,0l1.1,2.2l0,0l2.7-2.7l0,0l1.9,0.9l0,0l1.1,2.3l0,0l2.4,4.8l0,0l1.3,3.8l0,0l2.4,1.2l0,0l2.4,8.2l0,0
		l1.2,6.1l0,0l2.5,4.9l0,0l2.8,5.6l0,0l1.7-1.7l0,0l1.9-0.9l0,0l2.5,3.8l0,0l1.7-1.7l0,0l2.3-1.2l0,0l2.5-1.3l0,0l3.3-1.1l0,0h1.5
		l0,0l2.7-4l0,0l2.5-7.4l0,0l1.2-4.8l0,0l2.4-6.1l0,0l2.4-17.1l0,0l1.2-13.4l0,0l2.4-21.9l0,0l2.4-12.2l0,0l1.2-12.2l0,0l2.4-14.6
		l0,0l0.9-9l0,0l1.5,5.4l0,0l2.4,15.8l0,0l1.7,8.6l0,0l3.1-10.9l0,0l1.8-3.5l0,0l0.8,2.3l0,0l-1.4,1.7l0,0L1079,113l0,0l-2.7-13.5
		l0,0l-2.4-15.7l0,0l-0.1,3.5l0,0l-2.4,14.6l0,0l-1.2,12.2l0,0l-2.4,12.2l0,0l-2.4,21.8l0,0l-1.2,13.4l0,0l-2.5,17.3l0,0l-2.5,6.2
		l0,0l-1.2,4.8l0,0l-2.5,7.6l0,0l-3.1,4.7l0,0h-2.2l0,0h-1.7l0,0l-3.6,2.2l0,0l-2.2,1.1l0,0l-2.6,2.6l0,0l-2.8-4.2l0,0l-3.5,3.2l0,0
		l-3.6-7.1l0,0l-2.5-5.1l0,0l-1.2-6.2l0,0l-2.2-7.7l0,0l-2.4-1.2l0,0l-1.4-4.2l0,0l-2.4-4.7l0,0l-0.9-1.9l0,0l-4,2.9l0,0l-0.9-1.9
		l0,0l-1,1.4l0,0l-2.3,1.2l0,0l-1.2,2.4l0,0l-2.7,1.4l0,0l-3.5,3.5l0,0l-2,4.2l0,0l-1.3,2.5l0,0l-2.4,4.7l0,0l-2.4,8.3l0,0l-1.2,7.3
		l0,0l-2.4,8.5l0,0l-2.4,12l0,0l-1.2,20.7l0,0l-2.5,13.6l0,0l-2.4,8.4l0,0l-1.3,16.1l0,0H977l0,0l-2.4,3.6l0,0h-3.3l0,0l-0.7,3.4
		l0,0L968,305l0,0l-2.3,1.2l0,0l-1.2,10.4l0,0l-2.6,3.9l0,0l-2.3,4.5l0,0l-1.4,8.6l0,0h-4l0,0h-1.7l0,0l-1.2,1.2l0,0h-1.7l0,0
		l-1,4.9l0,0l-2.7,5.3l0,0l-2.6,2.6l0,0l-1.8,1.8l0,0h-3.2l0,0H935l0,0l-2.1-2.1l0,0l-1.9-5.7l0,0l-2.8,5.5l0,0l-1.7-4.2l0,0
		l-0.3,1.5l0,0h-3.5l0,0l-1.8,0.9l0,0l-1.9,1.9l0,0l-2.4-1.2l0,0l-2.7,13.9l0,0L909,355l0,0l-2.4-1.2l0,0l-1.6-1.6l0,0l-2.4-4.9l0,0
		l-2.2-2.2l0,0l-3.8-2.4l0,0l-0.8-2.4l0,0l-2.2,2l0,0l-1.2,4.7l0,0l-3.5,5.3l0,0l-3.5-1.7l0,0l-2.8,1.2l0,0h-4l0,0l-1.7-3.4l0,0
		l-2.4-4.9l0,0l-0.7-1.4l0,0h-1.3l0,0h-3.6l0,0l-1.6-3.2l0,0l-2-2l0,0l-2.7-1.4l0,0l-1.4-2.7l0,0l-2.2-2.2l0,0l-1.9-1.9l0,0h-1.2
		l0,0l-2.4-2.4l0,0h-1.2l0,0l-2.8-2.8l0,0l-2.4-1.2l0,0l-3.3-0.9l0,0l-3-3l0,0l-1.2-1.2l0,0l-2.4-2.4l0,0l-2.6-2.6l0,0l-0.8-1.7l0,0
		h-2.3l0,0l-2.9-4.3l0,0l-3.7-3.7l0,0l-1.1-2.2l0,0l-1.9-0.9l0,0l-2.7-1.3l0,0l-1.2-1.2l0,0l-2.4-1.2l0,0l-2.6-2.6l0,0l-3.2-2.1l0,0
		l-2-1l0,0l-1.9,0.8l0,0l-0.9,1.7l0,0l-2.4,8.3l0,0l-2.5,13.5l0,0l-1.5,2.9l0,0l-2.3,2.3l0,0l-2.3,9.3l0,0l-1.3,3.9l0,0l-4.6,7l0,0
		l-1.6-4.9l0,0l-2.2,3.8l0,0l-1.3,5.2l0,0l-3,3l0,0l-4.6,2.3l0,0l-3.1,6l0,0l-2.6-11.7l0,0l0.9-1.9l0,0l-2.9,2.9l0,0l-3.1,1.5l0,0
		h-1.2l0,0l-2.4,1.2l0,0h-2.9l0,0l-2,1.5l0,0l-1.2,4.9l0,0l-3.3,3.3l0,0h-3.2l0,0l-3.7,1.4l0,0l-3.9-2l0,0l-1.4-4.3l0,0l-2.3-5.9
		l0,0l-2.4-3.6l0,0l-1-2l0,0l-2.4-1.2l0,0l-1.2-2.4l0,0l-1.9-0.9l0,0l-2-1l0,0l-1.9,1.9l0,0l-3.7,3.7l0,0l-2.5-2.5l0,0l-2.4-2.4l0,0
		l-2.6-2.6l0,0l-1.3-2.6l0,0l-2.6-3.9l0,0l-1.2-5.9l0,0l-1.8-1.8l0,0l-2.8-1.4l0,0l-1.2-3.6l0,0l-1.8-0.9l0,0l-2.7-1.3l0,0l-1.2-1.2
		l0,0l-1.8-0.9l0,0h-1.2l0,0l-1.2,1.2l0,0h-3.2l0,0h-2.4l0,0h-1.2l0,0H682l0,0l-1.8-1.8l0,0l-2.4-2.4l0,0l-2.6-2.6l0,0l-1.2-2.4l0,0
		l-2.4-2.4l0,0l-2.6-5.2l0,0l-1.1-3.4l0,0l-2.3-2.3l0,0l-2.7-4l0,0l-1.2-3.5l0,0l-2.5-2.5l0,0l-1.3-5.2l0,0l-2.2-5.6l0,0l-2.4-2.4
		l0,0l-1.1-2.2l0,0l-2.2-1.1l0,0l-2.6-2.6l0,0l-1.5-1.3l0,0l-1.6,3.1l0,0l-1.2,3.6l0,0l-2.6,5.2l0,0l-1.6,1.6l0,0l-2.4,1.2l0,0l-2,2
		l0,0l-2.2,4.4l0,0l-4.2-4.2l0,0l-2.6-2.6l0,0l-0.7,1.3l0,0l-3.1,3.1l0,0h-1.2l0,0l-1.9,1.9l0,0l-2.2,2.2l0,0l-1.9,3.8l0,0l-4.3-2.2
		l0,0l-1.8-0.9l0,0l-2.4,2.4l0,0h-1.2l0,0l-1.9,1.9l0,0l-4.9,4.9l0,0l-1.6-9.9l0,0l-1.6-0.8l0,0l-1.3-0.6l0,0l-2.7,2.7l0,0l-1.2,1.2
		l0,0l-2,2l0,0l-3.4,16.8l0,0l-3.1-6.2l0,0l-3.3,1.2l0,0h-2.1l0,0l-2-1l0,0l-2.2,4.1l0,0l-3.1,1.6l0,0l-3.6,1.8l0,0l-1.8,0.1l0,0
		l-1.6,3.2l0,0h-4l0,0l-1.6-0.8l0,0l-1.2,1.2l0,0l-2.4-1.2l0,0l-1.5,1.5l0,0l-1.2,1.2l0,0l-3,3l0,0h-1.9l0,0l-1,3.1l0,0l-2.3,1.2
		l0,0l-1.1,5.7l0,0l-2.6,2.6l0,0l-2.3,4.6l0,0l-1.2,2.4l0,0l-2.9,7.2l0,0h-2.9l0,0l-3.4,4.9l0,0h-4.2l0,0l-1.2-1.2l0,0h-3l0,0
		l-1-2.9l0,0l-4.6,0.5l0,0l-1.2-1.2l0,0H508l0,0l-2.4,1.2l0,0l-3.5,4.2l0,0l-2.7-1.3l0,0l-2.9,2.9l0,0l-2.2,1.1l0,0l-1.2,2.4l0,0
		l-3.4,1.7l0,0l-3.7,10.2l0,0l-3.9-7.8l0,0l-2.5,1.4l0,0l-2.1-1l0,0l-5,2.7l0,0l-0.6-1.6l0,0l-0.4,2.7l0,0l-2.6,1.3l0,0l-1.1,3.3
		l0,0l-2.7,2.7l0,0l-2.4,2.4l0,0l-1.2,1.2l0,0l-3.4,3.4l0,0l-2-1l0,0l-0.9,1.8l0,0h-3.6l0,0H450l0,0l-4,2.4l0,0h-1.2l0,0l-1.5,0.8
		l0,0L441,380l0,0l-1.6,1.6l0,0l-3.1,1.5l0,0h-2.1l0,0l-2.3,2.3l0,0l-2.1-3.2l0,0l-3.5,5.2l0,0l-1.2-7.3l0,0l-4.9,2.6l0,0l-0.7-2.1
		l0,0l-2.3,4.4l0,0l-2.4-1.2l0,0l-4,8l0,0l-1.4-7l0,0l-3.4,6.9l0,0l-2.1-2.1l0,0l-1.6,0.8l0,0h-2.9l0,0l-3.4,4.7l0,0l-2.3-2.3l0,0
		H392l0,0h-1.7l0,0l-1.2,1.2l0,0h-2.8l0,0l-3.2,1.6l0,0l-2.5,0.8l0,0h-2.4l0,0l-1.2,1.2l0,0h-3.2l0,0h-1.2l0,0h-1.7l0,0l-3.2,3.2
		l0,0l-2-2l0,0H364l0,0h-2.4l0,0h-1.2l0,0H358l0,0h-2.4l0,0h-1.2l0,0h-2l0,0L350,400l0,0h-1.6l0,0h-1.7l0,0l-1.2,1.2l0,0h-2.8l0,0
		l-2.4,1.2l0,0h-1.6l0,0h-2.4l0,0h-1.7l0,0l-1.2,1.2l0,0H330l0,0h-2.4l0,0h-1.2l0,0H324l0,0l-3.2,1.2l0,0h-2.9l0,0h-1.2l0,0h-2.4
		l0,0h-2.4l0,0h-1.2l0,0h-2.4l0,0h-2.4l0,0h-1.2l0,0H302l0,0h-1.2l0,0h-2.4l0,0H296l0,0h-1.2l0,0h-2.4l0,0H290l0,0h-1.2l0,0h-2.4
		l0,0H284l0,0h-1.2l0,0h-2.4l0,0H278l0,0h-1.2l0,0H274l0,0h-1.2l0,0h-2.4l0,0H268l0,0h-1.2l0,0h-2.4l0,0H262l0,0h-1.2l0,0h-2.4l0,0
		H256l0,0h-1.2l0,0h-2.4l0,0h-1.2l0,0h-2.4l0,0h-2.4l0,0h-1.2l0,0h-2.4l0,0H240l0,0h-1.2l0,0h-2.4l0,0H234l0,0h-1.2l0,0h-2.4l0,0
		H229l0,0h-2l0,0l-2.4,1.2l0,0H223l0,0h-2.4l0,0h-2.4l0,0H217l0,0h-2.4l0,0H212l0,0h-1.2l0,0h-2.4l0,0H206l0,0h-1.2l0,0h-2.4l0,0
		H201l0,0V405.1z"/>
</g>
<g>
	<title>Path 598</title>
	<path class="st3" d="M182.8,405.1L182.8,405.1h1.2l0,0h2.4l0,0h2.4l0,0h1.2l0,0h2.4l0,0h2.4l0,0h1.2l0,0h2.4l0,0h2.4l0,0h1.2l0,0
		h2.4l0,0h1.2l0,0h2.4l0,0h2.4l0,0h1.2l0,0h2.4l0,0h2.4l0,0h1.2l0,0h2.6l0,0l2.4-1.2l0,0h3.5l0,0h2.4l0,0h1.2l0,0h2.4l0,0h1.2l0,0
		h2.4l0,0h2.4l0,0h1.2l0,0h2.6l0,0l2.4-1.2l0,0h3.5l0,0h2.4l0,0h1.2l0,0h2.7l0,0l1.2-1.2l0,0h2.2l0,0h2.4l0,0h1.2l0,0h2.4l0,0h2.4
		l0,0h1.2l0,0h2.6l0,0l2.4-1.2l0,0h3.5l0,0h1.4l0,0l2.3-1.1l0,0l2.6,1.3l0,0l1.3-1.3l0,0h2.3l0,0l2.4-1.2l0,0h1.2l0,0l2.4-1.2l0,0
		h2.5l0,0l1.3-1.3l0,0l2.3-1.2l0,0l2.3-1.2l0,0h3.5l0,0h1.4l0,0l2.6-1.3l0,0l2.3-1.2l0,0h1.2l0,0l2.6-1.3l0,0l2.3-2.3l0,0h3.5l0,0
		l2.4-1.2l0,0h1.2l0,0l2.6-1.3l0,0l1.2-1.2l0,0l2.3-1.2l0,0l2.5-1.3l0,0l1.3-1.3l0,0l2.5-2.5l0,0l2.4-3.6l0,0l3.3-2.2l0,0h2.7l0,0
		l1.2-2.4l0,0h2.1l0,0h1.2l0,0h2.7l0,0l2.6-2.6l0,0l1.3-1.3l0,0l2.3-5.8l0,0h2l0,0h1.5l0,0l2.6-3.9l0,0l2.4-2.4l0,0l3.1-2.1l0,0
		l2.6,2.6l0,0l1.6-1.6l0,0l2.4-1.2l0,0l1.2-1.2l0,0l2.2-1.1l0,0h1.9l0,0l1.1,2.3l0,0l2.7,1.4l0,0h2.8l0,0l1.3-1.3l0,0l2.1-1l0,0
		l2.1,1l0,0l1.9,1.9l0,0l2.7-9.5l0,0l1.1-3.2l0,0h2l0,0h2.7l0,0l1.4-1.4l0,0l2.5-3.7l0,0l1.9-3.8l0,0l0.9,1.9l0,0l3.1-1.6l0,0
		l2.5-3.7l0,0l3.3,0.4l0,0l1.5-1.5l0,0l2.1-2.1l0,0l2,1l0,0l1.2,1.2l0,0l2.5,1.3l0,0l3.1,1.5l0,0l1.3-3.9l0,0h1.7l0,0l2.7,2.7l0,0
		l1.5-1.5l0,0h2.2l0,0h2.4l0,0l3.3,1.1l0,0l1.5,1.5l0,0l2.3-1.2l0,0l2.1,3.1l0,0l1.3,4l0,0h2.9l0,0h2.4l0,0h1.7l0,0l2.5-8.9l0,0
		l2.5-3.7l0,0l1.2-7.4l0,0l2.4-5.9l0,0l3.1-0.9l0,0h2.7l0,0l3.1-0.1l0,0l2.3,1.2l0,0l1.3,1.3l0,0h2.4l0,0l3,2.9l0,0l1.1-3.4l0,0
		l1.8,2.7l0,0l1.3,1.3l0,0l2.9,1.5l0,0l2.3-2.3l0,0l3.8-0.3l0,0h2.3l0,0h1.5l0,0l2.4-2.4l0,0h1.8l0,0l1.2,2.4l0,0h2.7l0,0l2.2,1.1
		l0,0l3.5,3.5l0,0l1.2,3.5l0,0l2.8,7l0,0l2.9-2.9l0,0l3.3,1.2l0,0h2.6l0,0l3.9,1.4l0,0l2-4.1l0,0l0.8,2.5l0,0l3.4,1.7l0,0l1.2-8.5
		l0,0l1.8,0.9l0,0h2.6l0,0h1.4l0,0l2.2-1.1l0,0l2.1,2.1l0,0l3.5,11.9l0,0l2.5,8.6l0,0l1.3,2.7l0,0l2.4,1.2l0,0l1.4,2.8l0,0l2.8-1.4
		l0,0h2.5l0,0l1.5-1.5l0,0l2.3-7l0,0h1.7l0,0l3.8,2.4l0,0h2.6l0,0h1.2l0,0h2.3l0,0l2.2,1.1l0,0l1.2,1.2l0,0l2.3,1.2l0,0l1.2,2.4l0,0
		l2.7,1.4l0,0h2.6l0,0l3.5,1.2l0,0h2.8l0,0l1.2-1.2l0,0h2.2l0,0h2.1l0,0l1.2,2.4l0,0h3.2l0,0l1.1-3.4l0,0l1.7,0.9l0,0l2.4,2.4l0,0
		l1.4,1.4l0,0h2.8l0,0l2.2-1.1l0,0l3.2,10.6l0,0l2.8,1.4l0,0h1.5l0,0l2.3-1.1l0,0l2.3,1.1l0,0h1.6l0,0l2.7-2.7l0,0l1-3.1l0,0
		l1.8,0.9l0,0l2.6,1.3l0,0h1.5l0,0l2.4-1.2l0,0h2.5l0,0l1.3-1.3l0,0l2.3-1.2l0,0l2.3-1.2l0,0l3.1,1.1l0,0l1.2,2.4l0,0l2.5,1.3l0,0
		l2.2,2.2l0,0l1.2,6.2l0,0l2.7,1.3l0,0l2.6,1.3l0,0h1.4l0,0h2.4l0,0h2.7l0,0l1.4-1.4l0,0l2.5-3.8l0,0l1.2-7.3l0,0l2.3-3.5l0,0
		l2.5-2.5l0,0l1.2-5.8l0,0h2.1l0,0l2.8-1.4l0,0l0.8-2.5l0,0l2,4.1l0,0l3.2-1.6l0,0l1-2.1l0,0l2.2,1.1l0,0l2.6-1.3l0,0l3.9,1.5l0,0
		l1.3-5.1l0,0h1.8l0,0l3,1.5l0,0l1.3-6.6l0,0l2.3-1.1l0,0l2.6-2.6l0,0l1.2-5.8l0,0h2.3l0,0l2.7-4l0,0l0.9-2.8l0,0l2.2,2.2l0,0
		l1.3-1.3l0,0l2.3,1.2l0,0l2.6-1.3l0,0h1.2l0,0l2.7-1.3l0,0l2.3-2.3l0,0l3.4,1.3l0,0l2.2-1.1l0,0l1.5,3l0,0l3-6l0,0l1.1-5.4l0,0
		l2.1,1.1l0,0l2.7-2.7l0,0l3.5,0.4l0,0l1.9-3.7l0,0l0.9,5.6l0,0l2.5,3.7l0,0l2.4,8.4l0,0l1.2,9.9l0,0l2.7,2.6l0,0l2.9,1.5l0,0
		l1.5-1.5l0,0l1.6-1.6l0,0l1.1,8.6l0,0l2.7,4l0,0h3l0,0l1.5-1.5l0,0l2.4-10.8l0,0l2.5-1.2l0,0l1.3-10l0,0l2.4-8.5l0,0l2.4-13.4l0,0
		l1.2-3.5l0,0l2.4-2.4l0,0l1-2l0,0l1.7,0.8l0,0l3,7.6l0,0l1.6-6.2l0,0h2.1l0,0l2.2-1.1l0,0l3.9,1.1l0,0l2-1l0,0l0.9,1.9l0,0l2.8,5.6
		l0,0l1.4-1.4l0,0l2.3,2.3l0,0l2.7-1.3l0,0h3.7l0,0l2.4-1.2l0,0l3.4,1.2l0,0h2.6l0,0l3.2,2.3l0,0l2.4,2.4l0,0l1.2,1.2l0,0l2.3,2.3
		l0,0l1.5,22.8l0,0l2.9-16.9l0,0l2.4,7.1l0,0l1.6-8l0,0l2-1l0,0h2.3l0,0h1.7l0,0l1.9-10.3l0,0l2.5,16.5l0,0l1.5-11.7l0,0l1.6,4l0,0
		l1.5,1.5l0,0h2.7l0,0h2.9l0,0l1.3-3.8l0,0l1.8-0.9l0,0l2.7,2.7l0,0l1.6-3.2l0,0l2.4-3.6l0,0l2.5-3.7l0,0l1.2-3.6l0,0l2.3-2.3l0,0
		l1.3-1.3l0,0l2-8.8l0,0l1.8,6.2l0,0l1.2,9.9l0,0l3,3l0,0l3-3l0,0l1.3-3.8l0,0l2.4-13.2l0,0l2.5-2.5l0,0l1.2-12.7l0,0l2.1,1.1l0,0
		l2.8-4.1l0,0l1.1-2.1l0,0h2.5l0,0l1.3-3.8l0,0l1.5-0.8l0,0l2.5,11.3l0,0l2-2l0,0l2.5-3.7l0,0l2.5-3.7l0,0l1.2-3.5l0,0l2.2-1.1l0,0
		l2.5-1.3l0,0l1.3-1.3l0,0l2.3-3.4l0,0l3.6,1.4l0,0l2.2-4.3l0,0l1,2.1l0,0l2.7-2.7l0,0l1.8,0.9l0,0l1.4,4.1l0,0l2.9-1.5l0,0h1.9l0,0
		l1,2.1l0,0l2.4,4.8l0,0l1.2,12.2l0,0l2.5,3.8l0,0l2.8,4.3l0,0l1.6-1.6l0,0h2l0,0l3,1.5l0,0l1.3-8.1l0,0l2.3-8.2l0,0l2.4-1.2l0,0
		l1-2.1l0,0l1.7,0.8l0,0l2.3,5.9l0,0l1.3,3.8l0,0l2.5,2.5l0,0l1.5,1.5l0,0l2.6-1.3l0,0l1.9,1l0,0l1.4,4.1l0,0l2.4-1.2l0,0l2.2,6.6
		l0,0l1.4,6.8l0,0l2.8-1.4l0,0l2.1,2.1l0,0l1.5,1.5l0,0l2.7-1.3l0,0h1.5l0,0l2.4-7.3l0,0h1.7l0,0l3.6,2.4l0,0l2.8,1.4l0,0l3.4,1.2
		l0,0l3-1.5l0,0l1.1-3.2l0,0l2.3,1.1l0,0l2.6-3.8l0,0l3.2,1.2l0,0h1.5l0,0l2.6-1.3l0,0l2.5-1.3l0,0l1.2-1.2l0,0l2.3-1.2l0,0l2.5-1.3
		l0,0l3.5-1.1l0,0l2-2l0,0l1.2,2.4l0,0l2.6-2.6l0,0l1.2,1.2l0,0l2.6-2.6l0,0l2.4,1.2l0,0l3,3.1l0,0l2.7,9.5l0,0l1.9-1.9l0,0
		l-2.5,4.3l0,0l-3.2-11.3l0,0l-1.2-2.5l0,0l-2.8-0.9l0,0l-2.8,2.8l0,0l-1.2-1.2l0,0l-2.9,2.9l0,0l-1.2-2.4l0,0l-3.6,1.2l0,0
		l-3.6,2.2l0,0l-2.2,1.1l0,0l-1.2,1.2l0,0l-2.7,1.3l0,0l-2.8,1.4l0,0h-2.1l0,0l-2.4-1.2l0,0l-2.6,4.2l0,0l-2-1l0,0l-0.8,2.4l0,0
		l-4.3,2.1l0,0l-2.1-2.1l0,0l-4.5-0.9l0,0l-2.7-1.3l0,0l-1.3-0.9l0,0l-2.4,7.3l0,0h-2.1l0,0l-3.2,1.6l0,0l-2.1-2.1l0,0l-1.5-1.5l0,0
		l-3.4,1.7l0,0l-1.7-8.3l0,0l-1.7-5.2l0,0l-2.4,1.2l0,0l-1.6-4.9l0,0l-3.7,0.9l0,0l-2.1-2.1l0,0l-2.7-2.7l0,0l-1.3-4l0,0l-2.2-5.4
		l0,0l-0.9,1.3l0,0l-2.3,1.1l0,0l-2.2,7.6l0,0l-1.6,9.6l0,0l-4.3-2.1l0,0h-1.2l0,0l-2.3,2.3l0,0l-3.7-5.5l0,0l-2.7-4l0,0l-1.2-12.3
		l0,0l-2.3-4.6l0,0l-0.7-1.4l0,0l-4.8,2l0,0l0.3-6l0,0l-3.9,3l0,0l-0.7-1.4l0,0l-1.6,3.2l0,0l-3.7-1.8l0,0l-1.8,3l0,0l-1.6,1.6l0,0
		l-2.7,1.3l0,0l-1.8,0.9l0,0l-1.1,3.2l0,0l-2.6,3.9l0,0l-2.5,3.8l0,0l-3.7,3.7l0,0l-2.6-11.9l0,0l-1.1,4l0,0H927l0,0l-0.8,1.5l0,0
		l-3.2,5l0,0l-1.5-0.7l0,0l-1,11.4l0,0l-2.5,2.5l0,0l-2.4,12.9l0,0l-1.4,4.2l0,0l-4,4l0,0l-4.2-4.2l0,0l-1.3-10.2l0,0l-0.4-1.5l0,0
		l-1,4.4l0,0l-1.6,1.6l0,0l-2.1,2.1l0,0l-1.2,3.5l0,0l-2.6,3.9l0,0l-2.4,3.6l0,0l-2.3,4.6l0,0l-3.3-3.3l0,0l-2,4.5l0,0h-3.7l0,0
		h-3.2l0,0l-2-2l0,0l-1.9,15.8l0,0l-2.8-18l0,0l-0.8,4.2l0,0h-2.7l0,0h-2l0,0l-1.2,0.6l0,0l-2.4,11.9l0,0l-2.3-6.8l0,0l-3.6,21.6
		l0,0l-2.4-32l0,0l-1.9-1.9l0,0l-1.2-1.2l0,0l-2.4-2.4l0,0l-1.9-1.9l0,0h-3.3l0,0l-2.4-1.2l0,0l-2.8,1.2l0,0H836l0,0l-4,1.6l0,0
		l-2.1-2.1l0,0l-1.7,1.7l0,0l-3.6-7.1l0,0l-1.6-0.2l0,0h-3.6l0,0H817l0,0h-1.4l0,0l-2.2,9l0,0l-4.3-10.7l0,0l-3.1,3.3l0,0l-1,3.1
		l0,0l-2.4,13.3l0,0l-2.4,8.5l0,0l-1.3,10.6l0,0l-2.5,1.3l0,0l-2.4,10.6l0,0l-2.1,2.1l0,0h-4.2l0,0l-3.2-4.8l0,0l-0.8-6.5l0,0
		l-1.9,1.9l0,0l-3.9-1.9l0,0l-3.1-3.1l0,0l-1.3-10.2l0,0l-2.3-8.1l0,0l-2.5-3.7l0,0l-0.4-2.1l0,0l-0.7,1.5l0,0l-2.9-1.4l0,0
		l-3.6,3.6l0,0l-1.5-0.7l0,0l-0.8,4l0,0l-4.2,8.3l0,0l-2-4.1l0,0l-1.6,0.8l0,0l-2.9-1.4l0,0l-2.1,2.1l0,0l-3.1,1.5l0,0h-1.2l0,0
		l-2.9,1.4l0,0l-2.1-1l0,0l-1.6,1.6l0,0l-1.6-1.6l0,0L730,325l0,0h-2l0,0l-1,5.2l0,0l-3,3l0,0l-1.9,1l0,0l-1.5,7.5l0,0l-4.2-2.1l0,0
		l-2,5.7l0,0l-4.1-2l0,0l-3.2,1.4l0,0l-1.6-0.8l0,0l-0.7,1.3l0,0l-4.6,2.3l0,0l-1.3-2.6l0,0l-3.6,1.9l0,0H694l0,0l-1,5.2l0,0
		l-2.7,2.7l0,0l-2.1,3.2l0,0l-1.2,7.3l0,0l-2.8,4.1l0,0l-1.9,1.9l0,0h-3.2l0,0h-2.4l0,0H675l0,0l-2.8-1.4l0,0L669,368l0,0l-1.3-6.4
		l0,0l-1.8-1.8l0,0l-2.7-1.4l0,0L662,356l0,0l-1.5-0.8l0,0l-2.4,1l0,0l-2.2,1.1l0,0l-1.5,1.5l0,0h-2.8l0,0l-2.4,1.2l0,0H647l0,0
		l-2.8-1.4l0,0l-1.2,1.8l0,0l-3.3,3.3l0,0h-2.4l0,0l-2-1l0,0l-2,1l0,0h-2.1l0,0l-3.6-1.8l0,0l-2.5-10.1l0,0l-1.6,0.9l0,0H620l0,0
		l-1.8-1.8l0,0l-2.2-2.2l0,0l-1.3,2.8l0,0h-4.9l0,0l-1.2-2.4l0,0h-1.3l0,0h-1.7l0,0l-1.2,1.2l0,0h-3.6l0,0l-2.4-1.2l0,0h-3.6l0,0
		l-3.4-1.7l0,0l-1.2-2.4l0,0l-2.2-1l0,0l-1.2-1.2l0,0l-1.8-0.9l0,0h-2l0,0h-1.2l0,0h-2.9l0,0l-3.1-1.5l0,0l-1.3-0.9l0,0l-2.2,6.5
		l0,0l-2.1,2.1l0,0h-2.8l0,0l-3.7,1.8l0,0l-1.8-3.5l0,0l-2.4-1.2l0,0l-1.6-3.1l0,0l-2.5-8.7l0,0l-2.3-10.5l0,0l-2.3-2.3l0,0
		l-1.6,0.8l0,0h-1.6l0,0h-2.9l0,0l-1.8,8.2l0,0l-5.4-2.7l0,0l-1.3,2.4l0,0l-3.7-1.8l0,0H529l0,0l-2.4-1.2l0,0l-3.9,3.9l0,0l-3.5-8.7
		l0,0l-1.1-3.3l0,0l-2.1-2.1l0,0l-2.8-1.9l0,0h-3.1l0,0l-1.2-2.4l0,0l-3,2.4l0,0h-2l0,0h-2l0,0l-3.2,1.6l0,0l-2.9,1.2l0,0l-3.9-1.9
		l0,0l-1.6-1.6l0,0l-1.4,2.2l0,0l-4-4l0,0h-2.4l0,0l-1.5-1.5l0,0l-2.2-1.1l0,0l-1.3-0.6l0,0l-4,0.8l0,0h-1.7l0,0l-2.6,6l0,0
		l-1.2,7.5l0,0l-2.5,3.7l0,0l-2.7,9.6l0,0h-2.6l0,0h-2.4l0,0H454l0,0l-1.6-4.7l0,0L451,329l0,0l-2.2,1.1l0,0l-1.9-1.9l0,0l-1.8-0.9
		l0,0h-3.2l0,0h-1.7l0,0l-2,2l0,0l-3.2-3.2l0,0l-1.8,4.4l0,0l-4.3-2.2l0,0l-2.7-1.3l0,0l-1.2-1.2l0,0l-2.5,1l0,0l-2.1,2.1l0,0
		l-2.4-1.2l0,0l-2.8,4.1l0,0l-4.5,2.2l0,0l-1.3,0.9l0,0l-2.6,3.9l0,0l-1.9,1.9l0,0h-3.2l0,0l-1.9,2.4l0,0l-3.3,11.5l0,0l-3.2-3.2
		l0,0l-1.4-0.7l0,0l-1.4,0.7l0,0l-1.5,1.5l0,0h-3.6l0,0l-3.4-1.7l0,0l-1-2l0,0l-2.7,0.9l0,0l-1.2,1.2l0,0l-2.4,1.2l0,0l-2.3,2.3l0,0
		l-2.8-2.8l0,0l-2,1.5l0,0l-2.3,2.3l0,0l-2.9,4.3l0,0h-2.2l0,0l-3.3,5.3l0,0l-1.5,1.5l0,0l-3,3l0,0h-3.2l0,0H348l0,0h-1.3l0,0
		l-1.2,2.4l0,0h-3.1l0,0l-1.8,0.9l0,0l-3.3,4.5l0,0l-2.6,2.6l0,0l-1.4,1.4l0,0l-2.7,1.3l0,0l-2.2,1.1l0,0l-1.2,1.2l0,0l-3.1,1.5l0,0
		h-1.2l0,0l-2.4,1.2l0,0h-2.9l0,0l-2.6,2.1l0,0l-3.1,1.5l0,0H311l0,0l-2,1l0,0l-2.8,1.4l0,0h-1.6l0,0H302l0,0l-2.8,1l0,0l-2.2,1.1
		l0,0l-1.5,1.5l0,0h-2.8l0,0l-2.4,1.2l0,0h-1.2l0,0l-2.4,1.2l0,0h-2.1l0,0l-1.6,1.6l0,0l-2.8-1.4l0,0l-2,1l0,0h-1.6l0,0H274l0,0
		l-3.2,1.2l0,0H268l0,0h-1.2l0,0h-2.4l0,0H262l0,0h-1.2l0,0h-2.4l0,0h-1.7l0,0l-1.2,1.2l0,0h-3.2l0,0h-1.2l0,0h-2.4l0,0h-2.4l0,0
		l-3.2,1.2l0,0H240l0,0h-1.2l0,0h-2.4l0,0H234l0,0h-1.2l0,0h-2.4l0,0H229l0,0h-2.4l0,0h-2.4l0,0L221,406l0,0h-2.9l0,0h-1.2l0,0h-2.4
		l0,0H212l0,0h-1.2l0,0h-2.4l0,0H206l0,0h-1.2l0,0h-2.4l0,0H201l0,0h-2.4l0,0h-2.4l0,0H195l0,0h-2.4l0,0h-2.4l0,0H189l0,0h-2.4l0,0
		H184l0,0h-1.2l0,0V405.1z"/>
</g>
<g>
	<title>Path 599</title>
	<path class="st4" d="M196.2,405.1L196.2,405.1h2.4l0,0h2.4l0,0h1.2l0,0h2.4l0,0h1.4l0,0l2.4-1.2l0,0h2.3l0,0h1.2l0,0h2.4l0,0h2.4
		l0,0h1.4l0,0l2.4-1.2l0,0h2.3l0,0h1.4l0,0l2.4-1.2l0,0h2.3l0,0h1.4l0,0l2.4-1.2l0,0h1.2l0,0l2.4-1.2l0,0h2.3l0,0h1.4l0,0l2.4-1.2
		l0,0h2.3l0,0h1.4l0,0l2.4-1.2l0,0h2.3l0,0h1.2l0,0h2.4l0,0h1.4l0,0l2.4-1.2l0,0h2.3l0,0h1.2l0,0h2.4l0,0h2.4l0,0h1.2l0,0h2.4l0,0
		h2.4l0,0h1.2l0,0h2.4l0,0h1.2l0,0h2.4l0,0h2.4l0,0h1.4l0,0l2.4-1.2l0,0h2.3l0,0h1.2l0,0h2.6l0,0l2.4-1.2l0,0h1.3l0,0l2.5-2.5l0,0
		l2.6-1.3l0,0l1.3-3.8l0,0l2.3-2.3l0,0l1.2-1.2l0,0l2.4-2.4l0,0l2.4-2.4l0,0l3.2-2.2l0,0l2.7,1.4l0,0l1.3-2.6l0,0h2.2l0,0l2.8-1.4
		l0,0l1.3-5l0,0l2.4-3.7l0,0l1.2-4.7l0,0l2.3-1.1l0,0l2.6-2.6l0,0l1.3-3.8l0,0l2.4-6l0,0l2.5-4.9l0,0l1.2-4.9l0,0l2.4-6l0,0l2.5-4.9
		l0,0l1.2-4.9l0,0l2.4-8.4l0,0l3.5-2.3l0,0l2.1-2.1l0,0l4.1-0.4l0,0l2.5-5l0,0l3.3,0.4l0,0l2.6-2.6l0,0l3.8-1.4l0,0l2.6-3.9l0,0
		l1-3.9l0,0l2.1,2.1l0,0l1.6-1.6l0,0l2.5-2.5l0,0l2.5-3.8l0,0l1.2-8.5l0,0l2.3-3.5l0,0l2.4-2.4l0,0l1.3-1.3l0,0l2.6-3.8l0,0
		l2.4-98.9l0,0l2.6,1.8l0,0l1.2,3.5l0,0l2.5,5l0,0l2.4,2.4l0,0l1.1,3.4l0,0l2.5,110.3l0,0l2.6-1.3l0,0l1.1,6.7l0,0l2.5,2.5l0,0
		l2.4,4.8l0,0l1.3,2.6l0,0l2.4,1.2l0,0l1.1,3.4l0,0l2.5,7.4l0,0l2.5,2.5l0,0l1.2,1.2l0,0l2.4,2.4l0,0l2.4,3.6l0,0l1.2,2.5l0,0
		l2.9,2.9l0,0l2.4-2.4l0,0l3.2,4.4l0,0l2.5,2.5l0,0l1.2,1.2l0,0l2.4,2.4l0,0l1.2,1.2l0,0l2.6,2.6l0,0h2.4l0,0l3.5,4.7l0,0l2.5,1.2
		l0,0l1.3,1.3l0,0h2.7l0,0h2.2l0,0l1.2,1.2l0,0h2.7l0,0h1.2l0,0h2.6l0,0l2.4-1.2l0,0l3.2,1.2l0,0l2.3,1.2l0,0l1.3,1.3l0,0h2.5l0,0
		l2.1,1.1l0,0l1.3,2.6l0,0h2.8l0,0h1.2l0,0h2.6l0,0l2.4-1.2l0,0h1.2l0,0l2.4-1.2l0,0h2l0,0l1.2,1.2l0,0h2.7l0,0h2.2l0,0l1.2,1.2l0,0
		h2.4l0,0l2.4,2.4l0,0h1.3l0,0l2.4,1.2l0,0h1.2l0,0l2.6,1.3l0,0l2.3-1.2l0,0l1.2,1.2l0,0l2.8-1.4l0,0l2.3-1.2l0,0h3.5l0,0h2.4l0,0
		h1.2l0,0h2.4l0,0h1.2l0,0h2.4l0,0h2.4l0,0h1.4l0,0l2.3-1.1l0,0l2.6,1.3l0,0l1.3-1.3l0,0h2l0,0l2.4,1.2l0,0h1.4l0,0h2.2l0,0l1.3,1.3
		l0,0l2.7-1.3l0,0h2.3l0,0h1.2l0,0h2.4l0,0h2.7l0,0l3.1-0.1l0,0l2.3,1.2l0,0l1.2,1.2l0,0l2.4,1.2l0,0l2.5,2.5l0,0h1.5l0,0h2.8l0,0
		l1.2-2.4l0,0h2.2l0,0l2.7-1.4l0,0l1.2-2.4l0,0l2.3-1.1l0,0l2.3-1.2l0,0l3.4,1.2l0,0h2.3l0,0l3.8,2.4l0,0h1.2l0,0l2.3,1.2l0,0
		l2.6,1.3l0,0h1.4l0,0h2.4l0,0h2.4l0,0l3.5,1.2l0,0h2.3l0,0l1.2,1.2l0,0h2.7l0,0h2.4l0,0h1.2l0,0h2.2l0,0l1.2,1.2l0,0h2.8l0,0
		l2.6-1.3l0,0l3.1,0.1l0,0h2.6l0,0l3.4,1.2l0,0l2.6,1.3l0,0h1.4l0,0h2.4l0,0h1.2l0,0h2.4l0,0h2.4l0,0l3.5,1.2l0,0h2.8l0,0l1.2-1.2
		l0,0h2.2l0,0h2.4l0,0h1.2l0,0h2.4l0,0h1.2l0,0h2.4l0,0h2.4l0,0h1.2l0,0h2.4l0,0h2.4l0,0h1.2l0,0h2.4l0,0h2.2l0,0l1.2,1.2l0,0h2.7
		l0,0h2.4l0,0h1.2l0,0h2.4l0,0h1.4l0,0l2.4-1.2l0,0h2.3l0,0h1.2l0,0h2.4l0,0h2.4l0,0h1.2l0,0h2.4l0,0h2.4l0,0h1.2l0,0h2.7l0,0
		l1.3-1.3l0,0l2.3-1.2l0,0l2.3-1.2l0,0h1.2l0,0l2.3-1.1l0,0l2.6,1.3l0,0l1.5-1.5l0,0l2.2-1.1l0,0h2.5l0,0l1.2-1.2l0,0h2.4l0,0
		l1.4-1.4l0,0l2.4-2.4l0,0l2.3-2.3l0,0l3.4-1.1l0,0l2.6,1.3l0,0l1.6-1.6l0,0l2.1-4.2l0,0l2.3,2.3l0,0l1.2-1.2l0,0l2.1,2.1l0,0
		l3.1,1.5l0,0l1.5-2.9l0,0l2.4-3.6l0,0l1.3-1.3l0,0l2.2-5.6l0,0l2.4,1.2l0,0l1.4-2.9l0,0l2.3-2.3l0,0l2.5-1.3l0,0l1.3-2.5l0,0
		l2.4-2.4l0,0l2.6-2.6l0,0l1.2-7.4l0,0l2.4-4.8l0,0l1.2-2.4l0,0l2.3-3.5l0,0l2.4-1.2l0,0l3.3-1.1l0,0h2.4l0,0h1.2l0,0h2.6l0,0
		l2.4-1.2l0,0h1.3l0,0l2.6-2.6l0,0l3.2-1l0,0h2.4l0,0h1.2l0,0h2.3l0,0l2.2,1.1l0,0l1.2,1.2l0,0l2.5,1.3l0,0l2.6,1.3l0,0h1.2l0,0
		l2.2,1.1l0,0l2.3,2.3l0,0l1.2,2.4l0,0l2.7,2.7l0,0h1.2l0,0l2.4,2.4l0,0h2.4l0,0l3.9,2.5l0,0l2.8-1.4l0,0l3.1,0.1l0,0h2.6l0,0
		l3.5,1.2l0,0h1.4l0,0h2.3l0,0l2.4,1.2l0,0h1.2l0,0l2.6,1.3l0,0l2.3-1.2l0,0l1.2,1.2l0,0l2.9-1.5l0,0l2.6-2.6l0,0l1.2-2.4l0,0
		l1.9-1.9l0,0l4.1-0.4l0,0l2.5-6.2l0,0l2.8,3.9l0,0h3.2l0,0l1.4-2.8l0,0l2.4-6l0,0l2.4-3.6l0,0l1.2-2.4l0,0l2.4-2.4l0,0l2.5-3.7l0,0
		l1.2-2.4l0,0l2.4-2.4l0,0l1.2-2.4l0,0l2.3-2.3l0,0l2.5-1.3l0,0l1.3-2.5l0,0l2.4-2.4l0,0l2.5-2.5l0,0l1.2-2.5l0,0l2.4-3.6l0,0
		l2.5-3.7l0,0l1.1-3.3l0,0h2.4l0,0l1.3-2.7l0,0l2.4-2.4l0,0l2.5-2.5l0,0l1.2-2.3l0,0l2.4-1.2l0,0l2.5-3.7l0,0l1.2-1.2l0,0l2.4-3.6
		l0,0l2.5-2.5l0,0l1.2-2.3l0,0l2.1-1.1l0,0l3.1,4.9l0,0h2.4l0,0l1.3,2.6l0,0l3.1-1.6l0,0l2.3-3.5l0,0l3.8-2.6l0,0l2.5-2.5l0,0
		l1.2-2.3l0,0l1.8-0.9l0,0l2.1,3.1l0,0l1.3,5.2l0,0h2.5l0,0l1.3,2.6l0,0l2.6-1.3l0,0l2.1,2.1l0,0l1.3,2.5l0,0l2.7,1.4l0,0h2.1l0,0
		l1.1,3.4l0,0l2.5,2.5l0,0l2.4,2.4l0,0l1.2,2.4l0,0l2.7,2.7l0,0h1.3l0,0l2.3,1.2l0,0l2.3,1.1l0,0l1.1,2.3l0,0l2.5,3.7l0,0l2.4,2.4
		l0,0l1.3,2.5l0,0l2.5,1.3l0,0l2.4,2.4l0,0l1.2,1.2l0,0l2.7,2.7l0,0l3-1.5l0,0l1.1-2.3l0,0h1.8l0,0l1.3,1.3l0,0l2.9-1.5l0,0l2.6-2.6
		l0,0l1.2-2.3l0,0l2.1-1.1l0,0h2.7l0,0l1.4-2.8l0,0l2.4-4.8l0,0l2.4-2.4l0,0l1.2-2.3l0,0l1.9-0.9l0,0l1.2,1.2l0,0l2.8-1.4l0,0
		l2.6-1.3l0,0l1.3-2.6l0,0l2.4-3.6l0,0l2.5-2.5l0,0l1.3-3.8l0,0l-0.2,4.4l0,0l-2.6,2.6l0,0l-2.3,3.4l0,0l-1.4,2.9l0,0l-3,1.5l0,0
		l-3.6,1.8l0,0l-1.2-1.2l0,0l-1.8,2.5l0,0l-2.4,2.4l0,0l-2.3,4.6l0,0l-1.7,3.4l0,0h-3.1l0,0l-1.5,0.8l0,0l-1.1,2.2l0,0l-2.9,2.9l0,0
		l-3.9,1.9l0,0l-1.6-1.6l0,0l-1.5,2l0,0l-4.2,2.1l0,0l-3.4-3.4l0,0l-1.2-1.2l0,0l-2.2-2.2l0,0l-2.7-1.4l0,0l-1.4-2.7l0,0l-2.4-2.4
		l0,0l-2.6-3.9l0,0l-1-2l0,0l-1.9-0.9l0,0l-2-1l0,0h-1.5l0,0l-3.2-3.2l0,0l-1.2-2.4l0,0l-2.2-2.2l0,0l-2.7-2.7l0,0l-0.9-2.8l0,0
		h-1.5l0,0l-3.4-1.7l0,0l-1.4-2.7l0,0l-1.3-1.3l0,0l-2.9,1.4l0,0l-1.5-3.1l0,0h-2.7l0,0l-1.5-5.9l0,0l-1.4-2l0,0l-1.5,2.4l0,0
		l-2.6,2.6l0,0l-3,3l0,0l-3.2,3.2l0,0l-4.5,2.2l0,0l-1.5-3.1l0,0h-2.4l0,0l-2.4-4.9l0,0l-2.2,2.9l0,0l-2.5,2.5l0,0l-2.4,3.6l0,0
		l-1.2,1.2l0,0l-2.6,3.9l0,0L959,255l0,0l-1.1,2.2l0,0l-2.6,2.6l0,0l-2.2,2.2l0,0l-1.6,3.2l0,0h-2.2l0,0l-0.9,2.6l0,0l-2.6,3.9l0,0
		l-2.4,3.6l0,0l-1.3,2.6l0,0l-2.6,2.6l0,0l-2.2,2.2l0,0l-1.4,2.7l0,0l-2.7,1.4l0,0l-2,2l0,0l-1.2,2.4l0,0l-2.4,2.4l0,0l-1.1,2.3l0,0
		l-2.6,3.9l0,0l-2.4,2.4l0,0l-1.1,2.3l0,0l-2.4,3.6l0,0l-2.4,6l0,0l-1.8,3.5l0,0h-4.7l0,0l-1.8-3.6l0,0l-1.7,5.5l0,0l-4.2,2.1l0,0
		l-1.8,0.1l0,0l-1.2,2.4l0,0l-2.9,2.9l0,0l-3.9,1.9l0,0l-1.2-1.2l0,0l-2.1,1l0,0l-2.9-1.4l0,0h-1.2l0,0l-2.4-1.2l0,0h-2l0,0h-1.6
		l0,0l-2.4-1.2l0,0h-3.6l0,0l-1.6-0.8l0,0l-4,2.3l0,0l-3.5-1.8l0,0l-3.3-0.9l0,0l-2.4-2.4l0,0h-1.2l0,0l-3.2-3.2l0,0l-1.2-2.4l0,0
		l-2-2l0,0l-1.8-0.9l0,0h-1.2l0,0l-2.8-1.4l0,0l-2.7-1.3l0,0l-1.2-1.2l0,0l-1.8-0.9l0,0h-2l0,0h-1.2l0,0h-2.4l0,0H831l0,0l-3.6,3.6
		l0,0h-1.5l0,0l-2.4,1.2l0,0h-2.9l0,0H819l0,0h-2.4l0,0h-1.7l0,0l-3.2,2l0,0l-2.1,3.2l0,0l-1.2,2.3l0,0l-2.3,4.6l0,0l-1.3,7.6l0,0
		l-2.8,2.8l0,0l-2.2,2.2l0,0l-1.4,2.7l0,0l-2.7,1.4l0,0l-2,2l0,0l-1.9,3.8l0,0l-2.3-1.1l0,0l-1.8,4.6l0,0l-1.4,1.4l0,0l-2.3,3.4l0,0
		l-2,4l0,0l-4.3-2.2l0,0l-1.4-1.4l0,0l-1.2,1.2l0,0l-1.9-1.9l0,0l-1.4,2.9l0,0l-2.4,2.4l0,0l-2.8-1.4l0,0l-2,1l0,0l-2.8,1.9l0,0
		l-2.4,2.4l0,0l-1.8,1.8l0,0h-2.4l0,0l-1.2,1.2l0,0h-2.8l0,0l-1.8,0.9l0,0l-1.9,1.9l0,0l-2.8-1.4l0,0l-2,1l0,0h-1.2l0,0l-2,1l0,0
		l-2.2,1.1l0,0l-1.5,1.5l0,0h-3.2l0,0h-1.2l0,0H729l0,0h-2.4l0,0h-1.2l0,0H723l0,0h-2.4l0,0h-1.2l0,0h-2l0,0l-2.4,1.2l0,0h-1.6l0,0
		H711l0,0h-1.2l0,0h-2.4l0,0h-3.2l0,0l-1.2-1.2l0,0h-2l0,0h-2.4l0,0h-1.2l0,0H695l0,0h-2.4l0,0h-1.2l0,0H689l0,0h-2.4l0,0h-1.2l0,0
		H683l0,0h-1.2l0,0h-2.4l0,0h-1.7l0,0l-1.2,1.2l0,0h-3.6l0,0l-2.4-1.2l0,0h-3.2l0,0h-2.4l0,0h-1.2l0,0h-2.4l0,0h-1.6l0,0l-2.8-1.4
		l0,0l-2-1l0,0h-3.6l0,0l-1.6-0.8l0,0l-3.6,2l0,0h-3.6l0,0l-1.2-1.2l0,0H639l0,0h-1.2l0,0h-2.4l0,0h-3.2l0,0L631,370l0,0h-2.1l0,0
		l-2.4-1.2l0,0h-3.2l0,0h-2.4l0,0h-1.6l0,0l-2.8-1.4l0,0l-2-1l0,0H613l0,0l-3.1-1.5l0,0l-3-0.9l0,0l-2.4-1.2l0,0l-2.4,1l0,0
		l-1.9,0.9l0,0l-1.2,2.4l0,0l-3.4,1.7l0,0h-1.7l0,0l-1.2,2.4l0,0h-3.6l0,0h-2l0,0l-2.8-2.8l0,0l-2.4-1.2l0,0l-1.2-1.2l0,0l-2.2-1.1
		l0,0l-1.3-0.6l0,0l-4,0.8l0,0h-2.4l0,0h-1.2l0,0h-2l0,0l-3.2,1.6l0,0l-1.6-1.6l0,0h-1.7l0,0h-1.6l0,0l-2.4-1.2l0,0h-1.2l0,0
		l-1.6,1.6l0,0l-2.8-1.4l0,0l-2,1l0,0h-1.6l0,0h-2.4l0,0h-2.4l0,0h-1.2l0,0h-2.4l0,0H538l0,0h-2.4l0,0h-2.4l0,0l-2.8,1l0,0l-3.6,1.8
		l0,0l-1.2-1.2l0,0l-2.1,1l0,0l-2.9-1.4l0,0h-1.2l0,0l-2.4-1.2l0,0h-1.5l0,0l-2.4-2.4l0,0h-2.4l0,0l-1.2-1.2l0,0h-1.7l0,0h-3.2l0,0
		l-1.2-1.2l0,0h-1.2l0,0l-2.4,1.2l0,0h-1.2l0,0l-2.4,1.2l0,0H493l0,0h-1.2l0,0h-3.6l0,0l-1.4-2.9l0,0l-1.5-0.8l0,0h-2.8l0,0
		l-1.5-1.5l0,0l-2.2-1.1l0,0l-2-1l0,0l-2.8,1.2l0,0h-2.9l0,0h-1.2l0,0h-3.2l0,0l-1.2-1.2l0,0h-1.7l0,0h-3.2l0,0l-1.5-1.5l0,0
		l-2.6-1.3l0,0l-2.6-3.9l0,0l-3-0.6l0,0l-3-3l0,0l-1.2-1.2l0,0l-2.4-2.4l0,0l-1.2-1.2l0,0l-2.6-2.6l0,0l-2.4-3.6l0,0l-2.2,2.6l0,0
		l-3.9-3.9l0,0l-1.3-2.6l0,0l-2.3-3.4l0,0l-2.3-2.3l0,0l-1.2-1.2l0,0l-2.7-2.7l0,0l-2.6-7.7l0,0l-1-2.9l0,0l-2.3-1.2l0,0l-1.5-3l0,0
		l-2.3-4.6l0,0l-2.6-2.6l0,0l-0.9-5.4l0,0l-2.8,1.4l0,0l-2.5-112.1l0,0l-1-3l0,0l-2.3-2.3l0,0l-2.6-5.2l0,0l-1-3.1l0,0l-2.4-1.2l0,0
		l1.9,5.6l0,0l-2.2,92.3l0,0l-2.8,4.2l0,0l-1.3,1.3l0,0l-2.3,2.3l0,0l-2.1,3.2l0,0l-1.2,8.5l0,0l-2.8,4.1l0,0l-2.6,2.6l0,0l-2.5,2.5
		l0,0l-1.4-1.4l0,0l-0.5,2l0,0l-2.9,4.3l0,0l-3.3,1.6l0,0l-3.7,2.8l0,0l-2.4-1.2l0,0l-2.6,5.2l0,0l-4.2,2.1l0,0l-2.2,0.5l0,0
		l-2.4,1.2l0,0l-3,8.7l0,0l-1.3,5l0,0l-2.5,5l0,0l-2.4,5.9l0,0l-1.2,4.9l0,0l-2.5,5l0,0l-2.4,6l0,0l-1.3,4l0,0l-2.9,2.9l0,0l-1.9,1
		l0,0l-1.1,4.4l0,0l-2.4,3.6l0,0l-1.3,5.4l0,0l-3.6,1.8l0,0H319l0,0l-1.5,3.1l0,0l-3.2-1.6l0,0l-1.4,0.7l0,0l-3.4,3.4l0,0l-2.4,2.4
		l0,0l-1.2,1.2l0,0l-2.1,2.1l0,0l-1.3,4l0,0l-2.8,1.4l0,0l-2.8,2.8l0,0h-1.5l0,0l-2.4,1.2l0,0h-2.9l0,0h-1.2l0,0h-2l0,0l-2.4,1.2
		l0,0h-1.6l0,0h-2.4l0,0h-2.4l0,0h-1.2l0,0H274l0,0h-1.2l0,0h-2.4l0,0H268l0,0h-1.2l0,0h-2.4l0,0H262l0,0h-1.2l0,0h-2l0,0l-2.4,1.2
		l0,0h-1.6l0,0h-2.4l0,0h-1.2l0,0h-2l0,0l-2.4,1.2l0,0h-1.6l0,0h-2l0,0l-2.4,1.2l0,0h-1.6l0,0h-2l0,0l-2.4,1.2l0,0h-1.2l0,0
		l-2.4,1.2l0,0H229l0,0h-2l0,0l-2.4,1.2l0,0H223l0,0h-2l0,0l-2.4,1.2l0,0H217l0,0h-2.4l0,0H212l0,0h-1.2l0,0h-2l0,0l-2.4,1.2l0,0
		h-1.6l0,0h-2.4l0,0H201l0,0h-2.4l0,0h-2.4l0,0L196.2,405.1L196.2,405.1z"/>
</g>
<g>
	<title>Path 600</title>
	<path class="st5" d="M202.3,405.1L202.3,405.1h2.4l0,0h1.2l0,0h2.4l0,0h2.4l0,0h1.2l0,0h2.4l0,0h2.4l0,0h1.2l0,0h2.4l0,0h2.4l0,0
		h1.2l0,0h2.4l0,0h2.7l0,0l1.2-1.2l0,0h2.2l0,0h1.2l0,0h2.4l0,0h2.4l0,0h1.2l0,0h2.4l0,0h2.4l0,0h1.2l0,0h2.4l0,0h2.4l0,0h1.2l0,0
		h2.4l0,0h1.2l0,0h2.4l0,0h2.4l0,0h1.2l0,0h2.4l0,0h2.4l0,0h1.2l0,0h2.4l0,0h2.4l0,0h1.2l0,0h2.4l0,0h1.2l0,0h2.4l0,0h2.4l0,0h1.4
		l0,0l2.4-1.2l0,0h2.3l0,0h1.2l0,0h2.4l0,0h2.4l0,0h1.2l0,0h2.4l0,0h2.4l0,0h1.2l0,0h2.7l0,0l1.2-1.2l0,0h2.2l0,0h2.4l0,0h1.2l0,0
		h2.4l0,0h2.7l0,0l1.2-1.2l0,0h2.2l0,0h2.4l0,0h1.2l0,0h2.4l0,0h1.4l0,0l2.4-1.2l0,0h2.3l0,0h1.2l0,0h2.4l0,0h2.4l0,0h1.2l0,0h2.6
		l0,0l2.4-1.2l0,0h3.5l0,0h1.4l0,0l2.4-1.2l0,0h2.5l0,0l1.2-1.2l0,0h2.3l0,0l2.4-1.2l0,0h3.6l0,0l2.4-1.2l0,0h3.5l0,0h2.4l0,0h1.4
		l0,0l2.4-1.2l0,0h3.3l0,0l2.9,2.9l0,0l1.4-2.9l0,0h2.2l0,0l2.6-1.3l0,0l3.4-1.1l0,0l2.8-1.4l0,0l1.2-3.5l0,0h2.2l0,0l1.3-1.3l0,0
		l2.2-1.1l0,0h2.3l0,0h1.5l0,0l2.4-2.4l0,0h2.4l0,0l1.4-1.4l0,0l2.3-2.3l0,0h2.4l0,0l1.2-1.2l0,0h2.4l0,0l1.3-1.3l0,0l2.1-1l0,0
		l2.3,1.1l0,0h1.4l0,0h2.4l0,0h2.8l0,0l1.2-2.4l0,0h2.2l0,0l2.8-1.4l0,0l1.2-4.7l0,0h2.2l0,0l2.4-2.4l0,0h1.2l0,0l2.6-2.6l0,0
		l1.3-1.3l0,0l2.4-3.6l0,0l2.5-2.5l0,0l1.2-4.9l0,0l2.4-2.4l0,0l2.4-3.6l0,0l3.4-3.4l0,0h1.9l0,0l4.1,4.1l0,0l1.5-3l0,0l2.4-1.2l0,0
		l2.5-5l0,0l3.6-3.6l0,0l2.6-2.6l0,0l1.2-4.9l0,0l2.4-3.6l0,0l1.7-2.5l0,0l1.1,4.6l0,0l3.3-3.3l0,0l1.1-3.4l0,0h1.9l0,0l2.2,1.1l0,0
		l1.3,1.3l0,0h3.1l0,0l2.5-7.6l0,0l3.2,0.4l0,0l2.8-2.8l0,0l1.2-2.3l0,0l1.9-0.9l0,0l2.3,2.3l0,0h1.6l0,0l2.4-1.2l0,0l3.1,3.5l0,0
		l2.4,1.2l0,0l1.4,4.3l0,0l2.7-2.7l0,0l1.9,1.9l0,0l1.2,3.6l0,0l2.7,2.7l0,0h2.4l0,0l3.4,2.3l0,0l1.2,3.5l0,0l2.7,2.7l0,0h2.3l0,0
		l1.2,2.4l0,0h2.7l0,0l2.4,1.2l0,0l3.4,2.3l0,0l2.3,1.2l0,0l1.2,2.4l0,0l2.5,1.3l0,0l1.2,1.2l0,0l2.5,1.3l0,0l2.6,1.3l0,0h1.2l0,0
		l2.6,1.3l0,0l2.3-1.2l0,0l3.8,2.4l0,0l2.6-1.3l0,0h3.5l0,0h2.2l0,0l4,2.6l0,0l1.3-1.3l0,0h2.2l0,0h2.4l0,0l3.3,2.3l0,0l2.4,1.2l0,0
		l1.2,1.2l0,0l2.5,1.3l0,0l2.6,1.3l0,0h1.6l0,0l2.7-2.7l0,0l1.2-2.4l0,0l2.4-2.4l0,0l2.5-3.7l0,0l1.2-2.4l0,0l2.4-2.4l0,0l2.3-2.3
		l0,0l3,2.3l0,0l2.4,2.4l0,0l1.3,2.7l0,0h2.7l0,0l2.1,1.1l0,0l1.2,2.4l0,0l3.2,1.6l0,0l1.4-4.2l0,0l2.3-2.3l0,0l2.4-1.2l0,0l1.3-1.3
		l0,0l2.4-2.4l0,0l2.6-1.3l0,0l1.1-3.2l0,0l2.2,1.1l0,0l2.8-2.8l0,0l1.2-2.4l0,0l2.4-2.4l0,0l1.2-2.3l0,0l2.3-1.1l0,0l1.9-0.9l0,0
		l1.1,2.2l0,0h2.6l0,0l2.4,2.4l0,0h1.2l0,0l2.3,2.3l0,0l2.3,2.3l0,0l1.4,7l0,0l3.1-3.1l0,0l3,2.3l0,0l2.7,1.3l0,0h1.4l0,0h2.6l0,0
		l2.2-1.1l0,0l3.4,3.4l0,0l2.4,1.2l0,0l1.2,1.2l0,0l2.7,1.3l0,0h2.6l0,0h1.4l0,0l2.7-1.4l0,0l1.3-2.5l0,0l2.4-2.4l0,0l2.5-2.5l0,0
		l1.1-3.4l0,0h2.2l0,0l2.6-2.6l0,0l3.2-2.2l0,0l2.3,1.1l0,0h1.4l0,0h2.4l0,0l3.3,2.3l0,0l2.3,1.2l0,0l1.2,2.4l0,0l2.7,1.4l0,0h2.2
		l0,0l1.2,2.4l0,0h3.1l0,0l2.6-4l0,0l1.2-2.5l0,0l2.5-6.2l0,0l1.2-6.1l0,0l2.4-4.8l0,0l2.4-7.3l0,0l1.2-3.5l0,0l2.3-2.3l0,0l2.5-2.5
		l0,0l1.2-3.7l0,0l2.3-3.4l0,0l1.6-0.8l0,0l1.1,4.4l0,0l2.6,1.3l0,0l2.4,2.4l0,0l3.5,4.7l0,0l1.2,3.6l0,0l2.6,5.2l0,0h2.8l0,0h1.7
		l0,0l2.5-10.2l0,0l2.4-7.3l0,0l1.2-7.3l0,0l2.4-8.4l0,0l2.5-4.9l0,0l1.2-8.5l0,0l1.8-3.7l0,0l0.8,1.5l0,0l2.6,1.3l0,0l3.1,1.5l0,0
		l1.4-4.3l0,0l2.4-6l0,0l2.2-2.2l0,0h1.2l0,0l2.6-2.6l0,0l1.8-1.8l0,0l0.8,1.6l0,0l2.4,7.2l0,0l1.2,7.3l0,0l2.5,6.3l0,0l2.4,2.4l0,0
		l1.2,3.6l0,0l2.5,4.9l0,0l2.4,3.6l0,0l1.2,6l0,0l2.5,8.6l0,0l2.4,4.9l0,0l1.2,3.6l0,0l2.5,4.9l0,0l2.4,3.6l0,0l1.2,2.4l0,0l2.5,3.7
		l0,0l1.3,1.3l0,0l2.3,2.3l0,0l2.4,7.1l0,0l1.2,6.1l0,0l2.5,4.9l0,0l2.4,4.9l0,0l1.2,2.5l0,0l2.5,3.7l0,0l2.7,2.7l0,0h1.2l0,0
		l2.3,2.3l0,0l1.2,1.2l0,0l2.5,2.5l0,0l2.6,1.3l0,0h1.4l0,0h2.3l0,0l2.4,1.2l0,0h1.2l0,0l2.3,1.2l0,0l2.3,1.2l0,0l3.8,3.8l0,0h1.3
		l0,0l2.4,1.2l0,0h2.6l0,0h1.2l0,0h2.4l0,0h2.4l0,0h1.2l0,0h2.4l0,0h2.4l0,0l3.4,1.2l0,0l2.6,1.3l0,0h1.5l0,0l2.6-1.3l0,0l1.2-1.2
		l0,0l2.3-1.2l0,0l2.3-1.2l0,0h3.7l0,0l2.6-1.3l0,0l1.2-1.2l0,0l2.4-1.2l0,0l2.6-2.6l0,0l1.2-2.5l0,0l2.4-3.6l0,0l3.5-3.5l0,0
		l2.6-1.3l0,0l1.2-3.6l0,0l2.2-1.1l0,0l2.6-1.3l0,0l1.3-2.6l0,0l2.4-4.8l0,0l2.5-2.5l0,0l1.2-6.1l0,0l2.3-3.5l0,0l3.6-3.6l0,0
		l2.5-3.8l0,0l1.2-4.9l0,0l2.3-3.4l0,0l2.5-1.2l0,0l1.3-2.7l0,0l2.5-7.4l0,0l2.4-11l0,0l1.2-7.2l0,0l2.4-6l0,0l2.5-6.1l0,0l1.2-6.1
		l0,0l2.4-6l0,0l0.9-1.9l0,0l1.8,0.9l0,0l2.5,2.5l0,0h1.6l0,0l2.7-1.4l0,0l2.6-3.9l0,0l1.1-3.3l0,0h2l0,0h2.2l0,0l1.3,1.3l0,0l3-1.5
		l0,0l0.9-1.9l0,0l1.8,1.8l0,0l2.9,2.9l0,0l1.3-1.3l0,0l2,1l0,0l2.2,1.1l0,0l1.1,3.4l0,0l2.6,7.7l0,0h2.6l0,0l3.9,2.5l0,0l2.8-1.4
		l0,0l1.3-1.3l0,0l2.5-2.5l0,0l1.2-3.6l0,0l2-2l0,0l2.6,1.3l0,0l1.1-2.2l0,0l2.1,2.1l0,0l2.1-1.1l0,0l1.1,4.6l0,0h2.6l0,0l2.2,3.3
		l0,0l1.4,2.7l0,0h3.3l0,0l1.3-8.9l0,0l2.4-4.8l0,0l2.5-9.8l0,0l1.2-8.5l0,0l2.4-12.1l0,0l2.4-9.7l0,0l1.2-2.4l0,0v2.8l0,0l-2.4,9.5
		l0,0l-2.4,12.1l0,0l-1.2,8.6l0,0l-2.5,10l0,0l-2.4,4.8l0,0l-1.4,9.8l0,0h-5.1l0,0l-1.7-3.3l0,0l-1.8-2.7l0,0h-2.9l0,0l-1-4l0,0
		l-1.6,0.8l0,0l-1.6-1.6l0,0l-0.9,1.8l0,0l-2.9-1.4l0,0l-2.4,4.8l0,0l-2.7,2.7l0,0l-1.4,1.4l0,0l-3.5,1.8l0,0l-3.5-1.8l0,0l-3.9-0.9
		l0,0l-2.8-8.5l0,0l-1-2.9l0,0l-1.8-0.9l0,0l-1.3-0.6l0,0l-1.6,1.6l0,0l-3.7-3.7l0,0l-5.2,2.1l0,0l-1.6-1.6l0,0h-1.7l0,0l-2,2.6l0,0
		l-2.8,4.3l0,0l-3.3,1.6l0,0h-2.4l0,0l-2.8-2.8l0,0l-3.2,6.3l0,0l-1.2,6.1l0,0l-2.5,6.2l0,0l-2.4,5.9l0,0l-1.2,7.2l0,0l-2.5,11.1
		l0,0l-2.5,7.5l0,0l-1.5,3.1l0,0l-2.5,1.3l0,0l-2,3l0,0l-1.2,4.9l0,0l-2.7,4.1l0,0l-2.6,2.6l0,0l-3.2,4.3l0,0l-1.3,6.3l0,0l-2.6,2.6
		l0,0l-2.3,4.6l0,0l-1.5,3l0,0l-3,1.5l0,0l-1.8,0.9l0,0l-1.2,3.6l0,0l-2.8,1.4l0,0l-2.2,2.2l0,0l-3.4,4.5l0,0l-1.3,2.6l0,0l-2.9,2.9
		l0,0l-2.4,1.2l0,0l-1.2,1.2l0,0l-3.1,1.5l0,0h-2.9l0,0l-2.8,1l0,0l-2.2,1.1l0,0l-1.2,1.2l0,0l-3.1,1.5l0,0h-2.1l0,0l-2.8-1.4l0,0
		l-2-1l0,0h-3.2l0,0h-2.4l0,0h-1.2l0,0h-2.4l0,0h-2.4l0,0h-1.2l0,0h-2.9l0,0l-2.4-1.2l0,0h-1.5l0,0l-3-3l0,0l-3.2-2.1l0,0l-2-1l0,0
		h-1.2l0,0l-2.4-1.2l0,0h-2l0,0h-1.6l0,0l-3.1-1.5l0,0l-2.6-2.6l0,0l-1.2-1.2l0,0l-1.9-1.9l0,0h-1.2l0,0l-3.1-3.1l0,0l-2.6-3.9l0,0
		l-1.3-2.5l0,0l-2.4-4.9l0,0l-2.5-5.1l0,0l-1.2-6.2l0,0l-2.3-6.8l0,0l-2.1-2.1l0,0l-1.3-1.3l0,0l-2.6-3.9l0,0l-1.2-2.4l0,0l0.2-4
		l0,0l-2.5-5.1l0,0l-1.2-3.6l0,0l-2.5-4.9l0,0l-2.5-8.7l0,0l-1.2-5.8l0,0l-2.3-3.4l0,0l-2.5-5.1l0,0l-1.1-3.4l0,0l-2.4-2.4l0,0
		l-2.6-6.6l0,0l-1.2-7.4l0,0l-2.3-7l0,0l-3.6,3.6l0,0h-1.2l0,0l-1.6,1.6l0,0l-2.3,5.7l0,0l-2,5.5l0,0l-4.3-2.2l0,0l-3-1.5l0,0
		l-0.5,1.6l0,0l-1.2,8.5l0,0l-2.5,5l0,0l-2.4,8.3l0,0l-1.2,7.3l0,0l-2.5,7.4l0,0l-2.8,11l0,0H791l0,0h-3.6l0,0l-3-6l0,0l-1.2-3.5
		l0,0l-2.2-3.3l0,0l-3.3-3.3l0,0l-2.9-1.5l0,0l-0.9-3.5l0,0l-2,3l0,0l-1.3,3.8l0,0L768,300l0,0l-2.1,2.1l0,0l-1.1,3.2l0,0l-2.5,7.4
		l0,0l-2.4,4.8l0,0l-1.2,6l0,0l-2.5,6.3l0,0l-1.3,2.6l0,0l-3,4.6l0,0h-4.5l0,0l-1.2-2.4l0,0h-1.7l0,0l-3.4-1.7l0,0l-1.2-2.4l0,0
		l-2.2-1.1l0,0l-2.1-2.1l0,0h-2.9l0,0H731l0,0l-2-1l0,0l-1.4,0.7l0,0l-4,4l0,0h-1.9l0,0l-0.9,2.8l0,0l-2.7,2.7l0,0l-2.2,2.2l0,0
		l-1.4,2.7l0,0l-3.4,1.7l0,0h-1.6l0,0h-2.9l0,0l-3.1-1.5l0,0l-1.2-1.2l0,0l-2.4-1.2l0,0l-2.6-2.6l0,0l-1.9,0.5l0,0h-2.9l0,0h-1.6
		l0,0l-3.1-1.5l0,0l-2.1-2.1l0,0l-4,4.3l0,0l-1.8-8.9l0,0l-2-2l0,0L676,325l0,0h-1.2l0,0l-2.4-2.4l0,0h-2.8l0,0l-0.9-1.8l0,0
		l-2.7,1.3l0,0l-1.1,2.2l0,0l-2.4,2.4l0,0l-1.2,2.4l0,0l-3.6,3.6l0,0l-1.7-0.9l0,0l-1,2.2l0,0l-2.8,1.4l0,0l-2.2,2.2l0,0l-1.4,1.4
		l0,0l-2.4,1.2l0,0l-1.9,1.9l0,0l-1.7,5.2l0,0l-4.9-2.4l0,0l-1.2-2.4l0,0l-1.5-0.8l0,0h-3.1l0,0l-1.6-3.2l0,0l-2.2-2.2l0,0l-1.9-1.9
		l0,0l-1.6,1.9l0,0l-2.2,2.2l0,0l-1.1,2.3l0,0l-2.6,3.9l0,0l-2.4,2.4l0,0l-1.2,2.4l0,0l-3.2,3.2l0,0h-2.4l0,0l-2.8-1.4l0,0L604,350
		l0,0l-1.2-1.2l0,0l-2.4-1.2l0,0l-2.1-2.1l0,0h-2.9l0,0h-1.7l0,0l-1.6,1.6l0,0l-3.9-1.9l0,0l-2.6-0.9l0,0H583l0,0l-3.6,1.4l0,0
		l-3.5-1.8l0,0l-2.6,0.5l0,0l-2.9-1.4l0,0h-1.2l0,0l-2.8-1.4l0,0l-2.7-1.3l0,0l-1.2-1.2l0,0l-2.7-1.4l0,0l-1.2-2.4l0,0l-2.2-1.1l0,0
		l-2.1-2.1l0,0l-3.3-1.2l0,0h-3.1l0,0l-1.2-2.4l0,0h-2.1l0,0l-3.3-3.3l0,0l-1.1-3.3l0,0l-2-1l0,0l-3.3-0.9l0,0l-3.3-3.3l0,0
		l-1.2-3.6l0,0l-4.1,2.4l0,0l-1.9-5.7l0,0l-2.2-1.1l0,0l-2.2-3.2l0,0l-2.2,1.2l0,0h-2.4l0,0l-2-2l0,0l-1.8,2.5l0,0l-3.6,3.6l0,0
		l-2.4-1.2l0,0l-2.7,8.1l0,0h-4.5l0,0l-1.5-1.5l0,0l-1.8-0.9l0,0l-1.6,2.8l0,0l-5,5l0,0l-1-4l0,0l-2.4,3.6l0,0l-1.3,5l0,0l-2.8,2.8
		l0,0l-2.4,2.4l0,0l-3.6,6.2l0,0l-2.4,1.2l0,0l-2.1,4.2l0,0l-4.2-4.2l0,0l-1.6-0.7l0,0l-1.9,1.9l0,0l-3.5,4.7l0,0l-2.2,2.2l0,0
		l-1.2,4.9l0,0l-2.7,2.7l0,0l-2.4,3.6l0,0l-1.3,1.3l0,0l-3,3l0,0h-1.2l0,0l-2.4,2.4l0,0h-1.8l0,0l-1.1,4.3l0,0l-3.6,1.8l0,0h-1.7
		l0,0l-1.2,2.4l0,0h-3.6l0,0h-2.4l0,0h-1.6l0,0l-2-1l0,0l-1.4,0.7l0,0L421,376l0,0h-2.4l0,0l-1.2,1.2l0,0H415l0,0l-1.9,1.9l0,0
		l-1.8,1.8l0,0h-2.4l0,0l-2.4,2.4l0,0h-2l0,0h-2l0,0l-1.8,0.9l0,0l-1.5,1.5l0,0H397l0,0l-1,3.1l0,0l-3.5,1.7l0,0h-2.1l0,0l-4,2.4
		l0,0h-1.7l0,0l-1.8,3.7l0,0l-3.7-3.7l0,0h-1.7l0,0l-3.2,1.2l0,0h-1.6l0,0h-2.4l0,0h-2.4l0,0l-3.2,1.2l0,0h-2.9l0,0l-3.2,1.2l0,0
		h-2.1l0,0l-1.2,1.2l0,0h-2.8l0,0l-2.4,1.2l0,0h-1.6l0,0h-2.4l0,0l-3.2,1.2l0,0H340l0,0h-1.2l0,0h-2.4l0,0H334l0,0h-1.2l0,0h-2l0,0
		l-2.4,1.2l0,0h-1.6l0,0h-2.4l0,0h-1.2l0,0h-2.4l0,0h-1.7l0,0l-1.2,1.2l0,0h-3.2l0,0h-2.4l0,0h-1.2l0,0h-2.4l0,0H307l0,0l-1.2,1.2
		l0,0H302l0,0h-1.2l0,0h-2.4l0,0H296l0,0h-1.2l0,0h-2.4l0,0H290l0,0h-1.2l0,0h-2l0,0l-2.4,1.2l0,0h-1.6l0,0h-2.4l0,0H278l0,0h-1.2
		l0,0H274l0,0h-1.2l0,0h-2.4l0,0H268l0,0h-1.2l0,0h-2.4l0,0H262l0,0h-1.2l0,0h-2.4l0,0H256l0,0h-1.2l0,0h-2.4l0,0h-1.2l0,0h-2.4l0,0
		h-2.4l0,0h-1.2l0,0h-2.4l0,0H240l0,0h-1.2l0,0h-2.4l0,0H234l0,0h-1.2l0,0H231l0,0l-1.2,1.2l0,0h-3.2l0,0h-2.4l0,0H223l0,0h-2.4l0,0
		h-2.4l0,0H217l0,0h-2.4l0,0H212l0,0h-1.2l0,0h-2.4l0,0H206l0,0h-1.2l0,0h-2.4l0,0v-1H202.3z"/>
</g>
<g>
	<title>Path 601</title>
	<path class="st6" d="M96.4,405.1L96.4,405.1h2.4l0,0h2.4l0,0h1.2l0,0h2.4l0,0h2.4l0,0h1.2l0,0h2.4l0,0h1.2l0,0h2.4l0,0h2.4l0,0h1.2
		l0,0h2.4l0,0h2.4l0,0h1.2l0,0h2.4l0,0h2.4l0,0h1.2l0,0h2.4l0,0h1.2l0,0h2.4l0,0h2.4l0,0h1.2l0,0h2.4l0,0h2.4l0,0h1.2l0,0h2.4l0,0
		h2.4l0,0h1.2l0,0h2.4l0,0h2.4l0,0h1.2l0,0h2.4l0,0h1.2l0,0h2.4l0,0h2.4l0,0h1.2l0,0h2.4l0,0h2.4l0,0h1.2l0,0h2.4l0,0h2.4l0,0h1.2
		l0,0h2.4l0,0h1.2l0,0h2.4l0,0h2.4l0,0h1.2l0,0h2.4l0,0h2.4l0,0h1.2l0,0h2.4l0,0h2.4l0,0h1.2l0,0h2.4l0,0h1.2l0,0h2.4l0,0h2.4l0,0
		h1.2l0,0h2.4l0,0h2.4l0,0h1.2l0,0h2.4l0,0h2.4l0,0h1.2l0,0h2.4l0,0h2.7l0,0l1.2-1.2l0,0h2.2l0,0h1.2l0,0h2.4l0,0h2.4l0,0h1.2l0,0
		h2.4l0,0h2.4l0,0h1.2l0,0h2.4l0,0h2.4l0,0h1.2l0,0h2.4l0,0h1.2l0,0h2.4l0,0h2.4l0,0h1.4l0,0l2.4-1.2l0,0h2.3l0,0h1.2l0,0h2.4l0,0
		h2.7l0,0l1.2-1.2l0,0h2.2l0,0h1.2l0,0h2.4l0,0h2.4l0,0h1.4l0,0l2.4-1.2l0,0h2.3l0,0h1.2l0,0h2.4l0,0h2.4l0,0h1.4l0,0l2.3-1.1l0,0
		l2.6,1.3l0,0l1.3-1.3l0,0h2.2l0,0h1.2l0,0h2.4l0,0h2.7l0,0l1.2-1.2l0,0h2.2l0,0h2.4l0,0h1.2l0,0h2.6l0,0l2.4-1.2l0,0h3.8l0,0
		l1.2-1.2l0,0h2.2l0,0h2.4l0,0h1.4l0,0l2.4-1.2l0,0h2.3l0,0h1.4l0,0l2.4-1.2l0,0h2.3l0,0h1.2l0,0h2.4l0,0h1.4l0,0l2.4-1.2l0,0h2.3
		l0,0h1.2l0,0h2.4l0,0h2.4l0,0h1.2l0,0h2.6l0,0l2.4-1.2l0,0h3.5l0,0h2.4l0,0h1.4l0,0l2.4-1.2l0,0h1.2l0,0l2.4-1.2l0,0h2.3l0,0h1.2
		l0,0h2.4l0,0h2.4l0,0h1.4l0,0l2.4-1.2l0,0h2.3l0,0h1.2l0,0h2.4l0,0h1.2l0,0h2.4l0,0h2.7l0,0l1.2-1.2l0,0h2.2l0,0h2.4l0,0h1.2l0,0
		h2.4l0,0h2.4l0,0h1.4l0,0l2.4-1.2l0,0h3.6l0,0l2.4-1.2l0,0h3.5l0,0h2.4l0,0h1.2l0,0h2.4l0,0h2.4l0,0h1.2l0,0h2.4l0,0h2.7l0,0
		l1.2-1.2l0,0h2.2l0,0h1.4l0,0l2.4-1.2l0,0h2.3l0,0h1.4l0,0l2.4-1.2l0,0h2.3l0,0l3.5,1.2l0,0h2.6l0,0h1.2l0,0h2.4l0,0h1.2l0,0h2.4
		l0,0h2.2l0,0l1.2,1.2l0,0h2.7l0,0h2.4l0,0l3.5,1.2l0,0h2.6l0,0l3.5,1.2l0,0h1.4l0,0h2.4l0,0h2.4l0,0h1.2l0,0h2.4l0,0h2.2l0,0
		l1.2,1.2l0,0h2.7l0,0h2.4l0,0h1.2l0,0h2.3l0,0l2.4,1.2l0,0h1.4l0,0h2.4l0,0h1.2l0,0h2.4l0,0h2.4l0,0h1.2l0,0h2.4l0,0h2.4l0,0h1.4
		l0,0l2.4-1.2l0,0h2.3l0,0h1.2l0,0h2.4l0,0h1.2l0,0h2.4l0,0h2.4l0,0h1.2l0,0h2.3l0,0l2.4,1.2l0,0h1.4l0,0h2.4l0,0h2.4l0,0l3.5,1.2
		l0,0h1.4l0,0h2.4l0,0h2.4l0,0l3.3,1.1l0,0l2.8,2.8l0,0l1.5-1.5l0,0h2.2l0,0h2.4l0,0h1.2l0,0h2.4l0,0h2.8l0,0l1.1-2.2l0,0l2,1l0,0
		h1.4l0,0h2.4l0,0h2.4l0,0h1.2l0,0h2.4l0,0h2.4l0,0h1.2l0,0h2.4l0,0h2.4l0,0l3.5,1.2l0,0h1.4l0,0h2.4l0,0h2.4l0,0h1.2l0,0h2.4l0,0
		h2.4l0,0h1.2l0,0h2.3l0,0l2.2,1.1l0,0l3.8,3.8l0,0h2.7l0,0l3.8,1.3l0,0l1.5-1.5l0,0l2.4-1.2l0,0l2.6-2.6l0,0l1.2-3.5l0,0l2.2-1.1
		l0,0l2.5-1.3l0,0l3.1-1.1l0,0l2.4,1.2l0,0h1.4l0,0h2.4l0,0h1.2l0,0h2.4l0,0h2.2l0,0l1.2,1.2l0,0h2.7l0,0h2.4l0,0h1.2l0,0h2.6l0,0
		l2.4-1.2l0,0h1.2l0,0l2.6-1.3l0,0l3.1-1.1l0,0l2.4,1.2l0,0h1.2l0,0l2.3,1.2l0,0l2.3,1.1l0,0l1.2,2.4l0,0l2.6,1.3l0,0l2.8,1.4l0,0
		l1.3-1.3l0,0h2.5l0,0l2.6-3.9l0,0l1.2-1.2l0,0l2.5-5l0,0l1.1-3.5l0,0l1.8-0.9l0,0l3,3l0,0l1.3-7.7l0,0l1.7,0.8l0,0l2.6,1.3l0,0h1.4
		l0,0h2.6l0,0l2.8-1.4l0,0l0.9-4.6l0,0l1.8,3.6l0,0h1.6l0,0h2.1l0,0l3,4.5l0,0l1.5-5.9l0,0l2.1-1l0,0h2.3l0,0h1.4l0,0l2.3-1.1l0,0
		l2.9,1.4l0,0l1-4.9l0,0l1.8,4.6l0,0h1.6l0,0h2.4l0,0h2.2l0,0l1.2,1.2l0,0h2.7l0,0h2.7l0,0l1.2-1.2l0,0h2l0,0l2.1,1l0,0l1.3,3.8l0,0
		h2.9l0,0h2.4l0,0h1.2l0,0h2.4l0,0l3.4,2.4l0,0h2.9l0,0l1.4-1.4l0,0l2.3-2.3l0,0h2.4l0,0l1.3-1.3l0,0l2.5-1.3l0,0l2.5-5l0,0l1.1-2.3
		l0,0l2.3-1.2l0,0l1.2-1.2l0,0l2.3-1.2l0,0l2.7-1.3l0,0l1.2-3.8l0,0l2.2-2.2l0,0h2.2l0,0h1.5l0,0l2.6-2.6l0,0l2.5-2.5l0,0l1.1-2.2
		l0,0h2.1l0,0h1.2l0,0h2.4l0,0h2.4l0,0l3.3,2.3l0,0l2.3,1.2l0,0l1.2,2.3l0,0l2.6,2.6l0,0l2.3,1.2l0,0l1.1,2.2l0,0l2.5,6.2l0,0
		l2.4,2.4l0,0l1.4,11.5l0,0l3-5.9l0,0l3.3,0.8l0,0l2.9,1.5l0,0l1.2-3.6l0,0l2.4,1.2l0,0l1.8-4.6l0,0l0.9,6.6l0,0l2.7,1.4l0,0
		l2.6,1.3l0,0h1.2l0,0l2.2,1.1l0,0l1.2,1.2l0,0l2.5,1.3l0,0l2.3,1.2l0,0l1.3,1.3l0,0h2.7l0,0h2.4l0,0h1.2l0,0h2.3l0,0l2.4,1.2l0,0
		h1.4l0,0h2.4l0,0h1.5l0,0l2.1-2.1l0,0l2,3l0,0l1.4,2.7l0,0h2.8l0,0h2.4l0,0h1.5l0,0l2.3-2.3l0,0l2.2,1.1l0,0h1.4l0,0h2.4l0,0h2.2
		l0,0l1.2,1.2l0,0h2.7l0,0h1.2l0,0h2.4l0,0h2.2l0,0l3.6,3.6l0,0h2.7l0,0l3.5,1.2l0,0h2.6l0,0h1.2l0,0h2.8l0,0l1.2-2.4l0,0h1.9l0,0
		l2.4,1.2l0,0h1.4l0,0h2.4l0,0h2.4l0,0l3.5,1.2l0,0h2.6l0,0l3.3,1.1l0,0l1.3,1.3l0,0h2.7l0,0h2.4l0,0h1.2l0,0h2.3l0,0l2.7,1.3l0,0
		l1.5-1.5l0,0l2.3-2.3l0,0h2.2l0,0h1.2l0,0h2.4l0,0h2.4l0,0h1.2l0,0h2.2l0,0l1.2,1.2l0,0h2.5l0,0l2.4,1.2l0,0h1.4l0,0h2.4l0,0h2.4
		l0,0l3.5,1.2l0,0h2.6l0,0h1.2l0,0h2.4l0,0h1.2l0,0h2.4l0,0h2.4l0,0h1.2l0,0h2.3l0,0l2.4,1.2l0,0h1.4l0,0h2.3l0,0l2.4,1.2l0,0h1.4
		l0,0h2.4l0,0h2.4l0,0l3.5,1.2l0,0h1.5l0,0l2.4-1.2l0,0h2.3l0,0h1.2l0,0h2.4l0,0h2.4l0,0h1.2l0,0h2.3l0,0l2.4,1.2l0,0h1.4l0,0h2.4
		l0,0h1.2l0,0h2.4l0,0h2.4l0,0h1.4l0,0l2.4-1.2l0,0h2.3l0,0h1.2l0,0v1.2l0,0h-1.2l0,0h-2l0,0l-2.4,1.2l0,0h-1.6l0,0h-2.4l0,0h-2.4
		l0,0h-1.2l0,0h-2.4l0,0h-1.6l0,0l-2.4-1.2l0,0h-2l0,0h-1.2l0,0h-2.4l0,0h-2.4l0,0h-1.2l0,0h-2l0,0l-2.4,1.2l0,0h-2.1l0,0l-2.4-1.2
		l0,0h-3.2l0,0h-2.4l0,0h-1.6l0,0l-2.4-1.2l0,0h-2l0,0h-1.6l0,0l-2.4-1.2l0,0h-2l0,0h-1.2l0,0h-2.4l0,0h-2.4l0,0h-1.2l0,0h-2.4l0,0
		h-1.2l0,0h-2.9l0,0l-2.4-1.2l0,0h-3.2l0,0h-2.4l0,0h-1.6l0,0l-2.4-1.2l0,0h-2.8l0,0l-1.2-1.2l0,0h-1.7l0,0h-1.2l0,0h-2.4l0,0h-2.4
		l0,0h-1.2l0,0h-1.7l0,0l-1.9,1.9l0,0l-2.1,2.1l0,0l-3.2-1.6l0,0h-2l0,0h-1.2l0,0h-2.4l0,0h-3.2l0,0l-1.5-1.5l0,0l-1.8-0.9l0,0h-3.6
		l0,0l-2.4-1.2l0,0h-3.2l0,0h-2.4l0,0h2.3l0,0l-2.4-1.2l0,0l-2.1,2.4l0,0h-3.6l0,0h-1.2l0,0h-2.9l0,0l-2.4-1.2l0,0h-4l0,0l-3-3l0,0
		l-2.4-0.7l0,0h-2.4l0,0h-1.2l0,0h-3.2l0,0l-1.2-1.2l0,0h-1.7l0,0h-2.4l0,0h-1.6l0,0l-1.6-0.8l0,0l-2,2l0,0h-2l0,0h-2.4l0,0h-3.6
		l0,0l-1.7-3.3l0,0l-1.1-1.7l0,0l-1.4,1.4l0,0h-2l0,0h-2.4l0,0h-1.6l0,0L894,382l0,0h-2l0,0h-1.2l0,0h-2.4l0,0h-3.2l0,0l-1.5-1.5
		l0,0l-2.2-1.1l0,0l-2.7-1.3l0,0l-1.2-1.2l0,0l-1.8-0.9l0,0h-1.2l0,0l-2.8-1.4l0,0l-3.3-1.6l0,0l-0.4-2.7l0,0l-0.6,1.6l0,0l-2.3-1.2
		l0,0l-1.2,3.6l0,0l-3.9-2l0,0h-2.8l0,0l-4,8l0,0l-1.9-15.1l0,0l-2.3-2.3l0,0l-2.5-6.4l0,0l-0.9-1.8l0,0l-2.2-1.1l0,0l-2.9-2.9l0,0
		l-1.1-2.2l0,0l-2.2-1.1l0,0l-2.1-2.1l0,0h-2.9l0,0h-2.4l0,0h-1.2l0,0h-1.3l0,0l-0.8,1.7l0,0l-2.6,2.6l0,0l-3,3l0,0h-2l0,0h-1.7l0,0
		l-1.6,1.6l0,0l-1.3,4l0,0l-3.1,1.6l0,0l-2.2,1.1l0,0l-1.2,1.2l0,0l-2.2,1.1l0,0l-0.9,1.9l0,0l-2.7,5.4l0,0l-2.7,1.4l0,0l-1.5,1.5
		l0,0h-2.4l0,0l-1.9,1.9l0,0l-1.8,1.8l0,0h-3.9l0,0l-2.4-2.4l0,0h-2.9l0,0h-1.2l0,0H779l0,0h-3.7l0,0l-1.4-4.2l0,0l-1.4-0.7l0,0
		h-1.2l0,0l-1.2,1.2l0,0h-3.2l0,0h-3.2l0,0l-1.2-1.2l0,0h-1.7l0,0h-2.4l0,0h-2.5l0,0l-0.6-1.5l0,0l-0.5,2.4l0,0l-3.8-1.9l0,0l-2,1
		l0,0h-1.6l0,0h-2l0,0l-1.3,0.6l0,0l-2,8.1l0,0l-4.2-6.3l0,0h-1.5l0,0h-2.3l0,0l-4.5,2.4l0,0h-2.9l0,0h-1.6l0,0l-2.8-1.4l0,0
		l-1.6,8.2l0,0l-4-4l0,0l-1.6,3.3l0,0l-2.6,5.2l0,0l-1.3,1.3l0,0l-2.9,4.3l0,0h-2.7l0,0l-1.6,1.6l0,0l-3.6-1.8l0,0l-3-1.5l0,0
		l-1.2-2.4l0,0l-1.9-0.9l0,0l-2-1l0,0h-1.2l0,0l-2.4-1.2l0,0h-1.2l0,0l-4,2.4l0,0H682l0,0l-2.4,1.2l0,0h-2.9l0,0h-1.2l0,0H673l0,0
		h-3.2l0,0l-1.2-1.2l0,0h-1.7l0,0h-2.4l0,0h-1.2l0,0h-2.4l0,0h-1.6l0,0l-2.4-1.2l0,0h-1.2l0,0l-3.6,2.2l0,0l-1.8,0.9l0,0l-1.1,3.3
		l0,0l-2.9,2.9l0,0l-2.4,1.2l0,0l-1.9,1.9l0,0l-3.2-1.6l0,0h-4l0,0l-3-3l0,0l-2.8-1.9l0,0h-2l0,0h-1.2l0,0h-2.4l0,0H621l0,0h-1.2
		l0,0h-2.4l0,0H615l0,0h-2l0,0l-2.4-1.2l0,0h-3.2l0,0H605l0,0h-1.2l0,0h-2.4l0,0H599l0,0h-1.2l0,0h-2.4l0,0H593l0,0h-1.6l0,0
		l-2.1,1.2l0,0h-3.6l0,0H583l0,0h-1.2l0,0h-2.4l0,0h-1.7l0,0l-2,2l0,0l-3.5-3.5l0,0l-1.8-0.9l0,0h-3.2l0,0h-2.4l0,0h-1.6l0,0
		l-2.4-1.2l0,0h-3.2l0,0H555l0,0h-1.6l0,0l-2.4-1.2l0,0h-2l0,0h-1.2l0,0h-2.4l0,0H543l0,0h-1.2l0,0h-2.4l0,0H538l0,0h-2l0,0
		l-2.4,1.2l0,0H532l0,0h-2.4l0,0H527l0,0h-1.2l0,0h-2.4l0,0H521l0,0h-1.2l0,0h-2.4l0,0h-1.6l0,0l-2.4-1.2l0,0h-2l0,0H510l0,0h-2.4
		l0,0h-3.2l0,0l-1.2-1.2l0,0h-1.7l0,0h-2.4l0,0h-1.2l0,0h-2.4l0,0H493l0,0h-1.6l0,0l-2.4-1.2l0,0h-3.7l0,0l-2.4-1.2l0,0h-3.2l0,0
		h-3.2l0,0l-1.2-1.2l0,0h-1.7l0,0h-2.4l0,0H470l0,0h-2.4l0,0h-1.2l0,0h-2.9l0,0l-2.4-1.2l0,0h-2.8l0,0l-2.4,1.2l0,0h-1.6l0,0h-2l0,0
		l-2.4,1.2l0,0H448l0,0h-1.7l0,0l-1.2,1.2l0,0h-3.2l0,0h-2.4l0,0h-1.2l0,0h-2.4l0,0h-2.4l0,0h-1.2l0,0h-2.4l0,0h-2.4l0,0l-3.2,1.2
		l0,0h-2.9l0,0l-3.2,1.2l0,0h-1.6l0,0h-2.4l0,0h-2.4l0,0h-1.2l0,0h-2.4l0,0h-1.7l0,0l-1.2,1.2l0,0h-3.2l0,0h-2.4l0,0h-1.2l0,0h-2.4
		l0,0h-1.2l0,0h-2l0,0l-2.4,1.2l0,0h-1.6l0,0h-2.4l0,0h-2.4l0,0h-1.2l0,0h-2l0,0l-2.4,1.2l0,0h-1.2l0,0l-2.4,1.2l0,0h-1.6l0,0h-2.4
		l0,0h-2.4l0,0l-3.2,1.2l0,0h-2.9l0,0h-1.2l0,0H358l0,0h-2.4l0,0h-1.2l0,0h-2l0,0l-2.4,1.2l0,0h-1.6l0,0H346l0,0h-1.2l0,0h-2l0,0
		l-2.4,1.2l0,0h-1.6l0,0h-2l0,0l-2.4,1.2l0,0h-1.6l0,0H330l0,0h-1.7l0,0l-1.2,1.2l0,0h-3.2l0,0l-3.2,1.2l0,0h-2.9l0,0h-1.2l0,0h-2.4
		l0,0h-1.7l0,0l-1.2,1.2l0,0h-3.2l0,0h-2.4l0,0h-1.2l0,0h-1.7l0,0l-1.6,1.6l0,0l-2.8-1.4l0,0l-2,1l0,0h-1.6l0,0h-2.4l0,0H290l0,0
		h-1.2l0,0h-2l0,0l-2.4,1.2l0,0h-1.6l0,0h-2.4l0,0H278l0,0h-1.2l0,0h-1.7l0,0l-1.2,1.2l0,0h-3.2l0,0H268l0,0h-1.2l0,0h-2l0,0
		l-2.4,1.2l0,0h-1.6l0,0h-2.4l0,0H256l0,0h-1.2l0,0h-2.4l0,0h-1.2l0,0h-2.4l0,0h-2.4l0,0h-1.2l0,0h-2.4l0,0H240l0,0h-1.2l0,0h-2.4
		l0,0H234l0,0h-1.2l0,0H231l0,0l-1.2,1.2l0,0h-3.2l0,0h-2.4l0,0H223l0,0h-2.4l0,0h-2.4l0,0H217l0,0h-2.4l0,0H212l0,0h-1.2l0,0h-2.4
		l0,0H206l0,0h-1.2l0,0h-2.4l0,0H201l0,0h-2.4l0,0h-2.4l0,0H195l0,0h-2.4l0,0h-2.4l0,0H189l0,0h-2.4l0,0H184l0,0h-1.2l0,0h-2.4l0,0
		h-1.2l0,0h-2.4l0,0h-2.4l0,0h-1.2l0,0h-2.4l0,0h-2.4l0,0H167l0,0h-2.4l0,0h-2.4l0,0H161l0,0h-2.4l0,0h-1.2l0,0H155l0,0h-2.4l0,0
		h-1.2l0,0H149l0,0h-2.4l0,0h-1.2l0,0H143l0,0h-2.4l0,0H139l0,0h-2.4l0,0h-2.4l0,0H133l0,0h-2.4l0,0h-1.2l0,0H127l0,0h-2.4l0,0h-1.2
		l0,0H121l0,0h-2.4l0,0h-1.2l0,0H115l0,0h-2.4l0,0H111l0,0h-2.4l0,0h-1.2l0,0H105l0,0h-2.4l0,0h-1.2l0,0H99l0,0h-2.4l0,0L96.4,405.1
		z"/>
</g>
<g>
	<title>Path 602</title>
	<path class="st7" d="M202.3,405.1L202.3,405.1h2.4l0,0h1.2l0,0h2.4l0,0h2.4l0,0h1.2l0,0h2.4l0,0h2.7l0,0l1.2-1.2l0,0h2.2l0,0h2.4
		l0,0h1.2l0,0h2.4l0,0h2.4l0,0h1.2l0,0h2.4l0,0h1.2l0,0h2.4l0,0h2.4l0,0h1.2l0,0h2.6l0,0l2.4-1.2l0,0h3.7l0,0l2.4-1.2l0,0h1.3l0,0
		l2.6-2.6l0,0l3.5-2.3l0,0l2.5-1.3l0,0l3.6,0.3l0,0l2.5-5.1l0,0h3.3l0,0h2.4l0,0h1.4l0,0l2.6-1.3l0,0l3.2,1.5l0,0l2.9-1.5l0,0
		l3.6,0.3l0,0l2.6-6.6l0,0l3.5-2.3l0,0l2.6-2.6l0,0l1.2-2.4l0,0l2.4-2.4l0,0l1.9-3.9l0,0l1,2.1l0,0l2.9-2.9l0,0h1.2l0,0l2.6-2.6l0,0
		l2.4-2.4l0,0l3.4-1l0,0l2.2-1.1l0,0l3.6,1.1l0,0l2.7,1.3l0,0l1.5-1.5l0,0l2.4-1.2l0,0l1.2-1.2l0,0l2.4-1.2l0,0l2.6-2.6l0,0l1.2-2.4
		l0,0l2.3-2.3l0,0l2.2-1.1l0,0l3.4,1.2l0,0h2.8l0,0l1.4-1.4l0,0l2.5-2.5l0,0l1.2-2.4l0,0l2.4-2.4l0,0l2.6-2.6l0,0l1.2-7.4l0,0
		l2.4-6.1l0,0l2.4-9.7l0,0l2.9,10.1l0,0l2.7-5.3l0,0l0.7,1.3l0,0l2.4,4.8l0,0l2.4,6l0,0l1.2,7.3l0,0l3.3,6.6l0,0l1.1-6.7l0,0
		l2.1,6.2l0,0l3.2-4.8l0,0l1.1-3.3l0,0h2l0,0h2.4l0,0h1.2l0,0h2.2l0,0l2.1,2.1l0,0l1.2,4.8l0,0l2.5,4.9l0,0l1.3,2.6l0,0l2.4,1.2l0,0
		l2.9,8.8l0,0l1.7-5l0,0h2.1l0,0l2.4-1.2l0,0h1.2l0,0l2.3-1.1l0,0l2.9,1.4l0,0l1-4.9l0,0l1.7,4.3l0,0l1.5,1.5l0,0h2.5l0,0l2.4,1.2
		l0,0h1.5l0,0l2.4-1.2l0,0h2.5l0,0l1.2-1.2l0,0h2.2l0,0h2.4l0,0l3.5,1.2l0,0h2.8l0,0l1.3-1.3l0,0l2.2-1.1l0,0h1.2l0,0l2.6-1.3l0,0
		l2.5-1.3l0,0l1.2-1.2l0,0l2.2-1.1l0,0h2.7l0,0l1.2-2.4l0,0h2.3l0,0l2.6-2.6l0,0l3.5-1l0,0l1.4-1.4l0,0l2.4-2.4l0,0l2.5-1.3l0,0
		l1.3-2.6l0,0l2.4-4.8l0,0l2.5-3.7l0,0l1.2-7.3l0,0l2.1-3.1l0,0l2.5,1.2l0,0l1.5-3l0,0l2.4-4.8l0,0l3.4-3.4l0,0h2.2l0,0h1.5l0,0
		l2.3-2.3l0,0l2.6,1.3l0,0l1.5-2.9l0,0l2.1-3.2l0,0l2.6,1.3l0,0l1.4-5.6l0,0l2.3-5.8l0,0l2.4-1.2l0,0l1.1-2.3l0,0h1.8l0,0l1.3,1.3
		l0,0l2.7-1.3l0,0h1.9l0,0l1.3,2.6l0,0l2.7-1.4l0,0l1.9,0.9l0,0l1.2,6.1l0,0l2.7,1.3l0,0l2.6,1.3l0,0l3.3,2.2l0,0l1.2,2.4l0,0
		l2.8,4.1l0,0l2.3-1.1l0,0l1,3.1l0,0l2.4,2.4l0,0l2.4,6l0,0l1.2,2.4l0,0l2.5,6.3l0,0l2.8,1.4l0,0h1.5l0,0l2.4-1.2l0,0l3.5,1.3l0,0
		l3-1.5l0,0l1.1-4.4l0,0l1.9,0.9l0,0h2.2l0,0l1.1,2.3l0,0l2.9,1.4l0,0l2.2-1.1l0,0l1.1,2.2l0,0h2.7l0,0l2.4,1.2l0,0h1.5l0,0l2.2-1.1
		l0,0l3.4,3.4l0,0l2.4,1.2l0,0l1.2,1.2l0,0l2.3,1.2l0,0l2.3,5.8l0,0l1.2,6.1l0,0l2.5,3.7l0,0l2.4,4.8l0,0l1.2,3.7l0,0l2.7,4l0,0h1.5
		l0,0h2.3l0,0l2.8,1.4l0,0l1.2-2.4l0,0l2,1l0,0h2.6l0,0h1.2l0,0h2.4l0,0h2.4l0,0l3.3,3.6l0,0h2.8l0,0h1.4l0,0l2.6-1.3l0,0l3.3,0.2
		l0,0l2.6-1.3l0,0h3.4l0,0l2.4,1.2l0,0l3.4,2.3l0,0l2.7,1.3l0,0h1.2l0,0l2.1,1.1l0,0l1.3,2.6l0,0h2.8l0,0h2.7l0,0l1.2-1.2l0,0h2.3
		l0,0l2.4-1.2l0,0h3.5l0,0h2.2l0,0l1.2,1.2l0,0h2.4l0,0l3.6,2.4l0,0l2.6,1.3l0,0h1.4l0,0h2.4l0,0h2.2l0,0l1.2,1.2l0,0h2.5l0,0
		l2.4,1.2l0,0h1.2l0,0l2.3,1.2l0,0l2.6,1.3l0,0h1.4l0,0h2.4l0,0h1.2l0,0h2.4l0,0h2.4l0,0h1.4l0,0l2.4-1.2l0,0h2.3l0,0l3.5,1.2l0,0
		h2.6l0,0h1.2l0,0h2.1l0,0l1.3,2.6l0,0l2.7-1.4l0,0l2.1,1l0,0l1.3,1.3l0,0h2.5l0,0l2.7,1.3l0,0l1.5-1.5l0,0l2.5-1.3l0,0l2.4-4.7l0,0
		l3.5,1.4l0,0l1-2l0,0l1.9,2.8l0,0l3.3,5l0,0l1.2-8.2l0,0l1.7,3.5l0,0h3.2l0,0l0.8-2.3l0,0l2.4,7.3l0,0l3-9l0,0l0.5-1.5l0,0
		l2.1,10.4l0,0h3.2l0,0l1.2-1.2l0,0h2.2l0,0l3.4,7.8l0,0l3.2-3.2l0,0l0.8-1.6l0,0l2.3,3.4l0,0l2.3-2.3l0,0l1.5,4.6l0,0l2.8-10l0,0
		h1.5l0,0l1.8,8.8l0,0l3-17.8l0,0l1.1-4.4l0,0h2l0,0h3l0,0l1.2-23.1l0,0h2.3l0,0l1.6-5.6l0,0l1,13.7l0,0l3.4,6.8l0,0l2.6-20.9l0,0
		l2.6,12.2l0,0h2.2l0,0l2.4-13.4l0,0h2.5l0,0l1.2-26.1l0,0l1.7,28.7l0,0l2.5-13.9l0,0l1.4,9.6l0,0l2.6-27.4l0,0l1.7,8.5l0,0
		l4.2,21.3l0,0l3-35.2l0,0l0.1,14.7l0,0l2.5-2.5l0,0l1.6,14.5l0,0l3-21.2l0,0h2.5l0,0l1.3-11.5l0,0l1.6,35l0,0l3.3-17.9l0,0l1.1-3.4
		l0,0l2.2-1.1l0,0l2.7-1.4l0,0l0.5-2.7l0,0l2.6,20.5l0,0l1.8-16.6l0,0l2.2-1.1l0,0l2.1-2.1l0,0l3.1,3.1l0,0l3.2,8l0,0l1.5-9.1l0,0
		l1.9-0.9l0,0l2.9,1.5l0,0l1.2-12.5l0,0h1.3l0,0l1.4,32.2l0,0l3.4-19.3l0,0l1.6-3.2l0,0l0.9,4.4l0,0l2.4,4.9l0,0l2.4,17l0,0l2,7.9
		l0,0l2.7-18.9l0,0l2,2l0,0l1.5-1.5l0,0h2.2l0,0h2.7l0,0l1.5-1.5l0,0l2.1-4.2l0,0l3,3l0,0l3.3,4.9l0,0l1.5-8.8l0,0l2.3-5.8l0,0
		l2.3-1.2l0,0l3.7-1.1l0,0l2.6-7.7l0,0l1-2.1l0,0h1.8l0,0l1.7,1.7l0,0l2.6-7.8l0,0h2.5l0,0l1.2-7l0,0l2.3,1.1l0,0l1.9-4.8l0,0
		l0.9,4.3l0,0l2.5,2.5l0,0l3.3,6.6l0,0l1-8.2l0,0l1.7,7.5l0,0l1.3,6.6l0,0h3.4l0,0l2.5-8.9l0,0l1.1-2.2l0,0l1.7-0.8l0,0l3,7.6l0,0
		l1.5-10.7l0,0l2.3-10.2l0,0l1.5,0.8l0,0l1.2,3.5l0,0l2.5,5l0,0l3.3,3.3l0,0l1.1-6.3l0,0l1.6,4l0,0l1.3,5.1l0,0l2.5,1.3l0,0l3.2,6.5
		l0,0l1.4-10.9l0,0l1.4,0.7l0,0l3,13.5l0,0l1.7-8.4l0,0h2.1l0,0l2.8-1.4l0,0l0.8-3.9l0,0l2,7.1l0,0l1.9-1.9l0,0l1.8-0.9l0,0l2.2,5.4
		l0,0l1.2,6.2l0,0l2.5,2.5l0,0l2.4,7.1l0,0l1.2,4.9l0,0l2.6,5.3l0,0h2.4l0,0l1.3,2.6l0,0l2.6-1.3l0,0l2.3,2.3l0,0h1.6l0,0l2.7-1.4
		l0,0l1-2.1l0,0l1.9,0.9l0,0l2.6,1.3l0,0l3.8,2.7l0,0l2.7-2.7l0,0l3,3.5l0,0l2.5,1.2l0,0l1.2,1.2l0,0l2.6,1.3l0,0l3.5,5.1l0,0
		l2.6-1.3l0,0l3.6,4.9l0,0l2.4-1.2l0,0l0.9,1.9l0,0l-1.5-0.3l0,0l-2.2,1.1l0,0l-3.2-4.8l0,0l-3,1.3l0,0l-2.7-5.5l0,0l-3.6-1.5l0,0
		l-1.2-1.2l0,0l-2.6-1.3l0,0l-2.2-3.2l0,0l-2.7,3.2l0,0l-3.2-3.2l0,0l-3.7-1.4l0,0l-1.5,0.9l0,0l-3.4,1.7l0,0h-2.4l0,0l-2-2l0,0
		l-2.9,1.4l0,0l-1.5-3.1l0,0h-2.4l0,0l-3-6.1l0,0l-1.2-5l0,0l-2.3-6.8l0,0l-2.5-2.5l0,0l-1.3-6.5l0,0l-1.6-4.1l0,0l-3.6,3.4l0,0
		l-1.2-4.3l0,0l-3.5,1.4l0,0h-1.4l0,0l-2.6,13.1l0,0l-4.1-18.5l0,0l-1,13.5l0,0l-4.9-9.7l0,0l-2.6-1.3l0,0l-1.4-5.6l0,0l-0.7,4.5
		l0,0l-5.1-5.1l0,0l-2.6-5.2l0,0l-1-3.1l0,0l-1.6,8.8l0,0l-2.2,15.2l0,0l-4.2-10.6l0,0l-1,1.8l0,0l-2.8,9.7l0,0H972l0,0l-1.5-7.5
		l0,0l-0.8,4.6l0,0l-5-10l0,0l-2.6-2.6l0,0l-1,1.6l0,0l-2-1l0,0l-1.1,6.4l0,0h-2.7l0,0l-3,8.9l0,0l-2.8-2.8l0,0l-1.2,1.3l0,0
		l-2.8,8.4l0,0h-3l0,0l-3,1.9l0,0l-2.1,5.3l0,0l-1.9,11.7l0,0l-4.9-7.3l0,0l-2.3-2.3l0,0l-0.9,3.4l0,0l-2,2l0,0h-3.2l0,0h-1.7l0,0
		l-2,2l0,0l-4.4,21.5l0,0l-3.5-14l0,0l-2.4-16.8l0,0l-2.4-4.8l0,0l-0.2-1.2l0,0l-4.8,28.6l0,0l-2.4-40.7l0,0l-0.3,13.2l0,0l-4-2l0,0
		l-2.9,13.2l0,0l-4.7-11.8l0,0l-2.2-2.2l0,0l-1.3,1.4l0,0l-1.8,0.9l0,0l-2.6,25.6l0,0l-3.2-22.7l0,0l0.8-4.1l0,0L873,312l0,0
		l-1.8,0.9l0,0l-0.9,2.8l0,0l-4.9,27l0,0l-3.5-44.3l0,0l3.6,0.1l0,0l-1.4,12.6l0,0h-2.5l0,0l-4.2,29.7l0,0l-2.4-21.5l0,0l-2.5,2.5
		l0,0l-1.6-17.3l0,0h3.6l0,0l-3.6,44.8l0,0l-4.7-29.8l0,0l-1.4-1.3l0,0l-2.6,28.7l0,0l-1.9-11.7l0,0l-2.7,15.1l0,0l-3.7-37.2l0,0
		l3.6-0.1l0,0l-1.3,27.3l0,0h-2.7l0,0l-2.4,13.4l0,0h-4.2l0,0l-2.4-12.2l0,0h1.9l0,0l-3,23.8l0,0l-5.3-10.6l0,0l-0.5-7.1l0,0
		l-2.1-0.1l0,0l-1.2,23.1l0,0h-4.2l0,0l-1.9,3.4l0,0l-4.1,24.3l0,0l-2.9-14.4l0,0l-3.2,12.9l0,0l-2.1-6.4l0,0l-1.9,1.9l0,0l-1.9-2.9
		l0,0l-4.7,4.6l0,0l-3-8.9l0,0h-1.6l0,0l-1.2,1.2l0,0h-4.7l0,0L776,380l0,0l1-2.9l0,0l-4.2,12.5l0,0l-2.4-7.3l0,0l-4.8-0.3l0,0
		l-1.4,6.8l0,0l-5.1-7.6l0,0l-1.3,0.2l0,0l-3.7-1.8l0,0l-1.9,4.4l0,0l-2.7,1.4l0,0l-1.9,1.9l0,0l-3.2-1.6l0,0h-2.8l0,0l-1.5-1.5l0,0
		l-1.4-0.7l0,0l-3.2,1.6l0,0L734,382l0,0h-1.3l0,0h-1.2l0,0h-2.9l0,0l-2.4-1.2l0,0h-2.8l0,0L721,382l0,0h-1.6l0,0H717l0,0h-2.4l0,0
		h-1.2l0,0H711l0,0h-1.6l0,0l-2.8-1.4l0,0l-2-1l0,0H703l0,0l-2.4-1.2l0,0h-2.8l0,0l-1.2-1.2l0,0h-1.7l0,0h-2.4l0,0h-1.6l0,0
		l-2.8-1.4l0,0l-2.7-1.3l0,0l-3.3-0.9l0,0l-1.2-1.2l0,0h-1.7l0,0h-2.4l0,0l-3.2,1.2l0,0h-2.1l0,0l-1.2,1.2l0,0h-3.2l0,0h-3.6l0,0
		l-1.4-2.9l0,0l-1.5-0.8l0,0h-1.2l0,0l-3.1-1.5l0,0l-2.1-2.1l0,0l-3.3-1.2l0,0h-2l0,0l-3.7,1.4l0,0l-2.1-1l0,0l-3.6,2l0,0h-1.6l0,0
		h-3.4l0,0l-2.4-3.6l0,0h-2.7l0,0H627l0,0h-1.2l0,0h-2.9l0,0l-2.4,1.8l0,0l-3.7-1.8l0,0h-2l0,0h-2.2l0,0l-3.1-4.7l0,0l-1.3-3.8l0,0
		l-2.3-4.6l0,0l-2.6-3.9l0,0l-1.3-6.3l0,0l-2.1-5.3l0,0l-2.1-1l0,0l-1.2-1.2l0,0l-2.4-1.2l0,0l-2.6-2.6l0,0l-1.9,0.5l0,0h-2.1l0,0
		l-2.4-1.2l0,0h-3.1l0,0l-0.9-1.8l0,0l-1.6,0.8l0,0l-3.8-1.9l0,0l-1-2l0,0h-1.7l0,0l-1.7,3.1l0,0l-4,2l0,0l-2.9-1.4l0,0l-2.8,1.2
		l0,0h-2.1l0,0L556,328l0,0l-2.7-6.7l0,0l-1.2-2.4l0,0l-2.3-5.8l0,0l-2.5-2.5l0,0l-0.7-2.1l0,0l-2,1l0,0l-3.4-5.1l0,0l-1.1-2.3l0,0
		l-1.7-1.7l0,0l-3.7-1.4l0,0l-3.2-1.6l0,0l-1.2-6.1l0,0l-4.1,1.2l0,0l-1.5-3.1l0,0l-4.1,1.6l0,0l-1.6-1.6l0,0l-1.5,2l0,0l-2.4,1.2
		l0,0L513,298l0,0l-1.7,7l0,0l-3-1.5l0,0l-1.5,2.2l0,0l-2,4l0,0l-2.9-1.4l0,0l-2,2l0,0h-2l0,0h-1.7l0,0l-1.9,1.9l0,0l-3.3,5.6l0,0
		l-2,4.1l0,0l-2.6-1.3l0,0l-1.3,2l0,0l-1.2,7.3l0,0l-2.6,3.9l0,0l-2.4,4.8l0,0l-1.5,3l0,0l-2.7,1.4l0,0l-2.2,2.2l0,0l-1.8,1.8l0,0
		h-2.4l0,0l-3.6,3.6l0,0h-2.1l0,0l-1.2,2.4l0,0h-3.1l0,0l-1.8,0.9l0,0l-1.2,1.2l0,0l-2.7,1.3l0,0l-2.8,1.4l0,0h-1.2l0,0l-1.8,0.9
		l0,0l-1.5,1.5l0,0h-3.6l0,0l-2.4-1.2l0,0h-3.2l0,0h-1.7l0,0l-1.2,1.2l0,0h-2.8l0,0l-2.4,1.2l0,0h-2.1l0,0l-2.4-1.2l0,0h-2.8l0,0
		l-2-2l0,0l-0.8,1.7l0,0l-3.8-1.9l0,0l-2,1l0,0h-1.2l0,0l-2.4,1.2l0,0H407l0,0l-2.5,7.6l0,0l-3.9-11.8l0,0l-2.3-1.2l0,0l-1.5-3l0,0
		l-2.5-5l0,0l-1.1-4.6l0,0l-1.5-1.5l0,0H390l0,0h-1.2l0,0h-2.4l0,0l-2,2.6l0,0l-4.6,7l0,0l-1.3-3.9l0,0l-0.9,5.6l0,0l-5.1-10.1l0,0
		l-1.2-7.4l0,0l-2.3-5.8l0,0l-2.4-4.8l0,0l-2.7,7l0,0l-2.4-10.9l0,0l1.2-2.3l0,0l-2.4,9.7l0,0l-2.4,6l0,0l-1.3,7.7l0,0l-2.8,2.8l0,0
		L351,346l0,0l-1.2,2.4l0,0l-2.6,2.6l0,0l-1.8,1.8l0,0h-3.6l0,0l-2.4-1.2l0,0l-2.1,0.9l0,0l-2,2l0,0l-1.2,2.4l0,0l-2.9,2.9l0,0
		l-2.4,1.2l0,0l-1.2,1.2l0,0l-2.4,1.2l0,0l-1.9,1.9l0,0l-3.2-1.6l0,0h-2.8l0,0h-2.5l0,0h-2.1l0,0l-3.1,3.1l0,0l-3,3l0,0h-1.2l0,0
		l-3.7,3.7l0,0l-0.7-1.4l0,0l-0.9,1.9l0,0l-2.4,2.4l0,0l-1.2,2.4l0,0l-2.9,2.9l0,0l-2.4,1.2l0,0l-3.8,8.3l0,0l-3-1.5l0,0l-4.4,2.4
		l0,0l-2.1-2.1l0,0l-3.2,1.7l0,0h-1.6l0,0h-2.4l0,0H268l0,0l-2.8,5.5l0,0l-2.9-1.4l0,0l-3.2,1.8l0,0l-2.2,1.1l0,0l-4,4l0,0h-1.5l0,0
		l-2.4,1.2l0,0h-2.9l0,0l-3.2,1.2l0,0H240l0,0h-1.2l0,0h-2.4l0,0H234l0,0h-1.2l0,0h-2.4l0,0H229l0,0h-2.4l0,0h-2.4l0,0H223l0,0h-2.4
		l0,0h-1.7l0,0l-1.2,1.2l0,0h-3.2l0,0H212l0,0h-1.2l0,0h-2.4l0,0H206l0,0h-1.2l0,0h-2.4l0,0v-1.2H202.3z"/>
</g>
<g>
	<title>0</title>
	<g transform="matrix(1,0,0,1,58,412)">
		<text transform="matrix(1 0 0 1 0 -19.2743)" class="st8 st9 st10">0</text>
	</g>
</g>
<g>
	<title>100</title>
	<g transform="matrix(1,0,0,1,41,367)">
		<text transform="matrix(1 0 0 1 0 -19.2743)" class="st8 st9 st10">100</text>
	</g>
</g>
<g>
	<title>200</title>
	<g transform="matrix(1,0,0,1,41,322)">
		<text transform="matrix(1 0 0 1 0 -19.2743)" class="st8 st9 st10">200</text>
	</g>
</g>
<g>
	<title>300</title>
	<g transform="matrix(1,0,0,1,41,279)">
		<text transform="matrix(1 0 0 1 0 -19.2743)" class="st8 st9 st10">300</text>
	</g>
</g>
<g>
	<title>400</title>
	<g transform="matrix(1,0,0,1,41,234)">
		<text transform="matrix(1 0 0 1 0 -19.2743)" class="st8 st9 st10">400</text>
	</g>
</g>
<g>
	<title>500</title>
	<g transform="matrix(1,0,0,1,41,190)">
		<text transform="matrix(1 0 0 1 0 -19.2743)" class="st8 st9 st10">500</text>
	</g>
</g>
<g>
	<title>600</title>
	<g transform="matrix(1,0,0,1,41,145)">
		<text transform="matrix(1 0 0 1 0 -19.2743)" class="st8 st9 st10">600</text>
	</g>
</g>
<g>
	<title>700</title>
	<g transform="matrix(1,0,0,1,41,100)">
		<text transform="matrix(1 0 0 1 0 -19.2743)" class="st8 st9 st10">700</text>
	</g>
</g>
<g>
	<title>800</title>
	<g transform="matrix(1,0,0,1,41,56)">
		<text transform="matrix(1 0 0 1 0 -19.2743)" class="st8 st9 st10">800</text>
	</g>
</g>
<g>
	<title>14/1/20</title>
	<g transform="matrix(1,0,0,1,57,431)">
		<text transform="matrix(1 0 0 1 0 -12.2743)" class="st8 st9 st10">14/1/20</text>
	</g>
</g>
<g>
	<title>14/2/20</title>
	<g transform="matrix(1,0,0,1,118,431)">
		<text transform="matrix(1 0 0 1 0 -11.2743)" class="st8 st9 st10">14/2/20</text>
	</g>
</g>
<g>
	<title>14/3/20</title>
	<g transform="matrix(1,0,0,1,179,431)">
		<text transform="matrix(1 0 0 1 0 -12.2743)" class="st8 st9 st10">14/3/20</text>
	</g>
</g>
<g>
	<title>14/4/20</title>
	<g transform="matrix(1,0,0,1,240,431)">
		<text transform="matrix(1 0 0 1 0 -12.2743)" class="st8 st9 st10">14/4/20</text>
	</g>
</g>
<g>
	<title>14/5/20</title>
	<g transform="matrix(1,0,0,1,301,431)">
		<text transform="matrix(1 0 0 1 0 -12.2743)" class="st8 st9 st10">14/5/20</text>
	</g>
</g>
<g>
	<title>14/6/20</title>
	<g transform="matrix(1,0,0,1,362,431)">
		<text transform="matrix(1 0 0 1 0 -13.2743)" class="st8 st9 st10">14/6/20</text>
	</g>
</g>
<g>
	<title>14/7/20</title>
	<g transform="matrix(1,0,0,1,423,431)">
		<text transform="matrix(1 0 0 1 0 -13.2743)" class="st8 st9 st10">14/7/20</text>
	</g>
</g>
<g>
	<title>14/8/20</title>
	<g transform="matrix(1,0,0,1,484,431)">
		<text transform="matrix(1 0 0 1 0 -13.2743)" class="st8 st9 st10">14/8/20</text>
	</g>
</g>
<g>
	<title>14/9/20</title>
	<g transform="matrix(1,0,0,1,545,431)">
		<text transform="matrix(1 0 0 1 0 -13.2743)" class="st8 st9 st10">14/9/20</text>
	</g>
</g>
<g>
	<title>14/10/20</title>
	<g transform="matrix(1,0,0,1,603,428)">
		<text transform="matrix(1 0 0 1 0 -11.2743)" class="st8 st9 st10">14/10/20</text>
	</g>
</g>
<g>
	<title>14/11/20</title>
	<g transform="matrix(1,0,0,1,664,428)">
		<text transform="matrix(1 0 0 1 0 -11.2743)" class="st8 st9 st10">14/11/20</text>
	</g>
</g>
<g>
	<title>14/12/20</title>
	<g transform="matrix(1,0,0,1,725,428)">
		<text transform="matrix(1 0 0 1 0 -11.2743)" class="st8 st9 st10">14/12/20</text>
	</g>
</g>
<g>
	<title>14/1/21</title>
	<g transform="matrix(1,0,0,1,789,431)">
		<text transform="matrix(1 0 0 1 0 -14.2743)" class="st8 st9 st10">14/1/21</text>
	</g>
</g>
<g>
	<title>14/2/21</title>
	<g transform="matrix(1,0,0,1,850,431)">
		<text transform="matrix(1 0 0 1 0 -13.2743)" class="st8 st9 st10">14/2/21</text>
	</g>
</g>
<g>
	<title>14/3/21</title>
	<g transform="matrix(1,0,0,1,911,431)">
		<text transform="matrix(1 0 0 1 0 -14.2743)" class="st8 st9 st10">14/3/21</text>
	</g>
</g>
<g>
	<title>14/4/21</title>
	<g transform="matrix(1,0,0,1,972,431)">
		<text transform="matrix(1 0 0 1 0 -13.2743)" class="st8 st9 st10">14/4/21</text>
	</g>
</g>
<g>
	<title>14/5/21</title>
	<g transform="matrix(1,0,0,1,1033,431)">
		<text transform="matrix(1 0 0 1 0 -13.2743)" class="st8 st9 st10">14/5/21</text>
	</g>
</g>
</svg>
