<svg xmlns="http://www.w3.org/2000/svg" viewBox="0 0 1098.11 451.7"><defs><style>.cls-1{fill:#fff;stroke:#a7a9ac;stroke-miterlimit:10;stroke-width:1.42px;}.cls-2,.cls-3{fill:none;stroke-linejoin:round;stroke-width:1.35px;}.cls-2{stroke:#d9d9d9;}.cls-3{stroke:#bfbfbf;}.cls-4{fill:#d1d3d4;}.cls-5{fill:#222b3e;}.cls-6{fill:#313e59;}.cls-7{fill:#91bce8;}.cls-8{fill:#808285;}.cls-9{fill:#231f20;}.cls-10,.cls-11{isolation:isolate;}.cls-11{font-size:14.31px;fill:#606060;font-family:IBMPlexSans, IBM Plex Sans;}</style></defs><g id="Layer_2" data-name="Layer 2"><g id="Layer_1-2" data-name="Layer 1"><g id="Group_708" data-name="Group 708"><rect id="Rectangle_632" data-name="Rectangle 632" class="cls-1" x="0.71" y="0.71" width="1096.69" height="450.28"/><g id="Group_431" data-name="Group 431"><g id="Group_430" data-name="Group 430"><path id="Path_588" data-name="Path 588" class="cls-2" d="M66.24,26.9H1071.6"/><path id="Path_589" data-name="Path 589" class="cls-2" d="M66.24,71.83H1071.6"/><path id="Path_590" data-name="Path 590" class="cls-2" d="M66.24,115.76H1071.6"/><path id="Path_591" data-name="Path 591" class="cls-2" d="M66.24,160.65H1071.6"/><path id="Path_592" data-name="Path 592" class="cls-2" d="M66.24,204.72H1071.6"/><path id="Path_593" data-name="Path 593" class="cls-2" d="M66.24,249.67H1071.6"/><path id="Path_594" data-name="Path 594" class="cls-2" d="M66.24,294.55H1071.6"/><path id="Path_595" data-name="Path 595" class="cls-2" d="M66.24,338.28H1071.6"/><line id="Line_61" data-name="Line 61" class="cls-3" x1="66.89" y1="383.31" x2="66.89" y2="26.9"/><line id="Line_62" data-name="Line 62" class="cls-3" x1="66.89" y1="383.31" x2="1071.65" y2="383.31"/><path id="Path_596" data-name="Path 596" class="cls-3" d="M1036.38,383.31V387m-60.82-3.65V387m-60.83-3.65V387m-56-3.65V387m-62-3.65V387m-62-3.65V387m-59.6-3.65V387m-62-3.65V387m-59.6-3.65V387m-62-3.65V387m-62-3.65V387m-59.6-3.65V387m-62-3.65V387m-59.6-3.65V387m-62-3.65V387M129,383.31V387m-62-3.65V387"/></g><path id="Path_597" data-name="Path 597" class="cls-4" d="M186.1,383.91h23.25l2.44-1.21h93.66l2.44-1.22h9.84l1.21-1.21h6l2.43-1.22h2.54l1.22-1.22h3.54l2.43-1.21h14.2l1.47,1.47,2.69-2.69h6.08l1.21-1.21h2.44l2.18-2.19,3.79-.25h2.54l1.22-1.21h4.36l1.56,1.56,2.67-4H387l2.17-1.09,1.5,1.5,2.8-5.58,1.6-2.4,1.27,6.38,3-5.91,2.43,1.22,1.47-3,1.72-2.58,1.05,3.13,3.2-1.6,1.67-2.5L412,363l2.78-4.17,2.34,3.51,1.57-1.56H421l2.65-1.33,1.36-1.35,2.38-4.77,2.12-1.07h1.22l2.65-1.32,3.29-1.11h2.81l1.11-2.22,2.28,1.14,2.74-2.75,1.22-1.21,2.43-2.43,2.54-2.54,1.18-3.55,2.49-1.24.94-6.58,1.84,4.58,3.11-1.55,3.29.18,2.57-1.29,3.62,5.84,2.76-8.27,3.66-1.38,1.22-2.43,2.34-1.17,2.5-2.5,3.43.36,2.55-3.83,3.47-1.22h2L496,317h2.83l1.93-1,1.14,3.4h2.62l1.21,1.22h3l2.58-3.87,3.59-1,2.58-6.44,1.2-2.41,2.39-4.78,2.49-2.49,1.19-6,2.39-1.2,1.16-3.48h2.25l2.61-2.61,1.22-1.21,2.12-2.13,2.43,1.22,1.22-1.22,2.17,1.09h2.95l1.34-2.68,1.93-1.94,3.92-.31,2.66-1.33,1.22-3.65,1.93-1,2.29,1.15h1.5l2.44-1.22h1.91l1.84,3.68L571,263.17l2.3-2.3,1.22-1.21,2.43-2.44,2.95.12,2.16,1.07,1.36,8.16,3.26-3.27,2.26-2.25h1.22l2.43-2.43h1.93l4.17,2.64,1.45-2.89,2.36-2.36,2.25-2.26H606l2.65-2.65,1.89-2.83.79,1.58,2.5,2.5,3,3,1.55-3.1L620.7,250l2.43-1.22,1.36-1.35,2.5-5,1.22-3.65,2.14-4.29,1.8.9L635.8,239l2.34,1.17,1.17,2.34,2.41,2.42,2.37,5.92,1.25,5,2.45,2.45,1.2,3.59,2.51,3.77,2.38,2.37,1.18,3.56,2.5,5L660,279l1.22,2.44,2.5,2.5,2.43,2.43,1.4,1.39h9l1.21-1.21h2L682,287.7l1.21,1.21,2.52,1.26,2.21,1.1,1.22,3.65,2.57,1.29,2.23,2.23,1.2,6,2.48,3.72,1.24,2.48,2.5,2.5,2.43,2.44,1.65,1.64,2.86-2.86,2.26-2.25,3.12,1.15L716,314.4l1.22,2.44,2.43,1.21,1.15,2.29L723.2,324l2.4,6,1.29,3.87,2.93,1.47,2.57-1.29h3.76l2.73-2.73,1.22-4.86,2.13-2.14h3.54l2.44-1.22h1.21l2.65-1.32,2.57-2.57,3,10.21,2.54-6.37.92,2.74,3.15-1.58,2.62-2.62,1.24-5,2.43-4.87.73-2.9,2.16,6.5,3.17-4.75,1.25-3.75,2.4-9.59,2.38-2.38,1.3-2.6,2.45-13.44,2.41-8.43,1.1-2.2,2.12-1.06,3.23,1.15,2.35,1.17,3.65,3.65,2.43,1.22,1.22,1.21,2.52,1.26,2.25,1.13,1.17,2.34,2.5,2.5,3.75,5h2.38l1.1,2.19,2.5,2.5,2.43,2.43,1.22,1.22,2.61,2.61h2.43l3.54,2.32,2.54,2.54H839l2.43,2.43h1.22l2.25,2.26,2.37,2.36,1.26,2.53,2.52,1.26,2.3,2.29,1.34,2.69h4.86l1,2.1,2.44,4.86,1.38,2.77h2.95l2.43-1.22,3.72,1.4,2.79-4.19,1.2-4.8,2.24-2.25,1.72-.85,1.07,3.22,2.57,1.28,3.51,3.51,2.44,4.87,1.35,1.36,2.43,1.21,3.25,3.24,1.34-10.75,2-2,2.43,1.22,1.46-1.46,2.21-1.11h2.79l.91-4.56,2.18,5.44,1.73-3.47,1.63-.81,2.25,6.77,1.5,1.5h5.37l1.4-1.39,2.5-2.5,2.51-5,1.13-5.67h2.19l1.22-1.22H942l1.28-7.71,2.38-4.75,2.49-3.75,1.2-10.76,2.4-1.2,2.5-11.26,1-7.77,1.7,3.41h1.92l2.43-3.65h2.67l1.26-15.1,2.42-8.49,2.45-13.44,1.21-20.68,2.42-12.1,2.44-8.52,1.21-7.3,2.41-8.43,2.41-4.81,1.24-2.48,2.13-6.4,3.74-1.84,2.53-1.27,1.22-2.43,2.4-1.2,1.94-2.91,1.12,2.25,2.72-2.72,1.86.93,1.13,2.25,2.41,4.83,1.28,3.85,2.42,1.2,2.35,8.24,1.23,6.14,2.47,4.94,2.81,5.62,1.75-1.75,1.86-.93,2.55,3.82,1.67-1.67,2.34-1.17,2.52-1.26,3.29-1.11h1.54l2.66-4,2.47-7.4,1.21-4.85,2.44-6.11,2.45-17.12,1.22-13.39,2.43-21.86L1054,92.65l1.22-12.17,2.43-14.6.9-9,1.55,5.42,2.43,15.79,1.71,8.55,3.11-10.87,1.75-3.5.75,2.26-1.37,1.68L1064,91.78l-2.7-13.5-2.42-15.74-.06,3.5-2.43,14.6-1.22,12.2L1052.76,105l-2.42,21.8-1.22,13.41-2.47,17.29-2.47,6.17-1.2,4.81-2.53,7.6-3.11,4.67h-3.87l-3.59,2.24-2.17,1.08-2.58,2.58-2.78-4.16-3.52,3.16-3.57-7.13-2.54-5.08-1.25-6.25-2.19-7.67-2.39-1.2-1.41-4.24-2.38-4.75-.94-1.89-4,2.94-.94-1.89-1,1.44-2.32,1.16-1.22,2.43L990,154.89l-3.51,3.51-2,4.2-1.28,2.55-2.35,4.72-2.36,8.25-1.22,7.3L974.88,194l-2.39,12-1.22,20.66-2.47,13.58-2.41,8.43-1.34,16.09h-3.13l-2.43,3.65h-3.33l-.72,3.35-2.64,11.88-2.32,1.17-1.15,10.4-2.62,3.92-2.26,4.52L943,312.13h-5.65l-1.22,1.22h-1.69l-1,4.85-2.68,5.35-2.64,2.64-1.75,1.75H920l-2-2.05-1.9-5.71-2.77,5.52-1.66-4.15-.31,1.53h-3.5l-1.78.89-1.94,1.94-2.43-1.22-2.65,13.89-4.86-4.86-2.43-1.22-1.63-1.63L887.69,326l-2.22-2.22-3.85-2.43-.79-2.37-2.15,2-1.18,4.68-3.5,5.25-3.48-1.74-2.79,1.21h-4L862,327l-2.44-4.87-.71-1.42H854l-1.59-3.18-2-2-2.71-1.36-1.35-2.71-2.23-2.22-1.9-1.9H841l-2.44-2.43h-1.21l-2.76-2.76-2.43-1.22-3.33-.89-3-3-1.21-1.21-2.44-2.44-2.64-2.64-.84-1.69h-2.28l-2.88-4.31L809.84,281l-1.08-2.15-1.88-.95-2.7-1.35L803,275.33l-2.43-1.22-2.65-2.64-3.17-2.09-2.05-1-1.86.76-.87,1.73-2.36,8.27-2.46,13.55-1.47,2.93-2.28,2.28L779,307.18l-1.31,3.95-4.64,7-1.63-4.9L769.27,317,768,322.2l-3,3-4.58,2.29-3.08,6-2.6-11.7.94-1.9-2.85,2.85-3.08,1.55h-1.22l-2.43,1.21h-2.86l-2,1.54L740,331.93l-3.32,3.32h-3.19l-3.65,1.44-3.93-2-1.43-4.31-2.35-5.86L719.74,321l-1-2-2.44-1.22-1.21-2.43-1.89-.95-2.05-1-1.93,1.9L705.51,319l-2.51-2.5L700.57,314l-2.64-2.64-1.3-2.6L694.06,305l-1.18-5.9-1.83-1.83-2.84-1.42L687,292.15l-1.75-.88-2.7-1.35-1.22-1.21-1.78-.9h-1.25L677.07,289h-10l-1.75-1.75-2.44-2.43-2.64-2.64L659,279.77l-2.44-2.43L654,272.09l-1.12-3.36-2.26-2.26-2.67-4L646.75,259l-2.5-2.48-1.3-5.24-2.25-5.61-2.38-2.38-1.08-2.16-2.15-1.07-2.64-2.64-1.55-1.28-1.55,3.12-1.22,3.65-2.62,5.24-1.64,1.64L621.44,251l-2,2-2.21,4.43L613,253.23l-2.65-2.64-.73,1.3-3.1,3.1h-1.22l-1.9,1.9-2.22,2.22-1.9,3.8-4.33-2.16-1.81-.9-2.43,2.44h-1.22l-1.9,1.9-4.94,4.94L581,259.25l-1.6-.8-1.25-.63-2.72,2.72-1.22,1.21-2,2.05-3.37,16.83-3.09-6.18-3.31,1.22h-2.07l-2-1-2.16,4.12-3.11,1.55-3.61,1.8-1.79.08-1.59,3.18h-4l-1.64-.83-1.22,1.22-2.43-1.22-1.5,1.5-1.22,1.22-3,3h-1.88l-1,3.12-2.3,1.14-1.15,5.75-2.61,2.61-2.3,4.6-1.19,2.37L515.77,317h-2.92l-3.42,4.86h-4.17L504,320.66h-3l-1-2.9-4.56.47L494.32,317h-1.25l-2.43,1.22-3.46,4.17-2.7-1.35L481.55,324l-2.15,1.08-1.22,2.43-3.36,1.68-3.74,10.23-3.9-7.8L464.66,333l-2.08-1-5,2.73-.64-1.58-.38,2.7-2.62,1.3-1.11,3.34-2.74,2.74-2.43,2.43-1.22,1.22-3.36,3.36-2-1-.9,1.81H435l-4,2.44h-1.21l-1.5.75-2.3,4.58-1.63,1.64L421.3,362h-2.1l-2.26,2.25L414.79,361l-3.47,5.21L410.1,359l-4.89,2.59-.7-2.11-2.28,4.42-2.43-1.22-4,8-1.4-7L391,370.56l-2.08-2.07-1.64.82h-2.87L381,374l-2.26-2.26H375.4L374.18,373h-2.76l-3.22,1.61-2.53.82h-2.44L362,376.6h-6.08l-3.19,3.19-2-2H337.37L334.94,379h-3.33l-1.21,1.21h-2.76l-2.44,1.22h-5.75l-1.22,1.22H309l-3.22,1.21H212.08l-2.43,1.22H186.1Z"/><path id="Path_598" data-name="Path 598" class="cls-5" d="M167.85,383.91h37.86l2.43-1.21H227.6l2.44-1.22h9.84l1.21-1.21h14.49l2.43-1.22h4.87l2.29-1.14,2.55,1.27,1.35-1.35h2.33l2.43-1.21H275l2.44-1.22H280l1.32-1.32,2.35-1.18,2.3-1.15h4.86l2.57-1.28,2.3-1.15h1.21l2.65-1.33,2.33-2.32h3.54l2.44-1.22h1.21l2.65-1.32,1.22-1.22,2.34-1.17,2.53-1.26,1.28-1.29,2.48-2.47,2.43-3.65,3.32-2.21H330l1.21-2.44h6l2.61-2.61,1.31-1.3,2.32-5.82H347l2.58-3.87,2.4-2.39,3.1-2.12,2.55,2.55,1.57-1.58,2.44-1.21,1.21-1.22,2.22-1.11H367l1.14,2.28,2.74,1.37h2.83l1.33-1.32,2.07-1,2.07,1L381,331l2.71-9.5,1.08-3.22h4.68l1.43-1.44,2.49-3.73,1.9-3.81.95,1.88,3.12-1.56,2.49-3.73,3.3.35,1.52-1.52,2.13-2.13,1.95,1,1.21,1.22,2.53,1.26,3.06,1.53,1.3-3.9h1.74l2.68,2.68,1.47-1.47h4.61l3.29,1.11,1.46,1.46,2.34-1.18,2.09,3.14,1.33,4h7l2.54-8.87,2.45-3.68,1.23-7.36,2.36-5.9,3.13-.95h2.68l3.13-.07,2.34,1.17,1.33,1.33h2.43l2.95,3,1.14-3.4,1.77,2.66,1.33,1.33,2.91,1.46,2.32-2.31,3.79-.26h3.75l2.44-2.43h1.8l1.21,2.43h2.67l2.21,1.11,3.48,3.48,1.18,3.53,2.78,7,2.91-2.91,3.25,1.22H517l3.92,1.42,2-4.1.83,2.5,3.41,1.71,1.22-8.52,1.81.9h3.93l2.17-1.08,2.12,2.12,3.49,11.88,2.46,8.59,1.33,2.66,2.43,1.22,1.4,2.8,2.85-1.42h2.54l1.5-1.5,2.34-7h1.74l3.76,2.43h6.08l2.22,1.11,1.21,1.21,2.34,1.17,1.22,2.44,2.74,1.37h2.58l3.51,1.22H589l1.22-1.22h4.23l1.22,2.43h3.25l1.13-3.4,1.72.86,2.36,2.36,1.39,1.4h2.83l2.17-1.08,3.25,10.63,2.81,1.39h1.5l2.29-1.14,2.29,1.14h1.61l2.71-2.71,1-3.12,1.8.9,2.57,1.28h1.5l2.43-1.21h2.54l1.32-1.33,2.35-1.17,2.3-1.15,3.06,1.06,1.21,2.43,2.53,1.27,2.23,2.23,1.24,6.19,2.7,1.35,2.56,1.28h6.48l1.44-1.44,2.53-3.8,1.22-7.3,2.33-3.49,2.52-2.53L678,324.3h2.08l2.79-1.39.83-2.5,2,4.1,3.16-1.58,1-2.07,2.16,1.08,2.58-1.29,3.91,1.49,1.28-5.14h1.82l3,1.51,1.31-6.57,2.25-1.13,2.64-2.63,1.15-5.77h2.26l2.66-4,.93-2.8,2.17,2.17,1.34-1.33,2.31,1.15,2.58-1.29h1.21l2.65-1.32,2.32-2.33,3.4,1.29,2.17-1.08,1.49,3,3-6,1.07-5.38,2.12,1.06,2.74-2.75,3.49.39,1.87-3.74.93,5.59,2.45,3.68,2.4,8.37,1.23,9.9,2.65,2.65,2.92,1.45,1.52-1.52,1.56-1.56,1.08,8.64,2.69,4h3l1.52-1.52,2.41-10.84,2.46-1.23,1.25-10,2.43-8.5,2.43-13.36,1.16-3.48,2.4-2.4,1-2,1.68.84,3.05,7.61,1.55-6.23h2.1l2.17-1.08,3.91,1.08,2-1,.95,1.89,2.81,5.62,1.38-1.38,2.31,2.31,2.7-1.35h3.65l2.44-1.21,3.36,1.21H832l3.22,2.26,2.44,2.43,1.21,1.22,2.27,2.27,1.53,22.83,2.91-16.94,2.39,7.15,1.6-8,2-1h4l1.88-10.32L860.05,294l1.47-11.72,1.6,4,1.48,1.49h5.56l1.27-3.83,1.82-.91,2.72,2.72,1.57-3.15L880,279l2.47-3.72,1.2-3.59,2.34-2.33,1.34-1.34,2-8.78,1.76,6.17,1.24,9.89,3,3,3-3,1.28-3.82,2.4-13.24,2.46-2.45,1.15-12.71,2.12,1.05,2.75-4.12,1.07-2.13H914l1.28-3.83,1.51-.76,2.5,11.27,2-2,2.47-3.7,2.48-3.72,1.16-3.48,2.21-1.1,2.52-1.26,1.33-1.33,2.28-3.43,3.6,1.42,2.16-4.32,1,2.1,2.72-2.72,1.81.91,1.36,4.07,2.93-1.46h1.92l1.05,2.1,2.38,4.77,1.22,12.2,2.52,3.77,2.84,4.27,1.56-1.57h2l3,1.53,1.35-8.08,2.35-8.23,2.37-1.18,1-2.07,1.68.84,2.34,5.85,1.26,3.77,2.53,2.53,1.53,1.53,2.55-1.28,1.94,1,1.35,4.07,2.44-1.21,2.2,6.6,1.36,6.82,2.76-1.37,2.12,2.12,1.52,1.53,2.7-1.35h1.52l2.43-7.3H1013l3.63,2.37,2.83,1.41,3.4,1.22,3.05-1.53,1.08-3.22,2.28,1.14,2.56-3.82L1035,255h1.5l2.56-1.28,2.52-1.26,1.21-1.22,2.35-1.17,2.52-1.26,3.54-1.11,2-2,1.21,2.43,2.6-2.6,1.22,1.22,2.55-2.55,2.43,1.21,3,3.13,2.7,9.46,1.95-1.95-2.55,4.27-3.24-11.34-1.22-2.45-2.79-.86-2.79,2.8-1.22-1.22-2.93,2.93-1.22-2.43-3.61,1.18-3.59,2.24-2.17,1.08-1.21,1.22-2.7,1.35-2.82,1.41h-2.08l-2.43-1.22-2.59,4.18-2-1-.79,2.37-4.28,2.14-2.07-2.07-4.47-.95-2.7-1.35-1.25-.89-2.43,7.3h-2.1l-3.23,1.61-2.15-2.14-1.5-1.5-3.39,1.7-1.66-8.32L994,250.86l-2.44,1.21-1.64-4.92-3.73.92L984,245.92l-2.74-2.73-1.33-4-2.16-5.39-.85,1.26-2.26,1.13-2.18,7.64-1.6,9.63-4.26-2.13h-1.25l-2.25,2.26-3.67-5.5-2.69-4-1.22-12.28-2.29-4.56-.71-1.43-4.8,2-1.64-4.93-3.88,3-.71-1.43-1.62,3.23-3.68-1.84-1.8,3-1.55,1.55-2.7,1.35-1.76.88-1,3.16-2.57,3.85-2.53,3.8-3.7,3.7-2.64-11.91-1.06,4h-2.62l-.77,1.53-3.39,5.08-1.48-.74-1,11.37-2.5,2.5-2.36,13L899.3,276l-4,4-4.17-4.17-1.27-10.21-.42-1.46-1,4.44-1.59,1.59-2.13,2.13-1.16,3.48L881,279.71l-2.36,3.55-2.3,4.6-3.3-3.29L871,289H864.1l-2-2-1.91,15.84-2.77-18-.76,4.18h-4.74l-1.25.62-2.39,11.95L846,294.76l-3.61,21.64-2.41-32-2-1.95-1.21-1.21-2.44-2.44-1.9-1.9h-3.32l-2.43-1.21-2.79,1.21h-2.86l-4,1.62L815,276.41l-1.72,1.72L809.71,271l-1.59-.21H800.6l-2.24,9-4.27-10.68L791,272.39l-1,3.11-2.43,13.35-2.41,8.46-1.32,10.56-2.53,1.27L779,319.76l-2.13,2.12h-4.17l-3.21-4.82-.81-6.45-1.94,1.94-3.87-1.94-3.09-3.09-1.27-10.21-2.32-8.1-2.49-3.74-.36-2.15-.74,1.48-2.89-1.45L746,287l-1.47-.73-.79,4-4.18,8.34-2-4.06-1.62.81-2.86-1.43-2.14,2.1-3.08,1.54h-1.22L723.76,299l-2.07-1-1.58,1.58-1.64-1.64L715,303.64h-1.91l-1,5.15-3,3-1.9.95-1.51,7.55-4.19-2.09-2,5.69-4.08-2.05-3.22,1.44-1.62-.81-.67,1.34-4.61,2.3L684,323.6l-3.55,1.93H679l-1,5.16-2.7,2.7-2.12,3.17-1.21,7.3L669.22,348l-1.88,1.87h-7.27l-2.82-1.41L654,346.84l-1.28-6.42-1.84-1.83-2.71-1.36L647,334.8l-1.5-.75-2.4,1-2.17,1.09-1.54,1.54h-2.76l-2.43,1.22H632.1l-2.82-1.41L628,339.29l-3.27,3.27h-2.4l-2-1-2,1h-2.08l-3.57-1.78-2.51-10.06-1.57.9H605l-1.75-1.75-2.22-2.23-1.26,2.76h-4.87L593.7,328h-3l-1.22,1.21h-3.62L583.45,328H579.8l-3.36-1.68-1.22-2.44-2.17-1.08-1.21-1.22-1.79-.89H564l-3.08-1.54-1.25-.89-2.16,6.46-2.05,2.05h-2.76L549,328.58l-1.76-3.52-2.43-1.21-1.57-3.13L540.74,312l-2.33-10.49-2.34-2.34-1.65.82h-4.51l-1.77,8.24-5.37-2.69-1.34,2.37-3.68-1.84H514.1l-2.43-1.21-3.89,3.85L504.3,300l-1.1-3.29-2.13-2.13-2.79-1.9h-3.13l-1.21-2.43-3,2.43h-4l-3.22,1.61-2.93,1.22L477,293.57,475.4,292,474,294.23l-4-4h-2.43L466,288.71l-2.16-1.09-1.26-.62-4,.82H456.9l-2.64,6L453,301.28l-2.5,3.73-2.73,9.57H439l-1.56-4.67-1.4-2.1-2.17,1.08L432,307l-1.78-.89h-4.9l-2,2-3.19-3.19-1.82,4.4L414,307.09l-2.7-1.35-1.22-1.22-2.5,1-2.14,2.14L403,306.46l-2.76,4.06-4.5,2.25-1.25.9-2.6,3.89L390,319.44H386.8l-1.9,2.37-3.27,11.45-3.2-3.2-1.35-.67-1.35.67-1.54,1.54h-3.62l-3.37-1.68-1-2-2.66.89-1.21,1.21-2.44,1.22-2.3,2.3-2.79-2.79-2,1.5-2.3,2.3-2.87,4.31h-2.2l-3.31,5.29-1.48,1.48-3,3H332l-1.22,2.44h-3.13l-1.78.89-3.32,4.53L320,359.05l-1.42,1.42-2.7,1.35-2.17,1.09-1.22,1.21-3.08,1.54h-1.22l-2.43,1.22h-2.86L300.31,369l-3.08,1.54H296l-2.05,1L291.14,373h-4.08l-2.83,1-2.17,1.08-1.54,1.54h-2.76l-2.43,1.22h-1.21L271.68,379h-2.11L268,380.66l-2.79-1.4-2,1h-4.08l-3.22,1.21H241.6l-1.22,1.22h-9.27l-3.22,1.21H209.21L206,385.12H167.85Z"/><path id="Path_599" data-name="Path 599" class="cls-6" d="M181.24,383.91h9.87l2.43-1.21h9.74l2.43-1.22h3.64l2.44-1.21h3.65l2.43-1.22h1.22l2.43-1.22h3.65l2.43-1.21h3.65l2.44-1.22H241l2.43-1.21H269L271.4,373h6.08l2.43-1.22h1.33l2.54-2.54,2.57-1.28,1.25-3.76,2.33-2.33,1.22-1.21,2.43-2.44,2.43-2.43,3.22-2.18,2.7,1.35,1.32-2.64h2.2l2.82-1.41,1.25-5L312,342.2l1.17-4.7,2.27-1.14,2.6-2.6,1.26-3.77,2.41-6,2.46-4.9,1.22-4.89,2.41-6,2.45-4.9,1.23-4.92,2.39-8.35,3.46-2.25,2.08-2.08,4.1-.4,2.47-5,3.27.38,2.57-2.57,3.81-1.35,2.58-3.87,1-3.93,2.1,2.1,1.65-1.64,2.48-2.48,2.54-3.81,1.22-8.52,2.32-3.48,2.39-2.39,1.26-1.26,2.56-3.85L380,144.74l2.62,1.8L383.8,150l2.5,5,2.4,2.4,1.14,3.42,2.46,110.35,2.55-1.28,1.11,6.68,2.5,2.5,2.39,4.78,1.31,2.61,2.39,1.19,1.14,3.42,2.47,7.43L410.7,301l1.21,1.22,2.39,2.39,2.38,3.57,1.25,2.49,2.93,2.93,2.43-2.43,3.18,4.39,2.47,2.47,1.22,1.22,2.43,2.43,1.22,1.22,2.61,2.61h2.43l3.49,4.73,2.49,1.24,1.32,1.33H451l1.21,1.21h6.48l2.43-1.21,3.24,1.15,2.34,1.17,1.33,1.33h2.54l2.12,1.06,1.3,2.59h6.6l2.43-1.22h1.21l2.44-1.22h2l1.22,1.22h4.87l1.21,1.22h2.44l2.43,2.43h1.32l2.44,1.22h1.21l2.58,1.28,2.31-1.15,1.22,1.22,2.82-1.42,2.3-1.15h17l2.29-1.14,2.56,1.27,1.34-1.35h2l2.43,1.22h3.55l1.34,1.35,2.7-1.35H561l3.12-.06,2.35,1.17,1.21,1.21,2.44,1.22,2.54,2.54h4.27l1.22-2.43h2.2l2.74-1.37,1.22-2.44,2.25-1.12,2.3-1.15,3.36,1.21h2.33l3.75,2.43h1.22l2.3,1.16,2.56,1.28h6.23l3.5,1.21h2.33l1.21,1.22h8.52l1.22,1.22h2.82l2.65-1.33,3.15.11h2.57l3.38,1.15,2.56,1.28h9.88l3.5,1.22h2.83l1.22-1.22h26.26l1.21,1.22h10.13l2.43-1.22h18.36l1.32-1.32,2.35-1.17,2.3-1.16h1.22l2.29-1.14,2.55,1.27,1.46-1.45L736,345h2.54l1.22-1.22h2.43l1.4-1.39,2.43-2.43,2.25-2.26,3.4-1.14,2.56,1.27,1.6-1.6L758,332l2.26,2.27,1.22-1.22,2.07,2.08,3.07,1.53,1.47-2.94,2.38-3.57,1.26-1.26,2.23-5.59,2.39,1.19,1.44-2.88,2.3-2.3,2.52-1.26,1.26-2.53,2.37-2.36,2.57-2.57,1.23-7.4,2.39-4.78,1.2-2.4,2.32-3.49,2.38-1.19,3.29-1.1h6.23l2.43-1.22h1.32l2.61-2.61,3.22-1h5.94l2.22,1.11,1.21,1.22L829.3,289l2.56,1.29h1.21l2.22,1.1,2.29,2.3,1.22,2.43,2.68,2.68h1.22l2.43,2.43h2.43l3.9,2.5,2.8-1.4,3.14.11H860l3.5,1.22h3.65l2.43,1.21h1.22l2.58,1.29,2.31-1.15,1.22,1.21,2.91-1.45,2.57-2.58,1.22-2.43,1.93-1.93,4.13-.42,2.47-6.18,2.76,3.91h3.18l1.4-2.79,2.42-6.05,2.42-3.62,1.19-2.38,2.4-2.41,2.49-3.73,1.19-2.38,2.43-2.43,1.22-2.43,2.29-2.3,2.53-1.26,1.26-2.52,2.36-2.37,2.5-2.5,1.25-2.48,2.41-3.62,2.48-3.72,1.1-3.31h2.37l1.34-2.68,2.36-2.36,2.5-2.5,1.17-2.34,2.4-1.2L948,228l1.22-1.21,2.43-3.65,2.46-2.46,1.17-2.34,2.12-1.06,3.13,4.86H963l1.32,2.64,3.12-1.56,2.34-3.51,3.75-2.61,2.5-2.5,1.17-2.34,1.77-.89,2.08,3.12,1.31,5.22h2.53l1.32,2.64,2.58-1.29,2.06,2.06,1.26,2.52,2.74,1.37H997l1.12,3.37,2.54,2.54,2.36,2.36,1.22,2.43,2.68,2.68h1.32l2.3,1.16,2.25,1.12,1.15,2.29,2.48,3.73,2.41,2.4,1.26,2.53,2.53,1.26,2.36,2.37,1.22,1.21,2.74,2.74,3-1.5,1.14-2.27h1.8l1.35,1.34,2.91-1.45,2.57-2.57,1.17-2.34,2.13-1.07h2.66l1.39-2.76,2.39-4.78,2.43-2.43,1.17-2.34,1.86-.93,1.21,1.21,2.83-1.41,2.61-1.31,1.29-2.58,2.38-3.57,2.49-2.49,1.27-3.78-.2,4.44-2.61,2.61-2.27,3.4-1.44,2.87-3,1.49-3.61,1.8-1.21-1.21-1.79,2.51-2.44,2.43-2.3,4.6-1.72,3.44h-3.13l-1.5.75-1.07,2.16-2.86,2.85-3.87,1.93-1.61-1.61-1.54,2-4.15,2.08-3.36-3.37-1.22-1.21-2.22-2.23-2.71-1.35-1.36-2.71-2.35-2.35-2.6-3.9-1-2-1.88-.94-2-1h-1.54l-3.18-3.17L1002,236l-2.22-2.22L997,231l-.93-2.81h-1.55l-3.36-1.68-1.36-2.71-1.29-1.29L985.66,224l-1.53-3.06H981.4L979.91,215l-1.36-2L977,215.29l-2.65,2.65-3,3-3.16,3.24-4.5,2.25-1.53-3H959.8l-2.43-4.87-2.24,2.91-2.52,2.51-2.43,3.65L949,228.76l-2.6,3.9L944,233.82,943,236l-2.64,2.64-2.22,2.23L936.51,244h-2.24l-.88,2.64-2.57,3.85-2.37,3.55-1.3,2.6-2.64,2.65-2.23,2.22-1.35,2.71-2.71,1.36-2,2L915,270l-2.43,2.43-1.13,2.27-2.6,3.89L906.47,281l-1.14,2.27-2.39,3.59-2.39,6-1.75,3.51h-4.69l-1.8-3.61-1.72,5.54-4.23,2.12-1.78.08-1.22,2.43-2.85,2.85-3.88,1.94-1.21-1.22-2.08,1-2.86-1.43h-1.22l-2.43-1.22h-3.65l-2.43-1.22H857.1l-1.64-.82-4,2.25-3.51-1.75-3.33-.89L842.18,300H841l-3.17-3.17-1.22-2.44-2-2-1.79-.89h-1.21l-2.82-1.41L826,288.7l-1.22-1.22-1.78-.89h-7.33l-3.65,3.65h-1.51l-2.43,1.22h-8.19l-3.15,2-2.1,3.15L793.51,299l-2.31,4.62-1.27,7.61L787.09,314l-2.23,2.22L783.51,319l-2.71,1.35-2,2-1.9,3.8L774.59,325l-1.84,4.59-1.35,1.35-2.27,3.4-2,4-4.33-2.17-1.35-1.35L760.25,336l-1.93-1.94-1.43,2.87-2.36,2.35-2.79-1.4-2,1-2.79,1.9-2.44,2.44L742.76,345h-2.43l-1.22,1.21h-2.76l-1.78.9L732.63,349l-2.79-1.4-2,1h-1.21l-2,1-2.17,1.08-1.54,1.54H702.3l-2.44,1.22H689l-1.22-1.22H662.48l-1.22,1.22h-3.62l-2.43-1.22h-11l-2.81-1.41-2.05-1h-3.65L634.1,349l-3.58,2H626.9l-1.22-1.22h-8.51L616,348.61h-2.1l-2.43-1.21h-7.3L601.3,346l-2-1H598L595,343.42l-3-.89-2.44-1.22-2.4,1-1.89.94L584,345.72l-3.37,1.7h-1.73l-1.22,2.43h-5.53l-2.76-2.75L567,345.88l-1.22-1.22-2.17-1.08-1.25-.63-4,.82h-5.65l-3.23,1.61-1.61-1.61h-3.33l-2.43-1.21h-1.25l-1.61,1.61-2.79-1.4-2,1H518.18l-2.83,1-3.61,1.81-1.22-1.22-2.07,1L505.59,345h-1.22l-2.43-1.22H500.4L498,341.34h-2.44l-1.21-1.22h-4.87l-1.21-1.21H487l-2.44,1.21h-1.21l-2.43,1.22h-7.64l-1.45-2.9-1.5-.76h-2.77L466,336.14l-2.16-1.08-2.05-1L459,335.25h-7.27L450.53,334h-4.88l-1.54-1.55-2.6-1.3-2.6-3.9-3-.55-3-3-1.22-1.21-2.43-2.44-1.22-1.21-2.56-2.56-2.43-3.65-2.23,2.63-3.93-3.93-1.3-2.6-2.27-3.41-2.3-2.3-1.22-1.21-2.74-2.74-2.57-7.71-1-2.93-2.3-1.15-1.49-3-2.3-4.6-2.64-2.63-.91-5.44-2.8,1.4L388.64,161l-1-3-2.34-2.34-2.62-5.25-1-3-2.43-1.22,1.85,5.55L378.89,244l-2.83,4.24-1.34,1.34-2.3,2.3-2.1,3.16-1.22,8.51-2.76,4.15-2.56,2.56-2.51,2.5-1.44-1.44-.51,2.05-2.88,4.31-3.25,1.63-3.72,2.83L347,280.91l-2.65,5.22-4.16,2.08-2.21.5-2.43,1.21-3,8.7-1.25,5-2.49,5-2.36,5.9-1.24,4.94-2.48,5-2.39,6-1.33,4-2.95,2.94-1.95,1-1.09,4.35-2.43,3.65-1.34,5.38-3.57,1.78H304l-1.53,3.06-3.24-1.63-1.36.68-3.44,3.44L292,361.48l-1.22,1.22-2.12,2.13-1.32,3.95-2.85,1.43L281.74,373H280.2l-2.43,1.22h-6.08l-2.43,1.22H243.7l-2.43,1.21H234l-2.43,1.22h-3.65L225.46,379h-3.65l-2.44,1.22h-1.21l-2.43,1.22h-3.65l-2.44,1.21H206l-2.43,1.22h-9.73l-2.43,1.22H181.24Z"/><path id="Path_600" data-name="Path 600" class="cls-7" d="M187.32,383.91h27l1.22-1.21H269l2.44-1.22h18.35l1.22-1.21h10.95l1.22-1.22h9.61l2.44-1.22h12.16l2.44-1.21h4.86l2.44-1.22h2.54l1.21-1.21h2.33L345.6,373h3.65l2.43-1.22H359l2.44-1.21h3.25l2.85,2.85,1.43-2.85h2.2l2.65-1.33,3.43-1.11,2.78-1.39,1.16-3.47h2.25l1.32-1.33L387,360.8h3.76l2.43-2.43h2.43L397,357l2.26-2.26h2.41l1.22-1.21h2.43l1.33-1.33,2.07-1,2.29,1.15h6.6l1.22-2.43H421l2.81-1.4,1.17-4.68h2.21l2.43-2.43h1.22l2.62-2.61,1.25-1.26,2.44-3.65,2.51-2.51,1.21-4.87,2.36-2.35,2.43-3.65L449.1,317H451l4.07,4.07,1.5-3,2.43-1.22,2.48-4.95,3.58-3.58,2.55-2.56,1.23-4.92,2.38-3.56,1.67-2.51,1.14,4.57,3.3-3.29,1.12-3.37h1.85l2.22,1.11,1.32,1.32H487l2.53-7.57,3.24.41,2.81-2.82,1.17-2.33,1.86-.93,2.3,2.3h1.61l2.43-1.22,3.09,3.51,2.35,1.18,1.45,4.34,2.7-2.7,1.9,1.9,1.22,3.65,2.71,2.71h2.43l3.4,2.26,1.19,3.54,2.71,2.72h2.31l1.21,2.43h2.67l2.43,1.22,3.43,2.32,2.34,1.17,1.22,2.43,2.53,1.27,1.21,1.21,2.52,1.26,2.57,1.28h1.21l2.58,1.29,2.31-1.15,3.77,2.37,2.58-1.29h5.68l4,2.56L578,323.1h4.62l3.29,2.32,2.44,1.22,1.21,1.21,2.52,1.26,2.57,1.29h1.61l2.68-2.69,1.21-2.43,2.4-2.4,2.49-3.73,1.19-2.38,2.36-2.37,2.26-2.25,3,2.25,2.36,2.37,1.34,2.68h2.66l2.13,1.06,1.21,2.43,3.25,1.62,1.39-4.18,2.26-2.26,2.43-1.21,1.29-1.29,2.36-2.36L639.1,312l1.08-3.22,2.2,1.1,2.81-2.81,1.22-2.44,2.43-2.43,1.17-2.34,2.25-1.12,1.89-.95,1.11,2.23h2.56l2.43,2.43h1.22l2.25,2.25L666,307l1.4,7,3.06-3.06,3,2.33,2.65,1.32h3.93l2.17-1.08,3.41,3.41,2.43,1.21,1.22,1.22,2.65,1.32h3.94l2.74-1.37,1.26-2.52,2.37-2.37,2.53-2.53,1.12-3.37h2.25l2.61-2.61,3.22-2.18,2.29,1.14h3.79l3.29,2.33,2.34,1.17,1.22,2.43,2.74,1.37h2.2l1.22,2.43h3.13l2.63-3.95,1.25-2.49,2.46-6.16,1.21-6.05,2.42-4.83,2.45-7.34,1.17-3.52,2.33-2.33,2.53-2.53,1.24-3.71,2.3-3.45,1.61-.8,1.1,4.4,2.59,1.3,2.37,2.36,3.52,4.7,1.2,3.62,2.62,5.24h4.5l2.55-10.17,2.44-7.32,1.22-7.31,2.4-8.43,2.46-4.9,1.21-8.52,1.85-3.69.76,1.53,2.61,1.31,3.06,1.53,1.44-4.3,2.38-6,2.16-2.17h1.22l2.61-2.61L810,226.2l.82,1.64,2.4,7.22,1.22,7.31,2.5,6.26,2.41,2.42,1.19,3.55,2.47,4.94,2.39,3.58,1.2,6L829,277.7l2.44,4.88,1.22,3.65,2.46,4.94,2.44,3.65,1.21,2.43,2.49,3.73,1.26,1.26,2.33,2.33,2.38,7.13,1.22,6.12,2.47,4.94,2.43,4.87,1.24,2.46,2.48,3.73,2.66,2.66h1.21l2.26,2.25,1.22,1.22,2.5,2.5,2.64,1.32h3.65l2.44,1.22h1.21l2.3,1.15,2.35,1.17,3.76,3.76h1.32l2.43,1.22h14.74l3.38,1.15,2.56,1.28h1.5l2.65-1.32,1.22-1.22,2.34-1.17,2.3-1.15h3.65l2.65-1.33,1.22-1.22,2.43-1.21,2.57-2.57,1.25-2.49,2.38-3.57,3.53-3.54,2.57-1.28,1.22-3.65,2.21-1.1,2.61-1.31,1.31-2.61,2.39-4.78,2.49-2.49,1.23-6.15,2.33-3.5,3.65-3.65,2.52-3.78,1.22-4.87,2.29-3.43,2.47-1.23,1.32-2.65,2.46-7.37,2.44-11,1.21-7.25,2.41-6,2.45-6.13,1.22-6.08,2.4-6,.93-1.87,1.8.9,2.54,2.54h1.61l2.71-1.35L998,234l1.1-3.31h4.17l1.35,1.35,3-1.5.93-1.86,1.84,1.83,2.86,2.87,1.33-1.34,2.05,1,2.2,1.1,1.14,3.41,2.57,7.72h2.62l3.9,2.5,2.79-1.4,1.29-1.29,2.53-2.54,1.22-3.64,2-2,2.59,1.3,1.11-2.23,2.14,2.15,2.15-1.07,1.15,4.59h2.58l2.23,3.34,1.37,2.74h3.34l1.27-8.94,2.42-4.84,2.46-9.82,1.22-8.53,2.42-12.14,2.42-9.65,1.18-2.37,0,2.8-2.37,9.5-2.41,12.07-1.23,8.56-2.5,10L1060,239.1l-1.4,9.79h-5.14l-1.67-3.34-1.83-2.74h-2.88l-1-4-1.57.79-1.58-1.58-.9,1.8-2.88-1.44-2.42,4.85-2.74,2.73-1.42,1.43-3.52,1.76-3.51-1.76-3.88-.89-2.85-8.55-1-2.93-1.76-.88-1.25-.63-1.58,1.58-3.72-3.72-5.15,2.14-1.62-1.61h-1.67l-2,2.64-2.84,4.25L993,240.38h-2.4l-2.76-2.76-3.24,6.32L983.36,250l-2.5,6.24-2.36,5.9-1.19,7.15-2.46,11.09-2.5,7.51L970.8,291l-2.54,1.27-2,3-1.22,4.86-2.7,4.06-2.57,2.56L956.56,311l-1.25,6.27-2.61,2.62-2.3,4.6-1.49,3-3,1.49-1.76.88L943,333.51l-2.85,1.42-2.22,2.23-3.36,4.49-1.3,2.6-2.85,2.85L928,348.32l-1.22,1.21-3.08,1.54h-2.87l-2.83,1-2.17,1.08-1.21,1.22-3.09,1.54h-2.07l-2.82-1.41-2.05-1H888.75l-2.43-1.22h-1.54l-3-3-3.17-2.09-2-1h-1.22L872.94,345h-3.65l-3.08-1.54-2.64-2.64-1.22-1.22-1.9-1.9h-1.22l-3.1-3.09-2.6-3.9-1.26-2.53-2.44-4.87-2.54-5.08L846.05,312l-2.26-6.78-2.13-2.13-1.34-1.35-2.6-3.89-1.22-2.43-2.43-3.65-2.54-5.08-1.22-3.65-2.45-4.9-2.5-8.75-1.16-5.8-2.3-3.45-2.54-5.08-1.12-3.36-2.4-2.4-2.64-6.61L812,235.35l-2.34-7L806,231.87h-1.22l-1.63,1.63-2.27,5.69L799,244.78l-4.31-2.16-3-1.49-.53,1.63L790,251.27l-2.49,5-2.36,8.25-1.22,7.34-2.46,7.37-2.76,11.05h-6.2l-3-6-1.18-3.55-2.2-3.3-3.31-3.31-2.92-1.46-.87-3.47-2,3L755.73,276,753,278.77l-2.13,2.13-1.08,3.24-2.48,7.42-2.38,4.76-1.2,6-2.52,6.31-1.3,2.6-3,4.55h-4.54l-1.21-2.43h-1.74L726,311.68l-1.22-2.43-2.15-1.08-2.11-2.11H716l-2-1-1.35.68-4,4H706.8l-.94,2.81-2.73,2.74-2.23,2.22-1.35,2.71-3.37,1.69h-4.51l-3.08-1.55-1.22-1.21-2.43-1.22-2.64-2.64-1.93.53h-4.51l-3.08-1.54-2.11-2.11-4,4.31-1.78-8.88-2-2-1.9-1.9h-1.22l-2.43-2.43h-2.8l-.9-1.81-2.69,1.34-1.08,2.15-2.43,2.44-1.22,2.43-3.57,3.57-1.73-.86-.79,2.37-2.84,1.42L635,316.48l-1.42,1.42-2.43,1.22L629.24,321l-1.75,5.23-4.86-2.43-1.21-2.43-1.5-.75h-3.13l-1.59-3.18L613,315.26l-1.9-1.9-1.6,1.9-2.23,2.22-1.13,2.27-2.6,3.9L601.17,326,600,328.43l-3.18,3.18h-2.4l-2.82-1.41-2.7-1.35-1.21-1.22-2.44-1.21-2.1-2.11h-4.57l-1.62,1.61L573.05,324l-2.56-.9h-2.44l-3.64,1.43-3.52-1.76-2.56.54-2.87-1.43h-1.21l-2.82-1.41-2.7-1.35-1.22-1.21-2.71-1.36-1.22-2.43L541.43,313l-2.11-2.11L536,309.71h-3.13l-1.22-2.43h-2.06L526.32,304l-1.12-3.34-2-1-3.32-.89-3.27-3.27-1.22-3.65-4.07,2.39-1.91-5.73-2.19-1.1L505,284.16l-2.24,1.22h-2.4l-2-2-1.79,2.51L493,289.42l-2.43-1.21-2.7,8.12h-4.5l-1.55-1.54-1.78-.9-1.62,2.81-5,5-1-4-2.4,3.6-1.26,5.05L466,309.17l-2.43,2.43-3.58,6.15L457.5,319l-2.07,4.15-4.22-4.22-1.6-.68-1.9,1.9-3.53,4.74-2.2,2.2-1.21,4.86-2.67,2.66-2.43,3.65-1.34,1.35-3,3h-1.22L427.71,345h-1.77l-1.07,4.3-3.57,1.78h-1.73l-1.22,2.44h-7.64l-2-1-1.35.67-1.55,1.54h-2.43l-1.21,1.22h-2.44l-1.9,1.9-1.75,1.75h-2.43L391.22,362h-4l-1.78.89-1.54,1.55H382l-1,3.11-3.49,1.75H375.4l-4,2.44h-1.74l-1.84,3.68-3.69-3.68h-1.68L359.26,373h-6.51l-3.21,1.22h-2.87l-3.22,1.21h-2.1l-1.22,1.22h-2.76l-2.43,1.22h-4.09L327.64,379H315.47L313,380.26h-9.41l-1.21,1.21H291.47l-1.22,1.22H271.68l-2.43,1.22h-53.2l-1.21,1.21H187.32Z"/><path id="Path_601" data-name="Path 601" class="cls-8" d="M81.49,383.91H214.33l1.22-1.21h31.52l2.43-1.22h8.62l1.22-1.21H269l2.44-1.22h9.73l2.29-1.14,2.55,1.27,1.35-1.35h8.51l1.22-1.21h8.4l2.44-1.22h3.76l1.21-1.22h6l2.43-1.21h3.65l2.43-1.22h7.3l2.43-1.21h12.17l2.43-1.22H359l2.43-1.22h1.22l2.43-1.21h9.73l2.44-1.22H389.5l1.22-1.22h12l2.43-1.21h3.65l2.44-1.22h18.35l1.22-1.21h3.54l2.43-1.22h3.65l2.43-1.22h2.29l3.51,1.22h12.05l1.22,1.22h5.12l3.5,1.21h2.58l3.51,1.22h12.05l1.22,1.21h8.62l2.43,1.22h17.32l2.43-1.22h15.53l2.43,1.22H545l3.5,1.22h6.23L558,368l2.79,2.8,1.47-1.47H573.3l1.11-2.23,2,1h18.39l3.51,1.22h15.81l2.22,1.11,3.75,3.76h2.69l3.77,1.34,1.46-1.45,2.43-1.22,2.6-2.6,1.18-3.55,2.21-1.1,2.52-1.26,3.14-1.1,2.44,1.21h9.62l1.22,1.22h8.91l2.43-1.22H668l2.65-1.32,3.14-1.11,2.43,1.22h1.22l2.3,1.15,2.25,1.12,1.22,2.44,2.61,1.3,2.83,1.42,1.35-1.35h2.5l2.58-3.87,1.25-1.25,2.5-5,1.15-3.45,1.81-.91,3,3,1.28-7.65,1.7.85,2.56,1.28h3.93l2.83-1.42.93-4.63,1.81,3.61h3.7l3,4.53,1.48-5.93,2.06-1h3.65l2.29-1.14,2.87,1.43,1-4.85,1.83,4.56h6.24l1.21,1.22h5.37l1.22-1.22h2l2.08,1L761,352.3h9l3.4,2.43h2.93l1.4-1.4,2.26-2.25h2.43l1.32-1.33,2.53-1.26,2.52-5.05,1.13-2.25,2.34-1.17,1.22-1.22,2.34-1.17,2.66-1.33,1.25-3.75,2.15-2.15h3.65l2.61-2.61,2.5-2.5,1.09-2.19h8.14l3.29,2.33,2.34,1.17,1.17,2.34,2.57,2.57,2.34,1.17,1.12,2.23,2.47,6.17,2.37,2.37L839,355l3-5.91,3.33.8,2.94,1.47,1.21-3.65,2.4,1.2,1.84-4.58.94,6.58,2.71,1.35,2.56,1.29h1.22l2.22,1.1,1.21,1.22L867,357.1l2.35,1.17,1.32,1.33h8.63l2.43,1.21H887l2.09-2.08,2,3,1.37,2.73h6.71l2.3-2.3,2.16,1.09h6l1.21,1.21h8.52l3.65,3.65h2.68l3.51,1.22h6.6L937,366.9h1.91l2.43,1.21h6.23l3.5,1.22h2.58l3.29,1.11,1.32,1.32h8.63l2.7,1.35,1.52-1.53,2.26-2.25h11.66l1.21,1.21h2.55l2.43,1.22h6.22L1001,373h15.81l2.44,1.21h3.65l2.43,1.22h6.22l3.51,1.22h1.5l2.43-1.22h11.88l2.43,1.22h11.24l2.43-1.22h3.51v1.22h-3.22l-2.44,1.21H1053l-2.44-1.21h-11.3l-2.43,1.21h-2.08l-2.43-1.21H1025l-2.43-1.22h-3.65l-2.44-1.22h-15.81L998.25,373H991l-2.43-1.22h-2.76l-1.22-1.22H973.89l-1.9,1.9-2.15,2.15L966.62,373h-8.84l-1.54-1.54-1.79-.89h-3.64l-2.44-1.22h-7.3l-2.43-1.22-2.09,2.44h-7.64l-2.43-1.22h-4l-3-3-2.36-.68h-6.83l-1.22-1.22h-5.77l-1.64-.82-2,2h-8L890,362.34l-1.14-1.7-1.39,1.4h-6L879,360.82h-8.84l-1.55-1.54-2.16-1.09-2.7-1.34-1.22-1.22-1.78-.89h-1.22l-2.82-1.41-3.28-1.65-.39-2.7-.64,1.59-2.32-1.16-1.22,3.65-3.93-2h-2.75l-4,8L836.36,344l-2.25-2.25-2.54-6.36-.92-1.82-2.15-1.08-2.85-2.85-1.08-2.15-2.15-1.08-2.11-2.11h-7.85l-.84,1.69L809,328.66l-3,3h-3.65l-1.59,1.59-1.32,4-3.11,1.56-2.17,1.08L793,341l-2.15,1.07-.94,1.89-2.71,5.41-2.71,1.36-1.54,1.54h-2.44l-1.9,1.9L776.81,356h-3.94l-2.43-2.43H760.15l-1.39-4.18-1.37-.69h-1.25l-1.21,1.22h-6.38l-1.22-1.22h-6.56l-.61-1.53-.48,2.41-3.76-1.88-2,1h-3.64l-1.3.65-2,8.05-4.18-6.27H719l-4.52,2.44H710l-2.82-1.41-1.62,8.24-4-4-1.6,3.35L697.28,365l-1.3,1.3-2.87,4.31h-2.66l-1.61,1.61-3.61-1.8-3-1.49L681,366.45l-1.89-.95-2-1h-1.21l-2.44-1.22h-1.24l-4,2.44H667l-2.43,1.21h-9.7l-1.22-1.21h-9.42l-2.43-1.22h-1.24L637,366.72l-1.76.88-1.11,3.34-3,2.95-2.43,1.21L626.8,377l-3.22-1.61h-4l-3-3-2.79-1.9H598l-2.43-1.22H576.14l-2.09,1.22H562.73l-2,2L557.24,369l-1.78-.89h-7.3l-2.43-1.22h-7.3L536,365.7h-15l-2.44,1.21H500.72l-2.43-1.21h-8.84l-1.21-1.22H476.39L474,363.26h-3.65l-2.43-1.21h-6.41l-1.21-1.22H448.42L446,359.61H443.2l-2.44,1.22h-3.65l-2.43,1.22h-3.33l-1.21,1.21H412.35l-3.21,1.22h-2.87l-3.22,1.19H391.21L390,366.88H377.51l-2.43,1.22h-9.73l-2.44,1.22H361.7l-2.44,1.21h-6.51l-3.21,1.22H337.37L334.94,373h-7.3l-2.44,1.21h-3.65l-2.43,1.22h-5.76l-1.21,1.21H309l-3.22,1.22h-8.19l-1.21,1.22h-8.52l-1.61,1.61-2.79-1.4-2,1h-9.73l-2.44,1.21h-9.4l-1.22,1.22h-8.84l-2.43,1.22H216.05l-1.21,1.21H81.49Z"/><path id="Path_602" data-name="Path 602" class="cls-9" d="M187.32,383.91h14.85l1.21-1.21H227.6l2.44-1.22h3.65l2.43-1.21h1.32l2.61-2.61,3.5-2.32,2.52-1.26,3.56.31,2.53-5.07h7.07l2.65-1.33,3.17,1.46L268,368l3.61.34,2.63-6.58,3.49-2.27,2.58-2.57,1.21-2.44,2.44-2.43,1.93-3.87,1,2.1,2.85-2.85H291l2.61-2.61,2.43-2.43,3.36-1,2.17-1.08,3.63,1.08,2.7,1.35,1.45-1.46,2.44-1.21L313,338.8l2.44-1.22L318,335l1.21-2.43,2.3-2.3,2.21-1.1,3.37,1.21h2.82l1.4-1.4,2.5-2.5,1.21-2.43,2.37-2.36,2.57-2.57,1.24-7.43,2.42-6.06,2.43-9.71L348.88,306l2.65-5.31.68,1.35,2.42,4.84,2.4,6,1.22,7.32,3.31,6.62,1.12-6.72,2.05,6.15,3.17-4.75,1.1-3.31h7.82l2.14,2.13,1.19,4.77,2.46,4.93,1.31,2.61,2.39,1.19,2.93,8.79,1.66-5H393l2.44-1.21h1.21l2.29-1.15,2.88,1.44,1-4.86,1.72,4.3,1.48,1.48h2.54l2.43,1.22h1.5l2.43-1.22h2.55l1.21-1.21h4.62l3.5,1.21h2.83l1.33-1.32,2.21-1.11h1.22L437,334l2.52-1.26,1.22-1.22,2.21-1.1h2.67l1.21-2.44h2.31l2.61-2.61,3.48-1,1.39-1.4,2.36-2.36,2.53-1.26,1.31-2.62,2.41-4.83,2.49-3.72,1.21-7.3,2.06-3.1,2.5,1.25,1.49-3,2.39-4.77,3.4-3.4h3.65l2.3-2.3,2.59,1.29,1.47-2.94,2.11-3.17,2.63,1.31,1.39-5.56,2.33-5.83,2.41-1.2,1.14-2.28h1.8l1.35,1.35,2.7-1.35h1.91l1.32,2.64,2.7-1.35,1.9.95,1.22,6.08,2.7,1.35,2.56,1.28,3.29,2.19,1.19,2.37,2.75,4.13,2.29-1.14,1,3.12,2.45,2.44,2.4,6,1.21,2.44L542,305.9l2.77,1.38h1.5l2.43-1.21,3.51,1.29,3-1.48,1.1-4.4,1.89.94h2.2l1.14,2.28,2.88,1.44,2.16-1.08,1.11,2.23h2.67l2.43,1.21h1.5l2.17-1.08,3.41,3.41,2.43,1.21,1.22,1.22,2.31,1.16,2.33,5.81,1.23,6.15,2.48,3.71,2.4,4.8,1.23,3.68,2.65,4H602l2.84,1.42,1.22-2.43,2,1h8.66l3.32,3.65h4.12l2.65-1.33,3.29.18,2.57-1.28H636l2.43,1.21,3.43,2.33,2.65,1.32h1.22l2.12,1.06,1.29,2.59h5.5l1.21-1.21h2.33l2.43-1.22h5.69l1.21,1.22H670l3.63,2.36,2.56,1.28h6l1.22,1.22h2.54l2.43,1.22h1.22l2.3,1.15,2.56,1.28h11.24l2.44-1.22h2.29l3.5,1.22h5.85l1.32,2.64,2.7-1.35,2.08,1,1.32,1.33h2.54l2.7,1.35,1.46-1.46,2.52-1.26,2.36-4.71,3.54,1.42,1-2,1.86,2.78,3.31,5,1.17-8.16,1.73,3.46h3.25l.77-2.34,2.44,7.3,3-9,.49-1.48,2.08,10.41h3.18l1.22-1.22H770l3.38,7.82,3.2-3.2.8-1.59,2.26,3.4,2.26-2.27,1.53,4.59,2.84-10h1.48l1.77,8.85,3-17.85,1.1-4.38h5l1.22-23.11h2.31l1.61-5.65,1,13.72,3.39,6.77,2.61-20.92,2.62,12.16h2.22l2.43-13.38h2.51l1.24-26.12,1.65,28.66,2.54-13.95,1.37,9.59,2.58-27.4,1.7,8.54,4.23,21.29,3-35.23.12,14.68,2.46-2.45,1.6,14.45,3-21.25h2.45l1.28-11.49,1.59,35,3.26-17.92,1.12-3.37,2.21-1.1,2.7-1.35.54-2.7,2.57,20.54L865.44,290l2.22-1.11,2.07-2.07,3.13,3.13,3.2,8,1.52-9.13,1.88-.94,2.95,1.47,1.25-12.5H885l1.4,32.22,3.42-19.26,1.6-3.2.88,4.43,2.43,4.85,2.42,17,2,7.91,2.7-18.9,2,2,1.47-1.47h4.86l1.47-1.46,2.1-4.2,3,3,3.25,4.87,1.46-8.75,2.32-5.8,2.31-1.16,3.73-1.11,2.56-7.67,1-2.06h1.8l1.74,1.73,2.6-7.81H942l1.16-7,2.29,1.14,1.92-4.8.85,4.26,2.49,2.49,3.29,6.58,1-8.24,1.67,7.51,1.31,6.57h3.39l2.55-8.9,1.1-2.2,1.66-.83,3,7.58,1.53-10.75,2.26-10.16,1.51.75,1.15,3.45,2.5,5,3.34,3.34,1.06-6.33,1.61,4,1.27,5.1,2.5,1.25,3.24,6.48,1.36-10.87,1.4.7,3,13.48,1.68-8.42h2.08l2.83-1.41.78-3.92,2,7.1,1.88-1.87,1.75-.88,2.17,5.42,1.24,6.2,2.46,2.46,2.38,7.14,1.23,4.91,2.63,5.27h2.43l1.32,2.64L1029,305l2.3,2.3h1.61l2.74-1.37,1-2.07,1.89.95,2.56,1.28,3.79,2.68,2.69-2.68,3,3.51,2.49,1.24,1.21,1.22,2.65,1.32,3.52,5.08,2.59-1.29,3.56,4.91,2.37-1.19.94,1.89-1.49-.26-2.24,1.12-3.22-4.83-3,1.28-2.75-5.49-3.6-1.54-1.21-1.22-2.6-1.3-2.16-3.24-2.67,3.19-3.19-3.19-3.71-1.4-1.48.94-3.36,1.68h-2.4l-2-2-2.89,1.45-1.53-3.06h-2.43l-3-6-1.25-5-2.27-6.83-2.52-2.52-1.29-6.46-1.64-4.08-3.59,3.4-1.22-4.26-3.53,1.38h-1.37l-2.62,13.09L993.43,269l-1,13.47-4.86-9.71-2.64-1.32-1.39-5.56-.69,4.45-5.15-5.15-2.62-5.24-1-3.06-1.58,8.77-2.17,15.2-4.23-10.58-1,1.79-2.77,9.68H957l-1.51-7.53-.8,4.61-5-10-2.61-2.61-1,1.62-2-1L943,273.21h-2.66l-3,8.85-2.77-2.77-1.2,1.31L930.65,289h-3l-3,1.93-2.1,5.25-2,11.66-4.89-7.34-2.3-2.31-.86,3.44-2,2h-4.88l-2,2-4.37,21.5-3.5-14-2.4-16.83-2.41-4.82-.16-1.24-4.77,28.61-2.38-40.74-.35,13.16-4-2-2.92,13.2-4.72-11.79-2.17-2.16-1.28,1.42-1.8.9L864,316.4l-3.23-22.68.82-4.06-3.23,1.61-1.76.88-.94,2.81-4.91,27-3.54-44.34,3.63.05-1.4,12.58H847l-4.24,29.69-2.38-21.46-2.5,2.5-1.57-17.26,3.63,0-3.58,44.84-4.68-29.78-1.39-1.3-2.6,28.66-1.94-11.72L823,329.48l-3.72-37.23,3.63-.1-1.3,27.29h-2.65l-2.43,13.38h-4.23l-2.44-12.17h1.89l-3,23.85-5.29-10.58-.5-7.09-2.05-.1-1.22,23.11h-4.16l-1.87,3.42-4,24.34-2.88-14.38-3.23,12.87-2.15-6.45-1.92,1.92-1.93-2.88-4.67,4.61-3-8.85H768.3l-1.21,1.22H762.4l-1.38-6.9,1-2.87-4.16,12.5-2.44-7.3-4.77-.3-1.39,6.81L744.13,360l-1.31.22-3.68-1.84-1.86,4.4-2.71,1.36-1.94,1.94-3.22-1.61h-2.76l-1.54-1.55-1.35-.67-3.25,1.62-1.53-3H713.6l-2.43-1.22h-2.79L706,360.79H694.14l-2.82-1.41-2.05-1h-1.22l-2.43-1.21h-2.76l-1.21-1.22h-5.76l-2.82-1.41-2.7-1.35-3.32-.89-1.22-1.21h-4.11l-3.22,1.21h-2.1l-1.22,1.22h-6.75l-1.45-2.9-1.5-.75h-1.23l-3.08-1.55-2.11-2.1L635.74,345h-2l-3.65,1.43-2.07-1-3.58,2h-5.06L617,343.75h-9.19l-2.4,1.84-3.68-1.84h-4.2l-3.11-4.66-1.25-3.76-2.32-4.65-2.57-3.85L587,320.56l-2.11-5.29-2.08-1L581.57,313l-2.44-1.22-2.64-2.64-1.93.54h-2.07l-2.44-1.2h-3.12l-.91-1.81-1.62.81-3.79-1.9-1-2h-1.74l-1.65,3.08-4,2-2.86-1.43-2.79,1.21h-2.08l-3.43-1.72-2.67-6.65-1.21-2.44-2.33-5.8-2.47-2.47-.69-2.06-2,1-3.39-5.08L525.2,281l-1.69-1.69-3.71-1.41-3.23-1.62-1.22-6.08-4.06,1.22-1.53-3.06-4.1,1.61-1.61-1.61-1.54,2-2.35,1.17L498,276.83l-1.74,6.95-3-1.51-1.47,2.21-2,4L486.92,287l-2,2h-3.65l-1.9,1.9L476,296.55l-2,4.06-2.63-1.31-1.32,2-1.21,7.3-2.59,3.88-2.38,4.77-1.49,3-2.71,1.36-2.23,2.22-1.75,1.75h-2.43l-3.65,3.65h-2.06l-1.21,2.44H443.2l-1.79.89-1.21,1.21-2.7,1.35-2.82,1.41h-1.22l-1.78.89-1.54,1.55h-3.62l-2.43-1.22h-4.9L418,338.92h-2.76l-2.43,1.21H410.7l-2.43-1.21h-2.76l-2-2-.78,1.67L399,336.7l-2,1h-1.22l-2.43,1.21h-1.55l-2.53,7.6-3.92-11.78-2.3-1.15-1.49-3L379,325.56,377.86,321l-1.54-1.54H371l-2,2.63-4.64,7-1.29-3.87-.93,5.59-5.07-10.13-1.23-7.38-2.33-5.82-2.4-4.8-2.68,7-2.43-11,1.17-2.34L344.75,306l-2.4,6-1.28,7.68-2.85,2.84L336,324.79l-1.22,2.43-2.64,2.64-1.75,1.75h-3.62l-2.43-1.21-2.14.89-2,2L319,335.74l-2.85,2.85-2.44,1.21L312.47,341,310,342.24l-1.93,1.93-3.23-1.61h-7.32l-3.11,3.12-3,3h-1.22l-3.68,3.69-.72-1.43-.93,1.87-2.44,2.43-1.21,2.43-2.85,2.85L276,361.7,272.21,370l-3-1.52-4.37,2.44-2.07-2.08-3.22,1.68H253L250.17,376l-2.89-1.45-3.19,1.85-2.17,1.08-4,4h-1.54L234,382.7h-2.86l-3.22,1.22h-24l-1.21,1.22H187.32Z"/><g id="_0" data-name=" 0" class="cls-10"><text class="cls-11" transform="translate(43.63 386.35)">0</text></g><g id="_100" data-name=" 100" class="cls-10"><text class="cls-11" transform="translate(26.46 341.34)">100</text></g><g id="_200" data-name=" 200" class="cls-10"><text class="cls-11" transform="translate(26.46 296.33)">200</text></g><g id="_300" data-name=" 300" class="cls-10"><text class="cls-11" transform="translate(26.46 252.54)">300</text></g><g id="_400" data-name=" 400" class="cls-10"><text class="cls-11" transform="translate(26.46 207.53)">400</text></g><g id="_500" data-name=" 500" class="cls-10"><text class="cls-11" transform="translate(26.46 163.74)">500</text></g><g id="_600" data-name=" 600" class="cls-10"><text class="cls-11" transform="translate(26.46 118.74)">600</text></g><g id="_700" data-name=" 700" class="cls-10"><text class="cls-11" transform="translate(26.46 73.73)">700</text></g><g id="_800" data-name=" 800" class="cls-10"><text class="cls-11" transform="translate(26.46 29.94)">800</text></g><g id="_14_1_20" data-name=" 14 1 20" class="cls-10"><text class="cls-11" transform="translate(52.05 438.39) rotate(-45)">14/1/20</text></g><g id="_14_2_20" data-name=" 14 2 20" class="cls-10"><text class="cls-11" transform="translate(113.05 438.39) rotate(-45)">14/2/20</text></g><g id="_14_3_20" data-name=" 14 3 20" class="cls-10"><text class="cls-11" transform="translate(174.04 438.39) rotate(-45)">14/3/20</text></g><g id="_14_4_20" data-name=" 14 4 20" class="cls-10"><text class="cls-11" transform="translate(235.04 438.39) rotate(-45)">14/4/20</text></g><g id="_14_5_20" data-name=" 14 5 20" class="cls-10"><text class="cls-11" transform="translate(296.03 438.39) rotate(-45)">14/5/20</text></g><g id="_14_6_20" data-name=" 14 6 20" class="cls-10"><text class="cls-11" transform="translate(357.03 438.39) rotate(-45)">14/6/20</text></g><g id="_14_7_20" data-name=" 14 7 20" class="cls-10"><text class="cls-11" transform="translate(418.03 438.39) rotate(-45)">14/7/20</text></g><g id="_14_8_20" data-name=" 14 8 20" class="cls-10"><text class="cls-11" transform="translate(479.02 438.39) rotate(-45)">14/8/20</text></g><g id="_14_9_20" data-name=" 14 9 20" class="cls-10"><text class="cls-11" transform="translate(540.02 438.39) rotate(-45)">14/9/20</text></g><g id="_14_10_20" data-name=" 14 10 20" class="cls-10"><text class="cls-11" transform="translate(597.98 441.42) rotate(-45)">14/10/20</text></g><g id="_14_11_20" data-name=" 14 11 20" class="cls-10"><text class="cls-11" transform="translate(658.98 441.42) rotate(-45)">14/11/20</text></g><g id="_14_12_20" data-name=" 14 12 20" class="cls-10"><text class="cls-11" transform="translate(719.98 441.42) rotate(-45)">14/12/20</text></g><g id="_14_1_21" data-name=" 14 1 21" class="cls-10"><text class="cls-11" transform="translate(784.01 438.38) rotate(-45)">14/1/21</text></g><g id="_14_2_21" data-name=" 14 2 21" class="cls-10"><text class="cls-11" transform="translate(845 438.38) rotate(-45)">14/2/21</text></g><g id="_14_3_21" data-name=" 14 3 21" class="cls-10"><text class="cls-11" transform="translate(906 438.38) rotate(-45)">14/3/21</text></g><g id="_14_4_21" data-name=" 14 4 21" class="cls-10"><text class="cls-11" transform="translate(967 438.38) rotate(-45)">14/4/21</text></g><g id="_14_5_21" data-name=" 14 5 21" class="cls-10"><text class="cls-11" transform="translate(1027.99 438.38) rotate(-45)">14/5/21</text></g></g></g></g></g></svg>