<svg xmlns="http://www.w3.org/2000/svg" width="1058.108" height="435.698" viewBox="0 0 1058.108 435.698"><defs><style>.a{fill:#fff;stroke-width:1.417px;}.a,.b{stroke:#a7a9ac;stroke-miterlimit:10;}.b{fill:none;stroke-width:0.567px;opacity:0.322;}.c{fill:#d1d3d4;}.d{fill:#222b3e;}.e{fill:#313e59;}.f{fill:#91bce8;}.g{fill:#808285;}.h{fill:#231f20;}.i{fill:#606060;font-size:14.314px;font-family:IBMPlexSans, IBM Plex Sans;}</style></defs><g transform="translate(-430.946 -3888.343)"><rect class="a" width="1056.691" height="434.281" transform="translate(431.654 3889.051)"/><path class="b" d="M504.007,3937.4H1458.13m-954.123,53.873H1458.13m-954.123,53.811H1458.13m-954.123,53.832H1458.13m-954.123,53.811H1458.13m-954.123,53.832H1458.13"/><line class="b" y1="322.95" transform="translate(504.007 3937.402)"/><line class="b" x2="954.123" transform="translate(504.007 4260.352)"/><path class="b" d="M1424.066,4260.352v4.957m-102.236-4.957v4.957m-102.174-4.957v4.957m-102.276-4.957v4.957m-102.3-4.957v4.957m-102.153-4.957v4.957m-102.3-4.957v4.957m-102.153-4.957v4.957m-102.3-4.957v4.957m-102.176-4.957v4.957"/><path class="c" d="M563.638,4260.8l3.462.041,3.338-.041h17.023l3.482-.123,3.339-.144h6.841l3.483-.123,3.359-.143,3.339-.123,3.462-.143h6.841l3.339-.267,3.462.144h3.339l3.5.123,3.359-.144,3.482-.123,3.339-.143,3.339.143,3.482-.143,3.339.143,3.482-.143,3.339.143h6.821l3.5.144,3.339-.144,3.482.144,3.36-.144h6.841l3.339-.143h3.462l3.359.143,3.5-.266h3.319l3.5.123,3.339-.266,3.339.143,3.5-.266h10.16l3.462-.144,3.339.267,3.5-.123,3.339.123h10.2l3.482-.267h3.319l3.5.144,3.4-.266,3.482-.676,3.319-.267,3.461-.143,3.36-.123,3.462-.266h3.379l3.339-.533,3.462.123,3.4-.266,3.524-.676,3.339-.676,3.523-.676,3.3-1.188h3.4l3.38-.266,3.339-.39,3.441-.143H829.4l3.462-.266,3.339.266,3.544-.143,3.38-.533,3.318-.389,3.462,1.393,3.6-1.823,3.236-.369,3.36-.144,3.5-.532,3.338-.41,3.626-.553,3.257-2.212,3.38.635,3.462-.963,3.461-.922,3.319-.676,3.441-.389,3.134-.246,3.626,2.6,3.646-4.773,3.114-.123,3.6-.553,3.113-1.516,3.728,2.581,3.626-6.657,2.909-3.687,3.421,7.149,3.564-6.678,3.38,2.6,3.687-4.548,3.052-3.4,3.113,3.6,4.036-.164,2.888-4.3,3.462,9.054,3.564-4.711,3.236,3.216,3.626-.574,3.421-.553,3.544-1.5,3.5-1.536,3.483-5.756,3.113-1.373,3.442-.389,3.379-.819,3.524-1.086,3.257-1.167,3.4.122,3.462-1.986,3.38.409,3.625-2.786,3.36-1.618,3.523-2.97,3.38-2.581,3.441-4.384,3.441-1.638,3.114-8.829,2.99,6.473,3.831-1.68,3.339-1.024,3.3.266,3.564-.409,2.97-.717,3.851,7.292,3.646-10.057h3.216l3.5-1.537,3.5-2.56,3.359-1.885,3.339-2.663,3.216-1.5,3.5,1.27,3.584-4.547,3.155-.39,3.441-.778h3.134l3.564,1.9,3.585-1,2.97-1.188,3.38,4.671,3.5.409,3.6,1.659,3.667-1.311,3.523-3.113,3.134-1.762,3.708.287,3.461-7.477,3.483-3.338,3.339-6.576,3.338-3.195,3.462-6.125,3.278-2.5,3.4-3.011,3.339-1.065,3.462-2.93,3.359-.676,3.318-3.175,3.2,1.8,3.605-1.25,3.237.267,3.564.266,3.625-2.786,3.175-2.171,3.421.266,3.483-1.516,3.584-1.515,3.339-3.462L1201,4128l3.175.123,3.461,1.106,3.626-1.393,3.073-.737,3.933,2.888,3.523-14.6,3.277-3.544,3.319-1.188,3.441-3.031,3.052-.369,3.38,1.168,3.093.614,3.482,9.628,4.1-2.848,3.277-3.011,3.483-.8,3.277-3.011,3.093.246,3.319,1.966,3.789,1.025,3.6-2.295,3.5-3.5,3.216-2.438,3.318-.676,3.647-2.4,3.052-4.137,3.052,2.56,3.359,2.561,3.831,2.806,3.666-3.093,3.442-2.5,3.215-1.68,3.524-.553,3.605-6.125,3.359-5.2,3.237-5.429,2.908,1.086,3.4,1.434,3.3,2.663,3.5,2.294,3.3,2.11,3.38,3.359,3.3,7.415,3.421,6.412,3.523,3.113,3.319,3.708,3.482,4.568,3.359,3.625,3.442,3.708,3.379,5.654,3.524,2.724,3.338,3.728,3.544,3.011,3.36,2.151,3.461,2.356,3.688.286,3.379-.409,3.462-.144,3.38-.122,3.523-.676,3.237-.533,3.257.635,3.338,2.4,3.38.942,3.339,1.68,3.339,3.851,3.523,2.314,3.237,2.458,3.421,6.6,3.4,5.572,3.6,3.052,3.339,1.864,3.482,2.95,3.687,2.068,3.688-2.458.635.922-4.261,2.847-4.384-2.458-3.482-2.949-3.339-1.864-3.83-3.237-3.5-5.756-3.339-6.411-3.011-2.295-3.626-2.355-3.277-3.81-3.032-1.536-3.482-.963-3.3-2.376-2.827-.533-3.031.471-3.565.7-3.482.143-3.421.123-3.441.41-4.076-.308-3.708-2.519-3.421-2.192-3.646-3.093-3.339-3.708-3.6-2.785-3.421-5.736-3.359-3.626-3.4-3.666-3.483-4.568-3.236-3.626-3.646-3.216-3.5-6.616-3.257-7.272-3.134-3.134-3.2-2.048-3.564-2.315-3.216-2.581-3.236-1.372-2.008-.758-2.785,4.629-3.339,5.223-3.872,6.535-3.851.614-2.99,1.557-3.339,2.438-4.3,3.625-4.568-3.318-3.38-2.581-2.151-1.823-2.478,3.359-3.994,2.6-3.278.676-2.97,2.232-3.523,3.524-4.118,2.642-4.424-1.188-3.216-1.925-2.356-.185-3.134,2.888-3.482.8-3.114,2.868-5.346,3.708-3.769-10.386-2.54-.512-3.216-1.126-2.458.307-3.318,2.95-3.278,1.167-2.909,3.134-3.83,15.937-4.875-3.565-2.5.6-3.913,1.515-3.707-1.188-2.807-.123-2.785.984-3.319,3.441-3.789,1.6-3.708,1.638-3.318-.266-2.827,1.926-3.954,3.031-3.994-.307-2.991-.246-3.851,1.332-2.929-1.619-2.929,2.807-3.4.7-3.421,2.868-3.318,1.065-3.278,2.888-3.113,2.376-3.442,6.084-3.318,3.175-3.339,6.555-3.462,3.339-3.707,7.989-4.138-.308-2.745,1.537-3.585,3.175-4.281,1.536-3.871-1.782-3.81-.451-3.155-4.363-2.212.9-4.076,1.127-3.708-1.987h-2.745l-3.38.778-2.745.328-3.81,4.834-3.83-1.392-2.663,1.229-3.3,2.642-3.38,1.9-3.543,2.581-3.851,1.68h-2.663l-4.22,11.7-4.65-8.747-2.171.512-3.749.431-3.195-.246-3.073.942-4.773,2.11-2.294-5-2.355,6.678-3.626,1.741-3.359,4.281-3.483,2.642-3.625,3.052-3.38,1.639-3.872,2.991-3.482-.43-3.421,1.966-3.5-.123-3.072,1.106-3.564,1.086-3.5.84-3.319.389-2.642,1.168-3.482,5.756-3.831,1.679-3.687,1.557-3.544.574-4.2.676-2.724-2.745-4.015,5.3-3.4-8.931-2.028,3.011-5.121.185-2.643-3.053-2.171,2.438L931.939,4237l-3.2-2.458L924.77,4242l-3.626-7.517-1.721,2.192-4.178,7.681-4.2-2.929-2.7,1.29-3.83.594-2.642.1-3.995,5.223-4.179-3.011-2.7.225-3.38.39-3.216.655-3.421.922-3.728,1.024-3.175-.615-3.093,2.11-3.872.594-3.359.41-3.544.533-3.38.143-2.99.348-3.892,1.946-3.646-1.454-3.032.348-3.4.553-3.687.144-3.319-.267-3.421.267h-3.379l-3.38.122-3.3.39-3.462.286h-3.257l-3.175,1.147-3.605.7-3.36.655-3.564.7-3.543.287-3.421-.144-3.319.533h-3.4l-3.462.266-3.38.144-3.441.122-3.216.267-3.482.676-3.544.266-3.544-.123h-3.257l-3.482.266H744.2l-3.319-.143-3.523.143-3.339-.266-3.421.123H720.463l-3.523.287-3.339-.144-3.339.267-3.544-.144h-3.257l-3.523.287-3.4-.143h-3.421l-3.339.123h-6.842l-3.38.143-3.482-.123-3.339.123-3.523-.143h-6.821l-3.319-.123-3.482.143-3.339-.143-3.482.143-3.339-.143-3.3.123-3.482.143-3.4.143-3.524-.143h-3.338l-3.421-.123-3.319.266h-6.862l-3.441.123-3.339.144-3.359.123-3.5.143H594.3l-3.318.123-3.5.143H570.459l-3.359.041-3.483-.041Z"/><path class="d" d="M532.971,4260.9h3.464l3.347.041H567.1l3.359-.143h13.663l3.339-.123h3.482l3.359-.144,3.483-.123,3.338-.143h3.483l3.339-.123h3.338l3.5-.143,3.339-.123h6.842l3.5-.287,3.339-.266,3.483-.267,3.338-.266,3.483-.266,3.339-.123,3.359-.266,3.482-.144,3.36-.409,3.461-.267,3.339-.266h3.462l3.359-.123,3.483-.143,3.359-.123,3.462-.266h3.38l3.4-.554,3.462-.655,3.318-.266,3.462-.267,3.318-.266,3.5.123,3.38-.533,3.5-.143,3.38-.942,3.359-.389,3.523-1.107,3.36-1.065,3.5-1.208,3.319-1.332,3.38-.9,3.3.123,3.565-.41,3.359-.8,3.523-.553,3.38-1.5,3.339-1.065,3.544-1.352,3.318-2.13,3.3-.758,3.339.409,3.544-.819,3.4-.41,3.585-1.516,3.339-1.884,3.4-1.434,3.421-.533,3.462-2.785,3.5-2.95,3.3-3.032,3.442-1.72,3.256-1.967,3.544-.532,3.278-2.889,3.216.492,3.4.41,3.585-.144,3.6-3.052,3.441-2.335,3.4-5.879,3.032-.246h3.728l3.482-4.711,3.38-2.868,3.278-1.577,3.175-1.331,3.318,2.253,3.626-1.024,3.5-1.475,3.339-1.086,3.4-1.557,3.072.123,3.38,1.8,3.421,1.925,3.749.717,3.482-1.8,3.318-1.025,3.073.246,3.851,3.237,3.707-11.287,3.134-4.4,3.216-.123,3.462-.266,3.687-1.7,3.462-4.015,3.175-5.49,3.093,2.6,3.81-1.68,3.441-4.65,2.95-.819,3.523,2.028,3.687-1.619,3.257-3.011,3.094,1.618,3.5.267,3.257,1.557,3.892,1.659,3.38-4.343,2.929.7,3.6,2.089,3.544-.983,3.359-.389,3.319.389h3.421l3.236,1.167,3.646,1.823,3.2-1.024,3.134,3.728,3.6,3.913,3.585.573h3.5l3.769.287,3.585-10.508,3.339-5.2,3.5-8.091,3.216-7.866,3.216-.369,3.318-1.065h3.3l3.4-.369,3.237.758,3.38,1.168,3.462,2.212,3.461-.389,3.585,2.581,3.38-3.892,3.011,3.974,3.646,1.843,3.605.861,3.339-1.741,3.5,1.085,3.441-2.069,3.257-.246,3.523.84,3.544-2.6,2.95-.123,3.482,3.093,3.482-.143,3.216,1.024,3.421,1.577,3.216,2.069,3.38,5.2,3.646,8.03,3.913-3.462,3.072-.123,3.441.8,3.339.266,3.483.8,3.707.451,3.175-4.568,3.011,2.785,3.995,3.2,3.543-10.734,2.868,1.373,3.605.143,3.544.144,3.216-2.6,3.134,3.749,3.319.635,3.277,12.679,3.38,10.427,3.646,4.219,3.4,1.209,3.667,2.97,3.544-1.434h3.523l3.646-2.028,3.421-7.907,2.888-.348,3.195,1.414,3.585,1.515,3.5.123,3.441-.512,3.216.635,3.442,1.065,3.338,1.332,3.38,1.167,3.339,2.93,3.6,1.659,3.442.84,3.379.123,3.5.553,3.483-.144,3.5-1.229,3.2-.512,3.277.758,3.38,2.171,3.892.451,3.318-3.6,3.032.594,3.257,2.99,3.544,2.418,3.769-.287,3.216-1.311,3.011,1.044,3.359,11.635,3.851,1.619,3.544-.267,3.38-1.188,3.216.9,3.6.573,3.748-2.724,3.175-4.568,3.073.819,3.4,1.352,3.667.287,3.421-.963,3.421-.922,3.461-.143,3.565-2.458,3.216-1.291,3.052-.491,3.277,2.642,3.421,3.011,3.482,1.209,3.2,2.56,3.5,6.617,3.523,1.679,3.584,1.516,3.483.287,3.5-.266,3.4-.144,3.6-1,3.646-5.039,3.339-8.809,3.38-3.912,3.4-2.868,3.442-6.6,3.113-1.249,3.6-.84,2.991-3.339,3.154,4.834,4.015-1.085,3.155-3.155,3.359,1.946,3.585-1.72,3.236-1,3.585,1.721,3.626-5.285,2.929-.594,3.83,1.761,3.5-7.313,3.278-2.048.594.942-3.012,1.885-3.851,8.009L1446,4181l-2.151.43-3.912,5.715-4.056-1.946-2.724.84-4.036,1.926-3.134-1.8-2.745,2.765-5.08,1.352-2.827-4.281-2.253,2.54-3.871.881-2.643,1.065-3.359,6.432-3.5,2.95-3.195,3.687-3.319,8.767-3.953,5.469-4.1,1.147-3.523.144-3.564.266-3.749-.287-3.769-1.6-3.892-1.864-3.564-6.74-2.847-2.273-3.524-1.229-3.564-3.134-2.888-2.315-2.417.389-3.011,1.188-3.708,2.581-3.646.144-3.3.88-3.626,1.024-4.035-.307-3.482-1.393-2.253-.614-2.848,4.076-4.26,3.134-4.138-.655-2.929-.84-3.2,1.106-3.953.328-4.609-1.946-3.318-11.574-2.069-.717-3.011,1.188-4.323.328-3.933-2.663-3.093-2.847-2.089-.41-3.3,3.565-4.711-.533-3.421-2.212-2.888-.656-2.868.451-3.585,1.249-3.748.144-3.564-.533-3.4-.143-3.666-.881-3.851-1.782-3.3-2.888-3.2-1.106-3.318-1.332-3.339-1.024-2.97-.594-3.36.512-3.81-.143-3.769-1.6-2.949-1.291-1.926.226-3.339,7.661-4.219,2.376h-3.585l-3.953,1.577-4.036-3.257-3.482-1.249-3.994-4.609-3.483-10.673-3.093-12.024-3.011-.573-2.683-3.216-2.684,2.171-3.974-.143-3.83-.164-1.946-.922-3.646,11.062-5.265-4.22-2.109-1.967-2.827,4.077-4.445-.533-3.442-.8-3.338-.266-3.4-.778-2.519.1-4.732,4.179-4.22-9.3-3.216-4.957-2.949-1.885-3.3-1.515-2.95-.943-3.728.144-3.482-3.073-2.172.082-3.687,2.7-3.851-.922-2.827.205-3.646,2.192-3.543-1.086-3.3,1.721-4.138-1-3.994-2.007-2.336-3.073-3.134,3.6-4.055-2.929-3.442.41-3.666-2.356-3.216-1.127-2.991-.7-3.277.369h-3.2l-3.236,1.044-2.663.308-2.991,7.271-3.544,8.153-3.3,5.182-3.851,11.205-4.568-.369h-3.543l-4.056-.635-3.892-4.219-2.663-3.175-2.929.942-3.994-2.007-2.971-1.086h-3.3l-3.257-.389-3.154.368-3.892,1.086-3.871-2.233-2.069-.491-3.483,4.445-4.69-1.987-3.094-1.5-3.523-.266-2.6-1.352-2.827,2.6-4.384,1.925-3.6-2.069-2.11.594-3.4,4.568-4.711,2.069-2.622-2.192-2.561,4.445-3.687,4.261-4.076,1.885-3.687.307-2.684.1-2.724,3.81-4.179,12.68-4.834-4.056-2.478-.205-3.032.942L884.273,4198l-4.322-.819-3.585-2.008-3.113-1.68-2.561-.1-3.216,1.475-3.38,1.085-3.5,1.475-4.2,1.188-3.236-2.212-2.6,1.106-3.113,1.5-3.175,2.683-3.728,5.08h-4.261l-2.4.184-3.236,5.592-3.6,2.459-3.851,3.256-4.056.164-3.5-.43-2.724-.409-3.134,2.744-3.646.553-3.114,1.885-3.339,1.659-3.2,2.95-3.524,2.97-3.707,2.97-3.585.574-3.216,1.352-3.339,1.884-3.789,1.6-3.482.41-3.688.86-3.338-.41-2.909.676-3.257,2.09-3.687,1.413-3.3,1.045-3.482,1.536-3.626.553-3.38.819-3.708.431-3.215-.144-3.155.86-3.277,1.311-3.544,1.229-3.38,1.066-3.626,1.126-3.38.41-3.4.942-3.585.144-3.4.553-3.544-.144-3.257.267-3.482.266-3.257.266-3.421.656-3.5.553h-3.421l-3.441.266-3.38.143-3.483.123-3.379.144h-3.442l-3.277.266-3.462.246-3.38.409-3.5.144-3.359.266-3.339.144-3.441.245-3.359.287-3.483.266-3.339.267-3.543.266h-6.862l-3.319.123-3.523.143h-3.339l-3.339.144h-3.482l-3.319.123-3.482.143-3.38.123h-3.482l-3.339.143H570.479l-3.338.123H539.776l-3.347-.02h-3.458Z"/><path class="e" d="M556.829,4260.844l3.449-.041h3.339l3.483-.123h6.862l3.359-.41,3.318-.123,3.5-.143,3.36-.41,3.482-.266,3.339-.389,3.462-.267,3.379-.143,3.524-.533,3.318-.8,3.359-.143,3.524-.942,3.318-.8,3.482-.533,3.339-.8,3.441-.409,3.4-.266,3.462-.943,3.3-.123,3.5-.409,3.339-.39,3.319-.143h3.5l3.38-.533,3.5-.266,3.318-.8h3.4l3.338.123,3.524.144,3.339-.41,3.482.266,3.339-.389,3.339.266,3.523-.143,3.38-.266,3.421-.533,3.338.266,3.5-.389,3.339.123,3.5-.266,3.359-.267,3.36-.409,3.523-.266,3.339-.943,3.584-.266,3.462-2.622,3.5-2.028,3.4-3.523,3.421-3.032,3.359-2.028,3.483-3.339,3.277-2.109,3.319-1.578,3.3-1.536,3.36.819,3.605-1.823,3.3-.921,3.728-1.127,3.421-6.862,3.462-4.527,3.3-4.343,3.421-2.642,3.421-2.868,3.421-4.506,3.482-7.538,3.339-5.593,3.482-5.366,3.36-7.129,3.482-6.657,3.359-5.674,3.442-10.426,3.113-1.619,3.4-1.208,3.216-2.6,3.338,2.4,3.872-3.114,3.339-4.547,3.113-2.151,3.36,1.885,3.625-2.663h3.319l3.707-2.274,3.442-4.261,3.031-5.838,3.216,2.991,3.769-1.823,3.564-3.277,3.442-3.851,3.482-10.365,3.257-5.039,3.359-2.069,3.421-1.8,3.667-4.793,3.318-122,2.458,3.359,3.483,1.864,3.257,4.568,3.543,5.449,3.36,2.15,3.318,4.732,3.359,132.49,3.687-.7,3.2,7.681,3.38,3.933,3.523,5.674,3.482,2.5,3.4,1.578,3.216,3.994,3.5,8.747,3.462,3.031,3.5,2.7,3.3,2.131,3.441,3.953,3.38,3.789,3.728,2.684,3.523-2.561,2.95,1.762,3.441,3.994,3.442,2.889,3.5,1.618,3.339,2.54,3.483,1.475,3.379,2.56,3.4.963,3.339,1.659,3.338,3.728,3.626,2.233,3.5.717h3.482l3.257.512,3.523,1.209,3.483.143,3.5-.533,3.36-.143,3.359-.8,3.3-.246,3.216,1.537,3.5,1.741,3.441,1.249,3.441.389,3.278,1.578,3.584,1.659h3.462l3.482.123,3.442-.123,3.318-.8,3.482.123,3.4-.942,3.339-.39,3.277.8,3.523.41,3.257.246,3.5,1.761,3.359-.143,3.257,1.7,3.5.942,3.4,1.5,3.544.287,3.421.676,3.5-.676,3.4.409,3.544-1.495,3.3-.266,3.421-.779,3.277.246,3.4.287,3.5-.41h3.257l3.482.533h3.462l3.5-.8,3.3-.144,3.461-.389,3.339.267,3.5-.41h3.278l3.318.532,3.482.41,3.339.533,3.585.409,3.38-.676h3.4l3.421.267,3.462-1.065,3.318.676,3.359-.8,3.319.635,3.257,1.167,3.441,1.987,3.339,1.885,3.646,2.089,3.441-.287,3.646.574,3.442-2.356,3.441-1.065,3.421-1.372,3.38-2.295,3.441-2.253,3.2-1.27,3.256-.123,3.257,1.557,3.544.963,3.359.922,3.524.819,3.257.266,3.441,2.253,3.482.7,3.38.41,3.523.266,3.36-.266,3.42.123,3.319.675,3.4.267,3.36,1.741,3.605.266h3.359l3.36.144,3.42-.123,3.36.921,3.666-.266,3.36-1.495,3.318-.369,3.237.635,3.523,1.106h3.359l3.421.922,3.441.676,3.319-.123,3.482,1.065,3.462-.266,3.38-.266,3.359.8,3.482-.267,3.339.656,3.646-.123,3.3-1.188,3.38.389,3.38.123h6.862l3.38-.266,3.38-.39,3.339.943,3.564-.287,3.318-.123h3.462l3.359.123,3.3-.266,3.462.8h3.38l3.441.41,3.421.41,3.523-.41h3.319l3.543-.266,3.3-.533,3.5.123,3.359-.655h3.339v1.106h-3.236l-3.38.676-3.5-.144-3.257.533-3.625.266h-3.3l-3.585.43-3.544-.43-3.38-.389h-3.441l-3.421-.8-3.175.267-3.42-.144h-3.421l-3.278.144-3.748.286-3.319-.942-3.175.369-3.441.287h-6.944l-3.441-.144-3.155-.369-3.216,1.168-3.933.143-3.318-.655-3.5.266-3.359-.8-3.216.246-3.667.287-3.5-1.086-3.257.144-3.6-.717-3.318-.9h-3.38l-3.646-1.126-3.011-.594-2.95.348-3.38,1.475-4.076.307-3.36-.942-3.3.123-3.38-.123h-3.38l-3.872-.307-3.359-1.742-3.236-.245-3.319-.656-3.257-.123-3.359.267-3.667-.287-3.441-.41-3.728-.737-3.4-2.233-3.031-.246-3.646-.84-3.38-.942-3.626-.963-3.113-1.5-2.766.1-2.929,1.168-3.318,2.171-3.5,2.376-3.564,1.434-3.319,1-3.666,2.519-3.954-.614-3.666.287-3.933-2.254-3.339-1.884-3.359-1.926-3.093-1.106-2.991-.594-3.36.82-3.277-.656-3.4,1.024-3.585-.286h-3.257l-3.441.7-3.769-.43-3.36-.533-3.482-.409-3.257-.512h-3.113l-3.544.389-3.339-.267-3.38.39-3.257.143-3.523.8h-3.667l-3.482-.533h-3.113l-3.544.41-3.523-.266-3.094-.267-3.338.779-3.2.266-3.646,1.536-3.523-.43-3.565.7-3.564-.717-3.666-.287-3.483-1.536-3.543-.963-3.114-1.618-3.318.143-3.585-1.782-3.052-.246-3.6-.43-3.155-.758-3.072.369-3.462.963-3.523-.144-3.278.8-3.564.143-3.523-.143h-3.687l-3.831-1.762-3.093-1.5-3.4-.389-3.626-1.291-3.544-1.782-2.949-1.413-2.889.225-3.379.82-3.421.122-3.544.554-3.749-.144-3.584-1.249-3.073-.492h-3.5l-3.81-.758-3.953-2.437-3.3-3.688-3.052-1.515-3.482-.984-3.442-2.622-3.482-1.454-3.359-2.56-3.523-1.639-3.626-3.032-3.4-3.912-2.151-1.311-3.564,2.6-4.486-3.216-3.483-3.892-3.339-3.851-3.2-2.048-3.585-2.745-3.687-3.257-3.544-8.849-2.929-3.646-3.277-1.5-3.749-2.7-3.585-5.8-3.441-4-2.929-7-4.076.778-3.38-133.473L910,3987.547l-3.36-2.151-3.666-5.633-3.093-4.343-3.483-1.864-.676-.942-3.236,119.114-4.035,5.285-3.626,1.885-3.093,1.905-3.032,4.731-3.523,10.447-3.626,4.056-3.728,3.441-4.609,2.213-2.7-2.5-2.418,4.63-3.625,4.506-4.118,2.54h-3.277l-3.912,2.848-3.38-1.885-2.4,1.659-3.3,4.507-4.65,3.748-3.339-2.417-2.7,2.192-3.524,1.25-2.642,1.392-3.318,10.1L810.49,4164l-3.442,6.616-3.379,7.169-3.524,5.428-3.3,5.531-3.5,7.579-3.585,4.711-3.5,2.95-3.339,2.561-3.216,4.24-3.379,4.445-3.606,7.19-4.178,1.29-3.216.9-3.892,1.926-3.38-.8-2.929,1.352-3.257,1.557-3.114,2.007-3.5,3.36-3.379,2.028-3.3,2.929-3.483,3.6-3.584,2.069-3.667,2.786-3.79.286-3.359.943-3.6.266-3.339.41-3.4.266-3.564.287-3.319-.144-3.523.41-3.319-.266-3.338.512-3.442.287-3.625.122-3.278-.245-3.339.389-3.482-.266-3.318.389-3.6-.123-3.319-.144h-3.257l-3.277.8-3.544.267-3.421.553H648.81l-3.257.123-3.277.389-3.544.409-3.237.144-3.441.922-3.482.266-3.339.389-3.318.8-3.483.533-3.257.778-3.646.983-3.359.144-3.257.778-3.646.553-3.421.143-3.4.267-3.36.389-3.482.287-3.38.389-3.544.143-3.277.123-3.38.41h-6.9l-3.462.143h-3.38l-3.439.021Z"/><path class="f" d="M567.059,4260.864l3.379-.061h13.684l3.339-.123h10.3l3.359-.144,3.483-.123h6.677l3.483-.143h3.359l3.482-.123h6.821l3.36-.143,3.482-.123,3.339-.144h10.16l3.5-.143,3.339-.123,3.5-.143,3.339-.267,3.462-.122h6.8l3.339.122,3.482.267H682.9l3.36.143h3.5l3.36-.143,3.462-.123,3.338-.144H703.4l3.38-.122,3.482-.267,3.318-.143h3.339l3.5-.123,3.339-.266h3.482L730.6,4258l3.483-.266,3.338-.143,3.483-.123,3.38-.144,3.482-.532,3.318-.123,3.36-.266,3.482-.144,3.359-.266,3.483-.266,3.318-.41h3.5l3.359-.533,3.441-.266h3.36l3.482-.41,3.339-.123,3.339-.266,3.462.123,3.359-.123h3.5l3.38-.266,3.5-.553,3.319-.533,3.482-.123,3.38-.553,3.38-.532,3.5-.943,3.339-.8,3.421-.8,3.319-.267,3.5-.389,3.38-.553,3.482-.676,3.339-.655,3.4-.39,3.318.267,3.421-.144,3.462-.532h3.318l3.277-.123,3.524,2.806,3.728-2.724,3.3-.779,3.482-1.5,3.3-.922,3.482-.8,3.544-.839,3.3-4.753,3.236.123,3.462-.7,3.482-1.188,3.319-.676,3.584-.82,3.319-2.13,3.421-.533,3.482-1.249,3.3-2.622,3.359-.266,3.38-1.086,3.482-.655,3.36-.943,3.359-.921,3.236.655,3.606.41,3.359-.8,3.585.143,3.359-2.151h3.318l3.729-2.007,3.318-5.182,3.359-1.025,3.339-2.15,3.482-.922,3.4-2.172,3.564-1.782,3.4-4.219,3.38-3.257,3.462-5.982,3.3-2.376,3.482-4.424,3.3-2.11,3.359-3.093,2.93.123,3.379,2.581,3.667,2.212,3.769-2.6,3.441-2.192,3.339-4.957,3.421-1.967,3.4-3.134,3.544-3.523,3.38-5.264,3.441-5.04,2.827-2.6,3.482,4.814,3.81-3.646,3.319-2.93h3.011l3.257,1.434,3.585,1.373,3.83.164,3.544-8.89,2.99-1.8,3.524,1.106,3.584-3.011,3.421-2.909,2.97-1.372,3.2,2.642,3.789.574,3.421-1.5,3.073-.368,3.277,4.322,3.442.922,3.6,5.9,3.584-3.462,2.93,2.684,3.5,4.445,3.544,2.97,3.38-.123,3.482,2.4H1146l3.38,4.937,3.482,2.376,3.483,1.332,3.441,2.335h3.523l3.359,1.618,3.4-.143,3.216,2.847,3.359,1.885,3.544,2.99,3.421.7,3.38,1.556,3.379,2.418,3.687,1.147,3.3-.41,3.5,1.5,3.441-.7,3.2.389,3.626,1.393,3.379-1.618,3.319,1.024,3.482.287,3.38-.656,3.195,1.536,3.708,1.721,3.441-1.536,3.421.266,3.319-.532,3.175.389,3.4,1.823,3.359,1.761,3.483,1.332,3.318,1.987,3.6,1.659,3.687.307,3.646-3.236,3.36-2.684,3.523-3.523,3.339-4.281,3.3-2.888,3.462-2.807,3.257-2.478,3.031-.942,3.155,3.789,3.523,2.847,3.544,2.684,3.482-.41,3.195,2.172,3.36,2.007,3.933,2.581,3.584-5.326,3.421-2.233,3.237-2.6,3.482-.533,3.4-2.724,3.544-1.5,3.277-4.179,3.339.143,3.564-1.864,3.36-4.035,3.482-2.13,3.3-3.462,3.359-1.414,3.032-.962,3.4,3.011h3.4l3.461,1.987,3.257.389,3.38,3.38,3.257,2.6,3.564,7.7,3.872-2.54,3.052.123,3.359,1.7,3.442,1.782,3.646.553,3.523-.43,3.257-1.864,3.052,2.438,3.4,2.7,3.565,1.782,3.339,1.208,3.584,1.926,3.5-.266,3.626-.144,3.482-2.519,3.523-2.561,3.359-3.093,3.483-3.073,3.277-3.154,3.278-1.168.389,1.066-3.073,1.085-3.113,2.991-3.5,3.072-3.4,3.134-3.565,2.6L1436.6,4186l-3.954.144-3.81.307-3.81-2.048-3.318-1.189-3.728-1.864-3.482-2.806-2.458-1.946-2.786,1.6-3.913.471-3.994-.615-3.564-1.864-3.155-1.577-2.458-.082-4.65,3.032-3.994-8.624-3.114-2.5-3.134-3.134-3.113-.369-3.38-1.966h-3.544l-3.236-2.868-2.376.758-3.093,1.311-3.257,3.4-3.421,2.11-3.4,4.056-4.035,2.11-3.072-.123-3.073,3.953-3.667,1.557-3.523,2.806-3.482.533-3.052,2.458-3.278,2.13-4.076,6.043-4.834-3.175-3.36-2.007-2.867-1.946-3.544.389-3.892-2.95-3.626-2.929-2.745-3.3-2.13.656-3.093,2.355-3.441,2.766-3.2,2.826-3.318,4.241-3.626,3.625-3.38,2.7-3.994,3.523-4.343-.348-3.83-1.761-3.3-1.987-3.441-1.332-3.442-1.782-3.216-1.721-2.785-.348-3.319.533-3.257-.246-3.666,1.6-4.179-1.926-2.847-1.372-3.175.614-3.749-.307-3.032-.922-3.4,1.618-3.974-1.515-2.868-.349-3.584.717-3.544-1.5-3.257.389-4.1-1.249-3.441-2.479-3.155-1.454-3.564-.717-3.687-3.114-3.38-1.884-2.97-2.622-3.216.123-3.38-1.618h-3.625l-3.606-2.459-3.482-1.351-3.769-2.561-3.175-4.609h-2.97l-3.462-2.4-3.441.144-3.974-3.339-3.5-4.445-2.089-1.925-3.851,3.687-4.076-6.7-3.38-.9-3.134-4.117-2.274.266-3.564,1.557-4.425-.676-2.888-2.376-2.171,1.024-3.319,2.786-4.055,3.4-3.626-1.106-2.233,1.331-3.708,9.28-4.813-.205-3.769-1.455-3.052-1.331h-2.377l-2.97,2.622-4.711,4.527-3.5-4.855-1.823,1.68-3.359,4.916-3.442,5.346-3.625,3.626-3.5,3.236-3.318,1.9-3.319,4.917-3.605,2.314-4.342,3.011-4.364-2.622-3.134-2.4-2.13-.082-3.073,2.827-3.236,2.069-3.462,4.383-3.236,2.335-3.421,5.92-3.441,3.319-3.5,4.342L987,4207.749l-3.5,2.233-3.482.942-3.319,2.131-3.113.942-3.237,5.08-4.24,2.274h-3.277l-3.38,2.171-3.769-.144-3.421.82-3.851-.451-3.032-.614-3.093.839-3.4.963-3.441.656L932,4226.7l-3.175.246-3.154,2.519-3.769,1.352-3.278.512-3.3,2.11-3.79.86-3.257.656-3.482,1.208-3.646.738-2.766-.1-3.2,4.589-3.974.942-3.441.8-3.216.9-3.5,1.475-3.155.758-4.24,3.114-3.871-3.094-2.889.123h-3.256l-3.442.513-3.543.143-3.278-.246-3.257.369-3.277.655-3.524.676-3.4.553-3.544.39-3.257.266-3.359.778-3.318.8-3.544.942-3.441.553-3.442.553-3.482.144-3.257.512-3.544.553-3.461.266h-3.524l-3.379.144-3.442-.144-3.277.267-3.319.143-3.523.41h-3.38l-3.339.245-3.42.554h-3.5l-3.3.389-3.5.266-3.38.266-3.482.144-3.339.266-3.3.123-3.482.553-3.441.123-3.483.143-3.318.123-3.482.266-3.4.144h-3.441l-3.318.266-3.564.144H713.6l-3.278.122-3.482.267-3.421.143h-3.482l-3.3.123-3.482.143-3.38.123h-3.564l-3.339-.123h-3.38l-3.5-.266-3.3-.143h-6.759l-3.421.143-3.339.266-3.5.123-3.359.144-3.5.123H638.629l-3.318.143-3.482.123-3.38.143h-6.821l-3.482.144h-3.36l-3.482.123h-6.678l-3.462.143-3.379.123h-10.3l-3.339.143H570.459l-3.38.041Z"/><path class="g" d="M505.709,4260.9h6.76l3.48.041h44.329l3.339-.143H577.28l3.359-.123h3.483l3.339-.144h13.662l3.483-.123h6.677l3.483-.143h3.359l3.482-.123,3.339-.143h3.482l3.339-.123h3.483l3.359-.144h3.482l3.36-.143,3.339-.123,3.461-.143h3.36l3.482-.123,3.359-.144,3.462-.122h3.359l3.5-.267,3.339-.266,3.482-.143,3.36-.41,3.339-.266,3.482-.267,3.339-.123,3.5-.266,3.339-.41,3.462-.122,3.38-.287,3.462-.389,3.339-.144,3.339-.123,3.5-.266,3.339-.266,3.482-.267,3.319-.266,3.482.123,3.359-.123,3.5-.143,3.36-.41,3.461-.266,3.36-.266,3.38-.41,3.461-.533,3.3-.123,3.5-.143,3.359-.266,3.5-.41,3.36-.533,3.482-.389,3.359-.676,3.421-.389,3.359-.143,3.38-.533,3.483-.41,3.359-.532,3.462-.533,3.3-.266,3.482-.143,3.359-.123,3.5-.41,3.359-.389,3.319-.41,3.462-.123,3.359-.143,3.482-.267,3.36-.143,3.482-.389,3.339-.266,3.5-.267,3.36-.409,3.441-.41,3.339-.123,3.38-.266,3.5-.553,3.359-.533,3.462-.532,3.318-.267,3.462-.266,3.339-.123,3.5-.143,3.359-.267,3.482-.266,3.36-.266,3.338-.41,3.483-.266,3.318-.389,3.462.123,3.359-.123,3.483-.144,3.338-.123,3.5-.143,3.339-.266h3.339l3.523-.267,3.36-.409,3.5-.41,3.36-.8,3.42-.389,3.319-.266h3.482l3.36-.144,3.5-.123,3.319-.409h6.821l3.339-.123H976l3.4-.144,3.5-.676,3.359-.409,3.483-.8,3.339-.533,3.318-.532,3.462-.267,3.318-.122,3.482-.144,3.319-.123,3.462.267,3.359.122h3.482l3.339.144,3.462.123,3.318.409,3.36.39,3.482.409,3.339.267,3.482.676,3.38.266,3.441.266,3.319.656,3.523.553,3.339.266,3.5.533,3.379.143h3.36l3.461.123,3.339.143,3.442.267,3.359.532,3.5.123,3.339.41,3.5.266h3.36l3.318.266,3.5.144,3.339.123,3.5.266,3.359-.123,3.462.123h3.38l3.461-.123,3.36.123,3.523-.389,3.318-.267,3.339-.143h3.462l3.318.143,3.544.123,3.339-.389,3.441.123h3.36l3.462.143,3.359.267h3.462l3.318.389,3.339.266,3.482.533,3.36.409,3.5.41h3.38l3.462.123,3.257.143,3.339,1.27,3.441,2.356,3.544-.287,3.462-.123h10.242l3.625-1.126,3.237-1.946,3.3.389,3.379.266,3.5.144h6.7l3.462.123,3.36.266h3.482l3.318.266,3.5.143,3.318.123,3.483.41,3.38.266h6.862l3.359-.266h3.462l3.339-.143h3.441l3.236.389,3.36,1.557,3.3,1.987,3.6,2.908,3.523-.143,3.278.266,3.564.963,3.584-.86,3.606-2.643,3.379-3.113,3.442-3.687,3.257-1.844,3.38-1.8,3.216-.266,3.4-.123,3.3.8,3.38.389,3.523.41,3.38-.123h3.462l3.3.123,3.483.533,3.38.143,3.482.266h3.4l3.544-.409,3.38-.82,3.318-.778,3.523-.287,3.339-1.454h3.339l3.3.266,3.38.512,3.3,1.577,3.441,1.209,3.278,2.355,3.461,2.356,3.687.7,3.442-.553,3.666-.554,3.442-3.6,3.543-2.847,3.36-5.531,3.4-3.789,2.888-1.844,3.79,4.24,3.441-9.586,2.847,1.372-.471,1-1.741-.819-3.666,10.16-4.405-4.916-1.946,1.249-3.236,3.6-3.421,5.613-3.625,2.929-3.667,3.81-4.035.615-3.626.573-4.117-.778-3.646-2.479-3.175-2.294-3.339-1.147-3.2-1.536-3.175-.492-3.216-.266h-3.072l-3.278,1.454-3.646.287-3.216.758-3.441.84-3.687.409h-3.5l-3.5-.266-3.421-.143-3.482-.533-3.216-.123h-3.421l-3.441.144-3.605-.431-3.442-.409-3.236-.758-3.216.123-2.95.225-3.154,1.7-3.114,1.741-3.339,3.606-3.482,3.195-3.81,2.786-4.1.983-3.748-1-3.093-.245-3.872.143-3.871-3.134-3.175-1.885-3.155-1.474-2.99-.349h-3.36l-3.339.123h-3.441l-3.359.266h-6.965l-3.441-.266-3.442-.389-3.277-.143-3.523-.123-3.319-.267h-3.482l-3.38-.286-3.4-.123h-6.7l-3.544-.144-3.421-.266-2.95-.348-3.031,1.823-3.913,1.208h-10.385l-3.421.144-3.892.307-3.687-2.5-3.031-1.168-3.073-.122-3.462-.144h-3.4l-3.585-.41-3.38-.409-3.441-.533-3.318-.266-3.278-.389H1166.7l-3.379-.266-3.4-.123h-3.359l-3.38-.144-3.339.41-3.626-.143-3.3-.123H1139.5l-3.278.123-3.3.266-3.564.409-3.421-.143-3.441.143h-3.421l-3.441-.143-3.38.143-3.544-.266-3.318-.143-3.523-.123-3.319-.266h-3.339l-3.584-.287-3.319-.389-3.5-.144-3.38-.532-3.38-.267-3.318-.123-3.442-.143h-3.359l-3.462-.143-3.523-.533-3.339-.266-3.585-.553-3.277-.656-3.4-.266-3.442-.266-3.482-.676-3.277-.267-3.5-.409-3.36-.389-3.277-.39-3.421-.143-3.318-.123h-3.483l-3.4-.143-3.421-.267-3.257.144-3.461.123-3.319.143-3.38.246-3.277.532-3.3.533-3.523.8-3.38.41-3.544.676-3.5.143h-3.482l-3.339.143H962.44l-3.319.39-3.544.143-3.379.123h-3.462l-3.237.266-3.359.389-3.339.8-3.585.41-3.379.409-3.585.287h-3.339l-3.318.246-3.5.144-3.36.143-3.482.123-3.4.143-3.421-.143-3.257.389-3.482.266-3.339.41-3.38.266-3.482.266-3.38.287-3.523.123-3.3.144-3.462.266-3.277.246-3.421.532-3.339.533-3.544.553-3.441.266-3.318.144-3.421.389-3.38.409-3.5.267-3.318.266-3.524.41-3.379.123-3.483.266-3.38.143-3.42.123-3.278.41-3.339.389-3.543.41L809.1,4248l-3.441.123-3.257.266-3.421.533-3.38.533-3.482.409-3.4.533-3.38.143-3.359.389-3.339.676-3.523.39-3.339.532-3.544.41-3.42.287-3.5.122-3.257.144-3.421.512-3.4.41-3.38.286-3.462.246-3.38.41-3.544.143-3.4.144-3.462-.144-3.257.267-3.461.266-3.36.266-3.5.266-3.38.144-3.3.123-3.442.409-3.4.267-3.462.123-3.318.409-3.544.267-3.339.143-3.441.266-3.318.267-3.38.389-3.523.143-3.319.266-3.544.267h-3.379l-3.442.143-3.359.123-3.5.143h-3.359l-3.442.123-3.338.144-3.38.123h-3.483l-3.359.143h-3.462l-3.359.143h-3.482l-3.319.123-3.5.144h-3.36l-3.482.123h-6.678l-3.482.143H587.481l-3.339.123H580.66l-3.359.143H563.658l-3.359.123H515.945l-3.48-.02h-6.756Z"/><path class="h" d="M567.038,4260.8l3.4.02,3.5-.02,3.339-.123h6.842l3.339-.267h3.482l3.339-.143h3.482l3.339-.123,3.5.123,3.339-.389,3.318.266,3.5-.143,3.359.143,3.5-.41,3.339-.143,3.5-.266,3.319-.267,3.482-.122,3.359-.267,3.524-.287,3.38-.8,3.338-.533,3.626-.7,3.4-2.745,3.4-1.823,3.339-1.065,3.441-1.844,3.154-.389,3.79.737,3.339-5.633,3.175.471L683,4243.8l3.318-.8h3.523l3.462-1.249,3.175-1.578,3.257,3.011,3.831-.737,3.236-1.434,3.728.717,3.482-6.8,3.155-2.15,3.482-1.209,3.441-2.356,3.524-3.236,3.421-3.277,3.134-5.92,3.175,3.666,3.789-3.052,3.359-.676,3.565-3.277,3.277-1.967,3.175-1.536,3.544.41,3.195-2.417,3.3,2.4,3.421-.123,3.585,1.373,3.543-1.557,3.483-1.332,3.4-1.351,3.564-2.213,3.38-3.38,3.339-2.662,3.38-3.114,3.216-.656,3.257-1,3.277,2.232h3.728l3.544-1.147,3.564-3.277,3.38-2.97,3.339-3.728,3.564-2.745,3.38-8.706,3.5-7.784,3.318-10.877,2.684-2.785,3.441,14.072,3.789-7.006,2.807,3.135,3.421,5.407,3.318,7.047,3.359,9.668,4.138,6.657,3.236-9.2,3.278,8.317,3.953-4.589,3.319-3.974,3.052-.1,3.482.389,3.421-.143,3.236-.369,3.093,2.97,3.319,5.838,3.544,5.859,3.441,2.355,3.359,2.315,3.626,8.3,3.912-4.507,3.175-.266,3.5-1.065,3.318-.533,3.278-.532,3.789.45,3.012-6.288,3.072,6.37,3.585,1.578,3.564.819,3.38.41,3.564.409,3.38-.532h3.564l3.421-1.782,3.216-.9h3.318l3.278.922,3.544.963,3.584.143,3.523-2.048,3.237-.389,3.5-.533,3.441-.7,3.421-1.9,3.441-1.987,3.278-1.188,3.5-.656,3.38-1.639,3.5-1.331,3.38-1.782,3.359-2.049,3.339.123,3.626-2.089,3.359-1.884,3.38-2.151,3.585-2.889,3.4-5.448,3.5-5.654,3.318-8.275,3.175-3.749,3.3,1.454,3.79-3.789,3.318-4.773,3.421-2.376,3.154-2.663,3.216.656,3.687-.861,3.237-1.946,3.523.533,3.585-2.847,3.318-3.708,3.4.41,3.688-5.961,3.256-7.17,3.237-1.024,3.441-3.052,3.011-.45,3.565,1.884,3.42-1.639,3.175.738,3.5,2.519,3.5-1.352,2.97,1.9,3.564,7.538h3.524l3.4,2.6,3.441-.8,3.134,3.011,3.462,2.909,3.523,4.67,3.483-.8,3.154,4.3,3.462,2.909,3.339,6.288,3.462,3.319,3.4,7.886,3.707,1.352,3.688-.717,3.277-1.311,3.257.123,3.441,1.8,3.913-1.5,3.236-5.94,3.093.942,3.175.389,3.339,3.851,3.769.738,3.278-.656,3.379,1.7,3.38.533,3.483,1.209,3.543.573,3.4-1.188,3.113,1.372,3.441,2.11,3.38,2.172,3.4,1.351,3.277,1.393,3.257,7.047,3.5,6.6,3.359,5.633,3.5,5.121,3.359,4.711,3.667,3.933,3.523.287,3.4.778,3.647,1.332,3.338-3.462,3.237,1.495,3.462-.266,3.441.123,3.4.287,3.483-.554,3.011.369,3.564,4.937,3.626-1,3.338.389,3.606-.962,3.236-1.025,3.441.512,3.483-.553,3.421-1.311,3.134.123,3.441,1.455,3.257.778,3.482,3.073,3.482.84,3.3.8,3.4,1.434,3.441,1.926,3.564.266,3.462.553,3.6-1.106,3.318-1.065,3.442-.656,3.318-.389,3.441-.41,3.216.123,3.278,1.066,3.523,1.065,3.3.676,3.462,1.72,3.421.82,3.523.676,3.4.409,3.462-.123,3.257.656,3.339,1.188,3.544.7,3.338.533,3.421.655,3.339,1.189,3.626.983,3.421-.553h3.42l3.3.143,3.5.533,3.5-.144,3.482-1.372.41,1.045-3.667,1.433-3.789.164-3.544-.553-3.216-.123h-3.318l-3.565.574-3.892-1.065-3.3-1.168-3.338-.655-3.339-.533-3.626-.7-3.359-1.209-3.032-.594-3.421.123-3.523-.43-3.585-.676-3.564-.861-3.462-1.72-3.216-.656-3.564-1.085-3.134-1-2.991-.123-3.359.389-3.277.389-3.319.635-3.277,1.045-3.851,1.188-3.667-.594-3.769-.287-3.6-2.007-3.257-1.372-3.216-.779-3.748-.9-3.483-3.073-3.072-.737-3.339-1.414-2.7-.1-3.318,1.27-3.77.615-3.359-.533-3.011.963-3.831,1.044-3.338-.409-4.138,1.167-3.749-5.182-2.4-.287-3.442.533-3.5-.267-3.36-.143-3.666.307-2.807-1.29-3.277,3.4-4.261-1.536-3.277-.758-3.872-.307-3.994-4.3-3.421-4.793-3.523-5.142-3.4-5.715-3.524-6.636-3.093-6.678-2.868-1.209-3.482-1.393-3.462-2.233-3.359-2.068-2.642-1.168-3.257,1.127-3.913-.615-3.482-1.208-3.462-.553-3.195-1.6-3.114.614-4.363-.84-3.3-3.83-2.868-.328-2.314-.717-2.991,5.49-4.752,1.844-3.687-1.926-2.745-.1-3.175,1.27-4.077.778-4.465-1.6-3.5-8.132-3.421-3.3-3.338-6.247-3.38-2.868-2.807-3.81-3.461.8-3.892-5.142-3.38-2.867-2.745-2.622-3.359.778-3.524-2.663h-3.83l-3.728-7.886-2.233-1.434-3.544,1.352-3.81-2.745-2.581-.594-3.564,1.721-3.748-1.967-2.315.348-3.38,2.97-2.97.963-3.093,6.78-4.1,6.617-3.544-.41-2.99,3.339-4.015,3.216-3.626-.553-3.052,1.823-4.076.942-2.93-.573-2.785,2.335-3.3,2.294-3.257,4.691-4.4,4.4-3.237-1.434-2.5,2.991-3.3,8.173-3.564,5.756-3.5,5.592-3.769,3.052-3.461,2.212-3.38,1.9-3.892,2.233-3.319-.123-3.113,1.905-3.482,1.8-3.5,1.352-3.483,1.679-3.564.676-3.093,1.106-3.359,1.946-3.585,2.008-3.646.737-3.544.533-3.031.368-3.6,2.09-4.015-.164-3.667-1-3.134-.86H965.9l-2.949.819-3.565,1.844h-3.748l-3.441.553-3.708-.43-3.441-.41-3.728-.86-4.056-1.782-2.253-4.65-2.356,4.9-4.425-.513-3.113.513-3.237.512-3.543,1.085-2.848.226-4.772,5.51-4.22-9.628-3.093-2.13-3.626-2.479-3.687-6.1-3.236-5.694-2.6-2.5-2.765.327-3.544.144-3.482-.41-2.479.1-3.011,3.585-5.162,6-2.847-7.251-3.032,8.582-5.407-8.767-3.38-9.73-3.257-6.9-3.36-5.305-1.679-1.864-4.4,8.153-3.646-14.913-1.107,1.127-3.257,10.693-3.5,7.824-3.5,8.972-3.728,2.868-3.319,3.708-3.4,2.99-3.748,3.462-3.933,1.25h-4.261l-3.114-2.11-2.785.86-2.971.594-3.2,2.929-3.318,2.663-3.421,3.421-3.769,2.315-3.483,1.413-3.461,1.311-3.933,1.741-3.81-1.454-3.585.143-2.95-2.151-2.888,2.192-3.667-.43-2.847,1.373-3.134,1.864-3.687,3.42-3.4.676-4.425,3.585-2.806-3.257-2.458,4.629-3.564,3.421-3.585,3.3-3.626,2.479-3.482,1.208-2.806,1.9-3.728,7.293-4.2-.8-3.052,1.331-4.486.86-3.113-2.867-2.54,1.27-3.728,1.331h-3.565l-3.277.8-3.687.287-2.561-.389-3.359,5.653-4.383-.84-2.766.349-3.339,1.782-3.359,1.085-3.2,1.721-3.564,2.847-3.912.738-3.3.532-3.421.82-3.6.286-3.38.267-3.482.143-3.319.266-3.523.267-3.318.123-3.544.409-3.4-.123-3.524.123-3.277-.266-3.318.41-3.544-.144-3.318.144H594.3l-3.339.123h-3.441l-3.359.266H577.3l-3.339.143h-6.924Z"/><text class="i" transform="translate(482.967 4264.963)"><tspan x="0" y="0">0</tspan></text><text class="i" transform="translate(465.79 4211.129)"><tspan x="0" y="0">100</tspan></text><text class="i" transform="translate(465.79 4157.297)"><tspan x="0" y="0">200</tspan></text><text class="i" transform="translate(465.79 4103.465)"><tspan x="0" y="0">300</tspan></text><text class="i" transform="translate(465.79 4049.633)"><tspan x="0" y="0">400</tspan></text><text class="i" transform="translate(465.79 3995.803)"><tspan x="0" y="0">500</tspan></text><text class="i" transform="translate(465.79 3941.971)"><tspan x="0" y="0">600</tspan></text><text class="i" transform="translate(475.919 4285.26)"><tspan x="0" y="0">25/02/20</tspan></text><text class="i" transform="translate(578.182 4285.26)"><tspan x="0" y="0">26/03/20</tspan></text><text class="i" transform="translate(680.438 4285.26)"><tspan x="0" y="0">25/04/20</tspan></text><text class="i" transform="translate(782.694 4285.26)"><tspan x="0" y="0">25/05/20</tspan></text><text class="i" transform="translate(884.95 4285.26)"><tspan x="0" y="0">24/06/20</tspan></text><text class="i" transform="translate(987.206 4285.26)"><tspan x="0" y="0">24/07/20</tspan></text><text class="i" transform="translate(1089.462 4285.26)"><tspan x="0" y="0">23/08/20</tspan></text><text class="i" transform="translate(1191.718 4285.26)"><tspan x="0" y="0">22/09/20</tspan></text><text class="i" transform="translate(1293.973 4285.26)"><tspan x="0" y="0">22/10/20</tspan></text><text class="i" transform="translate(1396.229 4285.26)"><tspan x="0" y="0">21/11/20</tspan></text></g></svg>