<svg xmlns="http://www.w3.org/2000/svg" viewBox="0 0 1098.11 507.94"><defs><style>.cls-1{fill:#91bce8;}.cls-2{fill:#fff;stroke:#a7a9ac;stroke-miterlimit:10;stroke-width:1.42px;}.cls-3,.cls-4{fill:none;stroke-linejoin:round;stroke-width:1.35px;}.cls-3{stroke:#d9d9d9;}.cls-4{stroke:#bfbfbf;}.cls-5{fill:#d1d3d4;}.cls-6{fill:#222b3e;}.cls-7{fill:#313e59;}.cls-8{fill:#808285;}.cls-9{fill:#231f20;}.cls-10,.cls-11{isolation:isolate;}.cls-11{font-size:14.31px;fill:#606060;font-family:IBMPlexSans, IBM Plex Sans;}.cls-12{letter-spacing:-0.02em;}.cls-13{letter-spacing:0em;}.cls-14{letter-spacing:0em;}.cls-15{letter-spacing:-0.01em;}.cls-16{letter-spacing:-0.03em;}.cls-17{letter-spacing:0em;}.cls-18{letter-spacing:0.01em;}.cls-19{letter-spacing:0.02em;}.cls-20{letter-spacing:-0.01em;}.cls-21{letter-spacing:-0.03em;}</style></defs><g id="Layer_2" data-name="Layer 2"><g id="Layer_1-2" data-name="Layer 1"><g id="Group_709" data-name="Group 709"><g id="Group_441" data-name="Group 441"><path id="Path_603" data-name="Path 603" class="cls-1" d="M139,364.65h24.09l3.42-.06h13.66l3.4-.14H194l3.4-.14H207.6l3.58-.13,3.4-.28H218l3.42-.13,3.4-.14h3.44l3.42-.41,3.42-.14,3.55-.41,3.36-.13,3.44.27,3.42-.41,3.38.14h6.82l3.57.27,3.44-.14,3.38-.27,3.42.29,3.42-.15,3.4.13,3.42-.13,3.53.13,3.42.14h3.46l3.4-.27h3.4l3.44-.14,3.42-.27,3.4-.14,3.56-.14,3.4-.27H321l3.4-.27,3.38.13h3.47l3.4-.27h6.92l3.42.14,3.42.13,3.42-.13h6.82l3.55.13h3.44l3.42-.27h3.4l3.44-.14,3.4-.27,3.44-.14,3.4-.41,3.53-.13,3.44-.14,3.38-.27,3.4.13h3.46l3.46-.41,3.4-.82,3.52-.12,3.42-.41,3.45-.29,3.44-.68,3.42-.82,3.36-.67,3.4-.14,3.6-.56,3.42-.67,3.26-.66,3.48,1.25,3.49-1.54,3.33.27,3.47-.55,3.38-.27,3.54-.29,3.58-.12,3.36-2.44,3.32.54,3.53-1.13,3.35-.94,3.38-.41,3.59-.56,3.52-.7,3.48-2.23,3.36-1.74,3.4-1.37,3.43-1.64,3.31-1.19,3.57-.55,3.4-1.36,3.23-.26,3.49.7,3.38-1.07,3.38,1.21,3.6-.86,3.42-1.08,3.5-.82,3.5-.56,3.44-2.07,3.4-.82,3.36-1.88,3.32-.12,3.44-.56,3.56-.67,3.48-.7,3.44-1.52,3.36-.94,3.45-.84,3.48-1.39,3.36-1.87,3.6-.55,3.42-2.89,3.36-.67,3.44-1.93,3.4-1.08,3.47-1.66,3.54-1.85,3.38-4.87,3.32-1.15,3.15-.25,3.53,2.11,3.76-2,3.32-3.3h3l3.34,2,3.75,1.31,3.63-.6,3.36-1.74,3.13.39,3.5,1.68,3.67-.74,3.34-1.47,3.5.28,3.5-1.12,3.3-.8,3.25.39,3.3,1.06,3.48,2.24h3.38l3.49,3.07,3.93-1.21,3.46-2.36,3.32-1.72,3.34-.67,3.21-.76,3.53,2,3.38-2.32,3.2,2.23,3.46,3.06,3.62,1.43,3.73-.14,3.42-3.14,3.16-.12L736,303l3.52.82,3.38.8,3.3,1.33,3.26,2.62,3.46,5.37,3.56,1.86,3.49,1.39,3.42.68,3.46,1.48,3.5,1.94,3.48.14,3.32,1.07,3.42,1.23L784,324.8l3.44,1.66,3.63.84,3.46.56,3.48.26,3.4-.26,3.36.41,3.42.26,3.46.27,3.48-.12,3.47-.68,3.38.94,3.48-.26,3.44.12,3.48-.55,3.28-.66,3.28.92,3.58,1.11,3.46.55,3.44.41,3.34.13,3.36,1.35,3.53,1.12,3.54-.14,3.58-.55,3.32-.54,3.38.54,3.46-.13h3.4l3.45.13,3.42-.54,3.32.13,3.6.55,3.5-.41,3.44-.7,3.38-.68,3.38-.12,3.38-.41,3.5.41,3.68-1.82,3.28-1.31,3.3.12h3.52l3.38-1.21,3.42.55,3.38-1.35,3.34,1,3.44,1.1,3.57.72,3.44-.7,3.38.41,3.42-.29,3.46.15,3.42-.82h3.49l3.37.14,3.38.39,3.36.55,3.49,1,3.52-.27,3.34-.27,3.58.54,3.5-.56,3.34-.53,3.4.27,3.4-.41,3.38.55h3.55l3.56-1.11,3.22-.12,3.48,1.25,3.54-.86,3.34-.39h3.42v1.13h-3.36l-3.19.39-3.83.92-3.57-1.29-2.87.1-3.58,1.1h-3.81l-3.3-.53-3.36.41-3.38-.27-3.22.52-3.66.59-3.63-.57-3.21.26-3.71.29-3.61-1-3.3-.53-3.3-.39-3.32-.12h-3.31l-3.45.82-3.54-.15-3.48.29-3.32-.41-3.48.7-3.85-.76-3.49-1.13-3-.9-3.3,1.31-3.44-.55-3.27,1.19h-3.75l-3.08-.12-3,1.18-4,2-3.71-.45-3.28.39-3.35.14-3.28.66-3.48.7-3.71.43-3.69-.55-3.15-.15-3.4.56-3.57-.15H877l-3.54.15-3.32-.54-3.15.52-3.65.55-3.81.16-3.75-1.21-3.2-1.27-3.19-.14-3.52-.41-3.57-.57-3.62-1.13-3-.84-3,.62L829,330l-3.49-.14-3.6.28-3.31-.92-3.3.64-3.63.14-3.52-.29-3.44-.26-3.28-.39-3.38.26-3.63-.28-3.54-.58-3.79-.88-3.46-1.66-3.34-1.06-3.42-1.23-3.16-1-3.58-.14-3.71-2.05-3.3-1.41-3.4-.68-3.62-1.45-3.9-2-3.5-5.47-3-2.4-3-1.23-3.3-.78-3.44-.8-3.2-.39-2.64.1L726.6,307l-4.4.16-4-1.6-3.56-3.13-2.52-1.74-3.3,2.25L705,300.83l-2.79.66-3.21.65-3.12,1.62-3.52,2.4-4.71,1.45L684,304.4h-3.28l-3.64-2.34-3.05-1-2.95-.35-3.06.72-3.66,1.19-3.46-.27-3.2,1.39-4.14.84-3.69-1.76-2.6-.31-3.2,1.66-4.1.66-4.14-1.44-3.15-1.9h-2.23l-3.1,3.11-4.5,2.34-3.75-2.25-2.66.2-2.83,1-3.32,4.8-3.81,2-3.56,1.7-3.36,1.07-3.49,2-3.25.66L589.41,321l-3.73.57-3.24,1.83-3.62,1.45-3.5.84-3.28.9-3.46,1.54-3.6.71-3.59.7-3.54.56-3.1.12L551.48,332l-3.38.8-3.48,2.09-3.67.6-3.44.77-3.4,1.09-4,1-3.34-1.21-3.27,1.05-3.63-.72-2.91.25L513.62,339l-3.58.55-3.18,1.15-3.38,1.62-3.4,1.35-3.25,1.7-3.63,2.32-3.77.75-3.6.56-3.32.41-3.26.9-3.77,1.2-3.11-.49-3.26,2.34-3.91.16-3.5.27-3.36.26-3.54.58-3.18-.27L448,356l-3.61-1.31-2.95.59L438,356l-3.69.56-3.36.14-3.25.65-3.43.82-3.54.7-3.48.29-3.44.41-3.44.14-3.36.8-3.6.43h-3.55l-3.36-.12-3.34.27-3.44.12-3.48.14-3.42.41-3.44.15-3.42.26-3.48.15h-3.39l-3.42.26h-3.5l-3.54-.14h-6.76l-3.46.14-3.48-.14-3.38-.12h-6.87l-3.4.26h-3.52l-3.34-.14-3.38.29h-3.42l-3.38.26-3.58.15-3.38.12-3.4.29-3.49.12H297l-3.42.29H290l-3.44-.15-3.48-.14-3.42.14-3.4-.14-3.47.14-3.37-.26-3.3.26-3.55.15-3.58-.29h-6.8l-3.32-.12-3.44.41-3.49-.29-3.25.14-3.55.41-3.4.13-3.46.43h-3.48l-3.38.12L218,365h-3.39l-3.38.27-3.62.14H197.4l-3.42.15H183.59l-3.4.12H166.51l-3.4.08H139Z"/><rect id="Rectangle_645" data-name="Rectangle 645" class="cls-2" x="0.71" y="0.71" width="1096.69" height="506.52"/><g id="Group_440" data-name="Group 440"><g id="Group_439" data-name="Group 439"><path id="Path_604" data-name="Path 604" class="cls-3" d="M56.91,34h1012"/><path id="Path_605" data-name="Path 605" class="cls-3" d="M56.91,111.29h1012"/><path id="Path_606" data-name="Path 606" class="cls-3" d="M56.91,190.44h1012"/><path id="Path_607" data-name="Path 607" class="cls-3" d="M56.91,268.35h1012"/><path id="Path_608" data-name="Path 608" class="cls-3" d="M56.91,346.13h1012"/><line id="Line_63" data-name="Line 63" class="cls-4" x1="57.63" y1="425.29" x2="57.63" y2="33.37"/><line id="Line_64" data-name="Line 64" class="cls-4" x1="57.63" y1="425.29" x2="1070.56" y2="425.29"/><path id="Path_609" data-name="Path 609" class="cls-4" d="M1011.49,425.29v4.32m-66.28-4.32v4.32m-69.16-4.32v4.32m-63.4-4.32v4.32m-69.17-4.32v4.32m-69.16-4.32v4.32m-67.72-4.32v4.32m-69.16-4.32v4.32m-67.72-4.32v4.32m-69.16-4.32v4.32m-69.16-4.32v4.32m-67.72-4.32v4.32m-69.17-4.32v4.32m-66.28-4.32v4.32m-70.6-4.32v4.32"/></g><path id="Path_610" data-name="Path 610" class="cls-5" d="M74.92,426H102.6l1.44-1.44h27.38l1.44-1.44h64.71l2.88-1.44h2.71l4.15,1.44h6.1l2.88-1.44h24.5l2.88-1.44h3.86l1.44,1.44h15l1.57-1.57,2.63-1.32h5.76l2.88-1.44h13l2.57-1.28,1.44,1.44,2.88-1.44,1.44,1.44,3.2-1.6h2.41l1.44,1.44h3.48l1.44-1.44H313l4.35.25,1.56-3.13h2.61l2.57-1.28,1.45,1.44,2.88-1.44,1.44,1.44,2.88-1.44,1.58,1.58,3.18-3.18,3.89-1.28,1.58,1.58,3-3L349,409l1.32-2.63,2.88,2.88,1.69-3.38H362l1.66-1.65,2.51-2.52,2.57,1.29h1.91l3.21-3.21,1.44-4.33,2.77-2.76,4.11,4.13,1.62-6.47,2.23,1.11h3.5l1.32-2.63,2.13,1.06,1.73,1.73,3.56-1.78,1.44-2.88,2.77-1.39,4.19-1.31,3.18-3.18,1.39-2.77,2-1,1.9,3.79,3.38-10.13,3.55-2.39,4.46,1.28h2.59l5.06,5.06,1.52-7.6,2.78,1.39,1.44-4.32,2.94,1.47,1.66-6.62,2.79-9.77,2.45-1.22h1.44l2.39-1.2,1.44,2.88,2.72-1.36,1.24,5,3.12,6.23h1.44l3.4,6.8,3.42-8.55,3.88-2.57h1.57l3.09-3.09,1.44-1.44,2.38-2.37,4,1.14,1.44,1.44h3.35l2.39-1.2,1.57,3.14,3.08-3.08,4.88,1.14,1.59-6.35,2.88-23.09,1.44-8.6,2.82-11.3,2.91-2.91,1.46-10.21,2.63-5.26,3.19,9.58,1.61,4.83h4.12l1.41-145.48,1.54,3.85,3.09,6.19h2.27l2.41-3.61,1.09,2.17h2.61L544,309.23l4.26-14.9,1.41-8.45,2-2,2.88,5.77,1.64-1.64,2.29,2.29,1.38,2.75,3.27,8.19,1.51-1.51,3.3,6.61,1.78-7.1h2.62l3.09-3.1,3.25-1.23,1.85,7.38,3.11-7.78,1.17,2.34,2.76-2.76,1.13,3.37,3,3,2.8,2.8,1.38,2.75,3.6,9,1.9-5.7h2.92l1.11-4.42,2.45,4.92,1.94-1.94h2.88l2.2-2.19,1.13,4.56,2.89,8.64,1.57,6.28h2.92l1.54,4.62,2.88-1.44L629,332l3.9,3.9,1.27-5.11,2.07,4.13,3.17,3.17,4,6.89,4.25,9.91,1.7,5.11,3.84-1.92,1.35-2.7h5.76l1.66-3.3,2.06-5.17,1,3.93,2.91,1.45,1.4,4.2,3.22,3.21h1.57l2.51,1.26,2.75,5.5,1.52,4.56,3.79,1.9,1.45-2.88,2,1,1.44,2.88,3.94,2,1.58-7.91,2.22-2.22,2.37,2.37,1.44,1.44,3.4,3.39,1.58-1.58,2.15,1.07,1.81,5.44,2.8-4.19,1.05,4.21,3,8.95,3.3,1.65h2l3.12-4.68.82-1.63,3,6,1.94-5.81,2.25-2.25,4.49-.3h2.2l1.64,4.93,3.5-3.49h1.44l3.21-3.21,1.23-3.7,2.6,1.3,1.73-1.73,2.13-1.07,1.32,2.64h3l2.58,2.59,1.72,3.42,3.87-1.94,1.46-13.11,2.49-2.49h4.59l1.54-6.19,2.6-3.9h1.86l1.44,11.53h3.82l1.57-1.57,2.13-1.06,1.32,2.63h2.88l1.8,3.59,3.08-4.62,2.18,2.18,1.5,3,3.9,1.95,1.44-5.76,2.55,1.27,3.88,1.28h4.79l2.23-1.11,1.44,5.76,3.22-1.61,3.8,6.6,1.89,5.67,3.66-5.49,3.59-1.17,3.2,1.6,1.81-1.81,3-3,1-2.09,2.05,2.06,1.44,4.32,2.92,2.92,1.44,2.88,2.86,2.86,2.88,7.2,1.63,1.63,3.79,1.9,1.35-5.4,3,3,1.59-12.74,2.5-2.5h1.63l2.88-7.2h1.8l1.67,8.33,2.8-4.2,1.22,8.59,3.69,1.84L898.85,400l2.33-4.66,2.88-4.32,1.41-2.82,2.72-2.71,2.88-1.44,1.44-1.44,2.14-1.07,1.22,2.45,2.83,1.42,1.51,4.53h3.85l1.62-3.24,2.82-4.23,2.83-2.83,3.64.21,3.9,2.59,1.44,2.88,3.18,3.18h2.18l3-6.06,2.88-2.88,1.52-3.05L956,366.37l1.44-7.21,2.83-11.32,3.77,4,2-4,2.87-8.6,2.14-3.21.85,1.7,2.88,11.52,1.93,3.85,3.71-3.71,1.12-3.38,3,3,1.71-8.54,2.88-20.14L992,310.2l1.44-5.77,2.89-10.12,1.42-9.9,2.71-2.71,3.12,8.35,1.61,4.83H1009l2.28-3.42,1.86,5.59,2.65-14.55,1.37,8.23,3.24-14.61,1.18,2.36,2.88-5.77,1.35,2.71,2.76-4.13,3,8.9,2-4h3.08L1038,265l2.43,1.22,2-2,2.8-11.18h4.28l1.14-3.42,2.66,4,2.66-4,1,2.93,3.43,10.3,2.22-4.44,1.94-3.88,1.44,7.2,3.82-7.65-4.41,12.05-1.44-7.2-3.84,7.67-4.53-13.6-2.27,3.22-2.23-3.35-.53,1.61h-4.44L1043.71,265l-3,3-1.54-.77-1.3,10.39h-3.46l-3.17,6.35-3.14-9.4-2.5,3.75-1.17-2.35-2.88,5.76L1017,298.28l-1.23-7.38-2.17,12-2.71-8.14-1.07,1.61h-5.6l-1.95-5.84-1.89-6.6-2.57,10.73-2.92,10.19-1.44,5.77-2.85,10-2.87,20.08-2.24,11.22-3.27-3.26-.5,1.49-5.36,5.36-2.89-5.77-2.88-11.53-.32,1.64-2.84,8.52-3.18,6.35-3.48-5.23-1.88,10.05-1.45,7.24-3,10.36-1.69,3.38-2.88,2.88L946.55,390h-3.67l-3.77-3.77-1.44-2.88-2-2-3-1-3.06,3.07-2.69,4-2,4h-5.79l-1.65-4.95-2.72-1.37-.8-1.59-2.08,1.76L909,386.71l-2.39,2.39-1.34,2.68-2.88,4.33-4.1,8.2L895,389.25l-5.05-2.89-.8-5.61-2.63,4-2.12-10.58-2.53,7.2h-2l-1.72,1.72-1.9,15.18-3.31-3.31-1.17,4.67-5.6-2.8-2-2-2.89-7.2-2.81-2.81L857,381.9l-3-3-1.44-4.33-3.78,3.25-2.55,2.54-3.82-1.91h-1.47l-5.87,8.48-2.79-8.37-2.66-5.31-4,1.85-1.44-5.76-4.32.46h-2.34l-2-2-2.88.08-1.44,5.76-5.94-3-1.6-3.22-4.26,4.46-2.51-5H794L793,364.78l-2.46,2.14H784.8l-1.44-11.52-1.85,3-1.76,7h-4.57l-2.25,1.71-1.49,13.39-5.87,2.93-2.25-4.5-2-2H758l-1.07-2.14L754,377.48l-2-1-.81,2.44-3.88,3.87h-1.44l-4.72,4.73-2.05-6.17-4.64,1.91-2,0L729.48,392l-3.29-6.56L723,390h-3.11l-4.14-2.07-3.19-9.57-2.9,2.83-2.55-7.67L704.58,375l-4.41-4.41-1.44-1.44-2.24-.46-1.87,9.34-6.06-3-1.44-2.88-1.74,2.73-5.62-2.81-1.68-5-2.49-5-1.78-.89H672l-3.88-3.88-1.32-3.95-3-1.49-2.57,5h-5.76l-1.17,2.33-5.75,2.88-2.23-6.69-2.72-8.16-3.9-7.65-4.64-3.76-1.37,2.95-6-5.94-.81-2.45-2.88,1.44-1.74-5.21h-3l-1.83-7.32-2.88-8.64-.54-2.14-3.7.81-2.92,2.93L605.84,309l-.44,1.74h-3l-2.81,8.44-5-12.6-1.25-2.49-2.63-2.63-3.24-3.25-.5-1.49-2.53,2.53-4.21,7.69-2.65-10.61-4.62,4.32h-2.09l-2.45,9.79-4.15-8.3-1.64,1.63-4.07-10.16-1.24-2.49-3.14.93-2.88-5.76-1.62,8.35-7,24.52-1.56-156.84H539l-1.83,1.45h-3.94l-3.51-7,1.14,2.86L529.5,299.21h-6.58L521,293.36l-2.45-8.56h1.53l-2.13,4.25-1.49,10.46-3,3-2.72,10.86-1.42,8.52L506.43,345l-1.88,7.53h-5.47l-4,2.93-1.82-3.63-5.69.7-1.44-1.44h-2.88l-1.9.8-1.44,1.44-3.52,3.52h-1.83l-2.11,1.06L467.06,370l-4.44-8.88h-1.44L457.6,354l-.85-3.38-2.4,1.2-1.44-2.88-2.85.7-1.58.79-2.61,9.14-2.08,8.34-3.06-1.53-1.45,4.32-2.57-1.29L435,377.79l-5.74-5.74-2.79-.8h-3.78l-2.15-.39-5.2,13.94-2.81-5.61-1.58,2.7-3.76,3.76h-2.88L400.73,388l-1.44,2.88-4.92,2.46L392.08,391l-1.71,1.83h-4.73l-2.9,7.42-4.12-6.19-2.1,2.1-1.45,4.32-3.87,3.87h-2.85l-1.94-1-1.78,1.78-2.07,2.08h-6.77l-2.18,4.37-2.88-2.89-1.07,2.14-3.42-1.71-3.31,3.3-1.88-1.85-1.94,1-4.83,3.78-1.87-1.87L329.53,415l-1.44-1.44L325.21,415l-1.45-1.44-1.94,1h-2.06L318,418.1l-3.42-1.71-3.85,1-1.44,1.44h-4.68l-1.44-1.44h-1.47l-3.81,1.91-1.45-1.44-2.88,1.44-1.44-1.44-1.94,1h-12l-3.82,1.45h-4.83l-3,1.05-1.83,1.83h-16.2l-1.44-1.44h-2l-3.82,1.44H217.57l-3.81,1.44H207l-2.88-1.44h-3.3l-2.88,1.44h-2.46l-1.95-1-4.75,1h-55.3L132,426H104.64l-1.44,1.44H74.92Z"/><path id="Path_611" data-name="Path 611" class="cls-6" d="M59.07,426h36.2l2.88-1.44h20.3l1.44-1.44h4.19l2.88-1.44h4.46l1.44-1.44h2.75l2.88-1.45h4.45l1.44-1.44h2.88l1.45-1.44h2.88l1.44-1.44h2.75l2.88-1.44h1.44l2.57-1.28,4.91,1.28,1.54-3.06,2.77-1.39,4.19-1.31,3.18-3.18,1.44-2.88,2.59-2.59,4.19-1.44h1.44l2.88-1.44h1.44l3.14-1.57,1.44-1.44,3-1.47,3-4.52,1.41-2.82,2.59-2.59h1.44l3.09-3.09,1.45-1.44,2.88-2.88,3.81-1.23h3.33l1.59-3.18,2.8-2.8,1.49-1.49,2.88-4.32,4.3-2.8,1.44-2.88,2.2-1.1,3.22,3.22,1.69-3.38h2.73l1.44-1.44h2.14l1.35,2.7,3.74,1.87,1.71-3.42,2.8-2.8,2.38-2.37,4.32,1.14h8.2l1.35,2.7L280.8,354h3.35l1.44-1.44h8.64l3.09-3.09,3.82-1.23h7l4.49,3.18,1.59-1.58,2.57,1.28H321l3.18,3.18,1.95-1.95,2.67-2.67,3.88-1.28,4.77,1.28,1.44-1.44h2.58l4.32,1.53,3.06-1.53h1.44l2.88-1.44h1.44l2.57-1.28,4.61,2.88,1.44-1.44,2.57,1.28h3.35l1.44-1.44h4.32l2.58-2.58,3.76,1.14,1.7,6.8,3.3-4.95L389,350l1.59-1.58,2.57,1.28h1.44l3.37,1.69,1.44-2.88,2.7,1.35,1.44-1.44,2.32,1.16,3,3h2l2.89-2.89,4,3.18,1.74-1.73h2.14l1.44,2.88h6.51l1.44-1.44h7.2l3.6-.13,1.57,1.57h3l2.51,1.25,1.44,2.89,3.25,1.62h1.44l2.88,1.44h4.5l4.32,1.53,2.56-1.28,1.32,2.63h2.88l1.23,2.46,2.92,7.31,1.91,1.92,3.2-1.6h1.44l2.88-1.44h4.64l2.66-6.65,3.89,2.32h4.19l1.44,1.44h2.74l1.35,2.7,3.24,1.63h2.76l1.6,1.6,3.19-1.6h5.77l2.57-1.29,4.16,1.29,2.88,2.88h4.62l4,2.88h4.32l1.44,1.44h3l2.44,1.22,1.5,6h5l2.57-1.29,4.46,1.29h1.83l2.61-3.92,2.26,2.27,1.44,1.44,3.09,3.09h4.62l4.16,1.44H592l2.88,1.44h4.2l4.62,4.62,1.87-1.87,2.13-1.06,1.23,2.45,3.1,1.55,3.34,1.67,1.6-1.6h2.29l1.74,1.74,3.39-3.39,1.54-1.55,2.76-6.89h4.4l1.5-6,2.12-1.06,3,3,3.88,4h2.06l2.57-1.28,4.46,1.28h4.62l2.88-2.88h4.33l1.44-1.44h4.32l2.88-2.88,4.2-1.44h3l1.57-1.57,2.62-1.31h8.77l1.57-1.57,2.63-1.31h3.23l1.51-4.54,2.46-1.23h1.44l3.14-1.57,3.9-1.31L717,371l2.81,2.81,1.55,4.66h3.1l1.6,1.6,3.56-1.78,1-2,2.24,3.35,1.7,1.7h3.35l3.36-1.68,1.44-8.65,2.77-1.38,1.55-3.1,2.93-5.86,1.4-8.39,2.4-1.2h4.15l4.07,4.53,3-1.49,1.44,1.44,3.19-1.6h4.46l1.57-1.57,2.62-1.31h1.44l2.88-1.44h3.16l1.44-2.89h2.14l1.6,1.6,3.19-1.6h1.44l2.57-1.28,4.47,1.28h2.88l4.46,1.6,4.3,16.36,1.71-12,2.79,5.57,1.79-8.91,2.56-1.29,2.73-1.36h1.84l2.17-8.71,1.24,7.41,2.88-5.76,1.14,6.82,3.36,1.68h4.66l2.57-1.29,1.44,1.44,3.45-1.72,1.53-1.52,3-3,1.3-2.59h2.7l1.57-1.57,3-1.52,2.12-6.35.92,4.61L870,343l2.3-2.3,3-5.92,1.46-4.38,2.87-10,1.36-2.72,2.8-2.8,3-3,1.47-2.95,2.93-4.39,1.44-5.76,2.87-4.3,1.37-4.13,2.47-1.23h1.81l3-10.55,1.41-2.82L908.4,270l2.91-5.84,1.38-5.51,2.8-1.4,1.53-3.06,1.89-2.84,1.29,6.42,4-2,1.5-9,2.84-9.94,2.84-4.26,1.46-2.93,3-5.89,1.44-20.24,2.05-7.16.85,4.29,2.89,15.89,1.49,4.47,3.54,5.3,3.26-4.9h1.5l3.13-6.25,1.44-7.24,2.88-7.19,1.37-5.48,1.84-.92,1.24,3.7,2.9,2.9,2.81,7,1.8,5.41,3.2-3.2,3.7,2.36,1.58,6.31,2.74-1.36,1.36,16.41,3.34,5,2.81-1.4,1.17,2.34,3,3,5.31,7.26,1.44-11.53,1.75,2.63,1.51,4.52,3.15,1.57,2.78,1.39,4.1,4.1,1.42,5.69,2.9,4.35,1.5,4.51,3,1.53,4.14,8.45,2.9,2.9,1.71,3.42,3.06-1.53,4.17,1.29,1.74,1.74,3.39-3.39,3.81-1.23,3.9,1.31,3,3h1.44l2.59,2.59,1.5,3,3.56,1.78,1.73-1.73,2.77-1.38-1.92,2.57-2.29,2.29-4.92-2.46-1.61-3.21-2-2h-1.46L1052,283l-2.11-1.05H1047l-5.22,5.22-2.34-2.34h-2.88l-4.39.74-2.25-4.5-3-2.95-2.88-7.2-4.25-2.56-1.63-4.9-2.93-4.4-1.39-5.54L1011.4,251l-3.77-2.48-3.68-1.84-1.63-4.9-.94,12.28-6-9L991,240.7l-3.29.07-4.25-6.38-1.22-14.66L979.78,221l-1.85-7.42-2.31-1.15-4,3.66-2.52-7.58-2.7-6.73-2.92-2.93-.82-2.44-1,4.82-2.86,7.16-1.46,7.29-3.61,7.22h-1.62l-4,6.06-4.84-7.26-1.58-4.75-2.9-16,.31,1.56-1.83,21.67-3.07,6.15-1.5,3-2.77,4.15-2.76,9.65-1.6,9.61-6.4,3.2-1-4.86-1.62,3.27-2.63,1.32-1.26,5-3,6-2.88,5.77-1.35,2.7-3.27,11.46H899.6l-1.62.81-1.25,3.75-2.83,4.25-1.45,5.76-3,4.53-1.54,3.07-3.13,3.13-2.63,2.63-1.2,2.39-2.83,9.94-1.5,4.51-3.11,6.22-4,4-4.17-10.43-.48,2.36-3.36,1.68L859.65,341h-2.44l-1,2-3.13,3.13-1.69,1.69-4.59,2.29-1.44-1.44-2,1h-5.34l-4.32-2.16-.53-3.17-2.88,5.76-.83-4.95-.77,3.08h-2.62l-2.42,1.22-1.94,1-2.47,12.35-2.6-5.21-2.24,15.73-4.57-22.82-3.5-2.23h-12l-3.82,1.91-1.91-1.91-2.09,2.88H782.9L780,352.53h-1.44l-2.11,1.05-1.83,1.83h-3.77l-4.75,1.91-1.44-1.44-3.2,1.6-3.3-5H755l-2.37.72-1.32,7.88-3,6.05-1.77,3.53L744,372l-1.44,8.65-4.32,2.16h-4.29l-2.22-2.23-6,1.26-1.91-1.91h-3.55l-1.77-5.32-2.67-2.67-2.36-3.54h-2.27l-4.71,2.88h-1.44l-1.63.81L701.81,377h-3.93l-2.11,1.06L694,379.91h-8.1l-3,1L681,382.79h-3.27l-2.88,1.44-3.94,2.88h-4.32l-1.44,1.44h-3.78l-3.42,2.88h-15.2l-2.14-4.27-4.16-2.46-2.21,6.73h-4.57l-2.48,6.26-1.75,1.75L621,403.85l-2.34-2.33-3,1.91-4.27-2.14-3.53-1.76-.8-1.6-3.35,3-4.41-4.41-2.8-.8h-2l-2.88-1.45h-4.32l-2.89-1.44h-6.14l-3.52-3.51-1.44-1.44L570.29,390h-15.8l-1.61-6.43-1.54-.77h-3.27l-1.44-1.44h-4.32l-2.88-2.89h-5.76l-2.89-2.88H520.15l-4.74,1.91-1.91-1.91H511l-4-2-1.16-2.33h-2.44L502,369.82H498L494.38,368l-1.58,6.15h-4.35l-3.81,1.44H483.2l-3.82,1.91-2.85-2.85-3-7.54-.8-1.6h-2.88l-1.07-2.15-1.92,1-3.39-1.7h-5.77l-2.88-1.44h-1.44l-4-2-1.44-2.88-1.78-.89h-3.27l-1.83-1.83-2.14.39h-7.2l-1.44,1.44h-8l-1.44-2.89-3,2.34-3.77-3.78L411.55,354h-3.24l-3.26-3.27-2.62.85-2.34-1.17-1.44,2.88-4.36-2.18h-1.44l-2-1L389,352l-2.55-2.55-4.13,6.2-2.21-8.87h-2.1l-2.53,1.44H371.2l-1.44,1.44h-4.29l-1.94-1-1.44,1.44-4.59-2.29-2.53.38h-1.45l-2.88,1.44H349.2l-3.39,1.7-3.39-1.7H339.5l-1.45,1.44h-7.58l-3.3,2.25-3,3-3.78-3.78h-3.94l-1.94-1-1.87,1.87-3.78-3.78-3-1-4.75,1h-2L294.83,354h-8.64l-1.44,1.44h-4.3l-4-2-1.16-2.33H264.22l-1.9.81-2.63,2.63-2.25,4.5L252,356.29,250.81,354l-2.09,1.44h-2.44l-2.18,4.37-3.9-3.9-2.29,3.3-3.21,1.61-3.92,5.36-1.6,1.59-2.63,2.64-1.88,3.76h-6.2l-3.69,3.69-1.44,1.44-3.52,3.52h-1.44l-2,2L205,387.46l-3.28,4.92-3.08,1.54-1.44,1.44-3.65,1.82h-1.45l-2.88,1.45h-1.44l-2.88,1.44-3.06,2L180.44,405l-3.76,3.76H173.8L170.19,411l-1.71,3.43H159l-2.88,1.44h-2.5l-1.44,1.45H149.3l-1.44,1.44H145l-1.44,1.44h-3.78L136,421.68h-2.5L132,423.12h-3.78l-3.81,1.44h-3.94L119,426H99.42l-3.81,1.44H59.07Z"/><path id="Path_612" data-name="Path 612" class="cls-7" d="M70.6,426H98.28l1.44-1.44h23l1.44-1.44h2.88l1.44-1.44h7.08l2.88-1.44H152.9l2.88-1.45h8.65l2.88-1.44,4,1.44h16.32l1.44-1.44H196l4.16,1.44h12l1.45-1.44h3.1l1.51-4.53,2.72-1.36,3-3,1.44-1.44,3-3,1.45-2.88,2.8-2.8,4.24-2.8,1.52-1.52,2.8-2.8,2.62-1.32h4.46l1.56-1.57,2.89-1.44,1.44-1.44,3-1.52,1.52-4.56,2.84-5.67,2.91-4.37,1.44-4.32,3-4.42,1.43-69.08,1.73-1.73,1.85,9.23,3.62-16.32,1.45-10.1,2.88-15.84L284.56,241l0,50.53,3.48,5.23,2.11-2.12,3-4.48,1.44-5.77,2-3,1,3,3,4.56,2.83,1.42,1.54,3.06h2.73l1.34,6.66,3.81,13.36,1.72-12,2.69,2.68,1.82-5.46,2.05-9.26,2.4,15.55h1.67l2.57,3.85,1.44,15.8,3.39,6.78,4.8,9.11,1.49-10.44,1.87,4.68,1.47,4.4,3,4.46,2.85,2.85,1.5,3,3,1.5,1.44,1.44,4,2,1.44-114.27h1.61l1.95,7.83,3.48-12.15h1.72l1.5,9,2.73-1.37,1.44,114.83H378l1.05-3.16,2.3,4.6H386l2.88,1.45,3.94,4.06,2,2,2.88-2.89,4.32,1.15,4,1.36,2.78,1.39,4.36,5.89h1.53l2.88,2.88H419l2.88,2.89h1.57l2.89,1.44h9l3.14-1.57,3.9-1.32H444l2.88-1.44h2.41l1.6,1.6,2.7-1.35,1.32,2.64h3l4.2,2.75,1.56,1.57H467l3.14-1.57,3.9,1.87,1.74-1.74h6.91l4.46,1.6,1.6-1.6h9.49l1.6,1.6,2.7-1.35,1.12,2.24,2.94,5.87L508.5,393l3.51-1.76,2.78-4.16,4.36-1.57,1.61-1.61,2.73-5.47h3.32l1.38,5.54,3.18,1.59,3.35,1.67,1.6-1.6h2.88l1.44-1.44h6.9l4.16,1.44h2.75l1.44,1.44h2.59l1.74,8.69,3.62-7.25h3.58l1.44,1.44h6.65l1.15-5.72,2,4,1.89,1.89,3.45-1.72,3.6-1.32,1.6,1.6,3-1.51,2.71,1.36h1.44l2.88,1.44h1.44l3.38,1.68,1.31-2.63,2.39,2.39h4.79l2.57-1.29,4.46,1.29h1.61l2.57-1.29,4.3,2.73h4.49l4,1.36,3.35,1.68,1.44-1.44,2.57,1.28h1.44l3.19,1.6,1.44-1.44,3.16,1.58,1.54-4.62h2.53l2.89-1.44h1.44l2.88-1.44h3.85l4.2,2.76,1.72,1.72,2.88-1.44,2.73,2.73h4.62l4.52,3.37,1.69-3.37h2.73l1.44-1.45h5l1.74,5.23,3.21-4.82,4.38-.41h6l3-4.48,2.25-1.12,3.88,2.51,1.71,5.15,3.5-3.5,3.72,2.88h4.24l3.35,5,1.55-3.1,3.2,3.19L747,389.74l2.39-1.2h1.44l3.36-1.68,1.4-8.41h2L759,379.9h3.35l2.88-1.45,4,1.45h6.23l3.1-3.1,4.2-1.23,2.6-3.91,4.21,1h1.74l2.89-2.88,4.61-1.65,1.44-4.32,2.46-1.24h4.45l2.88-2.88h3.51l1.44,4.33h5l2.88-1.44h4.33l3.25-1.63,1.34-2.7H834l1.44,1.44h2.74l1.69,3.38,3.08-3.08,2.25,2.25,1.55,4.66h3.7l1.44-1.44h6.61l1.85,1.85,3.26-4.9,3-1.52,1.39-7h1.65l1.59,14.3,3.94-5.91,3.22.07,1.53,3.07h3.16l2.88,1.44h1.91l2.88-2.88h1.59l3.08-6.16,1.34-2.67,2.51-1.26h4.6l1.44-2.88h2.14l2.88,2.88h1.44l3.18,3.18,1.59-1.58,2.12,1.06,1.39,5.56,2.92,4.39,1.62,3.24h4l2.92-29.21,4.25-1,1.51-9.1,1.79-2.68,1.78,10.72,3.66-18.26.08,34.67,4.09-4.09,2.44-3.65,1.44,1.44,3.46-5.2,1-8.2,2.88,10.09,1.75-14,1.7.85,1.82,5.44,3.66-5.49,2.91-2.91,1.17-2.35,2,1,1.61,4.83,3.47-1.74,3.49,3.9,1.45,5.84,3.11,3.1,3.63,1.81,1.56-3.12h2.74l1.44-1.45H1004l4.32,4.33h2.74l1.34,2.7,3.57,1.78,1.44-1.44,2.88,1.44,1.6-1.6h6.61l3.18,3.18,1.58-1.59,2.31,1.16,1.57,1.57H1040l1.6,1.6,3.62-1.81,1.27-3.81,2.6,1.3,1.86-1.86,2.1-3.16,2.58,7.74h2.13l3.14-1.57,4.34-1.31,1.31-2.64,2.24,1.12-1.59.82-1.07,2.14h-3.32l-4.71,2.88h-3.51l-2-5.93-3.24,3.52-2.05-1-.93,2.8-5.08,2.54-1.91-1.91h-2.88l-1.83-1.82-3,1.28-3.78-3.78h-5.41l-1.91,1.91-2.88-1.44-1.44,1.44-4.92-2.46-1.17-2.33h-2.44l-3.51-3.52-2.8-.8H998l-1.44,1.44h-2.45l-1.81,3.62-5.12-2.57-3.56-3.55-1.49-6-2-3.05-4.42,2.33-1.95-5.84L969.94,333l-5.21,7.82-2.56-7.67-1.72,19.33-2.88-10.09-.19,1.53-4.63,6.94-1.44-1.44-1.54,2.31-6.51,6.5-1.65-38,4.28.33-5.2,26-2.48-14.89L937,341h-3.81l-3.26,30.26H923.7l-2-4-3-4.53-1.29-5.16L915,359.16l-3.78-3.78h-1.44l-2.88-2.88-2.09,2.88h-4.22l-2.71.89-1.12,2.24-3.48,7h-1.88l-2.88,2.88h-2.84l-2.89-1.44H879l-1.72-3.43-7.09,8.84-1.88-16.94-.47,6.5-3.32,1.66-4,6-2.68-2.67h-5.41L851,368.35h-5.33L843.9,363l-4.46,2.48-2.19-4.37h-2.44l-1.44-1.44L831.55,362l-4,2h-4.32l-2.88,1.44H814l-1.44-4.33h-1.87L807.78,364h-4.7l-1.63.82L800,369.16l-4.14,2.07-3.94,2.88h-6.11L783.55,377h-3.14l-4.33,4.32h-7.16L766,379.87l-3.3,1.44h-4.28L757,379.87l-1.48,7.93L751.21,390h-1.44l-3.31,14-3.82-3.82-1.76,3.53-4.31-6.46h-4.06l-2.88-2.88L725.26,399,723,392.21,720.6,391l-1.56-.1-3.2,4.81h-5.48l-4.75,1.91-4.55,5.13-2.35-7H695.4L694,397.16h-2.44l-2.18,4.37L685,397.16H679.2l-2.41-2.41-2.88,1.44-2.29-2.29-2.89-1.45-3-1.05-3.81,1.44h-1.44l-2.88,1.44h-1.84L654,399.49l-3.72-1.86-1.44,1.44L645,397.16h-1.46l-1.94-1-1.44,1.44-4.28-2.14-2.42-1.21H627.7l-3.65-1.83-2.53.39H607.15l-2.46.74-4.36-2.18h-1.44L596,390h-1.45l-2.37-1.19-3.31,1.65-1.9-1.91-2.15,1.06-4.59,2.3-2.79-2.8-.78,2.33h-8.43L566.8,390h-2l-5.21,10.2-2.33-11.65h-2l-1.44-1.44h-2.5l-2.89-1.44h-7.24l-1.44,1.44h-2.88L535,389l-4.27-2.14L526.94,385l-1.28-5.09-3.74,4.88L520,386.69l-3.66,1.82L513,392.35l-4.79,2.39L505.4,392l-3-6.07-2.81.22-1.91-1.91h-8.3l-1.91,1.91-3.81-1.91h-7.24L474,386.53l-2.88-2.89-3.81,2h-4.28l-1.83-1.83-2.88-1.44L454,381.34l-1.07-2.15-2.34,1.18-1.91-1.91h-1.48l-2.88,1.44h-3.95l-4.7,2.88H426l-2.88-1.44h-1.83l-2.88-2.88H417l-2.88-2.89h-1.7l-3.4-5.1-3.61-2.33-2.42-1.21h-4.71l-3.43,2.34-3.12-3.13-2.36-3.53-3.67-1.44H380.5l-1.15-2.3-6.85.85-1.43-114L368.66,247,367,237.25,363,253.53l-3-12-.51,115.14-6.28-3.13-1.44-1.45-3.22-1.6-1.6-3.21-2.79-2.79L341,339.79l-1.52-4.53L338,346.77l-4.67-14-5.5-7.72-1.43-15.71-1.93-2.9h-2.14l-1.41-9.19-.41,1.85-2.59,7.74-2.3-2.3-2.26,15.84-5.69-19.91-1.11-5.56h-2.45l-1.71-3.43-2.75-1.37-3.36-5-1.8,5.69-3.21,4.81L287.83,299l-4.69-7-1.45-51.05,4.28.33-2.88,15.85-2.87,15.81L278.77,283l-5.12,23L271,292.79l-.85,68.34-3.07,4.6-1.44,4.33-3,4.45-2.76,5.5-1.67,5-3.37,1.69-1.44,1.44-2.88,1.44-1.83,1.82h-3.78l-3,1.06-2.63,2.63-1.69,1.69-2.88,1.44-3.83,3.83L229.43,405l-3.13,3.13-1.44,1.44-3.13,3.13-2.4,1.2-1.65,4.95h-3.55l-1.44,1.44H199.77l-2.88-1.44h-7.24l-1.44,1.44H171l-2.88-1.44-3.3,1.44h-8.64l-2.88,1.44H139.76L136,423.13h-6.82l-1.44,1.44h-2.88L123.37,426H100.31l-1.44,1.44H70.6Z"/><path id="Path_613" data-name="Path 613" class="cls-1" d="M77.81,426h26.1l2.88-1.44h25.94l2.88-1.44h7.33l4.17.15,1.6-1.6h6.74l3.19,1.6,1.6-1.6h2.28l1.6,1.6,3.2-1.6h3.85l1.44,1.44H179l1.44-1.44h11.53l1.44-1.44h38.9l1.44-1.44h10.09l1.44-1.44h7.2l1.44-1.44h2.88l1.44-1.44H261l2.88-1.44h1.44l2.88-1.44h1.44l3.14-1.57,3.6-1.31,1.74,1.73,3-3,2.88,1.44,1.6-1.6h2.88l1.44-1.44h3l1.44-2.88h2.73l1.57-1.57,2.63-1.31h3l1.57-1.57,3-1.5,1.5-3,2.8-2.8,1.44-1.45,3-3,1.3-2.59h2.73l2.89-2.88,4.16,1.6,1.44-1.44,2.88,1.44,1.73-1.72,2.88-1.44,4.42-1.32,1.51-4.53,2.72-1.36,2.75-2.75h4.32l1.57-1.57,2.88-1.44,1.44-1.44,2.89-1.44,1.52-1.53,2.88-2.88,2.67-2.67h1.59l2.88-5.76,4.47-3.18,1.39-2.77,2.88-1.44,1.57-3.14,2.8-8.41,2.46-1.24,4.35,3.38,1.87-3.73,2.82-4.23,3.2,2.88,1.86,1.86,3.45-1.72,2.45-2.46,4.32,4.32,2-1.95,2.37-2.37,1.44,1.44,3.18-3.18h3.85l2.52,1.26,1.44,2.88,2.83,1.41,1.61,4.83,3.89-1.94,1.48-4.45,2.55-2.55,3.88-1.28,3.34,3.33,1.34-4,2,3,1.5,4.52,3.3,1.65h2l2.88-4.33h3.76l2.63,1.31,1.44,1.45,2.72,1.36,1.35,4,2.9,8.7,1.51,3,3.18,3.18h1.44l2.59,2.58,1.58,3.18h3.16l2.52,1.26,1.44,2.88,2.88,1.44,1.53,3.06h3l1.44,1.44h3.18l4.15,1.45h16.31l1.45-1.45h2.41l2.62,1.32,1.44,1.44,3.14,1.57h4l1.35,2.7,3.25,1.62h1.78l3-1.51,2.42-1.21,4.47,1.28h13.13l3.14-1.57,3.9-1.31H584l1.53-3.06,2.52-1.26h4.32l2.88-1.44h1.44l2.57-1.29,4,2.6L605,370l3.2-1.6H623.6l4.76,3,1.6-1.6h2.29l1.6,1.6,3.34-1.68,2.42-1.21,1.44,1.44,2.88-1.44,4.77,1.29,1.44-1.44h2.28L654,370l3.2-1.6H664l1.44,1.44h3.48l3.6-.13,1.57,1.57h6.06l4.16,1.44h4.79l1.57-1.57,2.13-1.07,1.32,2.64h3.62l3.18-3.17,1.38-2.78,2.88-1.44,1.35-2.7h2.89l1.62-3.24,2.81-4.22,4.06-4.06h4.2l2.88-1.45,4.47,1.69,1.57-3.13h2.73l3.73,1.44h3.48l1.65-1.65,3-3,1.45-2.88,2.91-2.92,1.48-4.44,2.88-5.76,1.43-4.28,2.79-4.18,4.08-2.7,3-1.5,1.44-1.44,2.88-1.44,1.53-1.52,3-3,1.39-2.77,2.51-1.26h4.32l2.89-1.44,4.3,1.6,1.44-1.44,2.57,1.29h1.44l2.51,1.26,1.36,2.7,2.94,4.42,2.81,2.81,1.4,4.21,2.89,5.77,1.45,4.36,3,4.46,1.85,1.86,2.6-1.3,1.24,3.7,3.21,3.22h2.73l1.3,2.58,2.82,2.83,1.42,5.69,2.93,4.39,1.53,3.05,2.88,1.44,1.44,2.89,3,1.5,2.8,2.8,1.53,1.52,2.88,1.44,1.44,1.44,2.77,1.39,1.39,2.77,3,3,1.52,1.53,3.14,1.57h2.76l4.19,2.75,1.44,1.44,2.88,1.44,1.57,1.57h3.18l4.16,1.44h2.75l1.44,1.44h2.88l4.45,2.88h6.23l3.1-3.09,4.24-2.8,3-3,4-2.67h8.18l1.6,1.6,3.35-1.68,2.73-1.36h1.57l3.09-3.1,1.44-1.44,2.88-2.88,4-2.67h1.57l3.1-3.09,3-3L953,365.2l2.92-2.92,1.49-4.46,2.89-7.23,1.4-5.62,2.86-2.86,1.47-4.39,2.85-4.28,2.92-5.85,1.37-4.09,2.91-1.45,1.5-6,2.88-5.76,1.41-5.65,2.83-2.82L986.1,299l2.84-1.42,3-4.51,1.36-2.71,2.51-1.26h1.57l3.18-3.17,1.44-2.89,2.88-2.88,1.38-2.77,2.52-1.26h3l3.37,2.48,1.46,4.4,3.22,3.21h1.91l2.88-1.44,4.47,1.69,3.23-6.46,1.36-4.09,2.72-1.35,1.44-1.45,2.63-1.31h1.57l2.58-2.58,4,1.14,1.44,1.44h3l2.63,1.31,1.57,1.57h3.48l1.57-1.57,2.88-1.44,1.44-1.44,2.78-1.39-1.93,2.58-1.44,1.44-2.88,1.44-1.83,1.83h-4.67l-1.82-1.83-2.12-1.06h-3.26l-1.44-1.44h-2.88l-2.54,1.44h-1.82l-2.11,1.06-1.45,1.44-2.4,1.2-1.2,3.62-3.92,7.83-4.36-2.18-3.3,1.44h-2.84l-3.88-3.87-1.51-4.53-1.26-1.89-3.48.21-1.78.89-1.27,2.55-2.88,2.88-1.44,2.88L998,290.58h-1.82l-1.78.89-1.18,2.35-3.28,4.92-2.75,1.37-1.27,2.55-2.71,2.71-1.35,5.41L979,316.55l-1.63,6.5-3,1.48-1.21,3.62-3,6-2.8,4.19-1.51,4.54L963,345.71,961.67,351l-2.91,7.28-1.58,4.75-3,3-1.44,2.89-3.13,3.12-3.51,3.52h-1.83l-2.11,1.06-4.07,4.07-1.44,1.44-3.52,3.52h-1.82l-2.43,1.21L924.6,389l-1.9-1.91h-6.31l-3,1.05L909,392.49l-2.88,1.44-4.71,4.7h-7.17l-3.65-1.82-3.94-1.06-1.44-1.44h-2.5l-2.88-1.44h-4.7L873.33,391l-2.88-1.44L869,388.16l-2.89-1.44-3.55-1.05-3.65-1.83-1.69-1.69L854.1,379l-1.27-2.55-2.56-1.27-1.44-1.45L846,372.31l-1.69-1.68L841.63,368l-3.21-1.6L837,363.5l-2.89-1.44-1.7-3.4-3-4.52L828,348.59l-2.7-2.7-1-2h-2.45L818,340l-.81-2.44-2,1-2.69-2.69-3.17-4.74-1.48-4.45-2.88-5.77-1.33-4-2.67-2.67-3.08-4.62-1.18-2.36-1.78-.89h-1.44l-1.94-1L790,306.89,786.21,305l-3.3,1.44h-3.39l-2.72.89-1.27,2.56L772.4,313l-1.69,1.68-2.88,1.45-1.44,1.44-3.2,1.6-2.57,1.28L757,325.4l-1.4,4.19-2.88,5.76L751.14,340l-3,3-1.44,2.88L743.58,349l-2.07,2.07h-4.68l-2-2-3,.54-1.81,3.62-4.36-2.18-3.3,1.44h-3.94l-2.24,2.25-4,5.32-2,4h-2.88l-1.17,2.33-2.88,1.44L702,370.38l-3.76,3.77h-5.11L692.1,372l-2.46,2.15h-5.73L681,372.71h-7.59l-1.83-1.83-2.15.38h-4.67l-1.44-1.44h-5.8l-3.82,1.91-1.91-1.91-2.53,1.44h-4.67l-3.85.47-1.45-1.44-1.48.75-4.29,2.12-1.9-1.91-3,1.91-4.59-2.29-3-1.06h-2l-1.94-1-4.75,1h-2.88l-4.75,1.91-2.3-2.29L599.56,368l-2.53.39h-1.44l-2.88,1.44h-3.39l-2.72.89-1.71,3.43h-7.65l-4.7,2.89h-5.35l-1.94-1-4.75,1h-5.22l-2.46-.23-3.34,1.67H547l-4-2-1.17-2.33h-3.5l-3.65-1.82-1.44-1.44-2.11-1.06h-1.48l-1.44,1.44h-5.73l-1.94-1-4.75,1H511l-2.89-1.44h-4.7L502,368.37h-3.33l-1.71-3.43-2.88-1.44-1.44-2.88-1.79-.9h-3.7L485.24,356l-2-2h-1.45L478,350.2l-1.67-3.34-2.93-8.79-1.15-3.47-2.4-1.2L468.44,332l-2.11-1.06H464l-3.16,4.33h-3.11l-4.13-2.07-1.64-4.9-1.42,3-4.25-4.25-1.94,1-2.95,1.89-1.56,4.69-5.91,3-1.95-5.84-2.72-1.37-1.44-2.88-1.78-.89h-2.38l-4.32,3.78-1.44-1.44-4.32,4.32-4.41-4.41-1.52,1.69L403,332.81l-2.69-2.69-1.54-2.31-2.11,3.46L394,336.72l-4.37-4.37-1.66.81-2.65,7.94-1.83,3.66-2.88,1.44-1.28,2.55-3.76,3.77-3.88,5.76h-1.89l-2.24,2.25-2.89,2.88-1.69,1.69-2.88,1.44L358.61,368l-2.88,1.44-1.83,1.83h-3.77l-3,2.5-2.4,1.2L343,379.9h-3.55l-3.94,2.5-2.29,2.29-2.88-1.44-1.44,1.44-3.82-1.9-2.92,2.88h-2.44l-1,2-3.13,3.13-1.44,1.44-2.63,2.63L310,398.08l-3.21,1.61-1.83,1.83h-3.26l-2.11,1.05-1.82,1.83h-2.44l-1.45,2.88h-3.32l-1.44,1.44h-2.88l-1.91,1.91-2.88-1.44-3.31,3.31-2.34-2.34-2.14,1.06L270,413h-1.45l-2.88,1.44h-1.44l-2.88,1.44h-2.5l-1.44,1.45h-2.88l-1.44,1.44h-7.2l-1.45,1.44H234.31l-1.44,1.44H194l-1.44,1.44H181l-1.44,1.44H172l-1.44-1.44h-2L163.83,425l-1.91-1.91-3,1.91-3.82-1.91h-5.8L147.39,425l-2.88-1.44-4.75,1H136L133.07,426h-25l-3.81,1.44H77.81Z"/><path id="Path_614" data-name="Path 614" class="cls-8" d="M59.07,426h49.16l2.89-1.44h17.29l2.88-1.44h8.64l2.88-1.44h4.46l1.44-1.44h7.07l2.88-1.45h4.46l1.56-1.57,2.63-1.31h1.57l2.58-2.58,4.49,1.14,2.89-1.44h1.44l2.88-1.44,4.29,1.6,1.6-1.6h2.89L193.5,410l2.63-1.31h1.57l3-3,2.88-1.44,3.9-1.31h1.74l3.09-3.1,4.11-1.23,1.57-1.57,2.63-1.31h3l1.44-1.44H228l1.66-1.65,3-3,1.17-2.34,2.7,1.35,1.73-1.72,2.88-1.44,3-3,3.52-1.23,1.74,1.74,2.88-2.88,4.32,1.14h2l3-10.57,2.87-7.19,1.28-3.85h4.1l3.1-3.09,3.14,4.09,1.48,4.43,3.37,3.37,3.45-1.73,1.45-1.44,3-1.5,1.44-2.88,2.77-1.38,1.44-1.44,2.63-1.32h1.84l3-13.44,2.79-5.58,4.24-4.24,4.4-2.88.68-2,2.36,11.79L317.8,345l2.95,3,3.05,4.58h1.66l2.62,1.31,1.57,1.57h5l3.06-4.58,3.76-1.18H346l2.57-1.29,3.95,1.29,1.44,4.32h3.7l1.44-1.44h2.58l4.18,3,3.62-1.81,1.37-4.11h4.1l2.88-2.88,3.88-1.29,3.93,6.87,3.25,1.62h4.49l4.16,1.44h2.05l3.08-6.16,1.39-2.78,2.43-2.43,2.57,1.29h2.1l3-7.52,3.17.13,1.36,2.71,3.12,4.68h1.65l2.47,1.23,2.8,8.41,1.66,3.32h3.33l4.32,3.18,1.74-1.73h2.58l4,1.36,2.78,1.39,1.57,1.57h3.48l1.57-1.57,2.31-1.16,1.7,1.7,2.88-4.32,4,1,3.2,1.6,3.59,3.87,1.6,1.61,3.14,1.56H480l2.88-1.44,4.29,6.92,1.83-5.48h2.19l2.43,1.22,1.38,5.52,3.36,6.73,2.07-2.07,2.62-1.31h6l3.06-6.12,2-3.06,1.14,3.42h3.1l1.44,1.44h2.89l4.11,4.11,1.81,1.81,3-1.52,3,1.52,1.6-1.6h2.14l1.35,2.7,4.1,2,1.46-45.1H547l1.33,4,3.37,3.37,3.45-1.72,1.44-1.44,1.77-.89,1.43,45.68h4.1l1.51-4.53,2-1,1.44,2.88,3.53-1.77,3-1.49,4.2-1.31,1.57-1.57,2.88-1.44,1.44-1.44,2.62-1.31,4.3,1.6,3-3h3.73l4.82,4.82,1.78-3.57,2.51-1.25h1.44l2.88-1.44H617l2.58-2.59,4.75-.42,1.44-1.44,2.88-1.44,1.52-1.53,1.9-1.89,1.27,7.63,3.21,1.6,3.52,1.76,1.44-2.88,2.7,1.35,1.44-1.44,3.33,1.66,1.55-12.41,2.78-5.55L657,367.9l3.31-13.25,3.93.75h4l2.16,2.16,2.26-10.19,1,8.41,3.79-1.9,2.42-1.21,4.76,1.29,1.45-1.44H689l1.44-1.44h6.61l3.18,3.18,1.86-1.87,2.32-1.16,1.44,1.44,3.45-1.72,1.44-1.44,3-1.5,1.44-2.88,2.35-1.17,2.24,1.12,1.56,7.78,3.57-1.79h1.44l3.3-1.65,1.17-3.5,1.91,1.92,1.7,6.8,3.79-3.78,3-3.06,1.44-11.52,2.5-2.5h1.59l3.14-6.29,1.42-14.14,2.74-1.37,1.52-3.06,2.82-4.22,3.76.34,3.31-1.65,3.45-1.31,1.8,3.59,3.64-5.46,1.48-5.9,2.88-14.41,1.41-5.62,2.7-4.06,2.82-1.41,1.52-1.52,2.88-2.89,3.43,3.1H798l3.95,2.63,3,24.13L809.69,323l2.21-32.42h2.2l5,1.85,1.31-20.94,2.76,6.9,3.2-28.8,0,30.42,3.21,4.8h1.65l2.42,1.21,1.4,7,2.88,4.32,1.42,7.11,2.91,8.74,2.9,5.81,1.64,3.28h3l4.09,2.7,1.44,2.88,3.24,1.62h1.91l3.18-3.17,1.82-3.64,1.2,12,3.41,11.93,2.16-4.33,2.51-1.25h1.72l2.63-5.27,3.62,3.61,2.8,2.8L887,345l2.88,2.88,1.59,3.17h3l4.19,2.75L903,367.61l2.26-2.26,2.31-1.15,2.73,2.72h4.32l2.13,2.13,2.72-10.87,4.1,4.72,1.58-1.59,2.57,1.29h7.38l3.65,2.52,1.42,7.05,3,7.4,1.91,1.91,2.78-1.38,2.74,4.11h2.12l3.27-3.27,1.48-11.79,2.83-35.37,3.82-1.44,3.73,1.31,2.64,2.64,1.39,7,3,29.43h1.71l2.88,4.33h5l1.44-1.45h2.2l2.89,4.33h2l2.39-1.2,1.17,2.34,3.17,3.18h1.91l2.57-1.29,4.3,2.73h2.75l4,2.65,1.56,7.78,3.57-1.79h4.16l4,2.89H1032l3.51,1.23,1.65,1.65H1040l1.6,1.6,2.7-1.35,1.22,2.45,3,1.5,1.73,1.72,3.19-1.6h7.48l1.62-3.24,2.89-4.32,1.35-2.71,2.67-1.33-1.6,2.41-1.18,2.36-2.88,4.32-2,4h-8l-3.81,1.91-2.3-2.3-3.21-1.6-.8-1.6-2.34,1.17-1.91-1.91h-2.88l-2.08-2.07-1.9-.81h-4.67l-2.88-2.88h-3.43l-5.89,2.48-1.79-8.94-2.25-1.13-3.55-1-3.65-1.83-2.53.38h-2.85l-3.76-3.76-2-.56h-3.13L987.27,377,985,378.45h-6.37l-2.88-4.32h-2.24l-3.07-30.66L969.15,337,967,334.84l-2.12-1.06-3.3,1.44-2.68,34.08-1.54,12.31-4,4h-3.49l-2.46-3.7-2.57,1.29-2.86-2.86-3.12-7.8-1.35-6.75L935.66,364H927.4l-1.94-1-1.87,1.86-4.66-4.65,1,2-2.39,9.56-3.51-3.51h-4.32L907.32,366l-5.07,4.48-3.66-14.65-3.65-2.21-4.38-1.06-1.88-3.76-2.89-2.88L884.35,343l-2.63-2.63-2.88-2.88-1.46,5h-2.27l-1.78.89-3.6,7.2-4.46-15.61-.72-7.17-3.46,3.16h-2.84l-4-2L852.82,326l-2.55-1.28-4.38-1.06-2-4.07-3-5.9-3-8.92-1.38-6.92-2.88-4.32L832.35,287l-1.48-.74h-2.09l-3.85-5.78-1.47-30.86,4.3.14-3.83,34.51-2.52-6.3-1,16.73L815,292h-1.77L811,334.45l-1.51.05L805.23,296l-4.67-24.9L798.4,270l-3-1.05h-2.6l-2.06-3.1-2.46,2.46L786.55,270l-2.69,1.34-2.35,3.54-1.34,5.35-2.88,14.41-1.55,6.17-5.15,7.73-2.51-5-1.71,1.05-4.16,2.08-2.45-1.22-2.88,4.22-1.7,3.4-2.46,1.23-1.36,13.62-3.66,7.32h-1.88L744.1,337l-1.45,11.53-3.4,3.4-5.58,5.58-2.22-8.88-.6,1.87-4.14,2.07h-1.44l-5,2.47-1.79-8.94-2.24.15-1.44,2.88-3.21,1.61-1.44,1.44-4.59,2.29L704.16,353l-3.9,3.31-3.78-3.77h-5.41L689.63,354h-2.89l-1.44,1.44h-4.67l-2.46-.23L672.56,358l-.28-2.18-1,4.63-3.59-3.59h-7.2l-3.55,17.33-4-18.06,1.6-1.59-2.56,5.12-1.78,14.19-4.22-2.11-1.44,1.44L642.15,372l-1.44,2.88-4.82-2.41L632,370.53l-.93-5.59-1.6,1.6L626.61,368l-1.44,1.44-4.59,2.3-3,1h-4.7L610,374.13h-1.44l-1.78.89-2.46,4.92-5-5-2.79-.81-3.9,3.35-3.82-1.91-2.53,1.06-1.44,1.44-2.89,1.44-1.82,1.83h-2.88L573,384l-4.81,2.41-1.44-2.89-1.8,5H558.4L557,343.71l-5.58,3.51-4.34-4.34L546,339.55l-.72,45.95-6.54-3.27-1.17-2.34L535,381.8l-3.31-1.65-3.3,1.65-2.55-2.54-2.88-2.88-3.69-.81-1.44-1.44h-3.54l-.54-1.61L510,379.89H504.3L501.25,381l-3.31,3.31-4.33-8.65-1.25-5-1.54-.77-3.41,7.8-4.62-9.24-2.48,1.44h-2.46L474.2,368l-1.93-1.94-1.7-3.4-4.25-1.49h-3.26L460,365.28l-2.2-2.2-3,2.41h-4.68l-1.82-1.83-2.57-1.28-2.43-1.21h-2.92L438,363.5l-3.78-3.77h-4.76l-2.11-4.22-2.65-7.94-1.62-.81H421l-3.6-5.4L416.23,339l-4.13,7.76h-3.41l-1.94-1-1.53,1.54-1.29,2.56-3.48,7h-3.28l-2.88-1.44h-5.77l-4-2-3.05-6.1-2,.89-3.94,2.88h-2.34l-2.55,3.69-5.08,2.54L362.2,354h-2.53l-1.44,1.44h-5.34l-1.44-4.32H339.5l-4.06,5.76h-6.38L327.24,355,325.12,354H323l-3.4-5.11-3.09-3.09-1.65-4.93-1.31-6.56.85-2.55-3.37,1.68L307,337.48l-3.8,6.4-3.2,14.4h-2.67l-2.11,1.06-1.44,1.44-2.55,1.27-1.44,2.89-3.22,1.6L285.13,368l-4.59,2.3-4.34-4.35-1.55-4.66-1.48-2.94-2.83,2.83H268l-2.29,2.91-2.86,7.16-3.3,11.55H252.7l-3.43,2.33-2.34-2.33-1.9.8-3.13,3.13L239,388.15l-2.3,2.3-2.34-1.17-3.76,4.39-2.07,2.07h-2.88l-1.45,1.44H221l-2.11,1.06L217,400.07h-2.88l-4.32,4.32h-4.33l-3.93,2.5-3.27,3.27h-1.82l-2.11,1.06L192.53,413h-2.88L187.74,415,183.92,413l-3.3,1.44h-1.44l-2.88,1.44H172l-2.53,1.45h-1.83l-2.11,1.05-1.83,1.83h-3.77l-3.82,1.44h-6.81l-1.45,1.44h-3.77l-3.81,1.44h-7.73L128.74,426H112.38l-3.81,1.44H59.07Z"/><path id="Path_615" data-name="Path 615" class="cls-9" d="M77.81,426H92.38l2.89-1.44h23.18L120,423l2.62-1.31h5.77l2.88-1.44h7.48l1.44-2.89h2.43l4.47,1.6,1.72-1.72,2.63-1.31h4.32L159,414.3l1.5-3,2.59-2.59h1.43l3.1-3.09,4.24-2.8,3.72.13h3.5l1.59-3.18,2.92-2.92,1.4-4.2,2.46-1.23h1.66l2.88-4.32,4.24-2.88,4,1.52,3.31-1.65,4,.28,1.6-1.6h2.88l1.44-1.44h3l1.53-3.06,2.84-1.42,3-4.56,1.38-4.14,2.46-1.23h1.44l2.57-1.28,4,1.28,1.56,3.13,3.63-1.81,3.11-3.11,1.35-5.41h2.62l1.57-1.57,3-1.52,1.07-3.21,2,3,1.68,11.79,3.82-5.73,2.56-1.28h4.45l4.62.38,1.27-10.18,2.59,5.19,2-5.88,2.83-4.24,2.84-4.26,1.44-1.44,2.89-4.33,4.06-4.06h7.78l3.68,14.73,1.79-14.35,1.76.88,1.44,2.88,3.25,1.62h5.14l1-9.3,2.07,9.3h3.76l1.44-1.44h2.28l1.44,1.44H346l2.88-1.44,4.3,1.6,1.72-1.72,2.31-1.16,1.45,1.44,3.19-1.6h1.44l3-1.51,2.73-1.37h2L373.9,78.76h9.54l2-1,2.88,253.15h5.33l1.45-1.44h4.2l2.56-1.28,1.59,1.58,3.18-3.18h2.88l1.44-1.44h3l1.32-2.64,3.27,1.64L420,66.23l2.31,1.16L423.76,66l2.57,1.28h2.61l1.29,2.59L433,72.58l1.44,256.9h3.3l1.44,1.44h2.74l1.56,3.13,3-1.48,2.5,3.75,1.52,3.06,2.8,1.4,1.45,5.76,3.33,1.67,4.8,5.35,1.61-6.47,2,1,3,3H471l2.62,1.31,1.73,1.73,2.54-1.28,1.27,5.09,3,3,1.66,1.66h2.73l1.29,2.58,3.05,3.05,3.14,1.57h4.49l3.66,2.52,1.52,7.57h5.45l2.8-9.78,1.89.95,1.65,3.31,3.86-1.93,1.27-7.62,1.81,1.8,1.34,2.7,3,14.89h1.86l2.56,1.28,2.75,4.12,1.87,3.74,3.38-3.38,4.45-1.57,3.9-1.31h4l2.68,2.67,1.65,1.65h2.87l1.6,1.6,2.89-1.44,4.29,2.73h4.32l2.63,1.31,1.44,1.44,3.14,1.57h4.19l1.6,1.6,2.89-1.44,4.46,1.28h3.18l1.44-1.44h2.59l3.9,1.32,1.72,1.72,3.19-1.6h4l2.88,1.44h1.78l2.88-1.44,3.86,2.88h10.68l2.88-2.88H648.4l4.32,3.18,1.74-1.74h2.41l2.89,1.44h4.79l1.44-1.44h2.28l1.6,1.6,3.2-1.6h7.33l1.44-1.44h2.88l4,1.74,2-1.95,3-3,1.35-5.41H697l3.48,5.22,1.54-4.61L704,394l2,6,2.88-7.2.91,2.74,3.89,1.94,1.08-3.24,2.75,6.87,3.62-7.25.64-1.9,2.75,12.41,2-4.05,2.39,1.2h3.93l1.61,6.45,3.79-3.78,1.93-1.93,1.44,7.2,3.12-3.13,1.77,3.54,3.27-9.8,4.22,7.5,1.7-13.64,2.2-2.21,4.85,1.15,2.88-8.65h1.44l2-5.87,1.14,12.6,4.1,6.15,1.58-15.76h1.93l1.44,1.44H783l2.88-14.41h1.52l2.93-35.24.35,23.15,3.65-14.6,1.6,1.6,3-27.42.09,12.16h2.88l3.52,28.1,1.89-25.51,1.87,7.5,5.16,16.79,1.82-18.23h2.86l.74-5.23,2.9,24.68,3.65-34.51.16,15.93,4.07-4.08,1.5-4.51,1.78-7.1,1.47,22,3.07-13.81,1.4,11.23,3.68-14.72h1.87l1.21,2.41,3.75,15,1.94-13.57,2-3,1.87,5.6,3.28-18,3.5,31.44,3.76-18.84,3.66,2.1L874,342.44h2.61l2.73-12.25,3.41,2,2.81,4.23,1.49,1.49,2.8,2.8,1.5,3,3.25,1.62h1.44l3.48,1.74,1.33-4,2.77,2.76,1.78-3.56,2.51-1.25h3l3.46,2.62L916,345.2l2.88,1.44,1.57,1.57h3.48l1.44-1.44h3.1l3-9,4.2-4.2,3.28,0,2.05,4.1,3.42-8.56,4.37-7.31,2.91-7.29,1.44-7.2,2.89-7.23,1.44-10.05,2.38-4.77,4.51-3.38h4.39l2.88-5.76,4.44,3.75L977.52,265l2.84,1.42,1.44-10.09,2.45,1.23,1.92-1.92,2.92-7.31,1.84-3.67,1.17,8.17,3.11,1.56,1.73,1.73,3.45-1.73,3.23,1.2,1.66,8.31,3.33-3.32,2.21,2.21,1.47,7.34,2.88,1.44,1.39,6.95,3.13,6.25h1.5l3.15,4.73,2-2,2.08-1,3.63,9.07,1.71-13.67h4l2.58-2.58,4.65,2.83.85-1.72,2.73,12.27,1.75-1.74,2.39,3.59,3.7,5.55,1.09-3.26,2.31,10.42,1.48,7.41,2.87,2.87,1.46,10.22,3.22,1.61-4.54-.66-1.5-10.49-2.83-2.84-1.57-7.82-1.18-5.33-5.7-6.88-1.42-2.13-2.36,2.36-2.42-10.87-4.81-3.2-2.15,1.83H1036l-3.22,17.95-5.12-12.8-3.53,3.29-3.7-5.55h-1.62l-3.61-7.22-1.29-6.45-2.88-1.44-1.52-7.6-5.1,3.31-2.1-10.52-5.64,1.57-2.29-2.3-3.58-1.79-.63-4.36-2.76,7-2.85,2.86-1.6-.8-1.44,10.08-2.76-1.38-1.58,15.83-5.47-5.47-2.09,5.76h-4.22l-4,5.55-2.57,1.59-1.42,10-2.9,7.26-1.45,7.2-3,7.47L947,328.6l-5.88,12.63-3.27-6.54-4.07,2.8-4.29,10.72h-3.55l-1.44,1.44h-4.67L918,347.83l-2.89-1.44-1.84-1.84-1.53-2.31-3.48.21-1.78.89L904,348.26l-2.53-2.53-1.12,3.37-4.66-2.33h-1.44l-4-2-1.61-3.21-2.63-2.64-1.59-1.59-2.69-4L879.1,332l-1.31,11.91h-4.94l-2.44-12.19-3-2.76-5,27.13-4.16-39.56h2.31l-4.07,22.38-2.71-8.14-3.09,20.77-5.5-22-.74-1.48-5.14,21.12L838,338.53,834.56,354,833,331.11l.44-1.74-1.63,4.88-6.47,6.47-1.9-19h4.3l-4.58,45.89-3.54-25.05.64-4.48h-2.8L814.91,364l-5.43-24.42-2.88,28.06-5.94-38.15h-2.88l-1.68-13.42,4.3,0L797,346.44l-1.92-1.92-5.19,20.74-2.46-32,4.31,0-3,36.56h-1.66l-2.88,14.41h-5.55l-1.44-1.44-1.88,18.46-6.53-9.8-.56-6.1-1.54.32-2.89,8.64h-5.33l-3.61,18.16-5.48-11h1.46l-4,12.12-2.44-4.87-3.61,3.62-1.44-7.2-5.61,5.6-2-7.83h-3.14l-4.6,5.69-2.51-11.29,1-2.93-5.1,10.2-2.48-6.19-6.28-1.87-2.74,7.63-3.14-9.43-1.78,5.14-4.69-7-1.22,4.7-3.3,3.31-3,3L685.87,401l-3.43.54L681,403h-6.66l-4.75,1.91L667.68,403l-2.53,1.44h-5.73L656.54,403h-1.48l-2.34,2.34L649,401.53h-11.2l-2.88,2.88H632l-1.95-1-4.75,1H623l-2.89-2.88L617.2,403h-2.46l-2.89-1.44h-2.37l-4.75,1.91-2.29-2.3-2.11-1.05h-2.92L596,401.53h-7.55l-3.86.47-1.91-1.91h-3.94l-3.65-1.83-1.44-1.44-2.11-1.06h-4.32l-3.65-1.82-3.47.85-1.91-1.91h-2.88l-2.08-2.07L551,388.56h-5.41l-4.71,2.88-5.42,4.37-2.73-5.44-2.48-3.74-1.92-.95h-2.7l-3.17-15.86-1.15-2.31-.6,5.92-5.8,2.9-2.09-4.17-2.52,9.2h-7.73l-1.66-8.3-1.78-1.79H493.7l-3.65-1.84-3.37-3.38-1-2h-2.44L481.16,362l-3.3-3.3-.93-3.73-1.87.93-2.3-2.3-2.11-1.05h-1.82l-3.27-3.27-2.13,7.81-4.95-7.42-5-2.12L452,341.77l-2.64-1.32-1.7-3.4-1.75-2.63L442.82,336,441,332.36h-2.44l-1.44-1.44H433L431.55,73.18l-2.5-2.5-1-2H426l-1.94-1-1.45,1.44L420,326.48l-4.06-2-1.07,2.15h-3.32L410.11,328h-2.89l-3.77,3.77L401.58,330l-1.95,1H395.7l-1.44,1.44H386.9L384,80.08l-2.2.13h-7.2L372.45,333.8h-3.07L367,335l-3.34,1.67h-1.44l-3.82,1.91-1.44-1.44L353.45,340l-3.82-1.91-3.3,1.44H329.06l-1.44-1.44-2.53,1.44h-5.51l-.44-2-.22,2h-6.77l-4-2-1.44-2.88-2,20.22-5.28-21.11h-5.51l-2.8,2.25L287,341.66l-1.44,1.44-2.76,4.15-2.72,4.08-3,9-2-4.05-.93,7.48-4.22-2.11-4.75,1-2.84,1-5.7,8.55-2.18-15.2-3.85,2.42-1.83,1.83h-2.09l-1.17,4.71-3.56,3.55L236.78,372,235,368.38h-6.8l-1.63.82-1.25,3.74L221.93,378l-2.75,1.37-1.72,3.43h-3.32l-1.44,1.44h-2.88l-1.91,1.91L205,384.7l-4.75,2.67-3.39-1.7L194,388.55l-4.06,4.32h-2.09l-1.62.82-1.32,3.95-3,3L180,404.4h-4.73l-1.94-1-3.47,2-4.71,4.7h-1.44l-2,2-1.6,3.21-4,2h-3.39l-3,1.06-2.29,2.29-3.82-1.9H141.1l-1.44,2.88h-7.1l-3.81,1.44h-4.84l-3,1.05L119.05,426H95.61l-2.89,1.44H77.81Z"/><g id="_0" data-name=" 0" class="cls-10"><text class="cls-11" transform="translate(36.13 427.45)">0</text></g><g id="_5" data-name=" 5" class="cls-10"><text class="cls-11" transform="translate(36.13 349.64)">5</text></g><g id="_10" data-name=" 10" class="cls-10"><text class="cls-11" transform="translate(27.55 271.83)">10</text></g><g id="_15" data-name=" 15" class="cls-10"><text class="cls-11" transform="translate(27.55 192.59)">15</text></g><g id="_20" data-name=" 20" class="cls-10"><text class="cls-11" transform="translate(27.55 114.78)">20</text></g><g id="_25" data-name=" 25" class="cls-10"><text class="cls-11" transform="translate(27.55 36.97)">25</text></g><g id="_6-Mar-20" data-name=" 6-Mar-20" class="cls-10"><text class="cls-11" transform="translate(45.56 487.72) rotate(-45)">6-Ma<tspan class="cls-12" x="33.57" y="0">r</tspan><tspan class="cls-13" x="38.53" y="0">-20</tspan></text></g><g id="_6-Apr-20" data-name=" 6-Apr-20" class="cls-10"><text class="cls-11" transform="translate(116.02 487.09) rotate(-45)">6<tspan class="cls-12" x="8.59" y="0">-</tspan><tspan x="14.01" y="0">Ap</tspan><tspan class="cls-12" x="31.49" y="0">r</tspan><tspan class="cls-13" x="36.46" y="0">-20</tspan></text></g><g id="_6-May-20" data-name=" 6-May-20" class="cls-10"><text class="cls-11" transform="translate(181.53 488.39) rotate(-45)">6-M<tspan class="cls-14" x="25.92" y="0">a</tspan><tspan class="cls-15" x="33.49" y="0">y</tspan><tspan x="40.49" y="0">-20</tspan></text></g><g id="_6-Jun-20" data-name=" 6-Jun-20" class="cls-10"><text class="cls-11" transform="translate(252.04 487.38) rotate(-45)">6<tspan class="cls-16" x="8.59" y="0">-</tspan><tspan class="cls-17" x="13.87" y="0">Jun-20</tspan></text></g><g id="_6-Jul-20" data-name=" 6-Jul-20" class="cls-10"><text class="cls-11" transform="translate(320.59 485.88) rotate(-45)">6<tspan class="cls-16" x="8.59" y="0">-</tspan><tspan class="cls-17" x="13.87" y="0">Ju</tspan><tspan class="cls-15" x="29.3" y="0">l</tspan><tspan class="cls-13" x="33.05" y="0">-20</tspan></text></g><g id="_6-Aug-20" data-name=" 6-Aug-20" class="cls-10"><text class="cls-11" transform="translate(388.09 487.84) rotate(-45)">6<tspan class="cls-12" x="8.59" y="0">-</tspan><tspan x="14.01" y="0">Aug-20</tspan></text></g><g id="_6-Sep-20" data-name=" 6-Sep-20" class="cls-10"><text class="cls-11" transform="translate(457.95 487.71) rotate(-45)">6<tspan class="cls-12" x="8.59" y="0">-</tspan><tspan x="14.01" y="0">Se</tspan><tspan class="cls-18" x="30.19" y="0">p</tspan><tspan x="38.63" y="0">-20</tspan></text></g><g id="_6-Oct-20" data-name=" 6-Oct-20" class="cls-10"><text class="cls-11" transform="translate(525.76 486.96) rotate(-45)">6<tspan class="cls-19" x="8.59" y="0">-</tspan><tspan x="14.51" y="0">Oc</tspan><tspan class="cls-12" x="31.85" y="0">t</tspan><tspan class="cls-13" x="36.59" y="0">-20</tspan></text></g><g id="_6-Nov-20" data-name=" 6-Nov-20" class="cls-10"><text class="cls-11" transform="translate(594.08 487.95) rotate(-45)">6-N<tspan class="cls-20" x="24.42" y="0">o</tspan><tspan class="cls-15" x="32.32" y="0">v</tspan><tspan x="39.22" y="0">-20</tspan></text></g><g id="_6-Dec-20" data-name=" 6-Dec-20" class="cls-10"><text class="cls-11" transform="translate(661.55 487.77) rotate(-45)">6-Dec-20</text></g><g id="_6-Jan-21" data-name=" 6-Jan-21" class="cls-10"><text class="cls-11" transform="translate(731.12 487.21) rotate(-45)">6<tspan class="cls-16" x="8.59" y="0">-</tspan><tspan class="cls-17" x="13.87" y="0">Jan-21</tspan></text></g><g id="_6-Feb-21" data-name=" 6-Feb-21" class="cls-10"><text class="cls-11" transform="translate(800.71 487.59) rotate(-45)">6-<tspan class="cls-21" x="14.3" y="0">F</tspan><tspan x="21.94" y="0">e</tspan><tspan class="cls-18" x="29.8" y="0">b</tspan><tspan class="cls-13" x="38.25" y="0">-21</tspan></text></g><g id="_6-Mar-21" data-name=" 6-Mar-21" class="cls-10"><text class="cls-11" transform="translate(862.73 487.72) rotate(-45)">6-Ma<tspan class="cls-12" x="33.57" y="0">r</tspan><tspan class="cls-13" x="38.53" y="0">-21</tspan></text></g><g id="_6-Apr-21" data-name=" 6-Apr-21" class="cls-10"><text class="cls-11" transform="translate(933.19 487.09) rotate(-45)">6<tspan class="cls-12" x="8.59" y="0">-</tspan><tspan x="14.01" y="0">Ap</tspan><tspan class="cls-12" x="31.49" y="0">r</tspan><tspan class="cls-13" x="36.46" y="0">-21</tspan></text></g><g id="_6-May-21" data-name=" 6-May-21" class="cls-10"><text class="cls-11" transform="translate(998.7 488.39) rotate(-45)">6-M<tspan class="cls-14" x="25.92" y="0">a</tspan><tspan class="cls-15" x="33.49" y="0">y</tspan><tspan x="40.49" y="0">-21</tspan></text></g></g></g></g></g></g></svg>