<?xml version="1.0" encoding="utf-8"?>
<!-- Generator: Adobe Illustrator 22.0.1, SVG Export Plug-In . SVG Version: 6.00 Build 0)  -->
<svg version="1.1" id="SVGDoc" xmlns:avocode="https://avocode.com/"
	 xmlns="http://www.w3.org/2000/svg" xmlns:xlink="http://www.w3.org/1999/xlink" x="0px" y="0px" viewBox="0 0 1128 544.2"
	 style="enable-background:new 0 0 1128 544.2;" xml:space="preserve">
<style type="text/css">
	.st0{fill:#FFFFFF;fill-opacity:0;stroke:#D9D9D9;stroke-width:1.3479;stroke-linejoin:round;stroke-miterlimit:20;}
	.st1{fill:#FFFFFF;fill-opacity:0;stroke:#BFBFBF;stroke-width:1.3479;stroke-linejoin:round;stroke-miterlimit:20;}
	.st2{fill:#D1D3D4;}
	.st3{fill:#222B3E;}
	.st4{fill:#313E59;}
	.st5{fill:#91BCE8;}
	.st6{fill:#808285;}
	.st7{fill:#231F20;}
	.st8{fill:#606060;}
	.st9{font-family:'ArialMT';}
	.st10{font-size:14.3137px;}
</style>
<desc>Generated with Avocode.</desc>
<title>Group 441</title>
<title>Group 440</title>
<g>
	<title>Group 439</title>
	<g>
		<title>Path 604</title>
		<path class="st0" d="M71.9,55h1012"/>
	</g>
	<g>
		<title>Path 605</title>
		<path class="st0" d="M71.9,132.3h1012"/>
	</g>
	<g>
		<title>Path 606</title>
		<path class="st0" d="M71.9,211.5h1012"/>
	</g>
	<g>
		<title>Path 607</title>
		<path class="st0" d="M71.9,289.4h1012"/>
	</g>
	<g>
		<title>Path 608</title>
		<path class="st0" d="M71.9,367.2h1012"/>
	</g>
	<g>
		<title>Line 63</title>
		<path class="st1" d="M72.6,446.3V54.4"/>
	</g>
	<g>
		<title>Line 64</title>
		<path class="st1" d="M72.6,446.3h1012.9"/>
	</g>
	<g>
		<title>Path 609</title>
		<path class="st1" d="M0-19.8"/>
	</g>
</g>
<g>
	<title>Path 610</title>
	<path class="st2" d="M89.9,447L89.9,447h2.9l0,0h1.4l0,0h2.9l0,0h1.4l0,0h2.9l0,0h1.4l0,0h2.9l0,0h1.4l0,0h2.9l0,0h2.9l0,0h1.4l0,0
		h3.2l0,0l1.4-1.4l0,0h2.6l0,0h1.4l0,0h2.9l0,0h1.4l0,0h2.9l0,0h2.9l0,0h1.4l0,0h2.9l0,0h1.4l0,0h2.9l0,0h1.4l0,0h3.2l0,0l1.4-1.4
		l0,0h2.6l0,0h2.9l0,0h1.4l0,0h2.9l0,0h1.4l0,0h2.9l0,0h1.4l0,0h2.9l0,0h1.4l0,0h2.9l0,0h2.9l0,0h1.4l0,0h2.9l0,0h1.4l0,0h2.9l0,0
		h1.4l0,0h2.9l0,0h1.4l0,0h2.9l0,0h2.9l0,0h1.4l0,0h2.9l0,0h1.4l0,0h2.9l0,0h1.4l0,0h3.2l0,0h3.9l0,0h1.8l0,0l2.9-1.4l0,0h2.7l0,0
		l4.2,1.4l0,0h1.6l0,0h2.9l0,0h1.6l0,0l2.9-1.4l0,0h4.2l0,0h2.9l0,0h1.4l0,0h2.9l0,0h1.4l0,0h2.9l0,0h1.4l0,0h2.9l0,0h1.4l0,0h3.1
		l0,0l2.9-1.4l0,0h3.9l0,0l1.4,1.4l0,0h3.2l0,0h1.4l0,0h2.9l0,0h1.4l0,0h2.9l0,0h3.2l0,0l1.6-1.6l0,0l2.6-1.3l0,0h4.2l0,0h1.6l0,0
		l2.9-1.4l0,0h4.2l0,0h2.9l0,0h1.4l0,0h2.9l0,0h1.6l0,0l2.6-1.3l0,0l1.4,1.4l0,0l2.9-1.4l0,0l1.4,1.4l0,0l3.2-1.6l0,0h2.4l0,0
		l1.4,1.4l0,0h3.5l0,0l1.4-1.4l0,0h2.9l0,0l4.3,0.2l0,0l1.6-3.1l0,0h2.6l0,0l2.6-1.3l0,0l1.4,1.4l0,0l2.9-1.4l0,0l1.4,1.4l0,0
		l2.9-1.4l0,0l1.6,1.6l0,0l3.2-3.2l0,0l3.9-1.3l0,0l1.6,1.6l0,0l3-3l0,0l3.1,1.5l0,0l1.3-2.6l0,0l2.9,2.9l0,0l1.7-3.4l0,0h2.4l0,0
		h1.4l0,0h3.2l0,0l1.7-1.7l0,0l2.5-2.5l0,0l2.6,1.3l0,0h1.9l0,0l3.2-3.2l0,0l1.4-4.3l0,0l2.8-2.8l0,0l4.1,4.1l0,0l1.6-6.5l0,0
		l2.2,1.1l0,0h3.5l0,0l1.3-2.6l0,0l2.1,1.1l0,0l1.7,1.7l0,0l3.6-1.8l0,0l1.4-2.9l0,0l2.8-1.4l0,0l4.2-1.3l0,0l3.2-3.2l0,0l1.4-2.8
		l0,0l2-1l0,0l1.9,3.8l0,0l3.4-10.1l0,0l3.6-2.4l0,0l4.5,1.3l0,0h2.6l0,0l5.1,5.1l0,0l1.5-7.6l0,0l2.8,1.4l0,0l1.4-4.3l0,0l2.9,1.5
		l0,0l1.7-6.6l0,0l2.8-9.8l0,0l2.4-1.2l0,0h1.4l0,0l2.4-1.2l0,0l1.4,2.9l0,0l2.7-1.4l0,0l1.2,5l0,0l3.1,6.2l0,0h1.4l0,0l3.4,6.8l0,0
		l3.4-8.6l0,0l3.9-2.6l0,0h1.6l0,0l3.1-3.1l0,0l1.4-1.4l0,0l2.4-2.4l0,0l4,1.1l0,0l1.4,1.4l0,0h3.4l0,0l2.4-1.2l0,0l1.6,3.1l0,0
		l3.1-3.1l0,0l4.9,1.1l0,0l1.6-6.4l0,0l2.9-23.1l0,0l1.4-8.6l0,0l2.8-11.3l0,0l2.9-2.9l0,0l1.5-10.2l0,0l2.6-5.3l0,0l3.2,9.6l0,0
		l1.6,4.8l0,0h4.1l0,0l1.4-145.5l0,0l1.5,3.8l0,0l3.1,6.2l0,0h2.3l0,0l2.4-3.6l0,0l1.1,2.2l0,0h2.6l0,0l1.5,148.3l0,0l4.3-14.9l0,0
		l1.4-8.5l0,0l2-2l0,0l2.9,5.8l0,0l1.6-1.6l0,0l2.3,2.3l0,0l1.4,2.8l0,0l3.3,8.2l0,0l1.5-1.5l0,0l3.3,6.6l0,0l1.8-7.1l0,0h2.6l0,0
		l3.1-3.1l0,0l3.2-1.2l0,0l1.8,7.4l0,0l3.1-7.8l0,0l1.2,2.3l0,0l2.8-2.8l0,0l1.1,3.4l0,0l3,3l0,0l2.8,2.8l0,0l1.4,2.8l0,0l3.6,9l0,0
		l1.9-5.7l0,0h2.9l0,0l1.1-4.4l0,0l2.5,4.9l0,0l1.9-1.9l0,0h2.9l0,0l2.2-2.2l0,0l1.1,4.6l0,0l2.9,8.6l0,0l1.6,6.3l0,0h2.9l0,0
		l1.5,4.6l0,0l2.9-1.4l0,0l1.2,3.7l0,0l3.9,3.9l0,0l1.3-5.1l0,0l2.1,4.1l0,0l3.2,3.2l0,0l4,6.9l0,0l4.3,9.9l0,0l1.7,5.1l0,0l3.8-1.9
		l0,0l1.3-2.7l0,0h2.4l0,0h3.3l0,0l1.7-3.3l0,0l2.1-5.2l0,0l1,3.9l0,0l2.9,1.5l0,0l1.4,4.2l0,0l3.2,3.2l0,0h1.6l0,0l2.5,1.3l0,0
		l2.8,5.5l0,0l1.5,4.6l0,0l3.8,1.9l0,0l1.4-2.9l0,0l2,1l0,0l1.4,2.9l0,0l3.9,2l0,0l1.6-7.9l0,0l2.2-2.2l0,0l2.4,2.4l0,0l1.4,1.4l0,0
		l3.4,3.4l0,0l1.6-1.6l0,0l2.1,1.1l0,0l1.8,5.4l0,0l2.8-4.2l0,0l1.1,4.2l0,0l3,9l0,0l3.3,1.6l0,0h2l0,0l3.1-4.7l0,0l0.8-1.6l0,0l3,6
		l0,0l1.9-5.8l0,0l2.3-2.3l0,0l4.5-0.3l0,0h2.2l0,0l1.6,4.9l0,0l3.5-3.5l0,0h1.4l0,0l3.2-3.2l0,0l1.2-3.7l0,0l2.6,1.3l0,0l1.7-1.7
		l0,0l2.1-1.1l0,0l1.3,2.6l0,0h3l0,0l2.6,2.6l0,0l1.7,3.4l0,0l3.9-1.9l0,0l1.5-13.1l0,0l2.5-2.5l0,0h4.6l0,0l1.5-6.2l0,0l2.6-3.9
		l0,0h1.9l0,0l1.4,11.5l0,0h3.8l0,0l1.6-1.6l0,0l2.1-1.1l0,0l1.3,2.6l0,0h2.9l0,0l1.8,3.6l0,0l3.1-4.6l0,0l2.2,2.2l0,0l1.5,3l0,0
		l3.9,1.9l0,0l1.4-5.8l0,0l2.5,1.3l0,0l3.9,1.3l0,0h1.7l0,0h3.1l0,0l2.2-1.1l0,0l1.4,5.8l0,0l3.2-1.6l0,0l3.8,6.6l0,0l1.9,5.7l0,0
		l3.7-5.5l0,0l3.6-1.2l0,0l3.2,1.6l0,0l1.8-1.8l0,0l3-3l0,0l1-2.1l0,0l2.1,2.1l0,0l1.4,4.3l0,0l2.9,2.9l0,0l1.4,2.9l0,0l2.9,2.9l0,0
		l2.9,7.2l0,0l1.6,1.6l0,0l3.8,1.9l0,0l1.3-5.4l0,0l3,3l0,0l1.6-12.7l0,0l2.5-2.5l0,0h1.6l0,0l2.9-7.2l0,0h1.8l0,0l1.7,8.3l0,0
		l2.8-4.2l0,0l1.2,8.6l0,0l3.7,1.8l0,0l3.9,12.8l0,0l2.3-4.7l0,0l2.9-4.3l0,0l1.4-2.8l0,0l2.7-2.7l0,0l2.9-1.4l0,0l1.4-1.4l0,0
		l2.1-1.1l0,0l1.2,2.5l0,0l2.8,1.4l0,0l1.5,4.5l0,0h3.8l0,0l1.6-3.2l0,0l2.8-4.2l0,0l2.8-2.8l0,0l3.6,0.2l0,0l3.9,2.6l0,0l1.4,2.9
		l0,0l3.2,3.2l0,0h2.2l0,0l3-6.1l0,0l2.9-2.9l0,0l1.5-3l0,0l2.9-10.2l0,0l1.4-7.2l0,0l2.8-11.3l0,0l3.8,3.9l0,0l2-4l0,0l2.9-8.6l0,0
		l2.1-3.2l0,0l0.8,1.7l0,0l2.9,11.5l0,0l1.9,3.8l0,0l3.7-3.7l0,0l1.1-3.4l0,0l3,3l0,0l1.7-8.5l0,0l2.9-20.1l0,0l2.9-10.1l0,0
		l1.4-5.8l0,0l2.9-10.1l0,0l1.4-9.9l0,0l2.7-2.7l0,0l3.1,8.3l0,0l1.6,4.8l0,0h3.8l0,0l2.3-3.4l0,0l1.9,5.6l0,0l2.6-14.5l0,0l1.4,8.2
		l0,0l3.2-14.6l0,0l1.2,2.4l0,0l2.9-5.8l0,0l1.4,2.7l0,0l2.8-4.1l0,0l3,8.9l0,0l2-4l0,0h3.1l0,0l1.4-11.1l0,0l2.4,1.2l0,0l1.9-1.9
		l0,0l2.8-11.2l0,0h4.3l0,0l1.1-3.4l0,0l2.7,4l0,0l2.7-4l0,0l1,2.9l0,0l3.4,10.3l0,0l2.2-4.4l0,0l1.9-3.9l0,0l1.4,7.2l0,0l3.8-7.6
		l0,0l-4.4,12l0,0l-1.4-7.2l0,0l-3.8,7.7l0,0l-4.5-13.6l0,0l-2.3,3.2l0,0l-2.2-3.3l0,0l-0.5,1.6l0,0h-4.4l0,0l-2.4,10.5l0,0l-3,3
		l0,0l-1.5-0.8l0,0l-1.3,10.4l0,0h-3.5l0,0l-3.2,6.4l0,0l-3.1-9.4l0,0l-2.5,3.7l0,0l-1.2-2.3l0,0l-2.9,5.8l0,0l-4.6,16.6l0,0
		l-1.2-7.4l0,0l-2.2,11.9l0,0l-2.7-8.1l0,0l-1.1,1.6l0,0h-5.6l0,0l-1.9-5.8l0,0l-1.9-6.6l0,0l-2.6,10.7l0,0l-2.9,10.2l0,0l-1.4,5.8
		l0,0l-2.9,10l0,0l-2.9,20.1l0,0l-2.2,11.2l0,0l-3.3-3.3l0,0l-0.5,1.5l0,0l-5.4,5.4l0,0l-2.9-5.8l0,0l-2.9-11.5l0,0l-0.3,1.6l0,0
		l-2.8,8.5l0,0l-3.2,6.4l0,0l-3.5-5.2l0,0l-1.9,10l0,0l-1.4,7.2l0,0l-3,10.4l0,0l-1.7,3.4l0,0l-2.9,2.9l0,0l-3.3,6.6l0,0h-3.7l0,0
		l-3.8-3.8l0,0l-1.4-2.9l0,0l-2-2l0,0l-3-1l0,0l-3.1,3.1l0,0l-2.7,4l0,0l-2,4l0,0h-5.8l0,0l-1.7-5l0,0l-2.7-1.4l0,0l-0.8-1.6l0,0
		l-2.1,1.8l0,0l-2.9,1.4l0,0l-2.4,2.4l0,0l-1.3,2.7l0,0l-2.9,4.3l0,0l-4.1,8.2l0,0l-3.3-15.1l0,0l-5-2.9l0,0l-0.8-5.6l0,0l-2.6,4
		l0,0l-2.1-10.6l0,0l-2.5,7.2l0,0h-2l0,0l-1.7,1.7l0,0l-1.9,15.2l0,0l-3.3-3.3l0,0l-1.2,4.7l0,0l-5.6-2.8l0,0l-2-2l0,0l-2.9-7.2l0,0
		l-2.8-2.8l0,0l-1.4-2.9l0,0l-3-3l0,0l-1.4-4.3l0,0l-3.8,3.2l0,0l-2.5,2.5l0,0l-3.8-1.9l0,0h-1.5l0,0L850,408l0,0l-2.8-8.4l0,0
		l-2.7-5.3l0,0l-4,1.9l0,0l-1.4-5.8l0,0l-4.3,0.5l0,0h-2.3l0,0l-2-2l0,0l-2.9,0.1l0,0l-1.4,5.8l0,0l-5.9-3l0,0l-1.6-3.2l0,0
		l-4.3,4.5l0,0l-2.5-5l0,0H809l0,0l-1.1-2.1l0,0l-2.5,2.1l0,0h-5.7l0,0l-1.4-11.5l0,0l-1.8,3l0,0l-1.8,7l0,0h-4.6l0,0l-2.3,1.7l0,0
		l-1.5,13.4l0,0l-5.9,2.9l0,0l-2.2-4.5l0,0l-2-2l0,0h-3.3l0,0l-1.1-2.1l0,0l-2.9,2.6l0,0l-2-1l0,0l-0.8,2.4l0,0l-3.9,3.9l0,0h-1.4
		l0,0l-4.7,4.7l0,0l-2.1-6.2l0,0l-4.6,1.9l0,0h-2l0,0l-2.9,8.8l0,0l-3.3-6.6l0,0L738,411l0,0h-3.1l0,0l-4.1-2.1l0,0l-3.2-9.6l0,0
		l-2.9,2.8l0,0l-2.6-7.7l0,0l-2.6,1.5l0,0l-4.4-4.4l0,0l-1.4-1.4l0,0l-2.2-0.5l0,0l-1.9,9.3l0,0l-6.1-3l0,0l-1.4-2.9l0,0l-1.7,2.7
		l0,0l-5.6-2.8l0,0l-1.7-5l0,0l-2.5-5l0,0l-1.8-0.9l0,0H687l0,0l-3.9-3.9l0,0l-1.3-4l0,0l-3-1.5l0,0l-2.6,5l0,0H672l0,0h-1.5l0,0
		l-1.2,2.3l0,0l-5.8,2.9l0,0l-2.2-6.7l0,0l-2.7-8.2l0,0l-3.9-7.7l0,0l-4.6-3.8l0,0l-1.4,2.9l0,0l-5.9-5.9l0,0L642,351l0,0l-2.9,1.4
		l0,0l-1.7-5.2l0,0h-3l0,0l-1.8-7.3l0,0l-2.9-8.6l0,0l-0.5-2.1l0,0l-3.7,0.8l0,0l-2.9,2.9l0,0l-1.6-3.2l0,0l-0.4,1.7l0,0h-3l0,0
		l-2.8,8.4l0,0l-5-12.6l0,0l-1.2-2.5l0,0l-2.6-2.6l0,0l-3.2-3.2l0,0l-0.5-1.5l0,0l-2.5,2.5l0,0l-4.2,7.7l0,0l-2.7-10.6l0,0l-4.6,4.3
		l0,0h-2.1l0,0l-2.4,9.8l0,0l-4.2-8.3l0,0l-1.6,1.6l0,0l-4.1-10.2l0,0l-1.2-2.5l0,0l-3.1,0.9l0,0l-2.9-5.8l0,0l-1.6,8.4l0,0l-7,24.5
		l0,0L556,183.4l0,0h-2.1l0,0l-1.8,1.4l0,0h-3.9l0,0l-3.5-7l0,0l1.1,2.9l0,0l-1.4,139.6l0,0h-6.6l0,0l-1.9-5.8l0,0l-2.4-8.6l0,0h1.5
		l0,0l-2.1,4.3l0,0l-1.5,10.5l0,0l-3,3l0,0l-2.7,10.9l0,0l-1.4,8.5l0,0l-2.9,23.1l0,0l-1.9,7.5l0,0H514l0,0l-4,2.9l0,0l-1.8-3.6l0,0
		l-5.7,0.7l0,0l-1.4-1.4l0,0h-2.9l0,0l-1.9,0.8l0,0l-1.4,1.4l0,0l-3.5,3.5l0,0h-1.8l0,0l-2.1,1.1l0,0l-5.4,12.1l0,0l-4.4-8.9l0,0
		h-1.4l0,0l-3.6-7.2l0,0l-0.8-3.4l0,0l-2.4,1.2l0,0l-1.4-2.9l0,0l-2.8,0.7l0,0l-1.6,0.8l0,0l-2.6,9.1l0,0l-2.1,8.3l0,0l-3.1-1.5l0,0
		l-1.4,4.3l0,0l-2.6-1.3l0,0l-1.7,8.4l0,0l-5.7-5.7l0,0l-2.8-0.8l0,0h-3.8l0,0l-2.1-0.4l0,0l-5.2,13.9l0,0l-2.8-5.6l0,0l-1.6,2.7
		l0,0l-3.8,3.8l0,0h-2.9l0,0l-3.6,2.3l0,0l-1.4,2.9l0,0l-4.9,2.5l0,0l-2.3-2.3l0,0l-1.7,1.8l0,0h-4.7l0,0l-2.9,7.4l0,0l-4.1-6.2l0,0
		l-2.1,2.1l0,0l-1.4,4.3l0,0l-3.9,3.9l0,0h-2.8l0,0l-1.9-1l0,0l-1.8,1.8l0,0l-2.1,2.1l0,0h-3.8l0,0h-1.4l0,0h-1.5l0,0l-2.2,4.4l0,0
		l-2.9-2.9l0,0l-1.1,2.1l0,0l-3.4-1.7l0,0l-3.3,3.3l0,0l-1.9-1.9l0,0l-1.9,1l0,0l-4.8,3.8l0,0l-1.9-1.9l0,0l-2.9,1.4l0,0l-1.4-1.4
		l0,0l-2.9,1.4l0,0l-1.4-1.4l0,0l-1.9,1l0,0h-2.1l0,0l-1.8,3.6l0,0l-3.4-1.7l0,0l-3.9,1l0,0l-1.4,1.4l0,0H320l0,0l-1.4-1.4l0,0h-1.5
		l0,0l-3.8,1.9l0,0l-1.4-1.4l0,0l-2.9,1.4l0,0l-1.4-1.4l0,0l-1.9,1l0,0h-2l0,0h-2.9l0,0h-1.4l0,0h-2.9l0,0H293l0,0l-3.8,1.4l0,0h-2
		l0,0h-2.9l0,0l-3,1.1l0,0l-1.8,1.8l0,0h-3.8l0,0h-2.9l0,0h-1.4l0,0h-2.9l0,0h-1.4l0,0h-3.8l0,0l-1.4-1.4l0,0h-2l0,0l-3.8,1.4l0,0
		h-3.4l0,0h-1.4l0,0h-2.9l0,0H247l0,0h-3l0,0h-1.4l0,0h-2.9l0,0h-1.4l0,0h-2.9l0,0h-2.9l0,0l-3.8,1.4l0,0h-2l0,0h-2.9l0,0h-2l0,0
		l-2.9-1.4l0,0h-3.3l0,0l-2.9,1.4l0,0h-2.5l0,0l-1.9-1l0,0l-4.7,1l0,0h-1.4l0,0h-2.9l0,0h-1.4l0,0H195l0,0h-1.4l0,0h-2.9l0,0h-2.9
		l0,0h-1.4l0,0h-2.9l0,0h-1.4l0,0h-2.9l0,0h-1.4l0,0h-2.9l0,0h-1.4l0,0h-2.9l0,0h-2.9l0,0h-1.4l0,0h-2.9l0,0H162l0,0h-3l0,0h-1.4
		l0,0h-2.9l0,0h-1.4l0,0h-2.9l0,0h-2l0,0L147,447l0,0h-3.8l0,0h-1.4l0,0h-2.9l0,0h-1.4l0,0h-2.9l0,0h-1.4l0,0h-2.9l0,0h-2.9l0,0H126
		l0,0h-3l0,0h-1.4l0,0h-2l0,0l-1.4,1.4l0,0h-3.8l0,0H113l0,0h-3l0,0h-2.9l0,0h-1.4l0,0h-2.9l0,0h-1.4l0,0h-2.9l0,0h-1.4l0,0h-2.9
		l0,0h-1.4l0,0h-2.9l0,0L89.9,447L89.9,447z"/>
</g>
<g>
	<title>Path 611</title>
	<path class="st3" d="M74,447L74,447h2.9l0,0h1.4l0,0h2.9l0,0h1.4l0,0h2.9l0,0H87l0,0h2.9l0,0h2.9l0,0h1.4l0,0h2.9l0,0h1.4l0,0h2.9
		l0,0h1.4l0,0h2.9l0,0h1.4l0,0h3.1l0,0l2.9-1.4l0,0h4.2l0,0h1.4l0,0h2.9l0,0h1.4l0,0h2.9l0,0h1.4l0,0h2.9l0,0h3.2l0,0l1.4-1.4l0,0
		h2.6l0,0h1.6l0,0l2.9-1.4l0,0h4.5l0,0l1.4-1.4l0,0h2.8l0,0l2.9-1.4l0,0h4.5l0,0l1.4-1.4l0,0h2.9l0,0l1.4-1.4l0,0h2.9l0,0l1.4-1.4
		l0,0h2.8l0,0l2.9-1.4l0,0h1.4l0,0l2.6-1.3l0,0l4.9,1.3l0,0l1.5-3.1l0,0l2.8-1.4l0,0l4.2-1.3l0,0l3.2-3.2l0,0l1.4-2.9l0,0l2.6-2.6
		l0,0l4.2-1.4l0,0h1.4l0,0l2.9-1.4l0,0h1.4l0,0l3.1-1.6l0,0l1.4-1.4l0,0l2.9-1.5l0,0l3-4.5l0,0l1.4-2.8l0,0l2.6-2.6l0,0h1.4l0,0
		l3.1-3.1l0,0l1.4-1.4l0,0l2.9-2.9l0,0l3.8-1.2l0,0h3.3l0,0l1.6-3.2l0,0l2.8-2.8l0,0l1.5-1.5l0,0l2.9-4.3l0,0l4.3-2.8l0,0l1.4-2.9
		l0,0l2.2-1.1l0,0l3.2,3.2l0,0l1.7-3.4l0,0h2.7l0,0l1.4-1.4l0,0h2.1l0,0l1.3,2.7l0,0l3.7,1.9l0,0l1.7-3.4l0,0l2.8-2.8l0,0l2.4-2.4
		l0,0l4.3,1.1l0,0h1.4l0,0h2.9l0,0h1.4l0,0h2.4l0,0l1.3,2.7l0,0l3.2,1.6l0,0h3.4l0,0l1.4-1.4l0,0h2.6l0,0h1.4l0,0h2.9l0,0h1.7l0,0
		l3.1-3.1l0,0l3.8-1.2l0,0h3.2l0,0h3.9l0,0l4.5,3.2l0,0l1.6-1.6l0,0l2.6,1.3l0,0h1.6l0,0h2.6l0,0l3.2,3.2l0,0l2-2l0,0l2.7-2.7l0,0
		l3.9-1.3l0,0l4.8,1.3l0,0l1.4-1.4l0,0h2.6l0,0l4.3,1.5l0,0l3.1-1.5l0,0h1.4l0,0l2.9-1.4l0,0h1.4l0,0l2.6-1.3l0,0l4.6,2.9l0,0
		l1.4-1.4l0,0l2.6,1.3l0,0h3.3l0,0l1.4-1.4l0,0h2.6l0,0h1.7l0,0l2.6-2.6l0,0l3.8,1.1l0,0l1.7,6.8l0,0l3.3-4.9l0,0l2.8,2.8l0,0
		l1.6-1.6l0,0l2.6,1.3l0,0h1.4l0,0l3.4,1.7l0,0l1.4-2.9l0,0l2.7,1.4l0,0l1.4-1.4l0,0l2.3,1.2l0,0l3,3l0,0h2l0,0l2.9-2.9l0,0l4,3.2
		l0,0l1.7-1.7l0,0h2.1l0,0l1.4,2.9l0,0h3.3l0,0h3.2l0,0l1.4-1.4l0,0h2.6l0,0h1.4l0,0h3.2l0,0l3.6-0.1l0,0l1.6,1.6l0,0h3l0,0l2.5,1.3
		l0,0l1.4,2.9l0,0l3.2,1.6l0,0h1.4l0,0l2.9,1.4l0,0h1.6l0,0h2.9l0,0l4.3,1.5l0,0l2.6-1.3l0,0l1.3,2.6l0,0h2.9l0,0l1.2,2.5l0,0
		l2.9,7.3l0,0l1.9,1.9l0,0l3.2-1.6l0,0h1.4l0,0l2.9-1.4l0,0h4.6l0,0l2.7-6.6l0,0l3.9,2.3l0,0h1.6l0,0h2.6l0,0l1.4,1.4l0,0h2.7l0,0
		l1.3,2.7l0,0l3.2,1.6l0,0h2.8l0,0l1.6,1.6l0,0l3.2-1.6l0,0h4.2l0,0h1.6l0,0l2.6-1.3l0,0l4.2,1.3l0,0l2.9,2.9l0,0h1.7l0,0h2.9l0,0
		l4,2.9l0,0h1.7l0,0h2.6l0,0l1.4,1.4l0,0h3l0,0l2.4,1.2l0,0l1.5,6l0,0h3.4l0,0h1.6l0,0l2.6-1.3l0,0l4.5,1.3l0,0h1.8l0,0l2.6-3.9l0,0
		l2.3,2.3l0,0l1.4,1.4l0,0l3.1,3.1l0,0h1.7l0,0h2.9l0,0l4.2,1.4l0,0h1.6l0,0h2.7l0,0l2.9,1.4l0,0h1.6l0,0h2.6l0,0l4.6,4.6l0,0
		l1.9-1.9l0,0l2.1-1.1l0,0l1.2,2.5l0,0l3.1,1.5l0,0l3.3,1.7l0,0l1.6-1.6l0,0h2.3l0,0l1.7,1.7l0,0l3.4-3.4l0,0l1.5-1.5l0,0l2.8-6.9
		l0,0h4.4l0,0l1.5-6l0,0l2.1-1.1l0,0l3,3l0,0l3.9,4l0,0h2.1l0,0l2.6-1.3l0,0l4.5,1.3l0,0h1.4l0,0h3.2l0,0l2.9-2.9l0,0h4.3l0,0
		l1.4-1.4l0,0h2.6l0,0h1.7l0,0l2.9-2.9l0,0l4.2-1.4l0,0h3l0,0l1.6-1.6l0,0l2.6-1.3l0,0h4.2l0,0h1.4l0,0h3.2l0,0l1.6-1.6l0,0l2.6-1.3
		l0,0h3.2l0,0l1.5-4.5l0,0l2.5-1.2l0,0h1.4l0,0l3.1-1.6l0,0l3.9-1.3l0,0l3.8,4.1l0,0l2.8,2.8l0,0l1.6,4.7l0,0h3.1l0,0l1.6,1.6l0,0
		l3.6-1.8l0,0l1-2l0,0l2.2,3.3l0,0l1.7,1.7l0,0h3.3l0,0l3.4-1.7l0,0l1.4-8.6l0,0l2.8-1.4l0,0l1.5-3.1l0,0l2.9-5.9l0,0l1.4-8.4l0,0
		l2.4-1.2l0,0h4.2l0,0l4.1,4.5l0,0l3-1.5l0,0l1.4,1.4l0,0l3.2-1.6l0,0h4.5l0,0l1.6-1.6l0,0l2.6-1.3l0,0h1.4l0,0l2.9-1.4l0,0h3.2l0,0
		l1.4-2.9l0,0h2.1l0,0l1.6,1.6l0,0l3.2-1.6l0,0h1.4l0,0l2.6-1.3l0,0l4.5,1.3l0,0h2.9l0,0l4.5,1.6l0,0l4.3,16.4l0,0l1.7-12l0,0
		l2.8,5.6l0,0l1.8-8.9l0,0l2.6-1.3l0,0l2.7-1.4l0,0h1.8l0,0l2.2-8.7l0,0l1.2,7.4l0,0l2.9-5.8l0,0l1.1,6.8l0,0l3.4,1.7l0,0h1.6l0,0
		h3.1l0,0l2.6-1.3l0,0l1.4,1.4l0,0l3.5-1.7l0,0l1.5-1.5l0,0l3-3l0,0l1.3-2.6l0,0h2.7l0,0l1.6-1.6l0,0l3-1.5l0,0l2.1-6.4l0,0l0.9,4.6
		l0,0l3.3,8.3l0,0l2.3-2.3l0,0l3-5.9l0,0l1.5-4.4l0,0l2.9-10l0,0l1.4-2.7l0,0l2.8-2.8l0,0l3-3l0,0l1.5-2.9l0,0l2.9-4.4l0,0l1.4-5.8
		l0,0l2.9-4.3l0,0l1.4-4.1l0,0l2.5-1.2l0,0h1.8l0,0l3-10.5l0,0l1.4-2.8l0,0l2.9-5.8l0,0l2.9-5.8l0,0l1.4-5.5l0,0l2.8-1.4l0,0
		l1.5-3.1l0,0l1.9-2.8l0,0l1.3,6.4l0,0l4.1-2l0,0l1.5-9l0,0l2.8-9.9l0,0l2.8-4.3l0,0l1.5-2.9l0,0l2.9-5.9l0,0l1.4-20.2l0,0l2-7.2
		l0,0l0.9,4.3l0,0l2.9,15.9l0,0l1.5,4.5l0,0l3.5,5.3l0,0l3.3-4.9l0,0h1.5l0,0l3.1-6.2l0,0l1.4-7.2l0,0l2.9-7.2l0,0l1.4-5.5l0,0
		l1.8-0.9l0,0l1.2,3.7l0,0l2.9,2.9l0,0l2.8,7l0,0l1.8,5.4l0,0l3.2-3.2l0,0l3.7,2.4l0,0l1.6,6.3l0,0l2.7-1.4l0,0l1.4,16.4l0,0l3.3,5
		l0,0l2.8-1.4l0,0l1.2,2.3l0,0l3,3l0,0l5.3,7.3l0,0l1.4-11.5l0,0l1.8,2.6l0,0l1.5,4.5l0,0l3.1,1.6l0,0l2.8,1.4l0,0l4.1,4.1l0,0
		l1.4,5.7l0,0l2.9,4.3l0,0l1.5,4.5l0,0l3,1.5l0,0l4.1,8.5l0,0l2.9,2.9l0,0l1.7,3.4l0,0l3.1-1.5l0,0l4.2,1.3l0,0l1.7,1.7l0,0l3.4-3.4
		l0,0l3.8-1.2l0,0l3.9,1.3l0,0l3,3l0,0h1.4l0,0l2.6,2.6l0,0l1.5,3l0,0l3.6,1.8l0,0l1.7-1.7l0,0l2.8-1.4l0,0l-1.9,2.6l0,0l-2.3,2.3
		l0,0l-4.9-2.5l0,0l-1.6-3.2l0,0l-2-2l0,0h-1.4l0,0l-3.3-3.3l0,0l-2.1-1.1l0,0h-2.9l0,0l-5.2,5.2l0,0l-2.3-2.3l0,0h-2.9l0,0
		l-4.4,0.7l0,0l-2.3-4.5l0,0l-2.9-2.9l0,0l-2.9-7.2l0,0l-4.2-2.6l0,0l-1.6-4.9l0,0l-2.9-4.4l0,0l-1.4-5.5l0,0l-2.5-2.5l0,0l-3.8-2.5
		l0,0l-3.7-1.8l0,0l-1.6-4.9l0,0l-0.9,12.3l0,0l-6-9l0,0l-4.4-4.4l0,0l-3.3,0.1l0,0l-4.2-6.4l0,0l-1.2-14.7l0,0l-2.4,1.2l0,0
		L992,235l0,0l-2.3-1.2l0,0l-4,3.7l0,0l-2.5-7.6l0,0l-2.7-6.7l0,0l-2.9-2.9l0,0l-0.8-2.4l0,0l-1,4.8l0,0l-2.9,7.2l0,0l-1.5,7.3l0,0
		l-3.6,7.2l0,0h-1.6l0,0l-4,6.1l0,0l-4.8-7.3l0,0l-1.6-4.7l0,0l-2.9-16l0,0l0.3,1.6l0,0l-1.8,21.7l0,0l-3.1,6.1l0,0l-1.5,3l0,0
		l-2.8,4.2l0,0l-2.8,9.6l0,0l-1.6,9.6l0,0l-6.4,3.2l0,0l-1-4.9l0,0l-1.6,3.3l0,0l-2.6,1.3l0,0l-1.3,5l0,0l-3,6l0,0l-2.9,5.8l0,0
		l-1.4,2.7l0,0l-3.3,11.5l0,0h-2.6l0,0l-1.6,0.8l0,0l-1.2,3.7l0,0l-2.8,4.3l0,0l-1.4,5.8l0,0l-3,4.5l0,0l-1.5,3.1l0,0l-3.1,3.1l0,0
		l-2.6,2.6l0,0l-1.2,2.4l0,0l-2.8,9.9l0,0l-1.5,4.5l0,0l-3.1,6.2l0,0l-4,4l0,0l-4.2-10.4l0,0l-0.5,2.4l0,0l-3.4,1.7l0,0l-1.8,1.8
		l0,0h-2.4l0,0l-1,2l0,0l-3.1,3.1l0,0l-1.7,1.7l0,0l-4.6,2.3l0,0l-1.4-1.4l0,0l-1.9,1l0,0H855l0,0h-2l0,0l-4.3-2.2l0,0l-0.5-3.2l0,0
		l-2.9,5.8l0,0l-0.8-5l0,0l-0.8,3.1l0,0h-2.6l0,0l-2.4,1.2l0,0l-1.9,1l0,0l-2.5,12.3l0,0l-2.6-5.2l0,0l-2.2,15.7l0,0l-4.6-22.8l0,0
		l-3.5-2.2l0,0h-3.8l0,0h-3.8l0,0h-2.9l0,0h-1.4l0,0l-3.8,1.9l0,0l-1.9-1.9l0,0l-2.1,2.9l0,0H798l0,0l-2.9,1.4l0,0h-1.4l0,0
		l-2.1,1.1l0,0l-1.8,1.8l0,0H786l0,0l-4.7,1.9l0,0l-1.4-1.4l0,0l-3.2,1.6l0,0l-3.3-4.9l0,0H770l0,0l-2.4,0.7l0,0l-1.3,7.9l0,0
		l-3,6.1l0,0l-1.8,3.5l0,0l-2.5,1.3l0,0l-1.4,8.6l0,0l-4.3,2.2l0,0H749l0,0l-2.2-2.2l0,0l-6,1.3l0,0l-1.9-1.9l0,0h-3.5l0,0l-1.8-5.3
		l0,0l-2.7-2.7l0,0l-2.4-3.5l0,0h-2.3l0,0l-4.7,2.9l0,0H720l0,0l-1.6,0.8l0,0l-1.6,5l0,0h-3.9l0,0l-2.1,1.1l0,0l-1.8,1.8l0,0h-3.8
		l0,0h-1.4l0,0h-2.9l0,0l-3,1.1l0,0l-1.8,1.8l0,0h-3.3l0,0l-2.9,1.4l0,0L686,409l0,0h-2.3l0,0h-2l0,0l-1.4,1.4l0,0h-3.8l0,0
		l-3.4,2.9l0,0h-3.8l0,0h-1.4l0,0h-3.8l0,0H661l0,0h-3.3l0,0l-2.1-4.3l0,0l-4.2-2.5l0,0l-2.2,6.7l0,0h-4.6l0,0l-2.5,6.3l0,0
		l-1.8,1.8l0,0l-4.4,4.4l0,0l-2.3-2.3l0,0l-3,1.9l0,0l-4.3-2.1l0,0l-3.5-1.8l0,0L622,419l0,0l-3.4,3l0,0l-4.4-4.4l0,0l-2.8-0.8l0,0
		h-2l0,0l-2.9-1.4l0,0h-2.4l0,0h-2l0,0l-2.9-1.4l0,0h-3.8l0,0h-2.3l0,0l-3.5-3.5l0,0l-1.4-1.4l0,0l-3.1,2.1l0,0h-2.6l0,0h-3.8l0,0
		H576l0,0h-2l0,0h-4.6l0,0l-1.6-6.4l0,0l-1.5-0.8l0,0H563l0,0l-1.4-1.4l0,0h-2l0,0h-2.3l0,0l-2.9-2.9l0,0H551l0,0h-2.3l0,0l-2.9-2.9
		l0,0h-2.9l0,0H540l0,0h-2l0,0h-2.9l0,0l-4.7,1.9l0,0l-1.9-1.9l0,0H526l0,0l-4-2l0,0l-1.2-2.3l0,0h-2.4l0,0l-1.4-1.4l0,0h-2l0,0h-2
		l0,0l-3.7-1.8l0,0l-1.6,6.1l0,0h-4.3l0,0l-3.8,1.4l0,0h-1.4l0,0l-3.8,1.9l0,0l-2.9-2.9l0,0l-3-7.5l0,0l-0.8-1.6l0,0h-2.9l0,0
		l-1.1-2.1l0,0l-1.9,1l0,0l-3.4-1.7l0,0h-3.8l0,0h-2l0,0l-2.9-1.4l0,0h-1.4l0,0l-4-2l0,0l-1.4-2.9l0,0l-1.8-0.9l0,0h-3.3l0,0
		l-1.8-1.8l0,0l-2.1,0.4l0,0h-3.8l0,0h-1.4l0,0h-2l0,0l-1.4,1.4l0,0h-3.8l0,0h-4.2l0,0l-1.4-2.9l0,0l-3,2.3l0,0l-3.8-3.8l0,0
		l-2.5,2.9l0,0h-3.2l0,0l-3.3-3.3l0,0l-2.6,0.9l0,0l-2.3-1.2l0,0l-1.4,2.9l0,0l-4.4-2.2l0,0H408l0,0l-1.9-1l0,0L404,373l0,0
		l-2.5-2.5l0,0l-4.1,6.2l0,0l-2.2-8.9l0,0H393l0,0l-2.5,1.4l0,0h-2.3l0,0h-2l0,0l-1.4,1.4l0,0h-4.3l0,0l-1.9-1l0,0l-1.4,1.4l0,0
		l-4.6-2.3l0,0l-2.5,0.4l0,0h-1.4l0,0l-2.9,1.4l0,0h-1.4l0,0l-3.4,1.7l0,0l-3.4-1.7l0,0h-2.9l0,0l-1.4,1.4l0,0h-4.7l0,0h-2.9l0,0
		l-3.3,2.2l0,0l-3,3l0,0l-3.8-3.8l0,0h-2l0,0h-2l0,0l-1.9-1l0,0l-1.9,1.9l0,0l-3.8-3.8l0,0l-3-1l0,0l-4.7,1l0,0h-2l0,0l-4.3,4.3l0,0
		h-2.3l0,0h-2.9l0,0h-1.4l0,0h-2l0,0l-1.4,1.4l0,0h-4.3l0,0l-4-2l0,0l-1.2-2.3l0,0H289l0,0h-1.4l0,0h-2.9l0,0h-1.4l0,0h-3.8l0,0
		l-1.9,0.8l0,0l-2.6,2.6l0,0l-2.3,4.5l0,0l-5.5-2.7l0,0l-1.2-2.3l0,0l-2.1,1.4l0,0h-2.4l0,0l-2.2,4.4l0,0l-3.9-3.9l0,0l-2.3,3.3l0,0
		l-3.2,1.6l0,0l-3.9,5.4l0,0l-1.6,1.6l0,0l-2.6,2.6l0,0l-1.9,3.8l0,0h-4.2l0,0h-2l0,0l-3.7,3.7l0,0l-1.4,1.4l0,0l-3.5,3.5l0,0h-1.4
		l0,0l-2,2l0,0l-1.3,2.7l0,0l-3.3,4.9l0,0l-3.1,1.5l0,0l-1.4,1.4l0,0l-3.7,1.8l0,0h-1.4l0,0l-2.9,1.4l0,0h-1.4l0,0l-2.9,1.4l0,0
		l-3.1,2l0,0l-1.4,2.9l0,0l-3.8,3.8l0,0h-2.9l0,0l-3.6,2.3l0,0l-1.7,3.4l0,0h-5.1l0,0h-2.9l0,0H174l0,0l-2.9,1.4l0,0h-2.5l0,0
		l-1.4,1.4l0,0h-2.9l0,0l-1.4,1.4l0,0H160l0,0l-1.4,1.4l0,0h-3.8l0,0L151,442l0,0h-2.5l0,0l-1.4,1.4l0,0h-3.8l0,0l-3.8,1.4l0,0h-2
		l0,0h-2l0,0L134,447l0,0h-3.8l0,0h-2.9l0,0h-1.4l0,0H123l0,0h-1.4l0,0h-2.9l0,0h-1.4l0,0h-2.9l0,0l-3.8,1.4l0,0h-3.4l0,0h-1.4l0,0
		h-2.9l0,0h-1.4l0,0h-2.9l0,0h-1.4l0,0h-2.9l0,0h-1.4l0,0H90l0,0h-3l0,0h-1.4l0,0h-2.9l0,0h-1.4l0,0h-2.9l0,0H77l0,0h-3l0,0V447z"/>
</g>
<g>
	<title>Path 612</title>
	<path class="st4" d="M85.5,447L85.5,447H87l0,0h2.9l0,0h2.9l0,0h1.4l0,0h2.9l0,0h1.4l0,0h2.9l0,0h1.4l0,0h2.9l0,0h1.4l0,0h2.9l0,0
		h3.2l0,0l1.4-1.4l0,0h2.6l0,0h1.4l0,0h2.9l0,0h1.4l0,0h2.9l0,0h1.4l0,0h2.9l0,0h2.9l0,0h1.4l0,0h3.2l0,0l1.4-1.4l0,0h2.9l0,0
		l1.4-1.4l0,0h2.6l0,0h1.4l0,0h3.1l0,0l2.9-1.4l0,0h4.2l0,0h1.4l0,0h2.9l0,0h1.4l0,0h2.9l0,0h1.6l0,0l2.9-1.4l0,0h2.7l0,0h1.4l0,0
		h2.9l0,0h1.6l0,0l2.9-1.4l0,0l4,1.4l0,0h1.6l0,0h2.9l0,0h2.9l0,0h1.4l0,0h2.9l0,0h1.4l0,0h3.2l0,0l1.4-1.4l0,0h2.6l0,0h1.4l0,0h2.9
		l0,0l4.2,1.4l0,0h3.1l0,0h1.4l0,0h2.9l0,0h1.4l0,0h3.2l0,0l1.4-1.4l0,0h3.1l0,0l1.5-4.5l0,0l2.7-1.4l0,0l3-3l0,0l1.4-1.4l0,0l3-3
		l0,0l1.4-2.9l0,0l2.8-2.8l0,0l4.2-2.8l0,0l1.5-1.5l0,0l2.8-2.8l0,0l2.6-1.3l0,0h4.5l0,0l1.6-1.6l0,0l2.9-1.4l0,0l1.4-1.4l0,0l3-1.5
		l0,0l1.5-4.6l0,0l2.8-5.7l0,0l2.9-4.4l0,0l1.4-4.3l0,0l2.9-4.4l0,0l1.4-69.1l0,0l1.7-1.7l0,0l1.8,9.2l0,0l3.6-16.3l0,0l1.4-10.1
		l0,0l2.9-15.8l0,0l2.9-15.8l0,0v50.5l0,0l3.5,5.2l0,0l2.1-2.1l0,0l3-4.5l0,0l1.4-5.8l0,0l2-3l0,0l1,3l0,0l3,4.6l0,0l2.8,1.4l0,0
		l1.5,3.1l0,0h2.7l0,0l1.3,6.7l0,0l3.8,13.4l0,0l1.7-12l0,0l2.7,2.7l0,0l1.8-5.5l0,0l2.1-9.3l0,0l2.4,15.6l0,0h1.7l0,0l2.6,3.9l0,0
		l1.4,15.8l0,0l3.4,6.8l0,0l4.8,9.1l0,0l1.5-10.4l0,0l1.9,4.7l0,0l1.5,4.4l0,0l3,4.5l0,0l2.8,2.9l0,0l1.5,3l0,0l3,1.5l0,0l1.4,1.4
		l0,0l4,2l0,0l1.4-114.3l0,0h1.6l0,0l2,7.8l0,0l3.5-12.2l0,0h1.7l0,0l1.5,9l0,0l2.7-1.4l0,0l1.4,114.8l0,0h4.1l0,0l1.1-3.2l0,0
		l2.3,4.6l0,0h1.9l0,0h2.7l0,0l2.9,1.4l0,0l3.9,4.1l0,0l2,2l0,0l2.9-2.9l0,0l4.3,1.1l0,0l4,1.4l0,0l2.8,1.4l0,0l4.4,5.9l0,0h1.5l0,0
		l2.9,2.9l0,0h1.4l0,0l2.9,2.9l0,0h1.6l0,0l2.9,1.4l0,0h3.1l0,0h1.4l0,0h2.9l0,0h1.6l0,0l3.1-1.6l0,0l3.9-1.3l0,0h1.6l0,0l2.9-1.4
		l0,0h2.4l0,0l1.6,1.6l0,0l2.7-1.4l0,0l1.3,2.6l0,0h3l0,0l4.2,2.8l0,0l1.6,1.6l0,0h3.4l0,0l3.1-1.6l0,0l3.9,1.9l0,0l1.7-1.7l0,0h2.6
		l0,0h1.4l0,0h2.9l0,0l4.5,1.6l0,0l1.6-1.6l0,0h2.6l0,0h2.9l0,0h1.4l0,0h2.6l0,0l1.6,1.6l0,0l2.7-1.4l0,0l1.1,2.2l0,0l2.9,5.9l0,0
		l1.9,1.9l0,0l3.5-1.8l0,0l2.8-4.2l0,0l4.4-1.6l0,0l1.6-1.6l0,0l2.7-5.5l0,0h3.3l0,0l1.4,5.5l0,0l3.2,1.6l0,0l3.3,1.7l0,0l1.6-1.6
		l0,0h2.9l0,0l1.4-1.4l0,0h2.6l0,0h1.4l0,0h2.9l0,0l4.2,1.4l0,0h2.8l0,0l1.4,1.4l0,0h2.6l0,0l1.7,8.7l0,0l3.6-7.2l0,0h3.6l0,0
		l1.4,1.4l0,0h3.2l0,0h3.5l0,0l1.1-5.7l0,0l2,4l0,0l1.9,1.9l0,0l3.5-1.7l0,0l3.6-1.3l0,0l1.6,1.6l0,0l3-1.5l0,0l2.7,1.4l0,0h1.4l0,0
		l2.9,1.4l0,0h1.4l0,0l3.4,1.7l0,0l1.3-2.6l0,0l2.4,2.4l0,0h1.7l0,0h3.1l0,0l2.6-1.3l0,0l4.5,1.3l0,0h1.6l0,0l2.6-1.3l0,0l4.3,2.7
		l0,0h1.6l0,0h2.9l0,0l4,1.4l0,0l3.3,1.7l0,0l1.4-1.4l0,0l2.6,1.3l0,0h1.4l0,0l3.2,1.6l0,0l1.4-1.4l0,0l3.2,1.6l0,0l1.5-4.6l0,0h2.5
		l0,0l2.9-1.4l0,0h1.4l0,0l2.9-1.4l0,0h3.9l0,0l4.2,2.8l0,0l1.7,1.7l0,0l2.9-1.4l0,0l2.7,2.7l0,0h1.7l0,0h2.9l0,0l4.5,3.4l0,0
		l1.7-3.4l0,0h2.7l0,0l1.4-1.4l0,0h2.6l0,0h2.4l0,0l1.7,5.2l0,0l3.2-4.8l0,0l4.4-0.4l0,0h4.2l0,0h1.8l0,0l3-4.5l0,0l2.2-1.1l0,0
		l3.9,2.5l0,0l1.7,5.1l0,0l3.5-3.5l0,0l3.7,2.9l0,0h1.7l0,0h2.5l0,0l3.4,5l0,0l1.5-3.1l0,0l3.2,3.2l0,0l1.6-11.1l0,0l2.4-1.2l0,0
		h1.4l0,0l3.4-1.7l0,0l1.4-8.4l0,0h2l0,0l1.4,1.4l0,0h3.3l0,0l2.9-1.4l0,0l4,1.4l0,0h1.6l0,0h2.9l0,0h1.7l0,0l3.1-3.1l0,0l4.2-1.2
		l0,0l2.6-3.9l0,0l4.2,1l0,0h1.7l0,0l2.9-2.9l0,0l4.6-1.6l0,0l1.4-4.3l0,0l2.5-1.2l0,0h2.7l0,0h1.7l0,0l2.9-2.9l0,0h3.5l0,0l1.4,4.3
		l0,0h3.4l0,0h1.6l0,0l2.9-1.4l0,0h2.7l0,0h1.6l0,0l3.2-1.6l0,0l1.3-2.7l0,0h2.1l0,0l1.4,1.4l0,0h2.7l0,0l1.7,3.4l0,0l3.1-3.1l0,0
		l2.3,2.3l0,0l1.6,4.7l0,0h3.7l0,0l1.4-1.4l0,0h2.6l0,0h1.4l0,0h2.6l0,0l1.9,1.9l0,0l3.3-4.9l0,0l3-1.5l0,0l1.4-7l0,0h1.6l0,0
		l1.6,14.3l0,0l3.9-5.9l0,0l3.2,0.1l0,0l1.5,3.1l0,0h3.2l0,0l2.9,1.4l0,0h1.9l0,0l2.9-2.9l0,0h1.6l0,0l3.1-6.2l0,0l1.3-2.7l0,0
		l2.5-1.3l0,0h4.6l0,0l1.4-2.9l0,0h2.1l0,0l2.9,2.9l0,0h1.4l0,0l3.2,3.2l0,0l1.6-1.6l0,0l2.1,1.1l0,0l1.4,5.6l0,0l2.9,4.4l0,0
		l1.6,3.2l0,0h4l0,0l2.9-29.2l0,0l4.2-1l0,0l1.5-9.1l0,0l1.8-2.7l0,0l1.8,10.7l0,0l3.7-18.3l0,0l0.1,34.7l0,0l4.1-4.1l0,0l2.4-3.7
		l0,0l1.4,1.4l0,0l3.5-5.2l0,0l1-8.2l0,0l2.9,10.1l0,0l1.8-14l0,0l1.7,0.9l0,0l1.8,5.4l0,0l3.7-5.5l0,0l2.9-2.9l0,0l1.2-2.3l0,0l2,1
		l0,0l1.6,4.8l0,0l3.5-1.7l0,0l3.5,3.9l0,0l1.5,5.8l0,0l3.1,3.1l0,0l3.6,1.8l0,0l1.6-3.1l0,0h2.7l0,0l1.4-1.4l0,0h2.6l0,0h1.4l0,0
		h2.6l0,0l4.3,4.3l0,0h2.7l0,0l1.3,2.7l0,0l3.6,1.8l0,0l1.4-1.4l0,0l2.9,1.4l0,0l1.6-1.6l0,0h2.6l0,0h1.4l0,0h2.6l0,0l3.2,3.2l0,0
		l1.6-1.6l0,0l2.3,1.2l0,0l1.6,1.6l0,0h2.9l0,0l1.6,1.6l0,0l3.6-1.8l0,0l1.3-3.8l0,0l2.6,1.3l0,0l1.9-1.9l0,0l2.1-3.2l0,0l2.6,7.7
		l0,0h2.1l0,0l3.1-1.6l0,0l4.3-1.3l0,0l1.3-2.6l0,0l2.2,1.1l0,0l-1.6,0.8l0,0l-1.1,2.1l0,0h-3.3l0,0l-4.7,2.9l0,0h-3.5l0,0l-2-5.9
		l0,0l-3.2,3.5l0,0l-2-1l0,0l-0.9,2.8l0,0l-5.1,2.5l0,0l-1.9-1.9l0,0h-2.9l0,0l-1.8-1.8l0,0l-3,1.3l0,0l-3.8-3.8l0,0h-2l0,0h-1.4
		l0,0h-2l0,0l-1.9,1.9l0,0l-2.9-1.4l0,0l-1.4,1.4l0,0l-4.9-2.5l0,0l-1.2-2.3l0,0h-2.4l0,0l-3.5-3.5l0,0l-2.8-0.8l0,0h-1.4l0,0h-2
		l0,0l-1.4,1.4l0,0h-2.4l0,0l-1.8,3.6l0,0l-5.1-2.6l0,0l-3.6-3.6l0,0l-1.5-6l0,0l-2-3l0,0l-4.4,2.3l0,0l-1.9-5.8l0,0l-3.8,4.2l0,0
		l-5.2,7.8l0,0l-2.6-7.7l0,0l-1.7,19.3l0,0l-2.9-10.1l0,0l-0.2,1.5l0,0l-4.6,6.9l0,0l-1.4-1.4l0,0l-1.5,2.3l0,0l-6.5,6.5l0,0
		l-1.7-38l0,0l4.3,0.3l0,0l-5.2,26l0,0l-2.5-14.9l0,0l-1.3,9.4l0,0h-3.8l0,0l-3.3,30.3l0,0h-6.2l0,0l-2-4l0,0l-3-4.5l0,0l-1.3-5.2
		l0,0l-2.5,1.6l0,0l-3.8-3.8l0,0h-1.4l0,0l-2.9-2.9l0,0l-2.1,2.9l0,0h-4.2l0,0l-2.7,0.9l0,0l-1.1,2.2l0,0l-3.5,7l0,0H905l0,0
		l-2.9,2.9l0,0h-2.8l0,0l-2.9-1.4l0,0H894l0,0l-1.7-3.4l0,0l-7.1,8.8l0,0l-1.9-16.9l0,0l-0.5,6.5l0,0l-3.3,1.7l0,0l-4,6l0,0
		l-2.7-2.7l0,0h-2l0,0h-1.4l0,0h-2l0,0l-1.4,1.4l0,0h-5.3l0,0l-1.8-5.3l0,0l-4.5,2.5l0,0l-2.2-4.4l0,0h-2.4l0,0l-1.4-1.4l0,0
		l-1.8,2.3l0,0l-4,2l0,0h-2l0,0h-2.4l0,0l-2.9,1.4l0,0h-2l0,0h-4.4l0,0l-1.4-4.3l0,0h-1.9l0,0l-2.9,2.9l0,0h-2.3l0,0H818l0,0
		l-1.6,0.8l0,0l-1.4,4.3l0,0l-4.1,2.1l0,0l-3.9,2.9l0,0h-2.3l0,0h-3.8l0,0l-2.3,2.9l0,0h-3.1l0,0l-4.3,4.3l0,0h-2.3l0,0H786l0,0h-2
		l0,0l-2.9-1.4l0,0l-3.3,1.4l0,0h-4.3l0,0l-1.4-1.4l0,0l-1.5,7.9l0,0l-4.3,2.2l0,0h-1.4l0,0l-3.3,14l0,0l-3.8-3.8l0,0l-1.8,3.5l0,0
		l-4.3-6.5l0,0H750l0,0h-2.3l0,0l-2.9-2.9l0,0l-4.4,4.7l0,0l-2.3-6.8l0,0l-2.4-1.2l0,0L734,412l0,0l-3.2,4.8l0,0h-2.6l0,0h-2.9l0,0
		l-4.7,1.9l0,0l-4.5,5.1l0,0l-2.3-7l0,0h-3.3l0,0l-1.4,1.4l0,0h-2.4l0,0l-2.2,4.4l0,0l-4.4-4.4l0,0h-3.4l0,0h-2.3l0,0l-2.4-2.4l0,0
		l-2.9,1.4l0,0l-2.3-2.3l0,0l-2.9-1.4l0,0l-3-1.1l0,0l-3.8,1.4l0,0h-1.4l0,0l-2.9,1.4l0,0H671l0,0l-1.7,5.2l0,0l-3.7-1.9l0,0
		l-1.4,1.4l0,0l-3.8-1.9l0,0H659l0,0l-1.9-1l0,0l-1.4,1.4l0,0l-4.3-2.1l0,0l-2.4-1.2l0,0h-3.8l0,0h-2l0,0l-3.7-1.8l0,0l-2.5,0.4l0,0
		h-2l0,0h-3.8l0,0h-2.9l0,0h-3.4l0,0h-2.3l0,0l-2.5,0.7l0,0l-4.4-2.2l0,0h-1.4l0,0L611,411l0,0h-1.4l0,0l-2.4-1.2l0,0l-3.3,1.7l0,0
		l-1.9-1.9l0,0l-2.1,1.1l0,0l-4.6,2.3l0,0l-2.8-2.8l0,0l-0.8,2.3l0,0H587l0,0h-3.8l0,0l-1.4-1.4l0,0h-2l0,0l-5.2,10.2l0,0l-2.3-11.6
		l0,0h-2l0,0l-1.4-1.4l0,0h-2.5l0,0l-2.9-1.4l0,0h-3.8l0,0h-1.4l0,0h-2l0,0l-1.4,1.4l0,0H552l0,0l-1.9,1.9l0,0l-4.3-2.1l0,0
		l-3.8-1.9l0,0l-1.3-5.1l0,0L537,406l0,0l-1.9,1.9l0,0l-3.7,1.8l0,0l-3.4,3.8l0,0l-4.8,2.4l0,0l-2.8-2.8l0,0l-3-6.1l0,0l-2.8,0.2
		l0,0l-1.9-1.9l0,0h-2l0,0h-1.4l0,0h-2.9l0,0h-2l0,0l-1.9,1.9l0,0l-3.8-1.9l0,0h-3.8l0,0h-1.4l0,0h-2l0,0l-2.3,2.3l0,0l-2.9-2.9l0,0
		l-3.8,2l0,0H478l0,0l-1.8-1.8l0,0l-2.9-1.4l0,0l-4.4-1.1l0,0l-1.1-2.1l0,0l-2.3,1.2l0,0l-1.9-1.9l0,0h-1.5l0,0l-2.9,1.4l0,0h-2l0,0
		h-2l0,0l-4.7,2.9l0,0h-2l0,0h-2.9l0,0h-1.4l0,0h-3.4l0,0l-2.9-1.4l0,0h-1.8l0,0l-2.9-2.9l0,0h-1.4l0,0l-2.9-2.9l0,0h-1.7l0,0
		l-3.4-5.1l0,0l-3.6-2.3l0,0l-2.4-1.2l0,0h-4.7l0,0l-3.4,2.3l0,0l-3.1-3.1l0,0l-2.4-3.5l0,0l-3.7-1.4l0,0h-2.4l0,0h-2.8l0,0
		l-1.1-2.3l0,0l-6.9,0.9l0,0l-1.4-114l0,0l-2.4,1.2l0,0l-1.6-9.7l0,0l-4.1,16.3l0,0l-3-12l0,0l-0.5,115.1l0,0l-6.3-3.1l0,0l-1.4-1.4
		l0,0l-3.2-1.6l0,0l-1.6-3.2l0,0l-2.8-2.8l0,0l-3.2-4.7l0,0l-1.5-4.5l0,0l-1.4,11.5l0,0l-4.7-14l0,0l-5.5-7.7l0,0l-1.4-15.7l0,0
		l-1.9-2.9l0,0h-2.1l0,0l-1.4-9.2l0,0l-0.4,1.8l0,0l-2.6,7.7l0,0l-2.3-2.3l0,0l-2.3,15.8l0,0l-5.7-19.9l0,0l-1.1-5.6l0,0h-2.4l0,0
		l-1.7-3.4l0,0l-2.8-1.4l0,0l-3.4-5l0,0l-1.8,5.7l0,0l-3.2,4.8l0,0l-3.5,3.5l0,0l-4.7-7l0,0l-1.5-51.1l0,0l4.3,0.3l0,0l-2.9,15.9
		l0,0l-2.9,15.8l0,0l-1.4,10.1l0,0l-5.1,23l0,0l-2.7-13.3l0,0l-0.8,68.3l0,0l-3.1,4.6l0,0l-1.4,4.3l0,0l-3,4.5l0,0l-2.8,5.5l0,0
		l-1.7,5l0,0l-3.4,1.7l0,0l-1.4,1.4l0,0l-2.9,1.4l0,0l-1.8,1.8l0,0h-3.8l0,0l-3,1.1l0,0l-2.6,2.6l0,0l-1.7,1.7l0,0l-2.9,1.4l0,0
		l-3.8,3.8l0,0l-1.4,2.9l0,0l-3.1,3.1l0,0l-1.4,1.4l0,0l-3.1,3.1l0,0l-2.4,1.2l0,0l-1.6,5l0,0h-3.5l0,0l-1.4,1.4l0,0H224l0,0h-1.4
		l0,0h-2.9l0,0h-1.4l0,0h-3.4l0,0l-2.9-1.4l0,0h-4l0,0h-1.4l0,0h-2l0,0l-1.4,1.4l0,0h-3.8l0,0H198l0,0h-2.9l0,0h-1.4l0,0h-2.9l0,0
		h-2.9l0,0h-2l0,0l-2.9-1.4l0,0l-3.3,1.4l0,0h-2l0,0h-2.9l0,0h-1.4l0,0H171l0,0l-2.9,1.4l0,0h-2l0,0h-2.9l0,0h-1.4l0,0H159l0,0h-1.4
		l0,0h-2.9l0,0l-3.8,1.4l0,0h-3.4l0,0h-1.4l0,0h-2l0,0l-1.4,1.4l0,0h-2.9l0,0l-1.4,1.4l0,0h-3.8l0,0h-1.4l0,0h-2.9l0,0h-2.9l0,0H126
		l0,0h-3l0,0h-1.4l0,0h-2.9l0,0h-1.4l0,0h-2l0,0l-1.4,1.4l0,0H110l0,0h-2.9l0,0h-1.4l0,0h-2.9l0,0h-1.4l0,0h-2.9l0,0h-1.4l0,0h-2.9
		l0,0h-1.4l0,0h-2.9l0,0H87l0,0h-1.4l0,0L85.5,447L85.5,447z"/>
</g>
<g>
	<title>Path 613</title>
	<path class="st5" d="M92.8,447L92.8,447h1.4l0,0h2.9l0,0h1.4l0,0h2.9l0,0h1.4l0,0h2.9l0,0h1.4l0,0h2.9l0,0h2.9l0,0h1.4l0,0h2.9l0,0
		h1.6l0,0l2.9-1.4l0,0h4.2l0,0h1.4l0,0h2.9l0,0h2.9l0,0h1.4l0,0h2.9l0,0h1.4l0,0h2.9l0,0h1.4l0,0h2.9l0,0h1.6l0,0l2.9-1.4l0,0h2.7
		l0,0h1.4l0,0h3.2l0,0l4.2,0.2l0,0l1.6-1.6l0,0h2.6l0,0h1.4l0,0h2.7l0,0l3.2,1.6l0,0l1.6-1.6l0,0h2.3l0,0l1.6,1.6l0,0l3.2-1.6l0,0
		h3.9l0,0l1.4,1.4l0,0h3.2l0,0h3.2l0,0l1.4-1.4l0,0h2.6l0,0h1.4l0,0h2.9l0,0h1.4l0,0h3.2l0,0l1.4-1.4l0,0h2.6l0,0h1.4l0,0h2.9l0,0
		h2.9l0,0h1.4l0,0h2.9l0,0h1.4l0,0h2.9l0,0h1.4l0,0h2.9l0,0h1.4l0,0h2.9l0,0h2.9l0,0h1.4l0,0h2.9l0,0h1.4l0,0h3.2l0,0l1.4-1.4l0,0
		h2.6l0,0h1.4l0,0h2.9l0,0h3.2l0,0l1.4-1.4l0,0h2.6l0,0h1.4l0,0h3.2l0,0l1.4-1.4l0,0h2.9l0,0l1.4-1.4l0,0h2.8l0,0l2.9-1.4l0,0h1.4
		l0,0l2.9-1.4l0,0h1.4l0,0l3.1-1.6l0,0l3.6-1.3l0,0l1.7,1.7l0,0l3-3l0,0l2.9,1.4l0,0l1.6-1.6l0,0h2.9l0,0l1.4-1.4l0,0h3l0,0l1.4-2.9
		l0,0h2.7l0,0l1.6-1.6l0,0l2.6-1.3l0,0h3l0,0l1.6-1.6l0,0l3-1.5l0,0l1.5-3l0,0l2.8-2.8l0,0l1.4-1.4l0,0l3-3l0,0l1.3-2.6l0,0h2.7l0,0
		l2.9-2.9l0,0l4.2,1.6l0,0l1.4-1.4l0,0l2.9,1.4l0,0l1.7-1.7l0,0l2.9-1.4l0,0l4.4-1.3l0,0l1.5-4.5l0,0l2.7-1.4l0,0l2.8-2.8l0,0h4.3
		l0,0l1.6-1.6l0,0l2.9-1.4l0,0l1.4-1.4l0,0l2.9-1.4l0,0l1.5-1.5l0,0l2.9-2.9l0,0l2.7-2.7l0,0h1.6l0,0l2.9-5.8l0,0l4.5-3.2l0,0
		l1.4-2.8l0,0l2.9-1.4l0,0l1.6-3.1l0,0l2.8-8.4l0,0l2.5-1.2l0,0l4.3,3.4l0,0l1.9-3.7l0,0l2.8-4.2l0,0l3.2,2.9l0,0l1.9,1.9l0,0
		l3.5-1.7l0,0l2.5-2.5l0,0l4.3,4.3l0,0l2-1.9l0,0l2.4-2.4l0,0l1.4,1.4l0,0l3.2-3.2l0,0h3.9l0,0l2.5,1.3l0,0l1.4,2.9l0,0l2.8,1.4l0,0
		l1.6,4.8l0,0l3.9-1.9l0,0l1.5-4.4l0,0l2.5-2.6l0,0l3.9-1.3l0,0l3.3,3.3l0,0l1.3-4l0,0l2,3l0,0l1.5,4.5l0,0l3.3,1.7l0,0h2l0,0
		l2.9-4.3l0,0h3.8l0,0l2.6,1.3l0,0l1.4,1.4l0,0l2.7,1.4l0,0l1.3,4l0,0l2.9,8.7l0,0l1.5,3l0,0l3.2,3.2l0,0h1.4l0,0l2.6,2.6l0,0
		l1.6,3.2l0,0h3.2l0,0l2.5,1.3l0,0l1.4,2.9l0,0l2.9,1.4l0,0l1.5,3.1l0,0h3l0,0l1.4,1.4l0,0h3.2l0,0l4.2,1.4l0,0h3.1l0,0h1.4l0,0h3.2
		l0,0h3.9l0,0h1.6l0,0h3.2l0,0l1.4-1.4l0,0h2.4l0,0l2.6,1.3l0,0l1.4,1.4l0,0l3.1,1.6l0,0h1.6l0,0h2.4l0,0l1.3,2.7l0,0l3.2,1.6l0,0
		h1.8l0,0l3-1.5l0,0l2.4-1.2l0,0l4.5,1.3l0,0h1.4l0,0h3.2l0,0h3.9l0,0h1.6l0,0h3.1l0,0l3.1-1.6l0,0l3.9-1.3l0,0h1.4l0,0h3.3l0,0
		l1.5-3.1l0,0l2.5-1.3l0,0h4.3l0,0l2.9-1.4l0,0h1.4l0,0l2.6-1.3l0,0l4,2.6l0,0l1.7,1.7l0,0l3.2-1.6l0,0h4.2l0,0h3.2l0,0h3.9l0,0h1.6
		l0,0h2.6l0,0l4.8,3l0,0l1.6-1.6l0,0h2.3l0,0l1.6,1.6l0,0l3.3-1.7l0,0l2.4-1.2l0,0l1.4,1.4l0,0l2.9-1.4l0,0l4.8,1.3l0,0l1.4-1.4l0,0
		h2.3l0,0l1.6,1.6l0,0l3.2-1.6l0,0h2.7l0,0h1.4l0,0h2.6l0,0l1.4,1.4l0,0h3.5l0,0l3.6-0.1l0,0l1.6,1.6l0,0h3.2l0,0h2.9l0,0l4.2,1.4
		l0,0h1.6l0,0h3.2l0,0l1.6-1.6l0,0l2.1-1.1l0,0l1.3,2.6l0,0h3.6l0,0l3.2-3.2l0,0l1.4-2.8l0,0l2.9-1.4l0,0l1.4-2.7l0,0h2.9l0,0
		l1.6-3.2l0,0l2.8-4.2l0,0l4.1-4.1l0,0h2.6l0,0h1.6l0,0l2.9-1.4l0,0l4.5,1.7l0,0l1.6-3.1l0,0h2.7l0,0l3.7,1.4l0,0h3.5l0,0l1.7-1.7
		l0,0l3-3l0,0l1.4-2.9l0,0l2.9-2.9l0,0l1.5-4.4l0,0l2.9-5.8l0,0l1.4-4.3l0,0l2.8-4.2l0,0l4.1-2.7l0,0l3-1.5l0,0l1.4-1.4l0,0l2.9-1.4
		l0,0l1.5-1.5l0,0l3-3l0,0l1.4-2.8l0,0l2.5-1.3l0,0h4.3l0,0l2.9-1.4l0,0l4.3,1.6l0,0l1.4-1.4l0,0l2.6,1.3l0,0h1.4l0,0l2.5,1.3l0,0
		l1.4,2.7l0,0l2.9,4.4l0,0l2.8,2.8l0,0l1.4,4.2l0,0l2.9,5.8l0,0l1.5,4.4l0,0l3,4.5l0,0l1.9,1.9l0,0l2.6-1.3l0,0l1.2,3.7l0,0l3.2,3.2
		l0,0h2.7l0,0l1.3,2.6l0,0l2.8,2.8l0,0l1.4,5.7l0,0l2.9,4.4l0,0l1.5,3.1l0,0l2.9,1.4l0,0l1.4,2.9l0,0l3,1.5l0,0l2.8,2.8l0,0l1.5,1.5
		l0,0l2.9,1.4l0,0l1.4,1.4l0,0l2.8,1.4l0,0l1.4,2.8l0,0l3,3l0,0l1.5,1.5l0,0l3.1,1.6l0,0h2.8l0,0l4.2,2.8l0,0l1.4,1.4l0,0l2.9,1.4
		l0,0l1.6,1.6l0,0h3.2l0,0l4.2,1.4l0,0h2.8l0,0l1.4,1.4l0,0h2.9l0,0l4.5,2.9l0,0h1.6l0,0h2.9l0,0h1.7l0,0l3.1-3.1l0,0l4.2-2.8l0,0
		l3-3l0,0l4-2.7l0,0h4.2l0,0h1.4l0,0h2.6l0,0l1.6,1.6l0,0l3.3-1.7l0,0l2.7-1.4l0,0h1.6l0,0l3.1-3.1l0,0l1.4-1.4l0,0l2.9-2.9l0,0
		l4-2.7l0,0h1.6l0,0l3.1-3.1l0,0l3-3l0,0l1.4-2.9l0,0l2.9-2.9l0,0l1.5-4.5l0,0l2.9-7.2l0,0l1.4-5.6l0,0l2.9-2.9l0,0l1.5-4.4l0,0
		l2.9-4.3l0,0l2.9-5.8l0,0l1.4-4.1l0,0l2.9-1.5l0,0l1.5-6l0,0l2.9-5.8l0,0l1.4-5.6l0,0l2.8-2.8l0,0l1.4-2.8l0,0l2.8-1.4l0,0l3-4.5
		l0,0l1.4-2.7l0,0l2.5-1.3l0,0h1.6l0,0l3.2-3.2l0,0l1.4-2.9l0,0l2.9-2.9l0,0l1.4-2.8l0,0l2.5-1.3l0,0h3l0,0l3.4,2.5l0,0l1.5,4.4l0,0
		l3.2,3.2l0,0h1.9l0,0l2.9-1.4l0,0l4.5,1.7l0,0l3.2-6.5l0,0l1.4-4.1l0,0l2.7-1.4l0,0l1.4-1.4l0,0l2.6-1.3l0,0h1.6l0,0l2.6-2.6l0,0
		l4,1.1l0,0l1.4,1.4l0,0h3l0,0l2.6,1.3l0,0l1.6,1.6l0,0h3.5l0,0l1.6-1.6l0,0l2.9-1.4l0,0l1.4-1.4l0,0l2.8-1.4l0,0l-1.9,2.6l0,0
		l-1.4,1.4l0,0l-2.9,1.4l0,0l-1.8,1.8l0,0h-4.7l0,0l-1.8-1.8l0,0l-2.1-1.1l0,0h-3.3l0,0l-1.4-1.4l0,0h-2.9l0,0l-2.5,1.4l0,0h-1.8
		l0,0l-2.1,1.1l0,0l-1.4,1.4l0,0l-2.4,1.2l0,0l-1.2,3.6l0,0l-3.9,7.8l0,0l-4.4-2.2l0,0l-3.3,1.4l0,0h-2.8l0,0l-3.9-3.9l0,0l-1.5-4.5
		l0,0l-1.3-1.9l0,0l-3.5,0.2l0,0l-1.8,0.9l0,0l-1.3,2.6l0,0l-2.9,2.9l0,0l-1.4,2.9l0,0l-3.8,3.8l0,0h-1.8l0,0l-1.8,0.9l0,0l-1.2,2.4
		l0,0l-3.3,4.9l0,0l-2.8,1.4l0,0l-1.3,2.6l0,0l-2.7,2.7l0,0l-1.4,5.4l0,0l-2.9,5.8l0,0l-1.6,6.5l0,0l-3,1.5l0,0l-1.2,3.6l0,0l-3,6
		l0,0l-2.8,4.2l0,0l-1.5,4.5l0,0l-2.8,2.8l0,0l-1.3,5.3l0,0l-2.9,7.3l0,0l-1.6,4.7l0,0l-3,3l0,0l-1.4,2.9l0,0l-3.1,3.1l0,0l-3.5,3.5
		l0,0H959l0,0l-2.1,1.1l0,0l-4.1,4.1l0,0l-1.4,1.4l0,0l-3.5,3.5l0,0h-1.8l0,0l-2.4,1.2l0,0l-4.3,2.1l0,0l-1.9-1.9l0,0h-2l0,0h-1.4
		l0,0h-2.9l0,0l-3,1.1l0,0l-4.3,4.3l0,0l-2.9,1.4l0,0l-4.7,4.7l0,0H914l0,0h-2.9l0,0h-2l0,0l-3.7-1.8l0,0l-3.9-1.1l0,0l-1.4-1.4l0,0
		h-2.5l0,0l-2.9-1.4l0,0H890l0,0l-1.8-1.8l0,0l-2.9-1.4l0,0l-1.4-1.4l0,0l-2.9-1.4l0,0l-3.6-1.1l0,0l-3.7-1.8l0,0l-1.7-1.7l0,0
		l-3.1-3.1l0,0l-1.3-2.6l0,0l-2.6-1.3l0,0l-1.4-1.4l0,0l-2.9-1.4l0,0l-1.7-1.7l0,0l-2.6-2.6l0,0l-3.2-1.6l0,0l-1.4-2.9l0,0l-2.9-1.4
		l0,0l-1.7-3.4l0,0l-3-4.5l0,0l-1.4-5.5l0,0l-2.7-2.7l0,0l-1-2l0,0h-2.4l0,0l-3.9-3.9l0,0l-0.8-2.4l0,0l-2,1l0,0l-2.7-2.7l0,0
		l-3.2-4.7l0,0l-1.5-4.5l0,0l-2.9-5.8l0,0l-1.3-4l0,0l-2.7-2.7l0,0l-3.1-4.6l0,0l-1.2-2.4l0,0l-1.8-0.9l0,0h-1.4l0,0l-1.9-1l0,0
		l-1.4,1.4l0,0l-3.8-1.9l0,0l-3.3,1.4l0,0h-3.4l0,0l-2.7,0.9l0,0l-1.3,2.6l0,0l-3.1,3.1l0,0l-1.7,1.7l0,0l-2.9,1.4l0,0l-1.4,1.4l0,0
		l-3.2,1.6l0,0l-2.6,1.3l0,0l-3.6,4.9l0,0l-1.4,4.2l0,0l-2.9,5.8l0,0L766,361l0,0l-3,3l0,0l-1.4,2.9l0,0l-3.1,3.1l0,0l-2.1,2.1l0,0
		h-4.7l0,0l-2-2l0,0l-3,0.5l0,0l-1.8,3.6l0,0l-4.4-2.2l0,0l-3.3,1.4l0,0h-2l0,0h-2l0,0l-2.2,2.2l0,0l-4,5.3l0,0l-2,4l0,0h-2.9l0,0
		l-1.2,2.3l0,0l-2.9,1.4l0,0l-1.3,2.6l0,0l-3.8,3.8l0,0h-5.1l0,0l-0.8-2l0,0l-2.5,2.1l0,0h-3.8l0,0h-2l0,0l-2.9-1.4l0,0H692l0,0
		h-3.8l0,0l-1.8-1.8l0,0l-2.1,0.4l0,0h-4.7l0,0l-1.4-1.4l0,0h-2l0,0h-1.4l0,0h-2.4l0,0l-3.8,1.9l0,0l-1.9-1.9l0,0l-2.5,1.4l0,0h-4.7
		l0,0l-3.9,0.5l0,0l-1.4-1.4l0,0l-1.5,0.7l0,0l-4.3,2.1l0,0l-1.9-1.9l0,0l-3,1.9l0,0l-4.6-2.3l0,0l-3-1.1l0,0h-2l0,0l-1.9-1l0,0
		l-4.7,1l0,0h-2.9l0,0l-4.7,1.9l0,0l-2.3-2.3l0,0l-2.9-1.4l0,0l-2.5,0.4l0,0h-1.4l0,0l-2.9,1.4l0,0h-3.4l0,0l-2.7,0.9l0,0l-1.7,3.4
		l0,0h-4.2l0,0h-1.4l0,0h-2l0,0l-4.7,2.9l0,0h-3.4l0,0h-2l0,0l-1.9-1l0,0l-4.7,1l0,0H574l0,0h-3.8l0,0l-2.5-0.2l0,0l-3.3,1.7l0,0
		H562l0,0l-4-2l0,0l-1.2-2.3l0,0h-1.5l0,0h-2l0,0l-3.7-1.8l0,0l-1.4-1.4l0,0l-2.1-1.1l0,0h-1.5l0,0l-1.4,1.4l0,0h-3.8l0,0h-2l0,0
		l-1.9-1l0,0l-4.7,1l0,0h-1.4l0,0H526l0,0l-2.9-1.4l0,0h-4.7l0,0l-1.4-1.4l0,0h-3.3l0,0l-1.7-3.4l0,0l-2.9-1.4l0,0l-1.4-2.9l0,0
		l-1.8-0.9l0,0h-3.7l0,0l-1.9-3.8l0,0l-2-2l0,0h-1.4l0,0l-3.8-3.8l0,0l-1.7-3.3l0,0l-2.9-8.8l0,0l-1.2-3.5l0,0l-2.4-1.2l0,0
		l-1.4-1.4l0,0l-2.1-1.1l0,0H479l0,0l-3.2,4.3l0,0h-3.1l0,0l-4.1-2.1l0,0l-1.6-4.9l0,0l-1.4,3l0,0l-4.3-4.3l0,0l-1.9,1l0,0l-2.9,1.9
		l0,0l-1.6,4.7l0,0l-5.9,3l0,0l-1.9-5.8l0,0l-2.7-1.4l0,0l-1.4-2.9l0,0l-1.8-0.9l0,0h-2.4l0,0l-4.3,3.8l0,0l-1.4-1.4l0,0l-4.3,4.3
		l0,0l-4.4-4.4l0,0l-1.5,1.7l0,0l-4.6,2.3l0,0l-2.7-2.7l0,0l-1.5-2.3l0,0l-2.1,3.5l0,0l-2.7,5.4l0,0l-4.4-4.4l0,0l-1.7,0.8l0,0
		l-2.6,7.9l0,0l-1.8,3.7l0,0l-2.9,1.4l0,0l-1.3,2.6l0,0l-3.8,3.8l0,0l-3.9,5.8l0,0H385l0,0l-2.2,2.2l0,0l-2.9,2.9l0,0l-1.7,1.7l0,0
		l-2.9,1.4l0,0l-1.4,1.4l0,0l-2.9,1.4l0,0l-1.8,1.8l0,0h-3.8l0,0l-3,2.5l0,0l-2.4,1.2l0,0l-1.7,5l0,0h-3.5l0,0l-3.9,2.5l0,0
		l-2.3,2.3l0,0l-2.9-1.4l0,0l-1.4,1.4l0,0l-3.8-1.9l0,0l-2.9,2.9l0,0h-2.4l0,0l-1,2l0,0l-3.1,3.1l0,0l-1.4,1.4l0,0l-2.6,2.6l0,0
		l-1.6,3.2l0,0l-3.2,1.6l0,0l-1.8,1.8l0,0h-3.3l0,0l-2.1,1.1l0,0l-1.8,1.8l0,0h-2.4l0,0l-1.4,2.9l0,0h-3.3l0,0l-1.4,1.4l0,0h-2.9
		l0,0l-1.9,1.9l0,0l-2.9-1.4l0,0l-3.3,3.3l0,0l-2.3-2.3l0,0l-2.1,1.1l0,0l-3.7,1.8l0,0h-1.4l0,0l-2.9,1.4l0,0H280l0,0l-2.9,1.4l0,0
		h-2.5l0,0l-1.4,1.4l0,0h-2.9l0,0l-1.4,1.4l0,0h-3.8l0,0h-1.4l0,0h-2l0,0l-1.4,1.4l0,0h-3.8l0,0h-2.9l0,0h-1.4l0,0h-2l0,0l-1.4,1.4
		l0,0H244l0,0h-1.4l0,0h-2.9l0,0h-1.4l0,0h-2.9l0,0h-2.9l0,0h-1.4l0,0h-2.9l0,0h-1.4l0,0h-2.9l0,0h-1.4l0,0h-2.9l0,0h-1.4l0,0h-2.9
		l0,0h-2.9l0,0H211l0,0h-2l0,0l-1.4,1.4l0,0h-3.8l0,0h-1.4l0,0h-2.9l0,0h-1.4l0,0h-2l0,0l-1.4,1.4l0,0h-3.8l0,0H187l0,0l-1.4-1.4
		l0,0h-2l0,0l-4.8,1.9l0,0l-1.9-1.9l0,0l-3,1.9l0,0l-3.8-1.9l0,0h-2.4l0,0h-1.4l0,0h-2l0,0l-1.9,1.9l0,0l-2.9-1.4l0,0l-4.8,1l0,0
		h-1.4l0,0h-2.4l0,0L148,447l0,0h-2l0,0h-2.9l0,0h-1.4l0,0h-2.9l0,0h-1.4l0,0h-2.9l0,0h-1.4l0,0h-2.9l0,0h-2.9l0,0h-1.4l0,0H123l0,0
		l-3.8,1.4l0,0h-2l0,0h-2.9l0,0h-1.4l0,0H110l0,0h-2.9l0,0h-1.4l0,0h-2.9l0,0h-1.4l0,0h-2.9l0,0h-1.4l0,0h-2.9l0,0h-1.4l0,0
		L92.8,447L92.8,447z"/>
</g>
<g>
	<title>Path 614</title>
	<path class="st6" d="M74,447L74,447h2.9l0,0h1.4l0,0h2.9l0,0h1.4l0,0h2.9l0,0H87l0,0h2.9l0,0h2.9l0,0h1.4l0,0h2.9l0,0h1.4l0,0h2.9
		l0,0h1.4l0,0h2.9l0,0h1.4l0,0h2.9l0,0h2.9l0,0h1.4l0,0h2.9l0,0h1.4l0,0h2.9l0,0h1.6l0,0l2.9-1.4l0,0h4.2l0,0h2.9l0,0h1.4l0,0h2.9
		l0,0h1.4l0,0h2.9l0,0h1.6l0,0l2.9-1.4l0,0h4.2l0,0h2.9l0,0h1.6l0,0l2.9-1.4l0,0h4.5l0,0l1.4-1.4l0,0h2.6l0,0h1.4l0,0h3.1l0,0
		l2.9-1.4l0,0h4.5l0,0l1.6-1.6l0,0l2.6-1.3l0,0h1.6l0,0l2.6-2.6l0,0l4.5,1.1l0,0l2.9-1.4l0,0h1.4l0,0l2.9-1.4l0,0l4.3,1.6l0,0
		l1.6-1.6l0,0h2.9l0,0l1.6-1.6l0,0l2.6-1.3l0,0h1.6l0,0l3-3l0,0l2.9-1.4l0,0l3.9-1.3l0,0h1.7l0,0l3.1-3.1l0,0l4.1-1.2l0,0l1.6-1.6
		l0,0l2.6-1.3l0,0h3l0,0l1.4-1.4l0,0h2.9l0,0l1.7-1.7l0,0l3-3l0,0l1.2-2.3l0,0l2.7,1.4l0,0l1.7-1.7l0,0l2.9-1.4l0,0l3-3l0,0l3.5-1.2
		l0,0l1.7,1.7l0,0l2.9-2.9l0,0l4.3,1.1l0,0h2l0,0l3-10.6l0,0l2.9-7.2l0,0l1.3-3.9l0,0h2.4l0,0h1.7l0,0l3.1-3.1l0,0l3.1,4.1l0,0
		l1.5,4.4l0,0l3.4,3.4l0,0l3.5-1.7l0,0l1.4-1.4l0,0l3-1.5l0,0l1.4-2.9l0,0l2.8-1.4l0,0l1.4-1.4l0,0l2.6-1.3l0,0h1.8l0,0l3-13.4l0,0
		l2.8-5.6l0,0l4.2-4.2l0,0l4.4-2.9l0,0l0.7-2l0,0l2.4,11.8l0,0l1.5,4.5l0,0l3,3l0,0l3.1,4.6l0,0h1.7l0,0l2.6,1.3l0,0l1.6,1.6l0,0
		h3.2l0,0h1.8l0,0l3.1-4.6l0,0l3.8-1.2l0,0h1.4l0,0h3.1l0,0l2.6-1.3l0,0l3.9,1.3l0,0l1.4,4.3l0,0h3.7l0,0l1.4-1.4l0,0h2.6l0,0l4.2,3
		l0,0l3.6-1.8l0,0l1.4-4.1l0,0h2.4l0,0h1.7l0,0l2.9-2.9l0,0l3.9-1.3l0,0l3.9,6.9l0,0l3.2,1.6l0,0h1.6l0,0h2.9l0,0l4.2,1.4l0,0h2.1
		l0,0l3.1-6.2l0,0l1.4-2.8l0,0l2.4-2.4l0,0l2.6,1.3l0,0h2.1l0,0l3-7.5l0,0l3.2,0.1l0,0l1.4,2.7l0,0l3.1,4.7l0,0h1.7l0,0l2.5,1.2l0,0
		l2.8,8.4l0,0l1.7,3.3l0,0h3.3l0,0l4.3,3.2l0,0l1.7-1.7l0,0h2.6l0,0l4,1.4l0,0l2.8,1.4l0,0l1.6,1.6l0,0h3.5l0,0l1.6-1.6l0,0l2.3-1.2
		l0,0l1.7,1.7l0,0l2.9-4.3l0,0l4,1l0,0l3.2,1.6l0,0l3.6,3.9l0,0l1.6,1.6l0,0l3.1,1.6l0,0h1.8l0,0l2.9-1.4l0,0l4.3,6.9l0,0l1.8-5.5
		l0,0h2.2l0,0l2.4,1.2l0,0l1.4,5.5l0,0l3.4,6.7l0,0l2.1-2.1l0,0l2.6-1.3l0,0h4.2l0,0h1.9l0,0l3.1-6.1l0,0l2-3.1l0,0l1.1,3.4l0,0h3.1
		l0,0l1.4,1.4l0,0h2.9l0,0l4.1,4.1l0,0l1.8,1.8l0,0l3-1.5l0,0l3,1.5l0,0l1.6-1.6l0,0h2.1l0,0l1.3,2.7l0,0l4.1,2.1l0,0l1.5-45.1l0,0
		h1.7l0,0l1.3,4l0,0l3.4,3.4l0,0l3.5-1.7l0,0l1.4-1.4l0,0l1.8-0.9l0,0l1.4,45.7l0,0h4.1l0,0l1.5-4.5l0,0l2-1l0,0l1.4,2.9l0,0
		l3.5-1.8l0,0l3-1.5l0,0l4.2-1.3l0,0l1.6-1.6l0,0l2.9-1.4l0,0l1.4-1.4l0,0l2.6-1.3l0,0l4.3,1.6l0,0l3-3l0,0h3.7l0,0l4.8,4.8l0,0
		l1.8-3.6l0,0l2.5-1.3l0,0h1.4l0,0l2.9-1.4l0,0h2.7l0,0h1.7l0,0l2.6-2.6l0,0l4.8-0.4l0,0l1.4-1.4l0,0l2.9-1.4l0,0l1.5-1.5l0,0
		l1.9-1.9l0,0l1.3,7.6l0,0l3.2,1.6l0,0l3.5,1.8l0,0l1.4-2.9l0,0l2.7,1.4l0,0l1.4-1.4l0,0l3.3,1.7l0,0l1.6-12.4l0,0l2.8-5.5l0,0
		l3.7,14.2l0,0l3.3-13.3l0,0l3.9,0.8l0,0h1.4l0,0h2.6l0,0l2.2,2.2l0,0l2.3-10.2l0,0l1.1,8.4l0,0l3.8-1.9l0,0l2.4-1.2l0,0l4.8,1.3
		l0,0l1.4-1.4l0,0h2.9l0,0l1.4-1.4l0,0h2.6l0,0h1.4l0,0h2.6l0,0l3.2,3.2l0,0l1.9-1.9l0,0l2.3-1.2l0,0l1.4,1.4l0,0l3.5-1.7l0,0
		l1.4-1.4l0,0l3-1.5l0,0l1.4-2.9l0,0l2.3-1.2l0,0l2.2,1.1l0,0l1.6,7.8l0,0l3.6-1.8l0,0h1.4l0,0l3.3-1.6l0,0l1.2-3.5l0,0l1.9,1.9l0,0
		l1.7,6.8l0,0l3.8-3.8l0,0l3.1-3.1l0,0l1.4-11.5l0,0l2.5-2.5l0,0h1.6l0,0l3.1-6.3l0,0l1.4-14.1l0,0l2.7-1.4l0,0l1.5-3.1l0,0l2.8-4.2
		l0,0l3.8,0.3l0,0l3.3-1.7l0,0l3.4-1.3l0,0l1.8,3.6l0,0l3.6-5.5l0,0l1.5-5.9l0,0l2.9-14.4l0,0l1.4-5.6l0,0l2.7-4.1l0,0l2.8-1.4l0,0
		l1.5-1.5l0,0l2.9-2.9l0,0l3.4,3.1l0,0h1.8l0,0h2.6l0,0l4,2.6l0,0l3,24.1l0,0l4.8,28.7l0,0l2.2-32.4l0,0h2.2l0,0l5,1.9l0,0l1.3-20.9
		l0,0l2.8,6.9l0,0l3.2-28.8l0,0v30.4l0,0l3.2,4.8l0,0h1.7l0,0l2.4,1.2l0,0l1.4,7l0,0l2.9,4.3l0,0l1.4,7.1l0,0l2.9,8.7l0,0l2.9,5.8
		l0,0l1.6,3.3l0,0h3l0,0l4.1,2.7l0,0l1.4,2.9l0,0l3.2,1.6l0,0h1.9l0,0l3.2-3.2l0,0l1.8-3.6l0,0l1.2,12l0,0l3.4,11.9l0,0l2.2-4.3l0,0
		l2.5-1.3l0,0h1.7l0,0l2.6-5.3l0,0l3.6,3.6l0,0l2.8,2.8l0,0l1.4,2.9l0,0l2.9,2.9l0,0l1.6,3.2l0,0h3l0,0l4.2,2.8l0,0l4.4,13.8l0,0
		l2.3-2.3l0,0l2.3-1.2l0,0l2.7,2.7l0,0h1.7l0,0h2.6l0,0l2.1,2.1l0,0l2.7-10.9l0,0l4.1,4.7l0,0l1.6-1.6l0,0l2.6,1.3l0,0h3.1l0,0h1.4
		l0,0h2.9l0,0l3.7,2.5l0,0l1.4,7.1l0,0l3,7.4l0,0l1.9,1.9l0,0l2.8-1.4l0,0l2.7,4.1l0,0h2.1l0,0l3.3-3.3l0,0l1.5-11.8l0,0l2.8-35.4
		l0,0l3.8-1.4l0,0l3.7,1.3l0,0l2.6,2.6l0,0l1.4,7l0,0l2.9,29.4l0,0h1.7l0,0l2.9,4.3l0,0h1.8l0,0h3.2l0,0l1.4-1.4l0,0h2.2l0,0
		l2.9,4.3l0,0h2l0,0l2.4-1.2l0,0l1.2,2.3l0,0l3.2,3.2l0,0h1.9l0,0l2.6-1.3l0,0l4.3,2.7l0,0h2.8l0,0l4,2.6l0,0l1.6,7.8l0,0l3.6-1.8
		l0,0h4.2l0,0l4,2.9l0,0h3.5l0,0l3.5,1.2l0,0l1.7,1.7l0,0h2.9l0,0l1.6,1.6l0,0l2.7-1.3l0,0l1.2,2.5l0,0l3,1.5l0,0l1.7,1.7l0,0
		l3.2-1.6l0,0h2.7l0,0h1.4l0,0h3.3l0,0l1.6-3.2l0,0l2.9-4.3l0,0l1.4-2.7l0,0l2.7-1.3l0,0l-1.6,2.4l0,0l-1.2,2.4l0,0l-2.9,4.3l0,0
		l-2,4l0,0h-4.2l0,0h-1.4l0,0h-2.4l0,0l-3.8,1.9l0,0l-2.3-2.3l0,0l-3.2-1.6l0,0l-0.8-1.6l0,0l-2.3,1.2l0,0l-1.9-1.9l0,0h-2.9l0,0
		l-2.1-2.1l0,0l-1.9-0.8l0,0h-4.7l0,0l-2.9-2.9l0,0h-3.4l0,0l-5.9,2.5l0,0l-1.8-8.9l0,0l-2.2-1.1l0,0l-3.6-1.1l0,0l-3.7-1.8l0,0
		l-2.5,0.4l0,0h-2.8l0,0l-3.8-3.8l0,0l-2-0.6l0,0h-3.1l0,0l-2.9-4.3l0,0l-2.3,1.4l0,0h-3.8l0,0h-2.6l0,0l-2.9-4.3l0,0h-2.2l0,0
		l-3.1-30.7l0,0l-1.3-6.5l0,0l-2.2-2.2l0,0L980,355l0,0l-3.3,1.4l0,0l-2.7,34.1l0,0l-1.5,12.3l0,0l-4,4l0,0H965l0,0l-2.5-3.7l0,0
		l-2.6,1.3l0,0l-2.9-2.9l0,0l-3.1-7.8l0,0l-1.4-6.8l0,0l-1.8-1.8l0,0h-3.4l0,0h-1.4l0,0h-3.4l0,0l-1.9-1l0,0l-1.9,1.9l0,0l-4.7-4.7
		l0,0l1,2l0,0l-2.4,9.6l0,0l-3.5-3.5l0,0h-2l0,0h-2.3l0,0l-2.4-2.4l0,0l-5.1,4.5l0,0l-3.7-14.6l0,0l-3.7-2.2l0,0l-4.4-1.1l0,0
		l-1.9-3.8l0,0l-2.9-2.9l0,0l-1.4-2.9l0,0l-2.6-2.6l0,0l-2.9-2.9l0,0l-1.5,5l0,0H890l0,0l-1.8,0.9l0,0l-3.6,7.2l0,0l-4.5-15.6l0,0
		l-0.7-7.2l0,0l-3.5,3.2l0,0h-2.8l0,0l-4-2l0,0l-1.4-2.9l0,0l-2.6-1.3l0,0l-4.4-1.1l0,0l-2-4.1l0,0l-3-5.9l0,0l-3-8.9l0,0l-1.4-6.9
		l0,0l-2.9-4.3l0,0l-1.3-6.6l0,0l-1.5-0.7l0,0h-2.1l0,0l-3.9-5.8l0,0l-1.5-30.9l0,0l4.3,0.1l0,0l-3.8,34.5l0,0l-2.5-6.3l0,0l-1,16.7
		l0,0L830,313l0,0h-1.8l0,0l-2.2,42.5l0,0h-1.5l0,0l-4.3-38.5l0,0l-4.7-24.9l0,0l-2.2-1.1l0,0l-3-1.1l0,0h-2.6l0,0l-2.1-3.1l0,0
		l-2.5,2.5l0,0l-1.7,1.7l0,0l-2.7,1.3l0,0l-2.4,3.5l0,0l-1.3,5.4l0,0l-2.9,14.4l0,0l-1.5,6.2l0,0l-5.2,7.7l0,0l-2.5-5l0,0l-1.7,1.1
		l0,0l-4.2,2.1l0,0l-2.5-1.2l0,0l-2.9,4.2l0,0l-1.7,3.4l0,0l-2.5,1.2l0,0l-1.4,13.6l0,0l-3.7,7.3l0,0h-1.9l0,0L759,358l0,0
		l-1.4,11.5l0,0l-3.4,3.4l0,0l-5.6,5.6l0,0l-2.2-8.9l0,0l-0.6,1.9l0,0l-4.1,2.1l0,0h-1.4l0,0l-5,2.5l0,0l-1.8-8.9l0,0l-2.2,0.2l0,0
		l-1.4,2.9l0,0l-3.2,1.6l0,0l-1.4,1.4l0,0l-4.6,2.3l0,0l-1.4-1.4l0,0l-3.9,3.3l0,0l-3.8-3.8l0,0h-2l0,0H708l0,0h-2l0,0l-1.4,1.4l0,0
		h-2.9l0,0l-1.4,1.4l0,0h-4.7l0,0l-2.5-0.2l0,0l-5.6,2.8l0,0l-0.3-2.2l0,0l-1,4.6l0,0l-3.6-3.6l0,0h-2l0,0h-1.4l0,0h-3.8l0,0
		l-3.6,17.3l0,0l-4-18.1l0,0l1.6-1.6l0,0l-2.6,5.1l0,0l-1.8,14.2l0,0l-4.2-2.1l0,0l-1.4,1.4l0,0l-2.3-1.2l0,0l-1.4,2.9l0,0l-4.8-2.4
		l0,0l-3.9-1.9l0,0l-1-5.5l0,0l-1.6,1.6l0,0l-2.9,1.4l0,0l-1.4,1.4l0,0l-4.6,2.3l0,0l-3,1l0,0h-2.3l0,0h-2.4l0,0l-2.9,1.4l0,0h-1.4
		l0,0l-1.8,0.9l0,0l-2.5,4.9l0,0l-5-5l0,0l-2.8-0.8l0,0l-3.9,3.4l0,0l-3.8-1.9l0,0l-2.5,1.1l0,0l-1.4,1.4l0,0l-2.9,1.4l0,0l-1.8,1.8
		l0,0h-2.9l0,0l-4.3,2.7l0,0l-4.8,2.4l0,0l-1.4-2.9l0,0l-1.8,5l0,0h-6.5l0,0l-1.4-44.8l0,0l-5.6,3.5l0,0l-4.3-4.3l0,0l-1.1-3.3l0,0
		l-0.7,45.9l0,0l-6.5-3.3l0,0l-1.2-2.3l0,0l-2.6,1.9l0,0l-3.3-1.7l0,0l-3.3,1.7l0,0l-2.5-2.5l0,0l-2.9-2.9l0,0l-3.7-0.8l0,0
		l-1.4-1.4l0,0h-3.5l0,0l-0.5-1.6l0,0l-3.8,7.4l0,0h-2.8l0,0h-2.9l0,0l-3,1.1l0,0l-3.3,3.3l0,0l-4.3-8.7l0,0l-1.3-5l0,0l-1.5-0.8
		l0,0l-3.4,7.8l0,0l-4.6-9.2l0,0l-2.5,1.4l0,0H493l0,0l-3.7-1.8l0,0l-1.9-1.9l0,0l-1.7-3.4l0,0l-4.2-1.5l0,0H478l0,0l-3.1,4.1l0,0
		l-2.2-2.2l0,0l-3,2.4l0,0H465l0,0l-1.8-1.8l0,0l-2.6-1.3l0,0l-2.4-1.2l0,0h-2.9l0,0l-2.3,2.3l0,0l-3.8-3.8l0,0h-4.8l0,0l-2.1-4.2
		l0,0l-2.6-7.9l0,0l-1.6-0.8l0,0H436l0,0l-3.6-5.4l0,0l-1.2-2.4l0,0l-4.1,7.8l0,0h-3.4l0,0l-1.9-1l0,0l-1.5,1.5l0,0L419,371l0,0
		l-3.5,7l0,0h-3.3l0,0l-2.9-1.4l0,0h-3.8l0,0h-2l0,0l-4-2l0,0l-3-6.1l0,0l-2,0.9l0,0l-3.9,2.9l0,0h-2.3l0,0l-2.6,3.7l0,0l-5.1,2.5
		l0,0l-3.3-3.3l0,0h-2.5l0,0l-1.4,1.4l0,0h-5.3l0,0l-1.4-4.3l0,0h-2.2l0,0h-2.9l0,0h-3.4l0,0h-1.4l0,0h-2l0,0l-4.1,5.8l0,0h-2.6l0,0
		H344l0,0l-1.8-1.8l0,0l-2.1-1.1l0,0H338l0,0l-3.4-5.1l0,0l-3.1-3.1l0,0l-1.6-4.9l0,0l-1.3-6.6l0,0l0.8-2.5l0,0l-3.4,1.7l0,0
		l-4.1,4.1l0,0l-3.8,6.4l0,0l-3.2,14.4l0,0h-2.7l0,0l-2.1,1.1l0,0l-1.4,1.4l0,0l-2.6,1.3l0,0l-1.4,2.9l0,0l-3.2,1.6l0,0l-1.4,1.4
		l0,0l-4.6,2.3l0,0l-4.3-4.3l0,0l-1.6-4.7l0,0l-1.5-2.9l0,0l-2.8,2.8l0,0H283l0,0l-2.3,2.9l0,0l-2.9,7.2l0,0l-3.3,11.5l0,0h-3.1l0,0
		h-3.8l0,0l-3.4,2.3l0,0l-2.3-2.3l0,0l-1.9,0.8l0,0l-3.1,3.1l0,0l-2.9,1.4l0,0l-2.3,2.3l0,0l-2.3-1.2l0,0l-3.8,4.4l0,0l-2.1,2.1l0,0
		h-2.9l0,0l-1.4,1.4l0,0h-3.3l0,0l-2.1,1.1l0,0l-1.8,1.8l0,0h-2.9l0,0l-4.3,4.3l0,0h-2.3l0,0h-2l0,0l-3.9,2.5l0,0l-3.3,3.3l0,0h-1.8
		l0,0l-2.1,1.1l0,0l-1.8,1.8l0,0h-2.9l0,0l-1.9,1.9l0,0l-3.8-1.9l0,0l-3.3,1.4l0,0h-1.4l0,0l-2.9,1.4l0,0H187l0,0l-2.5,1.4l0,0h-1.8
		l0,0l-2.1,1.1l0,0l-1.8,1.8l0,0H175l0,0l-3.8,1.4l0,0h-3.4l0,0h-1.4l0,0h-2l0,0l-1.4,1.4l0,0h-4l0,0l-3.8,1.4l0,0h-2l0,0h-2.9l0,0
		h-2.9l0,0l-3.8,1.4l0,0h-2l0,0h-2.9l0,0h-1.4l0,0h-2.9l0,0H133l0,0h-2.9l0,0h-2.9l0,0l-3.8,1.4l0,0h-2l0,0h-2.9l0,0h-1.4l0,0h-2.9
		l0,0h-1.4l0,0H110l0,0h-2.9l0,0h-1.4l0,0h-2.9l0,0h-1.4l0,0h-2.9l0,0h-1.4l0,0h-2.9l0,0h-1.4l0,0h-2.9l0,0H87l0,0h-1.4l0,0h-2.9
		l0,0h-1.4l0,0h-2.9l0,0H77l0,0h-3l0,0V447z"/>
</g>
<g>
	<title>Path 615</title>
	<path class="st7" d="M92.8,447L92.8,447h1.4l0,0h2.9l0,0h1.4l0,0h2.9l0,0h1.4l0,0h2.9l0,0h1.6l0,0l2.9-1.4l0,0h2.7l0,0h1.4l0,0h2.9
		l0,0h1.4l0,0h2.9l0,0h1.4l0,0h2.9l0,0h1.4l0,0h2.9l0,0h3.2l0,0l1.6-1.6l0,0l2.6-1.3l0,0h4.2l0,0h1.6l0,0l2.9-1.4l0,0h4.2l0,0h3.3
		l0,0l1.4-2.9l0,0h2.4l0,0l4.5,1.6l0,0l1.7-1.7l0,0l2.6-1.3l0,0h4.3l0,0l3.2-1.6l0,0l1.5-3l0,0l2.6-2.6l0,0h1.4l0,0l3.1-3.1l0,0
		l4.2-2.8l0,0l3.7,0.1l0,0h3.5l0,0l1.6-3.2l0,0l2.9-2.9l0,0l1.4-4.2l0,0l2.5-1.2l0,0h1.7l0,0l2.9-4.3l0,0l4.2-2.9l0,0l4,1.5l0,0
		l3.3-1.7l0,0l4,0.3l0,0l1.6-1.6l0,0h2.9l0,0l1.4-1.4l0,0h3l0,0l1.5-3.1l0,0l2.8-1.4l0,0l3-4.6l0,0l1.4-4.1l0,0l2.5-1.2l0,0h1.4l0,0
		l2.6-1.3l0,0l4,1.3l0,0l1.6,3.1l0,0l3.6-1.8l0,0l3.1-3.1l0,0l1.4-5.4l0,0h2.6l0,0l1.6-1.6l0,0l3-1.5l0,0l1.1-3.2l0,0l2,3l0,0
		l1.7,11.8l0,0l3.8-5.7l0,0l2.6-1.3l0,0h4.5l0,0l4.6,0.4l0,0l1.3-10.2l0,0l2.6,5.2l0,0l2-5.9l0,0l2.8-4.2l0,0l2.8-4.3l0,0l1.4-1.4
		l0,0l2.9-4.3l0,0l4.1-4.1l0,0h4l0,0h1.4l0,0h2.3l0,0l3.7,14.7l0,0l1.8-14.3l0,0l1.8,0.9l0,0l1.4,2.9l0,0l3.2,1.6l0,0h1.6l0,0h3.5
		l0,0l1-9.3l0,0l2.1,9.3l0,0h3.8l0,0l1.4-1.4l0,0h2.3l0,0l1.4,1.4l0,0h3.2l0,0h1.4l0,0h2.9l0,0h1.4l0,0h2.9l0,0h1.4l0,0h3.1l0,0
		l2.9-1.4l0,0l4.3,1.6l0,0l1.7-1.7l0,0l2.3-1.2l0,0l1.4,1.4l0,0l3.2-1.6l0,0h1.4l0,0l3-1.5l0,0l2.7-1.4l0,0h2l0,0l2.9-253.6l0,0h3.6
		l0,0h1.4l0,0h2.9l0,0h1.6l0,0l2-1l0,0l2.9,253.2l0,0h2.2l0,0h3.2l0,0l1.4-1.4l0,0h2.6l0,0h1.6l0,0l2.6-1.3l0,0l1.6,1.6l0,0l3.2-3.2
		l0,0h2.9l0,0l1.4-1.4l0,0h3l0,0l1.3-2.6l0,0l3.3,1.6l0,0l2-258.1l0,0l2.3,1.2l0,0l1.4-1.4l0,0l2.6,1.3l0,0h2.6l0,0l1.3,2.6l0,0
		l2.8,2.8l0,0l1.4,256.9l0,0h3.3l0,0l1.4,1.4l0,0h2.7l0,0l1.6,3.1l0,0l3-1.5l0,0l2.5,3.8l0,0l1.5,3.1l0,0l2.8,1.4l0,0l1.4,5.8l0,0
		l3.3,1.7l0,0l4.8,5.4l0,0l1.6-6.5l0,0l2,1l0,0l3,3l0,0h1.6l0,0l2.6,1.3l0,0l1.7,1.7l0,0l2.5-1.3l0,0l1.3,5.1l0,0l3,3l0,0l1.7,1.7
		l0,0h2.7l0,0l1.3,2.6l0,0l3,3l0,0l3.1,1.6l0,0h1.6l0,0h2.9l0,0l3.7,2.5l0,0l1.5,7.6l0,0h3.5l0,0h2l0,0l2.8-9.8l0,0l1.9,0.9l0,0
		l1.7,3.3l0,0l3.9-1.9l0,0l1.3-7.6l0,0l1.8,1.8l0,0l1.3,2.7l0,0l3,14.9l0,0h1.9l0,0l2.6,1.3l0,0l2.8,4.1l0,0l1.9,3.7l0,0l3.4-3.4
		l0,0l4.5-1.6l0,0l3.9-1.3l0,0h1.4l0,0h2.6l0,0l2.7,2.7l0,0l1.7,1.7l0,0h2.9l0,0l1.6,1.6l0,0l2.9-1.4l0,0l4.3,2.7l0,0h1.6l0,0h2.7
		l0,0l2.6,1.3l0,0l1.4,1.4l0,0l3.1,1.6l0,0h1.6l0,0h2.6l0,0l1.6,1.6l0,0l2.9-1.4l0,0l4.5,1.3l0,0h3.2l0,0l1.4-1.4l0,0h2.6l0,0
		l3.9,1.3l0,0l1.7,1.7l0,0l3.2-1.6l0,0h4l0,0l2.9,1.4l0,0h1.8l0,0l2.9-1.4l0,0l3.9,2.9l0,0h1.7l0,0h3.2l0,0h3.9l0,0h1.9l0,0l2.9-2.9
		l0,0h2.6l0,0h1.4l0,0h2.9l0,0h1.4l0,0h2.9l0,0l4.3,3.2l0,0l1.7-1.7l0,0h2.4l0,0l2.9,1.4l0,0h1.6l0,0h3.2l0,0l1.4-1.4l0,0h2.3l0,0
		l1.6,1.6l0,0l3.2-1.6l0,0h4.2l0,0h3.2l0,0l1.4-1.4l0,0h2.9l0,0l4,1.7l0,0l2-2l0,0l3-3l0,0l1.4-5.4l0,0h1.9l0,0l3.5,5.2l0,0l1.5-4.6
		l0,0l1.9,1.9l0,0l2,6l0,0l2.9-7.2l0,0l0.9,2.7l0,0l3.9,1.9l0,0l1.1-3.2l0,0l2.7,6.9l0,0l3.6-7.2l0,0l0.6-1.9l0,0l2.8,12.4l0,0
		l2-4.1l0,0l2.4,1.2l0,0h1.6l0,0h2.3l0,0l1.6,6.5l0,0l3.8-3.8l0,0l1.9-1.9l0,0l1.4,7.2l0,0l3.1-3.1l0,0l1.8,3.5l0,0l3.3-9.8l0,0
		l4.2,7.5l0,0l1.7-13.6l0,0l2.2-2.2l0,0l4.8,1.1l0,0l2.9-8.6l0,0h1.4l0,0l2-5.9l0,0l1.1,12.6l0,0l4.1,6.1l0,0l1.6-15.8l0,0h1.9l0,0
		l1.4,1.4l0,0h3.8l0,0l2.9-14.4l0,0h1.5l0,0l2.9-35.2l0,0l0.3,23.2l0,0l3.7-14.6l0,0l1.6,1.6l0,0l3-27.4l0,0l0.1,12.2l0,0h2.9l0,0
		l3.5,28.1l0,0l1.9-25.5l0,0l1.9,7.5l0,0l5.2,16.8l0,0l1.8-18.2l0,0h2.9l0,0l0.7-5.2l0,0l2.9,24.7l0,0l3.6-34.5l0,0l0.2,15.9l0,0
		l4.1-4.1l0,0l1.5-4.5l0,0l1.8-7.1l0,0l1.5,22l0,0l3.1-13.8l0,0l1.4,11.2l0,0l3.7-14.7l0,0h1.9l0,0l1.2,2.4l0,0l3.8,15l0,0l1.9-13.6
		l0,0l2-3l0,0l1.9,5.6l0,0l3.3-18l0,0l3.5,31.4l0,0l3.8-18.8l0,0l3.7,2.1l0,0l3.7,12.7l0,0h2.6l0,0l2.7-12.3l0,0l3.4,2l0,0l2.8,4.2
		l0,0l1.5,1.5l0,0l2.8,2.8l0,0l1.5,3l0,0l3.2,1.6l0,0h1.4l0,0l3.5,1.7l0,0l1.3-4l0,0l2.8,2.8l0,0l1.8-3.6l0,0l2.5-1.3l0,0h3l0,0
		l3.5,2.6l0,0l1.6,1.6l0,0l2.9,1.4l0,0l1.6,1.6l0,0h3.5l0,0l1.4-1.4l0,0h3.1l0,0l3-9l0,0l4.2-4.2l0,0h3.3l0,0l2.1,4.1l0,0l3.4-8.6
		l0,0l4.4-7.3l0,0l2.9-7.3l0,0l1.4-7.2l0,0l2.9-7.2l0,0l1.4-10.1l0,0l2.4-4.8l0,0l4.5-3.4l0,0h4.4l0,0l2.9-5.8l0,0l4.4,3.7l0,0
		l1.5-14.9l0,0l2.8,1.4l0,0l1.4-10.1l0,0l2.5,1.2l0,0l1.9-1.9l0,0l2.9-7.3l0,0l1.8-3.7l0,0l1.2,8.2l0,0l3.1,1.6l0,0l1.7,1.7l0,0
		l3.5-1.7l0,0l3.2,1.2l0,0l1.7,8.3l0,0l3.3-3.3l0,0l2.2,2.2l0,0l1.5,7.3l0,0l2.9,1.4l0,0l1.4,7l0,0l3.1,6.2l0,0h1.5l0,0l3.2,4.7l0,0
		l2-2l0,0l2.1-1l0,0l3.6,9.1l0,0l1.7-13.7l0,0h2.2l0,0h1.7l0,0l2.6-2.6l0,0l4.6,2.8l0,0l0.9-1.7l0,0l2.7,12.3l0,0l1.7-1.7l0,0
		l2.4,3.6l0,0l3.7,5.5l0,0l1.1-3.3l0,0l2.3,10.4l0,0l1.5,7.4l0,0l2.9,2.9l0,0l1.5,10.2l0,0l3.2,1.6l0,0l-4.5-0.7l0,0L1078,339l0,0
		l-2.8-2.8l0,0l-1.6-7.8l0,0l-1.2-5.3l0,0l-5.7-6.9l0,0l-1.4-2.1l0,0l-2.4,2.4l0,0l-2.4-10.9l0,0l-4.8-3.2l0,0l-2.1,1.8l0,0h-2.3
		l0,0l-3.2,17.9l0,0l-5.1-12.8l0,0l-3.5,3.3l0,0l-3.7-5.6l0,0h-1.6l0,0l-3.6-7.2l0,0l-1.3-6.5l0,0l-2.9-1.4l0,0l-1.5-7.6l0,0
		l-5.1,3.3l0,0l-2.1-10.5l0,0l-5.6,1.6l0,0l-2.3-2.3l0,0l-3.6-1.8l0,0l-0.6-4.4l0,0l-2.8,7l0,0l-2.9,2.9l0,0l-1.6-0.8l0,0l-1.4,10.1
		l0,0l-2.8-1.4l0,0l-1.6,15.8l0,0l-5.5-5.5l0,0l-2.1,5.8l0,0h-4.2l0,0l-4,5.6l0,0l-2.6,1.6l0,0l-1.4,10l0,0l-2.9,7.3l0,0L968,336
		l0,0l-3,7.5l0,0l-3.1,6.2l0,0l-5.9,12.6l0,0l-3.3-6.5l0,0l-4.1,2.8l0,0l-4.3,10.7l0,0h-3.5l0,0l-1.4,1.4l0,0h-4.7l0,0l-1.8-1.8l0,0
		l-2.9-1.4l0,0l-1.8-1.8l0,0l-1.5-2.3l0,0l-3.5,0.2l0,0l-1.8,0.9l0,0l-2.5,4.9l0,0l-2.5-2.5l0,0l-1.1,3.4l0,0l-4.7-2.3l0,0h-1.4l0,0
		l-4-2l0,0l-1.6-3.2l0,0L901,360l0,0l-1.6-1.6l0,0l-2.7-4l0,0L894,353l0,0l-1.3,11.9l0,0h-4.9l0,0l-2.4-12.2l0,0l-3-2.8l0,0l-5,27.1
		l0,0l-4.2-39.6l0,0h2.3l0,0l-4.1,22.4l0,0l-2.7-8.1l0,0l-3.1,20.8l0,0l-5.5-22l0,0l-0.7-1.5l0,0l-5.1,21.1l0,0l-1.3-10.6l0,0
		l-3.4,15.5l0,0l-1.5-22.9l0,0l0.4-1.7l0,0l-1.6,4.9l0,0l-6.5,6.5l0,0l-1.9-18.9l0,0h4.3l0,0l-4.6,45.9l0,0l-3.5-25l0,0l0.6-4.5l0,0
		h-2.8l0,0l-2.6,25.9l0,0l-5.4-24.4l0,0l-2.9,28.1l0,0l-5.9-38.1l0,0h-2.9l0,0l-1.7-13.4l0,0h4.3l0,0l-3.4,30.4l0,0l-1.9-1.9l0,0
		l-5.2,20.7l0,0l-2.5-32l0,0h4.3l0,0l-3,36.6l0,0H802l0,0l-2.9,14.4l0,0h-5.5l0,0l-1.4-1.4l0,0l-1.9,18.5l0,0l-6.5-9.8l0,0l-0.6-6.1
		l0,0l-1.5,0.3l0,0l-2.9,8.6l0,0h-5.3l0,0l-3.6,18.2l0,0l-5.5-11l0,0h1.5l0,0l-4,12.1l0,0l-2.4-4.9l0,0l-3.6,3.6l0,0l-1.4-7.2l0,0
		l-5.6,5.6l0,0l-2-7.8l0,0h-3.1l0,0l-4.6,5.7l0,0l-2.5-11.3l0,0l1-2.9l0,0l-5.1,10.2l0,0l-2.5-6.2l0,0l-6.3-1.9l0,0l-2.7,7.6l0,0
		l-3.1-9.4l0,0l-1.8,5.1l0,0l-4.7-7l0,0l-1.2,4.7l0,0l-3.3,3.3l0,0l-3,3l0,0l-2.9-2.9l0,0l-3.4,0.5l0,0l-1.4,1.4l0,0h-3.8l0,0h-2.9
		l0,0l-4.7,1.9l0,0l-1.9-1.9l0,0l-2.5,1.4l0,0h-3.8l0,0h-2l0,0l-2.9-1.4l0,0H670l0,0l-2.3,2.3l0,0l-3.8-3.8l0,0h-3.4l0,0H659l0,0
		h-2.9l0,0h-1.4l0,0h-2l0,0l-2.9,2.9l0,0H647l0,0l-1.9-1l0,0l-4.7,1l0,0h-2.3l0,0l-2.9-2.9l0,0l-2.9,1.4l0,0h-2.5l0,0l-2.9-1.4l0,0
		h-2.4l0,0l-4.7,1.9l0,0l-2.3-2.3l0,0l-2.1-1.1l0,0h-2.9l0,0l-1.4,1.4l0,0h-3.8l0,0h-3.8l0,0l-3.9,0.5l0,0l-1.9-1.9l0,0h-2l0,0h-2
		l0,0l-3.7-1.8l0,0l-1.4-1.4l0,0l-2.1-1.1l0,0h-2.4l0,0h-2l0,0l-3.7-1.8l0,0l-3.5,0.9l0,0l-1.9-1.9l0,0h-2.9l0,0L568,412l0,0
		l-2.2-2.2l0,0h-2l0,0h-1.4l0,0h-2l0,0l-4.7,2.9l0,0l-5.4,4.4l0,0l-2.7-5.4l0,0l-2.5-3.7l0,0l-1.9-1l0,0h-2.7l0,0l-3.2-15.9l0,0
		l-1.2-2.3l0,0l-0.6,5.9l0,0l-5.8,2.9l0,0l-2.1-4.2l0,0l-2.5,9.2l0,0H522l0,0h-4.7l0,0l-1.7-8.3l0,0l-1.8-1.8l0,0h-3.4l0,0h-2l0,0
		l-3.7-1.8l0,0l-3.4-3.4l0,0l-1-2l0,0h-2.4l0,0l-2.1-2.1l0,0l-3.3-3.3l0,0l-0.9-3.7l0,0l-1.9,0.9l0,0l-2.3-2.3l0,0l-2.1-1.1l0,0
		h-1.8l0,0l-3.3-3.3l0,0l-2.1,7.8l0,0l-5-7.4l0,0l-5-2.1l0,0l-1.4-5.8l0,0l-2.6-1.3l0,0l-1.7-3.4l0,0l-1.7-2.6l0,0l-3.1,1.6l0,0
		l-1.8-3.6l0,0h-2.4l0,0l-1.4-1.4l0,0h-4.1l0,0l-1.4-257.7l0,0L444,92l0,0l-1-2l0,0h-2.1l0,0l-1.9-1l0,0l-1.4,1.4l0,0L435,347.7l0,0
		l-4.1-2l0,0l-1.1,2.1l0,0h-3.3l0,0l-1.4,1.4l0,0h-2.9l0,0l-3.8,3.8l0,0l-1.9-1.9l0,0l-1.9,1l0,0h-2l0,0h-2l0,0l-1.4,1.4l0,0h-3.8
		l0,0h-3.6l0,0L399,101.1l0,0l-2.2,0.1l0,0h-2.9l0,0h-1.4l0,0h-2.9l0,0l-2.2,253.6l0,0h-3.1l0,0l-2.4,1.2l0,0l-3.3,1.7l0,0h-1.4l0,0
		l-3.8,1.9l0,0l-1.4-1.4l0,0l-3.5,2.9l0,0l-3.8-1.9l0,0l-3.3,1.4l0,0H358l0,0h-1.4l0,0h-2.9l0,0h-1.4l0,0h-2.9l0,0H348l0,0h-4l0,0
		l-1.4-1.4l0,0l-2.5,1.4l0,0h-5.5l0,0l-0.4-2l0,0l-0.2,2l0,0h-4.8l0,0h-2l0,0l-4-2l0,0l-1.4-2.9l0,0l-2,20.2l0,0l-5.3-21.1l0,0h-2.6
		l0,0H309l0,0l-2.8,2.2l0,0l-4.2,5.6l0,0l-1.4,1.4l0,0l-2.8,4.1l0,0l-2.7,4.1l0,0l-3,9l0,0l-2-4l0,0l-0.9,7.5l0,0l-4.2-2.1l0,0
		l-4.7,1l0,0l-2.8,1l0,0l-5.7,8.6l0,0l-2.2-15.2l0,0l-3.9,2.4l0,0l-1.8,1.8l0,0h-2.1l0,0l-1.2,4.7l0,0l-3.6,3.6l0,0l-5.1,2.6l0,0
		l-1.8-3.6l0,0h-2.4l0,0h-2.9l0,0h-1.4l0,0l-1.6,0.8l0,0l-1.2,3.7l0,0l-3.4,5l0,0l-2.8,1.4l0,0l-1.7,3.4l0,0h-3.3l0,0l-1.4,1.4l0,0
		h-2.9l0,0l-1.9,1.9l0,0l-2.9-1.4l0,0l-4.7,2.7l0,0l-3.4-1.7l0,0l-2.9,2.9l0,0l-4.1,4.3l0,0h-2.1l0,0l-1.6,0.8l0,0l-1.3,4l0,0l-3,3
		l0,0l-1.9,3.8l0,0h-4.7l0,0l-1.9-1l0,0l-3.5,2l0,0l-4.7,4.7l0,0h-1.4l0,0l-2,2l0,0l-1.6,3.2l0,0l-4,2l0,0h-3.4l0,0l-3,1.1l0,0
		l-2.3,2.3l0,0l-3.8-1.9l0,0h-3l0,0l-1.4,2.9l0,0h-4.2l0,0h-2.9l0,0l-3.8,1.4l0,0h-2l0,0h-2.9l0,0l-3,1.1l0,0L134,447l0,0h-3.8l0,0
		h-2.9l0,0h-1.4l0,0H123l0,0h-1.4l0,0h-2.9l0,0h-1.4l0,0h-2.9l0,0H113l0,0h-2.4l0,0l-2.9,1.4l0,0h-2l0,0h-2.9l0,0h-1.4l0,0h-2.9l0,0
		h-1.4l0,0h-2.9l0,0h-1.4l0,0L92.8,447L92.8,447z"/>
</g>
<g>
	<title>0</title>
	<g transform="matrix(1,0,0,1,51,454)">
		<text transform="matrix(1 0 0 1 0 -19.8048)" class="st8 st9 st10">0</text>
	</g>
</g>
<g>
	<title>5</title>
	<g transform="matrix(1,0,0,1,51,376)">
		<text transform="matrix(1 0 0 1 0 -19.8048)" class="st8 st9 st10">5</text>
	</g>
</g>
<g>
	<title>10</title>
	<g transform="matrix(1,0,0,1,42,298)">
		<text transform="matrix(1 0 0 1 0 -19.8048)" class="st8 st9 st10">10</text>
	</g>
</g>
<g>
	<title>15</title>
	<g transform="matrix(1,0,0,1,42,219)">
		<text transform="matrix(1 0 0 1 0 -19.8048)" class="st8 st9 st10">15</text>
	</g>
</g>
<g>
	<title>20</title>
	<g transform="matrix(1,0,0,1,42,141)">
		<text transform="matrix(1 0 0 1 0 -19.8048)" class="st8 st9 st10">20</text>
	</g>
</g>
<g>
	<title>25</title>
	<g transform="matrix(1,0,0,1,42,63)">
		<text transform="matrix(1 0 0 1 0 -19.8048)" class="st8 st9 st10">25</text>
	</g>
</g>
<g>
	<title>6-Mar-20</title>
	<g transform="matrix(1,0,0,1,50,475)">
		<text transform="matrix(1 0 0 1 9 -7.6381)" class="st8 st9 st10">6-Mar-20</text>
	</g>
</g>
<g>
	<title>6-Apr-20</title>
	<g transform="matrix(1,0,0,1,121,476)">
		<text transform="matrix(1 0 0 1 9 -8.1381)" class="st8 st9 st10">6-Apr-20</text>
	</g>
</g>
<g>
	<title>6-May-20</title>
	<g transform="matrix(1,0,0,1,186,474)">
		<text transform="matrix(1 0 0 1 9 -7.1381)" class="st8 st9 st10">6-May-20</text>
	</g>
</g>
<g>
	<title>6-Jun-20</title>
	<g transform="matrix(1,0,0,1,257,475)">
		<text transform="matrix(1 0 0 1 9 -7.6381)" class="st8 st9 st10">6-Jun-20</text>
	</g>
</g>
<g>
	<title>6-Jul-20</title>
	<g transform="matrix(1,0,0,1,325,477)">
		<text transform="matrix(1 0 0 1 9 -8.6381)" class="st8 st9 st10">6-Jul-20</text>
	</g>
</g>
<g>
	<title>6-Aug-20</title>
	<g transform="matrix(1,0,0,1,393,475)">
		<text transform="matrix(1 0 0 1 9 -7.6381)" class="st8 st9 st10">6-Aug-20</text>
	</g>
</g>
<g>
	<title>6-Sep-20</title>
	<g transform="matrix(1,0,0,1,462,475)">
		<text transform="matrix(1 0 0 1 9 -7.6381)" class="st8 st9 st10">6-Sep-20</text>
	</g>
</g>
<g>
	<title>6-Oct-20</title>
	<g transform="matrix(1,0,0,1,530,476)">
		<text transform="matrix(1 0 0 1 9 -8.1381)" class="st8 st9 st10">6-Oct-20</text>
	</g>
</g>
<g>
	<title>6-Nov-20</title>
	<g transform="matrix(1,0,0,1,599,475)">
		<text transform="matrix(1 0 0 1 9 -7.6381)" class="st8 st9 st10">6-Nov-20</text>
	</g>
</g>
<g>
	<title>6-Dec-20</title>
	<g transform="matrix(1,0,0,1,666,475)">
		<text transform="matrix(1 0 0 1 9 -7.6381)" class="st8 st9 st10">6-Dec-20</text>
	</g>
</g>
<g>
	<title>6-Jan-21</title>
	<g transform="matrix(1,0,0,1,736,476)">
		<text transform="matrix(1 0 0 1 9 -8.1381)" class="st8 st9 st10">6-Jan-21</text>
	</g>
</g>
<g>
	<title>6-Feb-21</title>
	<g transform="matrix(1,0,0,1,805,476)">
		<text transform="matrix(1 0 0 1 9 -8.1381)" class="st8 st9 st10">6-Feb-21</text>
	</g>
</g>
<g>
	<title>6-Mar-21</title>
	<g transform="matrix(1,0,0,1,867,475)">
		<text transform="matrix(1 0 0 1 9 -7.6381)" class="st8 st9 st10">6-Mar-21</text>
	</g>
</g>
<g>
	<title>6-Apr-21</title>
	<g transform="matrix(1,0,0,1,938,476)">
		<text transform="matrix(1 0 0 1 9 -8.1381)" class="st8 st9 st10">6-Apr-21</text>
	</g>
</g>
<g>
	<title>6-May-21</title>
	<g transform="matrix(1,0,0,1,1003,474)">
		<text transform="matrix(1 0 0 1 9 -7.1381)" class="st8 st9 st10">6-May-21</text>
	</g>
</g>
</svg>
