<svg xmlns="http://www.w3.org/2000/svg" width="1058.108" height="435.698" viewBox="0 0 1058.108 435.698"><defs><style>.a{fill:#fff;stroke-width:1.417px;}.a,.b{stroke:#a7a9ac;stroke-miterlimit:10;}.b{fill:none;stroke-width:0.567px;opacity:0.322;}.c{fill:#d1d3d4;}.d{fill:#222b3e;}.e{fill:#313e59;}.f{fill:#91bce8;}.g{fill:#808285;}.h{fill:#231f20;}.i{fill:#606060;font-size:14.314px;font-family:IBMPlexSans, IBM Plex Sans;}</style></defs><g transform="translate(-430.946 -4542.754)"><rect class="a" width="1056.691" height="434.281" transform="translate(431.654 4543.462)"/><path class="b" d="M486.459,4654.39h960.988m-960.988,50.431h960.988m-960.988,50.534h960.988m-960.988,50.514h960.988m-960.988,50.513h960.988"/><line class="b" y1="252.465" transform="translate(486.459 4654.39)"/><line class="b" x2="960.988" transform="translate(486.459 4906.854)"/><path class="b" d="M1426.86,4906.854v5.039m-106.352-5.039v5.039m-102.953-5.039v5.039m-106.516-5.039v5.039m-106.353-5.039v5.039m-102.952-5.039v5.039m-106.373-5.039v5.039m-102.952-5.039v5.039m-106.373-5.039v5.039m-99.577-5.039v5.039"/><path class="c" d="M546.52,4907.346h17.127l3.42.041,3.421-.041,3.544.041,3.421-.041H587.7l3.421-.143,3.42-.144,3.544-.123H604.9l3.4-.143h3.42l3.421-.143h3.38l3.564.143,3.442-.143,3.4-.123h3.421l3.4-.267,3.441.123,3.421-.409h6.944l3.4-.144,3.4.144h6.8l3.441.286,3.441-.143,3.523-.143,3.421.143,3.421-.143h3.421l3.4-.144h3.4l3.441.144,3.544-.267h6.821l3.4-.143,3.4.143h3.442l3.4-.143,3.421.143,3.564-.286h3.38l3.421.143H735.3l3.421-.266,3.38-.144,3.38.267,3.543.286,3.462.267,3.441-.267,3.421-.143,3.38-.41,3.38.267h3.462l3.584-.123,3.38-.41,3.38.123h3.4l3.462.43,3.462-.553,3.359-.143,3.421-.144h3.544l3.421-.123,3.4-.143,3.38.143,3.421.123,3.441.144,3.421-.144h6.944l3.4.144,3.5.143,3.462-1.106,3.318-.266,3.441-.144,3.544-.41,3.4-.266,3.461-.143,3.339-.8,3.38.676,3.482-.41h3.339l3.421.267h3.626l3.38-.533,3.441.41,3.4-.963,3.339.532h3.482l3.38-.389,3.523.533h3.5l3.4-.676,3.421.143,3.4-.819,3.441.266,3.482-.983,3.5-.656,3.339-.266,3.421.123,3.359-.266,3.462.7,3.4-.819,3.462.983,3.523-1.7,3.462-.266,3.359-.533,3.5.287,3.359-1.475,3.421.942,3.339-1.6,3.462,1.8,3.707-2.438,3.2-.245,3.4.676,3.565-.287,3.5-1.106,3.278-1.311,3.318.655,3.728-.287,3.564-1.7,3.421-2.6,3.36-1.762,3.052-1.454,3.564,3.707,3.6-4.322,3.134.492h3.728l3.339-1.6,3.175,1.024,3.6,1.291,3.667-1.311,3.38-2.315,3.3-.778,3.482-.533h3.544l3.523-2.253,3.318-1.6,3.175-.778,3.667,1.618,3.564-5.264,3.359-1.045,3.257-.778,3.319.655,3.5.574,3.4-.553,3.216.778,3.769,2.253,3.5-4.342,3.482.655,3.359-2.949,3.5,1.392,3.687-4.875,3.319-6.084,3.072-.614,3.421.266,3.441-.8,3.462,1.66,3.237-1.291,3.195,4.076,3.585,3.012,3.38.532,3.728,3.585,3.851-4.445,3.236-1.311,3.339-.8,3.441-.266,3.483-1.127,3.482-1.249,3.257-2.213,3.216,1.045,3.584.123,3.421.7h3.564l3.216-1.024,3.483,2.643,3.564-2.151,3.257.532h3.83l3.687-3.564,3.442-15.219,3.38-5.408,3.359-7.129,3.38-2.314,3.462-5.92,3.216-3.6,2.929-.123,3.339,6.657,3.666,2.212,4.138.164,3.38-94.39,2.458,3.073,3.6,4.629,4.035-.614,3.257-2.622,3.155,1.393,3.032.614,3.482,94,4.4-8.439,3.318-5.06,3.011-1.721,3.339,4.118,3.565-.84,3.195,1.536,3.318,1.987,3.565,4.425,3.42-.82,3.626,4.343,3.81-4.548h3.318l3.462-2.212,3.237-.512h3.134l3.687,3.667,3.544-4.1,3.4,1.434,3.339-1.475,3.154,2.274,3.5,2.232,3.421,1.106,3.257,1.946,3.667,5,3.851-2.662h3.5l3.155-3.79,3.2,3.708,3.687-.738h3.524l3.134-2.13,3.072,3.953,3.564,4.916,3.606,4.056,3.441-.143,3.523,3.523,3.441-1.659,3.2,2.54,3.81,1.987,3.441-3.175,3.073,3.072,3.585,2.295,3.3.143,3.36,4.711,3.4.943,3.36,5.387,3.871,2.519,3.728-1.024,3.339-1.761,3.257-.123,3.564.286,3.6-2.294.615.963-3.913,2.5-3.892-.307-2.929.1-3.236,1.7-4.322,1.209-4.507-2.95-3.277-5.223-3.339-.942-3.278-4.589-3.052-.123-3.953-2.54-2.4-2.376-3.216,2.97-4.629-2.4-2.7-2.172-3.544,1.7-3.728-3.749-3.482.143-4.015-4.486-3.564-4.957-2.417-3.093-2.52,1.721h-3.769l-4.24.84-2.745-3.175-2.642,3.154h-3.667l-4.486,3.093-4.179-5.694-2.949-1.762-3.442-1.106-3.646-2.335-2.663-1.9-3.2,1.393-3.073-1.291-3.81,4.4-4.219-4.219h-2.561l-2.929.471-3.544,2.273h-3.113l-4.343,5.183-4.035-4.855-3.442.82-3.892-4.835-3.093-1.843-2.806-1.352-3.871.942-3.175-3.953-1.926,1.126-3.134,4.773-6.37,12.208-3.606-97.4-2.273-.471-2.622-1.147-2.97,2.356-5,.778-4.015-5.162-.533-.655-3.318,92.444-5.551-.205-4.22-2.54-3.134-6.289-1.741.082-2.807,3.134-3.523,6.064-3.339,2.273-3.257,6.9-3.318,5.306-3.462,15.383-4.281,4.1h-4.384l-2.929-.471-3.871,2.335-3.626-2.765-2.827.9h-3.83l-3.462-.676-3.646-.143-2.827-.922-2.909,1.987-3.646,1.311-3.625,1.167-3.483.267-3.175.758-2.908,1.167-4.445,5.142-4.323-4.159-3.359-.532-3.912-3.278-2.745-3.5-2.909,1.167-3.564-1.7-3.216.737-3.441-.266-2.4.471-3.093,5.695-4.281,5.653-3.646-1.474-3.257,2.867-3.36-.635-3.707,4.589-4.445-2.684-2.827-.676-3.359.533-3.708-.594-3.093-.615-2.991.717-2.929.9-3.871,5.735-4.179-1.844-2.684.635-3.154,1.516-3.749,2.4h-3.789l-3.339.512-3.052.737-3.319,2.274-4.2,1.5-3.974-1.413-2.724-.881-3.155,1.516h-4.076l-2.581-.41-4.015,4.814-3.892-4.035-2.273,1.085-3.257,1.7-3.442,2.6-3.851,1.864-4.1.307-3.155-.635-2.991,1.209-3.666,1.168-3.851.307-3.4-.676-2.745.205-4.036,2.642-3.543-1.843-3.216,1.536-3.442-.963-3.257,1.434-3.625-.287-3.3.533-3.3.246-3.708,1.782-3.6-1.025-3.339.82-3.543-.717-3.278.266-3.421-.143-3.216.266-3.38.656-3.646,1-3.441-.266-3.38.8-3.441-.123-3.38.676h-3.728l-3.441-.533-3.278.39h-3.666l-3.175-.513-3.38.943-3.5-.41-3.318.533h-3.749l-3.421-.287h-3.236l-3.585.43-3.318-.656-3.216.779-3.544.143-3.339.267-3.585.409-3.441.144-3.2.245-3.5,1.127-3.728-.143-3.38-.144h-6.883l-3.441.144-3.482-.144-3.421-.143-3.339-.123-3.359.123-3.442.143h-3.543l-3.38.144-3.319.123-3.543.573-3.565-.43H779.9l-3.319-.123-3.339.389-3.646.144h-3.523l-3.3-.267-3.318.39-3.442.143-3.523.287-3.544-.287-3.564-.266-3.3-.267-3.277.123-3.462.287h-3.5l-3.421-.143H725.1l-3.585.266-3.441-.123-3.38.123h-3.482l-3.38-.123-3.38.123h-6.78l-3.585.287-3.482-.144h-3.359l-3.4.144h-3.42l-3.442.123-3.421-.123-3.482.123-3.5.143-3.461-.266h-6.781l-3.379-.144-3.38.144h-6.9l-3.442.409-3.461-.143-3.38.266h-3.442l-3.379.144-3.483.143-3.584-.143h-3.339l-3.421.143h-3.4l-3.421.123H598.1l-3.524.143-3.42.144-3.442.123H577.453l-3.421.041-3.544-.041-3.421.041-3.42-.041H546.52Z"/><path class="d" d="M515.632,4907.407h44.614l3.421-.061h13.786l3.421-.143h3.4l3.421-.144h3.421l3.42-.123,3.544-.143h3.4l3.421-.143,3.421-.123,3.421-.144,3.421-.266,3.421-.287,3.543-.266,3.421-.266,3.421-.287,3.421-.266,3.441-.554,3.421-.553,3.4-.676,3.36-.266h3.543l3.442-.266,3.441-.287,3.421-.676,3.4-.41,3.441-.409,3.442-.7,3.5-.942,3.339-.123h3.38l3.4.266,3.565.287,3.5-1.557,3.36-.942,3.523-.942,3.462-.553,3.5-1.557,3.461-2.048,3.278-1.987,3.3-.123,3.441-.553,3.421-.41,3.5-.676,3.42.287,3.524-.86,3.441-1.107,3.482-1.249,3.462-2.212,3.38-2.151,3.462-1.475,3.441-.676,3.421-1.925,3.4-.82,3.38-1.618,3.339-.533,3.359-.553h3.646l3.565-1.843,3.359-2.008,3.441-.962,3.421-2.479,3.318-1.065,3.421-1.086,3.4-1.085,3.379-.922,3.462.983,3.462-1.393,3.359.266,3.442-.819h3.257l3.318,1.188,3.769,1.311,3.626-1.6,3.461-1.8,3.216-2.069,3.237.778,3.5.287,3.461-.287,3.524-.409H852l3.277.389,3.4,1.638,3.523.7,3.523.143,3.4-.676,3.359.41,3.564-.143,3.421.143h3.564l3.5-2.089,3.257-.922,3.359-.144,3.462-.122,3.482-.676,3.3.532,3.36.656,3.5,1.556,3.483-.7,3.379.676,3.421-.266,3.442.655,3.543.983,3.646-.86,3.339-2.007,3.278.123,3.4-.267,3.359.41,3.544.287,3.564-1.373,3.257.267,3.421.532,3.482.144,3.483-.267,3.421-.7,3.359-.41h3.585l3.379-.676,3.278.266,3.482,1.107,3.441-.533,3.421.676,3.483-.553,3.5-.287h3.38l3.564.144,3.339-1.967,3.257,1,3.278.143,3.584,3.3,3.544-2.274,3.421,1.168,3.441-.41,3.36.82,3.461.123,3.544.43,3.359-1.619,3.339,1.086,3.564-.7,3.278.778,3.482,1.27,3.585-.143,3.482-.984,3.2-.757,3.359,1.741,3.667-.144,3.3.144,3.461,1.229,3.5-.287,3.421.143,3.462-.553,3.339-.266,3.379.41h3.687l3.339-1.209,3.257.922,3.442.7,3.4.676,3.339.8,3.38,1.5,3.707,1.413,3.442-.41,3.379.8,3.442.143,3.482.287,3.359-.676,3.38,1.086,3.5-.41,3.421,1.926,3.421-.553,3.134,1.5,3.461,4.978,3.77.757,3.461-.962,3.38.123,3.564-.82,3.38.144,3.687-.451,3.339-4.138,3.052.615,3.462,1.106h3.462l3.523.532,3.441.431h3.3l3.36,1.864,3.564.86h3.4l3.482.84,3.483-.84,3.441.143,3.441.41,3.544-.143,3.339-1.209,3.3.8,3.339.123,3.441,1.8,3.687-.144,3.38-.143,3.257.389,3.441,1.925h3.544l3.38.287,3.421.267,3.482.409,3.236.9,3.483,3.483,3.625-.144,3.442.123,3.379-.389,3.36.533,3.482.409,3.769-.43,3.278-2.376,3.113,1.127,3.421,1.5,3.5,1.27,3.5.287h6.924l3.38.8,3.5.43,3.4-.144,3.4.41,3.421.143,3.38.267,3.421.655,3.5,2.11,3.646-.737,3.257-.779,3.236,1.311,3.482,1.25,3.544.43,3.421-.287,3.5.266,3.584.431,3.524-1.967,3.523-1.126,3.38-4.568,3.113-.123,3.626.143,3.646-3.38,3.052-1.352,3.359,2.028,3.3-.676,3.4,3.81,3.728-.45,3.339-.533,3.462.389,3.5.7,3.441-.676,3.462.266,3.483-1.393,3.379-.532.185,1.126-3.257.512-3.6,1.455-3.585-.287-3.5.7-3.687-.737-3.257-.369-3.216.512-4.322.512-3.359-3.748-3.093.614-3.237-1.925-2.335,1.024-3.851,3.564-4.056-.164-2.54.1-3.236,4.424-3.79,1.209-3.748,2.11-3.933-.471-3.38-.267-3.441.287-3.769-.471-3.626-1.291-2.95-1.188-2.909.717-4.1.8-3.728-2.212-3.155-.615-3.277-.266-3.462-.143-3.339-.39-3.421.123-3.646-.43-3.3-.8h-6.842l-3.707-.286-3.687-1.332-3.4-1.5-2.519-.922-3.052,2.192-4.179.491-3.646-.43-3.216-.512-3.318.389-3.483-.143-4.076.164-3.626-3.626-2.867-.8-3.38-.389-3.38-.266-3.339-.266h-3.79l-3.523-1.967-2.929-.348-3.277.123-4.015.164-3.483-1.823-3.2-.123-3.073-.738-3.175,1.147-3.81.144-3.482-.41-3.257-.123-3.585.86-3.6-.86h-3.42l-3.831-.922-3.236-1.823h-3.073l-3.544-.43-3.441-.512h-3.564l-3.565-1.147L1189,4870l-3.2,3.974-4.24.512-3.318-.144-3.544.82-3.38-.123-3.544.983-4.486-.9-3.564-5.1-2.519-1.208-3.462.553-3.462-1.946-3.359.389-3.339-1.065-3.216.655-3.626-.307-3.543-.123-3.278-.8-3.523.43-3.994-1.536-3.3-1.454-3.237-.779-3.38-.676-3.482-.7-2.95-.819-3.175,1.147h-3.953l-3.359-.41-3.175.246-3.5.573-3.482-.143-3.688.287-3.5-1.25-3.093-.123-3.933.144-3.257-1.68-2.745.656-3.585,1-3.953.164-3.626-1.311-2.97-.717-3.6.7-3.2-1.024-3.236,1.556-3.851-.45-3.5-.144-3.277-.778-3.5.41-3.155-1.086-3.81,2.437-3.933-3.6-3.011-.1-2.888-.9-3.2,1.884-3.892-.164h-3.319l-3.4.267-3.667.573-3.4-.676-3.523.553-3.6-1.147-2.991-.246-3.339.676h-3.6l-3.257.389-3.441.7-3.626.287-3.6-.144-3.462-.553-2.95-.246-3.543,1.373-3.851-.307-3.278-.39-3.339.267-3.011-.123-3.2,1.925-4.1.983-3.769-1.065-3.257-.614-3.421.266-3.318-.655-3.606.717-3.728-1.639-3.2-.656-3.093-.491-3.38.655-3.544.144-3.216.123-2.99.839-3.626,2.172h-3.933l-3.38-.123-3.6.143-3.277-.41-3.339.676-3.769-.143-3.749-.758-3.359-1.618-3.032-.348H848.7l-3.482.389-3.564.287-3.687-.287-2.848-.676-2.847,1.823-3.544,1.844-4.076,1.782-4.2-1.434-3.134-1.147h-2.909l-3.482.839-3.3-.266-3.564,1.434-3.524-.983-3.052.819-3.38,1.086-3.42,1.086-3.155,1.024-3.441,2.478-3.482.963-3.257,1.966-3.831,1.987H769.7l-3.278.533-3.175.492-3.359,1.618-3.36.8-3.441,1.925-3.5.717-3.257,1.373-3.3,2.109-3.564,2.274-3.625,1.311-3.5,1.127-3.749.9-3.441-.287-3.38.656-3.441.409-3.482.553-3.073.123-3.052,1.823-3.5,2.11-3.707,1.639-3.544.553-3.462.942-3.277.922-3.708,1.618-3.851-.307-3.339-.266h-3.318l-3.175.123-3.421.921-3.544.717-3.462.41-3.359.41-3.441.676-3.523.286-3.483.287h-3.543l-3.237.246-3.359.676-3.442.553-3.482.553-3.482.287-3.421.266-3.4.267-3.544.286-3.421.267-3.441.286-3.462.123-3.4.144-3.462.143h-3.4l-3.524.123-3.441.143h-3.421l-3.421.144h-3.4l-3.421.123H563.667l-3.421.082H515.632Z"/><path class="e" d="M539.656,4907.407h37.8l3.421-.061,3.4-.143h6.842l3.4-.144h3.564l3.4-.123h6.842l3.441-.286,3.38-.267h3.421l3.564-.266,3.442-.287,3.4-.532,3.38-.144,3.4-.143h3.462l3.421-.533,3.4-.287,3.523-.266h6.821l3.4-.266,3.4.266,3.462-.143,3.421-.266,3.523-.144h3.421l3.4-.266,3.462.143,3.4-.819,3.319.123,3.4.409,3.6.287,3.441-.143,3.421-.144,3.38-.122,3.4.266,3.462-.144,3.421-.122,3.441-.41,3.524-.41,3.359-.143,3.38.41,3.4.143,3.441.553,3.442-.143,3.359.266,3.585.41,3.5-.144,3.42-.532,3.421-.41,3.544-.574,3.462-2.089,3.38-1.352,3.543-1.5,3.421-1.373,3.441-1.516,3.462-1.8,3.339-2.376,3.318-.41,3.483-1.249,3.4-1.23,3.544-1.085,3.318-1.065h3.36l3.5-.287,3.442-1.106,3.4-.676,3.462-.963,3.625-1.249,3.544-2.274,3.421-3.974,3.38-2.417,3.421-2.909,3.6-3.3,3.4-44.88,2.806-.881,3.769,4.67,3.769-8.767,3.421-7.128,3.442-9.853,2.581-7.989,3.154,30.091,3.769,2.868,3.954-.164,3.6-3.154,3.38-4.077,3.031-1.925,3.093,1.966,3.462,2.909,3.5,1.25,3.605,1.392,3.257.39,3.236,4.014,3.851,7.416,3.667-6.309,3.3,1.577,3.789-3.626,2.95-6.944,3.093,11.1,3.626.431,3.154,2.4,3.4,10.468,3.728,3.728,3.359-.676,3.687,5.182,3.564-5.756,2.971,3.913,3.461,2.478,3.462,3.052,3.442,1.393,3.461,2.5,3.483.41,3.543,1.639,4.118.491,3.42-72.964,2.643.1,3.81,3.359,3.584-6.8,2.745.04,3.606,5.552,3.134-.758,3.42,74.5,4.179-.676,3.093-2.335,3.278,4.055,3.646-.716,3.277.512,3.605,1.249,3.339-.266,3.3,2.253,3.728,1.352,3.421-1.782L1044.1,4869l3.5-.717,3.421.144,3.3.778,3.421,1.782,3.359.676,3.462,2.909,3.5-.123,3.379,1.475,3.5.266,3.462,2.212,3.523-.266,3.38.676,3.441.123,3.442.409,3.441-.266h3.462l3.625-.84,3.38-1.085,3.339-.123,3.462-.287,3.38-.676h3.3l3.462.84,3.482-.533,3.4,1.475,3.421-.266,3.339,1.475,3.462.7,3.461.676,3.524.287,3.625-.84,3.216-.635,3.462,1.8,3.544-1.27,3.277.123,3.441.266,3.421-.123,3.319.266,3.646.983,3.523-.983,3.318-.409,3.36.266,3.482.143,3.339-.409,3.441.983,3.5-.82,3.114,1.639,3.5,4.056,3.708.287,3.646-.43,3.38-3.114h3.257l3.523-.717,3.708-1.413,3.359-3.36,3.114-.389,3.175.635,3.4,3.257,3.544,1,3.543,1,3.647-.84h3.379l3.442-.553,3.339-.267,3.441.267,3.441-.553h3.278l3.564,1.106,3.4-.267,3.4,1.209h3.236l3.626,4.793,3.748-3.585,3.2-.512h3.236l3.6,1.516,3.524-.7,3.625.143,3.216-3.851,3.073,2.97,3.666.881,3.585-.43,3.5-1.352,3.236.266,3.5.84,3.421-.963,3.339.8h3.4l3.4.963,3.585.266,3.523.43,3.319-1.065,3.359,1.619,3.544-.431h3.4l3.36-.266,3.42.676,3.626-.41,3.38-.143,3.359-.123,3.339.533,3.441.819,3.483.143h3.4l3.5.267,3.38.532,3.523.717,3.4-.676,3.339.8,3.441.266,3.462.553,3.544-.409,3.605.573,3.421-3.011,3.3.41,3.421-1.229,3.3.389-.123,1.127-3.052-.369-3.421,1.229-3.052-.369-3.442,3.032-3.974-.635-3.543.41-3.585-.574-3.482-.266-3.175-.779-3.38.676-3.708-.737-3.318-.533-3.421-.266h-3.38l-3.6-.143-3.523-.84-3.175-.512-3.257.143-3.339.123-3.749.43-3.441-.676-3.257.246h-3.38l-3.81.471-3.236-1.557-3.134.984-3.728-.451-3.687-.266-3.36-.943h-3.38l-3.175-.758-3.42.943-3.708-.881-2.888-.246-3.4,1.311-3.912.471-4.158-1-2.438-2.315-2.786,3.318-4.035-.164-3.728.758-3.728-1.577h-2.929l-2.745.451-4.425,4.219-4.056-5.346h-2.867l-3.339-1.209-3.38.267-3.605-1.106h-3.032l-3.482.553-3.482-.287-3.2.266-3.482.553h-3.36l-3.789.881-3.831-1.086-3.83-1.065-3.359-3.236-2.663-.512-2.561.307-3.236,3.236-4.036,1.557-3.728.738h-2.908l-3.319,3.072-4.138.492-4.281-.348-3.666-4.241-2.561-1.331-3.359.778-3.5-.983-3.216.389-3.585-.143-3.277-.266-3.114.368-3.728,1.045-3.851-1.024-3.154-.266-3.421.143-3.482-.287-3.052-.123-3.79,1.373-3.544-1.844L1151,4881l-3.789.86-3.769-.287-3.524-.717-3.584-.717-3.2-1.393-3.4.267-3.36-1.475-3.4.512-3.544-.84h-3.031l-3.36.676-3.543.266-3.216.144-3.257,1.044-3.81.881h-3.544l-3.5.267-3.523-.41-3.482-.143-3.3-.656-3.749.287-3.543-2.253-3.421-.267-3.319-1.454-3.666.143-3.585-3.011-3.236-.655-3.442-1.782-3.031-.738-3.2-.123-3.646.738-3.155-1-3.441,1.782-4.322-1.557-3.093-2.11-3.175.267-3.749-1.311-2.949-.471-4.138.839-3.011-3.748-2.438,1.843-5.735.922-3.4-74.4-2.581.614-3.707-5.715-1.455-.02-3.932,7.456-4.589-4.036-1.126-.041-3.4,73.046-5.51-.655-3.544-1.639L968,4859.8l-3.606-2.581-3.5-1.414-3.565-3.134-3.564-2.56-2.048-2.724-3.605,5.8-4.261-5.96-3.216.635-4.363-4.343-3.359-10.406-2.622-1.987-4.1-.491-2.417-8.686-1.762,4.159-4.527,4.342-3.052-1.475-4.179,7.19-4.772-9.156-2.868-3.544-2.95-.368-3.728-1.434-3.667-1.311-3.564-2.991-2.417-1.536-2.253,1.454-3.339,3.994-3.974,3.483-4.752.184-4.507-3.421-2.642-25.236-.942,2.888-3.442,9.935L857,4816.274l-4.527,10.488-4.465-5.551-1.332.43-3.38,44.553-3.933,3.625-3.482,2.93-3.318,2.376-3.442,3.994-3.789,2.438-3.79,1.311-3.523.983-3.38.676-3.5,1.127-3.688.286h-3.215l-3.176,1.024-3.523,1.086-3.359,1.209-3.6,1.29-3.175.389-3.155,2.274-3.564,1.864-3.5,1.536-3.421,1.352-3.543,1.516-3.3,1.311-3.585,2.151-3.769.614-3.421.41-3.482.553-3.646.144-3.646-.431-3.278-.266-3.482.144-3.482-.554-3.38-.122-3.36-.41-3.2.123-3.482.409-3.483.41-3.482.144-3.523.143-3.4-.287-3.319.144-3.421.143-3.5.123-3.687-.266-3.38-.41-3.114-.123-3.421.819-3.543-.143-3.38.266H673.6l-3.482.144-3.421.266-3.543.143-3.38-.266-3.339.266H649.6l-3.482.267-3.339.266-3.482.553h-3.523l-3.38.143-3.3.123-3.38.533-3.482.287-3.626.286h-3.4l-3.36.267-3.482.266H601.5l-3.4.143h-3.565l-3.4.144h-6.842l-3.379.123-3.462.082h-37.8Z"/><path class="f" d="M549.943,4907.407h24.089l3.421-.061h13.663l3.4-.143H604.9l3.4-.144h10.242l3.584-.123,3.4-.286h3.4l3.421-.123,3.4-.144h3.441l3.421-.409,3.421-.144,3.544-.409,3.359-.123,3.441.266,3.421-.41,3.38.144H670l3.564.266,3.442-.143,3.38-.267,3.42.287,3.421-.143,3.4.123,3.42-.123,3.524.123,3.42.143h3.462l3.4-.266h3.4l3.441-.144,3.421-.266,3.4-.143,3.565-.144,3.4-.266H731.9l3.4-.266,3.38.122h3.462l3.4-.266h6.924l3.42.144,3.421.122,3.421-.122h6.821l3.544.122h3.441l3.421-.266h3.4l3.442-.143,3.4-.266,3.441-.144,3.4-.41,3.523-.122,3.441-.144,3.38-.266,3.4.123h3.462l3.462-.41,3.4-.819,3.524-.123,3.42-.41,3.442-.287,3.441-.676,3.421-.819,3.359-.676,3.4-.143,3.606-.553,3.42-.676,3.257-.656,3.483,1.25,3.482-1.537,3.339.267,3.462-.553,3.379-.267,3.544-.286,3.585-.123,3.359-2.438,3.319.533,3.523-1.127,3.359-.942,3.38-.41,3.585-.553,3.523-.7,3.482-2.233,3.36-1.741,3.4-1.373,3.421-1.638,3.318-1.189,3.564-.553,3.4-1.352,3.236-.266,3.482.7,3.38-1.066,3.38,1.209,3.6-.86,3.421-1.086,3.5-.819,3.5-.553,3.441-2.069,3.4-.82,3.36-1.884,3.318-.123,3.441-.553,3.565-.676,3.482-.7,3.441-1.515,3.359-.943,3.442-.839,3.482-1.393,3.359-1.864,3.606-.553,3.42-2.889,3.36-.676,3.441-1.925,3.4-1.086,3.462-1.659,3.544-1.844,3.38-4.875,3.318-1.147,3.155-.246,3.523,2.11,3.769-1.966,3.318-3.3h3.012l3.338,1.987,3.749,1.311,3.626-.594,3.359-1.741,3.134.389,3.5,1.679,3.666-.737,3.339-1.475,3.5.287,3.5-1.127,3.3-.8,3.257.39,3.3,1.065,3.482,2.233h3.38l3.482,3.072,3.933-1.208,3.462-2.356,3.318-1.721,3.339-.676,3.216-.758,3.523,1.967,3.38-2.315,3.2,2.233,3.461,3.052,3.626,1.434,3.728-.143,3.421-3.134,3.154-.123,3.339.389,3.524.819,3.379.8,3.3,1.332,3.257,2.621,3.462,5.367,3.564,1.864,3.482,1.393,3.421.676,3.462,1.475,3.5,1.946,3.482.143,3.318,1.066,3.421,1.229,3.38,1.085,3.441,1.659,3.626.84,3.462.553,3.482.267,3.4-.267,3.359.41,3.421.266,3.461.267,3.483-.123,3.462-.676,3.379.942,3.483-.266,3.441.123,3.482-.554,3.278-.655,3.277.922,3.585,1.106,3.462.553,3.441.41,3.339.123,3.359,1.352,3.523,1.126,3.544-.143,3.585-.553,3.318-.533,3.38.533,3.462-.123h3.4l3.441.123,3.421-.533,3.319.123,3.6.553,3.5-.41,3.441-.7,3.38-.676,3.38-.123,3.379-.41,3.5.41,3.687-1.823,3.278-1.311,3.3.123h3.523l3.38-1.209,3.421.553,3.379-1.352,3.339,1.025,3.442,1.106,3.564.717,3.441-.7,3.38.41,3.421-.287,3.462.144,3.42-.82h3.483l3.379.144,3.38.389,3.36.553,3.482.963,3.523-.267,3.339-.266,3.585.533,3.5-.553,3.339-.533,3.4.266,3.4-.409,3.38.553h3.544l3.564-1.106,3.216-.123,3.482,1.249,3.544-.86,3.339-.389h3.42v1.126h-3.359l-3.195.389-3.831.922-3.564-1.29-2.868.1-3.584,1.106h-3.811l-3.3-.532-3.36.409-3.38-.266-3.216.512-3.666.594-3.626-.573-3.216.266-3.707.287-3.606-1-3.3-.533-3.3-.389-3.319-.123h-3.318l-3.442.82-3.543-.144-3.483.287-3.318-.41-3.482.7-3.851-.758-3.483-1.127-2.97-.9-3.3,1.311-3.441-.553-3.277,1.188h-3.749l-3.072-.123-3.012,1.188-3.953,1.987-3.708-.451-3.277.39-3.359.143-3.278.656-3.482.7-3.708.43-3.687-.553-3.154-.143-3.4.553-3.564-.144H1287.9l-3.543.144-3.319-.533-3.154.512-3.647.553-3.809.164-3.749-1.208-3.2-1.27-3.195-.144-3.523-.409-3.564-.574-3.626-1.127-3.011-.839-3.032.614-3.626.574-3.482-.144-3.6.287-3.318-.922-3.3.635-3.626.144-3.523-.287-3.442-.266-3.277-.39-3.38.267-3.625-.287-3.544-.574-3.79-.88-3.462-1.66-3.338-1.065-3.421-1.229-3.155-1.024-3.584-.143-3.708-2.049-3.3-1.413-3.4-.676-3.626-1.455-3.892-2.027-3.5-5.47-3.011-2.4-3.052-1.229-3.3-.779-3.441-.8-3.2-.389-2.642.1-3.421,3.154-4.4.164-4.015-1.6-3.564-3.134-2.519-1.741-3.3,2.253-3.769-2.089-2.786.655-3.216.656-3.114,1.618-3.523,2.4-4.711,1.454-3.646-3.216H1091.7l-3.646-2.335-3.052-.963-2.95-.348-3.052.717-3.667,1.188-3.461-.266-3.2,1.393-4.138.84-3.687-1.762-2.6-.307-3.2,1.659-4.1.655-4.138-1.434-3.155-1.905h-2.232l-3.094,3.114-4.506,2.335-3.749-2.253-2.662.2-2.827.983-3.319,4.793-3.81,1.987-3.564,1.7-3.359,1.066-3.483,1.966-3.256.655-3.442,2.889-3.728.573-3.236,1.823-3.626,1.455-3.5.84-3.277.9-3.462,1.536-3.6.717-3.585.7-3.544.553-3.093.122-3.277,1.844-3.38.8-3.482,2.089-3.667.594-3.441.779-3.4,1.085-3.974.963-3.339-1.208-3.278,1.044-3.625-.717-2.909.246-3.359,1.332-3.585.553-3.175,1.147-3.38,1.618-3.4,1.352-3.257,1.7-3.626,2.315-3.769.758-3.605.553-3.318.409-3.257.9-3.769,1.208-3.114-.491-3.257,2.335-3.912.164-3.5.266-3.36.266-3.543.574-3.175-.266-3.646,1.618-3.606-1.311-2.949.594-3.462.7-3.687.553-3.36.144-3.256.655-3.421.82-3.544.7-3.482.287-3.442.409-3.441.144-3.359.8-3.6.43h-3.544l-3.359-.123-3.339.266-3.442.123-3.482.144-3.421.409-3.441.144-3.421.266-3.482.143H780l-3.421.267h-3.5l-3.543-.144h-6.76l-3.462.144-3.482-.144-3.38-.123h-6.862l-3.4.267h-3.524l-3.338-.144-3.38.287h-3.421l-3.38.266-3.585.144-3.38.123-3.4.286-3.482.123h-3.38l-3.421.287h-3.523l-3.441-.143-3.483-.144-3.42.144-3.4-.144-3.462.144-3.379-.267-3.3.267-3.544.143-3.585-.287h-6.8l-3.319-.123-3.441.41-3.482-.287-3.257.144-3.544.409-3.4.123-3.462.43h-3.482l-3.38.123-3.442.144H625.57l-3.38.266-3.626.143H608.343l-3.421.144H594.536l-3.4.123H577.453l-3.4.082H549.943Z"/><path class="g" d="M488.174,4907.407h82.314l3.544-.061H598.08l3.4-.143h10.242l3.421-.144,3.4-.123h3.564l3.421-.286,3.42-.123,3.421-.287,3.4-.123,3.42-.287h3.421l3.421-.409,3.523-.267h3.4l3.461-.143,3.421-.533,3.38-.143,3.421-.266,3.462-.144,3.543-.819,3.339-.123,3.462.123,3.5-.84,3.4-.8,3.421-.7,3.339-.943,3.482.144,3.482-.144,3.38-.532,3.421.123,3.462-.676,3.318-.267,3.4.41h3.482l3.585-.553,3.461-.43,3.4-1.086,3.461-.409,3.442-1.516,3.38-.963,3.359-1.065,3.462-.266,3.5.143,3.5-1.413,3.319-1.045h3.4l3.5-1.127,3.339-.942,3.5-.123,3.4-.553,3.482.143,3.544-1.413,3.461-1.946,3.216-1.925,3.319.942,3.564-1,3.626-.983,3.38-1.885,3.277-.389,3.3-.266,3.544,1.27,3.461-2.069,3.237.656,3.585.143,3.789.287,3.544-7.375,3.339-4.014,3.216-2.684,3.236.123,3.523-.41,3.626-1.27,3.032-1.331,3.175,4.076,3.543,2.684,3.667,1.474,3.585-1,3.421-.82,3.461-1.106,3.524-1.495,3.359-.676,3.482-.84,3.319-1.577,3.687.43,3.543-9.054,3.216-3.462,3.462-.676,3.4-2.171,3.318-.532,3.564-.861,2.888-2.11,3.2,8.194,3.585,3.441,3.584,1.639,3.483,2.519,3.523.554,3.38.676,3.482.983,3.5-.144,3.605-.143,3.421-2.745,3.42-.389,3.4-.676,3.359-.143,3.4-.144h3.38l3.4.41,3.277.143,3.5,2.294,3.646.717,3.5-.839,3.359-.39,3.257-.143,3.441,1.516,3.687-.451,3.565-2.315,3.257-.532h3.5l3.421-1.762,3.319-.143,3.338-.41,3.155.635,3.4,3.4,3.728,1,3.544.574,3.421-.7,3.3.41,3.441.819h3.749l3.523-4.076,3.4-1.966,3.2-1.025,3.339.922,3.789-.143,3.462-5.1,3.032-.737,3.195,1.024,3.5,2.151,3.5,2.089,3.5.7,3.175.778,3.36,4.978,3.646,2.028,3.544.43h3.359l3.564,1.229,3.523-.144,3.442-.122,3.318-.533,3.3,1.045,3.4.962,3.524,1.27,3.687-.573,3.461-.41,3.339-1.208,3.462.7,3.421-1.9,3.257.512h3.421l3.584.41,3.2-.369,3.359,3.749,3.544.43,3.482,1.393,3.564-.43,3.38-.41,3.175-.123,3.708,3.3,3.646-2.622h3.155l3.195.758,3.277,3.421,3.647,4.219,3.707-1.024,3.5-.41,3.359-.266,3.421.266,3.667-.286,3.544-3.565,3.072-2.806,3.134,2.253,3.564.574,3.544.553,3.38.41,3.359.921,3.421,1.373,3.544.717,3.441-.144,3.441.144,3.544-.287h3.3l3.318,1.209,4.1,1.618,3.442-29.456h2.683l3.3,2.765,3.81,2.5,3.626-1.434,3.4-.286,2.806-1,3.38,29.415h4.117l3.5-2.643,3.114-1.126,3.523,1.475,3.564-.861,3.441-.532,3.36-1.086,3.4.144,3.5-.984,3.4-.819,3.544-.819,3.339-.922,3.318.266,3.523.143,3.462-1.126,3.3-.389,3.339.409,3.441.533,3.585,1.7,3.605-1.577,3.339-.942,3.339-.39,3.462-.143,3.4-.942,3.441.123,3.524-1.475,3.359.532,3.482-.839,3.482-.267,3.442-1.659,3.4-.819,3.032-1.209,3.4,4.978,3.646,1.024,3.626.573,3.38-1.618,3.318.922,3.421-.266,3.769.9,3.708-7.722,3.257-3.769,2.765-.656,3.728,8.808,3.728-8.214,2.95,1.045-.39,1.065-1.946-.7-4.383,9.628-4.363-10.3-1.475.348-2.909,3.38-4.056,8.4-4.486-1.065-3.441.266-3.093-.86-3.3,1.6-4.056-.656-4.1-1.147-3.134-4.568-2.254.9-3.359.8-3.523,1.7-3.6.287-3.626.86-3.257-.512-3.441,1.455-3.544-.144-3.339.943-3.544.143-3.216.389-3.175.881-4.015,1.782-3.892-1.884-3.277-.492-3.175-.389-3.052.368-3.544,1.127-3.748-.143-3.155-.246-3.154.881-3.585.819-3.359.819-3.647,1.025-3.379-.144-3.257,1.045-3.483.553-3.892.942-3.441-1.475-2.54.922-3.667,2.786h-5.51l-3.339-29-1.6.573-3.4.267-3.994,1.6-4.384-2.847-3.011-2.54h-1.27l-3.5,29.927-5.449-2.192-3.114-1.106h-3.031l-3.585.266-3.462-.122-3.544.143-3.769-.758-3.461-1.393-3.2-.9-3.318-.389-3.585-.553-3.81-.615-2.622-1.884-2.356,2.171-3.83,3.83-4.179.349-3.421-.287-3.257.266-3.379.389-4.323,1.209-4.1-4.732-3.032-3.154-2.724-.656h-2.663l-4.077,2.929-4.055-3.584-2.663.1-3.339.389-3.851.471-3.6-1.454-3.851-.451-3.237-3.646-2.724.328-3.667-.41h-3.441l-2.97-.491-3.442,1.946-3.564-.717-3.154,1.126-3.585.43-3.933.615-3.769-1.352-3.38-.963-3.072-.962-3.093.491-3.524.144-3.728.143-3.584-1.229h-3.237l-3.851-.471-4.056-2.274-3.277-4.834-2.724-.656-3.688-.737-3.666-2.212-3.38-2.069-2.765-.881-2.295.553-3.543,5.2-4.527.184-3.2-.881-2.745.881-3.134,1.8-3.748,4.342h-4.384l-3.523-.86-3.052-.348-3.441.676-3.81-.594-4.077-1.106-3.359-3.38-2.643-.512-3.215.368-3.094.144-3.441,1.782h-3.707l-2.909.471-3.585,2.335-4.281.512-3.462-1.536-2.97.123-3.236.389-3.688.881-4.1-.819-3.442-2.233-3.011-.123-3.38-.41h-3.277l-3.38.144-3.277.123-3.339.676-3.134.348-3.483,2.786-3.973.163-3.667.144-3.626-1.024-3.318-.656-3.769-.614-3.6-2.581L919.6,4857l-3.892-3.728-2.745-7.067-1.9,1.393-3.81.922-3.113.492-3.4,2.171-3.318.635-2.806,3.032-3.79,9.668-4.22-.491-3.134,1.5-3.625.86-3.278.656-3.461,1.474-3.544,1.127-3.441.84-3.933,1.086L858,4869.9l-3.769-2.867-2.725-3.5-2.273,1-3.79,1.311-3.728.45-2.888-.123-2.786,2.356-3.2,3.81-3.831,7.968-4.527-.368-3.666-.144-2.889-.573-3.543,2.13-3.831-1.393-3.011.246-3.052.369-3.3,1.843-3.749,1.024-3.871,1.065-3.155-.88-2.806,1.679-3.544,1.987-3.851,1.537-3.605-.144-3.339.533-3.462.143-3.175.881L763,4891.41h-3.42l-3.094,1-3.707,1.475-3.667-.143-3.257.245-3.257,1.045-3.318.922-3.544,1.557-3.5.43-3.4,1.086-3.564.43-3.646.553h-3.646l-3.339-.41-3.155.266-3.5.7-3.441-.144-3.359.533-3.585.143-3.339-.123-3.216.9-3.441.7-3.38.8-3.646.881-3.585-.143-3.2.122-3.544.82-3.544.143-3.4.287-3.359.123-3.4.553-3.564.143H649.6l-3.441.267-3.482.409h-3.442l-3.379.267-3.421.143-3.421.266-3.4.144-3.442.266h-3.584l-3.38.143-3.462.144H601.5l-3.4.123H574.052l-3.564.082H488.174Z"/><path class="h" d="M549.943,4907.407h17.124l3.421-.061h3.544l3.421-.143h6.821l3.421-.144H598.08l3.421-.123,3.421-.143,3.421-.266,3.441-.144,3.421-.676,3.38-.286,3.543-.267,3.442-.266,3.4-.41,3.4-.143,3.4-.266h3.42l3.5-.287,3.4-1.229h6.821l3.482.43,3.5-.983,3.339-.533,3.359-.123,3.523.266,3.687-1.7,3.442-1.782,3.3-1.843,3.339-.144,3.483-.962,3.461-.984,3.4-1.638,3.339-.758,3.379,1.085,3.626-.43,3.523-1.557,3.483-1.946,3.339-2.806,3.236-.512,3.544-.43,3.543-2.581,3.319-.143,3.4-1.209h3.278l3.461.553,3.544-.574,3.319-1.065,3.523.533,3.441-.676,3.441.123,3.442-.963,3.461-.123,3.5-1.823,3.441-1.372,3.626-2.254,3.38-3.093,3.2-1.147,3.421.144,3.319-1.209,3.3,1.332h3.379l3.524,1.966,3.81-1.475,3.543-1.68,3.3-3.564,3.278.267,3.482-1.537,3.462-.553,3.216-2.192,3.093,1.783,3.667,7.62,3.871-3.421,3.216-.758h6.862l3.339-1.209,3.83,1.045,3.237-6.985,3.216,3.994,3.851-3.543,3.38-2.971,3.318-2.13,3.462-1.249,3.421-2.868,3.482-1.332,3.3-1.6,3.277.143h3.462l3.4-.41,3.012.226,3.769,8.316,3.871-7.907,2.95.84,3.421,1.229,3.482.963,3.482.287h3.831l3.031-7.436,3.175,7.436h3.831l3.421-.553,3.318-.123,3.4.532,3.442.144,3.441.143,3.421-.287,3.523.144,3.421.143,3.421-.143,3.441.143,3.421-.553h3.359l3.441.266,3.626-.409,3.38-.676h3.421l3.421-.676h3.4l3.482-.7,3.36-.819h4.035l3.421-163.749,2.826-.225,3.421.553,3.442-.43,3.379.41h3.5l2.786-.554,3.564,163.217,3.995-.308,3.42-.143,3.442-.41,3.38-.266,3.441-.143,3.38-.676,3.605.409,3.462-1.372,3.38-.144,3.42-.962,3.442-.41,3.338-1.209,3.913.472,3.544-165.838,2.888.573,3.38-1,3.339.984,3.318.143,3.318,2.11,3.134,1.372,3.421,165.982,4.056-.144,3.441.533,3.278-.246,3.421,2.335,3.42-.553,3.237,2.192,3.5,2.253,3.5.676,3.38,3.093,3.626,1.455,3.318-.267,3.606,3.032,3.6-3.155,3.052.246,3.544,2.049,3.482.143,3.359,1.209,3.585.86,3.236-.922,3.237,3.257,3.543,1.7,3.5,1.127,3.523.389,3.319,1.475,3.421,1.639,3.564,1.433,3.482-.43,3.421.553,3.339-.532,3.257,1.5,3.482,5.326,3.728-.143,3.749.143,3.359-6.965,2.888,1.025,3.585,1.864,3.831-1.066,3.379-5.059,2.971,1.659,3.215,1.659,3.483,9.894,3.728-.164,3.236,1.045,3.38,2.151,3.81,2.048,3.585-1.434,3.4-.41,3.442-1.228,3.256-.656,3.4.553,3.462-.43,3.379-.123,3.36,1.741,3.544.7,3.379.143,3.462,1.106,3.462-.553,3.277.533,3.483,1.106,3.625-.41,3.278.266,3.359,1.352,3.441.82,3.5.983,3.482-.287,3.36.144,3.584.553,3.421-.287,3.4.287h6.862l3.4-.144h3.441l3.462-.409,3.339,1.085,3.564.41,3.442-.553,3.359-.123,3.339.266,3.462.7,3.5-.431,3.483-.389,3.318.389,3.38.943,3.544.717,3.543-.7,3.257-.655,3.36,1.065,3.789.143,3.462-2.069,3.236-.389,3.36.144,3.4.266,3.462.266,3.421-.266,3.38.123,3.482,1.946,3.626-.717,3.256-.656,3.36,1.065,3.5.144-.041,1.147-3.667-.143-3.216-1.045-2.991.594-4.015.819-3.6-2.028-3.052-.1-3.441.266-3.544-.287-3.38-.266-3.257-.123-2.908.349-3.544,2.109-4.281-.164-3.216-1.024-2.991.594-3.748.758-3.81-.758-3.339-.942-3.093-.369-3.339.39-3.687.43-3.585-.717-3.2-.246-3.216.123-3.543.573-3.81-.471-3.237-1.024-3.277.369h-3.482l-3.4.143h-6.944l-3.339-.266-3.482.287-3.646-.574-3.216-.123-3.6.287-3.687-1.024-3.5-.84-3.278-1.311-2.99-.246-3.749.43-3.646-1.167-3.011-.471-3.544.553-3.584-1.147-3.319-.123-3.789-.758-3.216-1.68-3.032.123-3.585.43-3.339-.553-2.99.615-3.482,1.249-3.38.41-3.954,1.577-4.3-2.335-3.278-2.089-2.929-.943-4.363.185-3.6-10.242-2.848-1.475-2.048-1.168-3.032,4.548-4.67,1.311-3.912-2.049-1.864-.655-3.216,6.719-4.466-.185-4.322.185-3.667-5.593-2.642-1.208-3.175.491-3.441-.553-3.6.451-3.872-1.557-3.441-1.659-3.155-1.372-3.462-.41-3.687-1.168-3.769-1.823-2.929-2.908-2.868.8-3.933-.942-3.257-1.167-3.564-.144-3.584-2.069-2.315-.184-3.974,3.5-3.994-3.38-3.114.266-4.076-1.639-3.3-3.031-3.4-.635L1118.7,4851l-2.868-1.967-3.421.553-3.461-2.376-3.032.246-3.441-.553-5.121.205-3.421-166.412-2.54-1.106-3.134-2.007-3.175-.144-3.134-.921-3.319.983-1.843-.369-3.544,165.756-4.875-.594-3.216,1.168-3.482.409-3.483.984-3.318.122-3.544,1.414-3.707-.43-3.278.655-3.523.144-3.339.266-3.441.43-3.462.123-5.182.43-3.544-163.093-1.577.328h-3.687l-3.3-.41-3.462.43-3.442-.553-1.679.123-3.4,163.851h-5.019l-3.257.778-3.6.717h-3.421l-3.421.676h-3.4l-3.319.676-3.789.43-3.5-.286h-3.216l-3.441.553-3.523-.144-3.421.144-3.482-.144-3.442-.123-3.421.267-3.5-.144-3.524-.143-3.338-.533-3.155.123-3.441.553H923l-2.4-5.612-2.294,5.612h-4.63l-3.646-.286-3.626-1.025-3.42-1.229-1.987-.553-4.507,9.218-4.506-9.894-2.233-.184-3.359.41h-3.544l-3.011-.123-3.093,1.5-3.36,1.27-3.421,2.888-3.523,1.27-3.134,2.008-3.318,2.908-4.732,4.364-2.827-3.524-2.868,6.186-4.424-1.188-3.2,1.147h-6.923l-2.806.676-4.773,4.22-4.158-8.665-2.172-1.249-2.847,1.946-3.564.573-3.6,1.578-3.032-.246-3.073,3.318-3.769,1.8-4.363,1.68-3.707-2.069h-3.3l-3.114-1.25-3.134,1.127-3.4-.144-2.786,1-3.277,3.011-3.81,2.356-3.483,1.372-3.666,1.926-3.605.143-3.483.963-3.462-.123-3.523.7-3.441-.533-3.155,1-3.81.614-3.564-.573h-2.97l-3.38,1.229-3.154.122-3.5,2.541-3.81.471-2.909.45-3.175,2.684-3.626,2.028-3.728,1.638-4.035.471-3.318-1.065-2.909.676-3.38,1.619-3.564,1-3.6,1-3.2.143-3.093,1.721-3.462,1.8-3.994,1.843-3.749-.307-3.216.123-3.216.532-3.646,1-3.646-.43h-6.575l-3.339,1.208-3.708.287h-3.42l-3.38.287-3.38.123-3.38.41-3.441.266-3.544.287-3.318.266-3.462.676-3.5.143-3.421.287-3.441.123-3.441.143H587.715l-3.421.144h-6.821l-3.421.123h-3.564l-3.4.082H549.943Z"/><text class="i" transform="translate(464.15 4911.526)"><tspan x="0" y="0">0</tspan></text><text class="i" transform="translate(464.15 4861.032)"><tspan x="0" y="0">5</tspan></text><text class="i" transform="translate(455.562 4810.54)"><tspan x="0" y="0">10</tspan></text><text class="i" transform="translate(455.562 4760.048)"><tspan x="0" y="0">15</tspan></text><text class="i" transform="translate(455.562 4709.554)"><tspan x="0" y="0">20</tspan></text><text class="i" transform="translate(455.562 4659.083)"><tspan x="0" y="0">25</tspan></text><text class="i" transform="translate(453.79 4932.257)"><tspan x="0" y="0">25/2/2020</tspan></text><text class="i" transform="translate(553.343 4932.257)"><tspan x="0" y="0">25/3/2020</tspan></text><text class="i" transform="translate(659.738 4932.257)"><tspan x="0" y="0">25/4/2020</tspan></text><text class="i" transform="translate(762.732 4932.257)"><tspan x="0" y="0">25/5/2020</tspan></text><text class="i" transform="translate(869.165 4932.257)"><tspan x="0" y="0">25/6/2020</tspan></text><text class="i" transform="translate(972.158 4932.257)"><tspan x="0" y="0">25/7/2020</tspan></text><text class="i" transform="translate(1078.593 4932.257)"><tspan x="0" y="0">25/8/2020</tspan></text><text class="i" transform="translate(1184.968 4932.257)"><tspan x="0" y="0">25/9/2020</tspan></text><text class="i" transform="translate(1283.925 4932.257)"><tspan x="0" y="0">25/10/2020</tspan></text><text class="i" transform="translate(1390.359 4932.257)"><tspan x="0" y="0">25/11/2020</tspan></text></g></svg>