<svg xmlns="http://www.w3.org/2000/svg" width="1058.108" height="435.698" viewBox="0 0 1058.108 435.698"><defs><style>.a{fill:#fff;stroke-width:1.417px;}.a,.b{stroke:#a7a9ac;stroke-miterlimit:10;}.b{fill:none;stroke-width:0.567px;opacity:0.322;}.c,.k{fill:#d1d3d4;}.d,.n{fill:#222b3e;}.e,.l{fill:#313e59;}.f,.m{fill:#91bce8;}.g,.o{fill:#808285;}.h,.p{fill:#231f20;}.i,.q{fill:#a5a5a5;}.j{fill:#606060;}.j,.k,.l,.m,.n,.o,.p,.q{font-size:14.314px;font-family:IBMPlexSans, IBM Plex Sans;}</style></defs><g transform="translate(-430.946 -5328.207)"><rect class="a" width="1056.691" height="434.281" transform="translate(431.654 5328.916)"/><path class="b" d="M508.326,5412.869h940.7m-940.7,81.935h940.7m-940.7,41.071h940.7m-940.7,40.906h940.7m-940.7,40.927h940.7m-940.7,41.07h940.7m-940.7,40.948h940.7"/><path class="b" d="M1449.027,5412.869v286.857m-104.489-286.857v286.857m-104.509-286.857v286.857M1135.4,5412.869v286.857m-104.509-286.857v286.857M926.4,5412.869v286.857M821.891,5412.869v286.857M717.4,5412.869v286.857M612.893,5412.869v286.857"/><line class="b" y1="286.857" transform="translate(508.326 5412.869)"/><line class="b" x2="940.7" transform="translate(508.326 5453.857)"/><path class="c" d="M560.229,5550.377,665,5621.436l104.8-47.093,104.509-31.463,104.448.778,104.488-10.057,104.509-.287,104.53-10.058,104.57-16.079.2,1.27-104.611,16.079-104.632,10.038-104.509.307L978.8,5544.908l-104.3-.758L770.23,5575.531,664.881,5622.87l-105.369-71.428Z"/><path class="d" d="M560.188,5481.285l104.734,87.855,104.8-25.953,104.591-21.139,104.488-11.1,104.489-12.926,104.489-8.521,104.488-10.488,104.55-6.186.062,1.27-104.509,6.166-104.489,10.487-104.468,8.522-104.468,12.925-104.427,11.1-104.53,21.119-105.39,26.117-105.226-88.265Z"/><path class="e" d="M560.188,5513.363l104.673,86.893,104.714-6.1,104.631,3.2,104.571,1.823,104.53-23.577,104.488-8.521,104.53-20.095L1396.9,5526.9l.225,1.249-104.55,20.074-104.591,20.095-104.468,8.521-104.591,23.6-104.734-1.823-104.591-3.2-105.165,6.125-105.062-87.2Z"/><path class="f" d="M560.167,5561.275l104.8,96.315,104.857-49.51,104.53-41.316,104.366-1.065,104.591.471,104.55-31.2,104.427-13.847,104.529-7.436.082,1.27-104.488,7.436L1188.1,5536.2l-104.611,31.218-104.775-.451-104.12,1.065-104.264,41.214-105.594,49.858-105.431-96.889Z"/><path class="g" d="M560.126,5476.02,664.82,5583.889l104.857-6.33,104.652-27.837,104.428-7.436,104.488-7.149,104.509-4.732,104.489-9.258,104.652-.779v1.27l-104.591.758-104.468,9.279-104.509,4.712-104.468,7.149-104.325,7.456-104.652,27.837L664.328,5585.2l-105.1-108.3Z"/><path class="h" d="M560.229,5613.365l104.714,69.973,104.795-23.044,104.673-35.15L978.818,5595.5l104.448-5.92,104.55-9.443,104.509-23.106,104.529-14.338.164,1.27-104.468,14.3L1188,5581.41l-104.653,9.443-104.3,5.92L874.78,5626.352l-104.693,35.171L664.7,5684.69l-105.165-70.28Z"/><path class="i" d="M560.188,5530.262l104.734,85.787,104.8-28.309,104.591-23.557,104.448-2.437,104.529-10.795,104.509-10.345,104.489-13.54,104.55-11.1.143,1.27-104.55,11.082-104.489,13.54L1083.409,5552.2l-104.571,10.816-104.386,2.437-104.427,23.516-105.39,28.473-105.246-86.2Z"/><text class="j" transform="translate(459.578 5704.951)"><tspan x="0" y="0">-120</tspan></text><text class="j" transform="translate(459.578 5663.941)"><tspan x="0" y="0">-100</tspan></text><text class="j" transform="translate(468.166 5622.994)"><tspan x="0" y="0">-80</tspan></text><text class="j" transform="translate(468.166 5581.984)"><tspan x="0" y="0">-60</tspan></text><text class="j" transform="translate(468.166 5540.998)"><tspan x="0" y="0">-40</tspan></text><text class="j" transform="translate(468.166 5500.029)"><tspan x="0" y="0">-20</tspan></text><text class="j" transform="translate(482.465 5459.041)"><tspan x="0" y="0">0</tspan></text><text class="j" transform="translate(473.877 5418.031)"><tspan x="0" y="0">20</tspan></text><text class="j" transform="translate(545.702 5394.986)"><tspan x="0" y="0">Mar</tspan></text><text class="j" transform="translate(652.284 5394.986)"><tspan x="0" y="0">Apr</tspan></text><text class="j" transform="translate(753.842 5394.986)"><tspan x="0" y="0">May</tspan></text><text class="j" transform="translate(862.1 5394.986)"><tspan x="0" y="0">Jun</tspan></text><text class="j" transform="translate(969.272 5394.986)"><tspan x="0" y="0">Jul</tspan></text><text class="j" transform="translate(1069.377 5394.986)"><tspan x="0" y="0">Aug</tspan></text><text class="j" transform="translate(1172.7 5394.986)"><tspan x="0" y="0">Sep</tspan></text><text class="j" transform="translate(1277.823 5394.986)"><tspan x="0" y="0">Oct</tspan></text><text class="j" transform="translate(1382.578 5394.986)"><tspan x="0" y="0">Nov</tspan></text><text class="k" transform="translate(546.911 5551.781)"><tspan x="0" y="0">-</tspan></text><text class="k" transform="translate(551.526 5551.781)"><tspan x="0" y="0">47</tspan></text><text class="k" transform="translate(655.019 5631.988)"><tspan x="0" y="0">-</tspan></text><text class="k" transform="translate(660.769 5633.689)"><tspan x="0" y="0">81</tspan></text><text class="k" transform="translate(762.692 5571.273)"><tspan x="0" y="0">-</tspan></text><text class="k" transform="translate(766.236 5571.273)"><tspan x="0" y="0">59</tspan></text><text class="k" transform="translate(866.648 5542.696)"><tspan x="0" y="0">-</tspan></text><text class="k" transform="translate(871.81 5542.696)"><tspan x="0" y="0">43</tspan></text><text class="k" transform="translate(969.909 5551.781)"><tspan x="0" y="0">-</tspan></text><text class="k" transform="translate(975.533 5551.156)"><tspan x="0" y="0">44</tspan></text><text class="k" transform="translate(1074.049 5532.986)"><tspan x="0" y="0">-</tspan></text><text class="k" transform="translate(1079.209 5532.986)"><tspan x="0" y="0">39</tspan></text><text class="k" transform="translate(1152.342 5532.986)"><tspan x="0" y="0">-</tspan></text><text class="k" transform="translate(1155.822 5532.986)"><tspan x="0" y="0">38</tspan></text><text class="k" transform="translate(1322.621 5516.726)"><tspan x="0" y="0">-</tspan></text><text class="k" transform="translate(1327.039 5516.726)"><tspan x="0" y="0">34</tspan></text><text class="k" transform="translate(1395.124 5508.272)"><tspan x="0" y="0">-</tspan></text><text class="k" transform="translate(1398.626 5508.272)"><tspan x="0" y="0">26</tspan></text><text class="l" transform="translate(548.705 5516.726)"><tspan x="0" y="0">-</tspan></text><text class="l" transform="translate(552.979 5516.726)"><tspan x="0" y="0">29</tspan></text><text class="l" transform="translate(655.87 5604.455)"><tspan x="0" y="0">-</tspan></text><text class="l" transform="translate(660.11 5604.455)"><tspan x="0" y="0">71</tspan></text><text class="l" transform="translate(768.018 5601.546)"><tspan x="0" y="0">-</tspan></text><text class="l" transform="translate(772.278 5601.546)"><tspan x="0" y="0">68</tspan></text><text class="l" transform="translate(870.338 5598.351)"><tspan x="0" y="0">-</tspan></text><text class="l" transform="translate(874.619 5598.351)"><tspan x="0" y="0">70</tspan></text><text class="l" transform="translate(999.286 5592.023)"><tspan x="0" y="0">-</tspan></text><text class="l" transform="translate(1003.568 5592.023)"><tspan x="0" y="0">71</tspan></text><text class="l" transform="translate(1074.049 5583.982)"><tspan x="0" y="0">-</tspan></text><text class="l" transform="translate(1078.309 5583.982)"><tspan x="0" y="0">59</tspan></text><text class="l" transform="translate(1178.598 5570.423)"><tspan x="0" y="0">-</tspan></text><text class="l" transform="translate(1182.84 5570.423)"><tspan x="0" y="0">55</tspan></text><text class="l" transform="translate(1283.129 5551.156)"><tspan x="0" y="0">-</tspan></text><text class="l" transform="translate(1287.411 5551.156)"><tspan x="0" y="0">45</tspan></text><text class="l" transform="translate(1393.014 5536.859)"><tspan x="0" y="0">-</tspan></text><text class="l" transform="translate(1397.233 5536.859)"><tspan x="0" y="0">35</tspan></text><text class="m" transform="translate(543.565 5568.365)"><tspan x="0" y="0">-</tspan></text><text class="m" transform="translate(547.838 5568.365)"><tspan x="0" y="0">52</tspan></text><text class="m" transform="translate(655.281 5653.521)"><tspan x="0" y="0">-</tspan></text><text class="m" transform="translate(659.522 5653.521)"><tspan x="0" y="0">99</tspan></text><text class="m" transform="translate(762.334 5620.947)"><tspan x="0" y="0">-</tspan></text><text class="m" transform="translate(766.594 5620.947)"><tspan x="0" y="0">75</tspan></text><text class="m" transform="translate(869.229 5579.732)"><tspan x="0" y="0">-</tspan></text><text class="m" transform="translate(873.51 5579.732)"><tspan x="0" y="0">55</tspan></text><text class="m" transform="translate(969.909 5577.705)"><tspan x="0" y="0">-</tspan></text><text class="m" transform="translate(974.191 5577.705)"><tspan x="0" y="0">54</tspan></text><text class="m" transform="translate(1073.63 5569.447)"><tspan x="0" y="0">-</tspan></text><text class="m" transform="translate(1077.89 5569.447)"><tspan x="0" y="0">55</tspan></text><text class="m" transform="translate(1165.712 5543.542)"><tspan x="0" y="0">-</tspan></text><text class="m" transform="translate(1169.954 5543.542)"><tspan x="0" y="0">39</tspan></text><text class="m" transform="translate(1302.663 5520.185)"><tspan x="0" y="0">-</tspan></text><text class="m" transform="translate(1306.944 5520.185)"><tspan x="0" y="0">33</tspan></text><text class="m" transform="translate(1392.672 5515.185)"><tspan x="0" y="0">-</tspan></text><text class="m" transform="translate(1396.891 5515.185)"><tspan x="0" y="0">29</tspan></text><text class="n" transform="translate(655.87 5565.023)"><tspan x="0" y="0">-</tspan></text><text class="n" transform="translate(660.11 5565.023)"><tspan x="0" y="0">56</tspan></text><text class="n" transform="translate(760.399 5542.696)"><tspan x="0" y="0">-</tspan></text><text class="n" transform="translate(764.659 5542.696)"><tspan x="0" y="0">43</tspan></text><text class="n" transform="translate(864.948 5520.185)"><tspan x="0" y="0">-</tspan></text><text class="n" transform="translate(869.229 5520.185)"><tspan x="0" y="0">33</tspan></text><text class="n" transform="translate(969.479 5510.517)"><tspan x="0" y="0">-</tspan></text><text class="n" transform="translate(973.76 5510.517)"><tspan x="0" y="0">28</tspan></text><text class="n" transform="translate(1074.049 5497.242)"><tspan x="0" y="0">-</tspan></text><text class="n" transform="translate(1078.309 5497.242)"><tspan x="0" y="0">21</tspan></text><text class="n" transform="translate(1178.598 5487.257)"><tspan x="0" y="0">-</tspan></text><text class="n" transform="translate(1182.84 5487.257)"><tspan x="0" y="0">17</tspan></text><text class="n" transform="translate(1283.129 5477.025)"><tspan x="0" y="0">-</tspan></text><text class="n" transform="translate(1287.41 5477.025)"><tspan x="0" y="0">12</tspan></text><text class="n" transform="translate(1393.322 5471.271)"><tspan x="0" y="0">-</tspan></text><text class="n" transform="translate(1397.604 5471.271)"><tspan x="0" y="0">9</tspan></text><text class="n" transform="translate(538.365 5487.257)"><tspan x="0" y="0">-</tspan></text><text class="n" transform="translate(542.638 5487.257)"><tspan x="0" y="0">13</tspan></text><text class="o" transform="translate(546.911 5476.021)"><tspan x="0" y="0">-</tspan></text><text class="o" transform="translate(551.185 5476.021)"><tspan x="0" y="0">11</tspan></text><text class="o" transform="translate(655.87 5588.089)"><tspan x="0" y="0">-</tspan></text><text class="o" transform="translate(660.11 5588.089)"><tspan x="0" y="0">63</tspan></text><text class="o" transform="translate(765.889 5585.2)"><tspan x="0" y="0">-</tspan></text><text class="o" transform="translate(770.149 5585.2)"><tspan x="0" y="0">60</tspan></text><text class="o" transform="translate(869.229 5556.297)"><tspan x="0" y="0">-</tspan></text><text class="o" transform="translate(873.51 5556.297)"><tspan x="0" y="0">46</tspan></text><text class="o" transform="translate(965.628 5539.175)"><tspan x="0" y="0">-</tspan></text><text class="o" transform="translate(969.909 5539.175)"><tspan x="0" y="0">43</tspan></text><text class="o" transform="translate(1074.049 5544.867)"><tspan x="0" y="0">-</tspan></text><text class="o" transform="translate(1078.309 5544.867)"><tspan x="0" y="0">39</tspan></text><text class="o" transform="translate(1180.719 5530.61)"><tspan x="0" y="0">-</tspan></text><text class="o" transform="translate(1184.961 5530.61)"><tspan x="0" y="0">37</tspan></text><text class="o" transform="translate(1283.129 5525.347)"><tspan x="0" y="0">-</tspan></text><text class="o" transform="translate(1287.411 5525.347)"><tspan x="0" y="0">33</tspan></text><text class="o" transform="translate(1398.575 5526.291)"><tspan x="0" y="0">-</tspan></text><text class="o" transform="translate(1402.793 5526.291)"><tspan x="0" y="0">32</tspan></text><text class="p" transform="translate(548.705 5615.079)"><tspan x="0" y="0">-</tspan></text><text class="p" transform="translate(552.185 5615.079)"><tspan x="0" y="0">78</tspan></text><text class="p" transform="translate(654.639 5686.66)"><tspan x="0" y="0">-</tspan></text><text class="p" transform="translate(658.143 5686.66)"><tspan x="0" y="0">112</tspan></text><text class="p" transform="translate(757.437 5659.987)"><tspan x="0" y="0">-</tspan></text><text class="p" transform="translate(760.919 5659.987)"><tspan x="0" y="0">100</tspan></text><text class="p" transform="translate(864.352 5628.503)"><tspan x="0" y="0">-</tspan></text><text class="p" transform="translate(870.11 5628.503)"><tspan x="0" y="0">83</tspan></text><text class="p" transform="translate(937.063 5613.78)"><tspan x="0" y="0">-</tspan></text><text class="p" transform="translate(942.474 5613.78)"><tspan x="0" y="0">69</tspan></text><text class="p" transform="translate(1074.382 5598.351)"><tspan x="0" y="0">-</tspan></text><text class="p" transform="translate(1079.543 5598.351)"><tspan x="0" y="0">66</tspan></text><text class="p" transform="translate(1177.791 5589.502)"><tspan x="0" y="0">-</tspan></text><text class="p" transform="translate(1183.646 5589.502)"><tspan x="0" y="0">61</tspan></text><text class="p" transform="translate(1284.787 5568.365)"><tspan x="0" y="0">-</tspan></text><text class="p" transform="translate(1288.289 5568.365)"><tspan x="0" y="0">50</tspan></text><text class="p" transform="translate(1393.322 5549.764)"><tspan x="0" y="0">-</tspan></text><text class="p" transform="translate(1398.483 5549.764)"><tspan x="0" y="0">43</tspan></text><text class="q" transform="translate(540.502 5534.687)"><tspan x="0" y="0">-</tspan></text><text class="q" transform="translate(544.775 5534.687)"><tspan x="0" y="0">37</tspan></text><text class="q" transform="translate(653.324 5617.991)"><tspan x="0" y="0">-</tspan></text><text class="q" transform="translate(658.415 5617.708)"><tspan x="0" y="0">79</tspan></text><text class="q" transform="translate(751.712 5593.523)"><tspan x="0" y="0">-</tspan></text><text class="q" transform="translate(755.972 5593.523)"><tspan x="0" y="0">65</tspan></text><text class="q" transform="translate(860.666 5566.703)"><tspan x="0" y="0">-</tspan></text><text class="q" transform="translate(864.948 5566.703)"><tspan x="0" y="0">54</tspan></text><text class="q" transform="translate(969.479 5563.406)"><tspan x="0" y="0">-</tspan></text><text class="q" transform="translate(973.76 5563.406)"><tspan x="0" y="0">52</tspan></text><text class="q" transform="translate(1074.049 5558.52)"><tspan x="0" y="0">-</tspan></text><text class="q" transform="translate(1078.309 5558.52)"><tspan x="0" y="0">47</tspan></text><text class="q" transform="translate(1186.265 5551.156)"><tspan x="0" y="0">-</tspan></text><text class="q" transform="translate(1190.507 5551.156)"><tspan x="0" y="0">42</tspan></text><text class="q" transform="translate(1272.754 5536.859)"><tspan x="0" y="0">-</tspan></text><text class="q" transform="translate(1277.036 5536.859)"><tspan x="0" y="0">35</tspan></text><text class="q" transform="translate(1409.613 5515.964)"><tspan x="0" y="0">-</tspan></text><text class="q" transform="translate(1413.832 5515.964)"><tspan x="0" y="0">30</tspan></text></g></svg>