<svg xmlns="http://www.w3.org/2000/svg" viewBox="0 0 1076.17 437.57"><defs><style>.cls-1{fill:#fff;stroke:#a7a9ac;stroke-miterlimit:10;stroke-width:1.42px;}.cls-2,.cls-3{fill:none;stroke-linejoin:round;stroke-width:1.35px;}.cls-2{stroke:#d9d9d9;}.cls-3{stroke:#bfbfbf;}.cls-4{fill:#d1d3d4;}.cls-5{fill:#222b3e;}.cls-6{fill:#313e59;}.cls-7{fill:#91bce8;}.cls-8{fill:#808285;}.cls-9{fill:#231f20;}.cls-10,.cls-11{isolation:isolate;}.cls-11{font-size:14.31px;fill:#606060;font-family:IBMPlexSans, IBM Plex Sans;}.cls-12{letter-spacing:-0.03em;}.cls-13{letter-spacing:0.01em;}.cls-14{letter-spacing:-0.02em;}.cls-15{letter-spacing:-0.01em;}.cls-16{letter-spacing:-0.01em;}.cls-17{letter-spacing:0em;}.cls-18{letter-spacing:-0.03em;}.cls-19{letter-spacing:0.02em;}.cls-20{letter-spacing:0em;}.cls-21{letter-spacing:-0.02em;}.cls-22{letter-spacing:-0.01em;}</style></defs><g id="Layer_2" data-name="Layer 2"><g id="Layer_1-2" data-name="Layer 1"><g id="Group_710" data-name="Group 710"><g id="Group_455" data-name="Group 455"><rect id="Rectangle_652" data-name="Rectangle 652" class="cls-1" x="1.24" y="2.02" width="1073.69" height="433.52" transform="translate(-0.53 1.32) rotate(-0.14)"/><g id="Group_454" data-name="Group 454"><path id="Path_616" data-name="Path 616" class="cls-2" d="M60.41,172.24,1029,169.87"/><path id="Path_617" data-name="Path 617" class="cls-2" d="M60.5,210l968.58-2.37"/><path id="Path_618" data-name="Path 618" class="cls-2" d="M60.6,249.39,1029.18,247"/><path id="Path_619" data-name="Path 619" class="cls-2" d="M60.69,287.35,1029.27,285"/><path id="Path_620" data-name="Path 620" class="cls-2" d="M60.79,326.65l968.58-2.37"/><path id="Path_621" data-name="Path 621" class="cls-2" d="M60.88,364.58l968.58-2.37"/><rect id="Rectangle_653" data-name="Rectangle 653" class="cls-3" x="60.02" y="92.99" width="969.16" height="310.42" transform="translate(-0.61 1.33) rotate(-0.14)"/><line id="Line_65" data-name="Line 65" class="cls-3" x1="61.13" y1="403.87" x2="60.37" y2="94.9"/><line id="Line_66" data-name="Line 66" class="cls-3" x1="60.47" y1="132.8" x2="1028.17" y2="130.43"/><path id="Path_622" data-name="Path 622" class="cls-3" d="M1006.3,130.48l0,5.83m-62.68-5.67v5.82m-64.14-5.67,0,5.83m-58.32-5.68,0,5.82m-64.14-5.67v5.83m-65.59-5.67v5.83M630.3,131.4v5.83m-65.6-5.67,0,5.83m-61.23-5.68,0,5.83m-65.6-5.67,0,5.83M373.8,132v5.83m-62.68-5.68V138M247,132.34v5.83m-61.22-5.68v5.83m-65.6-5.67,0,5.83M60.46,132.8l0,5.83"/><path id="Path_623" data-name="Path 623" class="cls-4" d="M104.91,115.43l1.48,4.42,2.91,5.77,1.46,8.64,1.48,7.3,3,14.56,1.47,7.25,3,29.1,1.5,20.39,1.51,18.95,3,29.14,1.52,23.33,3,19,1.52,16.27,3.32,3.31h3.61l2.91-4.38,4.41-1.6,1.45-1.46,3-1.52,1.51-3,4.42-4.44,1.44-5.84,2.55-2.56,3.69,4.36h2.15l1.59-1.59,2.91-1.47,1.45-1.46,3-1.52,1.59-3.18,2.89-8.75,1.23-2.47,4.35-1.6,1.45-1.46,2.91-1.47L191,275.9l2.66-1.33h2.91l3.17-1.59,1.45-1.46,2.92-1.47,3.82,8.58,2.18-4.39,4.2-2.76,1.45-1.46,2.91-1.46,1.72-1.73,1.42-13.12,2.81-2.82,1.4-2.81,2.91-1.46,1.45-2.92,2.8-1.41,1.53-1.54,4.4-2.9,1.35-2.73h2.77l1.58-1.59,2.34-1.17,3.23,1.29,2.91-1.47,3.68,10.19h2.18l3.17-1.6,1.54-1.54,4-2.71h1.85l2.89-11.66,4-1.47h1.59l1.58-1.59,2.91-1.47,1.46-1.46,2.65-1.33h1.45l3.18-1.59,1.53-1.55,4.28-2.84,3.42,8.87,6.38,0,4.8,1.75,1.71-5.18,2.52-7.63,2.61.83h2.61l1.62,1.62,2.57-1.3,1.47,5.83,3.25-1.64,3.06,1.3h2.62l1.46,1.45,9.35,0,3.37,6.73,1.58,9.29h5.16l2.91-1.47h3.27l3.07-9.31,1.39-8.44,2.68-1.35,1.46-1.46,2.65-1.34h5.66l4.2,1.45h1.46l3.23,1.61,1.61-1.62,4.5-1.6,3.94-1.33h1.76L402,207h2.91l1.46-1.46h2.31l1.62,1.61,2.91-1.47,3.06,1.3,7.59,0,1.46-1.46h3.06l1.84,8.74,12,0,2.31,2.29L446,204l6.65,0,3.94,1.32,1.59,1.59h1.59l2.66,1.32,1.59,1.59H467l1.62,1.61,2.91-1.47,3.24,1.3,3.17-1.6,4.24-1.34,1.45-1.46h2.92l1.45-1.46,4.24-1.46,5.66,0,4.2,1.45,8.61,0,2.79,2.78,3.18,1.58h1.8l2.91-1.46h1.46l3.17-1.59,1.54-1.55,4.28-2.84,1.46-1.46,2.91-1.46,4.24-1.34,1.66-1.68,3.28-2.33,1.42,9.82,11.29,0,3.15-6.35,1.27-10.31,2.08,2.07h1.58l2.66,1.32,1.59,1.59,4.38,9.35,2.29-2.3,2.69-2.7h1.46l2.91-2.92h1.45l1.72-1.73,2.73-4.11,4.41-1.6,1.54-1.55,3.85-1.25h4.68l1.58-1.59,2.65-1.34h2.92l2.59-1.31,1.46,1.46,3.23-1.63,10.48,0,1.45-2.92h1.82l1.49,11.66,9.08,0,1.46,1.45h3.88L650,174.1l2.39-1.21H654l1.58-1.59,3-1.52,1.5-3,1.8-1.81,1.28,8.8,3.26,12.93,2.15-2.16h4.07l5,1.83,1.55-12.65L682,161.16l2.76-1.59,2.65-1.33H689l3.12-3.13,1.46-1.46,3.36-2.39,1.24,4.92,3,17.51,1.55,4.59,3,3,2.84,4.28,3,3,1.67,1.67h2.92l4.51,2.9,2.55,2.73,3.88,1.93,1.73-5.22L731.68,178l1.27-3.83H735l1.46,1.45h4.38l4.08,2.69,1.47,4.37,3.34,1.66,2.79,1.45h4.85l3.17-1.59L762,182.7l2.65-1.34,9.73,0,4.51,2.9h1.93l1.45-1.46h2.92l1.58-1.59,3.08-1.55,1.49-4.5,3.9-2.59h1.45l2.91-1.46h5.66L809,182.12l1.56,10.78h3.85l1.46-1.46h2.91l1.46-1.46H822l3-13.73,1.36-11.06h2.57l1.58-1.59,2.65-1.34h1.59l1.58-1.59,2.91-1.47,3.94-1.33h1.63l2.91-1.46,6,0,1.59-1.59,2.91-1.46,3.93-1.34h5.53l1.46,1.45h4.85l2.41-1.21,1.34,2.66h2.08l3.17-1.59,3.31,11.41,1.61,1.61,1.67,1.66,9.66,0,2.48-13.84.53,1.59,1.53,17.81,3.75,1.87,1.62-1.62h2.31l5.2,3.25,1.64-8.26,1.32-15,1.67.82,1.52,6.06,10.95,0,2.91-1.46,4,1.44h1.46l2.66,1.32,3,3,9.22,0,2.91-1.46h1.58l3.6,5.82h1.78l2.65,1.32,1.59,1.59,6.66,0,2.89-8.75,4.28-1.6,2.48-1.33,7.59,0,1.45-1.46h2.61l2.49,1.32,2.92,1.45,4.12,9.78,1.47,7.23,2.95,18.89,1.51,20.43L1016,224l2.94,7.3,2,6,3.71-7.46,1.48-4.48,2.88-17.55-1.46,17.9-1.55,4.69-5.32,10.7-3.13-9.31-3-7.36-1.56-6.15-1.51-20.5-2.94-18.8-1.44-7.1-2.73-8.12-3.76-2.29-1.62-1.07h-2l-1.46,1.46-8.19,0-1.62,1.07-3.68,1.86-3.3,8.75-8.31,0-1.85-1.84-2.14-1.07h-2.42l-2.24-5.58-1.6-.24-2.92,1.46-10.16,0-2.11-2.1L941.74,162h-1.46l-2.92-1.45L934,162l-12.42,0L920,155.52l-.3,13.38-2,10.22-5.8-2.89-2.17-1.06-1.93,1.93-5.43-2.69L900.73,156l1.33,4-1.69,9.43-11.47,0-2.11-2.09-1.91-1.91-2.21-9.84-2.59.74h-3.32l-1.09-2.17-3.39.72h-3.82L867,153.41l-6.94,0-4,2.53-1.85,1.85-5.27,0-3.86,1.46h-4l-4,2.54-1.84,1.85h-1.85l-2.13,1.08-1.84,1.85h-1.89l-1.21,9.85-3.28,14.94h-2.31l-1.45,1.47h-2.91L815,194.34l-5.71,0-1.74-12-2.5-9.89h-4.12L797.07,174h-1.46l-2.14,1.07-2.4,5.59-3.41,1.71-1.84,1.85H782.9l-1.45,1.46h-2.88l-3.7-1.84-3.08-1.06H766l-3.07,1.08-1.46,1.46-3.69,1.85-5.79,0-1.46-1.46-5.26-2.08-1.47-4.36-2.42-1.21L738.26,177h-2.37l-1.46-1.46-1.34,2.75-2.88,14.59-2.28,6.89-5.83-2.89-1.18-2.36-4.33-1.83-4-1.06-2.11-2.1-3.17-3.15-1.46-2.92-4.5-4.47-1.69-5-3-17.57-.78-3.09-2.82,2.75-3.55,3.56h-1.84l-2.14,1.07-1.84,1.85-3.09,11.31-1.79,14.62-5.23-2.59h-3.85l-4.1,3.56L661.77,174l-.87-6-1.2,2.82-3.24,1.64-1.84,1.85h-1.85l-2.87,16h-5.8l-1.46-1.45-9.77,0-1.49-11.65-1.08,2.92-10.1,0-4.79,1.94-1.47-1.45-2,1h-2l-3.08,1.08-1.84,1.85-7.29,0-2.52,2.53-3.69,1.85-3.18,3.59-2.24,2.26h-1.44l-2.91,2.92h-1.46l-2.27,2.28-4,4-3.56-10.59-2.64-1.84-2.13-1.06H564l-1.33,7.21L559,205.17l-13.45,0-1.32-9.07L541,199.38H538.1l-4,2.54-1.45,1.46-2.92,1.46-2.9,2.92-3.69,1.86H521.7l-2.91,1.47H516.3l-3.7-1.83-1.71-1.71-2.83-.81-6.34,0-2.92-1.45h-5.32l-3.85,1.47-2.52,1.46h-2.92l-1.45,1.46h-2.91l-4.76,2.92h-2.88l-3.9.48-1.93-1.92h-2.92l-1.85-1.84-2.14-1.06h-1.84l-1.85-1.84-2.14-1.06H448.3l-2.72,14.19-4-4-12.68,0-.81-6.41,1.16-2.34H425.9l-1.45,1.46-10.56,0-3.9.48L408.06,207l-2.56,1.46h-2.92l-1.45,1.46h-4.37L392,212.87l-3,1.94-3.86-1.92h-1.46l-2.92-1.45h-5.31l-3.08,1.08L370.93,214l-2.23,1.12-1.29,7.82L364,233.34h-3l-3.85,1.46-6.74,0-1.76-10.4-1.76-5.22-2-.39-8.19,0-1.46-1.46-4.38,0-4.92,1-1.47-5.82-1.89,1-1.94-1.93h-4.37l-1.38,5.8-2.23,6.76-4.72-2.34-8.42,0-2.36-8.21-2,.55-2.91,2.92L288.54,219h-1.46L285,220l-1.45,1.46L280.59,223l-1.85,1.85H276.9L274,226.28,270.84,238h-2.65L266.05,239l-2.9,2.93-3.69,1.85h-3.63l-2.93-10.19-2.21,1.46h-2.88l-2.17-.39-1.84,1.86h-2.47l-1.18,2.36-3.24,1.63L234,243.48l-2.58,1.29L230,247.69l-2.91,1.47-1.28,2.58-2.62,2.63-1.42,13.12-2.25,2.26-2.91,1.46-1.45,1.46-2.91,1.46-4.6,8.29L204.13,272l-2.12.67-1.45,1.46L196.87,276h-2l-3.08,1.07-1.45,1.46L187.46,280,186,281.48l-3.69,1.85-1.4,1.57L178,293.66l-1.84,3.71L172.93,299l-1.45,1.46-2.91,1.46-1.85,1.86h-3.53l-2.92-4.36L159,301.27l-1.44,5.83-3.33,3.35-2.83,4.47-3.24,1.63L146.75,318l-3.69,1.85-3.72,4.39h-5l-4.12-4.1-1.56-16.75-3-19-1.52-23.37-3-29.13-1.51-19-1.5-20.37-3-29-1.46-7.18-3-14.56-1.48-7.32-1.43-8.45-2.85-5.67-1.52-4.52Z"/><rect id="Rectangle_654" data-name="Rectangle 654" class="cls-3" x="60.02" y="92.99" width="969.16" height="310.42" transform="translate(-0.61 1.33) rotate(-0.14)"/><path id="Path_624" data-name="Path 624" class="cls-5" d="M87.3,114.11l1.35-2.7L91.44,110,93,108.45l2.69-2.7h1.46l1.45-1.46h7l3.83,1.26,1.32,2.62,1.46,5.78,2.92,8.69,1.49,13.07,3,14.56L121,163.33l1.5,14.58,3,20.4,1.5,18.95,3,17.49,1.5,13.15,3,10.32,1.7,3.38,5.12,0,1.67-1.67,2.91-2.92,1.45-1.46,3-3,1.45-2.92,4.31-2.81,1.45-2.92,2.79-1.41,3.41,8.87H166l1.59-1.59,2.65-1.33h1.46l2.91-1.47h1.85l3-12.14,1.21-2.45,3.27,1.21,1.58,9.35,3.64-1.83h1.45l3.17-1.59,2.79-1.34,3.29-3.3,1.38-11.28H204l.77-1.56,2.6,10.29h2.33l1.46-1.48h4.25l2.59-1.31,2.17,2.16,1.56-14.37,2.87-2.89,1.27-5.15,2.26,1.13,6,0,3.78,1.24,1.54,4.58h3.74l1.46-1.46,8.44,0,4.08,2.9h1.93l3.17-1.6,1.54-1.54,1.45-1.46,3-3,1.49-3,2.83-4.29,4-2.65h1.58l1.46-1.46h2.91l1.46-1.46h2.91l1.58-1.59,1.93-1,1.35,8,1.84,1.83,12.58,0,1.52-9.24,1.29-2.61,2.8-1.4,3.94-1.34,2.61,1.45h3.22l3.86,2.69,1.68,1.67h3.51l1.46-1.46h4.37l1.58-1.59,2.92-1.47,3.93-1.34h3.09l2.91-1.47h4.5l1.45-1.46,14.45,0,2.91-1.47h1.59l1.45-1.46,11.66,0,1.45-1.46,4.22,1.6,1.61-1.62H399l1.45-1.47h4.37l1.59-1.59,2.65-1.33h1.59l3.2-3.22,1.3-2.62,4.09-1.46h4.2l3.78,1.23,1.54,4.58H434l1.45-1.46h2.32l1.46,1.46h3.51l1.46-1.46,4.24-1.47h1.45l3.18-1.6,1.53-1.54,2.91-2.93,2.57-1.25L463,164.6h4.5l1.45-1.46h2.31l2.6,16,12.63,0,1.85-1.87,1.38-15.63,12.15,0,1.46,1.45L514,163l2.91-1.47h1.59l2.9-2.92,4.5-1.6,2.48-1.33,4.54,0,3.18-1.59,3.93-1.34h3.09l2.11-1.07,1.46,15.63h3.58l4.2,1.45,6.67,0,1.38-15.63,2.44,1.21,1.61-1.62h2.91l1.46-1.46h4.37l1.45-1.46,6.69,0,1.46,1.45h4l1.5,17.48,6.8,0,3.12-3.13,4.54-3,1.39-18.68,9.92,0,2.9-4.38,3.82,1.45h1.63L628.3,145l4.76,8.05,2-2h4.38l1.71-1.72L644,145l4-2.66h4.5l1.45-1.47H658l4.21,1.45,4.25,2.91,7.76,0,2.91-1.47h1.59l2.9-2.92,5.83,0,1.67-1.67,2.69-2.71,2.19,1.32,2.69,1.34,1.41,8.37,3,21.83L702.58,181l2.95,4.4,1.46,5.78,1.52,3,3,4.46,1.6,1.59,2.8,1.39,1.56,3.09h3.81l1.6-3.22,4.44-2.88,1.48-10.58,2.87-18.95,1.4-10,2.73-2.75,2.57-1.25,2.6-1.3,4.07,1.29,1.31,2.61,3,3,1.68,1.67h1.45l3.23,3.2,1.75-1.76h4.24l2.6-1.31,1.61,1.6,1.88-1.89,2.65-1.34h1.46l2.91-1.47h4.5l1.67-1.67,4.15-1.26,1.46-1.46h2.91L791,153.6l4.38,0,1.45-1.46,8.44,0,3.69,5.33,1.53,7.54,3.39,1.68h6.3l1.75-1.76,3-6,1.39-7,2.44-1.22h3.9l2.79,2.78,2.92,1.45,1.46,1.45,2.91,1.45,1.47,1.45,2.91,1.45,2.92,4.5h3.06l4.51,2.9H859l2.92,1.45h1.63l4.2,1.44,4,2.69,1.46,1.46,3.14,3.12h1.45l4.51,2.9h4.54l2.62,1.45h3.22l3.94,1.32,1.46,1.45,3.18,1.58,2.44,15.77,3.93,1.95,1.72-3.46,2.83-2.84,1.45-1.46,2.91-2.92,1.65-1.66,1.41-20.48,2.3-3.48,4.69-.56,4.24-1.33,1.67-1.68,4.16-1.25,1.45-1.46h2.91l3.52,11.65h3.67l3.17-1.59,1.45-1.47,2.66-1.33h1.89l2.88-16,2.1-1,2.68,5.32h5.12l1.46-1.46,4.23-1.47h1.81l3.07-9.27L982.1,140h3.8l4.21,1.45h1.45l2.5,1.24,1.54,4.58h3.74l1.45-1.46,4.5-1.6,3.94-1.34,4.52,1.61,1.61-1.62,5.7,0,2.91-1.46h1.46l3.06-1.54-2.72,3h-1.45l-2.91,1.47h-4.89l-2.48,1.94-3.87-1.92h-2.95l-4.75,2.93-2.52,1.46-5.4,0-1.69-5-1.64-.82h-1.46l-2.92-1.45h-2.4l-2.26,4.26-3.41,10.33h-2.52l-2.91,1.46L970.82,159h-6.63L962,154.68l-3.37,16h-2.77l-2.13,1.07-1.46,1.47-3.68,1.85h-5.19L941,164.15l-2.2-.71-1.45,1.46h-2.92l-2.9,2.93h-2.92l-5.7,3.41-1.8,1-1.42,20.64-2,2-2.91,2.92-1.45,1.46L910.6,202l-2.26,4.56-6-3-1.43-15.25-3.67-1.84L895.81,185,893.67,184h-4.76l-1.46-1.45H882l-3.7-1.84-2.53-1.06-3.56-3.54-1.46-1.46-2.28-2.27-4-1.44h-2.91l-2.92-1.45H857.2l-3.7-1.84-4.43-1.06-1.91-3.8-3.88-2.4-1.46-1.46-2.91-1.45L837.45,156l-2.92-1.45-1.72-1.71L830,152l-2.44.76-1.28,6.53-3.19,6.41-2.34,2.36-7.25,0L809.15,166l-1.63-8-2.19-4.36-8,0L795.93,155h-3.82l-2,1.46h-2.91L785.74,158h-2.9l-2.91,2.92h-3.82l-3.85,1.47H770.8l-2.13,1.07-2.75,2.76L764,164.34l-2,1h-4l-2.36,2.37-3.83-3.82h-1.45l-2.11-2.1-3.17-3.15-1-2-5.42,0-1.88.82-2.4,2.41-1.33,9.49-2.87,18.95-1.59,11.33L725,201.46l-2.84,4.77-5.62,0-1.74-3.47-2.59-1.29-1.86-1.85L707.26,195l-1.63-3.25L704.19,186l-3-4.48-1.55-12.15-3-21.81L695.39,140l-2.24-1.12-3,1.22-2.1,2.1-5.27,0-3.46,2.92h-1.85l-2.91,1.47-8.71,0L663,143.71l-4-1.45H655.1l-2,1.47h-3.82l-3.07,1.07-4,5.44L640,152.51h-4.37l-3,3-4.13-8.21-3.76-4.93h-2.26l-2.92-1.45-2.67,4.38-8.46,0-2.24,18.17-3.7,1.86-4.75,4.77-8.75,0-1.5-17.49h-3.26l-1.46-1.46-5.48,0-1.45,1.46h-3.82l-2,1.46h-2.91l-1.93,1.93-1.46-.72-1.31,14.83-8.34,0-2.92-1.45h-5.86L543.94,154l-2.48.26H538l-4.76,2.92-4.88,0-1.62,1.07L523,160.08l-4,2.93h-1.84l-2.91,1.47-11.63,0-1.46-1.46-9.3,0-2.23,14.84L487,180.58l-14.54,0-1.61-15.76-2.83,1.2h-3.82l-3.85,1.46-1.88.83-2.91,2.92L453.9,173l-3.69,1.86h-1.46l-2.91,1.46-2.52,1.47h-4.73l-1.46-1.45-2.56,1.46-6.85,0-1.68-5-1.65-.81h-3.85l-3.86,1.46-1.63,2-3.79,3.82h-1.85l-2.13,1.07-1.84,1.85h-3.83l-2,1.47H396.7l-1.93,1.94-3.87-1.93-1.49,1.46-11.66,0-1.45,1.46h-1.85l-2.91,1.46-14.18,0-1.46,1.46h-3.82l-3.85,1.46-5.44,0-4,2.53L337,195.51h-3.82l-2,1.46-4.72,0-2.11-2.1L322,192.63h-4.37l-1.46-1.45h-2.56L310,193.56l-1,2-1.69,10.25-14.41,0-2.6-2.59-1.1-6.51-1.8,1.83h-2.91L283.05,200h-2.91l-1.46,1.46h-1.84l-2.13,1.07L271,207.7l-1.55,3.11L266.24,214l-1.45,1.46-1.7,1.71L259.4,219h-2.88l-2.92-2.9-8.4,0-1.45,1.46h-5.4l-1.68-5-1.64-.82-7.29,0-1.88,3.3-2.79,2.81-1.83,16.88-3.57-3.55-2,1h-4l-1.45,1.46H206.2l-1.92-7.58L202.52,225l-1.28,10.49-4.08,4.1H195.7L191,242.5h-1.46l-5.09,2.56-1.79-10.56-1.46-.72-.33,1.49-3.24,13.09h-2.65L172,249.83h-1.46l-2.13,1.07-1.84,1.85h-4l-2.37-8.21-1.66.38-1.45,2.91-3.24,1.65-2.4,3.88-3.16,3.17L146.84,258l-2.9,2.92-2.1,2.11h-6.63l-2.16-4.29L130,248.19,128.5,235l-3-17.52-1.51-19-3-20.37-1.49-14.6-1.48-13-2.95-14.57-1.48-13-2.88-8.6-1.44-5.67-1-2-1.8-.89H99.2l-1.46,1.47H96.29L94,109.49l-1.71,1.71-2.57,1.3-1.13,2.26Z"/><rect id="Rectangle_655" data-name="Rectangle 655" class="cls-3" x="60.02" y="92.99" width="969.16" height="310.42" transform="translate(-0.61 1.33) rotate(-0.14)"/><path id="Path_625" data-name="Path 625" class="cls-6" d="M101.21,107.19h1.63l2.91-1.47,3.53,5.35,1.44,5.71,1.48,11.64,3,13.09L116.64,159l3,20.4,1.49,14.56,1.5,14.59,3,16L127,237.69l3,11.7,1.48,5.87,3,7.31,1.51,4.51,1.59,1.58,2.92,2.9L142,273.1l2.81,1.39,1.55,3.1H150l1.67-1.67,4.15-1.26,1.46-1.46h2.91l3.39,8.23,1.53,4.54,1.8,1.79h3.52l1.46-1.46h4.64l3-12.24,1.4-7.09,3.87-2.55h1.46l3.17-1.6,1.45-1.46,2.65-1.33h1.59l1.45-1.46h3.07l1.45-2.92H204l.77-1.56,2.6,10.29h3.66l2.91-1.46h3.9l2.34,2.33,1.51-15.46h2.55l3.53-.2,1.46,2.91,3,1.51,2.93,2.91,2.75,1.37,1.47,4.37,3.08,1.53,4.12,4.1,1.47,11.53,1.85,3.67,3.41-1.71,5.83,0,3.39-1.7,1.46-8.89,4.2-4.21,4-2.71,9.73,0,1.46,1.46,13.42,0,4.2,1.45h1.46l2.92,1.45,6.3,0,3.64-.14,1.59,1.59,4.37,0,1.46,1.46h2.92l4.34,12.31,2.11-2.12,10.47,0,2.89-11.67h5.56l1.59-1.59,2.65-1.33h4.5l1.45-1.46,3.47,7,1.65,1.64,3.18,1.58,8,0,3-9.09,4-4,4.5-1.6,2.65-1.34,2.91-1.46h4.5l1.46-1.46,5.69,0,3.18-1.59,4.23-1.34,1.46-1.46,4.49-1.6,4.24-1.34,4.28,1.95,1.85-3.72,3.93-2.62h1.46l2.91-1.46H440l2.61-2.61,2.91,1.14h3.22l1.45-1.46h2.92l1.45-1.46h2.92l1.46-1.46,4.24-1.47,14.7,0,1.45-1.46,8.75,0,1.58-1.6,2.91-1.46,3.28-1.34,1.42,12.48L498.74,253l3.1,3.08,1.54,1.54,3.18,1.58,5.2,0L513.24,244l1.38-9.81,2.67-1.34,1.46-1.46,2.91-1.47,1.45-1.46L526,227l2.66-1.34,2.91-1.46H533l3.18-1.59,3.93-1.34h3.09l2.12-1.06,1.49,14.57,3.7-1.86,4.5,0,1.46-1.46,4.7,1.85,1.46-16.44h2.55l1.45-1.46h2.92l1.66-1.68,1.51-1.51,2.9-4.38,3.8-1.2h1.63l2.91-1.47,2.15,2.62,3.52,3.5,1.76-1.76,9,0,1.44-5.84h2.65l1.45-1.46,8.75,0,1.45-1.46,7.29,0,1.45-1.46h4.37l1.46-1.46,7.29,0,1.45-1.46h4.37l1.45-1.46h2.92l1.58-1.59,2.66-1.33h1.58l1.59-1.6,2.91-1.46,1.45-1.46,2.34-1.18,4.11,16.62,2.2-2.22h3.5l1.36,5.39,3.7,5.51,2-4.13L682,193.21l2.75-1.59,2.91-1.46,1.53-1.55,3-3,1.45-2.91,3.44-2.38,1.08,2.15,2.95,21.77,1.53,6.06,3.09,3.06,1.46,1.46,1.55,1.53,2.92,1.45,1.59,1.59h2.91l1.46,1.45h2.92l2.79,2.77,3.68,1.83,1.82-3.68,2.88-20.46,1.16-3.51,2.32,1.15h5.55l1.37,2.72,3,1.51,1.46,1.45,2.92,1.45,2.84,2.82,3.44,3.43,1.75-1.77,10.07,0,2.91-1.47,4,1.45h1.45l2.92,1.45,10.83,0,1.59-3.21,3.77-1.17,6,0,3.17-1.59,1.54-1.55,4-2.71h1.46l2.91-1.47h7.29l2.91-1.47h1.46l3.17-1.6,1.45-1.46,2.91-1.46,1.54-1.55,4.28-2.84,4.24-1.34L845,187h2.17l1.26,2.51,1.67,3.31,7.73,0,4,1.32,2.92,2.91,3.18,1.58h4.24l1.46,1.45h2.92l1.46,1.46h1.45l2.71,2.7,1.55,1.53,2.8,1.4,1.36,2.69,1.44,2.87,2.9,8.63,1.51,8.92,3,3,1.47,2.91,3.22,3.21L904,259.17l4.17-4.19,1.35-5.47h1.9l1.37,2.73,2.92,1.45,2.51,5,1.63-18.45,2.78-5.61,3.6.29h4.85l1.45-1.46,4.5-1.6,4.24-1.34,1.45-1.46h2.92l1.45-1.46,4.5-1.6,4.24-1.34,1.45-1.46h3.06l1.6-3.21,3.48,8.19,2.2-2.22,3-1.52,1.51-3,3.94-2.62h1.85l3-12.22,1.31-5.28h2.65l1.45-1.46,4.24-1.47,3.55,8.29L996,210.2l3.67-1.85,1.54-1.54,1.45-1.46,1.8-1.81,1.62,19,3.86-9.71,4.05-1.46h1.58l1.46-1.46h3.29l1.43-20.81,2.72-2.73,3.85-1.25v1.46h-2l-3.15,3.16-1.49,21.63h-4l-1.45,1.46h-1.85l-2.91,1.47-6.26,14.52-1.89-22-2.74,2.75-5.18,2.61-2.52-5-2.48-7.4L988,201.21l-2.52,1.46h-2.11l-1,4.17-3.3,13.33h-2.65l-2.13,1.08-2.57,4.2-3.25,1.64-3.7,3.71-2.93-8.73-.6,2.51h-3.37l-1.45,1.46h-2.91L948.76,229l-2.52,1.47h-2.91l-1.46,1.46H939l-4.76,2.93-2.52,1.46-5.79,0-2-1-2.65,5.24-2.06,23.28-4.59-9.13-2.92-1.45L910.51,251l-1,4.76-6.68,6.72-1.72-21.67L896.92,237l-1.46-2.91-3.17-3.15-1.57-9.27-2.83-8.42-1.39-2.78-1.14-2.26-2.58-1.28-1.72-1.7-2.28-2.27h-1.45l-1.47-1.45H873L871.49,200h-4l-3.7-1.84-1.71-1.7-3.35-2.27-9.58,0-2.07-4.11-.86-1.71-2.11,1.46h-2.91l-4,2.54-2.91,2.92-2.91,1.46L830,198.28l-3.69,1.86h-1.46l-2.91,1.47h-6.35l-3.85,1.47h-1.46l-2.14,1.08-2.9,2.92-3.69,1.85-8.36,0-2.46,4.37-12.07,0-2.91-1.45h-1.46l-2.92-1.45L768,211.94l-9.81,0-2.36,2.36-4.47-4.45-1.46-1.45-4.13-2.65-1.46-1.46-3.25-1.61-1.18-2.36h-5l-1.72,1.24-2.88,20.57-2.58,5.19-5.2-2.58-1.71-1.7-3.73-.81-1.46-1.46h-2.92L710.83,219l-2.92-1.45-1.71-1.71-1.46-1.45L701.39,211l-1.65-6.54-2.94-21.61-1.91.65-1.45,2.92-3.16,3.17-1.7,1.71-2.92,1.47-1.84,1.85-3.16,13.11-3.25,6.55-5.24-7.81L671,202h-1.76l-3.7,3.71L662,187.77,659.43,190l-2.91,1.47-1.84,1.85h-1.85l-2.13,1.08-1.85,1.85h-2.91l-1.45,1.46h-3.82l-2,1.46-7.29,0-1.45,1.46H626.1l-2,1.46-7.29,0-1.45,1.46-8.74,0-1.46,1.46H603l-1.44,5.84-9.55,0-2.36,2.37-4.72-4.7-1-2-2.5,1.46h-4l-3.57,5.05-1.6,1.61-2.1,2.11h-2.91l-1.46,1.46H564l-1.52,17.24-5.33-2.65-1.49,1.46h-3.82L545.63,237l-1.5-14.57-2.51.28h-3.46l-4.76,2.93h-1.46L529,227.1l-2.13,1.07L524,229.64l-1.46,1.46-2.91,1.46L518.17,234,516,235.13l-1.26,9-1.61,16.51h-6.87l-3.7-1.82-1.71-1.71-3.44-3.42-1.59-10.95-1.27-11.2-4,2.53L488.64,236l-8.75,0-1.45,1.46-14,0-3.85,1.47L458,240.4h-2.91l-1.46,1.46h-2.91l-1.45,1.46h-6.19l-2.55,1.47h-1.85l-2.91,1.46h-1.46l-2.13,1.07-3.6,6.28-3.52-3.51-3.46.56-4.76,2.93-2.52,1.46h-2.92L406.69,258l-4.89,0-2,1.46H396L392.12,261,390,262l-3.69,1.85L383,266.18,378.65,277l-9.38,0-3.7-1.84-2-2L361,266.87l-.52,1.45h-3.82l-3.08,1.08-1.84,1.85h-5.28l-2.63,11.67h-3.69l-2-1-4.8,1-4,3.46-3.82-13.22-3.33-.41-1.46-1.45H316.4l-1.85-1.85-2.17.4-7.25,0-2.92-1.45h-1.46L297.83,267l-15,0-1.46-1.45-7.84,0-3.08,1.07-4.11,4.13L263.92,281l-4.37,2.2h-4.88l-5.35,2.21-2.61-5.2-1.44-11.28-2.39-2.38-4.62-2.9-1.47-4.36L234.37,258l-1.72-1.7-4.46-2.82-1.47-2.91-1.83.56h-1.84l-1.68,17.21-4.09-4.07h-2l-3.85,1.47h-5.14l-1.92-7.57L202,257.06,200.57,260h-3.36l-1.45,1.46h-1.84l-2.13,1.07L190.33,264l-3.69,1.85h-1.46l-2.13,1.08L181,274.35l-3.31,13.37-5.17,0-1.45,1.46h-4.73l-2.47-2.46-1.64-4.9-1.93-6.67-2.39-.52-1.45,1.46h-2.91l-2.91,2.93h-5.17l-1.75-3.47-2.58-1.28-1.71-1.71-2.92-2.9-1.83-1.82-1.61-4.8-3-7.35-1.51-6-3-11.79-1.5-13.19-3-16-1.5-14.66-1.49-14.52-3-20.42-1.49-17.4-2.94-13.06-1.48-11.63-1.38-5.46-2.21-4.41-2.5,1.47h-2Z"/><rect id="Rectangle_656" data-name="Rectangle 656" class="cls-3" x="60.02" y="92.99" width="969.16" height="310.42" transform="translate(-0.61 1.33) rotate(-0.14)"/><path id="Path_626" data-name="Path 626" class="cls-7" d="M106.36,108.18l2.91,7.22,1.46,7.18,1.49,14.6,2.94,10.19,1.49,14.53,2.95,16,1.53,27.65,1.51,21.87,3,30.6,1.5,19,3,21.85,1.51,20.44,3,11.91,1.82,1.81h2.06l2.29-2.3,1.36,4.05,3.51-1.77h1.45L150,331.5h1.59l1.46-1.46h4.24l2.31-1.16,1.22,3.62,3,6,1.76,1.75h1.93l3.17-1.6,4.51-1.34,1.57-6.33,2.82-7.11,2.72-2.73,2.91-1.47,4.24-1.34,1.58-1.59,2.91-1.46,1.54-1.55,4.45-2.92,1.44-4.38,2.86-1.43,1.11-2.23,2.72,2.7,2-2,4-2.71h1.46l3.17-1.59,1.7-1.71,1.44-8.75,2.83-2.84,1.39-2.8,2.79-1.41,1.54-1.54,2.91-2.93,1.45-1.46,1.46-1.46,2.69-2.71,4.24-1.46h1.46l3.17-1.59,1.53-1.55,4.29-2.84,3.82,8.58,2.12-4.28,2.8-1.4,2.65-1.34,3.28-1.65,1.6-3.22,2.78-12.64,4.21-1.59,1.54-1.55,4.28-2.84,4.24-1.34,1.59-1.59,2.65-1.33h1.58l1.59-1.59,2.91-1.46,3.6,9.53,2.25-2.26,2.65-1.33h1.59l1.58-1.59,3-1.52,1.36-2.73h2.16l1.77,1.76,1.75-1.77h2.31l1.46,1.45h2.92l1.46,1.45h3.52l1.66-1.67,3.86-1.26h6.38l2.7-9.55,2.55.79h2.62l1.46,1.46h3.21l4.21,1.45,2.66,1.32,2.8,1.39,1.41,2.8,2.88,2.87,1.41,4.18,3.07,12.17h6.4l4.2,1.44h2.22l2.72-12.4,2.67.73,2.91-1.47h1.46l2.91-1.47,2.44,1.45h4.85l2.18-1.1,1.38,8.14,3.4,1.69h3.26l2.91-1.46h4.84l1.48-12.06,2.73-2.74,1.83,10.79,3.68-1.85h1.45l2.91-1.46h1.46l2.91-1.46h1.94l1.43-13.12H450l3.17-1.59,1.45-1.46,3-1.52L459,220l4.35-1.59,4.24-1.34,1.58-1.59,2.92-1.47,2.48-1.33,12,0,1.67-1.67,4-2.71h1.46l3.17-1.59,2.65-1.34,2.91-1.46,16,0,2.91-1.46h1.59l3.12-3.13,2.57-1.25,2.91-1.47H533l3.17-1.6,3.93-1.34h5.2l1.49,10.2,14.39,0,1.38-11.28,2.15,1.07h1.8l2.91-1.47h6l1.45-1.46h4.25l2.91-1.47h5l1.53,13.5,3.7-1.85h1.58l1.46-1.46h4.24l3.42-1.72,1.35-12.47,2.14,1.06,9.73,0,1.49,11.66h3.86l1.45-1.46,4.5-1.6,1.45-1.46,3.16-1.59,1.4-12.86H638l1.46-1.46,4.23-1.47h1.46l3.17-1.6,1.46-1.46,2.65-1.33H654l1.58-1.59,2.91-1.46,1.45-1.46,2.92-1.47,3.38,11.78,10.48,0,2.19,2.17,3.13-14.21,2.41-1.1,2.91-1.46H689l2.91-2.92h2.78l2.42-1.21,1.08,2.15,3,20.29,1.51,8.91,3,4.45,1.5,3,1.55,1.54,2.84,2.82,1.52,3,2.8,1.4,1.44,8.53,3,4.45,1.44,2.87,1.52,3,3.52,3.5,2.12-2.12,2.88-13.13,3,4.21,1.72,18.44,2.39-4.81h4.22l3.12-3.13,4.52-1.26L752,212.42l3.88,1h1.76l3.21-3.22,1.45-2.92,2.61-2.63h1.45l1.46-1.46h2.91l1.59-1.59,3.1-1.56,1.51-6.08,2.81-5.66,2.48-1.17,2.92-1.46h1.45l2.91-1.46,17.49,0,3.17-1.6,4.24-1.34,1.58-1.59,2.66-1.33h1.58l1.46-1.47h2.91l1.46-1.46h4.24l3.17-1.6,2.65-1.33L839,171h1.46l2.91-1.47h4.2l2.78,1.61,3.22-1.62,4.35,1.6,1.61-1.62,10.07,0,2.92-1.46,6,0L882,181.07h5.27l2.47.15,3.23-1.62h1.88L897.68,165l3.09,1.19,1.45,14.16,1.52,20.48,3,8.88,1.69,3.36,8.4,0,1.48-15.24,1.37-15.38h1.68l1.36,5.4,3.21,4.79h2l2.91-1.46,2.3,2.91h5.13l2.9-2.93,14.1,0,3.91,5.42,1.52,3L965,211l1.55,3.08,2.92,2.91,1.61,3.21h1.74l3.52,1.75,1.71-5.2L981,205l1.38-8.41,2.43-1.23h1.74l1.59-3.22,2.91-2.92,1.45-2.92,2.91-2.92,3.38,11.22,2.39-2.41,4.28-2.84,1.46-1.46,2.65-1.33h1.89l2.88-16h2.48l2.41-1.22,1.34,2.66h3.67l1.58-1.59,2.81-1.41-1.94,2.6-1.85,1.85-5.17,0-1.09-2.17-3.4.72-2.5,16h-2.77l-2.13,1.08-1.46,1.46-2.91,1.46-5.46,5.5-2.47-11,1.13-2.28-2.91,2.92-1.45,2.92L989.3,193l-1.89,3.81h-2.29l-1.46.73-1.27,7.74-2.92,11.83L977.2,224l-4.71-2.34H970.2l-1.91-3.8-2.92-2.91-1.72-3.41-2.84-9.84-2.93-4.54-2.33-4.61-2.59-1-4.8,1h-5.83l-3.46,2.92-6.62,0-1.47-2.91-2.5,1.46h-3.14l-3.79-5.65-1.15-4.54-.45,14.06-1.62,16.55-10.61,0-2.14-4.26-3.08-9.15-1.52-20.64-1.37-13.34L896,181h-2.74L889.41,183l-1.58-.47-7.07,0-2.49-12.32-1.57-.79h-2.92l-3.85,1.47-9.81,0-1.93,1.94-3.87-1.92L850,172.87l-1.94-1.93h-3.46l-3.86,1.47h-1.45l-2.91,1.46L834.28,175l-3.69,1.85h-4l-1.45,1.46h-2.92l-1.45,1.46h-1.85l-2.13,1.07L815,182.68h-2.92l-4.75,2.92-16.55,0-3.85,1.47h-1.46l-2.91,1.46-1.63.57-2.64,5.31L776.63,201l-3.49,1.76-1.85,1.85h-2.91l-1.45,1.46h-1.46l-2,2L762,211.07l-3.8,3.81-6.62,0,1.38,2.75L752,228h-4l-4.37,4.38h-3.92L735.48,241l-2.17-23.27L731.93,215l-1.75,12-3.45,3.46-4.72-4.7-1.62-3.23L719,219.72l-3.11-4.64L714.5,207l-2.58-1.28-1.63-3.25-2.67-2.66-1.71-1.7L704.34,195l-3.11-4.64-1.56-9.23L696.75,161l-1.74.08h-2L689.59,164h-1.85l-2.91,1.46-5,16.76-3.64-3.62-11,0-2.46-10.94-1.8.36-1.46,1.46L656.47,171l-1.84,1.86h-1.85L650.65,174l-1.45,1.46-3.69,1.86h-1.46l-2.91,1.47-2.52,1.46h-1.87l-1.34,12.35-3.66,1.84-1.45,1.46-3.69,1.86-2.52,1.46-5.75,0-1.49-11.66-8.79,0-1.78,10.91-4.44,2.23h-4l-1.45,1.46h-1.85l-5.25,2.65-1.63-14.29h-2.41L581.42,192h-4L576,193.47l-5.28,0L566.85,195h-2.49l-1.9,10.21-17,0L544,195l-5.94,0L533.33,198h-1.45L529,199.42l-1.89.82-3.54,3.57h-1.85l-2.91,1.46-15.09,0-3.85,1.47-2.14,1.07L494,209.71h-1.45l-2.14,1.07-3.29,3.31-12.57,0L473,215.19,470,216.66l-1.84,1.85h-2.91l-4.76,2.92-1.79,2.37-3.25,1.63L454,226.9l-3.69,1.86h-2L446,241.89h-2.9l-2.91,1.47h-1.46l-2.91,1.47h-1.45l-5.21,2.62-1.31-10.29,1.69-1.7-2.38,2.39-1.56,12.83h-4.85l-3.85,1.47h-3.95L408.55,250l-1.17-6.92-2.69.37h-3.82L399.4,242l-2.94,1.47H395l-2.91,1.47h-2.88l-1.68,11.67H383.8l-2.92-1.45-8.48,0L369.06,242l-1.28-3.8-2.8-2.79-1.3-2.58-2.58-1.28L359,230.45,356,229h-4.76l-1.46-1.46-4.37,0-1.8,8.74-9.49,0-2.91,2.92h-4.72l-1.46-1.45h-2.92l-1.46-1.45-3.46,2.37-2.37-2.35L313,238.75l-3.24,1.63-1.85,1.85H306.1L304,243.31l-3.82,3.84L297.2,237l-2,.54-1.84,1.85h-1.85l-2.13,1.07-1.84,1.85h-2.92l-4,2.54-2.9,2.92-3.69,1.85-2.79,11.68-1.89,3.81-4,2-2.13,1.08-2.58,1.29-3.48,7-3.49-10.39-2.12.67-2.9,2.92L245,271.53H243.5L240.59,273l-3.34,2.28-1.45,1.46-1.46,1.46-2.9,2.93-1.71,1.71-2.57,1.29-1.29,2.59-2.66,2.67-1.44,8.75-2.19,2.21-3.69,1.85h-1.46l-2.14,1.07-4.2,4.22-2.32-2.31-3.18,2.24-1.44,4.37-3.41,1.71-2.91,2.92-2.91,1.47-1.84,1.85h-2.91l-4,2.53-2.34,2.36-2.68,6.73-1.82,7.35h-3.71l-4.76,2.93H165l-2.36-2.34-3.16-6.28-.71-2.12-3.1.56h-2L152.22,333h-1.85l-2.91,1.46H146l-4.71,2.37-1.14-3.41-4.32,1.07-2.53-2.52-3.14-12.42L128.65,299l-3-21.84-1.51-19-3-30.61-1.52-21.9-1.51-27.56-3-16-1.48-14.46-2.94-10.19-1.5-14.66-1.42-7L105,108.73Z"/><rect id="Rectangle_657" data-name="Rectangle 657" class="cls-3" x="60.02" y="92.99" width="969.16" height="310.42" transform="translate(-0.61 1.33) rotate(-0.14)"/><path id="Path_627" data-name="Path 627" class="cls-8" d="M61.88,117.49H66l2.93,2.91,7.89,0,1.45-1.46h2.92l1.45-1.46L86.83,116l7.94,0,1.48,10.2h5l4,1.32,1.59,1.58h2.57l1.42,11.09,1.5,4.46,2.91,7.22,1.48,8.74,2.94,7.31,1.46,5.78,2,8,2.68-6.76,1.14,8.91L129.85,194l1.49,8.77,2.95,7.34,1.48,4.39,1.51,3,3,4.46,1.51,1.51,2.8,2.78,1.47,4.37,3,2.95,1.4,2.8,1.49,3,2.9,4.32,1.49,4.44,2.9,2.88,1.42,5.64,2.94,10.18,1.51,7.47,1.83,1.83,8.12,0,1.61-4.88,2.9-8.78,1.4-5.66,3.88-2.57,4,1.45h4.55l2.61,1.45,7.89,0,3.64,4.36h2.21l1.45-1.46h2.31l1.46,1.45h5.24l1.5-6.06,2.83-1.42,1.36-2.73h2.77l1.45-1.46H233l1.46-1.46,3.74-1.22,1.46,2.91,3.41-1.71h1.46l2.91-1.47h1.6l1.46-1.46h2.91l1.45-1.46h2.92l1.45-1.46h2.92l1.45-1.46,4.61-1.65,1.45-2.92,2.8-1.41,1.45-1.46,2.91-1.46,2.66-1.34,2.91-1.46h4.5l1.45-1.46h2.91l1.67-1.68,4.16-1.25,1.58-1.59,2.91-1.47,3.94-1.33h1.76l1.45-1.46h3.14l1.35-4.07,2.06,1,1.59,1.58,8.6,0,1.59,3.16,3.41-1.71h1.58l1.59-1.59,2.65-1.33,8.27,0,1.46,1.45,15.18,0,1.45-1.47h2.92l1.45-1.46,12.82,0,4.2,1.44h1.46l2.91,1.45,2.79,1.45h3.52l1.46-1.46h2.91l1.67-1.67,4-2.71h4.5l1.45-1.46H413l1.77,1.76,1.75-1.77,8.62,0,3.17-1.59L431,208.4l2.91-1.46h4.5l1.45-1.46h4.07l4.52,1.6,1.62-1.62,8.74,0,1.45-1.46h4.25l2.91-1.47,4,1.45,2.79,1.45,9.22,0,3.17-1.6,2.78-1.33,2.09-2.11,1.37,9.39,9.07,0,5.24,3.27,1.49-9.11h2.6l1.67-1.67,3.86-1.26h6l2.91-1.47h1.58l1.46-1.46h2.91l1.46-1.46,6.68,0,1.76,1.76,1.76-1.76,11.66,0,1.45-1.46,15.9,0,2.91-1.47,13.84,0,1.47,5.82,9,0L601,200.7h3.78l1.45-5.84h5.43l3.17-1.59,1.46-1.47,1.92-1,1.42,8.37,14.35,0,1.44-8.75,8.42,0,1.46-1.46,7.29,0,1.66-1.67,3.86-1.26L670,186l2.59-1.3L674,186.1l3.22-1.62,7.29,0,2.91-1.46h1.46l2.59-1.3,2.77,2.75H697l1.28,3.82,2.95,17.43,1.52,7.51,3,3L707.1,219l1.52,3,3.22,3.2h4.37l4.83,3.06,1.9-1.92,1.4-2.8,2.79-1.41,1.7-1.7,2.91-16.21,1.26-3.83h3.85l3.94,1.32,1.59,1.58h2.92l4.25,2.77,1.59,1.59h1.59l2.91,1.45h4.85l1.45-1.46,8.75,0,1.45-1.46h2.92l1.58-1.59,2-1,1.56,7.68,2.2-2.21h4.24l2.91-1.47h3.27l2.9-8.75h5.47l2.91-1.47h1.59l1.45-1.46h4.25l2.91-1.47h6l1.58-1.59,2.65-1.34h4.5l1.59-1.59,2.65-1.33h1.58l1.59-1.59,2.65-1.33,24.91-.06,3.56,7.28h2.15l3.17-1.59,4.24-1.34,1.46-1.46h1.7l2.89-10.2,6.91,0,2.91-1.47h4.5l1.46-1.46h2l1.32,5.22,1.49,13.14,3,9,1.79,1.79,8.16,0,1.59-6.44,1.43-13.09,2.81-8.51,4-1.14,1.45-1.46h4.37l1.46-1.46,8.61,0,2.91-1.46,10.33,0,1.46-1.46h4.37l3.69,2.9,12.5,0,3-6.13,3.77-1.17h1.76l1.46-1.46h2.61l4.2,1.45h1.8l3.18-1.59,2.65-1.34,2.91-1.46h1.46l2.91-1.46h6l1.45-1.47h4.24L1024,156h1.46l3.07-1.55-2.72,3h-1.46l-2.91,1.46h-4l-1.46,1.46h-5.27l-3.86,1.47h-1.45l-2.92,1.47-2.13,1.07-3.69,1.86H994.2l-2.92-1.45h-2.95l-1.45,1.46h-4.37l-3.91,7.3-14.18,0-2.09-3.12-2.58.22h-2l-1.45,1.46-9.65,0-3.85,1.47-8.36,0L933,175.12h-4.37l-1.46,1.46h-2.91l-3.11,8.49-1.42,13-1.89,7.63-9.9,0-2.47-2.46-3.17-9.45-1.5-13.19-1-4L898,178.12h-3.82l-3.86,1.47H884l-2.7,10.21h-2.2l-1.45,1.46h-2.92L870,194.22h-3.55l-2.31-6.88-2-.4-21.86.06-3.08,1.07-1.84,1.85h-1.85L831.39,191l-1.84,1.85h-3.82L822.65,194l-1.84,1.85h-5.28l-3.85,1.47h-4l-1.46,1.46H804.4l-2.91,1.47H796.6L793.82,209h-3l-3.86,1.47h-4l-3.7,3.71-1.72-8.48-1.88,1.87h-2.91L771.3,209l-8.74,0-1.45,1.46h-5.8l-2.91-1.45h-1.85l-1.85-1.84-2.92-1.45-4-1.06-1.85-1.84-2.14-1.07h-2.4l-2.24,2.73-3,16.56-2.18,2.2-2.58,1.29-1.28,2.59L721.33,230l-4.65-2.31-3.08-1.06h-2.36l-3.81-3.79-1.63-3.23-1.31-2.6-3.13-3.12-1.62-8-2.93-17.35-.91-2.71h-2.25l-2.1-2.1-2.31.65h-1.46l-2.91,1.46-6.35,0-4.79,1.94-1.46-1.45-2,1-14.18,0-2.91,2.93h-7.29l-1.45,1.46-6.73,0-2.5,8.75-16.82,0-1.3-7.65-5.09,3.3H608.6L606,202.15h-5.53L599,200.71l-9.55,0-1.47-5.82-11.41,0-3.85,1.47-15.09,0-2,1.46-11.66,0-2.35,2.37-2.37-2.36h-5.48l-1.45,1.47h-2.92l-1.45,1.46h-1.85l-2.91,1.46-8.35,0-2.91,2.92h-2l-1.61,9.84-5.89-2.92-3.08-1.06h-7.72l-1.13-7.74-1.92.46-4.76,2.93-10.16,0-1.46-1.46-4-1.45-3.33,1.47h-4l-1.45,1.46-8.75,0-1.92,1.94-3.87-1.92h-4.41L439,208.39H435.2l-3.85,1.46-2.14,1.08-3.69,1.85-8.35,0-2.36,2.37-2.37-2.36-2.55,1.47h-3.82L403,215.37l-3.29,3.31h-2.92l-1.45,1.46H390.6l-1.46-1.45-4-1.45H383.7l-2.92-1.45-13.15,0-1.46,1.46h-2.91l-1.46,1.46-16.38,0L344,217.36l-6.38,0-3.08,1.07-1.84,1.85h-1.85l-4.4,2.21-1.84-3.65-8.3,0L314.42,217l-1.49,3.31h-3.59l-1.45,1.46h-4.38l-4,2.53-1.84,1.85h-2.92l-2.91,2.92H289l-1.45,1.46h-3.83l-3.85,1.47-2.13,1.07-2.91,1.46-1.46,1.47-2.57,1.29-1.45,2.92-4,2-2.52,1.47h-2.91l-1.46,1.47h-2.91L254,246.72h-2.91l-1.45,1.46h-1.85l-2.91,1.46h-1.46l-4.4,2.21L237.57,249l-2.49.72-1.45,1.46h-2.91l-1.45,1.47H226.8L225.62,255,223,256.32l-1.61,6.52h-7l-1.46-1.45-2.55,1.46h-3.72l-2.17-4.32-3.77,0h-5.28L194,257.07l-5.44,0-2.92-1.45L183,256.71l-2.09,6.11L178,271.65l-2,5.87-9.76,0L163.73,275l-1.58-7.85L159.22,257l-1.33-5.28L155,248.88l-1.54-4.58-2.84-4.24-1.52-3-1.31-2.6-3-3L143.32,227l-2.56-2.54-1.61-1.61L136,218.23l-1.59-3.17-1.5-4.45-3-7.44-1.49-8.85-3-10.24-.43-3.42-2.26,5.7L119.66,174l-1.44-5.68-3-7.36-1.47-8.74-2.88-7.12-1.55-4.63-1.27-10h-1.89l-1.86-1.84-2.13-1.07-7.21,0-1.49-10.2-5.39,0-3.85,1.46-2.52,1.47H78.82l-1.45,1.47-9.1,0-2.1-2.1-2.83-.81H61.88Z"/><rect id="Rectangle_658" data-name="Rectangle 658" class="cls-3" x="60.02" y="92.99" width="969.16" height="310.42" transform="translate(-0.61 1.33) rotate(-0.14)"/><path id="Path_628" data-name="Path 628" class="cls-9" d="M106.79,137.71l2.55,1.26L110.8,156l1.53,29.15,3,30.59,1.53,32.06,3,30.6,1.53,27.68L122.88,328l3,14.7,1.62,3.22,3.29,1.64h1.8l2.91-1.46h1.59l1.58-1.59,2.66-1.33h1.45l2.91-1.46h3.9l2.64,8.74h3.21l1.62,1.61,2.53-1.27,1.31,6.44L164.3,364l2-2,4.24-1.47h4.77l1.56-6.33,2.83-7.11L182,346h2.61l1.46,1.45h3.52L191,346h5.7l3.29-1.65,1.45-2.92,2.79-1.41,3.65,1.58h3.39l2.59-1.3,1.46,1.45,3.23-1.62h1.81l1.52-4.59,2.74-1.38,1.46-1.46,2.91-1.46,4.24-1.34,1.67-1.68,3.85-1.25h4.67l1.46-1.46h4.38l1.58-1.59,2.91-1.47,1.45-1.46,2.91-1.46,1.46-1.47,3-1.52,1.51-3,4.06-4.08h1.46l2.9-2.93,4.5-1.59,1.54-1.55L282.4,302h4.67l1.59-1.6,2.65-1.33h1.59l1.58-1.59,2.65-1.34h1.46l3.17-1.6,1.45-1.46,2.66-1.33h1.58l1.67-1.67,2.91-2.92,3.85-1.26H319l2.91-1.47,3.77,1.32,4.91,6.67,2-3.94,3.94-2.63h1.45l3.41-1.71,1.47-10.47,2.65-5.33h5.68l1.45-1.46h2.92l1.58-1.59,2.65-1.33h1.59l1.45-1.46h2.92l1.45-1.46h4.24l2.91-1.46h2.92l2.91-1.46,8,0,1.38,5.47,1.82,1.81,11,0,2.9-7.3,10,0,1.45-1.46,8.62,0,2.14-1.08,1.44,11.27h2.27l2.91-1.47h1.46l2.91-1.47h1.46l2.91-1.47h1.58l1.46-1.46,7.29,0,1.45-1.46h2.91l1.46-1.46,23.32-.06,1.45-1.46h4.37l1.58-1.59,2.66-1.33h1.45l2.92-1.46h3.23l2.9-7.29,11.34,0,3.17-1.59,3.94-1.34h1.63l3.17-1.59,1.53-1.55,4.28-2.84,4.24-1.34H542l1.59-1.59,2.65-1.33,5.83,0,2.91-1.46,6,0,1.45-1.46h2.91l1.46-1.46h4.37l1.58-1.59,2.66-1.33h1.45l2.91-1.46h1.46l2.91-1.47h1.59l1.45-1.46,12.52,0,1.62,1.61,3.22-1.63h6l1.46-1.46,8.61,0,2.91-1.47h2.92l3.17-1.6,1.45-1.46,2.65-1.34h4.5l1.46-1.46,4.24-1.46,4.5,0,1.45-1.46h2.91l1.46-1.46,4.24-1.47h1.45l2.91-1.46,3.77,5.82H670l2.91-1.46h4.5l1.77-1.78,2.77-7,2.72-1.46h2.91l1.67-1.68,2.91-2.92,1.45-1.46,3.33-2.36,1.28,6.33,3,20.49,1.54,3.06,3.16,4.73h1.55l4.82,3.06,1.74-1.75,2.16-1.08,1.25,2.48,3,1.5,1.6,1.59h1.45l3.55,3.53,1.83-5.55,2.86-18.9L733,206l2.54-1.28h5.35l4.14,2.72,1.33,2.65,2.94,8.74,1.54,3.06,1.63,1.62,2.92,1.45,1.59,1.58h3.52l1.45-1.46h5.7l2.91-1.47h1.46l3.28-1.65,1-2,2.17,3.24,1.43,4.25,1.49,5.92,2.93,4.37,1.46,5.78,2.93,5.82,1.59,6.29h2.2l2.91-1.46h1.46l3.17-1.59,4.24-1.34,1.75-1.76,1.3-2.62,7.14,0,1.45-1.46,8.75,0,1.45-1.46h2.91l1.46-1.46h2.91l1.67-1.67,1.45-1.46,3-3,1.39-2.8,2.91-1.47,1.45-2.92,2.91-1.46,1.81,3.09,12.53,0,1.45-1.46h4.38l1.45-1.46h2.31l1.46,1.45h3.52l1.81-1.82,1.35-5.47h4l2.91-1.47h1.59l1.45-1.46h2.92l1.45-1.46h2.91l1.59-1.59,1.86-.94,1.38,13.51,1.51,19,3,13.25,1.71,3.39h3.36l5,3.78,1.58-16.11,1.41-18.91,2.87-13.09,1.28-7.79,2.19,1.08h7.63l2.31-1.17,1.37,4.07h5.07l2.6-1.31,3.23,1.29,2.19-1.09,1.42,8.37,8.2,0,1.67-1.67,3.61,6.6,2-2h4.37l1.45-1.46h4.6L981,215.3l1.28-3.88h3.85l4.2,1.45h1.46l3.52,1.75,1.54-4.67h2.69l1.67-1.68,4.16-1.25,1.58-1.59,2.65-1.34h4.5l1.46-1.46,8.74,0,1.58-1.59,2.81-1.41-1.94,2.61-1.84,1.85-8.19,0-2,1.46h-3.82l-3.08,1.08-1.84,1.85H1003l-2.91,2.92h-2.25l-1.74,5.28-4.71-2.35H990L987,212.87h-2.4l-2.29,2.89L979,226h-5l-1.45,1.47h-4.38l-3.15,3.17L962,223.38l-5,1.22h-6.22l-1.3-7.64-3.61.37-9.41,0-1.17-3.47-3.1.57h-6.34l-1.7,5.53-2.86,13-1.4,18.81L918,271l-5.55-5.52h-4.82l-2.19-4.36-3-13.52-1.52-19.08-1.16-11.39-1.61,1.73H895.2l-1.46,1.46h-2.91l-1.45,1.46h-1.85l-2.91,1.47h-2l-2.38,4.77-2.52,2.53H873l-1.46-1.45L869,230.64h-3.82l-2,1.47-14.27,0-.45-1.75.86-1.72-2.91,1.46L845,233.06,842,234.53l-1.29,2.58-3.16,3.17-1.45,1.46-2.09,2.11h-2.9l-1.46,1.46h-2.91l-1.46,1.47-8.74,0-1.45,1.46h-6.84l-1,2-2.34,2.35H802l-4.75,2.93h-1.46l-2.91,1.47h-3.68l-1.83-7.24L784.46,244,783,238.31l-2.93-4.37-1.54-6.11-1.35-4-4.78,1.23H771l-2.91,1.47h-5.44L761.15,228h-4.72l-1.85-1.84-2.92-1.45-2-2L748,219.39l-2.94-8.74L744,208.53l-2.59-1.28-3.08-1.06h-1.45l-2.74.91-1,2-2.84,18.8-2.62,7.91L722.92,231h-1.46l-1.85-1.84-3.26-1.62-.81-1.61-2.95,2.65-4.65-2.31-2.79-1.06-3.65-5.45-1.69-3.35-3-20.69-.89-4.42-2.7,2.69-2.9,2.92-2.1,2.11H685.3l-1.46,1.46-3.4,6.34-2.4,2.42h-3.83l-3.85,1.46h-4.78l-2.93-5.82-2.5,1.47h-1.46l-2.91,1.46-2.52,1.47h-2.92l-1.45,1.46h-3.82l-3.86,1.47-2.52,1.46h-3.82l-3.07,1.08-1.46,1.46-3.69,1.86h-2l-3.85,1.47-8.35,0L611,221.07h-5.28L601,223,599,221.1l-11.3,0-1.46,1.46h-1.84l-2.91,1.47H580l-2.91,1.46h-1.46l-2.13,1.07-1.84,1.85h-4.38l-1.45,1.46H563l-1.45,1.46-5.28,0-3.86,1.46h-4.88L544.4,234l-1.84,1.85h-2.88l-2-1-3.9,1-4,2.54-2.91,2.92-3.69,1.86h-4l-4.76,2.93-10.71,0-2.88,7.29H498l-3.86,1.47h-1.45L490.53,256l-1.84,1.85h-4.37l-1.46,1.47-22.76.05-2,1.46h-2.91l-1.46,1.46-7.28,0L445,263.74h-1.84l-2.91,1.46h-1.46l-2.91,1.47H434.4l-2.91,1.47h-3.9l-1.34-10.51-2.58.31-6.39,0-1.45,1.46-9.65,0-2.88,7.3-12.59,0-2.53-2.52-1.2-4.76H381.4L377.55,261h-2l-3.85,1.46h-4l-1.46,1.46h-2.91l-1.45,1.46h-1.85l-2.13,1.07-1.85,1.85h-2.91l-1.45,1.46h-5.28l-2.25,4.31-1.54,11-4.4,2.21h-1.45l-2.14,1.07-3.92,6.93-4.9-7.31-3.2-2.11-3.33,1.46-5.44,0-3.73,3.74-2.09,2.1h-1.85l-2.13,1.07-1.45,1.46-3.69,1.86h-1.46l-2.14,1.07-1.84,1.85h-1.85l-2.13,1.07-1.84,1.85-7.29,0L277.87,306l-3.69,1.86-4,2.94h-1.46l-2.27,2.28-2.82,4.46-3.24,1.64L259,320.66l-2.91,1.46-1.45,1.46-2.91,1.47-1.84,1.85h-4.38L244,328.37l-7.29,0-2.91,2.92h-2.91l-4,2.53-1.45,1.46-2.42,1.22-1.65,5h-2.52L215,343.48,213.57,342l-2,1h-4.34l-2-2-2.74,1.46-1.45,2.92-4,2H191.6l-1.45,1.46h-4.73L184,347.46h-2l-3.73,7.24-1.82,7.35h-4.62l-3.85,1.47-4,3-4.42-8.79-1-4.76-1.76.88-1.94-1.92H151l-1.7-8.39-2.36-.34-3.85,1.46h-1.46l-2.13,1.07-1.84,1.85h-1.85L132.92,349h-2.49l-4-2-1.93-3.82-3-15-1.52-22-1.53-27.65-3-30.61-1.53-32.06-3-30.59-1.53-29.16L108,139.92l-1.82-.91Z"/><g id="Group_452" data-name="Group 452"><g id="_0" data-name=" 0" class="cls-10"><text class="cls-11" transform="translate(40.21 136.49) rotate(-0.14)">0</text></g><g id="Group_451" data-name="Group 451"><g id="_-140" data-name=" -140" class="cls-10"><text class="cls-11" transform="translate(17.98 407.62) rotate(-0.14)">-140</text></g><g id="_-120" data-name=" -120" class="cls-10"><text class="cls-11" transform="translate(17.89 368.27) rotate(-0.14)">-120</text></g><g id="_-100" data-name=" -100" class="cls-10"><text class="cls-11" transform="translate(17.79 330.38) rotate(-0.14)">-100</text></g><g id="_-80" data-name=" -80" class="cls-10"><text class="cls-11" transform="translate(26.29 291.01) rotate(-0.14)">-80</text></g><g id="_-60" data-name=" -60" class="cls-10"><text class="cls-11" transform="translate(26.19 253.11) rotate(-0.14)">-60</text></g><g id="_-40" data-name=" -40" class="cls-10"><text class="cls-11" transform="translate(26.1 213.76) rotate(-0.14)">-40</text></g><g id="_-20" data-name=" -20" class="cls-10"><text class="cls-11" transform="translate(26 175.87) rotate(-0.14)">-20</text></g><g id="_20" data-name=" 20" class="cls-10"><text class="cls-11" transform="translate(31.53 98.62) rotate(-0.14)">20</text></g></g></g><g id="Group_453" data-name="Group 453"><g id="_21-Feb-20" data-name=" 21-Feb-20" class="cls-10"><text class="cls-11" transform="matrix(0.71, -0.71, 0.71, 0.71, 64.58, 77.54)">21-<tspan class="cls-12" x="22.89" y="0">F</tspan><tspan x="30.53" y="0">e</tspan><tspan class="cls-13" x="38.39" y="0">b</tspan><tspan x="46.83" y="0">-20</tspan></text></g><g id="_21-Mar-20" data-name=" 21-Mar-20" class="cls-10"><text class="cls-11" transform="matrix(0.71, -0.71, 0.71, 0.71, 124.83, 77.39)">21-Ma<tspan class="cls-14" x="42.15" y="0">r</tspan><tspan x="47.12" y="0">-20</tspan></text></g><g id="_21-Apr-20" data-name=" 21-Apr-20" class="cls-10"><text class="cls-11" transform="matrix(0.71, -0.71, 0.71, 0.71, 189.23, 77.23)">21<tspan class="cls-14" x="17.18" y="0">-</tspan><tspan x="22.6" y="0">Ap</tspan><tspan class="cls-14" x="40.08" y="0">r</tspan><tspan x="45.05" y="0">-20</tspan></text></g><g id="_21-May-20" data-name=" 21-May-20" class="cls-10"><text class="cls-11" transform="matrix(0.71, -0.71, 0.71, 0.71, 251.55, 77.08)">21-M<tspan class="cls-15" x="34.51" y="0">a</tspan><tspan class="cls-16" x="42.08" y="0">y</tspan><tspan class="cls-17" x="49.08" y="0">-20</tspan></text></g><g id="_21-Jun-20" data-name=" 21-Jun-20" class="cls-10"><text class="cls-11" transform="matrix(0.71, -0.71, 0.71, 0.71, 315.95, 76.92)">21<tspan class="cls-18" x="17.18" y="0">-</tspan><tspan class="cls-17" x="22.46" y="0">Jun-20</tspan></text></g><g id="_21-Jul-20" data-name=" 21-Jul-20" class="cls-10"><text class="cls-11" transform="matrix(0.71, -0.71, 0.71, 0.71, 378.28, 76.77)">21<tspan class="cls-18" x="17.18" y="0">-</tspan><tspan class="cls-17" x="22.46" y="0">Ju</tspan><tspan class="cls-16" x="37.89" y="0">l</tspan><tspan x="41.64" y="0">-20</tspan></text></g><g id="_21-Aug-20" data-name=" 21-Aug-20" class="cls-10"><text class="cls-11" transform="matrix(0.71, -0.71, 0.71, 0.71, 442.68, 76.61)">21<tspan class="cls-14" x="17.18" y="0">-</tspan><tspan x="22.6" y="0">Aug-20</tspan></text></g><g id="_21-Sep-20" data-name=" 21-Sep-20" class="cls-10"><text class="cls-11" transform="matrix(0.71, -0.71, 0.71, 0.71, 507.08, 76.45)">21<tspan class="cls-14" x="17.18" y="0">-</tspan><tspan x="22.6" y="0">Se</tspan><tspan class="cls-13" x="38.78" y="0">p</tspan><tspan x="47.22" y="0">-20</tspan></text></g><g id="_21-Oct-20" data-name=" 21-Oct-20" class="cls-10"><text class="cls-11" transform="matrix(0.71, -0.71, 0.71, 0.71, 569.4, 76.3)">21<tspan class="cls-19" x="17.18" y="0">-</tspan><tspan class="cls-20" x="23.1" y="0">Oc</tspan><tspan class="cls-21" x="40.44" y="0">t</tspan><tspan x="45.17" y="0">-20</tspan></text></g><g id="_21-Nov-20" data-name=" 21-Nov-20" class="cls-10"><text class="cls-11" transform="matrix(0.71, -0.71, 0.71, 0.71, 633.8, 76.15)">21-N<tspan class="cls-22" x="33.01" y="0">o</tspan><tspan class="cls-16" x="40.91" y="0">v</tspan><tspan x="47.81" y="0">-20</tspan></text></g><g id="_21-Dec-20" data-name=" 21-Dec-20" class="cls-10"><text class="cls-11" transform="matrix(0.71, -0.71, 0.71, 0.71, 696.12, 75.99)">21-Dec-20</text></g><g id="_21-Jan-21" data-name=" 21-Jan-21" class="cls-10"><text class="cls-11" transform="matrix(0.71, -0.71, 0.71, 0.71, 760.52, 75.83)">21<tspan class="cls-18" x="17.18" y="0">-</tspan><tspan class="cls-17" x="22.46" y="0">Jan-21</tspan></text></g><g id="_21-Feb-21" data-name=" 21-Feb-21" class="cls-10"><text class="cls-11" transform="matrix(0.71, -0.71, 0.71, 0.71, 824.92, 75.68)">21-<tspan class="cls-12" x="22.89" y="0">F</tspan><tspan x="30.53" y="0">e</tspan><tspan class="cls-13" x="38.39" y="0">b</tspan><tspan x="46.83" y="0">-21</tspan></text></g><g id="_21-Mar-21" data-name=" 21-Mar-21" class="cls-10"><text class="cls-11" transform="matrix(0.71, -0.71, 0.71, 0.71, 883.09, 75.53)">21-Ma<tspan class="cls-14" x="42.15" y="0">r</tspan><tspan x="47.12" y="0">-21</tspan></text></g><g id="_21-Apr-21" data-name=" 21-Apr-21" class="cls-10"><text class="cls-11" transform="matrix(0.71, -0.71, 0.71, 0.71, 947.49, 75.38)">21<tspan class="cls-14" x="17.18" y="0">-</tspan><tspan x="22.6" y="0">Ap</tspan><tspan class="cls-14" x="40.08" y="0">r</tspan><tspan x="45.05" y="0">-21</tspan></text></g><g id="_21-May-21" data-name=" 21-May-21" class="cls-10"><text class="cls-11" transform="matrix(0.71, -0.71, 0.71, 0.71, 1009.82, 75.23)">21-M<tspan class="cls-15" x="34.51" y="0">a</tspan><tspan class="cls-16" x="42.08" y="0">y</tspan><tspan class="cls-17" x="49.08" y="0">-21</tspan></text></g></g></g></g></g></g></g></svg>