<?xml version="1.0" encoding="utf-8"?>
<!-- Generator: Adobe Illustrator 22.0.1, SVG Export Plug-In . SVG Version: 6.00 Build 0)  -->
<svg version="1.1" id="SVGDoc" xmlns:avocode="https://avocode.com/"
	 xmlns="http://www.w3.org/2000/svg" xmlns:xlink="http://www.w3.org/1999/xlink" x="0px" y="0px" viewBox="0 0 1104 467"
	 style="enable-background:new 0 0 1104 467;" xml:space="preserve">
<style type="text/css">
	.st0{fill:#FFFFFF;}
	.st1{fill:#FFFFFF;fill-opacity:0;stroke:#A7A9AC;stroke-width:1.4173;stroke-miterlimit:20;}
	.st2{fill:#FFFFFF;fill-opacity:0;stroke:#D9D9D9;stroke-width:1.3479;stroke-linejoin:round;stroke-miterlimit:20;}
	.st3{fill:#FFFFFF;fill-opacity:0;stroke:#BFBFBF;stroke-width:1.3479;stroke-linejoin:round;stroke-miterlimit:20;}
	.st4{fill:#D1D3D4;}
	.st5{fill:#222B3E;}
	.st6{fill:#313E59;}
	.st7{fill:#91BCE8;}
	.st8{fill:#808285;}
	.st9{fill:#231F20;}
	.st10{fill:#606060;}
	.st11{font-family:'ArialMT';}
	.st12{font-size:14.3137px;}
	.st13{font-size:11.4766px;}
</style>
<desc>Generated with Avocode.</desc>
<title>Group 455</title>
<g>
	<title>Rectangle 652</title>
	<path class="st0" d="M15.2,451.8L15.2,451.8V18.3l0,0h1073.7l0,0v433.5l0,0H15.2z"/>
	<path class="st1" d="M15.2,451.8L15.2,451.8V18.3l0,0h1073.7l0,0v433.5l0,0H15.2z"/>
</g>
<title>Group 454</title>
<g>
	<title>Path 616</title>
	<path class="st2" d="M74.4,187.3H1043"/>
</g>
<g>
	<title>Path 617</title>
	<path class="st2" d="M74.4,225.1H1043"/>
</g>
<g>
	<title>Path 618</title>
	<path class="st2" d="M74.4,264.5H1043"/>
</g>
<g>
	<title>Path 619</title>
	<path class="st2" d="M74.4,302.4H1043"/>
</g>
<g>
	<title>Path 620</title>
	<path class="st2" d="M74.4,341.7H1043"/>
</g>
<g>
	<title>Path 621</title>
	<path class="st2" d="M74.4,379.7H1043"/>
</g>
<g>
	<title>Rectangle 653</title>
	<path class="st3" d="M73.9,419.7L73.9,419.7V109.2l0,0H1043l0,0v310.4l0,0H73.9z"/>
</g>
<g>
	<title>Line 65</title>
	<path class="st3" d="M74.6,418.9l0-309"/>
</g>
<g>
	<title>Line 66</title>
	<path class="st3" d="M74.6,147.9l967.7,0"/>
</g>
<g>
	<title>Path 622</title>
	<path class="st3" d="M0-20"/>
</g>
<g>
	<title>Path 623</title>
	<path class="st4" d="M119.1,130.6L119.1,130.6l1.5,4.4l0,0l2.9,5.8l0,0l1.4,8.6l0,0l1.5,7.3l0,0l2.9,14.6l0,0l1.5,7.3l0,0l2.9,29.1
		l0,0l1.5,20.4l0,0l1.5,19l0,0l2.9,29.1l0,0l1.5,23.3l0,0l2.9,19l0,0l1.5,16.3l0,0l3.3,3.3l0,0h1.8l0,0h1.8l0,0l2.9-4.4l0,0l4.4-1.6
		l0,0l1.5-1.5l0,0l3-1.5l0,0l1.5-3l0,0l4.4-4.4l0,0l1.5-5.8l0,0l2.6-2.6l0,0l3.7,4.4l0,0h2.1l0,0l1.6-1.6l0,0l2.9-1.5l0,0l1.5-1.5
		l0,0l3-1.5l0,0l1.6-3.2l0,0l2.9-8.7l0,0l1.2-2.5l0,0l4.4-1.6l0,0l1.5-1.5l0,0l2.9-1.5l0,0l1.5-1.5l0,0l2.7-1.3l0,0h2.9l0,0l3.2-1.6
		l0,0l1.5-1.5l0,0l2.9-1.5l0,0l3.8,8.6l0,0l2.2-4.4l0,0l4.2-2.7l0,0l1.5-1.5l0,0l2.9-1.5l0,0l1.7-1.7l0,0l1.5-13.1l0,0l2.8-2.8l0,0
		l1.4-2.8l0,0l2.9-1.5l0,0l1.5-2.9l0,0l2.8-1.4l0,0l1.5-1.5l0,0l4.4-2.9l0,0l1.4-2.7l0,0h2.8l0,0l1.6-1.6l0,0l2.3-1.2l0,0l3.2,1.3
		l0,0l2.9-1.5l0,0l3.7,10.2l0,0h2.2l0,0l3.2-1.6l0,0l1.5-1.5l0,0l4-2.7l0,0h1.9l0,0l2.9-11.7l0,0l4-1.5l0,0h1.6l0,0l1.6-1.6l0,0
		l2.9-1.5l0,0l1.5-1.5l0,0l2.7-1.3l0,0h1.5l0,0l3.2-1.6l0,0l1.5-1.5l0,0l4.3-2.8l0,0l3.4,8.9l0,0h2l0,0h2.9l0,0h1.5l0,0l4.8,1.8l0,0
		l1.7-5.2l0,0l2.5-7.6l0,0l2.6,0.8l0,0h2.6l0,0l1.6,1.6l0,0l2.6-1.3l0,0l1.5,5.8l0,0l3.3-1.6l0,0l3.1,1.3l0,0h2.6l0,0l1.5,1.5l0,0
		h3.2l0,0h1.5l0,0h2.9l0,0h1.8l0,0l3.4,6.7l0,0l1.5,9.3l0,0h3.5l0,0h1.6l0,0l2.9-1.5l0,0h3.3l0,0l3.1-9.3l0,0l1.4-8.4l0,0l2.7-1.3
		l0,0l1.5-1.5l0,0l2.7-1.3l0,0h2.7l0,0h2.9l0,0l4.2,1.5l0,0h1.5l0,0l3.2,1.6l0,0l1.6-1.6l0,0l4.5-1.6l0,0l3.9-1.3l0,0h1.8l0,0
		l1.5-1.5l0,0h2.9l0,0l1.5-1.5l0,0h2.3l0,0l1.6,1.6l0,0l2.9-1.5l0,0l3.1,1.3l0,0h2.9l0,0h1.5l0,0h3.2l0,0l1.5-1.5l0,0h3.1l0,0
		l1.8,8.7l0,0h3.6l0,0h1.5l0,0h2.9l0,0h1.5l0,0h2.6l0,0l2.3,2.3l0,0L460,220l0,0h2.3l0,0h1.5l0,0h2.9l0,0l3.9,1.3l0,0l1.6,1.6l0,0
		h1.6l0,0l2.7,1.3l0,0l1.6,1.6l0,0h2.9l0,0l1.6,1.6l0,0l2.9-1.5l0,0l3.2,1.3l0,0l3.2-1.6l0,0l4.2-1.3l0,0l1.5-1.5l0,0h2.9l0,0
		l1.5-1.5l0,0l4.2-1.5l0,0h4.2l0,0h1.5l0,0l4.2,1.5l0,0h1.6l0,0h2.9l0,0h1.5l0,0h2.6l0,0l2.8,2.8l0,0l3.2,1.6l0,0h1.8l0,0l2.9-1.5
		l0,0h1.5l0,0l3.2-1.6l0,0l1.5-1.5l0,0l4.3-2.8l0,0l1.5-1.5l0,0l2.9-1.5l0,0l4.2-1.3l0,0l1.7-1.7l0,0l3.3-2.3l0,0l1.4,9.8l0,0h3.5
		l0,0h1.5l0,0h2.9l0,0h1.5l0,0h1.9l0,0l3.2-6.3l0,0l1.3-10.3l0,0l2.1,2.1l0,0h1.6l0,0l2.7,1.3l0,0l1.6,1.6l0,0l4.4,9.4l0,0l2.3-2.3
		l0,0l2.7-2.7l0,0h1.5l0,0l2.9-2.9l0,0h1.5l0,0l1.7-1.7l0,0l2.7-4.1l0,0l4.4-1.6l0,0l1.5-1.5l0,0l3.9-1.2l0,0h1.5l0,0h3.2l0,0
		l1.6-1.6l0,0l2.7-1.3l0,0h2.9l0,0l2.6-1.3l0,0l1.5,1.5l0,0l3.2-1.6l0,0h4.2l0,0h1.5l0,0h1.5l0,0h3.4l0,0l1.5-2.9l0,0h1.8l0,0
		l1.5,11.7l0,0h3.6l0,0h1.5l0,0h1.5l0,0h2.6l0,0l1.5,1.5l0,0h3.9l0,0l1.5-14.8l0,0l2.4-1.2l0,0h1.6l0,0l1.6-1.6l0,0l3-1.5l0,0l1.5-3
		l0,0l1.8-1.8l0,0l1.3,8.8l0,0l3.2,12.9l0,0l2.2-2.2l0,0h4.1l0,0l5,1.8l0,0l1.6-12.6l0,0l2.8-12.5l0,0l2.8-1.6l0,0l2.7-1.3l0,0h1.6
		l0,0l3.1-3.1l0,0l1.5-1.5l0,0l3.4-2.4l0,0l1.2,4.9l0,0l2.9,17.5l0,0l1.5,4.6l0,0l3,3l0,0l2.8,4.3l0,0l3,3l0,0l1.7,1.7l0,0h2.9l0,0
		l4.5,2.9l0,0l2.5,2.7l0,0l3.9,1.9l0,0l1.7-5.2l0,0l2.9-14.6l0,0l1.3-3.8l0,0h2.1l0,0l1.5,1.5l0,0h1.8l0,0h2.6l0,0l4.1,2.7l0,0
		l1.5,4.4l0,0l3.3,1.7l0,0l2.8,1.5l0,0h3.2l0,0h1.6l0,0l3.2-1.6l0,0l1.5-1.5l0,0l2.7-1.3l0,0h2.7l0,0h2.9l0,0h1.5l0,0h2.6l0,0
		l4.5,2.9l0,0h1.9l0,0l1.5-1.5l0,0h2.9l0,0l1.6-1.6l0,0l3.1-1.5l0,0l1.5-4.5l0,0l3.9-2.6l0,0h1.5l0,0l2.9-1.5l0,0h4.2l0,0h1.5l0,0
		L823,199l0,0l1.5,10.8l0,0h3.8l0,0l1.5-1.5l0,0h2.9l0,0l1.5-1.5l0,0h1.7l0,0l3-13.7l0,0l1.4-11.1l0,0h2.6l0,0l1.6-1.6l0,0l2.7-1.3
		l0,0h1.6l0,0l1.6-1.6l0,0l2.9-1.5l0,0l3.9-1.3l0,0h1.6l0,0l2.9-1.5l0,0h2.7l0,0h3.2l0,0l1.6-1.6l0,0l2.9-1.5l0,0l3.9-1.3l0,0h1.5
		l0,0h1.5l0,0h2.6l0,0l1.5,1.5l0,0h3.2l0,0h1.6l0,0l2.4-1.2l0,0l1.3,2.7l0,0h2.1l0,0l3.2-1.6l0,0l3.3,11.4l0,0l1.6,1.6l0,0l1.7,1.7
		l0,0h3.2l0,0h1.5l0,0h2.9l0,0h2.1l0,0l2.5-13.8l0,0l0.5,1.6l0,0l1.5,17.8l0,0l3.8,1.9l0,0l1.6-1.6l0,0h2.3l0,0l5.2,3.3l0,0l1.7-8.3
		l0,0l1.4-15l0,0l1.7,0.8l0,0l1.5,6.1l0,0h3.5l0,0h1.5l0,0h2.9l0,0h1.5l0,0h1.6l0,0l2.9-1.5l0,0l4,1.5l0,0h1.5l0,0l2.7,1.3l0,0l3,3
		l0,0h3.2l0,0h1.5l0,0h2.9l0,0h1.6l0,0l2.9-1.5l0,0h1.6l0,0l3.6,5.8l0,0h1.8l0,0l2.7,1.3l0,0l1.6,1.6l0,0h1.8l0,0h2.9l0,0h2l0,0
		l2.9-8.7l0,0l4.3-1.6l0,0l2.5-1.3l0,0h2.9l0,0h1.5l0,0h3.2l0,0l1.5-1.5l0,0h2.6l0,0l2.5,1.3l0,0l2.9,1.5l0,0l4.1,9.8l0,0l1.4,7.2
		l0,0l2.9,18.9l0,0l1.5,20.4l0,0l1.5,5.9l0,0l2.9,7.3l0,0l2,6l0,0l3.7-7.5l0,0l1.5-4.5l0,0l2.9-17.5l0,0l-1.5,17.9l0,0l-1.6,4.7l0,0
		l-5.3,10.7l0,0l-3.1-9.3l0,0l-2.9-7.4l0,0l-1.5-6.2l0,0l-1.5-20.5l0,0l-2.9-18.8l0,0l-1.4-7.1l0,0l-2.7-8.1l0,0l-3.8-2.3l0,0
		l-1.6-1.1l0,0h-2l0,0l-1.5,1.5l0,0h-3.8l0,0h-1.5l0,0h-2.9l0,0l-1.6,1.1l0,0l-3.7,1.8l0,0l-3.3,8.7l0,0h-3l0,0h-2.9l0,0h-2.4l0,0
		l-1.8-1.8l0,0l-2.1-1.1l0,0h-2.4l0,0l-2.2-5.6l0,0l-1.6-0.2l0,0l-2.9,1.5l0,0h-2l0,0h-2.9l0,0h-1.5l0,0h-3.8l0,0l-2.1-2.1l0,0
		l-3.3-2.3l0,0h-1.5l0,0l-2.9-1.5l0,0l-3.3,1.5l0,0h-2l0,0h-1.5l0,0h-2.9l0,0h-1.5l0,0h-4.6l0,0l-1.6-6.5l0,0l-0.3,13.4l0,0l-2,10.2
		l0,0l-5.8-2.9l0,0l-2.2-1.1l0,0l-1.9,1.9l0,0l-5.4-2.7l0,0l-1.5-18.5l0,0l1.3,4l0,0l-1.7,9.4l0,0h-3.3l0,0h-2.9l0,0h-1.5l0,0h-3.8
		l0,0l-2.1-2.1l0,0l-1.9-1.9l0,0l-2.2-9.9l0,0l-2.6,0.7l0,0h-3.3l0,0l-1.1-2.2l0,0l-3.4,0.7l0,0h-3.8l0,0l-1.5-1.5l0,0h-2l0,0h-1.5
		l0,0h-1.5l0,0h-2l0,0l-4,2.5l0,0l-1.8,1.8l0,0h-3.8l0,0H863l0,0l-3.9,1.5l0,0h-2l0,0h-2l0,0l-4,2.5l0,0l-1.8,1.8l0,0h-1.8l0,0
		l-2.1,1.1l0,0l-1.8,1.8l0,0h-1.9l0,0l-1.2,9.8l0,0l-3.3,14.9l0,0h-2.3l0,0l-1.5,1.5l0,0h-2.9l0,0l-1.5,1.5l0,0h-5.7l0,0l-1.7-12
		l0,0l-2.5-9.9l0,0h-4.1l0,0l-3.9,1.5l0,0h-1.5l0,0l-2.1,1.1l0,0l-2.4,5.6l0,0l-3.4,1.7l0,0l-1.8,1.8l0,0h-2.9l0,0l-1.5,1.5l0,0
		h-2.9l0,0l-3.7-1.8l0,0l-3.1-1.1l0,0h-1.5l0,0h-2.9l0,0H780l0,0l-3.1,1.1l0,0l-1.5,1.5l0,0l-3.7,1.8l0,0h-2l0,0h-3.8l0,0l-1.5-1.5
		l0,0l-5.3-2.1l0,0l-1.5-4.4l0,0l-2.4-1.2l0,0l-3.1-1.1l0,0h-2.4l0,0l-1.5-1.5l0,0l-1.3,2.7l0,0l-2.9,14.6l0,0l-2.3,6.9l0,0
		l-5.8-2.9l0,0l-1.2-2.4l0,0l-4.3-1.8l0,0l-4-1.1l0,0l-2.1-2.1l0,0l-3.2-3.2l0,0l-1.5-2.9l0,0l-4.5-4.5l0,0l-1.7-5l0,0l-2.9-17.6
		l0,0L710,170l0,0l-2.8,2.7l0,0l-3.6,3.6l0,0h-1.8l0,0l-2.1,1.1l0,0l-1.8,1.8l0,0l-3.1,11.3l0,0l-1.8,14.6l0,0l-5.2-2.6l0,0h-3.9
		l0,0l-4.1,3.5l0,0l-3.9-15.5l0,0l-0.9-6l0,0l-1.2,2.8l0,0l-3.2,1.6l0,0l-1.8,1.8l0,0h-1.8l0,0l-2.9,16l0,0h-5.8l0,0l-1.5-1.5l0,0
		h-2l0,0h-1.5l0,0h-1.5l0,0h-4.8l0,0l-1.5-11.7l0,0l-1.1,2.9l0,0h-4.3l0,0h-1.5l0,0h-1.5l0,0h-2.9l0,0l-4.8,1.9l0,0l-1.5-1.5l0,0
		l-2,1l0,0h-2l0,0l-3.1,1.1l0,0l-1.8,1.8l0,0h-3.8l0,0h-1.5l0,0h-2l0,0l-2.5,2.5l0,0l-3.7,1.8l0,0l-3.2,3.6l0,0l-2.3,2.3l0,0h-1.5
		l0,0l-2.9,2.9l0,0h-1.5l0,0l-2.3,2.3l0,0l-4,4l0,0l-3.5-10.6l0,0l-2.6-1.8l0,0l-2.1-1.1l0,0h-1.8l0,0l-1.3,7.2l0,0l-3.7,7.4l0,0
		h-2.8l0,0h-1.5l0,0h-2.9l0,0h-1.5l0,0h-4.8l0,0l-1.3-9.1l0,0l-3.2,3.2l0,0h-2.9l0,0l-4,2.5l0,0l-1.5,1.5l0,0l-2.9,1.5l0,0l-2.9,2.9
		l0,0l-3.7,1.8l0,0h-1.5l0,0l-2.9,1.5l0,0h-2.5l0,0l-3.7-1.8l0,0l-1.7-1.7l0,0l-2.8-0.8l0,0h-1.5l0,0h-2.9l0,0h-2l0,0l-2.9-1.5l0,0
		h-2.4l0,0h-2.9l0,0l-3.9,1.5l0,0l-2.5,1.5l0,0h-2.9l0,0l-1.5,1.5l0,0h-2.9l0,0l-4.8,2.9l0,0h-2.9l0,0l-3.9,0.5l0,0l-1.9-1.9l0,0
		h-2.9l0,0l-1.8-1.8l0,0l-2.1-1.1l0,0h-1.8l0,0l-1.8-1.8l0,0l-2.1-1.1l0,0h-3.9l0,0h-1.5l0,0l-2.8,14.2l0,0l-4-4l0,0h-2l0,0h-1.5
		l0,0h-2.9l0,0h-1.5l0,0h-4.8l0,0l-0.8-6.4l0,0l1.2-2.3l0,0h-3.4l0,0l-1.5,1.5l0,0h-3.8l0,0h-1.5l0,0h-2.9l0,0h-2.4l0,0l-3.9,0.5
		l0,0l-1.9-1.9l0,0l-2.6,1.5l0,0h-2.9l0,0l-1.5,1.5l0,0h-2.4l0,0h-2l0,0l-4.8,2.9l0,0l-3,1.9l0,0l-3.9-1.9l0,0h-1.5l0,0l-2.9-1.5
		l0,0h-3.9l0,0h-1.5l0,0l-3.1,1.1l0,0l-1.5,1.5l0,0l-2.2,1.1l0,0l-1.3,7.8l0,0l-3.5,10.4l0,0h-3l0,0l-3.9,1.5l0,0h-2l0,0h-4.8l0,0
		l-1.7-10.4l0,0l-1.7-5.2l0,0l-2-0.4l0,0h-2.9l0,0h-1.5l0,0h-3.8l0,0l-1.5-1.5l0,0h-2l0,0h-2.4l0,0l-4.9,1l0,0l-1.5-5.8l0,0
		l-1.9,0.9l0,0l-1.9-1.9l0,0h-2l0,0h-2.4l0,0l-1.4,5.8l0,0l-2.3,6.8l0,0l-4.7-2.4l0,0h-2.4l0,0h-2.9l0,0h-3.1l0,0l-2.3-8.2l0,0
		l-2,0.5l0,0l-2.9,2.9l0,0l-3.7,1.8l0,0H301l0,0l-2.1,1.1l0,0l-1.5,1.5l0,0l-2.9,1.5l0,0l-1.8,1.8l0,0h-1.8l0,0l-2.9,1.5l0,0
		l-3.2,11.7l0,0h-2.6l0,0l-2.1,1.1l0,0l-2.9,2.9l0,0l-3.7,1.8l0,0h-3.6l0,0l-2.9-10.2l0,0l-2.2,1.5l0,0h-2.9l0,0l-2.2-0.4l0,0
		l-1.8,1.8l0,0h-2.5l0,0l-1.2,2.4l0,0l-3.2,1.6l0,0l-2.9,2.9l0,0l-2.6,1.3l0,0l-1.5,2.9l0,0l-2.9,1.5l0,0l-1.3,2.6l0,0l-2.6,2.6l0,0
		l-1.5,13.1l0,0l-2.2,2.3l0,0l-2.9,1.5l0,0l-1.5,1.5l0,0l-2.9,1.5l0,0l-4.6,8.3l0,0l-3.5-10.4l0,0l-2.1,0.7l0,0l-1.5,1.5l0,0
		l-3.7,1.8l0,0h-2l0,0l-3.1,1.1l0,0l-1.5,1.5l0,0l-2.9,1.5l0,0l-1.5,1.5l0,0l-3.7,1.8l0,0l-1.4,1.6l0,0l-2.9,8.7l0,0l-1.9,3.7l0,0
		l-3.2,1.6l0,0l-1.5,1.5l0,0l-2.9,1.5l0,0l-1.8,1.8l0,0h-3.5l0,0l-2.9-4.4l0,0l-1.2,1.8l0,0l-1.5,5.8l0,0l-3.3,3.3l0,0l-2.8,4.5l0,0
		l-3.2,1.6l0,0l-1.5,1.5l0,0l-3.7,1.8l0,0l-3.7,4.4l0,0h-2.6l0,0H148l0,0l-4.1-4.1l0,0l-1.5-16.8l0,0l-2.9-19l0,0l-1.5-23.4l0,0
		l-2.9-29.1l0,0l-1.5-19l0,0l-1.5-20.4l0,0l-2.9-29l0,0l-1.4-7.2l0,0l-2.9-14.6l0,0l-1.5-7.3l0,0l-1.4-8.5l0,0l-2.8-5.7l0,0
		l-1.5-4.5l0,0L119.1,130.6z"/>
</g>
<g>
	<title>Rectangle 654</title>
	<path class="st3" d="M73.9,419.7L73.9,419.7V109.2l0,0H1043l0,0v310.4l0,0H73.9z"/>
</g>
<g>
	<title>Path 624</title>
	<path class="st5" d="M101.5,129.2L101.5,129.2l1.3-2.7l0,0l2.8-1.4l0,0l1.5-1.5l0,0l2.7-2.7l0,0h1.5l0,0l1.5-1.5l0,0h2.6l0,0h1.5
		l0,0h2.9l0,0l3.8,1.3l0,0l1.3,2.6l0,0l1.4,5.8l0,0l2.9,8.7l0,0l1.5,13.1l0,0l2.9,14.6l0,0l1.5,13.1l0,0l1.5,14.6l0,0l2.9,20.4l0,0
		l1.5,19l0,0l2.9,17.5l0,0l1.5,13.2l0,0l3,10.3l0,0l1.7,3.4l0,0h1.9l0,0h3.2l0,0l1.7-1.7l0,0l2.9-2.9l0,0l1.5-1.5l0,0l3-3l0,0
		l1.5-2.9l0,0l4.3-2.8l0,0l1.5-2.9l0,0l2.8-1.4l0,0l3.4,8.9l0,0h2.3l0,0l1.6-1.6l0,0l2.7-1.3l0,0h1.5l0,0l2.9-1.5l0,0h1.9l0,0
		l3-12.1l0,0l1.2-2.4l0,0l3.3,1.2l0,0l1.6,9.4l0,0l3.6-1.8l0,0h1.5l0,0l3.2-1.6l0,0l2.8-1.3l0,0l3.3-3.3l0,0l1.4-11.3l0,0h2.7l0,0
		l0.8-1.6l0,0l2.6,10.3l0,0h2.3l0,0l1.5-1.5l0,0h2.6l0,0h1.6l0,0l2.6-1.3l0,0l2.2,2.2l0,0l1.6-14.4l0,0l2.9-2.9l0,0l1.3-5.1l0,0
		l2.3,1.1l0,0h1.6l0,0h2.9l0,0h1.5l0,0l3.8,1.2l0,0l1.5,4.6l0,0h3.7l0,0l1.5-1.5l0,0h2.6l0,0h1.5l0,0h1.5l0,0h2.9l0,0l4.1,2.9l0,0
		h1.9l0,0l3.2-1.6l0,0l1.5-1.5l0,0l1.5-1.5l0,0l3-3l0,0l1.5-3l0,0l2.8-4.3l0,0l4-2.7l0,0h1.6l0,0l1.5-1.5l0,0h2.9l0,0l1.5-1.5l0,0
		h2.9l0,0l1.6-1.6l0,0l1.9-1l0,0l1.3,8l0,0l1.8,1.8l0,0h3.2l0,0h1.5l0,0h2.9l0,0h1.5l0,0h3.5l0,0l1.5-9.2l0,0l1.3-2.6l0,0l2.8-1.4
		l0,0l3.9-1.3l0,0l2.6,1.5l0,0h3.2l0,0l3.9,2.7l0,0l1.7,1.7l0,0h3.5l0,0l1.5-1.5l0,0h4.4l0,0l1.6-1.6l0,0l2.9-1.5l0,0l3.9-1.3l0,0
		h1.5l0,0h1.6l0,0l2.9-1.5l0,0h4.5l0,0l1.5-1.5l0,0h2.6l0,0h1.5l0,0h1.5l0,0h2.9l0,0h1.5l0,0h2.9l0,0h1.6l0,0l2.9-1.5l0,0h1.6l0,0
		l1.5-1.5l0,0h2.6l0,0h1.5l0,0h2.9l0,0h1.5l0,0h3.2l0,0l1.5-1.5l0,0l4.2,1.6l0,0l1.6-1.6l0,0h2.9l0,0l1.5-1.5l0,0h4.4l0,0l1.6-1.6
		l0,0l2.7-1.3l0,0h1.6l0,0l3.2-3.2l0,0l1.3-2.6l0,0l4.1-1.5l0,0h4.2l0,0l3.8,1.2l0,0l1.5,4.6l0,0h2l0,0h3.2l0,0l1.5-1.5l0,0h2.3l0,0
		l1.5,1.5l0,0h3.5l0,0l1.5-1.5l0,0l4.2-1.5l0,0h1.5l0,0l3.2-1.6l0,0l1.5-1.5l0,0l2.9-2.9l0,0l2.6-1.2l0,0l2.9-1.5l0,0h4.5l0,0
		l1.5-1.5l0,0h2.3l0,0l2.6,16l0,0h3.6l0,0h1.5l0,0h2.9l0,0h1.5l0,0h3.2l0,0l1.9-1.9l0,0l1.4-15.6l0,0h2.2l0,0h1.5l0,0h3.2l0,0h2.3
		l0,0h2.9l0,0l1.5,1.5l0,0h3.2l0,0h1.5l0,0h2.9l0,0h1.5l0,0h1.6l0,0l2.9-1.5l0,0h1.6l0,0l2.9-2.9l0,0l4.5-1.6l0,0l2.5-1.3l0,0h2.9
		l0,0h1.6l0,0l3.2-1.6l0,0l3.9-1.3l0,0h1.5l0,0h1.6l0,0l2.1-1.1l0,0l1.4,15.6l0,0h3.6l0,0l4.2,1.5l0,0h1.6l0,0h1.5l0,0h3.6l0,0
		l1.4-15.6l0,0l2.4,1.2l0,0l1.6-1.6l0,0h2.9l0,0l1.5-1.5l0,0h4.4l0,0l1.5-1.5l0,0h2.6l0,0h1.5l0,0h2.6l0,0l1.5,1.5l0,0h1.8l0,0h2.2
		l0,0l1.5,17.5l0,0h3.6l0,0h1.5l0,0h1.8l0,0l3.1-3.1l0,0l4.6-3l0,0l1.4-18.7l0,0h2.2l0,0h1.5l0,0h1.5l0,0h2.9l0,0h1.8l0,0l2.9-4.4
		l0,0l3.8,1.5l0,0h1.6l0,0l3.8,4.1l0,0l4.7,8.1l0,0l2-2l0,0h2.6l0,0h1.8l0,0l1.7-1.7l0,0l2.9-4.4l0,0l4-2.6l0,0h4.5l0,0l1.5-1.5l0,0
		h4.1l0,0l4.2,1.5l0,0l4.2,2.9l0,0h1.8l0,0h1.5l0,0h2.9l0,0h1.6l0,0l2.9-1.5l0,0h1.6l0,0l2.9-2.9l0,0h2.6l0,0h3.2l0,0l1.7-1.7l0,0
		l2.7-2.7l0,0l2.2,1.3l0,0l2.7,1.3l0,0l1.4,8.4l0,0l2.9,21.8l0,0l1.5,11.8l0,0l2.9,4.4l0,0l1.4,5.8l0,0l1.5,3l0,0l3,4.5l0,0l1.6,1.6
		l0,0l2.8,1.4l0,0l1.6,3.1l0,0h3.8l0,0l1.6-3.2l0,0l4.4-2.9l0,0l1.5-10.6l0,0l2.9-18.9l0,0l1.4-10l0,0l2.7-2.7l0,0l2.6-1.2l0,0
		l2.6-1.3l0,0l4.1,1.3l0,0l1.3,2.6l0,0l3,3l0,0l1.7,1.7l0,0h1.5l0,0l3.2,3.2l0,0l1.8-1.8l0,0h2.6l0,0h1.6l0,0l2.6-1.3l0,0l1.6,1.6
		l0,0l1.9-1.9l0,0l2.7-1.3l0,0h1.5l0,0l2.9-1.5l0,0h4.5l0,0l1.7-1.7l0,0l4.2-1.2l0,0l1.5-1.5l0,0h2.9l0,0l1.5-1.5l0,0h4.4l0,0
		l1.5-1.5l0,0h2.6l0,0h1.5l0,0h2.9l0,0h1.5l0,0l3.7,5.3l0,0l1.5,7.5l0,0l3.4,1.7l0,0h1.6l0,0h2.9l0,0h1.8l0,0l1.8-1.8l0,0l3-6l0,0
		l1.4-7l0,0l2.4-1.2l0,0h3.9l0,0l2.8,2.8l0,0l2.9,1.5l0,0l1.5,1.5l0,0l2.9,1.5l0,0l1.5,1.5l0,0l2.9,1.5l0,0l2.9,4.5l0,0h3.1l0,0
		l4.5,2.9l0,0h1.5l0,0l2.9,1.5l0,0h1.6l0,0l4.2,1.5l0,0l4,2.7l0,0l1.5,1.5l0,0l3.1,3.1l0,0h1.5l0,0l4.5,2.9l0,0h1.6l0,0h2.9l0,0
		l2.6,1.5l0,0h3.2l0,0l3.9,1.3l0,0l1.5,1.5l0,0l3.2,1.6l0,0l2.4,15.8l0,0l3.9,2l0,0l1.7-3.5l0,0l2.8-2.8l0,0l1.5-1.5l0,0l2.9-2.9
		l0,0l1.7-1.6l0,0l1.5-20.5l0,0l2.3-3.5l0,0l4.7-0.5l0,0l4.2-1.3l0,0l1.7-1.7l0,0l4.2-1.2l0,0l1.5-1.5l0,0h2.9l0,0l3.5,11.7l0,0h2
		l0,0h1.6l0,0l3.2-1.6l0,0l1.5-1.5l0,0l2.7-1.3l0,0h1.9l0,0l2.9-16l0,0l2.1-1l0,0l2.7,5.3l0,0h1.9l0,0h3.2l0,0l1.5-1.5l0,0l4.2-1.5
		l0,0h1.8l0,0l3.1-9.3l0,0l1.3-5.3l0,0h2.3l0,0h1.5l0,0l4.2,1.5l0,0h1.5l0,0l2.5,1.2l0,0l1.5,4.6l0,0h3.7l0,0l1.5-1.5l0,0l4.5-1.6
		l0,0l3.9-1.3l0,0l4.5,1.6l0,0l1.6-1.6l0,0h4.1l0,0h1.6l0,0l2.9-1.5l0,0h1.5l0,0l3.1-1.5l0,0l-2.7,3l0,0h-1.5l0,0l-2.9,1.5l0,0h-2
		l0,0h-2.9l0,0l-2.5,1.9l0,0l-3.9-1.9l0,0h-3l0,0l-4.8,2.9l0,0l-2.5,1.5l0,0h-5.4l0,0l-1.7-5l0,0l-1.6-0.8l0,0h-1.5l0,0l-2.9-1.5
		l0,0h-2.4l0,0l-2.3,4.3l0,0l-3.4,10.3l0,0h-2.5l0,0l-2.9,1.5l0,0l-2.5,1.5l0,0h-3.8l0,0h-2.8l0,0l-2.2-4.3l0,0l-3.4,16l0,0h-2.8
		l0,0l-2.1,1.1l0,0l-1.5,1.5l0,0l-3.7,1.8l0,0h-2l0,0h-3.2l0,0l-2.4-10.9l0,0l-2.2-0.7l0,0l-1.5,1.5l0,0h-2.9l0,0l-2.9,2.9l0,0h-2.9
		l0,0l-5.7,3.4l0,0l-1.8,1l0,0l-1.5,20.6l0,0l-2,2l0,0l-2.9,2.9l0,0l-1.5,1.5l0,0l-2.7,2.7l0,0l-2.3,4.6l0,0l-6-3l0,0l-1.4-15.3l0,0
		l-3.7-1.8l0,0l-1.5-1.5l0,0l-2.1-1.1l0,0h-4.8l0,0l-1.5-1.5l0,0H898l0,0h-2l0,0l-3.7-1.8l0,0l-2.5-1.1l0,0l-3.6-3.6l0,0l-1.5-1.5
		l0,0l-2.3-2.3l0,0l-4-1.5l0,0h-2.9l0,0l-2.9-1.5l0,0h-1.5l0,0l-3.7-1.8l0,0l-4.4-1.1l0,0l-1.9-3.8l0,0l-3.9-2.4l0,0l-1.5-1.5l0,0
		l-2.9-1.5l0,0l-1.5-1.5l0,0l-2.9-1.5l0,0l-1.7-1.7l0,0l-2.8-0.8l0,0l-2.4,0.7l0,0l-1.3,6.5l0,0l-3.2,6.4l0,0l-2.3,2.3l0,0h-2.4l0,0
		h-2.9l0,0h-2l0,0l-4.3-2.2l0,0l-1.6-8l0,0l-2.2-4.4l0,0h-1.6l0,0h-2.9l0,0h-1.5l0,0h-2l0,0l-1.5,1.5l0,0h-3.8l0,0l-2,1.5l0,0h-2.9
		l0,0l-1.5,1.5l0,0h-2.9l0,0l-2.9,2.9l0,0h-3.8l0,0l-3.9,1.5l0,0h-1.5l0,0l-2.1,1.1l0,0L780,183l0,0l-1.9-1.9l0,0l-2,1l0,0h-2l0,0
		h-2l0,0l-2.4,2.4l0,0l-3.8-3.8l0,0h-1.5l0,0l-2.1-2.1l0,0l-3.2-3.2l0,0l-1-2l0,0h-2.5l0,0h-3l0,0l-1.9,0.8l0,0l-2.4,2.4l0,0
		l-1.4,9.5l0,0l-2.9,18.9l0,0l-1.6,11.3l0,0l-3.6,1.8l0,0l-2.9,4.8l0,0h-5.6l0,0l-1.7-3.5l0,0l-2.6-1.3l0,0l-1.9-1.9l0,0l-3.1-4.7
		l0,0l-1.6-3.3l0,0l-1.4-5.7l0,0l-3-4.5l0,0l-1.5-12.2l0,0l-2.9-21.8l0,0l-1.3-7.6l0,0l-2.2-1.1l0,0l-3,1.2l0,0l-2.1,2.1l0,0h-3.8
		l0,0h-1.5l0,0l-3.5,2.9l0,0h-1.8l0,0l-2.9,1.5l0,0h-2l0,0h-2.9l0,0h-1.5l0,0H680l0,0l-2.9-2.9l0,0l-4-1.5l0,0h-3.9l0,0l-2,1.5l0,0
		h-3.8l0,0l-3.1,1.1l0,0l-4,5.4l0,0l-2.2,2.3l0,0h-2.4l0,0h-2l0,0l-3,3l0,0l-4.1-8.2l0,0l-3.7-4.9l0,0h-2.3l0,0l-2.9-1.5l0,0
		l-2.7,4.4l0,0h-2.6l0,0h-2.9l0,0H624l0,0h-1.5l0,0l-2.3,18.2l0,0l-3.7,1.9l0,0l-4.8,4.8l0,0h-2.4l0,0H608l0,0h-4.9l0,0l-1.5-17.5
		l0,0h-3.3l0,0l-1.5-1.5l0,0h-2l0,0h-1.5l0,0h-2l0,0L590,169l0,0h-3.8l0,0l-2,1.5l0,0h-2.9l0,0l-1.9,1.9l0,0l-1.5-0.7l0,0l-1.3,14.8
		l0,0h-4.9l0,0h-1.5l0,0h-2l0,0l-2.9-1.5l0,0h-5.9l0,0l-1.3-14.8l0,0l-2.5,0.3l0,0h-1.5l0,0h-2l0,0l-4.8,2.9l0,0h-2l0,0h-2.9l0,0
		l-1.6,1.1l0,0l-3.7,1.8l0,0l-4,2.9l0,0h-1.8l0,0l-2.9,1.5l0,0h-2l0,0h-1.5l0,0H522l0,0h-1.5l0,0h-3.8l0,0l-1.5-1.5l0,0h-2.9l0,0
		h-4.9l0,0H506l0,0l-2.3,14.8l0,0l-2.7,2.7l0,0h-3.8l0,0h-1.5l0,0h-2.9l0,0h-1.5l0,0h-4.9l0,0l-1.6-15.8l0,0l-2.8,1.2l0,0h-3.8l0,0
		l-3.9,1.5l0,0l-1.9,0.8l0,0l-2.9,2.9l0,0l-1.7,1.7l0,0l-3.7,1.8l0,0h-1.5l0,0l-2.9,1.5l0,0l-2.5,1.5l0,0h-4.7l0,0l-1.5-1.5l0,0
		l-2.6,1.5l0,0h-3.8l0,0h-3l0,0l-1.7-5l0,0l-1.6-0.8l0,0h-3.9l0,0l-3.9,1.5l0,0l-1.6,2l0,0l-3.8,3.8l0,0h-1.8l0,0l-2.1,1.1l0,0
		l-1.8,1.8l0,0h-3.8l0,0l-2,1.5l0,0h-2.9l0,0l-1.9,1.9l0,0l-3.9-1.9l0,0l-1.5,1.5l0,0h-3.8l0,0h-1.5l0,0h-2.9l0,0h-1.5l0,0h-2l0,0
		l-1.5,1.5l0,0h-1.8l0,0l-2.9,1.5l0,0h-2l0,0h-2.9l0,0h-1.5l0,0h-2.9l0,0h-1.5l0,0h-1.5l0,0h-2l0,0l-1.5,1.5l0,0h-3.8l0,0l-3.9,1.5
		l0,0h-2l0,0h-1.5l0,0h-2l0,0l-4,2.5l0,0l-1.8,1.8l0,0h-3.8l0,0l-2,1.5l0,0h-4.7l0,0l-2.1-2.1l0,0l-2.3-2.3l0,0h-4.4l0,0l-1.5-1.5
		l0,0h-2.6l0,0l-3.6,2.4l0,0l-1,2l0,0l-1.7,10.2l0,0h-4.8l0,0h-1.5l0,0h-2.9l0,0h-1.5l0,0h-3.8l0,0l-2.6-2.6l0,0l-1.1-6.5l0,0
		l-1.8,1.8l0,0h-2.9l0,0l-1.5,1.5l0,0h-2.9l0,0l-1.5,1.5l0,0h-1.8l0,0l-2.1,1.1l0,0l-3.8,5.1l0,0l-1.6,3.1l0,0l-3.2,3.2l0,0
		l-1.5,1.5l0,0l-1.7,1.7l0,0l-3.7,1.8l0,0h-2.9l0,0l-2.9-2.9l0,0h-3.5l0,0h-1.5l0,0h-1.5l0,0h-2l0,0l-1.5,1.5l0,0h-5.4l0,0l-1.7-5
		l0,0l-1.6-0.8l0,0h-2.4l0,0h-2.9l0,0h-2l0,0l-1.9,3.3l0,0l-2.8,2.8l0,0l-1.9,16.9l0,0l-3.6-3.6l0,0l-2,1l0,0h-2l0,0h-2l0,0
		l-1.5,1.5l0,0h-4.1l0,0l-1.9-7.6l0,0l-1.8-1.2l0,0l-1.3,10.5l0,0L211,255l0,0h-1.5l0,0l-4.8,2.9l0,0h-1.5l0,0l-5.1,2.6l0,0
		l-1.8-10.6l0,0l-1.5-0.7l0,0l-0.3,1.5l0,0l-3.3,13.1l0,0h-2.6l0,0l-2.9,1.5l0,0h-1.5l0,0l-2.1,1.1l0,0l-1.8,1.8l0,0h-4l0,0
		l-2.3-8.2l0,0l-1.7,0.4l0,0l-1.5,2.9l0,0l-3.2,1.6l0,0l-2.4,3.9l0,0l-3.2,3.2l0,0l-1.5,1.5l0,0l-2.9,2.9l0,0l-2.1,2.1l0,0h-3.8l0,0
		H149l0,0l-2.2-4.3l0,0l-3-10.6l0,0l-1.5-13.2l0,0l-2.9-17.5l0,0l-1.5-19l0,0l-2.9-20.4l0,0l-1.5-14.6l0,0l-1.4-13l0,0l-2.9-14.6
		l0,0l-1.4-13l0,0l-2.9-8.6l0,0l-1.4-5.7l0,0l-1-2l0,0l-1.8-0.9l0,0h-3.9l0,0h-1.5l0,0h-2l0,0l-1.5,1.5l0,0h-1.5l0,0l-2.3,2.3l0,0
		l-1.7,1.7l0,0l-2.6,1.3l0,0l-1.1,2.3l0,0L101.5,129.2z"/>
</g>
<g>
	<title>Rectangle 655</title>
	<path class="st3" d="M73.9,419.7L73.9,419.7V109.2l0,0H1043l0,0v310.4l0,0H73.9z"/>
</g>
<g>
	<title>Path 625</title>
	<path class="st6" d="M115.4,122.4L115.4,122.4h1.6l0,0l2.9-1.5l0,0l3.5,5.4l0,0l1.4,5.7l0,0l1.5,11.6l0,0l2.9,13.1l0,0l1.5,17.5
		l0,0l2.9,20.4l0,0l1.5,14.6l0,0l1.5,14.6l0,0l2.9,16l0,0l1.5,13.1l0,0l2.9,11.7l0,0l1.5,5.9l0,0l2.9,7.3l0,0l1.5,4.5l0,0l1.6,1.6
		l0,0l2.9,2.9l0,0l1.5,1.5l0,0l2.8,1.4l0,0l1.5,3.1l0,0h3.7l0,0l1.7-1.7l0,0l4.2-1.2l0,0l1.5-1.5l0,0h2.9l0,0l3.4,8.2l0,0l1.5,4.6
		l0,0l1.8,1.8l0,0h3.5l0,0l1.5-1.5l0,0h2.6l0,0h2l0,0l3.1-12.2l0,0l1.4-7.1l0,0l3.9-2.5l0,0h1.5l0,0l3.2-1.6l0,0l1.5-1.5l0,0
		l2.7-1.3l0,0h1.6l0,0l1.5-1.5l0,0h3.1l0,0l1.5-2.9l0,0h2.9l0,0l0.8-1.6l0,0l2.6,10.3l0,0h2l0,0h1.6l0,0l2.9-1.5l0,0h3.9l0,0
		l2.3,2.3l0,0l1.5-15.4l0,0h2.6l0,0l3.5-0.2l0,0l1.5,2.9l0,0l3,1.5l0,0l2.9,2.9l0,0l2.8,1.4l0,0l1.5,4.4l0,0l3.1,1.5l0,0l4.1,4.1
		l0,0l1.4,11.5l0,0l1.8,3.7l0,0l3.4-1.7l0,0h4.2l0,0h1.6l0,0l3.4-1.7l0,0l1.5-8.9l0,0l4.2-4.2l0,0l4-2.7l0,0h4.2l0,0h1.5l0,0h1.5
		l0,0h2.6l0,0l1.5,1.5l0,0h3.2l0,0h1.5l0,0h2.9l0,0h1.5l0,0h1.5l0,0h2.9l0,0l4.2,1.5l0,0h1.5l0,0l2.9,1.5l0,0h1.6l0,0h1.5l0,0h3.2
		l0,0l3.6-0.1l0,0l1.6,1.6l0,0h1.8l0,0h2.6l0,0l1.5,1.5l0,0h2.9l0,0l4.3,12.3l0,0l2.1-2.1l0,0h4.4l0,0h3.9l0,0h2.2l0,0l2.9-11.7l0,0
		h2.3l0,0h3.2l0,0l1.6-1.6l0,0l2.7-1.3l0,0h4.5l0,0l1.5-1.5l0,0l3.4,7l0,0l1.6,1.6l0,0l3.2,1.6l0,0h1.6l0,0h2.9l0,0h1.5l0,0h2l0,0
		l3-9.1l0,0l4-4l0,0l4.5-1.6l0,0l2.7-1.3l0,0l2.9-1.5l0,0h4.5l0,0l1.5-1.5l0,0h4.1l0,0h1.6l0,0l3.2-1.6l0,0l4.2-1.3l0,0l1.5-1.5l0,0
		l4.5-1.6l0,0l4.2-1.3l0,0l4.3,2l0,0l1.9-3.7l0,0l3.9-2.6l0,0h1.5l0,0l2.9-1.5l0,0h1.6l0,0l2.6-2.6l0,0l2.9,1.2l0,0h3.2l0,0l1.5-1.5
		l0,0h2.9l0,0l1.5-1.5l0,0h2.9l0,0l1.5-1.5l0,0l4.2-1.5l0,0h4.2l0,0h1.5l0,0h2.9l0,0h1.5l0,0h1.5l0,0h3.2l0,0l1.5-1.5l0,0h2.6l0,0
		h1.5l0,0h2.9l0,0h1.8l0,0l1.6-1.6l0,0l2.9-1.5l0,0l3.3-1.3l0,0l1.4,12.5l0,0l1.5,10.5l0,0l3.1,3.1l0,0l1.5,1.5l0,0l3.2,1.6l0,0h1.6
		l0,0h3.6l0,0l1.5-15.2l0,0l1.4-9.8l0,0l2.7-1.3l0,0l1.5-1.5l0,0l2.9-1.5l0,0l1.5-1.5l0,0l2.9-1.5l0,0l2.7-1.3l0,0l2.9-1.5l0,0h1.5
		l0,0l3.2-1.6l0,0l3.9-1.3l0,0h1.5l0,0h1.6l0,0l2.1-1.1l0,0l1.5,14.6l0,0l3.7-1.9l0,0h4.5l0,0l1.5-1.5l0,0l4.7,1.9l0,0l1.5-16.4l0,0
		h2.6l0,0l1.5-1.5l0,0h2.9l0,0l1.7-1.7l0,0l1.5-1.5l0,0l2.9-4.4l0,0l3.8-1.2l0,0h1.6l0,0l2.9-1.5l0,0l2.1,2.6l0,0l3.5,3.5l0,0
		l1.8-1.8l0,0h2.6l0,0h1.5l0,0h1.5l0,0h3.5l0,0l1.5-5.8l0,0h2.6l0,0l1.5-1.5l0,0h2.6l0,0h1.5l0,0h1.5l0,0h3.2l0,0l1.5-1.5l0,0h2.6
		l0,0h1.5l0,0h3.2l0,0l1.5-1.5l0,0h4.4l0,0l1.5-1.5l0,0h2.6l0,0h1.5l0,0h3.2l0,0l1.5-1.5l0,0h4.4l0,0l1.5-1.5l0,0h2.9l0,0l1.6-1.6
		l0,0l2.7-1.3l0,0h1.6l0,0l1.6-1.6l0,0l2.9-1.5l0,0l1.5-1.5l0,0l2.3-1.2l0,0l4.1,16.6l0,0l2.2-2.2l0,0h3.5l0,0l1.3,5.4l0,0l3.7,5.5
		l0,0l2.1-4.1l0,0l2.8-14.1l0,0l2.7-1.6l0,0l2.9-1.5l0,0l1.5-1.5l0,0l3-3l0,0l1.5-2.9l0,0l3.4-2.4l0,0l1.1,2.2l0,0l2.9,21.8l0,0
		l1.5,6.1l0,0l3.1,3.1l0,0l1.5,1.5l0,0l1.5,1.5l0,0l2.9,1.5l0,0l1.6,1.6l0,0h2.9l0,0l1.5,1.5l0,0h2.9l0,0l2.8,2.8l0,0l3.7,1.8l0,0
		l1.8-3.7l0,0l2.9-20.5l0,0l1.2-3.5l0,0l2.3,1.2l0,0h1.6l0,0h1.5l0,0h2.5l0,0l1.4,2.7l0,0l3,1.5l0,0l1.5,1.5l0,0l2.9,1.5l0,0
		l2.8,2.8l0,0l3.4,3.4l0,0l1.8-1.8l0,0h2.6l0,0h1.5l0,0h2.9l0,0h1.5l0,0h1.6l0,0l2.9-1.5l0,0l4,1.5l0,0h1.5l0,0l2.9,1.5l0,0h1.6l0,0
		h1.5l0,0h2.9l0,0h1.5l0,0h3.4l0,0l1.6-3.2l0,0l3.8-1.2l0,0h1.5l0,0h2.9l0,0h1.6l0,0l3.2-1.6l0,0l1.5-1.5l0,0l4-2.7l0,0h1.5l0,0
		l2.9-1.5l0,0h4.2l0,0h1.5l0,0h1.6l0,0l2.9-1.5l0,0h1.5l0,0l3.2-1.6l0,0l1.5-1.5l0,0l2.9-1.5l0,0l1.5-1.5l0,0l4.3-2.8l0,0l4.2-1.3
		l0,0l1.5-1.5l0,0h2.2l0,0l1.3,2.5l0,0l1.7,3.3l0,0h3.4l0,0h1.5l0,0h2.9l0,0l3.9,1.3l0,0l2.9,2.9l0,0l3.2,1.6l0,0h1.6l0,0h2.6l0,0
		l1.5,1.5l0,0h2.9l0,0l1.5,1.5l0,0h1.5l0,0l2.7,2.7l0,0l1.5,1.5l0,0l2.8,1.4l0,0l1.3,2.7l0,0l1.4,2.9l0,0l2.9,8.6l0,0l1.5,8.9l0,0
		l3,3l0,0l1.5,2.9l0,0l3.2,3.2l0,0l2.6,19.9l0,0l4.2-4.2l0,0l1.4-5.5l0,0h1.9l0,0l1.4,2.7l0,0l2.9,1.5l0,0l2.5,5l0,0l1.7-18.4l0,0
		l2.8-5.6l0,0l3.6,0.3l0,0h1.6l0,0h3.2l0,0l1.5-1.5l0,0l4.5-1.6l0,0l4.2-1.3l0,0l1.5-1.5l0,0h2.9l0,0l1.5-1.5l0,0l4.5-1.6l0,0
		l4.2-1.3l0,0l1.5-1.5l0,0h3.1l0,0l1.6-3.2l0,0l3.5,8.2l0,0l2.2-2.2l0,0l3-1.5l0,0l1.5-3l0,0l3.9-2.6l0,0h1.9l0,0l3.1-12.2l0,0
		l1.3-5.3l0,0h2.6l0,0l1.5-1.5l0,0l4.2-1.5l0,0l3.5,8.3l0,0l1.8,3.6l0,0l3.7-1.8l0,0l1.5-1.5l0,0l1.5-1.5l0,0l1.8-1.8l0,0l1.6,19
		l0,0l3.9-9.7l0,0l4.1-1.5l0,0h1.6l0,0l1.5-1.5l0,0h3.3l0,0l1.5-20.8l0,0l2.7-2.7l0,0l3.9-1.2l0,0v1.5l0,0h-2l0,0l-3.2,3.2l0,0
		l-1.5,21.6l0,0h-4l0,0l-1.5,1.5l0,0h-1.8l0,0l-2.9,1.5l0,0l-6.3,14.5l0,0l-1.8-22l0,0l-2.7,2.7l0,0l-5.2,2.6l0,0l-2.5-5l0,0
		l-2.5-7.4l0,0l-2.3,1.5l0,0l-2.5,1.5l0,0h-2.1l0,0l-1,4.2l0,0l-3.3,13.3l0,0h-2.6l0,0l-2.1,1.1l0,0l-2.6,4.2l0,0l-3.2,1.6l0,0
		l-3.7,3.7l0,0l-2.9-8.7l0,0l-0.6,2.5l0,0h-3.4l0,0l-1.5,1.5l0,0h-2.9l0,0l-4.8,2.9l0,0l-2.5,1.5l0,0h-2.9l0,0l-1.5,1.5l0,0h-2.9
		l0,0l-4.8,2.9l0,0l-2.5,1.5l0,0h-3.8l0,0h-2l0,0l-2-1l0,0l-2.7,5.2l0,0l-2.1,23.3l0,0l-4.6-9.1l0,0l-2.9-1.5l0,0l-1.2-2.4l0,0
		l-1,4.8l0,0l-6.7,6.7l0,0l-1.7-21.7l0,0l-4.1-3.8l0,0l-1.5-2.9l0,0l-3.2-3.2l0,0l-1.5-9.3l0,0l-2.8-8.4l0,0l-1.4-2.8l0,0l-1.1-2.3
		l0,0l-2.6-1.3l0,0l-1.7-1.7l0,0l-2.3-2.3l0,0h-1.5l0,0l-1.5-1.5l0,0h-2.9l0,0l-1.5-1.5l0,0h-2l0,0h-2l0,0l-3.7-1.8l0,0l-1.7-1.7
		l0,0l-3.3-2.3l0,0h-3.9l0,0h-1.5l0,0h-4.3l0,0l-2.1-4.1l0,0l-0.9-1.7l0,0l-2.1,1.5l0,0h-2.9l0,0l-4,2.5l0,0l-2.9,2.9l0,0l-2.9,1.5
		l0,0l-1.5,1.5l0,0l-3.7,1.8l0,0h-1.5l0,0l-2.9,1.5l0,0h-2l0,0h-1.5l0,0h-2.9l0,0l-3.9,1.5l0,0h-1.5l0,0l-2.1,1.1l0,0l-2.9,2.9l0,0
		l-3.7,1.8l0,0h-2l0,0h-2.9l0,0h-1.5l0,0h-2l0,0l-2.5,4.4l0,0h-4.3l0,0h-1.5l0,0H796l0,0h-1.5l0,0h-2l0,0l-2.9-1.5l0,0h-1.5l0,0
		l-2.9-1.5l0,0l-3.3,1.5l0,0h-2l0,0h-1.5l0,0h-2.9l0,0h-1.5l0,0h-2l0,0l-2.4,2.4l0,0l-4.5-4.5l0,0l-1.5-1.5l0,0l-4.1-2.7l0,0
		l-1.5-1.5l0,0l-3.2-1.6l0,0l-1.2-2.4l0,0h-1.6l0,0h-1.5l0,0h-2l0,0l-1.7,1.2l0,0l-2.9,20.6l0,0l-2.6,5.2l0,0l-5.2-2.6l0,0l-1.7-1.7
		l0,0L731,239l0,0l-1.5-1.5l0,0h-2.9l0,0l-1.8-1.8l0,0l-2.9-1.5l0,0l-1.7-1.7l0,0l-1.5-1.5l0,0l-3.3-3.3l0,0l-1.6-6.5l0,0l-2.9-21.6
		l0,0l-1.9,0.6l0,0l-1.5,2.9l0,0l-3.2,3.2l0,0l-1.7,1.7l0,0l-2.9,1.5l0,0l-1.8,1.8l0,0l-3.2,13.1l0,0l-3.3,6.5l0,0l-5.2-7.8l0,0
		l-1.1-4.5l0,0h-1.8l0,0l-3.7,3.7l0,0l-3.6-17.9l0,0l-2.5,2.2l0,0l-2.9,1.5l0,0l-1.8,1.8l0,0h-1.8l0,0l-2.1,1.1l0,0l-1.8,1.8l0,0
		h-2.9l0,0l-1.5,1.5l0,0h-3.8l0,0l-2,1.5l0,0h-3.8l0,0h-1.5l0,0h-2l0,0l-1.5,1.5l0,0h-3.8l0,0l-2,1.5l0,0h-3.8l0,0h-1.5l0,0h-2l0,0
		l-1.5,1.5l0,0h-3.8l0,0H624l0,0h-1.5l0,0h-2l0,0l-1.5,1.5l0,0H617l0,0l-1.5,5.8l0,0h-4.6l0,0h-1.5l0,0H608l0,0h-2l0,0l-2.4,2.4l0,0
		l-4.7-4.7l0,0l-1-2l0,0l-2.5,1.5l0,0h-2l0,0h-2l0,0l-3.6,5l0,0l-1.6,1.6l0,0l-2.1,2.1l0,0h-2.9l0,0l-1.5,1.5l0,0h-1.8l0,0
		l-1.6,17.2l0,0l-5.3-2.7l0,0l-1.5,1.5l0,0h-3.8l0,0l-6.2,2.6l0,0l-1.5-14.6l0,0l-2.5,0.3l0,0h-1.5l0,0h-2l0,0l-4.8,2.9l0,0h-1.5
		l0,0l-2.9,1.5l0,0l-2.1,1.1l0,0l-2.9,1.5l0,0l-1.5,1.5l0,0l-2.9,1.5l0,0l-1.5,1.5l0,0l-2.2,1.1l0,0l-1.3,9l0,0l-1.6,16.5l0,0H522
		l0,0h-2l0,0l-3.7-1.8l0,0l-1.7-1.7l0,0l-3.4-3.4l0,0l-1.6-11l0,0l-1.2-11.2l0,0l-4,2.5l0,0l-1.8,1.8l0,0h-2.4l0,0h-2.9l0,0h-1.5
		l0,0h-2l0,0l-1.5,1.5l0,0h-3.8l0,0H487l0,0h-1.5l0,0h-2.9l0,0h-1.5l0,0h-2.9l0,0l-3.9,1.5l0,0l-2.5,1.5l0,0H469l0,0l-1.5,1.5l0,0
		h-2.9l0,0l-1.5,1.5l0,0h-3.8l0,0H457l0,0l-2.6,1.5l0,0h-1.8l0,0l-2.9,1.5l0,0h-1.5l0,0l-2.1,1.1l0,0l-3.6,6.3l0,0l-3.5-3.5l0,0
		l-3.5,0.6l0,0l-4.8,2.9l0,0l-2.5,1.5l0,0h-2.9l0,0l-4.8,2.9l0,0h-2l0,0h-2.9l0,0l-2,1.5l0,0h-3.8l0,0l-3.9,1.5l0,0l-2.1,1.1l0,0
		l-3.7,1.8l0,0l-3.3,2.3l0,0l-4.3,10.8l0,0h-3l0,0h-1.5l0,0H385l0,0h-2l0,0l-3.7-1.8l0,0l-2-2l0,0l-2.5-6.3l0,0l-0.5,1.5l0,0h-3.8
		l0,0l-3.1,1.1l0,0l-1.8,1.8l0,0h-3.8l0,0h-1.5l0,0l-2.7,11.7l0,0h-3.7l0,0l-2-1l0,0l-4.8,1l0,0l-4,3.4l0,0l-3.8-13.2l0,0l-3.3-0.4
		l0,0l-1.5-1.5l0,0h-2l0,0h-2.4l0,0l-1.8-1.8l0,0l-2.2,0.4l0,0h-3.8l0,0h-1.5l0,0h-2l0,0l-2.9-1.5l0,0h-1.5l0,0l-2.9-1.5l0,0h-3.9
		l0,0h-1.5l0,0h-1.5l0,0h-2.9l0,0h-1.5l0,0h-3.8l0,0l-1.5-1.5l0,0h-2l0,0h-1.5l0,0h-1.5l0,0h-2.9l0,0l-3.1,1.1l0,0l-4.1,4.1l0,0
		l-2.5,10.1l0,0l-4.4,2.2l0,0h-2l0,0h-2.9l0,0l-5.4,2.2l0,0l-2.6-5.2l0,0l-1.4-11.3l0,0l-2.4-2.4l0,0l-4.6-2.9l0,0l-1.5-4.4l0,0
		l-2.4-1.2l0,0l-1.7-1.7l0,0L242,269l0,0l-1.5-2.9l0,0l-1.8,0.6l0,0h-1.8l0,0l-1.7,17.2l0,0l-4.1-4.1l0,0h-2l0,0l-3.9,1.5l0,0h-2
		l0,0h-3.2l0,0l-1.9-7.6l0,0l-2.3-1.2l0,0l-1.5,2.9l0,0H211l0,0l-1.5,1.5l0,0h-1.8l0,0l-2.1,1.1l0,0l-1.5,1.5l0,0l-3.7,1.8l0,0H199
		l0,0l-2.1,1.1l0,0l-2.1,7.4l0,0l-3.3,13.4l0,0h-3.2l0,0h-2l0,0l-1.5,1.5l0,0h-4.7l0,0l-2.5-2.5l0,0l-1.6-4.9l0,0l-1.9-6.7l0,0
		l-2.4-0.5l0,0l-1.5,1.5l0,0h-2.9l0,0l-2.9,2.9l0,0h-5.2l0,0l-1.7-3.5l0,0l-2.6-1.3l0,0l-1.7-1.7l0,0l-2.9-2.9l0,0l-1.8-1.8l0,0
		l-1.6-4.8l0,0l-2.9-7.4l0,0l-1.5-6l0,0l-3-11.8l0,0L138,240l0,0l-2.9-16l0,0l-1.5-14.7l0,0l-1.5-14.5l0,0l-2.9-20.4l0,0l-1.4-17.4
		l0,0l-2.9-13.1l0,0l-1.5-11.6l0,0l-1.4-5.5l0,0l-2.2-4.4l0,0l-2.5,1.5l0,0h-2l0,0L115.4,122.4z"/>
</g>
<g>
	<title>Rectangle 656</title>
	<path class="st3" d="M73.9,419.7L73.9,419.7V109.2l0,0H1043l0,0v310.4l0,0H73.9z"/>
</g>
<g>
	<title>Path 626</title>
	<path class="st7" d="M120.6,123.4L120.6,123.4l2.9,7.2l0,0l1.4,7.2l0,0l1.5,14.6l0,0l2.9,10.2l0,0l1.5,14.5l0,0l2.9,16l0,0
		l1.5,27.6l0,0l1.5,21.9l0,0l2.9,30.6l0,0l1.5,19l0,0l2.9,21.9l0,0l1.5,20.4l0,0l3,11.9l0,0l1.8,1.8l0,0h2.1l0,0l2.3-2.3l0,0
		l1.3,4.1l0,0l3.5-1.8l0,0h1.5l0,0l2.9-1.5l0,0h1.6l0,0l1.5-1.5l0,0h2.6l0,0h1.6l0,0l2.3-1.2l0,0l1.2,3.6l0,0l3,6l0,0l1.8,1.8l0,0
		h1.9l0,0l3.2-1.6l0,0l4.5-1.3l0,0l1.6-6.3l0,0l2.8-7.1l0,0l2.7-2.7l0,0l2.9-1.5l0,0l4.2-1.3l0,0l1.6-1.6l0,0l2.9-1.5l0,0l1.5-1.5
		l0,0l4.5-2.9l0,0l1.5-4.4l0,0l2.9-1.4l0,0l1.1-2.2l0,0l2.7,2.7l0,0l2-2l0,0l4-2.7l0,0h1.5l0,0l3.2-1.6l0,0l1.7-1.7l0,0l1.5-8.7l0,0
		l2.8-2.8l0,0l1.4-2.8l0,0l2.8-1.4l0,0l1.5-1.5l0,0l2.9-2.9l0,0l1.5-1.5l0,0l1.5-1.5l0,0l2.7-2.7l0,0l4.2-1.5l0,0h1.5l0,0l3.2-1.6
		l0,0l1.5-1.5l0,0l4.3-2.8l0,0l3.8,8.6l0,0l2.1-4.3l0,0l2.8-1.4l0,0l2.7-1.3l0,0l3.3-1.6l0,0l1.6-3.2l0,0l2.8-12.6l0,0l4.2-1.6l0,0
		l1.5-1.5l0,0l4.3-2.8l0,0l4.2-1.3l0,0l1.6-1.6l0,0l2.7-1.3l0,0h1.6l0,0l1.6-1.6l0,0l2.9-1.5l0,0l3.6,9.5l0,0l2.2-2.2l0,0l2.7-1.3
		l0,0h1.6l0,0l1.6-1.6l0,0l3-1.5l0,0l1.4-2.7l0,0h2.2l0,0l1.8,1.8l0,0l1.8-1.8l0,0h2.3l0,0l1.5,1.5l0,0h2.9l0,0l1.5,1.5l0,0h3.5l0,0
		l1.7-1.7l0,0l3.9-1.2l0,0h1.5l0,0h2.9l0,0h2l0,0l2.7-9.5l0,0l2.6,0.8l0,0h2.6l0,0l1.5,1.5l0,0h3.2l0,0l4.2,1.5l0,0l2.7,1.3l0,0
		l2.8,1.4l0,0l1.4,2.8l0,0l2.9,2.9l0,0l1.4,4.2l0,0l3,12.2l0,0h2l0,0h1.5l0,0h2.9l0,0l4.2,1.5l0,0h2.2l0,0l2.8-12.4l0,0l2.7,0.7l0,0
		l2.9-1.5l0,0h1.5l0,0l2.9-1.5l0,0l2.4,1.5l0,0h3.2l0,0h1.6l0,0l2.2-1.1l0,0l1.4,8.1l0,0l3.4,1.7l0,0h1.6l0,0h1.6l0,0l2.9-1.5l0,0
		h4.8l0,0l1.5-12l0,0l2.7-2.7l0,0l1.8,10.8l0,0l3.7-1.8l0,0h1.5l0,0l2.9-1.5l0,0h1.5l0,0l2.9-1.5l0,0h1.9l0,0l1.5-13.1l0,0h2.3l0,0
		h1.6l0,0l3.2-1.6l0,0l1.5-1.5l0,0l3-1.5l0,0l1.4-2.7l0,0l4.4-1.6l0,0l4.2-1.3l0,0l1.6-1.6l0,0l2.9-1.5l0,0l2.5-1.3l0,0h2.9l0,0h1.5
		l0,0h2.9l0,0h1.5l0,0h3.2l0,0l1.7-1.7l0,0l4-2.7l0,0h1.5l0,0l3.2-1.6l0,0l2.7-1.3l0,0l2.9-1.5l0,0h4.2l0,0h1.5l0,0h2.9l0,0h1.5l0,0
		h1.5l0,0h2.9l0,0h1.6l0,0l2.9-1.5l0,0h1.6l0,0l3.1-3.1l0,0l2.6-1.2l0,0l2.9-1.5l0,0h1.5l0,0l3.2-1.6l0,0l3.9-1.3l0,0h1.5l0,0h1.5
		l0,0h2.3l0,0l1.5,10.2l0,0h3.5l0,0h1.5l0,0h2.9l0,0h1.5l0,0h1.5l0,0h3.6l0,0l1.4-11.3l0,0l2.1,1.1l0,0h1.8l0,0l2.9-1.5l0,0h2.7l0,0
		h3.2l0,0l1.5-1.5l0,0h2.6l0,0h1.6l0,0l2.9-1.5l0,0h2.7l0,0h2.3l0,0l1.5,13.5l0,0l3.7-1.8l0,0h1.6l0,0l1.5-1.5l0,0h2.6l0,0h1.6l0,0
		l3.4-1.7l0,0l1.4-12.5l0,0l2.1,1.1l0,0h1.6l0,0h1.5l0,0h2.9l0,0h1.5l0,0h2.3l0,0l1.5,11.7l0,0h3.9l0,0l1.5-1.5l0,0l4.5-1.6l0,0
		l1.5-1.5l0,0l3.2-1.6l0,0l1.4-12.9l0,0h2.6l0,0l1.5-1.5l0,0l4.2-1.5l0,0h1.5l0,0l3.2-1.6l0,0l1.5-1.5l0,0l2.7-1.3l0,0h1.6l0,0
		l1.6-1.6l0,0l2.9-1.5l0,0l1.5-1.5l0,0l2.9-1.5l0,0l3.4,11.8l0,0h2l0,0h1.5l0,0h2.9l0,0h1.5l0,0h2.6l0,0l2.2,2.2l0,0l3.2-14.2l0,0
		l2.4-1.1l0,0l2.9-1.5l0,0h1.6l0,0l2.9-2.9l0,0h2.8l0,0l2.4-1.2l0,0l1.1,2.2l0,0l2.9,20.3l0,0l1.5,8.9l0,0l3,4.5l0,0l1.5,3l0,0
		l1.5,1.5l0,0l2.8,2.8l0,0l1.5,3l0,0l2.8,1.4l0,0l1.4,8.5l0,0l3,4.5l0,0l1.4,2.9l0,0l1.5,3l0,0l3.5,3.5l0,0l2.1-2.1l0,0l2.9-13.1
		l0,0l3,4.2l0,0l1.7,18.4l0,0l2.4-4.8l0,0h2.5l0,0h1.8l0,0l3.1-3.1l0,0l4.5-1.2l0,0l1.3-14.1l0,0l3.9,1l0,0h1.8l0,0l3.2-3.2l0,0
		l1.5-2.9l0,0l2.6-2.6l0,0h1.5l0,0l1.5-1.5l0,0h2.9l0,0l1.6-1.6l0,0l3.1-1.6l0,0l1.5-6.1l0,0l2.8-5.7l0,0l2.5-1.2l0,0l2.9-1.5l0,0
		h1.5l0,0l2.9-1.5l0,0h2.7l0,0h2.9l0,0h1.5l0,0h2.9l0,0h1.5l0,0h2.9l0,0h1.5l0,0h1.6l0,0l3.2-1.6l0,0l4.2-1.3l0,0l1.6-1.6l0,0
		l2.7-1.3l0,0h1.6l0,0l1.5-1.5l0,0h2.9l0,0l1.5-1.5l0,0h2.6l0,0h1.6l0,0l3.2-1.6l0,0l2.7-1.3l0,0l2.9-1.5l0,0h1.5l0,0l2.9-1.5l0,0
		h4.2l0,0l2.8,1.6l0,0l3.2-1.6l0,0l4.3,1.6l0,0l1.6-1.6l0,0h2.6l0,0h1.5l0,0h1.5l0,0h2.9l0,0h1.6l0,0l2.9-1.5l0,0h4.2l0,0h1.8l0,0
		l3.5,13.1l0,0h2.1l0,0h3.2l0,0l2.5,0.2l0,0l3.2-1.6l0,0h1.9l0,0l2.9-14.6l0,0l3.1,1.2l0,0l1.4,14.2l0,0l1.5,20.5l0,0l3,8.9l0,0
		l1.7,3.4l0,0h3.4l0,0h1.5l0,0h3.6l0,0l1.5-15.2l0,0l1.4-15.4l0,0h1.7l0,0l1.3,5.4l0,0l3.2,4.8l0,0h2l0,0l2.9-1.5l0,0l2.3,2.9l0,0
		h3.4l0,0h1.8l0,0l2.9-2.9l0,0h4.1l0,0h1.5l0,0h1.5l0,0h3.2l0,0h3.9l0,0l3.9,5.4l0,0l1.5,3l0,0l4.3,11.5l0,0l1.5,3.1l0,0l2.9,2.9
		l0,0l1.6,3.2l0,0h1.7l0,0l3.5,1.8l0,0l1.7-5.2l0,0l2.9-11.7l0,0l1.4-8.4l0,0l2.4-1.2l0,0h1.7l0,0l1.6-3.2l0,0l2.9-2.9l0,0l1.5-2.9
		l0,0l2.9-2.9l0,0l3.3,11.2l0,0l2.4-2.4l0,0l4.3-2.8l0,0l1.5-1.5l0,0l2.7-1.3l0,0h1.9l0,0l2.9-16l0,0h2.5l0,0l2.4-1.2l0,0l1.3,2.7
		l0,0h3.7l0,0l1.6-1.6l0,0l2.8-1.4l0,0l-1.9,2.6l0,0l-1.8,1.8l0,0h-5.2l0,0l-1.1-2.2l0,0l-3.4,0.7l0,0l-2.5,16l0,0h-2.8l0,0
		l-2.1,1.1l0,0l-1.5,1.5l0,0l-2.9,1.5l0,0l-5.5,5.5l0,0l-2.4-11l0,0l1.1-2.3l0,0l-2.9,2.9l0,0l-1.5,2.9l0,0l-2.9,2.9l0,0l-1.9,3.8
		l0,0h-2.3l0,0l-1.5,0.7l0,0l-1.3,7.7l0,0l-3,11.8l0,0l-2.3,6.8l0,0l-4.7-2.4l0,0h-2.3l0,0l-1.9-3.8l0,0l-2.9-2.9l0,0l-1.7-3.4l0,0
		l-2.8-9.9l0,0l-2.9-4.5l0,0l-2.3-4.6l0,0l-2.6-1l0,0l-4.8,1l0,0h-1.5l0,0h-1.5l0,0h-2.9l0,0l-3.5,2.9l0,0h-2.4l0,0h-4.3l0,0
		l-1.5-2.9l0,0l-2.5,1.5l0,0h-3.1l0,0l-3.8-5.7l0,0l-1.1-4.5l0,0l-0.5,14.1l0,0l-1.7,16.6l0,0h-4.9l0,0h-1.5l0,0h-4.3l0,0l-2.1-4.3
		l0,0l-3.1-9.2l0,0l-1.5-20.6l0,0l-1.3-13.3l0,0l-3.4,13.9l0,0h-2.7l0,0l-3.9,1.9l0,0l-1.6-0.5l0,0H898l0,0h-3.2l0,0l-2.5-12.3l0,0
		l-1.6-0.8l0,0h-2.9l0,0l-3.9,1.5l0,0h-2l0,0h-2.9l0,0h-1.5l0,0h-1.5l0,0h-2l0,0l-1.9,1.9l0,0l-3.9-1.9l0,0l-4.3,1.9l0,0l-1.9-1.9
		l0,0h-3.5l0,0l-3.9,1.5l0,0h-1.5l0,0l-2.9,1.5l0,0l-2.1,1.1l0,0l-3.7,1.8l0,0h-2l0,0h-2l0,0l-1.5,1.5l0,0h-2.9l0,0l-1.5,1.5l0,0
		h-1.8l0,0l-2.1,1.1l0,0l-1.8,1.8l0,0h-2.9l0,0l-4.8,2.9l0,0h-2l0,0h-1.5l0,0h-2.9l0,0h-1.5l0,0h-2.9l0,0h-1.5l0,0h-2.9l0,0h-1.5
		l0,0l-3.9,1.5l0,0h-1.5l0,0l-2.9,1.5l0,0l-1.6,0.6l0,0l-2.6,5.3l0,0l-1.6,6.6l0,0l-3.5,1.7l0,0l-1.8,1.8l0,0h-2.9l0,0l-1.5,1.5l0,0
		h-1.5l0,0l-2,2l0,0l-1.5,2.9l0,0l-3.8,3.8l0,0h-2.4l0,0h-4.3l0,0l1.4,2.8l0,0l-0.9,10.4l0,0h-4l0,0l-4.4,4.4l0,0h-2.4l0,0h-1.6l0,0
		l-4.3,8.6l0,0l-2.1-23.3l0,0l-1.4-2.7l0,0l-1.8,12l0,0l-3.5,3.5l0,0l-4.7-4.7l0,0l-1.6-3.2l0,0l-1.4-2.8l0,0l-3.1-4.6l0,0l-1.4-8.1
		l0,0l-2.6-1.3l0,0l-1.6-3.2l0,0l-2.7-2.7l0,0l-1.7-1.7l0,0l-1.6-3.1l0,0l-3.1-4.6l0,0l-1.5-9.2l0,0l-2.9-20.1l0,0l-1.7,0.1l0,0h-2
		l0,0l-3.5,2.9l0,0h-1.8l0,0l-2.9,1.5l0,0l-5.1,16.7l0,0l-3.6-3.6l0,0h-2l0,0h-1.5l0,0h-2.9l0,0h-1.5l0,0h-3.2l0,0l-2.4-10.9l0,0
		l-1.8,0.3l0,0l-1.5,1.5l0,0l-2.9,1.5l0,0l-1.8,1.8l0,0h-1.8l0,0l-2.1,1.1l0,0l-1.5,1.5l0,0l-3.7,1.8l0,0h-1.5l0,0l-2.9,1.5l0,0
		l-2.5,1.5l0,0h-1.9l0,0l-1.4,12.4l0,0l-3.7,1.8l0,0l-1.5,1.5l0,0l-3.7,1.8l0,0l-2.5,1.5l0,0h-5.8l0,0l-1.5-11.7l0,0h-2.4l0,0h-2.9
		l0,0H624l0,0h-2l0,0l-1.8,10.9l0,0l-4.4,2.2l0,0h-2l0,0h-2l0,0l-1.5,1.5l0,0h-1.8l0,0l-5.3,2.6l0,0l-1.6-14.3l0,0h-2.4l0,0
		l-3.9,1.5l0,0h-2l0,0h-2l0,0l-1.5,1.5l0,0h-3.8l0,0h-1.5l0,0l-3.9,1.5l0,0h-2.5l0,0l-1.9,10.2l0,0h-4.8l0,0h-1.5l0,0h-1.5l0,0h-2.9
		l0,0h-1.5l0,0h-4.8l0,0l-1.5-10.2l0,0h-2.5l0,0h-1.5l0,0h-2l0,0l-4.8,2.9l0,0h-1.5l0,0l-2.9,1.5l0,0l-1.9,0.8l0,0l-3.6,3.6l0,0
		h-1.8l0,0l-2.9,1.5l0,0h-2l0,0h-2.9l0,0h-1.5l0,0h-1.5l0,0H522l0,0h-1.5l0,0h-2.9l0,0l-3.9,1.5l0,0l-2.1,1.1l0,0l-3.7,1.8l0,0h-1.5
		l0,0l-2.1,1.1l0,0l-3.3,3.3l0,0h-3.8l0,0h-1.5l0,0h-2.9l0,0h-1.5l0,0h-2.9l0,0l-1.6,1.1l0,0l-2.9,1.5l0,0l-1.8,1.8l0,0h-2.9l0,0
		l-4.8,2.9l0,0l-1.8,2.4l0,0l-3.2,1.6l0,0l-1.5,1.5l0,0l-3.7,1.8l0,0h-2l0,0l-2.4,13.1l0,0h-2.9l0,0l-2.9,1.5l0,0h-1.5l0,0l-2.9,1.5
		l0,0h-1.5l0,0l-5.2,2.6l0,0l-1.3-10.3l0,0l1.7-1.7l0,0l-2.4,2.4l0,0l-1.6,12.8l0,0h-4.8l0,0l-3.9,1.5l0,0h-2l0,0h-2l0,0l-4.4-2.2
		l0,0l-1.2-6.9l0,0l-2.7,0.4l0,0h-3.8l0,0l-1.5-1.5l0,0l-3,1.5l0,0h-1.5l0,0l-2.9,1.5l0,0h-2.9l0,0l-1.7,11.7l0,0h-3.7l0,0l-2.9-1.5
		l0,0h-3.9l0,0h-1.5l0,0h-3.2l0,0l-3.3-13.2l0,0l-1.3-3.8l0,0l-2.8-2.8l0,0l-1.3-2.6l0,0l-2.6-1.3l0,0l-2.1-1.1l0,0l-2.9-1.5l0,0
		h-4.8l0,0l-1.5-1.5l0,0h-2l0,0h-2.4l0,0l-1.8,8.7l0,0h-3.1l0,0h-2.9l0,0H350l0,0h-2l0,0l-2.9,2.9l0,0h-4.7l0,0l-1.5-1.5l0,0H336
		l0,0l-1.5-1.5l0,0l-3.5,2.4l0,0l-2.4-2.4l0,0l-1.8,2.4l0,0l-3.2,1.6l0,0l-1.8,1.8l0,0h-1.8l0,0l-2.1,1.1l0,0l-3.8,3.8l0,0
		l-2.9-10.2l0,0l-2,0.5l0,0l-1.8,1.8l0,0h-1.8l0,0l-2.1,1.1l0,0l-1.8,1.8l0,0h-2.9l0,0l-4,2.5l0,0l-2.9,2.9l0,0l-3.7,1.8l0,0
		l-2.8,11.7l0,0l-1.9,3.8l0,0l-4,2l0,0l-2.1,1.1l0,0l-2.6,1.3l0,0l-3.5,7l0,0l-3.5-10.4l0,0l-2.1,0.7l0,0l-2.9,2.9l0,0l-3.7,1.8l0,0
		h-1.5l0,0l-2.9,1.5l0,0l-3.3,2.3l0,0l-1.5,1.5l0,0l-1.5,1.5l0,0l-2.9,2.9l0,0l-1.7,1.7l0,0l-2.6,1.3l0,0l-1.3,2.6l0,0l-2.7,2.7l0,0
		l-1.5,8.7l0,0l-2.2,2.2l0,0l-3.7,1.8l0,0h-1.5l0,0l-2.1,1.1l0,0l-4.2,4.2l0,0l-2.3-2.3l0,0l-3.2,2.2l0,0l-1.5,4.4l0,0l-3.4,1.7l0,0
		l-2.9,2.9l0,0l-2.9,1.5l0,0l-1.8,1.8l0,0h-2.9l0,0l-4,2.5l0,0l-2.3,2.3l0,0l-2.7,6.7l0,0l-1.8,7.3l0,0h-3.7l0,0l-4.8,2.9l0,0h-2.9
		l0,0l-2.3-2.3l0,0l-3.1-6.3l0,0l-0.7-2.1l0,0l-3.1,0.6l0,0h-2l0,0l-1.5,1.5l0,0H164l0,0l-2.9,1.5l0,0h-1.5l0,0l-4.7,2.4l0,0
		l-1.1-3.4l0,0l-4.3,1.1l0,0l-2.5-2.5l0,0l-3.1-12.4l0,0l-1.5-20.5l0,0l-2.9-21.9l0,0l-1.5-19l0,0l-2.9-30.6l0,0l-1.5-21.9l0,0
		l-1.5-27.6l0,0l-2.9-16l0,0l-1.4-14.5l0,0l-2.9-10.2l0,0l-1.5-14.7l0,0l-1.4-7l0,0l-2.8-7.1l0,0L120.6,123.4z"/>
</g>
<g>
	<title>Rectangle 657</title>
	<path class="st3" d="M73.9,419.7L73.9,419.7V109.2l0,0H1043l0,0v310.4l0,0H73.9z"/>
</g>
<g>
	<title>Path 627</title>
	<path class="st8" d="M76,132.6L76,132.6h1.5l0,0h2.6l0,0l2.9,2.9l0,0h3.2l0,0h1.5l0,0h3.2l0,0l1.5-1.5l0,0h2.9l0,0l1.5-1.5l0,0
		l4.2-1.5l0,0h4.2l0,0h1.5l0,0h2.3l0,0l1.5,10.2l0,0h2.1l0,0h2.9l0,0l3.9,1.3l0,0l1.6,1.6l0,0h2.6l0,0l1.4,11.1l0,0l1.5,4.5l0,0
		l2.9,7.2l0,0l1.5,8.7l0,0l2.9,7.3l0,0l1.4,5.8l0,0l2,8l0,0l2.7-6.8l0,0l1.1,8.9l0,0l2.9,10.2l0,0l1.5,8.8l0,0l2.9,7.3l0,0l1.5,4.4
		l0,0l1.5,3l0,0l3,4.5l0,0l1.5,1.5l0,0l2.8,2.8l0,0l1.5,4.4l0,0l3,3l0,0l1.4,2.8l0,0l1.5,3l0,0l2.9,4.3l0,0l1.5,4.4l0,0l2.9,2.9l0,0
		l1.4,5.6l0,0l2.9,10.2l0,0l1.5,7.5l0,0l1.8,1.8l0,0h3.2l0,0h1.5l0,0h3.4l0,0l1.6-4.9l0,0l2.9-8.8l0,0l1.4-5.7l0,0l3.9-2.6l0,0
		l4,1.5l0,0h1.6l0,0h2.9l0,0l2.6,1.5l0,0h3.2l0,0h1.5l0,0h3.2l0,0l3.6,4.4l0,0h2.2l0,0l1.5-1.5l0,0h2.3l0,0l1.5,1.5l0,0h3.2l0,0h2
		l0,0l1.5-6.1l0,0l2.8-1.4l0,0l1.4-2.7l0,0h2.8l0,0l1.5-1.5l0,0h2.9l0,0l1.5-1.5l0,0l3.7-1.2l0,0l1.5,2.9l0,0l3.4-1.7l0,0h1.5l0,0
		l2.9-1.5l0,0h1.6l0,0l1.5-1.5l0,0h2.9l0,0l1.5-1.5l0,0h2.9l0,0l1.5-1.5l0,0h2.9l0,0l1.5-1.5l0,0l4.6-1.6l0,0l1.5-2.9l0,0l2.8-1.4
		l0,0l1.5-1.5l0,0l2.9-1.5l0,0l2.7-1.3l0,0l2.9-1.5l0,0h4.5l0,0l1.5-1.5l0,0h2.9l0,0l1.7-1.7l0,0l4.2-1.2l0,0l1.6-1.6l0,0l2.9-1.5
		l0,0l3.9-1.3l0,0h1.8l0,0l1.5-1.5l0,0h3.1l0,0l1.4-4.1l0,0l2.1,1l0,0l1.6,1.6l0,0h1.8l0,0h2.9l0,0h1.5l0,0h2.5l0,0l1.6,3.2l0,0
		l3.4-1.7l0,0h1.6l0,0l1.6-1.6l0,0l2.7-1.3l0,0h4.2l0,0h1.5l0,0h2.6l0,0l1.5,1.5l0,0h1.8l0,0h2.9l0,0h1.5l0,0h2.9l0,0h1.5l0,0h2.9
		l0,0h1.8l0,0l1.5-1.5l0,0h2.9l0,0l1.5-1.5l0,0h2.6l0,0h1.5l0,0h2.9l0,0h1.5l0,0h1.5l0,0h2.9l0,0l4.2,1.5l0,0h1.5l0,0l2.9,1.5l0,0
		l2.8,1.5l0,0h3.5l0,0l1.5-1.5l0,0h2.9l0,0l1.7-1.7l0,0l4-2.7l0,0h4.5l0,0l1.5-1.5l0,0h2.3l0,0l1.8,1.8l0,0l1.8-1.8l0,0h2.6l0,0h1.5
		l0,0h2.9l0,0h1.6l0,0l3.2-1.6l0,0l2.7-1.3l0,0l2.9-1.5l0,0h4.5l0,0l1.5-1.5l0,0h2.6l0,0h1.5l0,0l4.5,1.6l0,0l1.6-1.6l0,0h2.6l0,0
		h1.5l0,0h2.9l0,0h1.8l0,0l1.5-1.5l0,0h2.6l0,0h1.6l0,0l2.9-1.5l0,0l4,1.5l0,0l2.8,1.5l0,0h3.2l0,0h1.5l0,0h2.9l0,0h1.6l0,0l3.2-1.6
		l0,0l2.8-1.3l0,0l2.1-2.1l0,0l1.3,9.4l0,0h3.5l0,0h1.5l0,0h1.5l0,0h2.6l0,0l5.2,3.3l0,0l1.5-9.1l0,0h2.6l0,0l1.7-1.7l0,0l3.9-1.2
		l0,0h1.5l0,0h2.9l0,0h1.6l0,0l2.9-1.5l0,0h1.6l0,0l1.5-1.5l0,0h2.9l0,0l1.5-1.5l0,0h2.6l0,0h1.5l0,0h2.6l0,0l1.8,1.8l0,0l1.8-1.8
		l0,0h2.6l0,0h1.5l0,0h2.9l0,0h1.5l0,0h3.2l0,0l1.5-1.5l0,0h4.1l0,0h1.5l0,0h2.9l0,0h1.5l0,0h2.9l0,0h1.5l0,0h1.6l0,0l2.9-1.5l0,0
		h4.2l0,0h1.5l0,0h2.9l0,0h1.5l0,0h1.5l0,0h2.3l0,0l1.5,5.8l0,0h3.5l0,0h1.5l0,0h1.5l0,0h2.6l0,0l1.5,1.5l0,0h3.8l0,0l1.5-5.8l0,0
		h2.3l0,0h1.5l0,0h1.6l0,0l3.2-1.6l0,0l1.5-1.5l0,0l1.9-1l0,0l1.4,8.4l0,0h3.5l0,0h1.5l0,0h1.5l0,0h2.9l0,0h1.5l0,0h3.5l0,0l1.5-8.7
		l0,0h2.3l0,0h1.5l0,0h1.5l0,0h3.2l0,0l1.5-1.5l0,0h2.6l0,0h1.5l0,0h3.2l0,0l1.7-1.7l0,0l3.9-1.2l0,0h1.5l0,0h2.9l0,0h1.5l0,0h2.9
		l0,0h1.5l0,0h1.6l0,0l2.6-1.3l0,0l1.5,1.5l0,0l3.2-1.6l0,0h4.2l0,0h1.5l0,0h1.6l0,0l2.9-1.5l0,0h1.5l0,0l2.6-1.3l0,0l2.8,2.8l0,0
		h2.7l0,0l1.3,3.8l0,0l2.9,17.4l0,0l1.5,7.5l0,0l3,3l0,0l1.4,2.8l0,0l1.5,3l0,0l3.2,3.2l0,0h1.8l0,0h2.6l0,0l4.8,3.1l0,0l1.9-1.9
		l0,0l1.4-2.8l0,0l2.8-1.4l0,0l1.7-1.7l0,0l2.9-16.2l0,0l1.3-3.8l0,0h2.4l0,0h1.5l0,0l3.9,1.3l0,0l1.6,1.6l0,0h2.9l0,0l4.2,2.8l0,0
		l1.6,1.6l0,0h1.6l0,0l2.9,1.5l0,0h1.6l0,0h3.2l0,0l1.5-1.5l0,0h2.6l0,0h1.5l0,0h1.5l0,0h3.2l0,0l1.5-1.5l0,0h2.9l0,0l1.6-1.6l0,0
		l2-1l0,0l1.5,7.7l0,0l2.2-2.2l0,0h2.6l0,0h1.6l0,0l2.9-1.5l0,0h3.3l0,0l2.9-8.7l0,0h3.8l0,0h1.6l0,0l2.9-1.5l0,0h1.6l0,0l1.5-1.5
		l0,0h2.6l0,0h1.6l0,0l2.9-1.5l0,0h4.2l0,0h1.8l0,0l1.6-1.6l0,0l2.7-1.3l0,0h4.5l0,0l1.6-1.6l0,0l2.7-1.3l0,0h1.6l0,0l1.6-1.6l0,0
		l2.7-1.3l0,0h4.2l0,0h1.5l0,0h2.9l0,0h1.5l0,0h1.5l0,0h2.9l0,0h1.5l0,0h2.9l0,0h1.5l0,0h2.9l0,0h1.8l0,0l3.5,7.3l0,0h2.2l0,0
		l3.2-1.6l0,0l4.2-1.3l0,0l1.5-1.5l0,0h1.7l0,0l2.9-10.2l0,0h3.8l0,0h1.5l0,0h1.6l0,0l2.9-1.5l0,0h4.5l0,0l1.5-1.5l0,0h2l0,0
		l1.3,5.2l0,0l1.5,13.1l0,0l3,9l0,0l1.8,1.8l0,0h3.2l0,0h1.5l0,0h3.5l0,0l1.6-6.4l0,0l1.5-13.1l0,0l2.8-8.5l0,0l4-1.1l0,0l1.5-1.5
		l0,0h2.6l0,0h1.8l0,0l1.5-1.5l0,0h2.6l0,0h1.5l0,0h2.9l0,0h1.6l0,0l2.9-1.5l0,0h2.7l0,0h2.9l0,0h1.5l0,0h3.2l0,0l1.5-1.5l0,0h2.6
		l0,0h1.8l0,0l3.7,2.9l0,0h1.8l0,0h2.9l0,0h1.5l0,0h1.5l0,0h2.9l0,0h1.9l0,0l3.1-6.1l0,0l3.8-1.2l0,0h1.8l0,0l1.5-1.5l0,0h2.6l0,0
		l4.2,1.5l0,0h1.8l0,0l3.2-1.6l0,0l2.7-1.3l0,0l2.9-1.5l0,0h1.5l0,0l2.9-1.5l0,0h4.2l0,0h1.8l0,0l1.5-1.5l0,0h2.6l0,0h1.6l0,0
		l2.9-1.5l0,0h1.5l0,0l3.1-1.5l0,0l-2.7,3l0,0h-1.5l0,0l-2.9,1.5l0,0h-2l0,0h-2l0,0l-1.5,1.5l0,0h-2.4l0,0h-2.9l0,0l-3.9,1.5l0,0
		h-1.5l0,0l-2.9,1.5l0,0l-2.1,1.1l0,0l-3.7,1.8l0,0h-2.5l0,0l-2.9-1.5l0,0h-3l0,0l-1.5,1.5l0,0h-2.4l0,0h-2l0,0l-3.9,7.3l0,0h-2.8
		l0,0h-2.9l0,0h-1.5l0,0H984l0,0h-2.9l0,0h-2.6l0,0l-2.1-3.1l0,0l-2.6,0.2l0,0h-2l0,0l-1.5,1.5l0,0h-3.8l0,0h-1.5l0,0h-2.9l0,0h-1.5
		l0,0l-3.9,1.5l0,0h-2l0,0h-2.9l0,0h-1.5l0,0h-2l0,0l-1.5,1.5l0,0h-2.4l0,0h-2l0,0l-1.5,1.5l0,0h-2.9l0,0l-3.1,8.5l0,0l-1.4,13l0,0
		l-1.9,7.6l0,0h-4.6l0,0h-1.5l0,0h-3.8l0,0l-2.5-2.5l0,0l-3.2-9.5l0,0l-1.5-13.2l0,0l-1-4l0,0l-1.8,1.5l0,0h-3.8l0,0l-3.9,1.5l0,0
		h-2l0,0h-1.5l0,0H898l0,0l-2.7,10.2l0,0h-2.2l0,0l-1.5,1.5l0,0h-2.9l0,0l-4.8,2.9l0,0h-3.5l0,0l-2.3-6.9l0,0l-2-0.4l0,0h-2.9l0,0
		h-1.5l0,0h-2.9l0,0h-1.5l0,0h-2.9l0,0H863l0,0h-1.5l0,0h-2.9l0,0h-1.5l0,0h-2.9l0,0l-3.1,1.1l0,0l-1.8,1.8l0,0h-1.8l0,0l-2.1,1.1
		l0,0l-1.8,1.8l0,0h-3.8l0,0l-3.1,1.1l0,0l-1.8,1.8l0,0h-2.4l0,0h-2.9l0,0l-3.9,1.5l0,0h-2l0,0h-2l0,0l-1.5,1.5l0,0h-1.8l0,0
		l-2.9,1.5l0,0h-2l0,0h-2.9l0,0l-2.8,8.7l0,0h-3l0,0l-3.9,1.5l0,0h-2l0,0h-2l0,0l-3.7,3.7l0,0l-1.7-8.5l0,0l-1.9,1.9l0,0h-2.9l0,0
		l-1.5,1.5l0,0h-3.8l0,0H780l0,0h-1.5l0,0h-2l0,0l-1.5,1.5l0,0h-3.8l0,0h-2l0,0l-2.9-1.5l0,0h-1.8l0,0l-1.8-1.8l0,0l-2.9-1.5l0,0
		l-4-1.1l0,0l-1.8-1.8l0,0l-2.1-1.1l0,0h-2.4l0,0l-2.2,2.7l0,0l-3,16.6l0,0l-2.2,2.2l0,0l-2.6,1.3l0,0l-1.3,2.6l0,0l-2.8,2.8l0,0
		l-4.6-2.3l0,0l-3.1-1.1l0,0h-2.4l0,0l-3.8-3.8l0,0l-1.6-3.2l0,0l-1.3-2.6l0,0l-3.1-3.1l0,0l-1.6-8l0,0l-2.9-17.4l0,0l-0.9-2.7l0,0
		h-2.2l0,0l-2.1-2.1l0,0l-2.3,0.6l0,0h-1.5l0,0l-2.9,1.5l0,0h-2l0,0h-1.5l0,0h-2.9l0,0l-4.8,1.9l0,0l-1.5-1.5l0,0l-2,1l0,0h-2l0,0
		h-1.5l0,0h-2.9l0,0h-1.5l0,0h-2.9l0,0h-1.5l0,0h-2l0,0l-2.9,2.9l0,0h-3.8l0,0h-1.5l0,0h-2l0,0l-1.5,1.5l0,0h-3.8l0,0h-1.5l0,0h-1.5
		l0,0l-2.5,8.7l0,0h-4.8l0,0H643l0,0h-2.9l0,0h-1.5l0,0h-1.5l0,0h-4.8l0,0l-1.3-7.7l0,0l-5.1,3.3l0,0h-2l0,0h-1.5l0,0l-2.7,5.8l0,0
		h-5.5l0,0l-1.5-1.5l0,0h-2l0,0h-1.5l0,0H608l0,0h-4.6l0,0l-1.5-5.8l0,0h-2.7l0,0h-1.5l0,0h-2.9l0,0h-1.5l0,0h-2.9l0,0l-3.9,1.5l0,0
		h-2l0,0h-1.5l0,0h-2.9l0,0h-1.5l0,0h-2.9l0,0h-1.5l0,0h-2.9l0,0l-2,1.5l0,0h-3.8l0,0h-1.5l0,0h-2.9l0,0h-1.5l0,0h-2l0,0l-2.4,2.4
		l0,0l-2.4-2.4l0,0h-2l0,0h-1.5l0,0h-2l0,0l-1.5,1.5l0,0h-2.9l0,0l-1.5,1.5l0,0H540l0,0l-2.9,1.5l0,0h-2l0,0h-2.9l0,0h-1.5l0,0h-2
		l0,0l-2.9,2.9l0,0h-2l0,0l-1.6,9.8l0,0l-5.9-2.9l0,0l-3.1-1.1l0,0h-1.5l0,0h-1.5l0,0h-4.8l0,0l-1.1-7.8l0,0l-1.9,0.5l0,0l-4.8,2.9
		l0,0h-2l0,0h-2.9l0,0h-1.5l0,0h-3.8l0,0l-1.5-1.5l0,0l-4-1.5l0,0l-3.3,1.5l0,0h-2l0,0h-2l0,0l-1.5,1.5l0,0H471l0,0h-2.9l0,0h-1.5
		l0,0h-2l0,0l-1.9,1.9l0,0l-3.9-1.9l0,0h-2.4l0,0h-2l0,0l-1.5,1.5l0,0h-3.8l0,0l-3.9,1.5l0,0l-2.1,1.1l0,0l-3.7,1.8l0,0h-2l0,0h-2.9
		l0,0h-1.5l0,0h-2l0,0l-2.4,2.4l0,0l-2.4-2.4l0,0l-2.6,1.5l0,0H420l0,0l-3.1,1.1l0,0l-3.3,3.3l0,0h-2.9l0,0l-1.5,1.5l0,0h-4.7l0,0
		l-1.5-1.5l0,0l-4-1.5l0,0h-1.5l0,0l-2.9-1.5l0,0h-3.9l0,0h-1.5l0,0h-1.5l0,0H385l0,0h-1.5l0,0h-2l0,0l-1.5,1.5l0,0h-2.9l0,0
		l-1.5,1.5l0,0h-2.4l0,0h-2.9l0,0H369l0,0h-2.9l0,0h-1.5l0,0h-2.9l0,0h-2.4l0,0l-1.5-1.5l0,0h-2l0,0h-1.5l0,0h-2.9l0,0l-3.1,1.1l0,0
		l-1.8,1.8l0,0h-1.8l0,0l-4.4,2.2l0,0l-1.8-3.7l0,0h-1.6l0,0h-1.5l0,0h-2.9l0,0h-2.4l0,0l-1.8-1.8l0,0l-1.5,3.3l0,0h-3.6l0,0
		l-1.5,1.5l0,0h-2.4l0,0h-2l0,0l-4,2.5l0,0l-1.8,1.8l0,0h-2.9l0,0l-2.9,2.9l0,0h-2.9l0,0l-1.5,1.5l0,0h-3.8l0,0l-3.9,1.5l0,0
		l-2.1,1.1l0,0l-2.9,1.5l0,0l-1.5,1.5l0,0l-2.6,1.3l0,0l-1.5,2.9l0,0l-4,2l0,0l-2.5,1.5l0,0h-2.9l0,0l-1.5,1.5l0,0h-2.9l0,0
		l-1.5,1.5l0,0H265l0,0l-1.5,1.5l0,0h-1.8l0,0l-2.9,1.5l0,0h-1.5l0,0l-4.4,2.2l0,0l-1.5-2.9l0,0l-2.5,0.7l0,0l-1.5,1.5l0,0h-2.9l0,0
		l-1.5,1.5l0,0h-2.5l0,0l-1.2,2.4l0,0l-2.7,1.3l0,0l-1.6,6.5l0,0H232l0,0h-3.8l0,0l-1.5-1.5l0,0l-2.6,1.5l0,0h-3.7l0,0l-2.2-4.3l0,0
		l-3.8,0l0,0H213l0,0h-3.8l0,0l-1.5-1.5l0,0h-3.5l0,0h-2l0,0l-2.9-1.5l0,0l-2.6,1.1l0,0l-2.1,6.1l0,0l-2.9,8.8l0,0l-2,5.9l0,0h-4.5
		l0,0h-1.5l0,0h-3.8l0,0l-2.6-2.6l0,0l-1.6-7.9l0,0l-2.9-10.2l0,0l-1.3-5.3l0,0l-2.9-2.9l0,0l-1.5-4.6l0,0l-2.8-4.2l0,0l-1.5-3l0,0
		l-1.3-2.6l0,0l-3-3l0,0l-1.5-4.4l0,0l-2.5-2.5l0,0l-1.6-1.6l0,0l-3.1-4.7l0,0l-1.6-3.2l0,0l-1.5-4.5l0,0l-3-7.4l0,0l-1.5-8.9l0,0
		l-2.9-10.2l0,0l-0.4-3.4l0,0l-2.3,5.7l0,0l-3.1-12.4l0,0l-1.4-5.7l0,0l-2.9-7.4l0,0l-1.5-8.7l0,0l-2.9-7.1l0,0l-1.5-4.6l0,0
		l-1.2-10l0,0h-1.9l0,0l-1.8-1.8l0,0l-2.1-1.1l0,0h-3.9l0,0h-3.4l0,0l-1.5-10.2l0,0h-2.5l0,0h-2.9l0,0l-3.9,1.5l0,0l-2.5,1.5l0,0H93
		l0,0l-1.5,1.5l0,0h-3.8l0,0h-1.5l0,0h-3.8l0,0l-2.1-2.1l0,0l-2.8-0.8l0,0H76l0,0L76,132.6z"/>
</g>
<g>
	<title>Rectangle 658</title>
	<path class="st3" d="M73.9,419.7L73.9,419.7V109.2l0,0H1043l0,0v310.4l0,0H73.9z"/>
</g>
<g>
	<title>Path 628</title>
	<path class="st9" d="M120.9,152.9L120.9,152.9l2.5,1.3l0,0l1.4,17.1l0,0l1.5,29.2l0,0l2.9,30.6l0,0l1.5,32.1l0,0l2.9,30.6l0,0
		l1.5,27.7l0,0l1.5,21.9l0,0l2.9,14.7l0,0l1.6,3.2l0,0l3.3,1.6l0,0h1.8l0,0l2.9-1.5l0,0h1.6l0,0l1.6-1.6l0,0l2.7-1.3l0,0h1.5l0,0
		l2.9-1.5l0,0h3.9l0,0l2.6,8.7l0,0h3.2l0,0l1.6,1.6l0,0l2.5-1.3l0,0l1.3,6.4l0,0l3.4,6.8l0,0l2-2l0,0l4.2-1.5l0,0h4.8l0,0l1.6-6.3
		l0,0l2.8-7.1l0,0l2.3-1.1l0,0h2.6l0,0l1.5,1.5l0,0h3.5l0,0l1.5-1.5l0,0h2.6l0,0h1.5l0,0h1.6l0,0l3.3-1.6l0,0l1.5-2.9l0,0l2.8-1.4
		l0,0l3.6,1.6l0,0h1.8l0,0h1.6l0,0l2.6-1.3l0,0l1.5,1.5l0,0l3.2-1.6l0,0h1.8l0,0l1.5-4.6l0,0l2.8-1.4l0,0l1.5-1.5l0,0l2.9-1.5l0,0
		l4.2-1.3l0,0l1.7-1.7l0,0l3.9-1.2l0,0h1.5l0,0h3.2l0,0l1.5-1.5l0,0h2.6l0,0h1.8l0,0l1.6-1.6l0,0l2.9-1.5l0,0l1.5-1.5l0,0l2.9-1.5
		l0,0l1.5-1.5l0,0l3-1.5l0,0l1.5-3l0,0l4.1-4.1l0,0h1.5l0,0l2.9-2.9l0,0l4.5-1.6l0,0l1.5-1.5l0,0l3.9-1.2l0,0h1.5l0,0h3.2l0,0
		l1.6-1.6l0,0l2.7-1.3l0,0h1.6l0,0l1.6-1.6l0,0l2.7-1.3l0,0h1.5l0,0l3.2-1.6l0,0l1.5-1.5l0,0l2.7-1.3l0,0h1.6l0,0l1.7-1.7l0,0
		l2.9-2.9l0,0l3.9-1.2l0,0h1.5l0,0h1.6l0,0l2.9-1.5l0,0l3.8,1.3l0,0l4.9,6.7l0,0l2-3.9l0,0l3.9-2.6l0,0h1.5l0,0l3.4-1.7l0,0
		l1.5-10.5l0,0l2.7-5.3l0,0h2.5l0,0h3.2l0,0l1.5-1.5l0,0h2.9l0,0l1.6-1.6l0,0l2.7-1.3l0,0h1.6l0,0l1.5-1.5l0,0h2.9l0,0l1.5-1.5l0,0
		h2.6l0,0h1.6l0,0l2.9-1.5l0,0h2.9l0,0l2.9-1.5l0,0h4.2l0,0h1.5l0,0h2.3l0,0l1.4,5.5l0,0l1.8,1.8l0,0h3.2l0,0h1.5l0,0h2.9l0,0h1.5
		l0,0h2l0,0l2.9-7.3l0,0h3.9l0,0h1.5l0,0h2.9l0,0h1.8l0,0l1.5-1.5l0,0h2.6l0,0h1.5l0,0h2.9l0,0h1.6l0,0l2.1-1.1l0,0l1.4,11.3l0,0
		h2.3l0,0l2.9-1.5l0,0h1.5l0,0l2.9-1.5l0,0h1.5l0,0l2.9-1.5l0,0h1.6l0,0l1.5-1.5l0,0h2.6l0,0h1.5l0,0h3.2l0,0l1.5-1.5l0,0h2.9l0,0
		l1.5-1.5l0,0h4.1l0,0h1.5l0,0h2.9l0,0h1.5l0,0h2.9l0,0h1.5l0,0h1.5l0,0h2.9l0,0h1.5l0,0h3.2l0,0l1.5-1.5l0,0h2.6l0,0h1.8l0,0
		l1.6-1.6l0,0l2.7-1.3l0,0h1.5l0,0l2.9-1.5l0,0h3.2l0,0l2.9-7.3l0,0h3.9l0,0h1.5l0,0h2.9l0,0h1.5l0,0h1.6l0,0l3.2-1.6l0,0l3.9-1.3
		l0,0h1.6l0,0l3.2-1.6l0,0l1.5-1.5l0,0l4.3-2.8l0,0l4.2-1.3l0,0h3.9l0,0h1.9l0,0l1.6-1.6l0,0l2.7-1.3l0,0h4.2l0,0h1.6l0,0l2.9-1.5
		l0,0h2.7l0,0h3.2l0,0l1.5-1.5l0,0h2.9l0,0l1.5-1.5l0,0h2.6l0,0h1.8l0,0l1.6-1.6l0,0l2.7-1.3l0,0h1.5l0,0l2.9-1.5l0,0h1.5l0,0
		l2.9-1.5l0,0h1.6l0,0l1.5-1.5l0,0h2.6l0,0h1.5l0,0h2.9l0,0h1.5l0,0h1.5l0,0h2.6l0,0l1.6,1.6l0,0l3.2-1.6l0,0h4.2l0,0h1.8l0,0
		l1.5-1.5l0,0h2.6l0,0h1.5l0,0h2.9l0,0h1.6l0,0l2.9-1.5l0,0h2.9l0,0l3.2-1.6l0,0l1.5-1.5l0,0l2.7-1.3l0,0h4.5l0,0l1.5-1.5l0,0
		l4.2-1.5l0,0h4.5l0,0l1.5-1.5l0,0h2.9l0,0l1.5-1.5l0,0l4.2-1.5l0,0h1.5l0,0l2.9-1.5l0,0l3.8,5.8l0,0h1.9l0,0h1.6l0,0l2.9-1.5l0,0
		h4.5l0,0l1.8-1.8l0,0l2.8-7l0,0l2.7-1.5l0,0h2.9l0,0l1.7-1.7l0,0l2.9-2.9l0,0l1.5-1.5l0,0l3.3-2.4l0,0l1.3,6.3l0,0l2.9,20.5l0,0
		l1.5,3.1l0,0l3.2,4.7l0,0h1.5l0,0l4.8,3.1l0,0l1.7-1.7l0,0l2.2-1.1l0,0l1.2,2.5l0,0l3,1.5l0,0l1.6,1.6l0,0h1.5l0,0l3.5,3.5l0,0
		l1.8-5.5l0,0l2.9-18.9l0,0l1.3-2.6l0,0l2.5-1.3l0,0h2.7l0,0h2.6l0,0l4.1,2.7l0,0l1.3,2.7l0,0l2.9,8.7l0,0l1.5,3.1l0,0l1.6,1.6l0,0
		l2.9,1.5l0,0l1.6,1.6l0,0h3.5l0,0l1.5-1.5l0,0h2.6l0,0h1.5l0,0h1.6l0,0l2.9-1.5l0,0h1.5l0,0l3.3-1.6l0,0l1-2l0,0l2.2,3.2l0,0
		l1.4,4.3l0,0l1.5,5.9l0,0l2.9,4.4l0,0l1.4,5.8l0,0l2.9,5.8l0,0l1.6,6.3l0,0h2.2l0,0l2.9-1.5l0,0h1.5l0,0l3.2-1.6l0,0l4.2-1.3l0,0
		l1.8-1.8l0,0l1.3-2.6l0,0h2.5l0,0h1.5l0,0h3.2l0,0l1.5-1.5l0,0h2.6l0,0h1.5l0,0h1.5l0,0h3.2l0,0l1.5-1.5l0,0h2.9l0,0l1.5-1.5l0,0
		h2.9l0,0l1.7-1.7l0,0l1.5-1.5l0,0l3-3l0,0l1.4-2.8l0,0l2.9-1.5l0,0l1.5-2.9l0,0l2.9-1.5l0,0l1.8,3.1l0,0h3.5l0,0h1.5l0,0h2.9l0,0
		h1.5l0,0h3.2l0,0l1.5-1.5l0,0h4.4l0,0l1.5-1.5l0,0h2.3l0,0l1.5,1.5l0,0h3.5l0,0l1.8-1.8l0,0l1.4-5.5l0,0h2.3l0,0h1.6l0,0l2.9-1.5
		l0,0h1.6l0,0l1.5-1.5l0,0h2.9l0,0l1.5-1.5l0,0h2.9l0,0l1.6-1.6l0,0l1.9-0.9l0,0l1.4,13.5l0,0l1.5,19l0,0l2.9,13.3l0,0l1.7,3.4l0,0
		h3.4l0,0l4.9,3.8l0,0l1.6-16.1l0,0l1.5-18.9l0,0l2.9-13.1l0,0l1.3-7.8l0,0l2.2,1.1l0,0h1.6l0,0h2.9l0,0h1.5l0,0h1.6l0,0l2.3-1.2
		l0,0l1.4,4.1l0,0h3.4l0,0h1.6l0,0l2.6-1.3l0,0l3.2,1.3l0,0l2.2-1.1l0,0l1.4,8.4l0,0h3.5l0,0h1.5l0,0h3.2l0,0l1.7-1.7l0,0l3.6,6.6
		l0,0l2-2l0,0h2.6l0,0h1.8l0,0l1.5-1.5l0,0h2.6l0,0h2l0,0l3.1-9.2l0,0l1.3-3.9l0,0h2.4l0,0h1.5l0,0l4.2,1.5l0,0h1.5l0,0l3.5,1.8l0,0
		l1.6-4.7l0,0h2.7l0,0l1.7-1.7l0,0l4.2-1.2l0,0l1.6-1.6l0,0l2.7-1.3l0,0h4.5l0,0l1.5-1.5l0,0h4.1l0,0h1.5l0,0h3.2l0,0l1.6-1.6l0,0
		l2.8-1.4l0,0l-1.9,2.6l0,0l-1.8,1.8l0,0h-3.8l0,0h-1.5l0,0h-2.9l0,0l-2,1.5l0,0h-3.8l0,0l-3.1,1.1l0,0l-1.8,1.8l0,0h-2.9l0,0
		l-2.9,2.9l0,0h-2.2l0,0l-1.8,5.3l0,0l-4.7-2.4l0,0h-1.5l0,0l-2.9-1.5l0,0h-2.4l0,0l-2.3,2.9l0,0l-3.4,10.2l0,0h-3l0,0h-2l0,0
		l-1.5,1.5l0,0H984l0,0h-2l0,0l-3.2,3.2l0,0l-2.9-7.3l0,0l-5,1.2l0,0h-1.5l0,0h-4.8l0,0l-1.3-7.7l0,0l-3.6,0.4l0,0h-3l0,0h-2l0,0
		h-4.5l0,0l-1.2-3.5l0,0l-3.1,0.6l0,0h-1.5l0,0h-2.9l0,0h-2l0,0l-1.7,5.5l0,0l-2.9,13l0,0l-1.4,18.8l0,0l-1.9,19.2l0,0l-5.5-5.5l0,0
		h-4.8l0,0l-2.2-4.4l0,0l-3-13.5l0,0l-1.5-19.1l0,0l-1.1-11.4l0,0L912,236l0,0h-2.9l0,0l-1.5,1.5l0,0h-2.9l0,0l-1.5,1.5l0,0h-1.8
		l0,0l-2.9,1.5l0,0h-2l0,0l-2.4,4.8l0,0l-2.5,2.5l0,0h-4.7l0,0l-1.5-1.5l0,0l-2.6,1.5l0,0h-3.8l0,0l-2,1.5l0,0h-3.8l0,0h-1.5l0,0
		h-2.9l0,0h-1.5l0,0h-4.6l0,0l-0.4-1.8l0,0l0.9-1.7l0,0l-2.9,1.5l0,0l-1.5,2.9l0,0l-2.9,1.5l0,0l-1.3,2.6l0,0l-3.2,3.2l0,0l-1.5,1.5
		l0,0l-2.1,2.1l0,0H845l0,0l-1.5,1.5l0,0h-2.9l0,0l-1.5,1.5l0,0h-3.8l0,0h-1.5l0,0h-1.5l0,0h-2l0,0l-1.5,1.5l0,0h-3.8l0,0h-1.5l0,0
		h-1.6l0,0l-1,2l0,0l-2.3,2.3l0,0h-2.9l0,0l-4.8,2.9l0,0h-1.5l0,0l-2.9,1.5l0,0H803l0,0l-1.8-7.3l0,0l-2.9-5.8l0,0l-1.4-5.7l0,0
		l-2.9-4.4l0,0l-1.5-6.1l0,0l-1.3-4l0,0l-4.8,1.2l0,0h-1.5l0,0l-2.9,1.5l0,0h-2l0,0h-1.5l0,0h-2l0,0l-1.5,1.5l0,0h-4.7l0,0l-1.8-1.8
		l0,0l-2.9-1.5l0,0l-2-2l0,0l-1.7-3.4l0,0l-2.9-8.7l0,0l-1.1-2.1l0,0l-2.6-1.3l0,0l-3.1-1.1l0,0h-1.5l0,0l-2.7,0.9l0,0l-1,2l0,0
		l-2.9,18.8l0,0l-2.6,7.9l0,0l-4.8-4.8l0,0h-1.5l0,0l-1.8-1.8l0,0l-3.2-1.6l0,0l-0.8-1.6l0,0l-3,2.6l0,0l-4.6-2.3l0,0l-2.8-1.1l0,0
		l-3.6-5.5l0,0l-1.7-3.4l0,0l-3-20.7l0,0l-0.9-4.4l0,0l-2.7,2.7l0,0l-2.9,2.9l0,0l-2.1,2.1l0,0h-2.9l0,0l-1.5,1.5l0,0l-3.4,6.3l0,0
		l-2.4,2.4l0,0h-3.8l0,0l-3.9,1.5l0,0h-2l0,0h-2.8l0,0l-2.9-5.8l0,0l-2.5,1.5l0,0h-1.5l0,0l-2.9,1.5l0,0l-2.5,1.5l0,0h-2.9l0,0
		l-1.5,1.5l0,0H659l0,0l-3.9,1.5l0,0l-2.5,1.5l0,0h-3.8l0,0l-3.1,1.1l0,0l-1.5,1.5l0,0l-3.7,1.8l0,0h-2l0,0l-3.9,1.5l0,0h-2l0,0
		h-2.9l0,0h-1.5l0,0h-2l0,0l-1.5,1.5l0,0h-2.4l0,0h-2.9l0,0l-4.8,1.9l0,0l-1.9-1.9l0,0h-2l0,0h-1.5l0,0H608l0,0h-2.9l0,0h-1.5l0,0
		h-2l0,0l-1.5,1.5l0,0h-1.8l0,0l-2.9,1.5l0,0h-1.5l0,0l-2.9,1.5l0,0h-1.5l0,0l-2.1,1.1l0,0l-1.8,1.8l0,0h-2.4l0,0h-2l0,0l-1.5,1.5
		l0,0h-2.9l0,0l-1.5,1.5l0,0h-3.8l0,0h-1.5l0,0l-3.9,1.5l0,0h-2l0,0h-2.9l0,0l-3.1,1.1l0,0l-1.8,1.8l0,0h-2.9l0,0l-2-1l0,0l-3.9,1
		l0,0l-4,2.5l0,0l-2.9,2.9l0,0l-3.7,1.8l0,0h-2l0,0h-2l0,0l-4.8,2.9l0,0h-2l0,0h-1.5l0,0H522l0,0h-1.5l0,0h-2.9l0,0l-2.9,7.3l0,0
		h-2.9l0,0L508,271l0,0h-1.5l0,0l-2.1,1.1l0,0l-1.8,1.8l0,0h-2.4l0,0h-2l0,0l-1.5,1.5l0,0h-3.8l0,0h-1.5l0,0h-2.9l0,0H487l0,0h-1.5
		l0,0h-2.9l0,0h-1.5l0,0h-2.9l0,0h-1.5l0,0h-2.9l0,0l-2,1.5l0,0H469l0,0l-1.5,1.5l0,0h-3.8l0,0h-1.5l0,0h-2l0,0l-1.5,1.5l0,0h-1.8
		l0,0l-2.9,1.5l0,0h-1.5l0,0l-2.9,1.5l0,0h-1.5l0,0l-2.9,1.5l0,0h-3.9l0,0l-1.3-10.5l0,0l-2.6,0.3l0,0h-2.9l0,0h-1.5l0,0h-2l0,0
		l-1.5,1.5l0,0h-2.4l0,0h-2.9l0,0h-1.5l0,0H420l0,0l-2.9,7.3l0,0h-2.9l0,0h-1.5l0,0h-2.9l0,0h-1.5l0,0h-3.8l0,0l-2.5-2.5l0,0
		l-1.2-4.8l0,0h-2.7l0,0h-2.9l0,0l-3.9,1.5l0,0h-2l0,0l-3.9,1.5l0,0h-2l0,0h-2l0,0l-1.5,1.5l0,0h-2.9l0,0l-1.5,1.5l0,0h-1.8l0,0
		l-2.1,1.1l0,0l-1.8,1.8l0,0H367l0,0l-1.5,1.5l0,0h-3.8l0,0h-1.5l0,0l-2.3,4.3l0,0l-1.6,11l0,0l-4.4,2.2l0,0h-1.5l0,0l-2.1,1.1l0,0
		l-3.9,6.9l0,0l-4.9-7.3l0,0l-3.2-2.1l0,0l-3.3,1.5l0,0h-2l0,0h-1.5l0,0h-2l0,0l-3.7,3.7l0,0l-2.1,2.1l0,0h-1.8l0,0l-2.1,1.1l0,0
		l-1.5,1.5l0,0l-3.7,1.8l0,0h-1.5l0,0l-2.1,1.1l0,0l-1.8,1.8l0,0h-1.8l0,0l-2.1,1.1l0,0l-1.8,1.8l0,0h-3.8l0,0h-1.5l0,0h-2l0,0
		l-2.5,2.5l0,0l-3.7,1.8l0,0l-4,2.9l0,0h-1.5l0,0l-2.3,2.3l0,0l-2.8,4.5l0,0l-3.2,1.6l0,0l-1.5,1.5l0,0l-2.9,1.5l0,0l-1.5,1.5l0,0
		l-2.9,1.5l0,0l-1.8,1.8l0,0h-2.4l0,0h-2l0,0l-1.5,1.5l0,0h-3.8l0,0h-1.5l0,0h-2l0,0l-2.9,2.9l0,0h-2.9l0,0l-4,2.5l0,0l-1.5,1.5l0,0
		l-2.4,1.2l0,0l-1.7,5l0,0h-2.5l0,0l-3.9,1.9l0,0l-1.5-1.5l0,0l-2,1l0,0h-2l0,0h-2.4l0,0l-2-2l0,0l-2.7,1.5l0,0l-1.5,2.9l0,0l-4,2
		l0,0h-2l0,0h-1.5l0,0h-2l0,0l-1.5,1.5l0,0H199l0,0l-1.5-1.5l0,0h-2l0,0l-3.7,7.2l0,0l-1.8,7.3l0,0h-4.6l0,0l-3.9,1.5l0,0l-4,3l0,0
		l-4.4-8.8l0,0l-1-4.8l0,0l-1.8,0.9l0,0l-1.9-1.9l0,0h-3.8l0,0l-1.7-8.4l0,0l-2.4-0.3l0,0l-3.9,1.5l0,0h-1.5l0,0l-2.1,1.1l0,0
		l-1.8,1.8l0,0h-1.8l0,0l-2.9,1.5l0,0H144l0,0l-4-2l0,0l-1.9-3.8l0,0l-3-15l0,0l-1.5-22l0,0l-1.5-27.7l0,0l-2.9-30.6l0,0l-1.5-32.1
		l0,0l-2.9-30.6l0,0l-1.5-29.2l0,0l-1.4-16.2l0,0l-1.8-0.9l0,0L120.9,152.9z"/>
</g>
<g>
	<title>Group 452</title>
	<g>
		<title>0</title>
		<g transform="matrix(1,0,0,1,54,157)">
			<text transform="matrix(1 0 0 1 0 -20)" class="st10 st11 st12">0</text>
		</g>
	</g>
	<g>
		<title>Group 451</title>
		<g>
			<title>-140</title>
			<g transform="matrix(1,0,0,1,31,428)">
				<text transform="matrix(1 0 0 1 0 -20)" class="st10 st11 st12">-140</text>
			</g>
		</g>
		<g>
			<title>-120</title>
			<g transform="matrix(1,0,0,1,31,389)">
				<text transform="matrix(1 0 0 1 0 -20)" class="st10 st11 st12">-120</text>
			</g>
		</g>
		<g>
			<title>-100</title>
			<g transform="matrix(1,0,0,1,31,351)">
				<text transform="matrix(1 0 0 1 0 -20)" class="st10 st11 st12">-100</text>
			</g>
		</g>
		<g>
			<title>-80</title>
			<g transform="matrix(1,0,0,1,40,311)">
				<text transform="matrix(1 0 0 1 0 -20)" class="st10 st11 st12">-80</text>
			</g>
		</g>
		<g>
			<title>-60</title>
			<g transform="matrix(1,0,0,1,40,274)">
				<text transform="matrix(1 0 0 1 0 -20)" class="st10 st11 st12">-60</text>
			</g>
		</g>
		<g>
			<title>-40</title>
			<g transform="matrix(1,0,0,1,40,234)">
				<text transform="matrix(1 0 0 1 0 -20)" class="st10 st11 st12">-40</text>
			</g>
		</g>
		<g>
			<title>-20</title>
			<g transform="matrix(1,0,0,1,40,196)">
				<text transform="matrix(1 0 0 1 0 -20)" class="st10 st11 st12">-20</text>
			</g>
		</g>
		<g>
			<title>20</title>
			<g transform="matrix(1,0,0,1,45,119)">
				<text transform="matrix(1 0 0 1 0 -20)" class="st10 st11 st12">20</text>
			</g>
		</g>
	</g>
</g>
<title>Group 453</title>
<g>
	<title>21-Feb-20</title>
	<g transform="matrix(1,0,0,1,68,53)">
		<text transform="matrix(1 0 0 1 20.5444 -17.459)" class="st10 st11 st13">21-Feb-20</text>
	</g>
</g>
<g>
	<title>21-Mar-20</title>
	<g transform="matrix(1,0,0,1,129,53)">
		<text transform="matrix(1 0 0 1 25.7661 -17.459)" class="st10 st11 st13">21-Mar-20</text>
	</g>
</g>
<g>
	<title>21-Apr-20</title>
	<g transform="matrix(1,0,0,1,193,55)">
		<text transform="matrix(1 0 0 1 24.0425 -19.459)" class="st10 st11 st13">21-Apr-20</text>
	</g>
</g>
<g>
	<title>21-May-20</title>
	<g transform="matrix(1,0,0,1,255,52)">
		<text transform="matrix(1 0 0 1 18.7158 -16.459)" class="st10 st11 st13">21-May-20</text>
	</g>
</g>
<g>
	<title>21-Jun-20</title>
	<g transform="matrix(1,0,0,1,320,54)">
		<text transform="matrix(1 0 0 1 15.5723 -18.459)" class="st10 st11 st13">21-Jun-20</text>
	</g>
</g>
<g>
	<title>21-Jul-20</title>
	<g transform="matrix(1,0,0,1,382,57)">
		<text transform="matrix(1 0 0 1 10.2837 -21.459)" class="st10 st11 st13">21-Jul-20</text>
	</g>
</g>
<g>
	<title>21-Aug-20</title>
	<g transform="matrix(1,0,0,1,447,53)">
		<text transform="matrix(1 0 0 1 2.3999 -17.459)" class="st10 st11 st13">21-Aug-20</text>
	</g>
</g>
<g>
	<title>21-Sep-20</title>
	<g transform="matrix(1,0,0,1,511,53)">
		<text transform="matrix(1 0 0 1 -0.2856 -17.459)" class="st10 st11 st13">21-Sep-20</text>
	</g>
</g>
<g>
	<title>21-Oct-20</title>
	<g transform="matrix(1,0,0,1,573,55)">
		<text transform="matrix(1 0 0 1 -5.5752 -19.459)" class="st10 st11 st13">21-Oct-20</text>
	</g>
</g>
<g>
	<title>21-Nov-20</title>
	<g transform="matrix(1,0,0,1,638,53)">
		<text transform="matrix(1 0 0 1 -14.458 -17.459)" class="st10 st11 st13">21-Nov-20</text>
	</g>
</g>
<g>
	<title>21-Dec-20</title>
	<g transform="matrix(1,0,0,1,700,53)">
		<text transform="matrix(1 0 0 1 -15.7461 -17.459)" class="st10 st11 st13">21-Dec-20</text>
	</g>
</g>
<g>
	<title>21-Jan-21</title>
	<g transform="matrix(1,0,0,1,764,55)">
		<text transform="matrix(1 0 0 1 -19.4326 -19.459)" class="st10 st11 st13">21-Jan-21</text>
	</g>
</g>
<g>
	<title>21-Feb-21</title>
	<g transform="matrix(1,0,0,1,829,53)">
		<text transform="matrix(1 0 0 1 -26.3154 -17.459)" class="st10 st11 st13">21-Feb-21</text>
	</g>
</g>
<g>
	<title>21-Mar-21</title>
	<g transform="matrix(1,0,0,1,887,53)">
		<text transform="matrix(1 0 0 1 -24.8125 -17.459)" class="st10 st11 st13">21-Mar-21</text>
	</g>
</g>
<g>
	<title>21-Apr-21</title>
	<g transform="matrix(1,0,0,1,951,55)">
		<text transform="matrix(1 0 0 1 -27.4971 -19.459)" class="st10 st11 st13">21-Apr-21</text>
	</g>
</g>
<g>
	<title>21-May-21</title>
	<g transform="matrix(1,0,0,1,1014,52)">
		<text transform="matrix(1 0 0 1 -31.9834 -16.459)" class="st10 st11 st13">21-May-21</text>
	</g>
</g>
</svg>
