<svg xmlns="http://www.w3.org/2000/svg" xmlns:xlink="http://www.w3.org/1999/xlink" width="1034.539" height="532.906" viewBox="0 0 1034.539 532.906"><defs><style>.a,.c,.d,.e{fill:none;}.b{fill:#606060;}.b,.d{fill-rule:evenodd;}.c{stroke:#a7a9ac;stroke-miterlimit:10;stroke-width:1.559px;}.e{stroke:#a6a6a6;stroke-linejoin:round;stroke-width:1.439px;}.f,.g{fill:#fff;}.f{font-size:14.31px;font-family:IBMPlexSans, IBM Plex Sans;}.g{font-size:21px;font-family:Calibri;}.h{fill:#f0f0f0;}.i{fill:#0052b4;}.j{fill:#d80027;}.k{fill:#6da544;}.l{fill:#ffda44;}.m{fill:#338af3;}.n{fill:#ff9811;}.o{clip-path:url(#a);}.p{fill:#496e2d;}.q{fill:#acabb1;}.r{clip-path:url(#b);}.s{fill:#a2001d;}</style><clipPath id="a"><rect class="a" width="17" height="17"/></clipPath><clipPath id="b"><rect width="17" height="17.041"/></clipPath></defs><g transform="translate(-442.73 -6272.76)"><path class="b" d="M442.73,6272.76H1477.27v532.906H442.73V6272.76Z"/><path class="c" d="M567.5,6734.09h861.886M567.5,6608.629h861.886M567.5,6546.013h861.886M567.5,6483.4h861.886M567.5,6420.552h861.886M567.5,6357.936h861.886M567.5,6295.32h861.886"/><path class="c" d="M675.237,6295.32v438.77m107.736-438.77v438.77m107.735-438.77v438.77m107.736-438.77v438.77m107.736-438.77v438.77m107.736-438.77v438.77m107.735-438.77v438.77m107.736-438.77v438.77"/><line class="c" y1="438.77" transform="translate(567.501 6295.32)"/><line class="c" x2="861.886" transform="translate(567.501 6671.474)"/><path class="d" d="M567.5,6735.471h863.267V6295.09H567.5v440.381Z"/><path class="d" d="M567.5,6735.471h863.267V6295.09H567.5v440.381Z"/><path class="d" d="M567.5,6735.471h863.267V6295.09H567.5v440.381Z"/><path class="d" d="M567.5,6735.471h863.267V6295.09H567.5v440.381Z"/><path class="d" d="M567.5,6735.471h863.267V6295.09H567.5v440.381Z"/><line class="e" x2="1.842" y2="30.157" transform="translate(583.155 6667.561)"/><path class="d" d="M567.5,6735.471h863.267V6295.09H567.5v440.381Z"/><path class="d" d="M567.5,6735.471h863.267V6295.09H567.5v440.381Z"/><path class="d" d="M567.5,6735.471h863.267V6295.09H567.5v440.381Z"/><path class="d" d="M567.5,6735.471h863.267V6295.09H567.5v440.381Z"/><path class="d" d="M567.5,6735.471h863.267V6295.09H567.5v440.381Z"/><path class="d" d="M567.5,6735.471h863.267V6295.09H567.5v440.381Z"/><path class="d" d="M567.5,6735.471h863.267V6295.09H567.5v440.381Z"/><path class="d" d="M567.5,6735.471h863.267V6295.09H567.5v440.381Z"/><path class="d" d="M567.5,6735.471h863.267V6295.09H567.5v440.381Z"/><path class="d" d="M567.5,6735.471h863.267V6295.09H567.5v440.381Z"/><path class="d" d="M567.5,6735.471h863.267V6295.09H567.5v440.381Z"/><path class="d" d="M567.5,6735.471h863.267V6295.09H567.5v440.381Z"/><path class="d" d="M567.5,6735.471h863.267V6295.09H567.5v440.381Z"/><path class="d" d="M567.5,6735.471h863.267V6295.09H567.5v440.381Z"/><path class="d" d="M567.5,6735.471h863.267V6295.09H567.5v440.381Z"/><line class="e" y1="17.726" x2="28.776" transform="translate(1250.288 6384.409)"/><line class="e" y1="29.236" x2="1.842" transform="translate(838.222 6398.452)"/><path class="e" d="M1212.3,6414.8l10.359,32h8.748"/><path class="e" d="M1193.427,6417.329l-4.834-24.4h-8.518"/><line class="e" x1="0.23" y1="29.236" transform="translate(717.134 6567.882)"/><line class="e" y1="27.394" x2="1.842" transform="translate(585.227 6637.634)"/><line class="e" y1="29.236" x2="2.072" transform="translate(805.993 6548.545)"/><path class="e" d="M597.31,6675.105l29.814,26.3h8.748"/><path class="e" d="M818.194,6593.9l31.768-25.553h8.748"/><line class="e" y1="56.17" x2="36.372" transform="translate(603.183 6608.398)"/><text class="f" transform="translate(1250.173 6379.741)"><tspan x="0" y="0">Argentina</tspan></text><text class="f" transform="translate(817.349 6393.079)"><tspan x="0" y="0">Bolivia</tspan></text><text class="f" transform="translate(1235.379 6451.629)"><tspan x="0" y="0">Brazil</tspan></text><text class="f" transform="translate(1144.624 6396.022)"><tspan x="0" y="0">Chile</tspan></text><text class="f" transform="translate(1097.166 6464.86)"><tspan x="0" y="0">Colombia</tspan></text><text class="f" transform="translate(1119.025 6588.822)"><tspan x="0" y="0">Costa Rica</tspan></text><text class="f" transform="translate(570.645 6713.345)"><tspan x="0" y="0">Cuba</tspan></text><text class="f" transform="translate(795.067 6625.434)"><tspan x="0" y="0">Dominican Republic</tspan></text><text class="f" transform="translate(779.419 6449.668)"><tspan x="0" y="0">Ecuador</tspan></text><text class="f" transform="translate(660.016 6639.825)"><tspan x="0" y="0">El Salvador</tspan></text><text class="f" transform="translate(681.996 6561.941)"><tspan x="0" y="0">Guatemala</tspan></text><text class="f" transform="translate(575.098 6632.996)"><tspan x="0" y="0">Haiti</tspan></text><text class="f" transform="translate(779.317 6542.701)"><tspan x="0" y="0">Honduras</tspan></text><text class="f" transform="translate(731.854 6434.168)"><tspan x="0" y="0">Mexico</tspan></text><text class="f" transform="translate(639.555 6707.299)"><tspan x="0" y="0">Nicaragua</tspan></text><text class="f" transform="translate(1377.273 6466.39)"><tspan x="0" y="0">Panama</tspan></text><text class="f" transform="translate(863.544 6572.478)"><tspan x="0" y="0">Paraguay</tspan></text><text class="f" transform="translate(1189.245 6344.657)"><tspan x="0" y="0">Peru</tspan></text><text class="f" transform="translate(1195.881 6576.612)"><tspan x="0" y="0">Puerto Rico</tspan></text><text class="f" transform="translate(612.653 6600.875)"><tspan x="0" y="0">Uruguay</tspan></text><text class="f" transform="translate(514.282 6740.032)"><tspan x="0" y="0">-200</tspan></text><text class="f" transform="translate(537.12 6677.34)"><tspan x="0" y="0">0</tspan></text><text class="f" transform="translate(519.977 6614.664)"><tspan x="0" y="0">200</tspan></text><text class="f" transform="translate(519.977 6551.957)"><tspan x="0" y="0">400</tspan></text><text class="f" transform="translate(519.977 6489.265)"><tspan x="0" y="0">600</tspan></text><text class="f" transform="translate(519.977 6426.588)"><tspan x="0" y="0">800</tspan></text><text class="f" transform="translate(511.477 6363.912)"><tspan x="0" y="0">1000</tspan></text><text class="f" transform="translate(511.477 6301.205)"><tspan x="0" y="0">1200</tspan></text><text class="f" transform="translate(562.252 6763.788)"><tspan x="0" y="0">0</tspan></text><text class="f" transform="translate(653.93 6763.788)"><tspan x="0" y="0">5000</tspan></text><text class="f" transform="translate(756.307 6763.788)"><tspan x="0" y="0">10000</tspan></text><text class="f" transform="translate(864.022 6763.788)"><tspan x="0" y="0">15000</tspan></text><text class="f" transform="translate(971.75 6763.788)"><tspan x="0" y="0">20000</tspan></text><text class="f" transform="translate(1079.463 6763.788)"><tspan x="0" y="0">25000</tspan></text><text class="f" transform="translate(1187.192 6763.788)"><tspan x="0" y="0">30000</tspan></text><text class="f" transform="translate(1294.905 6763.788)"><tspan x="0" y="0">35000</tspan></text><text class="f" transform="translate(1402.633 6763.788)"><tspan x="0" y="0">40000</tspan></text><text class="g" transform="translate(491.781 6625.156) rotate(-90)"><tspan x="0" y="0">Total Deaths per 1M</tspan></text><text class="g" transform="translate(879.72 6795.758)"><tspan x="0" y="0">Total Cases per 1M</tspan></text><g transform="translate(1303 5919.508)"><path class="h" d="M109,525.992a8.5,8.5,0,1,1-8.5-8.5,8.5,8.5,0,0,1,8.5,8.5Zm0,0"/><path class="i" d="M92,571.492a8.5,8.5,0,0,0,8.5,8.5v-8.5Zm0,0" transform="translate(0 -45.5)"/><path class="j" d="M146,517.492a8.5,8.5,0,0,1,8.5,8.5H146Zm0,0" transform="translate(-45.5)"/><path class="i" d="M111.664,536.274l.55,1.694H114l-1.441,1.047.55,1.694-1.441-1.047-1.441,1.047.55-1.694-1.441-1.047h1.781Zm0,0" transform="translate(-14.604 -15.826)"/><path class="j" d="M155.375,578.535l.55,1.694h1.781l-1.441,1.047.55,1.694-1.441-1.047-1.441,1.047.55-1.694-1.441-1.047h1.781Zm0,0" transform="translate(-51.434 -51.434)"/></g><g transform="translate(1114 5922.848)"><path class="k" d="M109,494.652a8.5,8.5,0,1,1-8.5-8.5,8.5,8.5,0,0,1,8.5,8.5Zm0,0"/><path class="l" d="M111.138,513.415l7.022,5.174-7.022,5.174-7.022-5.174Zm0,0" transform="translate(-10.638 -23.937)"/><path class="h" d="M143.35,534.546a2.957,2.957,0,1,1-2.957-2.957,2.957,2.957,0,0,1,2.957,2.957Zm0,0" transform="translate(-39.894 -39.894)"/><path class="i" d="M138.922,554.307a4.968,4.968,0,0,0-1.477.223,2.956,2.956,0,0,0,5.377,1.657,4.982,4.982,0,0,0-3.9-1.881Zm0,0" transform="translate(-39.901 -59.84)"/><path class="i" d="M145.02,535.112a2.99,2.99,0,0,0,.055-.566,2.957,2.957,0,0,0-5.673-1.167,6.095,6.095,0,0,1,5.619,1.733Zm0,0" transform="translate(-41.618 -39.894)"/></g><g transform="translate(1027 5877.508)"><path class="l" d="M92,563.992a8.5,8.5,0,0,1,17,0l-8.5.739Zm0,0"/><path class="j" d="M96.684,606.263a8.5,8.5,0,0,0,14.725,0l-7.362-.554Zm0,0" transform="translate(-3.546 -38.021)"/><path class="i" d="M107.862,594.742a8.46,8.46,0,0,0,1.138-4.25H92a8.46,8.46,0,0,0,1.138,4.25Zm0,0" transform="translate(0 -26.5)"/></g><g transform="translate(1149.08 5808.382)"><path class="h" d="M109,593.39a8.5,8.5,0,1,1-8.5-8.5,8.5,8.5,0,0,1,8.5,8.5Zm0,0"/><path class="m" d="M101.671,584.89a8.5,8.5,0,0,0-7.657,4.8h15.313a8.5,8.5,0,0,0-7.656-4.8Zm0,0" transform="translate(-1.171)"/><path class="m" d="M101.671,618.822a8.5,8.5,0,0,0,7.656-4.8H94.014a8.5,8.5,0,0,0,7.657,4.8Zm0,0" transform="translate(-1.171 -16.932)"/><path class="l" d="M111.314,601.836l-1.038.488.553,1.005-1.128-.216-.143,1.139-.785-.837-.785.837-.143-1.139-1.128.216.553-1.005-1.038-.488,1.038-.488-.553-1.006,1.128.216.143-1.138.785.837.785-.837.143,1.138,1.128-.216-.553,1.006Zm0,0" transform="translate(-8.274 -8.446)"/></g><g transform="translate(1093 5821.508)"><path class="h" d="M109,596.992a8.5,8.5,0,1,1-8.5-8.5,8.5,8.5,0,0,1,8.5,8.5Zm0,0"/><path class="j" d="M109,604.537a8.5,8.5,0,0,1-17,0c0-4.695,8.5,0,8.5,0Zm0,0" transform="translate(0 -7.545)"/><path class="i" d="M92,596.992a8.5,8.5,0,0,1,8.5-8.5v8.5Zm0,0"/><path class="h" d="M100.269,594.927l.55,1.694H102.6l-1.441,1.047.55,1.694-1.441-1.047-1.441,1.047.55-1.694-1.441-1.047h1.781Zm0,0" transform="translate(-3.21 -3.478)"/></g><g transform="translate(738 5876.508)"><path class="l" d="M109,571.774a8.482,8.482,0,0,0-.529-2.957l-7.971-.37-7.971.37a8.531,8.531,0,0,0,0,5.913l7.971.37,7.971-.37a8.48,8.48,0,0,0,.529-2.956Zm0,0" transform="translate(0 -19.782)"/><path class="k" d="M102.521,604.3a8.5,8.5,0,0,0,7.971-5.544H94.55a8.5,8.5,0,0,0,7.971,5.544Zm0,0" transform="translate(-2.021 -43.804)"/><path class="j" d="M94.55,549.035h15.943a8.5,8.5,0,0,0-15.943,0Zm0,0" transform="translate(-2.021)"/></g><g transform="translate(705.28 5891.278)"><path class="l" d="M92,537.39a8.5,8.5,0,0,1,17,0l-8.5.739Zm0,0"/><path class="j" d="M98.464,598.745a8.5,8.5,0,0,0,14.725,0l-7.362-.554Zm0,0" transform="translate(-5.326 -57.105)"/><path class="i" d="M107.862,581.441a8.46,8.46,0,0,0,1.138-4.25H92a8.46,8.46,0,0,0,1.138,4.25Zm0,0" transform="translate(0 -39.801)"/><path class="l" d="M129.414,563.347a2.956,2.956,0,1,1-2.956-2.956,2.957,2.957,0,0,1,2.956,2.956Zm0,0" transform="translate(-25.957 -25.957)"/><path class="m" d="M131.648,565.2a1.85,1.85,0,0,1-1.848-1.848v-1.109a1.848,1.848,0,0,1,3.7,0v1.109a1.85,1.85,0,0,1-1.848,1.848Zm0,0" transform="translate(-31.148 -25.957)"/><path d="M129.413,548.53H127.2a.739.739,0,0,0-1.478,0H123.5a.761.761,0,0,0,.764.739h-.025a6533.943,6533.943,0,0,0,1.478,1.478H127.2a28931.558,28931.558,0,0,0,1.478-1.478h-.025a.761.761,0,0,0,.764-.739Zm0,0" transform="translate(-25.957 -15.575)"/></g><g transform="translate(654 5846.11)"><path class="h" d="M109,567.39a8.5,8.5,0,1,1-8.5-8.5,8.5,8.5,0,0,1,8.5,8.5Zm0,0"/><path class="j" d="M144.584,569.851a8.5,8.5,0,0,0-4.8-7.657v15.313a8.5,8.5,0,0,0,4.8-7.656Zm0,0" transform="translate(-35.584 -2.461)"/><path class="k" d="M92,569.851a8.5,8.5,0,0,0,4.8,7.656V562.194a8.5,8.5,0,0,0-4.8,7.657Zm0,0" transform="translate(0 -2.461)"/><path class="k" d="M116.614,590.034a2.217,2.217,0,1,0,4.435,0v-.739h-4.435Zm0,0" transform="translate(-18.331 -22.644)"/><path class="n" d="M119.63,584.243h-2.217a.739.739,0,0,0-1.478,0h-2.218a.761.761,0,0,0,.764.739h-.025a12657.487,12657.487,0,0,0,1.478,1.478h1.478a11249.893,11249.893,0,0,1,1.478-1.478h-.025a.76.76,0,0,0,.764-.739Zm0,0" transform="translate(-16.174 -18.331)"/></g><g transform="translate(1131.911 6037.589)"><path class="h" d="M108.987,517.454a8.493,8.493,0,1,1-8.493-8.474,8.484,8.484,0,0,1,8.493,8.474Zm0,0" transform="translate(0 -0.078)"/><path class="j" d="M110.544,508.981a8.487,8.487,0,0,0-6.8,3.389h13.59a8.487,8.487,0,0,0-6.795-3.389Zm0,0" transform="translate(-10.051 -0.078)"/><path class="j" d="M110.544,606.381a8.487,8.487,0,0,0,6.795-3.389h-13.59a8.487,8.487,0,0,0,6.8,3.389Zm0,0" transform="translate(-10.051 -80.532)"/><g transform="translate(92 508.889)"><g class="o" transform="translate(0 0)"><path class="j" d="M92,557.682a8.493,8.493,0,0,0,.17,1.695h16.647a8.526,8.526,0,0,0,0-3.389H92.17a8.489,8.489,0,0,0-.17,1.695Zm0,0" transform="translate(-92 -549.195)"/><path class="i" d="M94.487,526.191a8.459,8.459,0,0,0,0,11.983l6.006-5.992Zm0,0" transform="translate(-92 -523.696)"/></g></g><path class="h" d="M101.994,552.41l.55,1.689h1.78l-1.44,1.044.55,1.689-1.44-1.044-1.44,1.044.55-1.689-1.44-1.044h1.78Zm0,0" transform="translate(-6.556 -37.244)"/></g><g transform="translate(1053 5975.508)"><path class="h" d="M109,590.992a8.5,8.5,0,1,1-8.5-8.5,8.5,8.5,0,0,1,8.5,8.5Zm0,0"/><path class="j" d="M108.471,596.514H92.529a8.532,8.532,0,0,0,0,5.913h15.943a8.532,8.532,0,0,0,0-5.913Zm0,0" transform="translate(0 -8.478)"/><path class="i" d="M103.645,582.492a8.481,8.481,0,0,0-6.443,2.956h12.887a8.482,8.482,0,0,0-6.443-2.956Zm0,0" transform="translate(-3.145)"/><path class="i" d="M110.089,618.014H97.2a8.5,8.5,0,0,0,12.887,0Zm0,0" transform="translate(-3.145 -21.478)"/></g><g transform="translate(756 6024.508)"><path class="h" d="M109,578.992a8.5,8.5,0,1,1-8.5-8.5,8.5,8.5,0,0,1,8.5,8.5Zm0,0"/><path class="j" d="M92.947,605.166a8.516,8.516,0,0,0,5.99,5.99v-5.99Zm0,0" transform="translate(-0.654 -23.957)"/><path class="i" d="M98.937,571.439a8.515,8.515,0,0,0-5.99,5.99h5.99Zm0,0" transform="translate(-0.654 -0.654)"/><path class="j" d="M132.664,577.429a8.514,8.514,0,0,0-5.99-5.99v5.99Zm0,0" transform="translate(-23.957 -0.654)"/><path class="i" d="M126.674,611.156a8.515,8.515,0,0,0,5.99-5.99h-5.99Zm0,0" transform="translate(-23.957 -23.957)"/><path class="p" d="M116.761,593.035a2.217,2.217,0,0,1-4.435,0c0-1.225,2.217-2.217,2.217-2.217s2.217.993,2.217,2.217Zm0,0" transform="translate(-14.043 -14.043)"/><path class="i" d="M112.326,593.035a2.217,2.217,0,0,1,4.435,0" transform="translate(-14.043 -14.043)"/><path class="j" d="M115.464,594.405v1.386a1.247,1.247,0,1,0,2.495,0v-1.386Zm0,0" transform="translate(-16.211 -16.522)"/></g><g transform="translate(719 6025.11)"><path class="h" d="M109,568.39a8.5,8.5,0,1,1-8.5-8.5,8.5,8.5,0,0,1,8.5,8.5Zm0,0"/><path class="j" d="M102.911,559.89a8.5,8.5,0,0,0-7.657,4.8h15.313a8.5,8.5,0,0,0-7.657-4.8Zm0,0" transform="translate(-2.411)"/><path class="i" d="M102.911,611.756a8.5,8.5,0,0,0,7.657-4.8H95.254a8.5,8.5,0,0,0,7.657,4.8Zm0,0" transform="translate(-2.411 -34.866)"/><path class="k" d="M118.439,583.2l-.784.784a1.848,1.848,0,1,1-2.613,0l-.784-.784a2.957,2.957,0,1,0,4.181,0Zm0,0" transform="translate(-15.849 -17.267)"/><path class="l" d="M121.468,586.986l.275.847h.89l-.72.523.275.847-.72-.523-.72.523.275-.847-.72-.523h.891Zm0,0" transform="translate(-20.968 -20.074)"/></g><g transform="translate(706 5999.387)"><path class="h" d="M109,576.113a8.5,8.5,0,1,1-8.5-8.5,8.5,8.5,0,0,1,8.5,8.5Zm0,0"/><path class="m" d="M102.528,613.939a8.5,8.5,0,0,0,7.657-4.8H94.871a8.5,8.5,0,0,0,7.657,4.8Zm0,0" transform="translate(-2.028 -29.326)"/><path class="m" d="M102.528,567.613a8.5,8.5,0,0,0-7.657,4.8h15.313a8.5,8.5,0,0,0-7.657-4.8Zm0,0" transform="translate(-2.028)"/><path class="m" d="M107.006,586.486l.276.847h.891l-.72.523.275.847-.72-.523-.72.523.275-.847-.72-.523h.891Zm0,0" transform="translate(-9.776 -13.33)"/><path class="m" d="M107.006,599.069l.276.847h.891l-.72.524.275.847-.72-.523-.72.523.275-.847-.72-.524h.891Zm0,0" transform="translate(-9.776 -22.217)"/><path class="m" d="M129.266,586.486l.275.847h.891l-.72.523.275.847-.72-.523-.72.523.275-.847-.72-.523h.891Zm0,0" transform="translate(-25.497 -13.33)"/><path class="m" d="M129.266,599.069l.275.847h.891l-.72.524.275.847-.72-.523-.72.523.275-.847-.72-.524h.891Zm0,0" transform="translate(-25.497 -22.217)"/><path class="m" d="M118.136,592.777l.275.847h.891l-.72.523.275.847-.72-.523-.72.523.275-.847-.72-.523h.891Zm0,0" transform="translate(-17.636 -17.773)"/></g><g transform="translate(506 6182.11)"><path class="h" d="M109,476.39a8.5,8.5,0,1,1-8.5-8.5,8.5,8.5,0,0,1,8.5,8.5Zm0,0"/><path class="m" d="M170.8,507.793h8.207a8.451,8.451,0,0,0-.955-2.218H170.8Zm0,0" transform="translate(-70.301 -33.621)"/><path class="m" d="M105.527,590.021h10.582a8.542,8.542,0,0,0,1.961-2.217h-14.5a8.548,8.548,0,0,0,1.961,2.217Zm0,0" transform="translate(-10.318 -106.979)"/><path class="m" d="M170.8,467.89v1.848h5.291a8.463,8.463,0,0,0-5.291-1.848Zm0,0" transform="translate(-70.301)"/><path class="m" d="M170.8,507.793h8.207a8.451,8.451,0,0,0-.955-2.218H170.8Zm0,0" transform="translate(-70.301 -33.621)"/><path class="m" d="M92,546.691a8.506,8.506,0,0,0,.293,2.217h16.414a8.506,8.506,0,0,0,.293-2.217Zm0,0" transform="translate(0 -70.301)"/><path class="l" d="M118.5,494.02l-1.038.488.553,1.006-1.127-.216-.143,1.139-.785-.838-.785.838-.143-1.139-1.127.216.553-1.005-1.038-.488,1.038-.488-.553-1.006,1.127.216.143-1.139.785.837.785-.837.143,1.139,1.127-.216-.553,1.006Zm0,0" transform="translate(-19.108 -21.155)"/></g><g transform="translate(592 6042.387)"><path class="h" d="M109,576.113a8.5,8.5,0,1,1-8.5-8.5,8.5,8.5,0,0,1,8.5,8.5Zm0,0"/><path class="i" d="M102.528,567.613a8.5,8.5,0,0,0-7.657,4.8h15.313a8.5,8.5,0,0,0-7.657-4.8Zm0,0" transform="translate(-2.028)"/><path class="i" d="M102.528,613.939a8.5,8.5,0,0,0,7.657-4.8H94.871a8.5,8.5,0,0,0,7.657,4.8Zm0,0" transform="translate(-2.028 -29.326)"/><path class="l" d="M115.128,590.7l1.707-2.957,1.707,2.957Zm0,0" transform="translate(-16.335 -14.218)"/><path class="k" d="M117.825,597.579l-2.218,1.109-2.217-1.109V596.1h4.435Zm0,0" transform="translate(-15.107 -20.121)"/><path class="l" d="M115.921,588.177l-.784.784a1.848,1.848,0,1,1-2.613,0l-.784-.784a2.956,2.956,0,1,0,4.181,0Zm0,0" transform="translate(-13.33 -14.524)"/></g><g transform="translate(618.619 6049.23)"><path class="h" d="M106.754,548.267a7.377,7.377,0,1,1-7.377-7.377,7.377,7.377,0,0,1,7.377,7.377Zm0,0"/><path class="m" d="M156.862,551.732a7.378,7.378,0,0,0-4.169-6.645v13.29a7.377,7.377,0,0,0,4.169-6.645Zm0,0" transform="translate(-50.109 -3.465)"/><path class="m" d="M92,551.732a7.377,7.377,0,0,0,4.169,6.645v-13.29A7.378,7.378,0,0,0,92,551.732Zm0,0" transform="translate(0 -3.465)"/><path class="q" d="M127.1,574.239l-1.247-1.247,1.187-1.187-.054-.627-.34-.34-1.474,1.474-1.474-1.474-.34.34-.054.627,1.187,1.187-1.247,1.247.68.68,1.247-1.247,1.247,1.247Zm0,0" transform="translate(-25.798 -24.725)"/><path class="k" d="M123.968,572.787l-.68.68a1.6,1.6,0,1,1-2.268,0l-.68-.68a2.566,2.566,0,1,0,3.629,0Zm0,0" transform="translate(-22.777 -26.334)"/></g><g transform="translate(495 6126.372)"><path class="h" d="M109,546.128a8.5,8.5,0,1,1-8.5-8.5,8.5,8.5,0,0,1,8.5,8.5Zm0,0"/><path class="m" d="M104.016,537.628a8.5,8.5,0,0,0-7.657,4.8h15.313a8.5,8.5,0,0,0-7.656-4.8Zm0,0" transform="translate(-3.516)"/><path class="m" d="M104.016,605.464a8.5,8.5,0,0,0,7.656-4.8H96.359a8.5,8.5,0,0,0,7.657,4.8Zm0,0" transform="translate(-3.516 -50.837)"/><path class="l" d="M125.148,568.189a2.587,2.587,0,1,0,2.587,2.587,2.587,2.587,0,0,0-2.587-2.587Zm0,4.065a1.478,1.478,0,1,1,1.478-1.478,1.478,1.478,0,0,1-1.478,1.478Zm0,0" transform="translate(-24.648 -24.648)"/><path class="i" d="M130.1,581.929l-1.28-.369-1.28.369-.427.739h3.414Zm0,0" transform="translate(-28.316 -35.432)"/><path class="m" d="M132.374,572.009l-.854,1.478.854.37.853-.37Zm0,0" transform="translate(-31.874 -27.729)"/><path class="k" d="M129.315,580.388h2.56l-.427-.739h-1.707Zm0,0" transform="translate(-30.095 -33.891)"/></g><g transform="translate(574.655 6663.319)"><path class="h" d="M16.988,8.794A8.494,8.494,0,1,1,8.494.3a8.494,8.494,0,0,1,8.494,8.494Zm0,0" transform="translate(0 -0.288)"/><path class="i" d="M47.793.3A8.477,8.477,0,0,0,41,3.7H54.591a8.491,8.491,0,0,0-6.8-3.4Zm0,0" transform="translate(-39.3 -0.288)"/><path class="i" d="M47.793,331.4a8.477,8.477,0,0,0,6.793-3.4H41a8.477,8.477,0,0,0,6.793,3.4Zm0,0" transform="translate(-39.3 -314.397)"/><g class="r"><path class="i" d="M0,165.8a8.537,8.537,0,0,0,.17,1.7H16.818a8.587,8.587,0,0,0,0-3.4H.17A8.537,8.537,0,0,0,0,165.8Zm0,0" transform="translate(0 -157.294)"/></g><g class="r"><path class="j" d="M2.488,60.3a8.491,8.491,0,0,0,0,12.011l6.005-6.005Zm0,0" transform="translate(0 -57.799)"/></g><path class="h" d="M29.223,151.7l.552,1.692h1.779l-1.439,1.045.552,1.692-1.439-1.045-1.439,1.045.552-1.692L26.9,153.392h1.779Zm0,0" transform="translate(-25.784 -145.408)"/></g><g transform="translate(486 6049.11)"><path class="s" d="M109,612.39a8.5,8.5,0,1,1-17,0c0-4.694,8.5-8.5,8.5-8.5s8.5,3.806,8.5,8.5Zm0,0"/><path class="i" d="M92,612.39a8.5,8.5,0,0,1,17,0"/><path class="h" d="M104.957,616.307,102,615.938l-2.957.369v-4.435h5.913Zm0,0" transform="translate(-1.501 -1.701)"/><path class="i" d="M103.879,614.76a1.478,1.478,0,1,1-1.478-1.478,1.478,1.478,0,0,1,1.478,1.478Zm0,0" transform="translate(-1.901 -2.001)"/><path class="s" d="M103.34,614.96a.739.739,0,1,1-.739-.739.739.739,0,0,1,.739.739Zm0,0" transform="translate(-2.101 -2.201)"/><path class="k" d="M101.392,612.812h2.218l-1.109,1.109Zm0,0" transform="translate(-2.001 -1.901)"/><rect class="l" width="0.739" height="2.217" transform="translate(100.13 611.651)"/><path class="k" d="M103.183,616.287h-2.366l-1.774.961h5.913Zm0,0" transform="translate(-1.501 -2.641)"/></g><g transform="translate(1105.304 5742.767)"><path class="h" d="M109,580.39a8.5,8.5,0,1,1-8.5-8.5,8.5,8.5,0,0,1,8.5,8.5Zm0,0"/><path class="j" d="M133.667,581.528a8.5,8.5,0,0,0-5.544-7.971V589.5a8.5,8.5,0,0,0,5.544-7.971Zm0,0" transform="translate(-24.667 -1.138)"/><path class="j" d="M92,581.528a8.5,8.5,0,0,0,5.544,7.971V573.557A8.5,8.5,0,0,0,92,581.528Zm0,0" transform="translate(0 -1.138)"/></g></g></svg>